<svg width="14" height="14" viewBox="0 0 14 14" fill="none" xmlns="http://www.w3.org/2000/svg">
<g clip-path="url(#clip0_3016_3212)">
<path d="M8.77966 2.91732C9.34942 3.02848 9.87305 3.30713 10.2835 3.71761C10.694 4.12809 10.9727 4.65172 11.0838 5.22148L8.77966 2.91732ZM8.77966 0.583984C9.9634 0.715489 11.0673 1.24559 11.91 2.08724C12.7527 2.92889 13.2842 4.03207 13.4172 5.21565L8.77966 0.583984ZM12.8338 9.87065V11.6207C12.8345 11.7831 12.8012 11.9439 12.7361 12.0928C12.671 12.2416 12.5756 12.3752 12.4559 12.4851C12.3362 12.5949 12.1948 12.6785 12.0409 12.7306C11.887 12.7826 11.724 12.8019 11.5622 12.7873C9.76714 12.5923 8.04291 11.9789 6.52799 10.9965C5.11856 10.1009 3.9236 8.90592 3.02799 7.49648C2.04214 5.97469 1.42863 4.24206 1.23716 2.43898C1.22258 2.27767 1.24175 2.11509 1.29345 1.9616C1.34515 1.8081 1.42824 1.66705 1.53744 1.54743C1.64663 1.42781 1.77954 1.33223 1.9277 1.26679C2.07586 1.20135 2.23602 1.16747 2.39799 1.16732H4.14799C4.43109 1.16453 4.70553 1.26478 4.92018 1.44938C5.13483 1.63398 5.27503 1.89033 5.31466 2.17065C5.38852 2.73069 5.5255 3.28058 5.72299 3.80982C5.80147 4.01861 5.81846 4.24552 5.77194 4.46366C5.72541 4.68181 5.61733 4.88205 5.46049 5.04065L4.71966 5.78148C5.55006 7.24189 6.75925 8.45108 8.21966 9.28148L8.96049 8.54065C9.11909 8.38381 9.31933 8.27573 9.53748 8.22921C9.75562 8.18268 9.98253 8.19967 10.1913 8.27815C10.7206 8.47564 11.2705 8.61262 11.8305 8.68648C12.1139 8.72646 12.3726 8.86919 12.5576 9.08752C12.7426 9.30586 12.8409 9.58457 12.8338 9.87065Z" stroke="#5236FF" stroke-linecap="round" stroke-linejoin="round"/>
</g>
<defs>
<clipPath id="clip0_3016_3212">
<rect width="14" height="14" fill="white"/>
</clipPath>
</defs>
</svg>
