<svg width="498" height="907" viewBox="0 0 498 907" fill="none" xmlns="http://www.w3.org/2000/svg">
<rect y="243.111" width="707" height="707" rx="77" transform="rotate(-20.1125 0 243.111)" fill="#2C296C"/>
<path d="M386.708 480.025C386.708 480.025 379.58 479.528 380.237 495.014C380.894 510.501 382.523 518.759 382.523 518.759C382.523 518.759 382.307 522.186 379.562 521.514C376.817 520.843 371.651 517.503 369.104 519.997C366.557 522.491 367.403 526.563 370.904 531.246C374.405 535.929 381.704 546.454 382.361 547.413C383.018 548.372 383.261 550.107 381.317 549.933C379.373 549.758 366.242 545.451 364.496 551.616C362.75 557.781 374.747 569.265 376.034 570.547C377.321 571.829 377.384 572.631 376.862 573.407C376.34 574.183 372.074 572.326 368.285 571.253C364.496 570.181 359.906 569.562 359.213 573.198C358.52 576.834 363.794 587.481 383.567 598.66L393.08 603.264L402.08 597.701C420.602 584.621 424.751 573.555 423.68 570.006C422.609 566.457 418.1 567.504 414.5 568.942C410.9 570.381 406.778 572.64 406.175 571.925C405.572 571.21 405.563 570.39 406.715 568.995C407.867 567.6 418.604 555.043 416.237 549.043C413.87 543.044 401.243 548.642 399.326 549C397.409 549.357 397.481 547.587 398.021 546.593C398.561 545.599 404.753 534.385 407.759 529.397C410.765 524.409 411.296 520.346 408.398 518.061C405.5 515.777 400.802 519.648 398.147 520.59C395.492 521.532 394.916 518.122 394.916 518.122C394.916 518.122 395.69 509.76 394.745 494.282C393.8 478.804 386.6 480.025 386.6 480.025" fill="#EBEBEB"/>
<path d="M387.266 493.896C387.266 493.896 387.266 494.001 387.266 494.219C387.266 494.437 387.311 494.76 387.347 495.17C387.401 496.042 387.491 497.254 387.599 498.823C387.815 502.006 388.103 506.602 388.427 512.287C389.075 523.623 389.84 539.363 390.623 556.715C391.406 574.068 392.126 589.79 392.711 601.187C393.008 606.864 393.251 611.46 393.413 614.651C393.494 616.229 393.557 617.459 393.602 618.313C393.602 618.723 393.602 619.037 393.647 619.273C393.653 619.38 393.653 619.488 393.647 619.595C393.647 619.595 393.647 619.482 393.647 619.273C393.647 619.063 393.602 618.723 393.566 618.322C393.512 617.45 393.422 616.238 393.314 614.66C393.089 611.486 392.81 606.89 392.486 601.205C391.838 589.869 391.073 574.12 390.29 556.733C389.507 539.345 388.787 523.667 388.202 512.261C387.905 506.593 387.662 501.997 387.491 498.797C387.419 497.219 387.347 495.989 387.311 495.135C387.311 494.734 387.311 494.411 387.266 494.184C387.261 494.088 387.261 493.992 387.266 493.896Z" fill="#E0E0E0"/>
<path d="M376.133 524.957C376.35 525.089 376.55 525.247 376.727 525.428C377.096 525.751 377.627 526.239 378.239 526.832C379.49 528.044 381.182 529.753 383.009 531.671L387.662 536.598L389.075 538.089C389.262 538.259 389.429 538.449 389.57 538.656C389.352 538.524 389.153 538.366 388.976 538.185C388.607 537.863 388.076 537.383 387.473 536.773C386.231 535.552 384.566 533.825 382.739 531.907L378.05 527.006L376.628 525.524C376.44 525.355 376.274 525.164 376.133 524.957Z" fill="#E0E0E0"/>
<path d="M390.515 538.352C390.443 538.282 393.917 534.759 398.282 530.504C402.647 526.249 406.238 522.804 406.31 522.874C406.382 522.944 402.908 526.467 398.543 530.722C394.178 534.977 390.587 538.422 390.515 538.352Z" fill="#E0E0E0"/>
<path d="M390.47 565.061C390.676 564.901 390.899 564.764 391.136 564.651L392.999 563.639C394.565 562.767 396.734 561.599 399.074 560.204C401.414 558.809 403.493 557.492 404.987 556.515L406.787 555.373C406.997 555.22 407.223 555.088 407.462 554.98C407.462 554.98 407.264 555.181 406.868 555.486C406.472 555.791 405.896 556.21 405.158 556.724C403.7 557.753 401.639 559.114 399.29 560.509C396.941 561.904 394.79 563.064 393.143 563.857C392.342 564.259 391.685 564.572 391.226 564.773C390.99 564.905 390.735 565.002 390.47 565.061Z" fill="#E0E0E0"/>
<path d="M374.711 555.713C374.946 555.786 375.17 555.889 375.377 556.018C375.782 556.227 376.376 556.541 377.096 556.942C378.545 557.736 380.534 558.861 382.721 560.117C384.908 561.372 386.87 562.532 388.283 563.387C388.994 563.814 389.561 564.163 389.948 564.415C390.16 564.527 390.357 564.665 390.533 564.825C390.299 564.76 390.078 564.66 389.876 564.529C389.462 564.32 388.877 563.997 388.148 563.605C386.708 562.802 384.719 561.686 382.532 560.422C380.345 559.157 378.383 558.006 376.97 557.16C376.259 556.733 375.692 556.384 375.305 556.131C375.087 556.021 374.887 555.88 374.711 555.713Z" fill="#E0E0E0"/>
<path d="M371.588 579.293C371.884 579.387 372.165 579.519 372.425 579.685L374.639 580.863C376.502 581.874 379.058 583.295 381.839 584.882C384.62 586.47 387.194 587.926 389.039 588.99L391.199 590.271C391.471 590.418 391.727 590.59 391.964 590.786C391.672 590.682 391.392 590.551 391.127 590.394L388.913 589.208C387.05 588.196 384.485 586.775 381.713 585.188C378.941 583.601 376.358 582.144 374.513 581.081L372.353 579.799C372.082 579.653 371.826 579.484 371.588 579.293Z" fill="#E0E0E0"/>
<path d="M391.568 590.376C391.83 590.176 392.106 589.995 392.396 589.835L394.709 588.475C396.662 587.324 399.353 585.719 402.269 583.879C405.185 582.039 407.795 580.304 409.667 579.04L411.89 577.54C412.155 577.343 412.438 577.171 412.736 577.025C412.499 577.255 412.243 577.465 411.971 577.653C411.476 578.037 410.738 578.578 409.82 579.24C408.02 580.557 405.401 582.327 402.467 584.176C399.533 586.024 396.824 587.594 394.844 588.693C393.845 589.233 393.044 589.669 392.468 589.957C392.181 590.123 391.88 590.263 391.568 590.376Z" fill="#E0E0E0"/>
<path d="M405.869 606.281H379.553L388.139 669.275H397.274L405.869 606.281Z" fill="#E0E0E0"/>
<path d="M380.912 614.034C380.912 614.034 380.912 614.121 381.056 614.26C381.23 614.452 381.449 614.602 381.695 614.696C382.152 614.851 382.64 614.901 383.12 614.844C383.601 614.786 384.062 614.622 384.467 614.365C385.538 613.798 386.456 612.682 387.887 612.194C389.463 611.7 391.164 611.731 392.72 612.281C394.302 612.809 395.813 613.521 397.22 614.4C398.397 615.11 399.621 615.745 400.883 616.301C401.741 616.676 402.65 616.931 403.583 617.059C403.836 617.098 404.092 617.115 404.348 617.112C404.528 617.112 404.618 617.112 404.618 617.112C403.373 616.926 402.162 616.574 401.018 616.065C399.779 615.478 398.577 614.82 397.418 614.095C395.989 613.182 394.447 612.45 392.828 611.915C391.182 611.336 389.382 611.318 387.725 611.862C387.02 612.138 386.369 612.527 385.799 613.013C385.325 613.421 384.823 613.797 384.296 614.138C383.926 614.385 383.505 614.552 383.062 614.628C382.62 614.703 382.165 614.685 381.731 614.574C381.427 614.442 381.15 614.259 380.912 614.034Z" fill="#F5F5F5"/>
<path d="M381.875 625.629C381.875 625.629 382.082 625.368 382.496 624.949C383.096 624.379 383.814 623.94 384.602 623.659C385.771 623.247 387.014 623.066 388.256 623.127C389.795 623.234 391.325 623.435 392.837 623.728C394.382 624.015 395.962 624.079 397.526 623.92C398.801 623.756 400.044 623.412 401.216 622.9C402.002 622.555 402.744 622.125 403.43 621.618C403.695 621.451 403.932 621.246 404.132 621.008C403.161 621.621 402.144 622.163 401.09 622.63C399.937 623.078 398.725 623.371 397.49 623.502C395.963 623.638 394.424 623.564 392.918 623.284C391.388 622.991 389.84 622.799 388.283 622.708C386.987 622.663 385.696 622.883 384.494 623.353C383.68 623.67 382.955 624.169 382.379 624.81C382.23 624.984 382.098 625.171 381.983 625.368C381.93 625.448 381.894 625.536 381.875 625.629Z" fill="#F5F5F5"/>
<path d="M402.89 631.839C402.673 631.673 402.425 631.549 402.161 631.472C401.462 631.218 400.728 631.065 399.983 631.019C398.878 630.952 397.769 631.014 396.68 631.202C395.456 631.394 394.142 631.725 392.756 632.004C391.473 632.301 390.159 632.444 388.841 632.432C387.77 632.406 386.714 632.187 385.727 631.786C384.83 631.38 384.028 630.802 383.369 630.086C383.466 630.335 383.616 630.56 383.81 630.749C384.314 631.294 384.926 631.736 385.61 632.048C386.619 632.512 387.715 632.773 388.832 632.815C390.185 632.853 391.538 632.718 392.855 632.414C394.25 632.126 395.555 631.786 396.761 631.542C397.819 631.345 398.896 631.257 399.974 631.281C400.966 631.348 401.946 631.535 402.89 631.839Z" fill="#F5F5F5"/>
<path d="M384.206 640.576C385.007 640.237 385.897 640.148 386.753 640.323C387.688 640.544 388.594 640.869 389.453 641.291C390.992 641.999 392.688 642.325 394.39 642.24C396.091 642.154 397.744 641.661 399.2 640.803C399.767 640.47 400.296 640.079 400.775 639.634C400.953 639.476 401.107 639.294 401.234 639.094C400.539 639.622 399.812 640.108 399.056 640.55C397.189 641.537 395.065 641.973 392.945 641.806C390.452 641.666 388.544 640.227 386.816 640.062C386.144 639.933 385.448 639.978 384.8 640.192C384.377 640.367 384.188 640.559 384.206 640.576Z" fill="#F5F5F5"/>
<path d="M385.7 652.663C386.455 652.687 387.206 652.544 387.896 652.244C389.219 651.817 390.857 650.831 392.774 650.099C393.659 649.744 394.605 649.552 395.564 649.532C396.343 649.528 397.113 649.698 397.814 650.029C398.448 650.365 399.003 650.825 399.443 651.381C399.404 651.186 399.318 651.004 399.191 650.849C398.874 650.399 398.451 650.028 397.958 649.768C397.226 649.376 396.408 649.164 395.573 649.148C394.561 649.148 393.558 649.337 392.621 649.707C390.632 650.474 389.021 651.451 387.788 651.965C386.555 652.479 385.7 652.602 385.7 652.663Z" fill="#F5F5F5"/>
<path d="M386.96 658.286C387.484 658.543 388.046 658.723 388.625 658.818C389.997 659.136 391.389 659.363 392.792 659.498C394.195 659.63 395.605 659.667 397.013 659.611C397.599 659.623 398.183 659.556 398.75 659.411C398.75 659.289 396.05 659.411 392.828 659.08C389.606 658.748 386.987 658.164 386.96 658.286Z" fill="#F5F5F5"/>
<path d="M174.869 376.794L97.6753 394.57L124.609 504.366L201.803 486.589L174.869 376.794Z" fill="#E0E0E0"/>
<path d="M168.86 373.555L91.666 391.332L118.6 501.128L195.794 483.351L168.86 373.555Z" fill="#EBEBEB"/>
<path d="M162.661 372.577L85.4673 390.354L111.887 498.054L189.081 480.277L162.661 372.577Z" fill="#F5F5F5"/>
<path d="M161.699 486.59C161.699 486.59 179.699 474.705 184.118 460.875C182.214 462.943 179.898 464.616 177.308 465.793C174.719 466.969 171.91 467.625 169.052 467.72C169.052 467.72 167.135 482.509 161.699 486.59Z" fill="#EBEBEB"/>
<path d="M162.113 401.266C162.113 401.388 148.442 404.64 131.513 408.538C114.584 412.436 100.832 415.514 100.805 415.375C100.778 415.235 114.476 412 131.405 408.102C148.334 404.204 162.086 401.135 162.113 401.266Z" fill="#E0E0E0"/>
<path d="M164.03 409.114C164.03 409.236 150.359 412.497 133.43 416.386C116.501 420.275 102.749 423.362 102.722 423.223C102.695 423.083 116.393 419.848 133.322 415.95C150.251 412.052 163.994 408.948 164.03 409.114Z" fill="#E0E0E0"/>
<path d="M165.947 416.882C165.947 417.005 152.276 420.266 135.347 424.164C118.418 428.061 104.666 431.14 104.639 431C104.612 430.861 118.301 427.617 135.239 423.719C152.177 419.821 165.911 416.76 165.947 416.882Z" fill="#E0E0E0"/>
<path d="M167.9 424.695C167.9 424.817 154.229 428.078 137.3 431.976C120.371 435.874 106.619 438.952 106.592 438.813C106.565 438.673 120.254 435.429 137.192 431.531C154.13 427.634 167.828 424.573 167.9 424.695Z" fill="#E0E0E0"/>
<path d="M169.781 432.509C169.781 432.631 156.11 435.893 139.181 439.791C122.252 443.688 108.5 446.749 108.5 446.61C108.5 446.47 122.162 443.226 139.1 439.328C156.038 435.431 169.745 432.387 169.781 432.509Z" fill="#E0E0E0"/>
<path d="M171.698 440.322C171.698 440.444 158.027 443.705 141.098 447.603C124.169 451.501 110.426 454.579 110.399 454.44C110.372 454.3 124.061 451.056 140.999 447.158C157.937 443.261 171.662 440.2 171.698 440.322Z" fill="#E0E0E0"/>
<path d="M173.615 448.134C173.615 448.256 159.944 451.518 143.015 455.416C126.086 459.313 112.343 462.392 112.316 462.252C112.289 462.113 125.978 458.869 142.916 454.971C159.854 451.073 173.579 448.012 173.615 448.134Z" fill="#E0E0E0"/>
<path d="M175.532 455.957C175.532 456.079 161.861 459.331 144.932 463.229C128.003 467.127 114.26 470.205 114.233 470.066C114.206 469.926 127.895 466.682 144.833 462.784C161.771 458.887 175.496 455.835 175.532 455.957Z" fill="#E0E0E0"/>
<path d="M459.734 669.195C459.734 669.318 368.258 669.422 255.434 669.422C142.61 669.422 51.1338 669.318 51.1338 669.195C51.1338 669.073 142.601 668.969 255.434 668.969C368.267 668.969 459.734 669.065 459.734 669.195Z" fill="#263238"/>
<path d="M226.769 638.719L224.672 661.12L217.733 678.377C217.615 678.671 217.56 678.986 217.572 679.301C217.584 679.617 217.663 679.926 217.804 680.211C217.945 680.496 218.145 680.749 218.391 680.956C218.638 681.162 218.925 681.318 219.236 681.412C219.598 681.525 219.982 681.551 220.357 681.489C220.731 681.426 221.085 681.277 221.387 681.054C225.293 678.168 239.603 667.495 239.666 665.847C239.738 663.937 243.5 642.346 243.5 642.346L226.769 638.719Z" fill="#FAA11F"/>
<g opacity="0.6">
<path d="M219.2 681.419L239.81 664.346L239.693 665.287C239.603 666.108 239.21 666.87 238.586 667.433C236.93 668.941 232.286 673.005 221.423 681.071C221.111 681.302 220.745 681.456 220.357 681.516C219.969 681.577 219.572 681.544 219.2 681.419Z" fill="white"/>
</g>
<g opacity="0.6">
<path d="M235.958 656.612C235.656 656.782 235.429 657.053 235.318 657.374C235.207 657.695 235.22 658.044 235.355 658.356C235.517 658.661 235.795 658.895 236.13 659.007C236.466 659.119 236.833 659.101 237.155 658.957C237.48 658.776 237.725 658.483 237.841 658.137C237.957 657.791 237.937 657.415 237.785 657.083C237.58 656.782 237.263 656.57 236.9 656.492C236.537 656.414 236.158 656.476 235.841 656.664" fill="white"/>
</g>
<path d="M225.662 672.238C225.198 671.478 224.587 670.812 223.862 670.276C223.055 669.857 222.172 669.59 221.261 669.491C221.261 669.43 221.558 669.291 222.107 669.273C222.829 669.275 223.535 669.478 224.141 669.858C224.747 670.232 225.229 670.768 225.527 671.401C225.725 671.889 225.725 672.221 225.662 672.238Z" fill="#263238"/>
<path d="M223.7 675.072C223.583 675.159 222.926 674.348 221.774 673.886C221.044 673.669 220.302 673.492 219.551 673.354C219.932 673.179 220.35 673.095 220.772 673.109C221.193 673.123 221.604 673.233 221.972 673.432C223.25 673.938 223.79 675.002 223.7 675.072Z" fill="#263238"/>
<path d="M229.172 668.734C228.276 667.99 227.322 667.314 226.319 666.71C225.241 666.245 224.128 665.86 222.989 665.559C224.225 665.463 225.463 665.71 226.559 666.273C227.654 666.835 228.561 667.689 229.172 668.734Z" fill="#263238"/>
<path d="M230.396 661.992C230.324 662.123 229.109 661.46 227.453 661.224C225.797 660.989 224.447 661.224 224.411 661.076C225.401 660.693 226.48 660.575 227.534 660.736C228.587 660.897 229.576 661.331 230.396 661.992Z" fill="#263238"/>
<path d="M231.188 655.418C230.221 654.991 229.197 654.698 228.146 654.546C227.082 654.545 226.022 654.683 224.996 654.956C224.996 654.903 225.248 654.651 225.815 654.415C226.565 654.117 227.377 653.995 228.186 654.057C228.994 654.119 229.776 654.364 230.468 654.773C230.99 655.078 231.233 655.366 231.188 655.418Z" fill="#263238"/>
<path d="M228.335 653.272C228.293 652.98 228.317 652.682 228.407 652.4C228.573 651.633 228.898 650.906 229.361 650.264C229.657 649.766 230.112 649.374 230.657 649.148C230.844 649.091 231.045 649.091 231.231 649.149C231.418 649.207 231.582 649.319 231.701 649.47C231.914 649.781 232.004 650.156 231.953 650.525C231.809 651.27 231.403 651.943 230.804 652.43C230.205 652.916 229.45 653.186 228.668 653.194C227.891 653.19 227.134 652.961 226.492 652.537C225.851 652.112 225.355 651.512 225.068 650.813C224.996 650.636 224.964 650.447 224.975 650.257C224.986 650.067 225.039 649.882 225.131 649.714C225.237 649.553 225.394 649.429 225.58 649.363C225.765 649.297 225.968 649.292 226.157 649.348C226.711 649.53 227.205 649.853 227.588 650.281C228.161 650.833 228.628 651.48 228.965 652.191C229.106 652.442 229.194 652.718 229.226 653.002C228.722 652.097 228.089 651.266 227.345 650.534C226.994 650.176 226.558 649.907 226.076 649.749C225.972 649.717 225.86 649.72 225.757 649.756C225.655 649.792 225.567 649.861 225.509 649.95C225.459 650.063 225.434 650.185 225.434 650.307C225.434 650.43 225.459 650.552 225.509 650.665C225.775 651.259 226.211 651.766 226.767 652.127C227.322 652.487 227.973 652.685 228.641 652.697C229.3 652.688 229.938 652.464 230.449 652.06C230.96 651.656 231.316 651.097 231.458 650.473C231.504 650.217 231.453 649.954 231.314 649.732C231.251 649.645 231.161 649.581 231.058 649.546C230.954 649.512 230.843 649.51 230.738 649.54C230.278 649.735 229.889 650.061 229.622 650.473C229.028 651.326 228.592 652.274 228.335 653.272Z" fill="#263238"/>
<path d="M317.102 421.085C317.126 421.183 317.126 421.284 317.102 421.382C316.715 422.751 314.285 428.48 313.457 428.454C312.629 428.427 310.685 427.198 310.856 426.378C311.027 425.559 314.132 419.263 314.132 419.263C314.132 419.263 314.69 418.303 316.562 418.731C316.787 418.792 317.048 421.321 317.102 421.085Z" fill="#EB996E"/>
<path d="M314.024 417.667C314.024 417.667 314.024 417.789 313.979 417.955C313.583 419.333 311.162 425.062 310.334 425.027C309.506 424.992 307.562 423.771 307.733 422.96C307.904 422.149 311.009 415.845 311.009 415.845C311.009 415.845 311.567 414.877 313.439 415.304C314.6 415.566 314.024 417.667 314.024 417.667Z" fill="#EB996E"/>
<path d="M311.306 415.294C311.306 415.294 311.306 415.416 311.306 415.582C310.919 416.96 308.489 422.689 307.661 422.654C306.833 422.619 304.889 421.398 305.06 420.587C305.231 419.776 308.3 413.472 308.3 413.472C308.183 413.672 308.03 412.321 310.73 412.931C311.9 413.193 311.306 415.294 311.306 415.294Z" fill="#EB996E"/>
<path d="M307.877 413.009C307.877 413.009 307.877 413.131 307.877 413.297C307.49 414.675 305.06 420.395 304.232 420.369C303.404 420.343 301.46 419.113 301.631 418.302C301.802 417.491 304.907 411.187 304.907 411.187C304.907 411.187 305.465 410.219 307.337 410.646C308.444 410.908 307.877 413.009 307.877 413.009Z" fill="#EB996E"/>
<path d="M311.468 424.687C312.051 423.848 312.525 422.943 312.881 421.992C313.351 421.101 313.699 420.154 313.916 419.176C313.331 420.016 312.857 420.925 312.503 421.879C312.028 422.765 311.68 423.71 311.468 424.687Z" fill="#D1734A"/>
<path d="M307.949 423.37C308.725 422.145 309.379 420.852 309.902 419.507C310.55 418.218 311.08 416.876 311.486 415.496C310.715 416.723 310.061 418.016 309.533 419.359C308.885 420.649 308.355 421.991 307.949 423.37Z" fill="#D1734A"/>
<g opacity="0.78">
<path d="M304.502 421.729C305.293 420.494 305.962 419.189 306.5 417.832C307.151 416.543 307.681 415.201 308.084 413.82C307.317 415.047 306.664 416.337 306.131 417.675C305.466 418.977 304.921 420.334 304.502 421.729Z" fill="#D1734A"/>
</g>
<path d="M312.692 432.656C312.836 432.316 315.194 425.532 315.194 425.532L301.694 419.088C301.01 419.96 298.931 429.473 298.931 429.473L299.408 432.717C299.408 432.717 309.65 438.42 309.929 438.472C310.208 438.525 312.692 432.656 312.692 432.656Z" fill="#EB996E"/>
<path d="M302.144 429.725L300.767 424.807C300.168 422.647 300.448 420.346 301.55 418.381L302.396 416.881L313.862 421.938C313.862 421.938 311.207 425.583 308.291 423.613L310.532 427.833L302.144 429.725Z" fill="#EB996E"/>
<path d="M309.542 428.236C309.479 428.236 309.542 427.66 309.38 426.692C309.102 425.36 308.331 424.172 307.211 423.353L306.149 422.594L307.427 422.934L310.379 423.736H310.316C310.958 423.818 311.612 423.721 312.2 423.457C312.788 423.193 313.286 422.773 313.637 422.245C313.69 422.163 313.732 422.076 313.763 421.984L313.934 422.332C310.631 421.033 307.634 419.821 305.582 418.844C304.538 418.347 303.701 417.92 303.143 417.615C302.833 417.479 302.548 417.296 302.297 417.074C303.474 417.482 304.628 417.951 305.753 418.478C307.868 419.35 310.847 420.527 314.159 421.827L314.411 421.923L314.321 422.175C314.28 422.3 314.225 422.419 314.159 422.533C313.766 423.205 313.146 423.725 312.404 424.007C311.73 424.254 311.007 424.352 310.289 424.294H310.226L307.292 423.422L307.508 423.004C308.693 423.908 309.465 425.226 309.659 426.675C309.764 427.196 309.724 427.735 309.542 428.236Z" fill="#D1734A"/>
<path d="M312.296 423.309C312.413 423.309 312.215 423.919 312.395 424.722C312.432 424.94 312.538 425.142 312.7 425.298C312.861 425.455 313.07 425.558 313.295 425.594C313.579 425.575 313.853 425.485 314.09 425.332C314.327 425.179 314.518 424.969 314.645 424.722C315.338 423.544 316.049 422.472 316.445 421.687C316.841 420.902 317.093 420.379 317.174 420.405C317.255 420.431 317.174 420.989 316.823 421.861C316.324 422.955 315.749 424.016 315.104 425.036C314.927 425.371 314.658 425.652 314.326 425.848C313.993 426.043 313.612 426.145 313.223 426.143C312.894 426.085 312.593 425.923 312.37 425.681C312.147 425.44 312.013 425.133 311.99 424.809C311.935 424.428 311.972 424.04 312.098 423.675C312.188 423.431 312.26 423.3 312.296 423.309Z" fill="#D1734A"/>
<path d="M265.541 365.32L261.59 404.56C261.437 406.062 260.682 407.446 259.487 408.414C258.292 409.383 256.753 409.859 255.2 409.739L245.903 409.016C244.349 408.895 242.906 408.188 241.886 407.046C240.866 405.904 240.35 404.419 240.449 402.912C240.746 398.203 241.214 392.448 241.214 392.448C241.214 392.448 232.565 391.148 232.457 382.768C232.403 378.757 232.988 370.56 233.609 363.07C233.939 359.093 235.804 355.382 238.831 352.677C241.858 349.972 245.826 348.471 249.944 348.473H250.52C252.659 348.594 254.751 349.13 256.672 350.049C258.593 350.967 260.304 352.25 261.705 353.821C263.105 355.392 264.167 357.219 264.825 359.194C265.484 361.169 265.728 363.252 265.541 365.32Z" fill="#EB996E"/>
<path d="M241.196 392.352C245.2 392.433 249.136 391.352 252.5 389.248C252.5 389.248 249.8 395.282 241.205 394.524L241.196 392.352Z" fill="#D1734A"/>
<path d="M235.481 369.287C235.634 369.444 236.57 368.773 237.902 368.781C239.234 368.79 240.206 369.427 240.35 369.27C240.494 369.113 240.26 368.912 239.837 368.616C239.264 368.231 238.582 368.027 237.884 368.031C237.192 368.024 236.516 368.236 235.958 368.633C235.544 368.938 235.4 369.217 235.481 369.287Z" fill="#263238"/>
<path d="M248.504 369.287C248.657 369.444 249.593 368.773 250.925 368.781C252.257 368.79 253.22 369.427 253.373 369.27C253.526 369.113 253.283 368.912 252.86 368.616C252.282 368.233 251.598 368.029 250.898 368.031C250.206 368.026 249.531 368.237 248.972 368.633C248.567 368.938 248.432 369.217 248.504 369.287Z" fill="#263238"/>
<path d="M243.725 376.753C243.025 376.537 242.299 376.408 241.565 376.369C241.223 376.369 240.908 376.273 240.845 376.046C240.815 375.708 240.897 375.369 241.079 375.078C241.394 374.276 241.727 373.448 242.078 372.567C243.473 369.009 244.481 366.071 244.337 366.018C244.193 365.966 242.933 368.817 241.538 372.384L240.575 374.895C240.366 375.293 240.306 375.749 240.404 376.186C240.455 376.301 240.531 376.405 240.628 376.489C240.724 376.573 240.838 376.637 240.962 376.674C241.15 376.72 241.344 376.744 241.538 376.744C242.264 376.832 242.998 376.835 243.725 376.753Z" fill="#263238"/>
<path d="M247.64 377.641C247.424 377.641 247.415 379.027 246.182 380.021C244.949 381.015 243.41 380.893 243.401 381.05C243.392 381.207 243.743 381.321 244.391 381.338C245.237 381.353 246.06 381.075 246.713 380.553C247.343 380.059 247.747 379.345 247.838 378.565C247.892 377.981 247.739 377.632 247.64 377.641Z" fill="#263238"/>
<path d="M248.207 362.155C248.333 362.504 249.665 362.338 251.222 362.521C252.779 362.705 254.039 363.114 254.246 362.8C254.345 362.652 254.12 362.321 253.616 361.981C252.937 361.566 252.169 361.306 251.37 361.222C250.572 361.137 249.764 361.23 249.008 361.492C248.441 361.71 248.153 362.024 248.207 362.155Z" fill="#263238"/>
<path d="M235.976 363.237C236.21 363.525 237.119 363.237 238.226 363.237C239.333 363.237 240.26 363.429 240.467 363.124C240.566 362.975 240.467 362.688 240.008 362.408C239.464 362.081 238.832 361.916 238.192 361.935C237.552 361.954 236.931 362.155 236.408 362.513C235.994 362.792 235.868 363.089 235.976 363.237Z" fill="#263238"/>
<path d="M256.145 356.129H256.199C257.577 357.182 258.482 358.709 258.728 360.393C258.723 360.448 258.723 360.504 258.728 360.559C259.07 362.948 259.007 365.381 259.367 367.77C259.599 370.193 260.668 372.47 262.4 374.232C263.147 374.903 264.47 375.374 265.1 374.581C265.301 374.247 265.407 373.868 265.406 373.482C265.865 367.709 267.494 362.591 267.485 356.556C267.485 355.748 267.288 354.952 266.909 354.232C266.531 353.512 265.982 352.889 265.307 352.414C264.002 351.542 262.409 350.574 260.96 351.237C259.511 351.9 257.63 354.533 256.505 355.597" fill="#263238"/>
<path d="M262.625 369.104C262.769 369.043 268.565 367.36 268.376 373.133C268.187 378.906 262.292 377.493 262.283 377.336C262.274 377.179 262.625 369.104 262.625 369.104Z" fill="#EB996E"/>
<path d="M264.2 375.217C264.2 375.217 264.299 375.286 264.47 375.374C264.718 375.47 264.996 375.47 265.244 375.374C265.633 375.152 265.954 374.834 266.174 374.452C266.394 374.071 266.504 373.639 266.495 373.202C266.525 372.711 266.442 372.22 266.252 371.763C266.202 371.583 266.108 371.417 265.978 371.279C265.848 371.141 265.686 371.035 265.505 370.97C265.387 370.936 265.261 370.943 265.148 370.989C265.035 371.035 264.941 371.118 264.884 371.223C264.803 371.38 264.83 371.502 264.803 371.511C264.776 371.519 264.677 371.406 264.731 371.171C264.77 371.031 264.856 370.909 264.974 370.822C265.143 370.711 265.348 370.664 265.55 370.691C265.793 370.744 266.017 370.858 266.201 371.019C266.386 371.181 266.524 371.387 266.603 371.615C266.834 372.119 266.936 372.67 266.9 373.22C266.91 373.731 266.766 374.234 266.484 374.666C266.203 375.098 265.796 375.441 265.316 375.653C265.161 375.685 265.001 375.685 264.846 375.653C264.691 375.622 264.544 375.559 264.416 375.469C264.2 375.356 264.137 375.225 264.2 375.217Z" fill="#D1734A"/>
<path d="M261.176 352.154C262.634 349.869 258.638 346.573 255.722 345.683C252.806 344.794 248.963 346.172 246.056 347.105C244.256 347.689 242.402 348.517 240.467 348.439C239.178 348.313 237.917 348.001 236.723 347.515C235.524 347.026 234.235 346.78 232.934 346.791C232.286 346.804 231.653 346.989 231.106 347.325C230.559 347.662 230.117 348.138 229.829 348.701C229.705 348.986 229.646 349.293 229.656 349.603C229.666 349.912 229.744 350.215 229.886 350.492C230.028 350.77 230.229 351.014 230.477 351.209C230.725 351.404 231.014 351.545 231.323 351.622C230.911 351.406 230.451 351.29 229.983 351.283C229.515 351.277 229.052 351.38 228.633 351.584C228.215 351.788 227.854 352.087 227.58 352.455C227.307 352.824 227.13 353.251 227.063 353.7C226.997 354.149 227.043 354.607 227.199 355.035C227.354 355.463 227.614 355.848 227.957 356.158C228.299 356.468 228.713 356.693 229.165 356.814C229.616 356.935 230.091 356.949 230.549 356.854C229.703 356.235 228.416 357.255 228.524 358.275C228.636 358.776 228.881 359.239 229.235 359.62C229.588 360 230.038 360.285 230.54 360.446C233.006 361.493 235.886 361.161 238.433 360.324C240.98 359.487 243.356 358.197 245.885 357.307C248.414 356.418 252.653 354.805 255.191 355.677C257.063 356.313 258.368 358.493 259.421 358.014C259.919 357.757 260.348 357.39 260.673 356.944C260.999 356.497 261.211 355.982 261.293 355.441C261.434 354.352 261.394 353.248 261.176 352.171" fill="#263238"/>
<path d="M230.603 351.464C230.657 351.464 230.909 351.892 231.548 352.554C232.454 353.487 233.582 354.19 234.833 354.604C236.668 355.251 238.691 355.172 240.467 354.386C242.483 353.514 244.202 351.77 246.182 350.121C248.021 348.457 250.342 347.377 252.833 347.026C253.862 346.906 254.906 347.015 255.886 347.344C256.865 347.673 257.754 348.215 258.485 348.927C258.954 349.426 259.314 350.011 259.545 350.648C259.775 351.284 259.871 351.96 259.826 352.633C259.788 352.991 259.704 353.342 259.574 353.679C259.466 353.906 259.394 354.019 259.376 354.011C259.49 353.552 259.565 353.086 259.601 352.615C259.603 351.34 259.093 350.114 258.179 349.197C257.479 348.559 256.64 348.08 255.725 347.795C254.809 347.509 253.84 347.426 252.887 347.549C250.524 347.919 248.329 348.967 246.587 350.557C244.643 352.162 242.87 353.958 240.719 354.865C239.133 355.524 237.37 355.669 235.692 355.279C234.013 354.89 232.51 353.986 231.404 352.703C231.171 352.43 230.963 352.138 230.783 351.831C230.639 351.56 230.585 351.473 230.603 351.464Z" fill="#455A64"/>
<path d="M264.128 368.86C264.128 368.86 263.876 368.703 263.651 368.241C263.355 367.589 263.252 366.87 263.354 366.165C263.489 364.325 265.154 362.337 265.388 359.791C265.535 358.613 265.306 357.42 264.731 356.373C264.226 355.543 263.455 354.897 262.535 354.533C261.91 354.28 261.227 354.19 260.555 354.271C260.087 354.341 259.826 354.454 259.808 354.411C259.79 354.367 260.015 354.201 260.51 354.053C261.228 353.88 261.983 353.916 262.679 354.158C263.723 354.505 264.611 355.192 265.19 356.102C265.858 357.236 266.13 358.548 265.964 359.843C265.815 361.103 265.431 362.327 264.83 363.453C264.341 364.324 263.983 365.257 263.768 366.226C263.608 367.119 263.734 368.038 264.128 368.86Z" fill="#455A64"/>
<path d="M213.17 327.807C212.855 327.555 211.739 318.215 211.739 318.215L219.839 313.611L232.439 316.428L229.91 323.264L216.968 329.839L213.17 327.807Z" fill="#EB996E"/>
<path d="M188.114 335.192C188.114 335.192 208.472 324.937 221.531 323.595C236.03 322.095 250.646 330.457 250.646 330.457L247.757 293.406C247.757 293.406 234.122 283.544 216.779 287.738C202.073 291.296 187.358 298.202 187.358 298.202L188.114 335.192Z" fill="#FAFAFA"/>
<path d="M188.114 335.193V334.556L188.06 332.646C188.015 330.902 187.952 328.461 187.862 325.278C187.709 318.834 187.484 309.582 187.205 298.246V298.133L187.313 298.08C191.21 296.336 195.458 294.523 200.03 292.848C204.831 291.007 209.728 289.409 214.7 288.061L216.662 287.555L218.687 287.154C220.054 286.885 221.437 286.696 222.827 286.587C225.684 286.397 228.555 286.511 231.386 286.928C234.297 287.38 237.151 288.128 239.9 289.16C242.734 290.205 245.432 291.568 247.937 293.223L248.018 293.276V293.389C248.018 293.747 248.081 294.139 248.108 294.523C249.089 307.228 250.034 319.375 250.889 330.44V330.833L250.529 330.641C246.468 328.474 242.173 326.746 237.722 325.487C233.679 324.33 229.491 323.714 225.275 323.656C221.535 323.679 217.816 324.201 214.223 325.208C210.857 326.08 207.815 327.109 205.079 328.095C199.625 330.092 195.404 331.931 192.524 333.222L189.248 334.722L188.411 335.114L188.114 335.236L188.393 335.079L189.212 334.661C189.95 334.295 191.012 333.789 192.47 333.091C195.323 331.766 199.535 329.882 204.989 327.859C207.689 326.856 210.767 325.819 214.142 324.921C217.76 323.881 221.511 323.338 225.284 323.307C229.553 323.359 233.793 323.984 237.884 325.165C242.375 326.412 246.707 328.143 250.799 330.327L250.475 330.528C249.575 319.462 248.675 307.315 247.658 294.61L247.568 293.468L247.667 293.633C245.194 292.007 242.533 290.667 239.738 289.639C237.018 288.617 234.194 287.875 231.314 287.425C228.5 286.991 225.644 286.86 222.8 287.032C221.428 287.139 220.064 287.323 218.714 287.582L216.716 287.983L214.763 288.48C209.81 289.791 204.929 291.345 200.138 293.136C195.575 294.828 191.318 296.624 187.439 298.368L187.538 298.211C187.727 309.547 187.88 318.738 187.988 325.156C188.033 328.356 188.069 330.859 188.096 332.577V334.53C188.123 334.992 188.114 335.193 188.114 335.193Z" fill="#263238"/>
<path d="M239.954 320.246C239.819 320.246 239.279 313.994 238.748 306.294C238.217 298.594 237.884 292.264 238.01 292.264C238.136 292.264 238.676 298.507 239.216 306.216C239.756 313.924 240.08 320.237 239.954 320.246Z" fill="#E0E0E0"/>
<path d="M234.842 318.302C234.716 318.302 234.176 312.05 233.645 304.35C233.114 296.651 232.745 290.398 232.907 290.346C233.069 290.294 233.573 296.59 234.104 304.298C234.635 312.007 234.977 318.294 234.842 318.302Z" fill="#E0E0E0"/>
<path d="M229.919 317.622C229.793 317.622 229.253 311.37 228.713 303.67C228.173 295.971 227.813 289.666 227.984 289.666C228.155 289.666 228.65 295.91 229.181 303.618C229.712 311.326 230.045 317.614 229.919 317.622Z" fill="#E0E0E0"/>
<path d="M219.812 318.992C219.686 318.992 219.146 312.74 218.606 305.04C218.066 297.34 217.706 291.088 217.877 291.035C218.048 290.983 218.543 297.279 219.074 304.987C219.605 312.696 219.938 318.983 219.812 318.992Z" fill="#E0E0E0"/>
<path d="M215.105 320.246C214.979 320.246 214.439 314.003 213.908 306.294C213.377 298.586 213.044 292.264 213.17 292.264C213.296 292.264 213.836 298.516 214.376 306.216C214.916 313.915 215.24 320.237 215.105 320.246Z" fill="#E0E0E0"/>
<path d="M210.101 321.486C209.966 321.486 209.435 315.233 208.895 307.534C208.355 299.834 207.995 293.529 208.157 293.529C208.319 293.529 208.832 299.773 209.363 307.481C209.894 315.19 210.2 321.477 210.101 321.486Z" fill="#E0E0E0"/>
<path d="M200.57 325.296C200.435 325.296 199.895 319.053 199.364 311.344C198.833 303.636 198.464 297.349 198.626 297.34C198.788 297.331 199.292 303.592 199.832 311.292C200.372 318.992 200.696 325.287 200.57 325.296Z" fill="#E0E0E0"/>
<path d="M205.124 323.229C204.989 323.229 204.458 316.985 203.918 309.277C203.378 301.568 203.018 295.272 203.18 295.264C203.342 295.255 203.855 301.516 204.386 309.216C204.917 316.915 205.25 323.229 205.124 323.229Z" fill="#E0E0E0"/>
<path d="M195.251 326.953C195.125 326.953 194.585 320.7 194.054 313.001C193.523 305.301 193.154 299.049 193.316 298.996C193.478 298.944 193.982 305.24 194.522 312.948C195.062 320.657 195.386 326.944 195.251 326.953Z" fill="#E0E0E0"/>
<path d="M224.726 317.761C224.6 317.761 224.06 311.509 223.52 303.809C222.98 296.109 222.62 289.813 222.791 289.805C222.962 289.796 223.457 296.048 223.988 303.757C224.519 311.465 224.852 317.752 224.726 317.761Z" fill="#E0E0E0"/>
<path d="M231.503 318.057C232.56 317.534 233.678 317.136 234.833 316.871C236.939 316.235 239.882 315.398 243.212 314.508L243.077 315.319L241.763 314.517C235.301 310.637 229.28 309.05 229.37 308.779C229.37 308.666 230.936 308.928 233.339 309.651C236.458 310.672 239.447 312.032 242.249 313.706C242.717 313.976 243.149 314.264 243.59 314.535C243.664 314.583 243.721 314.651 243.757 314.73C243.792 314.809 243.803 314.896 243.789 314.982C243.775 315.067 243.736 315.146 243.677 315.211C243.618 315.275 243.541 315.322 243.455 315.345C240.116 316.217 237.155 316.933 234.995 317.421C233.863 317.773 232.69 317.987 231.503 318.057Z" fill="#FAA11F"/>
<path d="M236.471 317.064C236.219 317.064 235.796 315.024 235.571 312.46C235.346 309.896 235.301 307.786 235.571 307.76C235.841 307.734 236.246 309.792 236.471 312.364C236.696 314.937 236.732 317.038 236.471 317.064Z" fill="#FAA11F"/>
<path d="M243.59 315.415C243.59 315.415 243.698 315.572 243.797 315.921C243.92 316.442 243.886 316.987 243.698 317.49C243.385 318.286 242.833 318.972 242.114 319.461C241.687 319.777 241.225 320.046 240.737 320.263C240.184 320.501 239.604 320.674 239.009 320.778C237.646 321.029 236.244 320.993 234.896 320.673C234.147 320.503 233.412 320.276 232.7 319.993C231.483 319.564 230.365 318.906 229.411 318.058C228.456 317.209 227.684 316.187 227.138 315.049C226.188 313.409 225.87 311.497 226.238 309.651C226.472 308.672 227.059 307.806 227.894 307.21C228.699 306.676 229.626 306.341 230.594 306.233C232.931 305.938 235.308 306.24 237.486 307.111C239.665 307.981 241.571 309.389 243.014 311.195C244.213 312.733 244.929 314.574 245.075 316.496C245.18 317.186 245.161 317.888 245.021 318.572C244.882 317.9 244.78 317.222 244.715 316.54C244.443 314.729 243.676 313.022 242.492 311.596C240.722 309.498 238.296 308.014 235.58 307.367C233.999 306.976 232.354 306.888 230.738 307.105C229.916 307.218 229.133 307.517 228.452 307.977C227.794 308.447 227.334 309.131 227.156 309.904C226.845 311.542 227.138 313.233 227.984 314.683C228.683 316.101 229.73 317.332 231.035 318.267C233.332 319.79 236.115 320.47 238.883 320.185C239.93 320.044 240.929 319.668 241.799 319.086C242.468 318.674 243.006 318.092 243.356 317.403C243.552 316.954 243.638 316.468 243.608 315.982C243.562 315.796 243.556 315.603 243.59 315.415Z" fill="#FAA11F"/>
<path d="M223.151 331.339L227.21 328.156C228.985 326.768 230.137 324.768 230.423 322.575L230.648 320.901L218.453 318.512C218.453 318.512 217.31 322.087 221.9 322.976C217.832 324.72 216.311 328.208 215.195 332.124L223.151 331.339Z" fill="#EB996E"/>
<path d="M218.12 325.993C218.183 325.993 218.444 325.504 219.182 324.85C220.195 323.935 221.523 323.416 222.908 323.394H224.213L222.989 322.949L220.145 321.912H220.199C219.63 321.62 219.158 321.177 218.839 320.635C218.52 320.093 218.368 319.474 218.399 318.851C218.409 318.756 218.427 318.663 218.453 318.572L218.111 318.755C221.531 319.575 224.627 320.263 226.895 320.638C228.029 320.83 228.947 320.961 229.595 321.022C229.924 321.086 230.26 321.103 230.594 321.074C229.411 320.737 228.209 320.463 226.994 320.255C224.762 319.784 221.684 319.034 218.264 318.206L218.003 318.145L217.922 318.389C217.882 318.517 217.855 318.648 217.841 318.781C217.749 319.536 217.933 320.299 218.363 320.935C218.752 321.514 219.273 322 219.884 322.356L222.746 323.315L222.827 322.862C221.336 322.922 219.93 323.549 218.912 324.606C218.525 324.992 218.252 325.47 218.12 325.993Z" fill="#D1734A"/>
<path d="M246.902 647.002L264.407 512.714L261.05 492.361H225.887L221.693 644.551C221.675 645.134 221.872 645.704 222.248 646.159C222.624 646.614 223.154 646.925 223.745 647.037L242.969 649.906C243.425 649.973 243.891 649.951 244.338 649.84C244.785 649.73 245.204 649.533 245.571 649.262C245.938 648.991 246.245 648.651 246.474 648.263C246.702 647.875 246.848 647.446 246.902 647.002Z" fill="#263238"/>
<path d="M263.903 517.24L295.745 547.76L249.935 558.547L253.193 580.896L315.194 572.725C317.817 572.379 320.34 571.519 322.61 570.198C324.88 568.878 326.849 567.124 328.397 565.043C330.738 561.893 332.023 558.122 332.076 554.241C332.129 550.36 330.948 546.557 328.694 543.348L280.4 474.678L258.8 481.488L263.903 517.24Z" fill="#263238"/>
<path d="M262.148 509.445C262.664 510.68 263.036 511.967 263.255 513.282C263.624 514.565 263.842 515.884 263.903 517.215C263.386 515.98 263.015 514.693 262.796 513.378C262.426 512.095 262.209 510.776 262.148 509.445Z" fill="#455A64"/>
<path d="M257.513 561.354C257.513 561.354 257.765 561.258 258.269 561.11L260.492 560.439L269.042 557.919L300.128 548.859L300.047 549.146L261.824 509.723L262.229 509.592C261.464 515.792 260.681 522.254 259.871 528.855C255.929 560.84 252.23 589.782 249.359 610.71C247.937 621.174 246.659 629.623 245.759 635.457C245.246 638.369 244.913 640.637 244.562 642.154L244.184 643.898C244.094 644.282 244.04 644.482 244.04 644.482C244.062 644.28 244.095 644.079 244.139 643.88C244.211 643.479 244.328 642.904 244.472 642.136C244.787 640.619 245.093 638.343 245.579 635.431C246.479 629.588 247.64 621.13 249.026 610.666C251.807 589.738 255.452 560.788 259.394 528.803C260.204 522.202 260.996 515.723 261.761 509.54L261.815 509.061L262.157 509.409L300.299 548.911L300.497 549.12L300.218 549.199L269.087 558.111L260.519 560.535L258.269 561.163L257.513 561.354Z" fill="#455A64"/>
<path d="M247.208 644.475C247.073 644.475 250.709 615.951 255.308 580.819C259.907 545.686 263.759 517.163 263.885 517.215C264.011 517.267 260.384 545.721 255.785 580.871C251.186 616.021 247.334 644.483 247.208 644.475Z" fill="#455A64"/>
<path d="M258.737 495.23C259.065 495.895 259.313 496.595 259.475 497.315C259.862 498.614 260.375 500.436 260.807 502.459C261.239 504.482 261.599 506.331 261.806 507.691C261.965 508.411 262.04 509.145 262.031 509.88C261.772 509.191 261.588 508.478 261.482 507.752C261.158 506.261 260.771 504.509 260.348 502.573L259.151 497.41C258.94 496.699 258.801 495.969 258.737 495.23Z" fill="#455A64"/>
<path d="M260.78 492.597C260.78 492.597 261.23 492.178 262.076 492.466C262.323 492.552 262.543 492.699 262.712 492.894C262.881 493.089 262.994 493.323 263.039 493.574C263.1 493.884 263.064 494.205 262.936 494.496C262.808 494.786 262.593 495.033 262.319 495.204C262.036 495.354 261.713 495.418 261.391 495.387C261.07 495.356 260.766 495.231 260.519 495.03C260.316 494.863 260.168 494.641 260.094 494.393C260.02 494.145 260.024 493.881 260.105 493.635C260.191 493.313 260.405 493.038 260.699 492.867C260.906 492.754 261.041 492.754 261.05 492.78C261.059 492.806 260.564 493.024 260.42 493.713C260.38 493.896 260.393 494.086 260.459 494.261C260.524 494.437 260.638 494.591 260.789 494.707C260.973 494.849 261.195 494.935 261.429 494.955C261.662 494.975 261.897 494.929 262.103 494.821C262.298 494.691 262.452 494.512 262.548 494.302C262.643 494.093 262.676 493.862 262.643 493.635C262.614 493.447 262.537 493.269 262.419 493.116C262.301 492.964 262.146 492.843 261.968 492.763C261.591 492.618 261.184 492.561 260.78 492.597Z" fill="#455A64"/>
<path d="M305.114 552.993C305.024 553.097 303.224 551.502 300.614 550.063C298.004 548.624 295.727 547.883 295.763 547.752C299.358 548.504 302.618 550.335 305.078 552.984L305.114 552.993Z" fill="#455A64"/>
<path d="M225.383 491.952L222.287 438.577C222.287 438.577 217.67 419.35 213.683 411.624L234.734 396.678L240.188 399.215L250.988 408.729L261.914 402.546C261.914 402.546 275 407.883 278.447 409.889C281.894 411.894 282.578 417.231 282.578 417.231C282.578 417.231 271.229 436.607 270.878 444.21C270.527 451.814 282.227 471.242 282.227 471.242C282.227 471.242 288.626 473.082 288.986 478.07C289.301 482.387 287.231 483.93 287.231 483.93C287.231 483.93 286.331 479.239 279.824 481.244C273.317 483.25 259.7 494.926 249.935 495.257C240.17 495.589 225.383 491.952 225.383 491.952Z" fill="#FAA11F"/>
<path d="M282.002 414.955L290.3 447.917L299.732 426.117L313.106 433.965C313.106 433.965 300.506 477.399 288.014 473.126C288.014 473.126 280.238 469.316 279.284 466.612C278.33 463.909 263.912 444.211 263.912 444.211L282.002 414.955Z" fill="#FAA11F"/>
<path d="M282.2 471.242C282.2 471.242 282.083 471.12 281.912 470.876L281.156 469.803C280.832 469.332 280.427 468.757 280.022 468.059C279.617 467.362 279.122 466.586 278.645 465.67C278.168 464.754 277.628 463.786 277.151 462.688C276.674 461.589 276.161 460.412 275.675 459.156C274.674 456.409 273.901 453.59 273.362 450.724C272.866 447.841 272.598 444.926 272.561 442.004C272.561 440.661 272.561 439.388 272.66 438.193C272.759 436.999 272.849 435.9 272.948 434.888C273.191 432.874 273.452 431.252 273.704 430.145C273.812 429.639 273.902 429.212 273.983 428.872C274.002 428.721 274.044 428.574 274.109 428.436C274.129 428.586 274.129 428.738 274.109 428.889C274.055 429.238 273.992 429.665 273.92 430.18C273.731 431.296 273.515 432.918 273.317 434.923C273.236 435.926 273.11 437.025 273.092 438.211C273.074 439.397 273.02 440.661 273.029 441.995C273.093 444.886 273.373 447.768 273.866 450.619C274.394 453.462 275.149 456.261 276.125 458.99C276.593 460.237 277.025 461.432 277.547 462.478C278.069 463.525 278.519 464.554 278.969 465.469C279.419 466.385 279.869 467.161 280.283 467.867C280.697 468.574 281.048 469.167 281.345 469.655L282.02 470.78C282.098 470.927 282.158 471.082 282.2 471.242Z" fill="#263238"/>
<path d="M210.074 325.146C210.074 325.146 189.014 359.434 187.574 364.491C186.062 369.723 215.303 414.535 215.303 414.535C215.303 414.535 215.87 415.974 215.879 415.965L236.777 399.79L212.144 366.017L225.383 332.288L210.074 325.146Z" fill="#FAA11F"/>
<path d="M212.999 367.387C212.927 367.44 212.486 366.829 211.559 366.062C210.346 365.07 208.915 364.36 207.375 363.987C205.836 363.614 204.228 363.587 202.676 363.908C201.488 364.161 200.795 364.501 200.759 364.422C201.287 364.009 201.901 363.712 202.559 363.55C203.271 363.35 204.006 363.239 204.746 363.219C205.655 363.2 206.563 363.297 207.446 363.507C208.325 363.73 209.171 364.058 209.966 364.483C210.618 364.842 211.222 365.275 211.766 365.774C212.294 366.218 212.715 366.769 212.999 367.387Z" fill="#263238"/>
<path d="M222.566 417.309C222.476 417.309 222.521 416.114 222.188 414.239C221.984 413.138 221.683 412.055 221.288 411.004C220.35 408.416 218.873 406.041 216.95 404.028C216.166 403.215 215.314 402.465 214.403 401.787C212.828 400.636 211.703 400.113 211.766 400.043C212.047 400.115 212.316 400.224 212.567 400.366C212.877 400.501 213.177 400.656 213.467 400.828C213.858 401.044 214.236 401.28 214.601 401.534C215.572 402.187 216.476 402.929 217.301 403.749C218.289 404.764 219.166 405.874 219.92 407.063C220.655 408.26 221.258 409.528 221.72 410.847C222.091 411.925 222.356 413.034 222.512 414.161C222.574 414.592 222.613 415.025 222.629 415.46C222.656 415.788 222.656 416.117 222.629 416.445C222.656 416.734 222.635 417.026 222.566 417.309Z" fill="#263238"/>
<path d="M279.752 472.235C279.752 472.288 279.095 472.235 277.952 472.305C276.32 472.463 274.723 472.866 273.218 473.5C270.993 474.455 268.898 475.674 266.981 477.127C264.785 478.732 262.481 480.685 259.862 482.447C257.408 484.187 254.597 485.394 251.618 485.987C249.182 486.404 246.692 486.43 244.247 486.065C242.605 485.833 240.988 485.459 239.414 484.949C238.856 484.766 238.433 484.609 238.145 484.496C237.998 484.446 237.856 484.382 237.722 484.304C238.312 484.43 238.895 484.588 239.468 484.775C241.045 485.218 242.655 485.545 244.283 485.751C246.678 486.059 249.108 485.997 251.483 485.568C254.409 484.978 257.171 483.789 259.583 482.08C262.193 480.336 264.479 478.392 266.711 476.796C268.666 475.337 270.808 474.129 273.083 473.203C274.626 472.581 276.266 472.219 277.934 472.131C278.384 472.105 278.835 472.105 279.284 472.131C279.444 472.147 279.601 472.182 279.752 472.235Z" fill="#263238"/>
<path d="M289.454 463.045C289.173 462.342 288.989 461.606 288.905 460.856C288.616 459.057 288.523 457.233 288.626 455.415C288.734 453.597 289.035 451.793 289.526 450.035C289.69 449.297 289.957 448.585 290.318 447.916C290.21 448.657 290.053 449.391 289.85 450.113C289.467 451.869 289.224 453.65 289.121 455.441C289.023 457.233 289.071 459.029 289.265 460.813C289.381 461.552 289.445 462.298 289.454 463.045Z" fill="#263238"/>
<g opacity="0.3">
<path d="M238.604 484.105C238.676 481.925 241.358 480.678 243.608 480.809C245.858 480.94 247.991 481.925 250.241 482.003C254.057 482.143 257.441 479.719 260.357 477.364C263.273 475.01 266.513 472.472 270.329 472.324C270.806 472.324 271.409 472.403 271.544 472.856C271.679 473.31 271.31 473.65 270.986 473.929C266.288 477.992 261.482 482.134 255.686 484.515C249.89 486.895 242.825 487.27 237.56 483.931" fill="black"/>
</g>
<g opacity="0.3">
<path d="M273.686 431.216C273.052 441.889 276.633 452.396 283.703 460.603C284.882 461.954 286.187 463.289 286.763 464.963C287.339 466.637 286.952 468.8 285.35 469.654C284.652 469.962 283.876 470.063 283.118 469.945C282.361 469.827 281.657 469.496 281.093 468.992C279.98 467.969 279.113 466.722 278.555 465.338C273.245 454.333 270.617 441.628 274.055 429.943" fill="black"/>
</g>
<path d="M169.88 607.422C170.78 604.492 172.625 601.667 175.514 600.446C178.403 599.225 181.994 599.905 185.072 600.987C188.15 602.068 191.165 603.524 194.432 603.716C197.699 603.908 201.38 602.408 202.361 599.356C203.261 596.504 201.506 593.479 199.292 591.412C196.952 589.229 194.083 587.651 190.948 586.825C187.814 585.999 184.515 585.951 181.356 586.685C178.197 587.419 175.28 588.912 172.874 591.026C170.467 593.14 168.648 595.806 167.585 598.78" fill="#FAA11F"/>
<g opacity="0.5">
<path d="M169.88 607.422C170.78 604.492 172.625 601.667 175.514 600.446C178.403 599.225 181.994 599.905 185.072 600.987C188.15 602.068 191.165 603.524 194.432 603.716C197.699 603.908 201.38 602.408 202.361 599.356C203.261 596.504 201.506 593.479 199.292 591.412C196.952 589.229 194.083 587.651 190.948 586.825C187.814 585.999 184.515 585.951 181.356 586.685C178.197 587.419 175.28 588.912 172.874 591.026C170.467 593.14 168.648 595.806 167.585 598.78" fill="black"/>
</g>
<path d="M144.014 620.134C139.217 615.731 139.46 608.048 141.845 602.084C144.23 596.119 149.459 591.533 155.282 588.507C160.97 585.614 167.26 584.007 173.68 583.807C180.101 583.606 186.485 584.816 192.353 587.347C189.479 587.466 186.68 588.266 184.199 589.677C181.718 591.088 179.632 593.066 178.124 595.439C175.505 599.668 174.92 604.796 172.724 609.252C170.28 614.276 165.943 618.203 160.604 620.227C155.265 622.251 149.329 622.218 144.014 620.134Z" fill="#FAA11F"/>
<path d="M141.71 593.635C136.409 587.575 135.698 577.834 136.481 569.917C137.264 561.999 139.181 554.038 137.867 546.19C137.102 541.533 135.239 537.095 134.609 532.421C133.979 527.747 134.87 522.471 138.605 519.454C142.898 515.966 149.657 516.838 154.13 520.064C158.603 523.291 161.177 528.427 163.067 533.519C167.225 544.716 168.755 557.124 165.335 568.548C161.915 579.971 153.914 590.191 142.169 593.635" fill="#FAA11F"/>
<path d="M139.163 643.409C139.143 643.177 139.143 642.944 139.163 642.712C139.163 642.258 139.163 641.578 139.163 640.706C139.235 638.962 139.406 636.451 139.811 633.364C140.279 629.743 140.958 626.15 141.845 622.603C142.948 618.248 144.652 614.056 146.912 610.142C149.18 606.234 151.963 602.629 155.192 599.417C157.821 596.797 160.732 594.458 163.877 592.441C165.2 591.569 166.478 590.88 167.585 590.252C168.692 589.624 169.7 589.206 170.51 588.831L172.418 588.055C172.635 587.955 172.861 587.873 173.093 587.811C172.887 587.932 172.674 588.039 172.454 588.133L170.582 589.005C169.79 589.406 168.782 589.877 167.702 590.488C166.622 591.098 165.353 591.822 164.048 592.72C157.133 597.282 151.4 603.331 147.299 610.395C142.421 618.662 141.08 627.356 140.099 633.442C139.658 636.52 139.433 639.023 139.316 640.758C139.262 641.63 139.226 642.267 139.199 642.755C139.204 642.974 139.192 643.192 139.163 643.409Z" fill="#263238"/>
<path d="M93.416 569.707C83.597 575.445 83.633 580.668 85.316 585.595C86.999 590.522 92.975 593.949 97.97 592.1C100.787 591.054 102.839 588.682 104.585 586.292C106.331 583.903 107.969 581.348 110.417 579.63C112.865 577.913 116.411 577.259 118.868 578.959" fill="#FAA11F"/>
<g opacity="0.5">
<path d="M93.416 569.707C83.597 575.445 83.633 580.668 85.316 585.595C86.999 590.522 92.975 593.949 97.97 592.1C100.787 591.054 102.839 588.682 104.585 586.292C106.331 583.903 107.969 581.348 110.417 579.63C112.865 577.913 116.411 577.259 118.868 578.959" fill="black"/>
</g>
<path d="M86.0629 575.994C88.6279 572.558 94.9729 571.564 98.9689 573.282C102.965 575 105.908 578.392 108.5 581.767C111.092 585.141 113.675 588.743 117.311 591.106C120.947 593.469 126.023 594.323 129.65 591.978C130.804 591.143 131.77 590.09 132.49 588.881C133.209 587.673 133.667 586.335 133.835 584.949C134.156 582.174 133.961 579.365 133.259 576.657C132.359 572.672 130.982 568.503 127.688 565.975C124.016 563.149 118.922 563.019 114.242 563.167C108.842 563.332 103.442 563.725 98.3659 565.53C93.2899 567.335 88.1689 571.233 86.0269 575.994" fill="#FAA11F"/>
<path d="M131 635.832C130.988 635.762 130.988 635.692 131 635.623C131 635.457 131 635.256 131 635.012C131 634.437 131 633.643 130.919 632.649C130.856 630.565 130.766 627.609 130.658 623.973C130.55 620.336 130.388 615.941 130.109 611.111C129.83 606.28 129.461 600.952 128.705 595.415C128.383 592.723 127.839 590.06 127.076 587.453C125.558 582.841 123.232 578.517 120.2 574.67C118.936 573.101 117.549 571.628 116.051 570.266C113.865 568.306 111.39 566.672 108.707 565.418C108.23 565.2 107.807 564.991 107.438 564.842L106.475 564.485L105.89 564.258L105.692 564.162L105.908 564.214L106.511 564.406L107.483 564.729C107.87 564.86 108.293 565.06 108.779 565.261C111.512 566.474 114.037 568.085 116.267 570.039C117.793 571.402 119.205 572.88 120.488 574.46C121.944 576.283 123.236 578.223 124.349 580.259C125.589 582.506 126.613 584.859 127.409 587.288C128.184 589.919 128.735 592.608 129.056 595.327C129.821 600.882 130.181 606.21 130.433 611.023C130.685 615.837 130.811 620.232 130.892 623.903C130.973 627.574 130.991 630.539 131.009 632.623V634.96C131.009 635.213 131.009 635.413 131.009 635.579C131.017 635.663 131.014 635.748 131 635.832Z" fill="#263238"/>
<path d="M134.537 640.095C134.071 638.761 133.713 637.394 133.466 636.005C132.782 632.22 132.631 628.363 133.016 624.539C133.618 618.884 134.871 613.312 136.751 607.927C138.767 601.823 141.503 595.266 143.834 588.237C144.986 584.821 145.927 581.342 146.651 577.817C147.299 574.53 147.765 571.211 148.046 567.876C148.494 562.222 148.599 556.547 148.361 550.881C148.19 546.032 147.92 542.117 147.758 539.414L147.569 536.301C147.569 535.961 147.569 535.691 147.569 535.49C147.557 535.397 147.557 535.304 147.569 535.211C147.577 535.301 147.577 535.391 147.569 535.481C147.569 535.691 147.614 535.952 147.65 536.292C147.716 537.036 147.806 538.074 147.92 539.405C148.136 542.108 148.451 546.024 148.658 550.872C148.942 556.551 148.87 562.241 148.442 567.911C148.171 571.261 147.711 574.594 147.065 577.895C146.343 581.435 145.402 584.929 144.248 588.359C141.899 595.414 139.154 601.945 137.129 608.04C135.236 613.411 133.956 618.967 133.313 624.608C132.908 628.41 133.011 632.247 133.619 636.023C133.862 637.357 134.087 638.386 134.276 639.075C134.357 639.406 134.429 639.668 134.474 639.86C134.504 639.936 134.525 640.015 134.537 640.095Z" fill="#263238"/>
<path d="M158.864 644.386H112.784L111.731 635.797H158.864V644.386Z" fill="#455A64"/>
<path d="M117.734 643.408L123.494 669.193H148.532L153.923 643.408H117.734Z" fill="#455A64"/>
<path d="M158.9 644.386C158.9 644.508 148.775 644.577 136.274 644.542C123.773 644.508 113.648 644.386 113.648 644.263C113.648 644.141 123.782 644.08 136.283 644.115C148.784 644.15 158.9 644.272 158.9 644.386Z" fill="#455A64"/>
<path d="M150.962 657.117C149.708 656.208 148.345 655.45 146.903 654.859C145.327 654.26 143.654 653.936 141.962 653.9C139.89 653.907 137.835 654.273 135.896 654.981C133.799 655.67 131.837 656.472 129.929 656.908C128.231 657.266 126.48 657.316 124.763 657.056C123.609 656.899 122.49 656.557 121.451 656.045C121.17 655.902 120.902 655.736 120.65 655.548C120.479 655.426 120.389 655.356 120.398 655.339C120.407 655.321 120.794 655.565 121.523 655.897C122.568 656.343 123.675 656.637 124.808 656.769C126.486 656.977 128.189 656.897 129.839 656.533C131.684 656.088 133.646 655.278 135.761 654.589C137.749 653.865 139.857 653.501 141.98 653.516C143.713 653.577 145.42 653.94 147.02 654.589C148.093 655.023 149.101 655.595 150.017 656.289C150.269 656.473 150.509 656.671 150.737 656.882C150.89 657.022 150.971 657.1 150.962 657.117Z" fill="#263238"/>
<path d="M150.611 658.835C149.4 657.957 148.093 657.212 146.714 656.612C145.201 656.014 143.587 655.691 141.953 655.661C139.95 655.667 137.964 656.012 136.085 656.681C134.051 657.344 132.152 658.103 130.334 658.582C128.721 659.03 127.041 659.213 125.366 659.123C124.233 659.047 123.128 658.75 122.117 658.251C121.846 658.112 121.587 657.951 121.343 657.771C121.172 657.649 121.091 657.58 121.1 657.571C121.109 657.562 121.487 657.789 122.189 658.103C123.204 658.521 124.29 658.754 125.393 658.792C127.025 658.842 128.655 658.633 130.217 658.173C132.017 657.693 133.889 656.917 135.95 656.254C137.875 655.57 139.911 655.228 141.962 655.243C143.64 655.293 145.293 655.654 146.831 656.306C147.863 656.745 148.832 657.314 149.711 657.998C149.952 658.178 150.18 658.373 150.395 658.582C150.548 658.748 150.62 658.827 150.611 658.835Z" fill="white"/>
<path d="M151.412 655.408C150.121 654.463 148.723 653.664 147.245 653.027C145.641 652.357 143.93 651.958 142.187 651.85C140.035 651.795 137.893 652.157 135.887 652.914C133.866 653.679 131.801 654.334 129.704 654.876C127.938 655.164 126.134 655.164 124.367 654.876C123.179 654.692 122.026 654.336 120.947 653.82C120.658 653.676 120.381 653.51 120.119 653.323C119.939 653.193 119.849 653.123 119.858 653.105C119.867 653.088 120.263 653.341 121.019 653.672C122.109 654.105 123.253 654.398 124.421 654.544C126.149 654.784 127.906 654.752 129.623 654.448C131.697 653.891 133.74 653.23 135.743 652.469C137.789 651.699 139.975 651.34 142.169 651.414C143.954 651.542 145.7 651.979 147.326 652.704C148.425 653.177 149.459 653.781 150.404 654.501C150.662 654.693 150.909 654.9 151.142 655.12C151.349 655.312 151.421 655.39 151.412 655.408Z" fill="white"/>
<path d="M159.278 644.429C159.278 644.542 148.91 644.638 136.121 644.638C123.332 644.638 113 644.551 113 644.429C113 644.307 123.368 644.211 136.148 644.211C148.928 644.211 159.278 644.307 159.278 644.429Z" fill="#263238"/>
<path d="M399.956 435.053C399.529 434.549 399.18 433.988 398.921 433.387C398.309 432.262 397.436 430.588 396.329 428.417C394.115 424.057 390.929 417.752 387.095 409.861C379.355 394.077 368.708 372.051 356.828 347.164H358.952C357.332 350.817 355.604 354.663 353.984 358.622C351.059 365.598 348.386 372.574 346.028 379.288C344.804 382.654 343.733 385.994 342.635 389.255C341.537 392.517 340.574 395.743 339.656 398.847C335.93 411.439 333.176 422.941 331.169 432.663C329.162 442.386 327.884 450.313 327.002 455.798C326.561 458.544 326.264 460.681 326.003 462.12C325.931 462.866 325.764 463.601 325.508 464.308C325.402 463.565 325.402 462.811 325.508 462.067C325.616 460.611 325.769 458.448 326.066 455.684C326.669 450.156 327.713 442.168 329.513 432.367C331.313 422.566 333.914 410.968 337.55 398.28C338.45 395.106 339.458 391.871 340.475 388.566C341.492 385.261 342.608 381.913 343.823 378.53C346.172 371.737 348.845 364.778 351.779 357.724C353.417 353.747 355.163 349.876 356.792 346.213C356.853 346.077 356.94 345.955 357.05 345.852C357.16 345.749 357.29 345.668 357.432 345.614C357.574 345.559 357.726 345.533 357.879 345.535C358.031 345.538 358.182 345.57 358.322 345.629C358.584 345.736 358.793 345.935 358.907 346.187C370.733 371.1 381.119 393.275 388.481 409.189C392.162 417.168 395.096 423.595 397.067 428.042C398.048 430.265 398.795 431.992 399.281 433.169C399.597 433.763 399.825 434.397 399.956 435.053Z" fill="#31FA1F"/>
<path d="M384.89 397.488C385.061 398.099 368.123 403.087 347.09 408.633C326.057 414.179 308.804 418.225 308.633 417.579C308.462 416.934 325.4 411.981 346.478 406.435C367.556 400.889 384.719 396.904 384.89 397.488Z" fill="#31FA1F"/>
<path d="M373.1 328.138C373.435 327.892 373.801 327.69 374.189 327.536L375.566 326.873C376.124 326.629 376.799 326.394 377.555 326.106C379.438 325.434 381.381 324.935 383.36 324.615C386.079 324.218 388.841 324.189 391.568 324.527C394.988 324.995 398.307 325.996 401.396 327.492C405.043 329.312 408.413 331.609 411.413 334.32C414.855 337.424 417.914 340.903 420.53 344.688C421.249 345.705 421.89 346.771 422.447 347.88C423.023 348.987 423.626 350.103 424.202 351.246L425.75 354.821C426.29 356.024 426.65 357.297 427.118 358.562C428.89 363.908 429.996 369.441 430.412 375.042C430.835 381.103 430.612 387.19 429.746 393.206C428.813 399.63 427.39 405.978 425.489 412.198C425.039 413.812 424.472 415.399 423.968 417.021C423.464 418.642 422.78 420.247 422.168 421.878C421.439 423.456 420.764 425.069 419.963 426.647L418.712 428.993L418.091 430.17L417.389 431.313C413.602 437.587 409.071 443.41 403.889 448.665C398.504 454.136 392.55 459.054 386.123 463.341C379.519 467.862 372.386 471.612 364.874 474.511C357.051 477.534 348.68 479.002 340.259 478.828C335.98 478.699 331.752 477.895 327.74 476.447C323.75 474.997 320.106 472.774 317.03 469.916C315.512 468.522 314.129 466.995 312.899 465.355C311.676 463.744 310.581 462.044 309.623 460.272C307.736 456.797 306.228 453.141 305.123 449.363C301.08 435.019 300.269 420.001 302.747 405.327C303.869 398.524 305.607 391.831 307.94 385.323C308.237 384.539 308.525 383.754 308.84 382.969C309.155 382.184 309.416 381.408 309.74 380.649C310.394 379.132 311.042 377.624 311.684 376.124L313.826 371.764C314.51 370.307 315.356 368.947 316.103 367.552C319.085 362.229 322.495 357.141 326.3 352.336L327.65 350.592L329.063 348.935C330.017 347.845 330.917 346.737 331.88 345.7L334.769 342.648C335.669 341.619 336.749 340.721 337.712 339.77C339.638 337.86 341.726 336.204 343.67 334.538L346.712 332.201L348.206 331.059L349.736 330.012L352.742 327.972L355.757 326.141L357.224 325.269L358.718 324.458L361.634 322.897C363.569 321.92 365.486 321.048 367.313 320.194C369.14 319.339 370.967 318.659 372.713 317.987L377.744 316.182L382.37 314.752C388.256 313.069 392.9 312.067 396.068 311.482C397.652 311.203 398.867 310.994 399.668 310.872C400.073 310.77 400.492 310.726 400.91 310.741C400.527 310.906 400.125 311.026 399.713 311.099C398.912 311.299 397.715 311.578 396.113 311.927C392.99 312.66 388.391 313.793 382.613 315.598L378.059 317.115L373.1 318.955C371.39 319.653 369.644 320.438 367.799 321.223C365.954 322.007 364.136 322.967 362.237 323.978L359.384 325.565L357.917 326.376L356.477 327.248L353.525 329.088L350.6 331.172L349.106 332.219L347.648 333.352L344.678 335.68C342.779 337.372 340.745 339.02 338.873 340.912C337.928 341.854 336.902 342.744 335.993 343.764C335.084 344.784 334.121 345.769 333.176 346.798C332.231 347.827 331.376 348.935 330.431 350.007L329.045 351.655L327.731 353.399C324.014 358.156 320.689 363.189 317.786 368.45C317.057 369.828 316.238 371.171 315.572 372.601L313.493 376.909L311.612 381.373C311.279 382.114 310.991 382.882 310.712 383.658L309.875 385.977C307.631 392.374 305.966 398.947 304.898 405.623C303.767 412.645 303.375 419.759 303.728 426.857C304.067 434.25 305.275 441.581 307.328 448.709C308.393 452.332 309.841 455.838 311.648 459.173C312.557 460.848 313.595 462.454 314.753 463.978C315.906 465.51 317.202 466.938 318.623 468.242C321.472 470.88 324.839 472.938 328.523 474.293C332.304 475.645 336.285 476.396 340.313 476.517C348.416 476.671 356.469 475.257 364.001 472.358C371.359 469.533 378.349 465.881 384.827 461.475C391.135 457.288 396.983 452.484 402.278 447.139C407.345 442.018 411.782 436.344 415.499 430.231L416.183 429.115L416.795 427.973L418.019 425.697C418.802 424.171 419.459 422.601 420.179 421.075C420.764 419.488 421.403 417.945 421.934 416.358C422.465 414.771 423.014 413.192 423.464 411.597C425.373 405.482 426.814 399.239 427.775 392.918C428.669 387.031 428.931 381.07 428.558 375.13C428.203 369.659 427.176 364.25 425.498 359.015C425.057 357.786 424.715 356.53 424.202 355.353C423.689 354.175 423.212 352.998 422.726 351.865L421.052 348.551C420.532 347.48 419.931 346.448 419.252 345.464C416.751 341.738 413.816 338.303 410.504 335.227C407.63 332.553 404.393 330.271 400.883 328.443C397.929 326.949 394.748 325.921 391.46 325.399C388.814 325.005 386.125 324.964 383.468 325.277C381.52 325.533 379.599 325.954 377.726 326.533C376.97 326.786 376.295 326.978 375.719 327.187L374.306 327.745C373.922 327.924 373.517 328.055 373.1 328.138Z" fill="#31FA1F"/>
<path d="M393.287 385.654C392.639 385.654 391.55 375.19 390.866 362.11C390.182 349.03 390.137 338.479 390.785 338.479C391.433 338.479 392.513 348.943 393.206 362.023C393.899 375.103 393.926 385.619 393.287 385.654Z" fill="#31FA1F"/>
<path d="M407.885 356.39C408.128 356.965 401.054 360.314 391.919 363.444C382.784 366.575 375.116 368.319 374.936 367.726C374.756 367.133 382.064 364.438 391.136 361.308C400.208 358.177 407.642 355.805 407.885 356.39Z" fill="#31FA1F"/>
</svg>
