<svg width="155" height="154" viewBox="0 0 155 154" fill="none" xmlns="http://www.w3.org/2000/svg">
<rect x="0.737305" y="41.1504" width="119.671" height="119.671" rx="21" transform="rotate(-20.1125 0.737305 41.1504)" fill="#2C296C"/>
<path d="M107.342 76.978C107.342 76.978 105.647 76.8606 105.803 80.5192C105.959 84.1777 106.347 86.1285 106.347 86.1285C106.347 86.1285 106.295 86.9381 105.643 86.7795C104.99 86.6209 103.761 85.8319 103.156 86.421C102.55 87.0102 102.751 87.9722 103.584 89.0784C104.416 90.1847 106.152 92.6711 106.308 92.8977C106.464 93.1243 106.522 93.5342 106.06 93.493C105.598 93.4518 102.475 92.4342 102.06 93.8906C101.645 95.347 104.498 98.0601 104.804 98.3629C105.11 98.6657 105.125 98.8552 105.001 99.0385C104.876 99.2219 103.862 98.7831 102.961 98.5297C102.06 98.2764 100.969 98.1301 100.804 98.9891C100.639 99.8481 101.893 102.363 106.595 105.004L108.857 106.092L110.997 104.778C115.401 101.688 116.387 99.0736 116.133 98.2352C115.878 97.3967 114.806 97.6439 113.95 97.9838C113.094 98.3237 112.114 98.8573 111.971 98.6883C111.827 98.5194 111.825 98.3258 112.099 97.9962C112.373 97.6666 114.926 94.7002 114.363 93.2829C113.8 91.8656 110.798 93.1882 110.342 93.2726C109.886 93.3571 109.903 92.9389 110.032 92.7041C110.16 92.4692 111.632 89.82 112.347 88.6417C113.062 87.4634 113.188 86.5034 112.499 85.9637C111.81 85.424 110.693 86.3386 110.062 86.5611C109.43 86.7836 109.293 85.9782 109.293 85.9782C109.293 85.9782 109.477 84.0026 109.253 80.3461C109.028 76.6896 107.316 76.978 107.316 76.978" fill="#EBEBEB"/>
<path d="M107.474 80.2578C107.474 80.2578 107.474 80.2825 107.474 80.334C107.474 80.3855 107.484 80.4618 107.493 80.5586C107.506 80.7646 107.527 81.0509 107.553 81.4217C107.604 82.1736 107.673 83.2592 107.75 84.6024C107.904 87.2804 108.086 90.9986 108.272 95.098C108.458 99.1974 108.629 102.912 108.768 105.604C108.839 106.945 108.897 108.031 108.935 108.785C108.954 109.158 108.969 109.448 108.98 109.65C108.98 109.747 108.98 109.821 108.991 109.876C108.992 109.902 108.992 109.927 108.991 109.953C108.991 109.953 108.991 109.926 108.991 109.876C108.991 109.827 108.98 109.747 108.972 109.652C108.959 109.446 108.937 109.16 108.912 108.787C108.858 108.037 108.792 106.951 108.715 105.608C108.561 102.93 108.379 99.2098 108.193 95.1022C108.006 90.9945 107.835 87.2907 107.696 84.5962C107.625 83.2572 107.568 82.1716 107.527 81.4155C107.51 81.0427 107.493 80.7522 107.484 80.5503C107.484 80.4556 107.484 80.3793 107.474 80.3258C107.472 80.3031 107.472 80.2805 107.474 80.2578Z" fill="#E0E0E0"/>
<path d="M104.826 87.5957C104.878 87.6269 104.925 87.6643 104.967 87.7069C105.055 87.7832 105.181 87.8985 105.327 88.0386C105.624 88.3249 106.027 88.7287 106.461 89.1819L107.568 90.3458L107.903 90.6981C107.948 90.738 107.988 90.783 108.021 90.832C107.969 90.8007 107.922 90.7634 107.88 90.7207C107.792 90.6445 107.666 90.5312 107.523 90.387C107.227 90.0986 106.831 89.6907 106.397 89.2375L105.282 88.0798L104.944 87.7296C104.899 87.6896 104.86 87.6447 104.826 87.5957Z" fill="#E0E0E0"/>
<path d="M108.245 90.7583C108.228 90.7418 109.054 89.9096 110.092 88.9043C111.13 87.899 111.984 87.0853 112.001 87.1018C112.018 87.1183 111.192 87.9505 110.154 88.9558C109.116 89.9611 108.262 90.7748 108.245 90.7583Z" fill="#E0E0E0"/>
<path d="M108.235 97.0689C108.284 97.0312 108.337 96.9987 108.394 96.972L108.837 96.7331C109.209 96.5271 109.725 96.251 110.281 95.9214C110.838 95.5918 111.332 95.2808 111.687 95.0501L112.115 94.7802C112.165 94.744 112.219 94.713 112.276 94.6875C112.276 94.6875 112.229 94.7349 112.134 94.807C112.04 94.8791 111.903 94.978 111.728 95.0995C111.381 95.3426 110.891 95.6639 110.333 95.9935C109.774 96.3231 109.263 96.5971 108.871 96.7846C108.68 96.8793 108.524 96.9535 108.415 97.0009C108.359 97.0321 108.298 97.0551 108.235 97.0689Z" fill="#E0E0E0"/>
<path d="M104.489 94.8594C104.545 94.8766 104.598 94.9009 104.648 94.9315C104.744 94.9809 104.885 95.0551 105.056 95.1498C105.401 95.3373 105.874 95.603 106.394 95.8997C106.914 96.1963 107.38 96.4703 107.716 96.6722C107.885 96.7731 108.02 96.8555 108.112 96.9153C108.163 96.9416 108.21 96.9742 108.251 97.0121C108.196 96.9967 108.143 96.9731 108.095 96.942C107.997 96.8926 107.858 96.8164 107.684 96.7237C107.342 96.5342 106.869 96.2705 106.349 95.9718C105.829 95.6731 105.362 95.4012 105.026 95.2013C104.857 95.1004 104.723 95.018 104.63 94.9583C104.579 94.9321 104.531 94.8988 104.489 94.8594Z" fill="#E0E0E0"/>
<path d="M103.746 100.43C103.816 100.452 103.883 100.483 103.945 100.522L104.472 100.8C104.915 101.039 105.522 101.375 106.184 101.75C106.845 102.125 107.457 102.469 107.896 102.72L108.409 103.023C108.474 103.058 108.535 103.098 108.591 103.145C108.522 103.12 108.455 103.089 108.392 103.052L107.866 102.772C107.423 102.533 106.813 102.197 106.154 101.822C105.494 101.447 104.88 101.103 104.442 100.852L103.928 100.549C103.864 100.515 103.803 100.475 103.746 100.43Z" fill="#E0E0E0"/>
<path d="M108.497 103.048C108.559 103.001 108.625 102.958 108.694 102.921L109.244 102.599C109.708 102.327 110.348 101.948 111.042 101.514C111.735 101.079 112.355 100.669 112.801 100.37L113.329 100.016C113.392 99.9697 113.46 99.929 113.53 99.8945C113.474 99.9488 113.413 99.9984 113.348 100.043C113.231 100.133 113.055 100.261 112.837 100.418C112.409 100.729 111.786 101.147 111.089 101.584C110.391 102.02 109.747 102.391 109.276 102.651C109.038 102.779 108.848 102.882 108.711 102.95C108.643 102.989 108.571 103.022 108.497 103.048Z" fill="#E0E0E0"/>
<path d="M111.897 106.805H105.64L107.681 121.686H109.853L111.897 106.805Z" fill="#E0E0E0"/>
<path d="M105.963 108.636C105.963 108.636 105.963 108.656 105.997 108.689C106.039 108.735 106.091 108.77 106.149 108.792C106.258 108.829 106.374 108.841 106.488 108.827C106.602 108.813 106.712 108.775 106.808 108.714C107.063 108.58 107.281 108.316 107.621 108.201C107.996 108.084 108.401 108.092 108.771 108.222C109.147 108.346 109.506 108.514 109.841 108.722C110.121 108.89 110.411 109.04 110.712 109.171C110.916 109.26 111.132 109.32 111.354 109.35C111.414 109.36 111.475 109.364 111.535 109.363C111.578 109.363 111.6 109.363 111.6 109.363C111.304 109.319 111.016 109.236 110.744 109.116C110.449 108.977 110.163 108.821 109.888 108.65C109.548 108.435 109.181 108.262 108.796 108.135C108.405 107.998 107.977 107.994 107.583 108.123C107.415 108.188 107.26 108.28 107.125 108.395C107.012 108.491 106.893 108.58 106.768 108.66C106.68 108.719 106.58 108.758 106.474 108.776C106.369 108.794 106.261 108.789 106.158 108.763C106.085 108.732 106.02 108.689 105.963 108.636Z" fill="#F5F5F5"/>
<path d="M106.192 111.377C106.192 111.377 106.242 111.315 106.34 111.216C106.483 111.082 106.653 110.978 106.841 110.911C107.119 110.814 107.414 110.771 107.71 110.786C108.075 110.811 108.439 110.859 108.799 110.928C109.166 110.995 109.542 111.011 109.914 110.973C110.217 110.934 110.513 110.853 110.791 110.732C110.978 110.651 111.155 110.549 111.318 110.429C111.381 110.39 111.437 110.341 111.485 110.285C111.254 110.43 111.012 110.558 110.761 110.668C110.487 110.774 110.199 110.843 109.905 110.874C109.542 110.906 109.176 110.889 108.818 110.823C108.454 110.754 108.086 110.708 107.716 110.687C107.408 110.676 107.101 110.728 106.815 110.839C106.622 110.914 106.449 111.032 106.312 111.183C106.277 111.224 106.245 111.269 106.218 111.315C106.206 111.334 106.197 111.355 106.192 111.377Z" fill="#F5F5F5"/>
<path d="M111.189 112.844C111.137 112.805 111.078 112.775 111.015 112.757C110.849 112.697 110.674 112.661 110.497 112.65C110.235 112.634 109.971 112.649 109.712 112.693C109.421 112.739 109.108 112.817 108.779 112.883C108.474 112.953 108.161 112.987 107.848 112.984C107.593 112.978 107.342 112.926 107.108 112.831C106.894 112.735 106.704 112.599 106.547 112.43C106.57 112.488 106.606 112.542 106.652 112.586C106.772 112.715 106.917 112.82 107.08 112.893C107.32 113.003 107.58 113.064 107.846 113.074C108.168 113.083 108.489 113.051 108.802 112.98C109.134 112.912 109.444 112.831 109.731 112.774C109.983 112.727 110.239 112.706 110.495 112.712C110.731 112.728 110.964 112.772 111.189 112.844Z" fill="#F5F5F5"/>
<path d="M106.746 114.907C106.937 114.827 107.149 114.806 107.352 114.847C107.574 114.899 107.79 114.976 107.994 115.076C108.36 115.243 108.763 115.32 109.168 115.3C109.572 115.28 109.966 115.163 110.312 114.96C110.447 114.882 110.572 114.789 110.686 114.684C110.728 114.647 110.765 114.604 110.795 114.557C110.63 114.681 110.457 114.796 110.277 114.901C109.833 115.134 109.328 115.237 108.824 115.197C108.232 115.164 107.778 114.824 107.367 114.785C107.207 114.755 107.042 114.766 106.888 114.816C106.787 114.857 106.742 114.903 106.746 114.907Z" fill="#F5F5F5"/>
<path d="M107.102 117.764C107.281 117.769 107.46 117.736 107.624 117.665C107.938 117.564 108.328 117.331 108.784 117.158C108.994 117.074 109.219 117.029 109.447 117.024C109.632 117.023 109.815 117.063 109.982 117.142C110.133 117.221 110.265 117.33 110.369 117.461C110.36 117.415 110.34 117.372 110.309 117.335C110.234 117.229 110.134 117.141 110.016 117.08C109.842 116.987 109.648 116.937 109.449 116.934C109.209 116.933 108.97 116.978 108.747 117.065C108.274 117.247 107.891 117.477 107.598 117.599C107.305 117.721 107.102 117.749 107.102 117.764Z" fill="#F5F5F5"/>
<path d="M107.4 119.094C107.525 119.155 107.659 119.197 107.796 119.219C108.122 119.294 108.453 119.348 108.787 119.38C109.121 119.411 109.456 119.42 109.791 119.407C109.93 119.41 110.069 119.394 110.204 119.359C110.204 119.331 109.562 119.359 108.796 119.281C108.03 119.203 107.407 119.065 107.4 119.094Z" fill="#F5F5F5"/>
<path d="M56.9711 52.5915L38.6162 56.791L45.0206 82.729L63.3755 78.5294L56.9711 52.5915Z" fill="#E0E0E0"/>
<path d="M55.5414 51.8278L37.1865 56.0273L43.5909 81.9653L61.9458 77.7658L55.5414 51.8278Z" fill="#EBEBEB"/>
<path d="M54.0678 51.5954L35.7129 55.7949L41.995 81.2378L60.3499 77.0383L54.0678 51.5954Z" fill="#F5F5F5"/>
<path d="M53.8389 78.53C53.8389 78.53 58.1189 75.7222 59.1696 72.4551C58.717 72.9437 58.1662 73.3389 57.5505 73.6169C56.9348 73.8948 56.2669 74.0497 55.5872 74.0722C55.5872 74.0722 55.1314 77.5659 53.8389 78.53Z" fill="#EBEBEB"/>
<path d="M53.938 58.374C53.938 58.4028 50.6874 59.1712 46.662 60.092C42.6367 61.0129 39.3668 61.74 39.3604 61.7071C39.3539 61.6741 42.611 60.9099 46.6364 59.989C50.6617 59.0682 53.9316 58.3431 53.938 58.374Z" fill="#E0E0E0"/>
<path d="M54.3931 60.2281C54.3931 60.2569 51.1425 61.0273 47.1171 61.9461C43.0918 62.8649 39.8219 63.5941 39.8154 63.5611C39.809 63.5282 43.0661 62.7639 47.0914 61.8431C51.1168 60.9223 54.3846 60.1889 54.3931 60.2281Z" fill="#E0E0E0"/>
<path d="M54.8492 62.0633C54.8492 62.0922 51.5985 62.8626 47.5732 63.7834C43.5478 64.7043 40.2779 65.4314 40.2715 65.3985C40.2651 65.3655 43.52 64.5992 47.5475 63.6784C51.575 62.7576 54.8406 62.0345 54.8492 62.0633Z" fill="#E0E0E0"/>
<path d="M55.313 63.909C55.313 63.9379 52.0624 64.7083 48.037 65.6291C44.0117 66.55 40.7418 67.2771 40.7354 67.2442C40.7289 67.2112 43.9839 66.4449 48.0114 65.5241C52.0388 64.6033 55.2959 63.8802 55.313 63.909Z" fill="#E0E0E0"/>
<path d="M55.7607 65.7547C55.7607 65.7836 52.5101 66.554 48.4847 67.4748C44.4594 68.3957 41.1895 69.1187 41.1895 69.0858C41.1895 69.0528 44.438 68.2865 48.4655 67.3657C52.4929 66.4448 55.7522 65.7259 55.7607 65.7547Z" fill="#E0E0E0"/>
<path d="M56.2162 67.6004C56.2162 67.6293 52.9655 68.3997 48.9402 69.3205C44.9148 70.2414 41.6471 70.9685 41.6406 70.9356C41.6342 70.9026 44.8892 70.1363 48.9166 69.2155C52.9441 68.2947 56.2076 67.5716 56.2162 67.6004Z" fill="#E0E0E0"/>
<path d="M56.6722 69.4461C56.6722 69.475 53.4216 70.2454 49.3962 71.1662C45.3709 72.0871 42.1031 72.8142 42.0967 72.7813C42.0903 72.7483 45.3452 71.982 49.3727 71.0612C53.4002 70.1404 56.6637 69.4173 56.6722 69.4461Z" fill="#E0E0E0"/>
<path d="M57.1283 71.2938C57.1283 71.3226 53.8776 72.091 49.8523 73.0118C45.8269 73.9327 42.5592 74.6598 42.5527 74.6269C42.5463 74.5939 45.8013 73.8276 49.8287 72.9068C53.8562 71.986 57.1197 71.265 57.1283 71.2938Z" fill="#E0E0E0"/>
<path d="M124.706 121.667C124.706 121.696 102.955 121.72 76.1278 121.72C49.3008 121.72 27.5498 121.696 27.5498 121.667C27.5498 121.638 49.2986 121.613 76.1278 121.613C102.957 121.613 124.706 121.636 124.706 121.667Z" fill="#263238"/>
<path d="M69.3113 114.467L68.8127 119.759L67.1628 123.836C67.1346 123.905 67.1215 123.979 67.1244 124.054C67.1273 124.128 67.1461 124.202 67.1796 124.269C67.2132 124.336 67.2607 124.396 67.3193 124.445C67.3778 124.494 67.4462 124.53 67.5201 124.553C67.6061 124.579 67.6976 124.585 67.7866 124.571C67.8757 124.556 67.9597 124.521 68.0316 124.468C68.9604 123.786 72.363 121.265 72.3779 120.875C72.3951 120.424 73.2896 115.324 73.2896 115.324L69.3113 114.467Z" fill="#FAA11F"/>
<g opacity="0.6">
<path d="M67.5117 124.555L72.4123 120.521L72.3845 120.744C72.363 120.938 72.2696 121.118 72.1213 121.251C71.7275 121.607 70.6233 122.567 68.0403 124.473C67.9661 124.527 67.879 124.563 67.7868 124.578C67.6945 124.592 67.6 124.584 67.5117 124.555Z" fill="white"/>
</g>
<g opacity="0.6">
<path d="M71.4971 118.694C71.4253 118.735 71.3713 118.799 71.3449 118.874C71.3185 118.95 71.3216 119.033 71.3537 119.106C71.3923 119.178 71.4583 119.234 71.5381 119.26C71.6178 119.287 71.7051 119.282 71.7817 119.248C71.8591 119.205 71.9172 119.136 71.9449 119.055C71.9725 118.973 71.9678 118.884 71.9315 118.806C71.8829 118.735 71.8075 118.684 71.7212 118.666C71.6349 118.648 71.5446 118.662 71.4693 118.707" fill="white"/>
</g>
<path d="M69.0484 122.388C68.938 122.208 68.7927 122.051 68.6204 121.924C68.4284 121.825 68.2185 121.762 68.002 121.739C68.002 121.725 68.0726 121.692 68.2031 121.688C68.3747 121.688 68.5426 121.736 68.6868 121.826C68.8308 121.914 68.9453 122.041 69.0163 122.19C69.0634 122.306 69.0634 122.384 69.0484 122.388Z" fill="#263238"/>
<path d="M68.5822 123.056C68.5544 123.076 68.3982 122.885 68.1243 122.776C67.9506 122.725 67.7741 122.683 67.5957 122.65C67.6863 122.609 67.7857 122.589 67.8859 122.592C67.986 122.595 68.0839 122.622 68.1714 122.669C68.4752 122.788 68.6036 123.039 68.5822 123.056Z" fill="#263238"/>
<path d="M69.8833 121.559C69.6701 121.384 69.4433 121.224 69.2049 121.081C68.9485 120.972 68.6838 120.881 68.4131 120.81C68.7069 120.787 69.0013 120.845 69.2618 120.978C69.5222 121.111 69.7379 121.313 69.8833 121.559Z" fill="#263238"/>
<path d="M70.1741 119.966C70.157 119.996 69.8681 119.84 69.4743 119.784C69.0805 119.729 68.7595 119.784 68.751 119.749C68.9864 119.659 69.243 119.631 69.4934 119.669C69.7439 119.707 69.9791 119.809 70.1741 119.966Z" fill="#263238"/>
<path d="M70.3629 118.413C70.133 118.312 69.8895 118.243 69.6396 118.207C69.3866 118.207 69.1346 118.239 68.8906 118.304C68.8906 118.292 68.9505 118.232 69.0854 118.176C69.2638 118.106 69.4568 118.077 69.649 118.092C69.8412 118.106 70.0271 118.164 70.1917 118.261C70.3159 118.333 70.3736 118.401 70.3629 118.413Z" fill="#263238"/>
<path d="M69.6841 117.906C69.6741 117.837 69.6799 117.767 69.7012 117.7C69.7408 117.519 69.818 117.347 69.9281 117.196C69.9985 117.078 70.1066 116.985 70.2362 116.932C70.2807 116.918 70.3284 116.919 70.3729 116.932C70.4173 116.946 70.4562 116.972 70.4845 117.008C70.5352 117.081 70.5565 117.17 70.5444 117.257C70.5102 117.433 70.4136 117.592 70.2712 117.707C70.1287 117.822 69.9492 117.886 69.7633 117.888C69.5786 117.887 69.3985 117.833 69.246 117.732C69.0935 117.632 68.9755 117.49 68.9073 117.325C68.8902 117.284 68.8827 117.239 68.8853 117.194C68.8878 117.149 68.9005 117.105 68.9223 117.066C68.9474 117.028 68.9849 116.998 69.029 116.983C69.0731 116.967 69.1213 116.966 69.1662 116.979C69.298 117.022 69.4154 117.098 69.5065 117.2C69.6428 117.33 69.7537 117.483 69.8339 117.651C69.8674 117.71 69.8885 117.775 69.896 117.842C69.7762 117.629 69.6256 117.432 69.4487 117.259C69.3653 117.175 69.2617 117.111 69.147 117.074C69.1222 117.066 69.0956 117.067 69.0712 117.076C69.0468 117.084 69.026 117.1 69.0121 117.121C69.0004 117.148 68.9943 117.177 68.9943 117.206C68.9943 117.235 69.0004 117.264 69.0121 117.29C69.0754 117.431 69.1792 117.55 69.3112 117.636C69.4433 117.721 69.598 117.767 69.7569 117.77C69.9137 117.768 70.0652 117.715 70.1868 117.62C70.3084 117.524 70.3929 117.392 70.4267 117.245C70.4377 117.185 70.4255 117.122 70.3925 117.07C70.3774 117.049 70.3561 117.034 70.3315 117.026C70.307 117.018 70.2804 117.017 70.2555 117.025C70.1461 117.071 70.0536 117.147 69.9901 117.245C69.8489 117.447 69.7454 117.67 69.6841 117.906Z" fill="#263238"/>
<path d="M90.7904 63.0528C90.796 63.0758 90.796 63.0998 90.7904 63.1229C90.6984 63.4463 90.1206 64.7997 89.9237 64.7935C89.7268 64.7873 89.2646 64.4969 89.3053 64.3032C89.3459 64.1096 90.0842 62.6223 90.0842 62.6223C90.0842 62.6223 90.2169 62.3957 90.662 62.4966C90.7155 62.511 90.7776 63.1084 90.7904 63.0528Z" fill="#EB996E"/>
<path d="M90.0589 62.2461C90.0589 62.2461 90.0589 62.2749 90.0482 62.3141C89.9541 62.6396 89.3784 63.993 89.1815 63.9847C88.9846 63.9765 88.5224 63.6881 88.5631 63.4965C88.6037 63.3049 89.342 61.8156 89.342 61.8156C89.342 61.8156 89.4747 61.5869 89.9198 61.6878C90.1959 61.7496 90.0589 62.2461 90.0589 62.2461Z" fill="#EB996E"/>
<path d="M89.4125 61.6878C89.4125 61.6878 89.4125 61.7166 89.4125 61.7557C89.3205 62.0812 88.7427 63.4346 88.5458 63.4264C88.3489 63.4182 87.8867 63.1298 87.9273 62.9382C87.968 62.7466 88.6977 61.2572 88.6977 61.2572C88.6699 61.3046 88.6335 60.9853 89.2755 61.1295C89.5537 61.1913 89.4125 61.6878 89.4125 61.6878Z" fill="#EB996E"/>
<path d="M88.5971 61.1465C88.5971 61.1465 88.5971 61.1753 88.5971 61.2145C88.505 61.5399 87.9272 62.8913 87.7304 62.8851C87.5335 62.8789 87.0712 62.5885 87.1119 62.3969C87.1526 62.2053 87.8909 60.7159 87.8909 60.7159C87.8909 60.7159 88.0235 60.4873 88.4687 60.5882C88.7319 60.65 88.5971 61.1465 88.5971 61.1465Z" fill="#EB996E"/>
<path d="M89.4521 63.9035C89.5906 63.7053 89.7035 63.4915 89.7881 63.2669C89.8998 63.0564 89.9825 62.8327 90.0342 62.6016C89.8951 62.8002 89.7823 63.0147 89.6983 63.2402C89.5853 63.4495 89.5025 63.6726 89.4521 63.9035Z" fill="#D1734A"/>
<path d="M88.6143 63.5946C88.7987 63.3052 88.9542 62.9996 89.0786 62.682C89.2328 62.3773 89.3588 62.0602 89.4553 61.7344C89.2718 62.0242 89.1163 62.3297 88.9909 62.647C88.8368 62.9516 88.7108 63.2687 88.6143 63.5946Z" fill="#D1734A"/>
<g opacity="0.78">
<path d="M87.7949 63.2063C87.983 62.9145 88.1421 62.6061 88.27 62.2855C88.4249 61.9812 88.5509 61.664 88.6466 61.3379C88.4644 61.6277 88.309 61.9324 88.1823 62.2484C88.0242 62.5561 87.8946 62.8767 87.7949 63.2063Z" fill="#D1734A"/>
</g>
<path d="M89.7428 65.7874C89.777 65.7071 90.3377 64.1044 90.3377 64.1044L87.1277 62.582C86.965 62.788 86.4707 65.0355 86.4707 65.0355L86.5841 65.8018C86.5841 65.8018 89.0194 67.1491 89.0858 67.1614C89.1521 67.1738 89.7428 65.7874 89.7428 65.7874Z" fill="#EB996E"/>
<path d="M87.2338 65.0969L86.9064 63.935C86.7639 63.4247 86.8305 62.8812 87.0926 62.4168L87.2937 62.0625L90.0201 63.2573C90.0201 63.2573 89.3888 64.1184 88.6954 63.6528L89.2283 64.6499L87.2338 65.0969Z" fill="#EB996E"/>
<path d="M88.9942 64.7442C88.9792 64.7442 88.9942 64.6083 88.9557 64.3796C88.8897 64.0648 88.7062 63.7841 88.4399 63.5906L88.1874 63.4114L88.4913 63.4917L89.1932 63.6813H89.1782C89.331 63.7006 89.4863 63.6777 89.6261 63.6154C89.7659 63.553 89.8845 63.4537 89.9679 63.329C89.9805 63.3097 89.9906 63.2889 89.9978 63.2672L90.0385 63.3496C89.2531 63.0427 88.5405 62.7563 88.0526 62.5256C87.8043 62.4082 87.6053 62.3072 87.4726 62.2351C87.3991 62.2029 87.3312 62.1598 87.2715 62.1074C87.5514 62.2037 87.8257 62.3144 88.0933 62.4391C88.5962 62.6451 89.3045 62.9232 90.092 63.2301L90.1519 63.2528L90.1305 63.3125C90.1207 63.3419 90.1078 63.3702 90.092 63.397C89.9985 63.5557 89.8512 63.6786 89.6747 63.7451C89.5144 63.8035 89.3426 63.8267 89.1718 63.8131H89.1568L88.4592 63.6071L88.5105 63.5082C88.7922 63.7218 88.9758 64.0332 89.022 64.3755C89.047 64.4986 89.0374 64.6259 88.9942 64.7442Z" fill="#D1734A"/>
<path d="M89.649 63.5807C89.6768 63.5807 89.6297 63.7249 89.6725 63.9145C89.6812 63.9661 89.7066 64.0137 89.745 64.0507C89.7834 64.0876 89.8329 64.1121 89.8865 64.1205C89.954 64.1161 90.0192 64.0948 90.0755 64.0587C90.1319 64.0225 90.1774 63.9728 90.2075 63.9145C90.3723 63.6364 90.5413 63.383 90.6355 63.1976C90.7297 63.0122 90.7896 62.8886 90.8088 62.8948C90.8281 62.9009 90.8088 63.0328 90.7254 63.2388C90.6067 63.4972 90.4701 63.7477 90.3166 63.9886C90.2746 64.0678 90.2105 64.1343 90.1315 64.1805C90.0526 64.2266 89.9618 64.2508 89.8694 64.2502C89.791 64.2366 89.7196 64.1983 89.6665 64.1412C89.6134 64.0841 89.5816 64.0115 89.5762 63.9351C89.5631 63.8451 89.5719 63.7534 89.6019 63.6673C89.6233 63.6096 89.6404 63.5787 89.649 63.5807Z" fill="#D1734A"/>
<path d="M78.5306 49.8803L77.5911 59.1503C77.5547 59.5052 77.3752 59.8321 77.0911 60.0609C76.807 60.2897 76.441 60.4021 76.0717 60.374L73.8611 60.203C73.4916 60.1745 73.1485 60.0074 72.9059 59.7376C72.6633 59.4678 72.5406 59.1171 72.5642 58.761C72.6349 57.6486 72.7461 56.289 72.7461 56.289C72.7461 56.289 70.6896 55.982 70.6639 54.0024C70.6511 53.0548 70.7902 51.1184 70.9378 49.3488C71.0164 48.4093 71.4597 47.5327 72.1795 46.8936C72.8993 46.2546 73.8427 45.8999 74.8219 45.9004H74.9589C75.4674 45.9291 75.9648 46.0557 76.4216 46.2727C76.8784 46.4897 77.2854 46.7928 77.6184 47.1638C77.9514 47.5349 78.2037 47.9665 78.3604 48.4331C78.5171 48.8997 78.5749 49.3918 78.5306 49.8803Z" fill="#EB996E"/>
<path d="M72.7422 56.2666C73.6941 56.2857 74.6301 56.0303 75.43 55.5332C75.43 55.5332 74.788 56.9587 72.7443 56.7795L72.7422 56.2666Z" fill="#D1734A"/>
<path d="M71.3831 50.8182C71.4194 50.8552 71.642 50.6966 71.9587 50.6987C72.2754 50.7007 72.5066 50.8511 72.5408 50.814C72.575 50.777 72.5194 50.7296 72.4188 50.6595C72.2825 50.5687 72.1203 50.5205 71.9544 50.5215C71.7898 50.5199 71.6291 50.5698 71.4965 50.6637C71.398 50.7358 71.3638 50.8017 71.3831 50.8182Z" fill="#263238"/>
<path d="M74.48 50.8181C74.5164 50.8552 74.7389 50.6966 75.0556 50.6987C75.3724 50.7007 75.6013 50.8511 75.6377 50.814C75.6741 50.7769 75.6163 50.7296 75.5157 50.6595C75.3783 50.5691 75.2157 50.521 75.0492 50.5215C74.8847 50.5203 74.7241 50.5702 74.5913 50.6636C74.495 50.7357 74.4629 50.8017 74.48 50.8181Z" fill="#263238"/>
<path d="M73.3436 52.5809C73.177 52.53 73.0045 52.4996 72.83 52.4903C72.7487 52.4903 72.6738 52.4676 72.6588 52.4141C72.6517 52.3341 72.6712 52.2541 72.7144 52.1854C72.7893 51.9959 72.8685 51.8002 72.952 51.5921C73.2837 50.7517 73.5233 50.0574 73.4891 50.0451C73.4549 50.0327 73.1553 50.7063 72.8236 51.5489L72.5946 52.1422C72.5449 52.2362 72.5305 52.344 72.5539 52.4471C72.5661 52.4744 72.5842 52.4988 72.6071 52.5187C72.63 52.5386 72.6571 52.5535 72.6866 52.5624C72.7314 52.5734 72.7774 52.5789 72.8236 52.5789C72.9962 52.5997 73.1708 52.6004 73.3436 52.5809Z" fill="#263238"/>
<path d="M74.2746 52.7911C74.2232 52.7911 74.2211 53.1186 73.9279 53.3534C73.6347 53.5883 73.2688 53.5594 73.2666 53.5965C73.2645 53.6336 73.348 53.6604 73.502 53.6645C73.7032 53.6681 73.899 53.6023 74.0542 53.4791C74.2039 53.3624 74.3 53.1937 74.3217 53.0094C74.3345 52.8714 74.2981 52.789 74.2746 52.7911Z" fill="#263238"/>
<path d="M74.4088 49.132C74.4387 49.2144 74.7554 49.1752 75.1257 49.2185C75.4959 49.2618 75.7955 49.3586 75.8447 49.2844C75.8682 49.2494 75.8147 49.1711 75.6949 49.0908C75.5333 48.9928 75.3507 48.9315 75.1609 48.9115C74.971 48.8915 74.779 48.9134 74.5992 48.9754C74.4644 49.0269 74.3959 49.1011 74.4088 49.132Z" fill="#263238"/>
<path d="M71.4999 49.3899C71.5556 49.4579 71.7717 49.3899 72.0349 49.3899C72.2982 49.3899 72.5186 49.4352 72.5678 49.3631C72.5913 49.3281 72.5678 49.2601 72.4587 49.1942C72.3293 49.1169 72.179 49.078 72.0268 49.0824C71.8745 49.0868 71.727 49.1343 71.6027 49.2189C71.5042 49.2849 71.4743 49.3549 71.4999 49.3899Z" fill="#263238"/>
<path d="M76.2969 47.7095H76.3097C76.6373 47.9583 76.8527 48.3191 76.9111 48.7168C76.9099 48.7298 76.9099 48.7429 76.9111 48.756C76.9924 49.3204 76.9774 49.8951 77.063 50.4596C77.1183 51.032 77.3723 51.5697 77.7842 51.986C77.9618 52.1447 78.2764 52.2559 78.4262 52.0684C78.4741 51.9897 78.4992 51.9001 78.4989 51.8089C78.6081 50.4452 78.9954 49.2359 78.9933 47.8104C78.9933 47.6195 78.9464 47.4314 78.8564 47.2613C78.7664 47.0912 78.6358 46.9441 78.4754 46.8319C78.1651 46.6259 77.7863 46.3972 77.4418 46.5538C77.0972 46.7104 76.65 47.3325 76.3825 47.5838" fill="#263238"/>
<path d="M77.8372 50.7757C77.8715 50.7613 79.2496 50.3637 79.2047 51.7274C79.1597 53.0912 77.758 52.7574 77.7559 52.7204C77.7538 52.6833 77.8372 50.7757 77.8372 50.7757Z" fill="#EB996E"/>
<path d="M78.2116 52.2193C78.2116 52.2193 78.2351 52.2358 78.2758 52.2564C78.3349 52.2791 78.4007 52.2791 78.4598 52.2564C78.5523 52.204 78.6286 52.1289 78.6809 52.0388C78.7331 51.9486 78.7595 51.8467 78.7573 51.7434C78.7645 51.6274 78.7447 51.5113 78.6995 51.4035C78.6876 51.3609 78.6653 51.3216 78.6344 51.289C78.6035 51.2564 78.5649 51.2314 78.5219 51.2161C78.4939 51.2081 78.4639 51.2096 78.4369 51.2205C78.41 51.2314 78.3879 51.251 78.3742 51.2758C78.355 51.3129 78.3614 51.3417 78.355 51.3438C78.3485 51.3459 78.325 51.3191 78.3378 51.2635C78.3471 51.2306 78.3674 51.2017 78.3956 51.1811C78.4358 51.1549 78.4845 51.1439 78.5326 51.1502C78.5903 51.1628 78.6436 51.1895 78.6875 51.2278C78.7313 51.266 78.7642 51.3145 78.783 51.3685C78.8378 51.4876 78.862 51.6176 78.8536 51.7476C78.856 51.8683 78.8216 51.9871 78.7547 52.0892C78.6878 52.1914 78.5912 52.2724 78.4769 52.3223C78.4401 52.3299 78.402 52.3299 78.3652 52.3225C78.3283 52.315 78.2935 52.3002 78.2629 52.279C78.2116 52.2523 78.1966 52.2214 78.2116 52.2193Z" fill="#D1734A"/>
<path d="M77.4933 46.7701C77.84 46.2304 76.8898 45.4517 76.1964 45.2416C75.5031 45.0315 74.5893 45.357 73.8981 45.5774C73.4701 45.7154 73.0292 45.9111 72.5691 45.8926C72.2628 45.8628 71.9627 45.7892 71.6789 45.6742C71.3938 45.5587 71.0872 45.5006 70.7779 45.5032C70.6238 45.5063 70.4735 45.5499 70.3433 45.6295C70.2131 45.709 70.1081 45.8214 70.0396 45.9544C70.0102 46.0217 69.9962 46.0944 69.9985 46.1675C70.0008 46.2405 70.0195 46.3122 70.0532 46.3777C70.0869 46.4432 70.1349 46.5009 70.1938 46.5469C70.2528 46.593 70.3214 46.6262 70.3949 46.6445C70.2969 46.5935 70.1876 46.5661 70.0763 46.5645C69.9649 46.563 69.8548 46.5873 69.7554 46.6355C69.6559 46.6837 69.57 46.7544 69.505 46.8414C69.44 46.9284 69.3978 47.0293 69.382 47.1354C69.3662 47.2415 69.3773 47.3497 69.4143 47.4509C69.4512 47.552 69.5131 47.643 69.5945 47.7161C69.6759 47.7893 69.7744 47.8425 69.8817 47.8711C69.989 47.8997 70.102 47.9029 70.2109 47.8805C70.0097 47.7342 69.7037 47.9752 69.7294 48.2163C69.7561 48.3345 69.8143 48.444 69.8984 48.5339C69.9824 48.6238 70.0894 48.6912 70.2087 48.7292C70.7951 48.9764 71.4799 48.8981 72.0855 48.7004C72.6911 48.5026 73.2561 48.1977 73.8574 47.9876C74.4587 47.7775 75.4667 47.3964 76.0702 47.6024C76.5153 47.7528 76.8256 48.2678 77.076 48.1545C77.1945 48.0938 77.2965 48.0072 77.3738 47.9017C77.4511 47.7961 77.5016 47.6745 77.5211 47.5468C77.5546 47.2895 77.5452 47.0287 77.4933 46.7743" fill="#263238"/>
<path d="M70.2235 46.6086C70.2363 46.6086 70.2962 46.7095 70.4482 46.8661C70.6636 47.0864 70.9317 47.2526 71.2292 47.3502C71.6655 47.503 72.1467 47.4845 72.5689 47.2987C73.0483 47.0927 73.457 46.6807 73.9278 46.2913C74.3652 45.8981 74.917 45.6429 75.5093 45.56C75.754 45.5317 76.0022 45.5574 76.2351 45.6352C76.468 45.713 76.6793 45.8409 76.8532 46.0091C76.9647 46.1269 77.0504 46.2652 77.1052 46.4156C77.16 46.566 77.1827 46.7255 77.172 46.8846C77.1631 46.9691 77.143 47.0522 77.1121 47.1318C77.0864 47.1854 77.0693 47.2121 77.065 47.2101C77.0922 47.1018 77.1101 46.9916 77.1185 46.8805C77.119 46.5793 76.9978 46.2897 76.7804 46.073C76.6139 45.9221 76.4146 45.809 76.1969 45.7416C75.9792 45.6743 75.7487 45.6544 75.5221 45.6836C74.9602 45.771 74.4384 46.0186 74.0241 46.3943C73.5618 46.7734 73.1403 47.1977 72.6288 47.412C72.2517 47.5676 71.8324 47.6019 71.4334 47.5098C71.0344 47.4178 70.6768 47.2043 70.4139 46.9011C70.3586 46.8367 70.3092 46.7677 70.2662 46.6951C70.232 46.6312 70.2192 46.6106 70.2235 46.6086Z" fill="#455A64"/>
<path d="M78.1944 50.7167C78.1944 50.7167 78.1345 50.6796 78.081 50.5705C78.0106 50.4165 77.9861 50.2468 78.0104 50.0802C78.0425 49.6455 78.4384 49.1758 78.494 48.5743C78.529 48.2961 78.4745 48.0143 78.3378 47.7668C78.2178 47.5709 78.0344 47.4182 77.8156 47.3321C77.667 47.2725 77.5047 47.2512 77.3449 47.2703C77.2336 47.2868 77.1715 47.3136 77.1672 47.3033C77.1629 47.293 77.2164 47.2539 77.3341 47.2188C77.5048 47.1779 77.6843 47.1865 77.8499 47.2436C78.0981 47.3256 78.3091 47.4879 78.447 47.7029C78.6058 47.9707 78.6704 48.2807 78.631 48.5867C78.5955 48.8843 78.5042 49.1733 78.3614 49.4395C78.245 49.6451 78.1599 49.8657 78.1088 50.0946C78.0709 50.3055 78.1007 50.5226 78.1944 50.7167Z" fill="#455A64"/>
<path d="M66.0785 41.0177C66.0036 40.958 65.7383 38.7517 65.7383 38.7517L67.6643 37.6641L70.6603 38.3294L70.0589 39.9445L66.9816 41.4977L66.0785 41.0177Z" fill="#EB996E"/>
<path d="M60.1202 42.7626C60.1202 42.7626 64.9609 40.34 68.066 40.0228C71.5135 39.6684 74.9889 41.644 74.9889 41.644L74.302 32.891C74.302 32.891 71.0599 30.5612 66.9361 31.552C63.4393 32.3925 59.9404 34.024 59.9404 34.024L60.1202 42.7626Z" fill="#FAFAFA"/>
<path d="M60.1204 42.7633V42.6129L60.1076 42.1618C60.0969 41.7498 60.0819 41.173 60.0605 40.4211C60.0241 38.8988 59.9706 36.7131 59.9043 34.0351V34.0083L59.93 33.996C60.8566 33.584 61.8667 33.1555 62.9538 32.76C64.0954 32.325 65.2597 31.9475 66.442 31.629L66.9085 31.5095L67.39 31.4148C67.7151 31.3512 68.0438 31.3064 68.3744 31.2809C69.0538 31.2359 69.7363 31.2628 70.4096 31.3612C71.1017 31.4681 71.7803 31.6449 72.434 31.8886C73.1079 32.1354 73.7493 32.4576 74.345 32.8485L74.3643 32.8609V32.8877C74.3643 32.9721 74.3793 33.0648 74.3857 33.1555C74.6189 36.1569 74.8436 39.0265 75.0469 41.6406V41.7333L74.9613 41.688C73.9956 41.1761 72.9744 40.7679 71.9161 40.4705C70.9547 40.1971 69.9589 40.0516 68.9565 40.0379C68.0672 40.0433 67.1829 40.1667 66.3286 40.4046C65.5282 40.6106 64.8049 40.8537 64.1543 41.0865C62.8575 41.5582 61.8538 41.9929 61.169 42.2978L60.3901 42.6521L60.1911 42.7448L60.1204 42.7736L60.1868 42.7365L60.3815 42.6377C60.557 42.5511 60.8095 42.4317 61.1562 42.2669C61.8346 41.9537 62.8361 41.5088 64.1329 41.0309C64.7749 40.794 65.5068 40.5488 66.3093 40.3366C67.1696 40.0912 68.0614 39.9629 68.9586 39.9555C69.9736 39.9678 70.9818 40.1154 71.9546 40.3943C73.0225 40.6889 74.0525 41.098 75.0255 41.6138L74.9485 41.6612C74.7345 39.0471 74.5205 36.1775 74.2787 33.1761L74.2573 32.9062L74.2808 32.9454C73.6927 32.5613 73.0599 32.2447 72.3955 32.0019C71.7487 31.7604 71.0773 31.585 70.3924 31.4786C69.7232 31.3763 69.0443 31.3452 68.368 31.3859C68.0418 31.4113 67.7174 31.4546 67.3964 31.5157L66.9214 31.6105L66.457 31.7279C65.2792 32.0377 64.1185 32.4048 62.9795 32.8279C61.8945 33.2276 60.8823 33.6519 59.9599 34.0639L59.9835 34.0269C60.0284 36.7049 60.0648 38.8761 60.0905 40.3923C60.1012 41.1483 60.1097 41.7395 60.1162 42.1453V42.6068C60.1226 42.7159 60.1204 42.7633 60.1204 42.7633Z" fill="#263238"/>
<path d="M72.4471 39.2336C72.415 39.2336 72.2866 37.7566 72.1603 35.9376C72.0341 34.1186 71.9549 32.623 71.9849 32.623C72.0148 32.623 72.1432 34.098 72.2716 35.919C72.4 37.7401 72.4771 39.2315 72.4471 39.2336Z" fill="#E0E0E0"/>
<path d="M71.232 38.7724C71.202 38.7724 71.0736 37.2954 70.9473 35.4764C70.8211 33.6574 70.7333 32.1804 70.7718 32.168C70.8104 32.1557 70.9302 33.643 71.0565 35.464C71.1827 37.2851 71.2641 38.7703 71.232 38.7724Z" fill="#E0E0E0"/>
<path d="M70.0611 38.6141C70.0312 38.6141 69.9028 37.1371 69.7744 35.3181C69.646 33.4991 69.5604 32.0098 69.601 32.0098C69.6417 32.0098 69.7594 33.4847 69.8856 35.3058C70.0119 37.1268 70.0911 38.6121 70.0611 38.6141Z" fill="#E0E0E0"/>
<path d="M67.6578 38.9345C67.6278 38.9345 67.4994 37.4575 67.371 35.6385C67.2426 33.8195 67.157 32.3425 67.1977 32.3302C67.2384 32.3178 67.3561 33.8051 67.4823 35.6262C67.6086 37.4472 67.6878 38.9325 67.6578 38.9345Z" fill="#E0E0E0"/>
<path d="M66.5387 39.2336C66.5087 39.2336 66.3803 37.7586 66.2541 35.9376C66.1278 34.1165 66.0486 32.623 66.0786 32.623C66.1086 32.623 66.237 34.1001 66.3654 35.919C66.4938 37.738 66.5708 39.2315 66.5387 39.2336Z" fill="#E0E0E0"/>
<path d="M65.3485 39.5243C65.3164 39.5243 65.1901 38.0473 65.0617 36.2283C64.9333 34.4093 64.8477 32.9199 64.8862 32.9199C64.9248 32.9199 65.0468 34.3949 65.173 36.2159C65.2993 38.037 65.372 39.5222 65.3485 39.5243Z" fill="#E0E0E0"/>
<path d="M63.0827 40.4247C63.0506 40.4247 62.9222 38.9497 62.796 37.1287C62.6697 35.3076 62.582 33.8224 62.6205 33.8203C62.659 33.8183 62.7788 35.2973 62.9072 37.1163C63.0356 38.9353 63.1127 40.4226 63.0827 40.4247Z" fill="#E0E0E0"/>
<path d="M64.1649 39.9385C64.1328 39.9385 64.0065 38.4635 63.8781 36.6425C63.7497 34.8214 63.6641 33.3341 63.7027 33.332C63.7412 33.33 63.8632 34.8091 63.9894 36.628C64.1157 38.447 64.1949 39.9385 64.1649 39.9385Z" fill="#E0E0E0"/>
<path d="M61.8179 40.8173C61.7879 40.8173 61.6595 39.3403 61.5333 37.5213C61.407 35.7023 61.3193 34.2253 61.3578 34.213C61.3963 34.2006 61.5161 35.6879 61.6445 37.509C61.7729 39.33 61.85 40.8153 61.8179 40.8173Z" fill="#E0E0E0"/>
<path d="M68.8258 38.6454C68.7958 38.6454 68.6674 37.1684 68.539 35.3494C68.4106 33.5304 68.325 32.0431 68.3657 32.041C68.4063 32.039 68.524 33.516 68.6503 35.337C68.7765 37.1581 68.8557 38.6433 68.8258 38.6454Z" fill="#E0E0E0"/>
<path d="M70.4381 38.7154C70.6894 38.5917 70.9552 38.4977 71.2299 38.4353C71.7306 38.2849 72.4304 38.0871 73.2222 37.877L73.1901 38.0686L72.8777 37.8791C71.3412 36.9624 69.9095 36.5874 69.9309 36.5236C69.9309 36.4968 70.3033 36.5586 70.8746 36.7296C71.6162 36.9707 72.327 37.2921 72.9932 37.6875C73.1045 37.7513 73.2072 37.8193 73.3121 37.8832C73.3296 37.8946 73.3433 37.9107 73.3517 37.9294C73.3601 37.9481 73.3627 37.9687 73.3594 37.9888C73.356 38.0089 73.3467 38.0277 73.3327 38.0429C73.3186 38.0581 73.3003 38.0692 73.28 38.0748C72.4861 38.2808 71.782 38.4497 71.2684 38.565C70.9992 38.6483 70.7203 38.6988 70.4381 38.7154Z" fill="#FAA11F"/>
<path d="M71.6186 38.4793C71.5587 38.4793 71.4581 37.9973 71.4046 37.3916C71.3511 36.786 71.3404 36.2875 71.4046 36.2813C71.4688 36.2751 71.5651 36.7613 71.6186 37.369C71.6721 37.9767 71.6806 38.4731 71.6186 38.4793Z" fill="#FAA11F"/>
<path d="M73.3118 38.0916C73.3118 38.0916 73.3375 38.1287 73.361 38.2111C73.3903 38.3343 73.3821 38.463 73.3375 38.5819C73.263 38.7698 73.1319 38.9319 72.9609 39.0475C72.8594 39.1221 72.7495 39.1857 72.6334 39.237C72.502 39.2931 72.3641 39.3339 72.2226 39.3585C71.8985 39.4178 71.565 39.4094 71.2446 39.3338C71.0664 39.2937 70.8918 39.24 70.7224 39.1731C70.433 39.0717 70.1672 38.9164 69.9403 38.716C69.7133 38.5155 69.5297 38.274 69.3999 38.0051C69.1741 37.6178 69.0982 37.166 69.1859 36.73C69.2415 36.4986 69.3811 36.294 69.5797 36.1532C69.7709 36.0271 69.9913 35.9479 70.2217 35.9224C70.7774 35.8527 71.3424 35.9241 71.8605 36.1298C72.3786 36.3354 72.8317 36.6681 73.1749 37.0946C73.46 37.458 73.6301 37.8929 73.6649 38.3471C73.6898 38.51 73.6854 38.6758 73.6521 38.8373C73.6189 38.6787 73.5947 38.5185 73.5793 38.3574C73.5146 37.9296 73.3321 37.5263 73.0507 37.1893C72.6297 36.6938 72.053 36.3432 71.4072 36.1902C71.0312 36.0981 70.6402 36.0771 70.2559 36.1284C70.0605 36.1552 69.8743 36.2258 69.7123 36.3344C69.5559 36.4454 69.4464 36.6071 69.4042 36.7897C69.3302 37.1766 69.3999 37.5762 69.6011 37.9186C69.7672 38.2538 70.0163 38.5445 70.3265 38.7652C70.8727 39.1252 71.5344 39.2859 72.1926 39.2184C72.4416 39.1852 72.6791 39.0963 72.886 38.9589C73.0449 38.8615 73.173 38.724 73.2562 38.5613C73.3027 38.4553 73.3232 38.3404 73.3161 38.2255C73.3052 38.1816 73.3038 38.1361 73.3118 38.0916Z" fill="#FAA11F"/>
<path d="M68.4523 41.8525L69.4174 41.1006C69.8395 40.7727 70.1133 40.3002 70.1814 39.7822L70.2349 39.3867L67.3352 38.8223C67.3352 38.8223 67.0634 39.6669 68.1548 39.877C67.1876 40.289 66.8259 41.113 66.5605 42.0379L68.4523 41.8525Z" fill="#EB996E"/>
<path d="M67.2555 40.5903C67.2705 40.5903 67.3325 40.475 67.508 40.3205C67.7489 40.1042 68.0646 39.9816 68.394 39.9764H68.7043L68.4132 39.8714L67.737 39.6262H67.7498C67.6144 39.5574 67.5022 39.4528 67.4264 39.3247C67.3506 39.1967 67.3143 39.0504 67.3218 38.9032C67.3241 38.8809 67.3284 38.8588 67.3347 38.8373L67.2533 38.8805C68.0665 39.0742 68.8027 39.2369 69.342 39.3255C69.6116 39.3708 69.8299 39.4017 69.984 39.4161C70.0622 39.4311 70.1421 39.4353 70.2215 39.4285C69.9401 39.3487 69.6544 39.2841 69.3655 39.2348C68.8348 39.1236 68.1029 38.9464 67.2897 38.7507L67.2277 38.7363L67.2084 38.794C67.1989 38.8242 67.1925 38.8553 67.1891 38.8867C67.1671 39.0651 67.2111 39.2452 67.3133 39.3955C67.4058 39.5324 67.5295 39.6472 67.6749 39.7313L68.3554 39.9579L68.3747 39.8508C68.0202 39.8651 67.6858 40.0131 67.4438 40.2628C67.3518 40.3539 67.2868 40.4669 67.2555 40.5903Z" fill="#D1734A"/>
<path d="M74.0999 116.425L78.2622 84.7006L77.4639 79.8926H69.103L68.1057 115.846C68.1016 115.983 68.1483 116.118 68.2377 116.226C68.3271 116.333 68.4532 116.407 68.5936 116.433L73.1647 117.111C73.2731 117.127 73.3838 117.121 73.4901 117.095C73.5964 117.069 73.6962 117.023 73.7835 116.959C73.8707 116.895 73.9437 116.814 73.9981 116.723C74.0524 116.631 74.087 116.53 74.0999 116.425Z" fill="#263238"/>
<path d="M78.1416 85.7717L85.7129 92.9817L74.8203 95.5299L75.595 100.81L90.3375 98.8794C90.9612 98.7976 91.5611 98.5945 92.1008 98.2825C92.6405 97.9705 93.1087 97.5561 93.4768 97.0646C94.0335 96.3205 94.3389 95.4295 94.3515 94.5127C94.3642 93.5958 94.0834 92.6973 93.5475 91.9393L82.0642 75.7168L76.9282 77.3257L78.1416 85.7717Z" fill="#263238"/>
<path d="M77.7246 83.9297C77.8474 84.2214 77.9357 84.5254 77.9878 84.8361C78.0757 85.1391 78.1274 85.4508 78.1419 85.7651C78.0191 85.4735 77.9308 85.1694 77.8787 84.8587C77.7908 84.5557 77.7391 84.244 77.7246 83.9297Z" fill="#455A64"/>
<path d="M76.6215 96.1917C76.6215 96.1917 76.6815 96.1691 76.8013 96.134L77.3299 95.9754L79.3629 95.3801L86.7544 93.2397L86.7352 93.3077L77.6466 83.9945L77.7429 83.9636C77.561 85.4282 77.3748 86.9547 77.1822 88.5141C76.2449 96.0702 75.3654 102.907 74.6827 107.851C74.3446 110.323 74.0407 112.319 73.8267 113.698C73.7047 114.386 73.6255 114.921 73.5421 115.28L73.4522 115.692C73.4308 115.782 73.418 115.83 73.418 115.83C73.4233 115.782 73.4312 115.735 73.4415 115.688C73.4586 115.593 73.4864 115.457 73.5207 115.276C73.5956 114.917 73.6683 114.379 73.7839 113.691C73.9979 112.311 74.274 110.313 74.6035 107.841C75.2648 102.897 76.1315 96.0578 77.0688 88.5017C77.2614 86.9423 77.4497 85.4117 77.6316 83.9512L77.6445 83.8379L77.7258 83.9203L86.7951 93.2521L86.8422 93.3015L86.7758 93.3201L79.3736 95.4254L77.3363 95.9981L76.8013 96.1464L76.6215 96.1917Z" fill="#455A64"/>
<path d="M74.1718 115.829C74.1397 115.829 75.0042 109.091 76.0978 100.791C77.1913 92.4915 78.1072 85.7533 78.1372 85.7656C78.1671 85.778 77.3047 92.4998 76.2112 100.804C75.1176 109.108 74.2017 115.831 74.1718 115.829Z" fill="#455A64"/>
<path d="M76.9131 80.5703C76.991 80.7274 77.0499 80.8926 77.0886 81.0626C77.1806 81.3696 77.3026 81.8001 77.4053 82.278C77.508 82.756 77.5936 83.1927 77.6428 83.514C77.6805 83.684 77.6984 83.8574 77.6963 84.0311C77.6347 83.8684 77.591 83.6999 77.5658 83.5285C77.4887 83.1762 77.3967 82.7621 77.2961 82.3048L77.0115 81.0853C76.9612 80.9172 76.9282 80.7447 76.9131 80.5703Z" fill="#455A64"/>
<path d="M77.3993 79.9473C77.3993 79.9473 77.5063 79.8485 77.7074 79.9164C77.7662 79.9367 77.8184 79.9715 77.8586 80.0175C77.8988 80.0635 77.9257 80.1189 77.9364 80.1781C77.951 80.2514 77.9424 80.3272 77.9119 80.3958C77.8814 80.4645 77.8303 80.5228 77.7652 80.5633C77.6979 80.5987 77.621 80.6137 77.5446 80.6064C77.4682 80.599 77.3959 80.5697 77.3372 80.5221C77.2888 80.4826 77.2536 80.4303 77.2361 80.3716C77.2186 80.313 77.2195 80.2506 77.2388 80.1925C77.2593 80.1165 77.31 80.0514 77.38 80.0112C77.4292 79.9844 77.4613 79.9844 77.4635 79.9906C77.4656 79.9968 77.3479 80.0483 77.3137 80.211C77.3041 80.2541 77.3073 80.299 77.3228 80.3405C77.3383 80.382 77.3655 80.4185 77.4014 80.4459C77.445 80.4793 77.4979 80.4997 77.5535 80.5044C77.609 80.5092 77.6648 80.4981 77.7139 80.4726C77.7602 80.4421 77.7968 80.3997 77.8195 80.3502C77.8422 80.3007 77.8501 80.2461 77.8422 80.1925C77.8353 80.148 77.8169 80.106 77.7889 80.07C77.7609 80.0341 77.7241 80.0054 77.6818 79.9865C77.5921 79.9523 77.4953 79.9389 77.3993 79.9473Z" fill="#455A64"/>
<path d="M87.9404 94.2146C87.919 94.2393 87.491 93.8624 86.8704 93.5225C86.2498 93.1826 85.7083 93.0075 85.7169 92.9766C86.5718 93.1543 87.3467 93.5868 87.9318 94.2126L87.9404 94.2146Z" fill="#455A64"/>
<path d="M68.9822 79.7966L68.246 67.1874C68.246 67.1874 67.1482 62.6451 66.2002 60.8199L71.2057 57.2891L72.5025 57.8885L75.0705 60.136L77.6685 58.6754C77.6685 58.6754 80.78 59.9362 81.5996 60.41C82.4193 60.8838 82.5819 62.1445 82.5819 62.1445C82.5819 62.1445 79.8834 66.7218 79.7999 68.5181C79.7164 70.3144 82.4984 74.9041 82.4984 74.9041C82.4984 74.9041 84.02 75.3388 84.1056 76.5171C84.1805 77.5368 83.6883 77.9014 83.6883 77.9014C83.6883 77.9014 83.4743 76.7931 81.9271 77.2669C80.3798 77.7407 77.142 80.4991 74.8201 80.5774C72.4982 80.6556 68.9822 79.7966 68.9822 79.7966Z" fill="#FAA11F"/>
<path d="M82.445 61.6074L84.418 69.3942L86.6608 64.2442L89.8408 66.0982C89.8408 66.0982 86.8448 76.3591 83.8745 75.3497C83.8745 75.3497 82.0255 74.4495 81.7987 73.8109C81.5718 73.1723 78.1436 68.5187 78.1436 68.5187L82.445 61.6074Z" fill="#FAA11F"/>
<path d="M82.4912 74.9036C82.4912 74.9036 82.4633 74.8747 82.4227 74.817L82.2429 74.5637C82.1659 74.4524 82.0696 74.3165 81.9733 74.1517C81.877 73.9869 81.7593 73.8035 81.6459 73.5872C81.5324 73.3709 81.404 73.1423 81.2906 72.8827C81.1772 72.6231 81.0552 72.345 80.9397 72.0484C80.7016 71.3995 80.5177 70.7334 80.3897 70.0564C80.2717 69.3754 80.208 68.6867 80.1992 67.9964C80.1992 67.6791 80.1992 67.3784 80.2228 67.0962C80.2463 66.8139 80.2677 66.5544 80.2912 66.3154C80.349 65.8396 80.4111 65.4564 80.471 65.1948C80.4967 65.0753 80.5181 64.9744 80.5373 64.894C80.5418 64.8584 80.5519 64.8237 80.5673 64.791C80.5721 64.8266 80.5721 64.8626 80.5673 64.8981C80.5545 64.9805 80.5395 65.0815 80.5224 65.203C80.4774 65.4667 80.4261 65.8499 80.379 66.3237C80.3597 66.5606 80.3298 66.8201 80.3255 67.1003C80.3212 67.3804 80.3084 67.6791 80.3105 67.9943C80.3257 68.6772 80.3922 69.358 80.5095 70.0317C80.635 70.7033 80.8146 71.3645 81.0467 72.0093C81.1579 72.3038 81.2607 72.5861 81.3848 72.8333C81.5089 73.0805 81.6159 73.3235 81.7229 73.5398C81.8299 73.7561 81.9369 73.9395 82.0353 74.1063C82.1338 74.2732 82.2172 74.4133 82.2879 74.5286L82.4484 74.7944C82.4669 74.8291 82.4812 74.8657 82.4912 74.9036Z" fill="#263238"/>
<path d="M65.342 40.3906C65.342 40.3906 60.3344 48.4905 59.992 49.6853C59.6325 50.9213 66.5853 61.5077 66.5853 61.5077C66.5853 61.5077 66.7202 61.8476 66.7223 61.8455L71.6914 58.0242L65.8342 50.0458L68.9821 42.0778L65.342 40.3906Z" fill="#FAA11F"/>
<path d="M66.0374 50.368C66.0202 50.3804 65.9154 50.2362 65.695 50.0549C65.4065 49.8206 65.0662 49.653 64.7001 49.5648C64.334 49.4766 63.9518 49.4702 63.5828 49.5461C63.3003 49.6058 63.1355 49.6862 63.127 49.6676C63.2525 49.57 63.3985 49.4997 63.555 49.4616C63.7241 49.4144 63.8989 49.3881 64.075 49.3834C64.2911 49.3789 64.507 49.4018 64.717 49.4513C64.9258 49.5041 65.1271 49.5816 65.3162 49.6821C65.4711 49.7667 65.6148 49.869 65.7442 49.9869C65.8697 50.0918 65.9698 50.2219 66.0374 50.368Z" fill="#263238"/>
<path d="M68.3118 62.1628C68.2904 62.1628 68.3011 61.8806 68.2219 61.4377C68.1734 61.1775 68.1018 60.9218 68.0079 60.6734C67.7848 60.0619 67.4337 59.501 66.9764 59.0254C66.7899 58.8333 66.5874 58.6562 66.3708 58.496C65.9963 58.2241 65.7288 58.1005 65.7438 58.084C65.8105 58.1011 65.8745 58.1267 65.9342 58.1602C66.0078 58.1923 66.0793 58.2288 66.1482 58.2694C66.241 58.3205 66.331 58.3762 66.4179 58.4362C66.6488 58.5905 66.8638 58.7657 67.0599 58.9595C67.2947 59.1993 67.5033 59.4616 67.6826 59.7423C67.8573 60.0251 68.0007 60.3248 68.1106 60.6363C68.1988 60.891 68.2619 61.1531 68.2989 61.4191C68.3136 61.5209 68.3228 61.6234 68.3267 61.7261C68.3331 61.8035 68.3331 61.8814 68.3267 61.9588C68.3332 62.0272 68.3281 62.096 68.3118 62.1628Z" fill="#263238"/>
<path d="M81.9098 75.1387C81.9098 75.1511 81.7536 75.1387 81.4818 75.1552C81.0937 75.1925 80.7139 75.2877 80.3562 75.4374C79.827 75.6631 79.3289 75.9509 78.8732 76.2944C78.351 76.6734 77.8032 77.1348 77.1804 77.551C76.597 77.962 75.9284 78.2473 75.2202 78.3873C74.6409 78.4858 74.0489 78.492 73.4675 78.4059C73.0771 78.3509 72.6925 78.2627 72.3183 78.1422C72.1857 78.0989 72.0851 78.0618 72.0166 78.0351C71.9815 78.0233 71.9478 78.0081 71.916 77.9897C72.0564 78.0196 72.195 78.0568 72.3312 78.101C72.7062 78.2057 73.0889 78.2828 73.4761 78.3317C74.0455 78.4044 74.6234 78.3897 75.1881 78.2884C75.8837 78.149 76.5404 77.8681 77.1141 77.4644C77.7347 77.0524 78.2782 76.5931 78.809 76.2161C79.2738 75.8713 79.783 75.586 80.3241 75.3674C80.6908 75.2204 81.0809 75.1348 81.4775 75.114C81.5844 75.1078 81.6916 75.1078 81.7985 75.114C81.8365 75.1179 81.8739 75.1262 81.9098 75.1387Z" fill="#263238"/>
<path d="M84.2173 72.9667C84.1505 72.8006 84.1066 72.6267 84.0868 72.4496C84.0181 72.0245 83.9958 71.5937 84.0204 71.1642C84.046 70.7345 84.1177 70.3086 84.2344 69.8932C84.2735 69.7189 84.3368 69.5505 84.4228 69.3926C84.3969 69.5677 84.3597 69.7411 84.3115 69.9117C84.2204 70.3264 84.1625 70.7472 84.1381 71.1704C84.1148 71.5936 84.1262 72.0179 84.1724 72.4393C84.2 72.6139 84.215 72.7901 84.2173 72.9667Z" fill="#263238"/>
<g opacity="0.3">
<path d="M72.1262 77.9413C72.1433 77.4263 72.781 77.1317 73.316 77.1626C73.851 77.1935 74.3582 77.4263 74.8932 77.4448C75.8006 77.4778 76.6052 76.9051 77.2985 76.3489C77.9919 75.7927 78.7623 75.1932 79.6697 75.1582C79.7831 75.1582 79.9265 75.1767 79.9586 75.2839C79.9907 75.391 79.9029 75.4713 79.8259 75.5372C78.7088 76.4972 77.566 77.4757 76.1879 78.0381C74.8097 78.6005 73.1298 78.689 71.8779 77.9001" fill="black"/>
</g>
<g opacity="0.3">
<path d="M80.4672 65.4472C80.3163 67.9685 81.1679 70.4506 82.849 72.3894C83.1293 72.7087 83.4396 73.0239 83.5766 73.4194C83.7136 73.815 83.6215 74.3258 83.2406 74.5277C83.0746 74.6004 82.89 74.6243 82.71 74.5965C82.5299 74.5686 82.3624 74.4902 82.2284 74.3712C81.9637 74.1297 81.7577 73.835 81.6249 73.508C80.3623 70.9083 79.7374 67.9069 80.5549 65.1465" fill="black"/>
</g>
<path d="M55.7859 107.074C55.9999 106.382 56.4386 105.714 57.1256 105.426C57.8125 105.137 58.6664 105.298 59.3983 105.553C60.1301 105.809 60.847 106.153 61.6239 106.198C62.4007 106.244 63.2759 105.889 63.5092 105.168C63.7232 104.495 63.3059 103.78 62.7795 103.292C62.2231 102.776 61.5408 102.403 60.7955 102.208C60.0502 102.013 59.2658 102.001 58.5147 102.175C57.7636 102.348 57.07 102.701 56.4977 103.2C55.9255 103.7 55.493 104.33 55.2402 105.032" fill="#FAA11F"/>
<g opacity="0.5">
<path d="M55.7859 107.074C55.9999 106.382 56.4386 105.714 57.1256 105.426C57.8125 105.137 58.6664 105.298 59.3983 105.553C60.1301 105.809 60.847 106.153 61.6239 106.198C62.4007 106.244 63.2759 105.889 63.5092 105.168C63.7232 104.495 63.3059 103.78 62.7795 103.292C62.2231 102.776 61.5408 102.403 60.7955 102.208C60.0502 102.013 59.2658 102.001 58.5147 102.175C57.7636 102.348 57.07 102.701 56.4977 103.2C55.9255 103.7 55.493 104.33 55.2402 105.032" fill="black"/>
</g>
<path d="M49.6356 110.077C48.495 109.037 48.5527 107.222 49.1198 105.813C49.6869 104.404 50.9303 103.32 52.3149 102.606C53.6673 101.922 55.1629 101.543 56.6895 101.495C58.2161 101.448 59.7341 101.734 61.1295 102.332C60.4462 102.36 59.7805 102.549 59.1906 102.882C58.6008 103.215 58.1048 103.683 57.7462 104.243C57.1234 105.242 56.9843 106.454 56.4622 107.506C55.8809 108.693 54.8497 109.621 53.5802 110.099C52.3107 110.577 50.8993 110.569 49.6356 110.077Z" fill="#FAA11F"/>
<path d="M49.087 103.818C47.8266 102.386 47.6575 100.085 47.8437 98.2148C48.0299 96.3443 48.4857 94.4635 48.1732 92.6095C47.9913 91.5095 47.5484 90.4609 47.3986 89.3568C47.2488 88.2526 47.4606 87.0063 48.3487 86.2936C49.3695 85.4696 50.9766 85.6756 52.0402 86.4378C53.1038 87.2 53.7158 88.4133 54.1652 89.6163C55.1539 92.2614 55.5177 95.1928 54.7045 97.8914C53.8913 100.59 51.9889 103.004 49.1962 103.818" fill="#FAA11F"/>
<path d="M48.4821 115.576C48.4773 115.521 48.4773 115.466 48.4821 115.411C48.4821 115.304 48.4821 115.143 48.4821 114.937C48.4992 114.525 48.5398 113.932 48.6361 113.203C48.7473 112.347 48.9088 111.499 49.1198 110.661C49.382 109.632 49.7873 108.642 50.3246 107.717C50.8639 106.794 51.5257 105.942 52.2934 105.183C52.9185 104.564 53.6108 104.012 54.3585 103.535C54.6731 103.329 54.977 103.167 55.2402 103.018C55.5034 102.87 55.7431 102.771 55.9357 102.682L56.3894 102.499C56.441 102.475 56.4947 102.456 56.5499 102.441C56.501 102.47 56.4502 102.495 56.3979 102.518L55.9528 102.724C55.7645 102.818 55.5248 102.93 55.268 103.074C55.0112 103.218 54.7095 103.389 54.3992 103.601C52.7549 104.679 51.3919 106.108 50.4166 107.777C49.2567 109.73 48.9379 111.784 48.7046 113.221C48.5998 113.949 48.5463 114.54 48.5184 114.95C48.5056 115.156 48.497 115.306 48.4906 115.421C48.4918 115.473 48.4889 115.525 48.4821 115.576Z" fill="#263238"/>
<path d="M37.6044 98.166C35.2696 99.5215 35.2782 100.755 35.6784 101.919C36.0786 103.083 37.4995 103.893 38.6872 103.456C39.357 103.209 39.845 102.649 40.2601 102.084C40.6753 101.52 41.0648 100.916 41.6468 100.51C42.2289 100.104 43.0721 99.95 43.6563 100.352" fill="#FAA11F"/>
<g opacity="0.5">
<path d="M37.6044 98.166C35.2696 99.5215 35.2782 100.755 35.6784 101.919C36.0786 103.083 37.4995 103.893 38.6872 103.456C39.357 103.209 39.845 102.649 40.2601 102.084C40.6753 101.52 41.0648 100.916 41.6468 100.51C42.2289 100.104 43.0721 99.95 43.6563 100.352" fill="black"/>
</g>
<path d="M35.8562 99.651C36.4661 98.8394 37.9748 98.6045 38.925 99.0103C39.8751 99.4162 40.5749 100.217 41.1912 101.015C41.8076 101.812 42.4217 102.663 43.2863 103.221C44.1509 103.779 45.3578 103.981 46.2202 103.427C46.4946 103.23 46.7244 102.981 46.8955 102.695C47.0666 102.41 47.1754 102.094 47.2153 101.767C47.2917 101.111 47.2453 100.447 47.0784 99.8076C46.8644 98.8661 46.537 97.8815 45.7537 97.2841C44.8806 96.6166 43.6694 96.5857 42.5566 96.6207C41.2726 96.6599 39.9886 96.7526 38.7816 97.179C37.5746 97.6054 36.357 98.5262 35.8477 99.651" fill="#FAA11F"/>
<path d="M46.5411 113.787C46.5384 113.77 46.5384 113.754 46.5411 113.737C46.5411 113.698 46.5411 113.651 46.5411 113.593C46.5411 113.457 46.5411 113.27 46.5219 113.035C46.5069 112.542 46.4855 111.844 46.4598 110.985C46.4341 110.126 46.3956 109.088 46.3293 107.947C46.2629 106.805 46.1752 105.547 45.9954 104.239C45.919 103.603 45.7895 102.974 45.6081 102.358C45.2472 101.268 44.6941 100.247 43.9731 99.3378C43.6726 98.9671 43.3427 98.6193 42.9866 98.2975C42.4667 97.8344 41.8782 97.4484 41.2403 97.1521C41.1269 97.1006 41.0263 97.0512 40.9386 97.0161L40.7096 96.9317L40.5705 96.8781L40.5234 96.8555L40.5748 96.8678L40.7182 96.9131L40.9493 96.9894C41.0413 97.0203 41.1419 97.0677 41.2575 97.115C41.9074 97.4016 42.5078 97.7823 43.0379 98.2439C43.4009 98.5657 43.7365 98.915 44.0416 99.2883C44.3878 99.7188 44.695 100.177 44.9597 100.658C45.2545 101.189 45.4981 101.745 45.6873 102.319C45.8715 102.94 46.0025 103.576 46.0789 104.218C46.2608 105.53 46.3464 106.789 46.4063 107.926C46.4662 109.063 46.4962 110.101 46.5154 110.969C46.5347 111.836 46.539 112.536 46.5433 113.029V113.581C46.5433 113.64 46.5433 113.688 46.5433 113.727C46.5453 113.747 46.5446 113.767 46.5411 113.787Z" fill="#263238"/>
<path d="M47.3817 114.793C47.2708 114.478 47.1857 114.155 47.127 113.827C46.9645 112.933 46.9285 112.022 47.02 111.118C47.1631 109.782 47.461 108.466 47.9081 107.194C48.3875 105.752 49.038 104.203 49.5923 102.542C49.8663 101.735 50.09 100.913 50.2621 100.081C50.4162 99.3043 50.5269 98.5203 50.5938 97.7324C50.7003 96.3966 50.7253 95.056 50.6687 93.7174C50.6281 92.5721 50.5639 91.6471 50.5253 91.0085L50.4804 90.2731C50.4804 90.1928 50.4804 90.1289 50.4804 90.0815C50.4776 90.0597 50.4776 90.0375 50.4804 90.0156C50.4823 90.0369 50.4823 90.0582 50.4804 90.0795C50.4804 90.1289 50.4911 90.1907 50.4997 90.2711C50.5154 90.4469 50.5368 90.692 50.5639 91.0065C50.6152 91.6451 50.6901 92.57 50.7393 93.7154C50.8069 95.0569 50.7898 96.4011 50.688 97.7406C50.6235 98.532 50.5142 99.3194 50.3606 100.099C50.1889 100.935 49.9652 101.761 49.6907 102.571C49.1322 104.238 48.4795 105.781 47.998 107.221C47.5478 108.49 47.2435 109.802 47.0906 111.135C46.9944 112.033 47.0189 112.939 47.1634 113.831C47.2212 114.146 47.2747 114.39 47.3196 114.552C47.3389 114.631 47.356 114.692 47.3667 114.738C47.3738 114.756 47.3789 114.774 47.3817 114.793Z" fill="#263238"/>
<path d="M53.1662 115.806H42.2094L41.959 113.777H53.1662V115.806Z" fill="#455A64"/>
<path d="M43.3867 115.578L44.7563 121.67H50.7098L51.9917 115.578H43.3867Z" fill="#455A64"/>
<path d="M53.175 115.806C53.175 115.835 50.7675 115.852 47.795 115.843C44.8225 115.835 42.415 115.806 42.415 115.778C42.415 115.749 44.8247 115.734 47.7971 115.743C50.7696 115.751 53.175 115.78 53.175 115.806Z" fill="#455A64"/>
<path d="M51.2871 118.816C50.989 118.601 50.6649 118.422 50.322 118.282C49.9472 118.141 49.5495 118.064 49.1471 118.056C48.6544 118.057 48.1659 118.144 47.7048 118.311C47.2061 118.474 46.7396 118.663 46.2859 118.766C45.8822 118.851 45.4658 118.863 45.0576 118.801C44.7831 118.764 44.517 118.683 44.2701 118.562C44.2032 118.529 44.1394 118.489 44.0796 118.445C44.0389 118.416 44.0175 118.4 44.0197 118.395C44.0218 118.391 44.1138 118.449 44.2872 118.527C44.5356 118.633 44.7988 118.702 45.0683 118.733C45.4673 118.783 45.8723 118.764 46.2645 118.678C46.7032 118.573 47.1698 118.381 47.6727 118.218C48.1453 118.047 48.6465 117.961 49.1514 117.965C49.5635 117.979 49.9694 118.065 50.3498 118.218C50.6049 118.321 50.8446 118.456 51.0624 118.62C51.1222 118.664 51.1794 118.71 51.2336 118.76C51.27 118.793 51.2893 118.812 51.2871 118.816Z" fill="#263238"/>
<path d="M51.2047 119.22C50.9169 119.013 50.6061 118.836 50.2781 118.695C49.9183 118.553 49.5345 118.477 49.146 118.47C48.6699 118.471 48.1977 118.553 47.7508 118.711C47.2671 118.868 46.8156 119.047 46.3833 119.16C45.9997 119.266 45.6004 119.309 45.202 119.288C44.9328 119.27 44.67 119.2 44.4295 119.082C44.365 119.049 44.3035 119.011 44.2454 118.969C44.2048 118.94 44.1855 118.923 44.1877 118.921C44.1898 118.919 44.2797 118.973 44.4466 119.047C44.688 119.146 44.9463 119.201 45.2084 119.21C45.5965 119.222 45.984 119.172 46.3555 119.063C46.7835 118.95 47.2286 118.767 47.7187 118.61C48.1764 118.449 48.6606 118.368 49.1482 118.371C49.5472 118.383 49.9402 118.468 50.3059 118.623C50.5514 118.726 50.7817 118.861 50.9907 119.022C51.0481 119.065 51.1024 119.111 51.1534 119.16C51.1897 119.199 51.2069 119.218 51.2047 119.22Z" fill="white"/>
<path d="M51.3946 118.413C51.0877 118.189 50.7552 118.001 50.4038 117.85C50.0224 117.692 49.6156 117.598 49.2011 117.572C48.6894 117.559 48.1801 117.645 47.7031 117.823C47.2224 118.004 46.7316 118.159 46.2329 118.287C45.8129 118.355 45.3839 118.355 44.9639 118.287C44.6814 118.243 44.4073 118.159 44.1507 118.038C44.0819 118.004 44.0161 117.964 43.9538 117.92C43.911 117.889 43.8896 117.873 43.8917 117.869C43.8939 117.865 43.988 117.924 44.1678 118.003C44.427 118.105 44.6989 118.174 44.9767 118.209C45.3876 118.265 45.8053 118.258 46.2136 118.186C46.7068 118.054 47.1925 117.898 47.6688 117.718C48.1554 117.536 48.6752 117.452 49.1968 117.469C49.6212 117.499 50.0365 117.603 50.423 117.774C50.6843 117.886 50.9301 118.028 51.1549 118.198C51.2163 118.244 51.2749 118.293 51.3304 118.345C51.3796 118.39 51.3967 118.408 51.3946 118.413Z" fill="white"/>
<path d="M53.2646 115.817C53.2646 115.844 50.7993 115.867 47.7584 115.867C44.7175 115.867 42.2607 115.846 42.2607 115.817C42.2607 115.788 44.726 115.766 47.7648 115.766C50.8036 115.766 53.2646 115.788 53.2646 115.817Z" fill="#263238"/>
<path d="M110.492 66.3565C110.39 66.2376 110.307 66.105 110.245 65.963C110.1 65.6973 109.892 65.3018 109.629 64.7888C109.103 63.7588 108.345 62.2694 107.434 60.4051C105.593 56.6765 103.061 51.473 100.237 45.5937H100.742C100.357 46.4569 99.9457 47.3653 99.5605 48.3006C98.865 49.9486 98.2294 51.5966 97.6687 53.1828C97.3777 53.9779 97.123 54.7669 96.8619 55.5374C96.6008 56.3078 96.3719 57.07 96.1536 57.8034C95.2676 60.778 94.6128 63.4951 94.1356 65.792C93.6583 68.0889 93.3545 69.9615 93.1447 71.2572C93.0399 71.9061 92.9693 72.4108 92.9072 72.7507C92.89 72.927 92.8504 73.1007 92.7895 73.2678C92.7642 73.0921 92.7642 72.914 92.7895 72.7384C92.8152 72.3943 92.8516 71.8835 92.9222 71.2304C93.0656 69.9244 93.3138 68.0374 93.7418 65.722C94.1698 63.4066 94.7883 60.6668 95.6528 57.6695C95.8668 56.9196 96.1065 56.1554 96.3483 55.3746C96.5901 54.5939 96.8555 53.8028 97.1444 53.0036C97.7029 51.3988 98.3385 49.7549 99.0362 48.0884C99.4256 47.149 99.8408 46.2344 100.228 45.3692C100.243 45.3371 100.263 45.3081 100.29 45.2837C100.316 45.2594 100.346 45.2403 100.38 45.2275C100.414 45.2147 100.45 45.2084 100.486 45.209C100.523 45.2097 100.559 45.2172 100.592 45.2312C100.654 45.2563 100.704 45.3035 100.731 45.363C103.543 51.2484 106.013 56.487 107.763 60.2465C108.638 62.1314 109.336 63.6496 109.805 64.7002C110.038 65.2255 110.216 65.6334 110.331 65.9115C110.406 66.0517 110.46 66.2016 110.492 66.3565Z" fill="#31FA1F"/>
<path d="M106.909 57.4802C106.95 57.6244 102.922 58.8027 97.9209 60.1129C92.9197 61.4231 88.8173 62.3789 88.7767 62.2265C88.736 62.074 92.7635 60.9039 97.7754 59.5938C102.787 58.2836 106.868 57.3422 106.909 57.4802Z" fill="#31FA1F"/>
<path d="M104.106 41.0987C104.186 41.0407 104.273 40.9929 104.365 40.9565L104.692 40.8C104.825 40.7423 104.986 40.6867 105.165 40.6187C105.613 40.4601 106.075 40.3422 106.546 40.2664C107.192 40.1728 107.849 40.1659 108.497 40.2458C109.31 40.3562 110.1 40.5928 110.834 40.9462C111.701 41.3761 112.503 41.9188 113.216 42.5592C114.034 43.2925 114.762 44.1144 115.384 45.0085C115.555 45.2487 115.707 45.5007 115.84 45.7625C115.977 46.0241 116.12 46.2878 116.257 46.5577L116.625 47.4023C116.753 47.6865 116.839 47.9873 116.95 48.286C117.372 49.5491 117.635 50.8562 117.734 52.1794C117.834 53.6112 117.781 55.0491 117.575 56.4704C117.353 57.988 117.015 59.4876 116.563 60.9571C116.456 61.3382 116.321 61.7131 116.201 62.0962C116.081 62.4794 115.919 62.8584 115.773 63.2437C115.6 63.6165 115.439 63.9976 115.249 64.3705L114.952 64.9246L114.804 65.2027L114.637 65.4726C113.736 66.9547 112.659 68.3305 111.427 69.572C110.146 70.8644 108.731 72.0262 107.203 73.039C105.632 74.107 103.936 74.9928 102.15 75.6778C100.29 76.3919 98.2994 76.7386 96.2972 76.6975C95.2797 76.6671 94.2743 76.4772 93.3204 76.1351C92.3716 75.7924 91.5052 75.2675 90.7738 74.5922C90.4127 74.2628 90.0839 73.9022 89.7915 73.5148C89.5007 73.134 89.2403 72.7326 89.0126 72.3138C88.564 71.4929 88.2054 70.6292 87.9426 69.7368C86.9811 66.3483 86.7885 62.8003 87.3776 59.3338C87.6444 57.7267 88.0576 56.1454 88.6124 54.6081C88.683 54.4227 88.7515 54.2373 88.8264 54.0519C88.9013 53.8665 88.9634 53.6832 89.0404 53.504C89.1959 53.1455 89.35 52.7892 89.5027 52.4348L90.012 51.4048C90.1746 51.0608 90.3758 50.7395 90.5534 50.4099C91.2625 49.1523 92.0732 47.9504 92.978 46.8152L93.299 46.4032L93.635 46.0118C93.8618 45.7543 94.0758 45.4926 94.3048 45.2475L94.9918 44.5265C95.2058 44.2834 95.4626 44.0712 95.6915 43.8467C96.1495 43.3956 96.646 43.0042 97.1082 42.6107L97.8315 42.0586L98.1868 41.7888L98.5506 41.5416L99.2653 41.0595L99.9822 40.6269L100.331 40.4209L100.686 40.2293L101.38 39.8606C101.84 39.6299 102.296 39.4239 102.73 39.222C103.164 39.0201 103.599 38.8594 104.014 38.7008L105.21 38.2744L106.31 37.9366C107.71 37.539 108.814 37.3021 109.567 37.1641C109.944 37.0981 110.233 37.0487 110.423 37.0199C110.52 36.9958 110.619 36.9854 110.719 36.989C110.628 37.0279 110.532 37.0562 110.434 37.0734C110.244 37.1208 109.959 37.1867 109.578 37.2691C108.835 37.4422 107.742 37.71 106.368 38.1364L105.285 38.4948L104.106 38.9295C103.699 39.0943 103.284 39.2797 102.846 39.4651C102.407 39.6505 101.975 39.8771 101.523 40.116L100.845 40.491L100.496 40.6825L100.153 40.8885L99.4515 41.3232L98.756 41.8155L98.4008 42.0627L98.0541 42.3305L97.3479 42.8806C96.8964 43.2802 96.4127 43.6695 95.9676 44.1166C95.7429 44.339 95.4989 44.5492 95.2828 44.7902C95.0667 45.0312 94.8377 45.264 94.613 45.5071C94.3883 45.7501 94.185 46.0118 93.9603 46.2651L93.6307 46.6545L93.3183 47.0665C92.4345 48.1902 91.6439 49.3791 90.9536 50.622C90.7802 50.9475 90.5855 51.2648 90.4271 51.6026L89.9328 52.6202L89.4855 53.675C89.4063 53.8501 89.3379 54.0313 89.2715 54.2147L89.0725 54.7626C88.539 56.2737 88.143 57.8267 87.8891 59.4038C87.6201 61.0625 87.5269 62.7431 87.6109 64.4199C87.6916 66.1664 87.9787 67.8984 88.4669 69.5823C88.7201 70.4381 89.0643 71.2665 89.4941 72.0543C89.7101 72.45 89.9569 72.8294 90.2324 73.1893C90.5066 73.5514 90.8146 73.8886 91.1526 74.1967C91.8301 74.8199 92.6305 75.3061 93.5066 75.6263C94.4056 75.9456 95.3522 76.123 96.31 76.1516C98.2367 76.1879 100.152 75.8539 101.942 75.169C103.692 74.5018 105.354 73.6389 106.894 72.5981C108.394 71.6089 109.785 70.474 111.044 69.2115C112.249 68.0016 113.304 66.6612 114.188 65.2171L114.35 64.9535L114.496 64.6836L114.787 64.1459C114.973 63.7854 115.129 63.4146 115.3 63.0541C115.439 62.6792 115.591 62.3146 115.718 61.9397C115.844 61.5648 115.974 61.1919 116.081 60.8149C116.535 59.3704 116.878 57.8955 117.107 56.4024C117.319 55.0115 117.381 53.6032 117.293 52.2C117.208 50.9077 116.964 49.6297 116.565 48.3931C116.46 48.1027 116.379 47.806 116.257 47.5279C116.135 47.2498 116.022 46.9717 115.906 46.7039L115.508 45.9211C115.384 45.6681 115.241 45.4244 115.08 45.1919C114.485 44.3116 113.787 43.5001 113 42.7734C112.316 42.1418 111.547 41.6026 110.712 41.1708C110.01 40.8178 109.253 40.5751 108.472 40.4518C107.843 40.3587 107.203 40.349 106.571 40.423C106.108 40.4835 105.651 40.5827 105.206 40.7196C105.026 40.7794 104.866 40.8247 104.729 40.8741L104.393 41.006C104.302 41.0481 104.205 41.0792 104.106 41.0987Z" fill="#31FA1F"/>
<path d="M108.906 54.6856C108.752 54.6856 108.493 52.2136 108.331 49.1236C108.168 46.0336 108.157 43.541 108.312 43.541C108.466 43.541 108.722 46.013 108.887 49.103C109.052 52.193 109.058 54.6774 108.906 54.6856Z" fill="#31FA1F"/>
<path d="M112.377 47.771C112.435 47.9069 110.753 48.698 108.581 49.4375C106.409 50.1771 104.586 50.5891 104.543 50.449C104.5 50.3089 106.238 49.6724 108.395 48.9328C110.552 48.1933 112.32 47.633 112.377 47.771Z" fill="#31FA1F"/>
</svg>
