<svg width="97" height="97" viewBox="0 0 97 97" fill="none" xmlns="http://www.w3.org/2000/svg">
<mask id="mask0_1805_5148" style="mask-type:alpha" maskUnits="userSpaceOnUse" x="0" y="0" width="97" height="97">
<rect width="97" height="97" fill="#D9D9D9"/>
</mask>
<g mask="url(#mask0_1805_5148)">
<path d="M23.6434 69.1122C27.0788 66.4851 30.9184 64.4137 35.1622 62.8981C39.4059 61.3825 43.8518 60.6247 48.4997 60.6247C53.1476 60.6247 57.5934 61.3825 61.8372 62.8981C66.0809 64.4137 69.9205 66.4851 73.3559 69.1122C75.7136 66.3504 77.5492 63.2181 78.8627 59.7153C80.1762 56.2125 80.833 52.474 80.833 48.4997C80.833 39.5406 77.6839 31.912 71.3856 25.6137C65.0874 19.3155 57.4587 16.1663 48.4997 16.1663C39.5406 16.1663 31.912 19.3155 25.6137 25.6137C19.3155 31.912 16.1663 39.5406 16.1663 48.4997C16.1663 52.474 16.8231 56.2125 18.1367 59.7153C19.4502 63.2181 21.2858 66.3504 23.6434 69.1122ZM48.4997 52.5413C44.5254 52.5413 41.1742 51.1773 38.446 48.4492C35.7179 45.721 34.3538 42.3698 34.3538 38.3955C34.3538 34.4212 35.7179 31.07 38.446 28.3419C41.1742 25.6137 44.5254 24.2497 48.4997 24.2497C52.474 24.2497 55.8252 25.6137 58.5533 28.3419C61.2815 31.07 62.6455 34.4212 62.6455 38.3955C62.6455 42.3698 61.2815 45.721 58.5533 48.4492C55.8252 51.1773 52.474 52.5413 48.4997 52.5413ZM48.4997 88.9164C42.9087 88.9164 37.6545 87.8554 32.7372 85.7335C27.8198 83.6117 23.5424 80.732 19.9049 77.0945C16.2674 73.457 13.3877 69.1795 11.2658 64.2622C9.14395 59.3448 8.08301 54.0906 8.08301 48.4997C8.08301 42.9087 9.14395 37.6545 11.2658 32.7372C13.3877 27.8198 16.2674 23.5424 19.9049 19.9049C23.5424 16.2674 27.8198 13.3877 32.7372 11.2658C37.6545 9.14395 42.9087 8.08301 48.4997 8.08301C54.0906 8.08301 59.3448 9.14395 64.2622 11.2658C69.1795 13.3877 73.457 16.2674 77.0945 19.9049C80.732 23.5424 83.6117 27.8198 85.7335 32.7372C87.8554 37.6545 88.9164 42.9087 88.9164 48.4997C88.9164 54.0906 87.8554 59.3448 85.7335 64.2622C83.6117 69.1795 80.732 73.457 77.0945 77.0945C73.457 80.732 69.1795 83.6117 64.2622 85.7335C59.3448 87.8554 54.0906 88.9164 48.4997 88.9164ZM48.4997 80.833C52.0698 80.833 55.4379 80.311 58.6038 79.2669C61.7698 78.2228 64.6663 76.724 67.2934 74.7705C64.6663 72.817 61.7698 71.3183 58.6038 70.2742C55.4379 69.2301 52.0698 68.708 48.4997 68.708C44.9295 68.708 41.5615 69.2301 38.3955 70.2742C35.2295 71.3183 32.333 72.817 29.7059 74.7705C32.333 76.724 35.2295 78.2228 38.3955 79.2669C41.5615 80.311 44.9295 80.833 48.4997 80.833ZM48.4997 44.458C50.2511 44.458 51.6993 43.8854 52.8445 42.7403C53.9896 41.5952 54.5622 40.1469 54.5622 38.3955C54.5622 36.6441 53.9896 35.1959 52.8445 34.0507C51.6993 32.9056 50.2511 32.333 48.4997 32.333C46.7483 32.333 45.3 32.9056 44.1549 34.0507C43.0097 35.1959 42.4372 36.6441 42.4372 38.3955C42.4372 40.1469 43.0097 41.5952 44.1549 42.7403C45.3 43.8854 46.7483 44.458 48.4997 44.458Z" fill="#2C2A6C"/>
</g>
</svg>
