<svg width="81" height="73" viewBox="0 0 81 73" fill="none" xmlns="http://www.w3.org/2000/svg">
<path d="M22.3122 48.625H28.3747V32.4583H22.3122V37.5104H16.2497V43.5729H22.3122V48.625ZM32.4163 43.5729H64.7497V37.5104H32.4163V43.5729ZM52.6247 32.4583H58.6872V27.4062H64.7497V21.3438H58.6872V16.2917H52.6247V32.4583ZM16.2497 27.4062H48.583V21.3438H16.2497V27.4062ZM24.333 72.875V64.7917H8.16634C5.94342 64.7917 4.04047 64.0002 2.45749 62.4172C0.874501 60.8342 0.0830078 58.9312 0.0830078 56.7083V8.20833C0.0830078 5.98542 0.874501 4.08247 2.45749 2.49948C4.04047 0.916493 5.94342 0.125 8.16634 0.125H72.833C75.0559 0.125 76.9589 0.916493 78.5419 2.49948C80.1249 4.08247 80.9164 5.98542 80.9164 8.20833V56.7083C80.9164 58.9312 80.1249 60.8342 78.5419 62.4172C76.9589 64.0002 75.0559 64.7917 72.833 64.7917H56.6663V72.875H24.333ZM8.16634 56.7083H72.833V8.20833H8.16634V56.7083Z" fill="#2C2A6C"/>
</svg>
