<svg width="602" height="339" viewBox="0 0 602 339" fill="none" xmlns="http://www.w3.org/2000/svg">
<g clip-path="url(#clip0_200_613)">
<path d="M598.104 338.124H262.9C261.867 338.123 260.877 337.687 260.147 336.913C259.416 336.139 259.005 335.09 259.004 333.996V4.12848C259.005 3.03398 259.416 1.98471 260.147 1.21078C260.877 0.436853 261.867 0.00143246 262.9 0H598.104C599.137 0.00143246 600.127 0.436853 600.857 1.21078C601.588 1.98471 601.998 3.03398 602 4.12848V333.995C601.999 335.089 601.588 336.139 600.857 336.913C600.127 337.687 599.137 338.123 598.104 338.124ZM262.9 1.64814C262.281 1.64957 261.688 1.91078 261.25 2.37461C260.812 2.83844 260.566 3.46711 260.564 4.12306V333.995C260.566 334.651 260.812 335.279 261.25 335.743C261.688 336.207 262.281 336.468 262.9 336.47H598.104C598.723 336.469 599.316 336.207 599.754 335.744C600.192 335.28 600.438 334.651 600.439 333.995V4.12848C600.438 3.47253 600.192 2.84386 599.754 2.38003C599.316 1.9162 598.723 1.65499 598.104 1.65356L262.9 1.64814Z" fill="#23293D"/>
<path d="M421.29 85.717C420.588 85.717 419.915 86.0124 419.419 86.538C418.923 87.0636 418.645 87.7765 418.645 88.5199C418.645 89.2632 418.923 89.9762 419.419 90.5018C419.915 91.0274 420.588 91.3228 421.29 91.3228H566.428C567.13 91.3228 567.802 91.0274 568.298 90.5018C568.794 89.9762 569.073 89.2632 569.073 88.5199C569.073 87.7765 568.794 87.0636 568.298 86.538C567.802 86.0124 567.13 85.717 566.428 85.717H421.29Z" fill="#23293D"/>
<path d="M421.29 102.536C420.588 102.536 419.915 102.831 419.419 103.357C418.923 103.882 418.645 104.595 418.645 105.339C418.645 106.082 418.923 106.795 419.419 107.32C419.915 107.846 420.588 108.141 421.29 108.141H495.386C496.087 108.141 496.76 107.846 497.256 107.32C497.752 106.795 498.031 106.082 498.031 105.339C498.031 104.595 497.752 103.882 497.256 103.357C496.76 102.831 496.087 102.536 495.386 102.536H421.29Z" fill="#23293D"/>
<path d="M294.434 183.94C293.733 183.94 293.06 184.236 292.564 184.761C292.068 185.287 291.789 186 291.789 186.743C291.789 187.487 292.068 188.2 292.564 188.725C293.06 189.251 293.733 189.546 294.434 189.546H566.569C567.271 189.546 567.944 189.251 568.44 188.725C568.936 188.2 569.214 187.487 569.214 186.743C569.214 186 568.936 185.287 568.44 184.761C567.944 184.236 567.271 183.94 566.569 183.94H294.434Z" fill="#23293D"/>
<path d="M294.434 200.759C293.733 200.759 293.06 201.055 292.564 201.58C292.068 202.106 291.789 202.819 291.789 203.562C291.789 204.306 292.068 205.018 292.564 205.544C293.06 206.07 293.733 206.365 294.434 206.365H495.527C496.229 206.365 496.901 206.07 497.397 205.544C497.893 205.018 498.172 204.306 498.172 203.562C498.172 202.819 497.893 202.106 497.397 201.58C496.901 201.055 496.229 200.759 495.527 200.759H294.434Z" fill="#23293D"/>
<path d="M294.434 217.197C293.733 217.197 293.06 217.493 292.564 218.018C292.068 218.544 291.789 219.257 291.789 220C291.789 220.743 292.068 221.456 292.564 221.982C293.06 222.508 293.733 222.803 294.434 222.803H566.569C567.271 222.803 567.944 222.508 568.44 221.982C568.936 221.456 569.214 220.743 569.214 220C569.214 219.257 568.936 218.544 568.44 218.018C567.944 217.493 567.271 217.197 566.569 217.197H294.434Z" fill="#23293D"/>
<path d="M294.434 234.016C293.733 234.016 293.06 234.311 292.564 234.837C292.068 235.363 291.789 236.076 291.789 236.819C291.789 237.562 292.068 238.275 292.564 238.801C293.06 239.327 293.733 239.622 294.434 239.622H495.527C496.229 239.622 496.901 239.327 497.397 238.801C497.893 238.275 498.172 237.562 498.172 236.819C498.172 236.076 497.893 235.363 497.397 234.837C496.901 234.311 496.229 234.016 495.527 234.016H294.434Z" fill="#23293D"/>
<path d="M384.61 144.77H174.212C173.18 144.769 172.189 144.334 171.459 143.56C170.728 142.786 170.318 141.736 170.316 140.642V42.7996C170.318 41.705 170.728 40.6557 171.459 39.8817C172.189 39.1077 173.18 38.6724 174.212 38.6711H384.61C385.643 38.6724 386.633 39.1077 387.363 39.8817C388.094 40.6557 388.505 41.705 388.506 42.7996V140.642C388.505 141.736 388.094 142.786 387.363 143.56C386.633 144.334 385.643 144.769 384.61 144.77Z" fill="#FAA21E"/>
<path d="M564.887 299.453H485.136C484.103 299.452 483.113 299.016 482.383 298.242C481.652 297.468 481.241 296.419 481.24 295.324V281.784C481.241 280.69 481.652 279.64 482.383 278.866C483.113 278.092 484.103 277.657 485.136 277.656H564.887C565.92 277.657 566.911 278.092 567.641 278.866C568.371 279.64 568.782 280.69 568.783 281.784V295.324C568.782 296.419 568.371 297.468 567.641 298.242C566.911 299.016 565.92 299.452 564.887 299.453Z" fill="#FAA21E"/>
<path d="M92.2815 165.595C88.8447 162.877 87.836 157.796 90.0286 154.248C90.2465 153.9 90.4929 153.574 90.7649 153.272L90.9846 80.9893L101.124 82.9952L101.57 154.087C103.88 156.927 104.346 161.065 102.475 164.093C100.282 167.641 95.7186 168.314 92.2815 165.595Z" fill="#FFB8B8"/>
<path d="M145.012 327.387L155.465 327.386L160.439 284.661L145.011 284.662L145.012 327.387Z" fill="#FFB8B8"/>
<path d="M142.346 323.77L162.932 323.769H162.933C166.412 323.769 169.749 325.234 172.209 327.841C174.669 330.448 176.052 333.984 176.052 337.671V338.123L142.346 338.124L142.346 323.77Z" fill="#2F2E41"/>
<path d="M47.811 327.387L58.2649 327.386L63.2375 284.661L47.8096 284.662L47.811 327.387Z" fill="#FFB8B8"/>
<path d="M45.1445 323.77L65.7308 323.769H65.7316C69.2109 323.769 72.5477 325.234 75.008 327.841C77.4682 330.448 78.8505 333.984 78.8508 337.671V338.123L45.1452 338.124L45.1445 323.77Z" fill="#2F2E41"/>
<path d="M144.402 315.453L143.526 309.883C142.626 309.549 141.861 308.899 141.359 308.04C140.419 306.465 140.269 304.248 140.914 301.45L133.861 238.334L97.0383 197.85L73.4159 258.226L64.0647 306.004V312.907L45.3943 315.447L46.2439 308.941C45.5297 308.616 44.9346 308.054 44.5486 307.34C43.4759 305.448 43.4906 302.515 44.5921 298.625L44.6398 298.456L44.5789 297.875C44.5361 297.468 44.8168 258.442 55.7648 239.107L66.7294 180.403C66.4447 179.577 65.039 174.763 67.617 166.629C70.1614 158.603 77.2773 145.671 96.7288 129.651L96.7957 129.597L96.8785 129.578C97.0939 129.531 118.548 125.011 129.643 140.386L129.718 140.49V140.621C129.718 141.572 129.699 163.692 128.048 168.6L154.377 219.899C154.889 220.475 159.492 226.108 157.857 240.916L162.111 291.396C162.597 292.38 167 301.652 162.147 305.322L163.017 311.696L144.402 315.453Z" fill="#2F2E41"/>
<path d="M100.358 103.328C95.4142 103.328 88.8447 101.476 84.8233 92.9419L84.7441 92.7743L94.6514 70.5201C95.9349 67.637 98.2323 65.4006 101.052 64.2895C103.872 63.1784 106.99 63.2808 109.739 64.5749C112.489 65.869 114.651 68.2519 115.763 71.2138C116.876 74.1756 116.85 77.4813 115.692 80.4234L107.127 102.182L106.978 102.241C104.838 102.969 102.605 103.336 100.358 103.328Z" fill="#FAA21E"/>
<path d="M127.801 147.45L96.5684 131.822L100.861 76.32L108.688 66.1833L110.205 65.8393C117.173 64.2584 124.413 64.6834 131.174 67.07L131.322 67.1225L144.179 96.1848C144.259 96.3298 153.531 113.675 140.714 122.82L127.801 147.45Z" fill="#FAA21E"/>
<path d="M170.738 129.762C170.365 129.927 170.005 130.122 169.661 130.347L136.75 114.394L135.906 105.12L122.531 104.641L122.521 121.212C122.52 122.551 122.929 123.854 123.686 124.925C124.443 125.997 125.508 126.779 126.721 127.155L166.242 139.394C166.648 140.985 167.501 142.408 168.689 143.473C169.876 144.537 171.342 145.194 172.89 145.354C174.438 145.515 175.996 145.173 177.356 144.372C178.716 143.572 179.814 142.352 180.503 140.875C181.193 139.397 181.442 137.732 181.217 136.101C180.991 134.47 180.303 132.95 179.243 131.744C178.183 130.537 176.801 129.702 175.282 129.348C173.763 128.994 172.178 129.138 170.738 129.762Z" fill="#FFB8B8"/>
<path d="M130.482 109.078C126.731 109.078 122.499 107.703 118.437 103.399L118.312 103.266L121.056 78.8326C121.412 75.6671 122.923 72.7746 125.265 70.7743C127.608 68.7739 130.596 67.8245 133.591 68.1291C136.585 68.4337 139.348 69.9682 141.289 72.4042C143.23 74.8403 144.193 77.9844 143.974 81.1638L142.354 104.677L142.23 104.782C142.15 104.85 137.058 109.078 130.482 109.078Z" fill="#FAA21E"/>
<path d="M140.518 46.8489C146.065 36.095 142.335 22.6115 132.187 16.7329C122.039 10.8542 109.314 14.8064 103.767 25.5604C98.219 36.3144 101.949 49.7978 112.097 55.6765C122.246 61.5551 134.97 57.6029 140.518 46.8489Z" fill="#FFB8B8"/>
<path d="M143.456 24.4467C142.416 18.0422 137.565 12.7329 131.785 10.5605C126.005 8.3882 119.487 9.09468 113.827 11.5963C112.884 12.0148 111.963 12.4843 111.066 13.0031C108.997 8.8245 103.925 6.40097 99.2858 6.66254C93.6814 6.97853 88.62 10.1208 83.7526 13.0824C78.8852 16.0439 73.6621 18.9905 68.0508 18.8526C57.9108 18.6035 50.3669 8.64159 40.6163 5.68105C36.2757 4.36318 31.6571 4.49649 27.3907 6.0628C23.1242 7.62912 19.4177 10.5521 16.7769 14.4331C14.136 18.314 12.6894 22.9638 12.6344 27.7481C12.5795 32.5324 13.9188 37.2181 16.4698 41.166C20.6301 33.2655 30.4003 30.5971 38.8779 31.6726C47.3551 32.7482 55.2561 36.6858 63.5612 38.7832C71.8666 40.8807 81.4853 40.7907 87.9183 34.8425C91.5677 31.4686 93.7102 26.6463 96.887 22.7729C99.036 20.153 102.095 17.9407 105.221 17.42C102.142 20.3581 99.7916 24.0527 98.376 28.179C95.8695 35.7251 97.2095 44.7857 102.409 50.5857C107.983 56.8041 116.732 58.4613 124.825 58.3607L124.994 58.1784C122.516 54.2481 120.561 48.7983 123.289 45.0587C125.982 41.3674 131.294 41.9113 135.418 40.2779C141.163 38.0029 144.494 30.8514 143.456 24.4467Z" fill="#2F2E41"/>
<path d="M199.984 339H0.729867C0.536294 339 0.350649 338.918 0.213773 338.773C0.0768959 338.628 0 338.432 0 338.227C0 338.021 0.0768959 337.825 0.213773 337.68C0.350649 337.535 0.536294 337.453 0.729867 337.453H199.984C200.177 337.453 200.363 337.535 200.5 337.68C200.637 337.825 200.713 338.021 200.713 338.227C200.713 338.432 200.637 338.628 200.5 338.773C200.363 338.918 200.177 339 199.984 339Z" fill="#CCCCCC"/>
<path d="M269.97 72.9871C269.057 72.9902 268.318 74.2475 268.319 75.7955C268.321 77.3391 269.059 78.5897 269.97 78.5928H347.971C348.885 78.5897 349.624 77.3323 349.622 75.7844C349.62 74.2407 348.882 72.9901 347.971 72.9871H269.97Z" fill="white"/>
<path d="M269.97 89.2288C269.057 89.2319 268.318 90.4892 268.319 92.0372C268.321 93.5808 269.059 94.8314 269.97 94.8345H347.971C348.885 94.8314 349.624 93.574 349.622 92.0261C349.62 90.4824 348.882 89.2318 347.971 89.2288H269.97Z" fill="white"/>
<path d="M269.97 105.274C269.057 105.277 268.318 106.534 268.319 108.082C268.321 109.626 269.059 110.877 269.97 110.88H303.534C304.448 110.877 305.187 109.619 305.185 108.071C305.184 106.528 304.445 105.277 303.534 105.274H269.97Z" fill="white"/>
<path d="M230.366 114.15C242.056 114.15 251.532 104.108 251.532 91.7207C251.532 79.3336 242.056 69.2917 230.366 69.2917C218.677 69.2917 209.2 79.3336 209.2 91.7207C209.2 104.108 218.677 114.15 230.366 114.15Z" fill="white"/>
</g>
<defs>
<clipPath id="clip0_200_613">
<rect width="602" height="339" fill="white"/>
</clipPath>
</defs>
</svg>
