<svg width="89" height="73" viewBox="0 0 89 73" fill="none" xmlns="http://www.w3.org/2000/svg">
<path d="M28.3337 44.5833H36.417V36.5C36.417 35.3549 36.8043 34.395 37.579 33.6203C38.3536 32.8457 39.3135 32.4583 40.4587 32.4583H48.542V40.5417L60.667 28.4167L48.542 16.2917V24.375H40.4587C37.0906 24.375 34.2278 25.5538 31.8701 27.9115C29.5125 30.2691 28.3337 33.1319 28.3337 36.5V44.5833ZM12.167 60.75C9.94407 60.75 8.04112 59.9585 6.45814 58.3755C4.87515 56.7925 4.08366 54.8896 4.08366 52.6667V8.20833C4.08366 5.98542 4.87515 4.08247 6.45814 2.49948C8.04112 0.916493 9.94407 0.125 12.167 0.125H76.8337C79.0566 0.125 80.9595 0.916493 82.5425 2.49948C84.1255 4.08247 84.917 5.98542 84.917 8.20833V52.6667C84.917 54.8896 84.1255 56.7925 82.5425 58.3755C80.9595 59.9585 79.0566 60.75 76.8337 60.75H12.167ZM12.167 52.6667H76.8337V8.20833H12.167V52.6667ZM0.0419922 72.875V64.7917H88.9587V72.875H0.0419922Z" fill="#2C2A6C"/>
</svg>
