<svg width="602" height="339" viewBox="0 0 602 339" fill="none" xmlns="http://www.w3.org/2000/svg">
<g clip-path="url(#clip0_1805_5212)">
<path d="M392.892 148.022C392.199 151.142 391.367 154.231 390.396 157.288C390.291 157.643 390.173 157.992 390.056 158.347H376.56C375.411 158.348 374.309 158.739 373.496 159.434C372.684 160.13 372.226 161.072 372.225 162.056V194.965C371.816 195.617 371.401 196.263 370.986 196.909C368.844 200.247 366.614 203.547 364.335 206.806C327.17 259.76 275.336 304.072 213.408 335.832L217.075 328.754C215.73 328.675 214.38 328.595 213.037 328.516C183.773 326.805 154.41 324.908 125.833 319.282C95.938 313.396 66.6929 303.187 43.2633 286.261C19.8273 269.329 2.64701 245.151 0.262494 218.99C-0.532615 210 0.530383 200.96 3.40274 192.284C8.89604 175.586 20.8991 160.562 38.2158 151.672C65.4171 137.712 100.899 140.557 129.574 152.17C158.243 163.777 181.58 182.992 204.366 201.873C181.36 168.128 149.33 139.529 110.901 118.423C98.1676 111.452 84.6538 105.243 73.8278 96.2099C63.0078 87.1826 55.0244 74.5263 56.9384 61.7005C59.1121 47.1529 73.0412 36.1124 86.9948 27.5989C92.5688 24.1978 98.3225 20.9714 104.256 18.0047C120.996 9.6131 139.106 3.2823 158.231 0.9354C184.138 -2.24854 212.12 2.583 231.982 17.1624C254.359 33.5907 263.537 60.0846 262.664 85.429C276.45 68.2855 297.712 55.163 321.724 54.6068C346.653 54.0346 370.349 67.5068 382.834 85.9747C395.314 104.437 397.556 127.069 392.892 148.022Z" fill="#D38A00"/>
<path d="M235.173 219.221C249.773 218.121 263.261 216.836 277.409 213.411C291.123 210.092 304.32 204.535 314.083 195.461C324.584 185.702 330.252 173.028 334.251 160.411C336.481 153.376 338.313 146.244 340.042 139.109C341.918 131.367 343.585 123.591 345.042 115.781C347.943 100.235 350.015 84.5968 351.256 68.8674C351.406 66.9581 351.543 65.0481 351.668 63.1374C351.746 61.9588 349.603 61.9626 349.525 63.1374C348.506 78.6421 346.671 94.0863 344.023 109.47C341.409 124.585 338.064 139.634 333.821 154.477C330.226 167.052 325.571 179.823 316.352 190.291C307.706 200.107 295.219 206.522 281.735 210.358C268.015 214.26 253.549 215.819 239.212 216.977C237.453 217.119 236.932 217.255 235.173 217.387C233.809 217.49 233.797 219.324 235.173 219.221Z" fill="white"/>
<path d="M4.63933 193.636C23.0607 194.51 41.2948 197.259 58.9559 201.824C76.6245 206.379 93.6035 212.701 109.541 220.658C124.941 228.353 139.237 237.56 152.139 248.093C164.661 258.321 175.821 269.703 185.415 282.031C195.052 294.39 203.039 307.635 209.226 321.517C209.98 323.216 210.707 324.924 211.406 326.64C211.858 327.747 213.929 327.271 213.472 326.153C207.684 311.978 200.054 298.403 190.725 285.685C181.398 272.965 170.451 261.169 158.086 250.512C145.522 239.69 131.54 230.146 116.416 222.068C84.662 205.148 48.6688 194.912 11.3923 192.201C9.14368 192.04 6.89271 191.907 4.63936 191.803C3.26133 191.739 3.26554 193.572 4.63933 193.636Z" fill="white"/>
<path d="M104.834 20.1532C116.613 23.3574 127.777 28.0241 137.97 34.0038C148.385 40.1556 157.884 47.3715 166.256 55.4915C175.079 64.0334 182.923 73.2799 189.68 83.1038C196.847 93.4765 203.073 104.304 208.303 115.492C213.689 126.978 218.219 138.744 221.866 150.719C225.573 162.837 228.468 175.125 230.538 187.525C232.598 199.793 233.844 212.152 234.271 224.54C234.702 236.386 234.292 248.244 233.045 260.048C231.905 271.06 229.821 281.987 226.813 292.738C224.141 302.449 220.375 311.916 215.569 321.005C214.455 323.068 213.274 325.103 212.025 327.109C211.376 328.149 213.226 329.076 213.875 328.034C219.187 319.352 223.428 310.221 226.531 300.788C230.012 290.287 232.535 279.571 234.078 268.737C235.788 256.982 236.621 245.146 236.571 233.301C236.54 220.856 235.674 208.423 233.977 196.064C232.28 183.55 229.759 171.128 226.428 158.857C223.104 146.566 218.889 134.463 213.805 122.621C208.905 111.156 203.039 100.011 196.252 89.2739C189.788 79.0277 182.254 69.3019 173.744 60.2153C165.662 51.5635 156.435 43.7419 146.248 36.9072C136.425 30.3365 125.57 24.9806 114.002 20.9968C111.175 20.0344 108.309 19.164 105.404 18.3856C104.086 18.0308 103.521 19.7999 104.834 20.1532Z" fill="white"/>
<path d="M231.945 339C316.602 339 385.231 336.628 385.231 333.702C385.231 330.776 316.602 328.404 231.945 328.404C147.287 328.404 78.6582 330.776 78.6582 333.702C78.6582 336.628 147.287 339 231.945 339Z" fill="#E6E6E6"/>
<path d="M367.375 167.772C367.299 168.057 367.249 168.348 367.227 168.64L340.621 181.769L334.155 178.585L327.261 186.305L341.095 194.739L371.447 174.257C372.685 174.649 374.034 174.709 375.312 174.429C376.591 174.15 377.741 173.544 378.607 172.692C379.474 171.84 380.016 170.783 380.163 169.661C380.31 168.539 380.055 167.405 379.43 166.411C378.805 165.416 377.841 164.607 376.667 164.093C375.492 163.578 374.162 163.382 372.853 163.529C371.544 163.677 370.319 164.162 369.341 164.92C368.362 165.678 367.676 166.672 367.375 167.772Z" fill="#FFB8B8"/>
<path d="M306.784 175.827L327.733 188.598L337.102 178.55L316.738 164.573C315.862 163.971 314.851 163.529 313.769 163.274C312.686 163.018 311.553 162.954 310.441 163.086C309.328 163.218 308.259 163.543 307.298 164.041C306.337 164.539 305.505 165.199 304.853 165.981C303.583 167.506 303.073 169.4 303.435 171.246C303.797 173.092 305.002 174.74 306.784 175.827Z" fill="#FAA21E"/>
<path d="M263.54 321.55L270.885 323.196L281.804 299.746L270.964 297.316L263.54 321.55Z" fill="#FFB8B8"/>
<path d="M283.264 332.205L260.179 327.031L262.516 319.402L276.682 322.577C279.047 323.107 281.07 324.419 282.304 326.225C283.538 328.031 283.883 330.182 283.264 332.205Z" fill="#2F2E41"/>
<path d="M328.833 326.023L336.308 324.881L334.715 299.676L323.684 301.361L328.833 326.023Z" fill="#FFB8B8"/>
<path d="M351.963 328.615L328.471 332.205L326.85 324.441L341.265 322.238C342.457 322.056 343.679 322.077 344.862 322.299C346.045 322.52 347.165 322.939 348.158 323.532C349.151 324.124 349.999 324.877 350.652 325.75C351.304 326.622 351.75 327.596 351.963 328.615Z" fill="#2F2E41"/>
<path d="M314.114 140.659C315.956 141.043 317.455 142.648 318.355 144.508C319.185 146.462 319.747 148.491 320.029 150.555C320.737 154.4 321.416 158.562 319.953 162.122C318.239 166.295 313.672 168.481 309.71 167.454C305.748 166.427 302.597 162.571 301.521 158.133C300.541 153.649 301.172 149.015 303.332 144.844C304.457 142.652 306.009 140.63 308.07 139.642C309.081 139.119 310.287 138.942 311.443 139.149C312.6 139.355 313.623 139.928 314.306 140.753" fill="#2F2E41"/>
<path d="M324.537 210.265L338.767 319.289L327.014 323.106L305.337 249.998L275.158 316.844L262.293 317.455C262.293 317.455 279.944 213.443 293.026 211.079L324.537 210.265Z" fill="#2F2E41"/>
<path d="M312.584 154.573C320.985 154.573 327.795 148.748 327.795 141.562C327.795 134.375 320.985 128.55 312.584 128.55C304.183 128.55 297.372 134.375 297.372 141.562C297.372 148.748 304.183 154.573 312.584 154.573Z" fill="#FFB8B8"/>
<path d="M319.112 160.031L302.674 158.197C302.674 158.197 291.953 169.202 292.668 188.154C293.382 207.106 290.881 212.913 290.881 212.913L325.155 213.443C320.201 207.616 340.925 174.146 319.112 160.031Z" fill="#FAA21E"/>
<path d="M327.943 216.093C327.6 216.095 327.258 216.12 326.92 216.168L305.89 197.019L308.034 190.905L297.671 186.932L291.238 200.381L321.494 220.968C321.332 222.089 321.572 223.225 322.182 224.226C322.793 225.227 323.746 226.045 324.913 226.572C326.081 227.098 327.408 227.308 328.719 227.174C330.029 227.04 331.261 226.567 332.25 225.819C333.239 225.072 333.939 224.084 334.256 222.988C334.572 221.892 334.492 220.739 334.024 219.683C333.556 218.628 332.724 217.718 331.638 217.077C330.551 216.436 329.263 216.092 327.943 216.093Z" fill="#FFB8B8"/>
<path d="M304.909 167.482L295.169 187.848L308.748 193.35L319.994 173.195C320.478 172.328 320.75 171.385 320.793 170.425C320.836 169.465 320.65 168.508 320.245 167.611C319.84 166.715 319.226 165.899 318.439 165.213C317.653 164.527 316.711 163.985 315.672 163.621C314.669 163.27 313.595 163.092 312.511 163.096C311.427 163.1 310.355 163.286 309.356 163.645C308.356 164.003 307.449 164.527 306.686 165.185C305.923 165.843 305.32 166.624 304.909 167.482Z" fill="#FAA21E"/>
<path d="M308.605 153.391C310.988 152.215 311.242 149.377 310.918 147.04C310.594 144.703 310.053 142.097 311.66 140.186C313.576 137.905 317.428 137.859 320.711 137.785C323.994 137.71 327.992 136.888 328.842 134.175C329.404 132.382 328.202 130.458 326.476 129.333C324.751 128.207 322.592 127.71 320.493 127.237C315.799 126.179 310.952 125.112 306.145 125.694C301.385 126.27 297.08 128.426 294.164 131.695C291.247 134.965 289.953 139.086 290.561 143.166C291.339 148.384 292.467 150.663 291.727 152.964C290.347 157.25 284.399 160.004 284.281 164.448C284.188 167.925 287.778 170.606 291.281 172.371C294.059 173.772 297.057 174.96 300.259 175.287C303.46 175.615 306.907 174.988 309.292 173.131C312.368 170.737 313.129 166.738 312.247 163.261C311.365 159.785 309.102 156.698 306.864 153.699" fill="#2F2E41"/>
<path d="M596.426 157.287H376.56C375.083 157.289 373.666 157.792 372.621 158.686C371.577 159.579 370.989 160.791 370.986 162.055V282.844C370.989 284.107 371.577 285.319 372.621 286.213C373.666 287.107 375.083 287.61 376.56 287.611H596.426C597.903 287.61 599.32 287.107 600.365 286.213C601.41 285.319 601.997 284.107 602 282.844V162.055C601.997 160.791 601.41 159.579 600.365 158.686C599.32 157.792 597.903 157.289 596.426 157.287ZM600.761 282.844C600.76 283.827 600.303 284.769 599.49 285.465C598.677 286.16 597.575 286.551 596.426 286.552H376.56C375.411 286.551 374.309 286.16 373.496 285.465C372.683 284.769 372.226 283.827 372.225 282.844V162.055C372.226 161.072 372.683 160.129 373.496 159.434C374.309 158.739 375.411 158.348 376.56 158.347H596.426C597.575 158.348 598.677 158.739 599.49 159.434C600.303 160.129 600.76 161.072 600.761 162.055V282.844Z" fill="#3F3D56"/>
<path d="M423.491 217.415H388.808C387.413 217.413 386.075 216.938 385.088 216.094C384.101 215.25 383.546 214.105 383.544 212.912V183.244C383.546 182.05 384.101 180.906 385.088 180.062C386.075 179.218 387.413 178.743 388.808 178.741H423.491C424.887 178.743 426.225 179.218 427.212 180.062C428.199 180.906 428.754 182.05 428.756 183.244V212.912C428.754 214.105 428.199 215.25 427.212 216.094C426.225 216.938 424.887 217.413 423.491 217.415Z" fill="#FAA21E"/>
<path d="M584.976 248.941H388.026C386.958 248.941 385.934 248.578 385.179 247.932C384.424 247.286 384 246.411 384 245.497C384 244.584 384.424 243.708 385.179 243.062C385.934 242.417 386.958 242.054 388.026 242.054H584.976C586.043 242.054 587.067 242.417 587.822 243.062C588.577 243.708 589.001 244.584 589.001 245.497C589.001 246.411 588.577 247.286 587.822 247.932C587.067 248.578 586.043 248.941 584.976 248.941Z" fill="#23293D"/>
<path d="M585.107 232.253H388.158C387.09 232.253 386.066 231.89 385.311 231.245C384.556 230.599 384.132 229.723 384.132 228.81C384.132 227.896 384.556 227.021 385.311 226.375C386.066 225.729 387.09 225.366 388.158 225.366H585.107C586.175 225.366 587.199 225.729 587.954 226.375C588.709 227.021 589.133 227.896 589.133 228.81C589.133 229.723 588.709 230.599 587.954 231.245C587.199 231.89 586.175 232.253 585.107 232.253Z" fill="#23293D"/>
<path d="M487.871 209.468H458.762C457.694 209.468 456.67 209.105 455.915 208.46C455.16 207.814 454.736 206.938 454.736 206.025C454.736 205.111 455.16 204.235 455.915 203.59C456.67 202.944 457.694 202.581 458.762 202.581H487.871C488.939 202.581 489.963 202.944 490.718 203.59C491.473 204.235 491.897 205.111 491.897 206.025C491.897 206.938 491.473 207.814 490.718 208.46C489.963 209.105 488.939 209.468 487.871 209.468Z" fill="#23293D"/>
<path d="M585.107 192.52H458.762C457.694 192.52 456.67 192.157 455.915 191.511C455.16 190.865 454.736 189.99 454.736 189.076C454.736 188.163 455.16 187.287 455.915 186.641C456.67 185.996 457.694 185.633 458.762 185.633H585.107C586.175 185.633 587.199 185.996 587.954 186.641C588.709 187.287 589.133 188.163 589.133 189.076C589.133 189.99 588.709 190.865 587.954 191.511C587.199 192.157 586.175 192.52 585.107 192.52Z" fill="#23293D"/>
<path d="M482.917 265.894H388.026C386.958 265.894 385.934 265.531 385.179 264.885C384.424 264.24 384 263.364 384 262.45C384 261.537 384.424 260.661 385.179 260.015C385.934 259.37 386.958 259.007 388.026 259.007H482.917C483.984 259.007 485.008 259.37 485.763 260.015C486.518 260.661 486.942 261.537 486.942 262.45C486.942 263.364 486.518 264.24 485.763 264.885C485.008 265.531 483.984 265.894 482.917 265.894Z" fill="#23293D"/>
</g>
<defs>
<clipPath id="clip0_1805_5212">
<rect width="602" height="339" fill="white"/>
</clipPath>
</defs>
</svg>
