<svg width="602" height="361" viewBox="0 0 602 361" fill="none" xmlns="http://www.w3.org/2000/svg">
<g clip-path="url(#clip0_1805_5267)">
<path d="M209.163 345.8C208.685 345.82 208.21 345.709 207.805 345.484C207.4 345.259 207.084 344.931 206.899 344.542C206.714 344.154 206.669 343.726 206.771 343.315C206.873 342.904 207.117 342.53 207.469 342.245L207.629 341.686C207.608 341.641 207.587 341.596 207.565 341.551C207.083 340.552 206.274 339.699 205.241 339.101C204.208 338.503 202.997 338.186 201.759 338.19C200.522 338.194 199.313 338.519 198.285 339.124C197.257 339.728 196.456 340.586 195.982 341.589C194.087 345.592 191.675 349.603 191.081 353.835C190.819 355.706 190.93 357.603 191.407 359.441C186.957 350.925 184.647 341.669 184.632 332.301C184.631 329.95 184.78 327.601 185.078 325.265C185.324 323.349 185.666 321.448 186.103 319.56C188.488 309.316 193.608 299.715 201.044 291.544C204.643 289.821 207.554 287.172 209.384 283.953C210.047 282.796 210.515 281.561 210.775 280.286C210.369 280.333 209.244 274.909 209.55 274.576C208.984 273.823 207.972 273.448 207.354 272.713C204.281 269.058 200.047 269.696 197.836 274.663C193.115 276.754 193.069 280.221 195.966 283.556C197.809 285.678 198.063 288.549 199.68 290.82C199.514 291.007 199.341 291.188 199.174 291.375C196.133 294.806 193.482 298.491 191.259 302.376C191.8 298.023 191.155 293.621 189.377 289.53C187.576 285.717 184.199 282.506 181.226 279.21C177.654 275.251 170.331 276.979 169.701 281.997C169.695 282.046 169.689 282.095 169.684 282.143C170.125 282.362 170.558 282.594 170.981 282.839C171.512 283.151 171.924 283.596 172.162 284.116C172.4 284.636 172.454 285.208 172.315 285.755C172.177 286.302 171.854 286.8 171.387 287.184C170.921 287.567 170.333 287.818 169.702 287.903L169.637 287.912C169.794 289.309 170.072 290.693 170.469 292.052C166.654 304.994 174.89 309.708 186.648 309.92C186.908 310.036 187.161 310.153 187.421 310.264C185.188 315.815 183.787 321.598 183.254 327.466C182.952 330.928 182.97 334.406 183.307 337.865L183.287 337.743C182.435 333.896 180.096 330.425 176.665 327.916C171.569 324.243 164.369 322.89 158.871 319.938C158.287 319.609 157.607 319.433 156.913 319.432C156.219 319.43 155.538 319.603 154.952 319.93C154.366 320.256 153.899 320.723 153.605 321.275C153.312 321.827 153.204 322.442 153.295 323.045C153.303 323.088 153.31 323.131 153.318 323.174C154.137 323.467 154.935 323.805 155.707 324.184C156.149 324.403 156.581 324.635 157.004 324.881C157.535 325.192 157.947 325.637 158.185 326.157C158.423 326.678 158.477 327.249 158.339 327.796C158.2 328.344 157.877 328.842 157.411 329.225C156.944 329.608 156.357 329.859 155.725 329.945L155.66 329.953C155.614 329.959 155.574 329.965 155.527 329.971C156.928 332.904 158.893 335.605 161.338 337.953C163.723 349.251 173.967 350.323 184.925 347.033H184.931C186.134 351.616 187.876 356.078 190.129 360.346H208.698C208.765 360.165 208.825 359.978 208.885 359.797C207.166 359.892 205.44 359.802 203.746 359.528C205.124 358.045 206.502 356.55 207.88 355.067C207.91 355.04 207.939 355.01 207.966 354.98C208.665 354.221 209.37 353.467 210.069 352.708L210.07 352.707C210.107 350.381 209.802 348.059 209.163 345.8Z" fill="#F2F2F2"/>
<path d="M66.3379 321.161L71.4614 325.911L95.2513 310.448L87.6898 303.437L66.3379 321.161Z" fill="#A0616A"/>
<path d="M74.7334 323.788L68.9331 319.008L67.5088 317.837L52.7422 328.194L56.5834 331.756L61.1048 329.212L59.0277 334.023L69.212 343.467C69.7 343.92 70.3402 344.224 71.0392 344.335C71.7382 344.446 72.4594 344.359 73.0975 344.085C73.7357 343.811 74.2573 343.365 74.5864 342.813C74.9154 342.26 75.0346 341.63 74.9266 341.014L72.7286 328.539L76.6018 325.325L74.7334 323.788Z" fill="#2F2E41"/>
<path d="M178.939 148.186L177.314 163.744C177.314 163.744 174.479 175.465 176.442 174.515C178.405 173.565 174.885 177.841 175.812 181.549C176.739 185.258 167.893 212.91 171.9 210.045C175.906 207.181 169.584 226.97 165.586 236.733C164.362 239.751 163.104 242.806 161.838 245.839C161.588 246.453 161.338 247.059 161.08 247.673C159.439 251.619 157.798 255.507 156.224 259.175C155.999 259.687 155.782 260.198 155.566 260.703C155.557 260.717 155.557 260.732 155.549 260.732C150.368 272.694 145.928 282.107 144.154 283.663C143.23 284.475 128.562 293.77 113.777 303.08C98.2589 312.851 82.6158 322.643 82.6158 322.643L68.0059 309.197C68.0059 309.197 68.3556 309.109 69.0137 308.934C70.2298 308.626 72.4789 308.049 75.4276 307.282C87.7218 304.103 72.1039 299.156 83.2658 295.619C86.4142 294.625 88.5133 293.85 88.9879 293.441C91.7617 291.066 95.4852 285.403 97.2426 287.778C99 290.153 106.972 272.505 109.27 270.758C110.503 269.815 114.526 265.409 117.975 261.536C120.94 258.203 123.489 255.258 123.489 255.258C123.489 255.258 123.539 253.68 123.614 251.166C123.722 247.446 123.88 241.666 124.047 235.878C124.039 235.871 124.039 235.871 124.047 235.871C124.105 233.693 124.163 231.515 124.222 229.447C124.264 227.847 124.305 226.305 124.347 224.88C124.455 220.612 124.53 217.382 124.53 216.578C124.53 213.94 124.53 215.994 126.904 214.401C127.258 214.156 127.595 213.893 127.912 213.611C128.419 213.211 128.888 212.773 129.311 212.303C129.486 211.975 128.395 212.42 126.979 212.172C126.212 212.037 125.503 211.718 124.93 211.251C121.948 208.898 125.163 201.664 125.163 201.664C118.383 189.766 118.875 180.011 122.048 172.491C124.421 167.095 128.187 162.255 133.051 158.351C134.902 156.803 136.919 155.415 139.074 154.207L139.282 153.221L141.573 142.339C142.791 141.752 144.057 141.247 145.362 140.827C149.431 139.546 153.796 139.165 158.073 139.716C162.323 140.256 166.438 141.424 170.243 143.173C173.352 144.543 176.27 146.225 178.939 148.186Z" fill="#2F2E41"/>
<path d="M114.964 345.401L122.386 346.006L128.641 320.616L117.685 319.723L114.964 345.401Z" fill="#A0616A"/>
<path d="M136.341 355.352L125.312 347.248L125.812 342.586L123.247 342.513L115.301 342.286H115.292L113.343 342.228L110.036 358.553L115.609 359.006L117.083 354.475L119.14 359.299L122.089 359.54L133.892 360.504C133.992 360.511 134.1 360.519 134.2 360.519C134.669 360.519 135.133 360.432 135.561 360.264C135.989 360.095 136.371 359.848 136.682 359.54C137.166 359.076 137.461 358.485 137.524 357.859C137.572 357.388 137.49 356.914 137.284 356.478C137.078 356.041 136.754 355.655 136.341 355.352Z" fill="#2F2E41"/>
<path d="M156.224 259.175C153.4 272.658 141.447 304.271 134.217 322.775C130.927 331.229 128.628 336.951 128.628 336.951L124.88 335.914H124.872L118.533 334.16L116.226 333.517H116.217L113.418 332.735C113.418 332.735 113.743 317.637 113.777 303.08C113.802 296.978 113.768 290.964 113.635 286.199C113.485 281.003 113.227 277.284 112.802 276.546C111.044 273.52 113.985 273.199 117.092 272.439C120.207 271.671 117.775 270.517 116.567 268.061C115.751 266.424 117.358 264.24 118.5 262.997C118.814 262.647 119.151 262.313 119.507 261.996C119.507 261.996 118.958 261.828 117.975 261.536C120.94 258.203 123.489 255.258 123.489 255.258C123.489 255.258 123.539 253.68 123.614 251.166C123.722 247.446 123.88 241.666 124.047 235.878C124.039 235.871 124.039 235.871 124.047 235.871C124.105 233.693 124.163 231.515 124.222 229.447C128.986 232.655 133.618 235.798 137.816 238.706C137.821 238.71 137.825 238.714 137.828 238.719C137.831 238.724 137.832 238.73 137.832 238.736C147.919 245.729 155.491 251.341 156.557 253.125C157.04 253.928 156.874 256.077 156.224 259.175Z" fill="#2F2E41"/>
<path d="M404.55 21.1142C405.939 21.0002 407.323 21.3662 408.409 22.1341C409.495 22.902 410.196 24.0113 410.364 25.226C410.393 25.4733 410.4 25.7224 410.382 25.9707L427.559 32.406L426.904 41.2017L404.46 30.1541C403.292 30.0119 402.211 29.5345 401.384 28.7963C400.558 28.0582 400.034 27.1009 399.893 26.0738C399.82 25.4887 399.878 24.8966 400.065 24.3313C400.252 23.766 400.564 23.2386 400.984 22.7791C401.403 22.3197 401.922 21.9372 402.51 21.6536C403.098 21.3699 403.743 21.1907 404.41 21.126C404.457 21.1215 404.503 21.1176 404.55 21.1142Z" fill="#FFB6B6"/>
<path d="M521.414 75.4081C520.99 73.7029 520.202 72.0836 519.09 70.636C518.782 70.2241 518.445 69.8287 518.083 69.4521C516.734 68.0419 515.476 66.7484 514.31 65.5938C513.601 64.8701 512.91 64.1979 512.26 63.577C508.487 59.9449 506.013 58.0231 504.881 57.8621C504.331 57.7818 503.789 57.7233 503.264 57.6648C500.574 57.3726 498.625 57.1606 498.567 54.6686C498.561 54.3115 498.589 53.9547 498.65 53.6016C498.751 53.0088 498.898 52.4229 499.091 51.8479C499.202 51.5219 499.289 51.19 499.35 50.8541C499.433 50.4231 499.4 50.1012 499.133 49.9039C498.8 49.663 498.242 49.6994 497.192 50.0648C497.026 50.1233 496.834 50.189 496.634 50.2693C496.567 50.2914 496.501 50.3207 496.426 50.3499C496.293 50.4009 496.143 50.4595 495.993 50.5251C494.735 51.0514 492.794 51.1171 490.579 50.9197C484.04 50.3353 475.194 47.4414 475.086 47.4047L419.378 28.4121L418.862 29.1429L417.637 30.882L417.212 31.4811L416.729 32.168L414.622 35.1496L413.556 36.6551L431.548 48.5593L433.505 49.8528L435.188 50.9711L469.538 73.7053L482.349 81.1226L485.206 82.7739L497.384 89.8187C499.134 90.8333 501.099 91.53 503.161 91.8678C505.223 92.2055 507.342 92.1774 509.391 91.785C511.441 91.3927 513.38 90.6441 515.095 89.5835C516.809 88.5229 518.264 87.1717 519.374 85.6096C521.536 82.5699 522.268 78.9121 521.414 75.4081Z" fill="#E6E6E6"/>
<path d="M601.167 361H0.832952C0.61204 361 0.400174 360.923 0.243965 360.786C0.0877566 360.649 0 360.463 0 360.269C0 360.075 0.0877566 359.889 0.243965 359.752C0.400174 359.615 0.61204 359.538 0.832952 359.538H601.167C601.388 359.538 601.6 359.615 601.756 359.752C601.912 359.889 602 360.075 602 360.269C602 360.463 601.912 360.649 601.756 360.786C601.6 360.923 601.388 361 601.167 361Z" fill="#E6E6E6"/>
<path d="M137.366 121.887L138.927 134.589L138.009 151.245L180.061 146.862L184.012 121.887L178.977 121.931L137.366 121.887Z" fill="#FFB6B6"/>
<path d="M173.136 80.859L157.31 69.8974L149.002 69.4736L136.675 76.4019L133.656 89.912L126.518 105.125L136.988 146.181C136.988 146.181 137.97 149.128 135.397 149.481C132.823 149.835 133.132 154.178 133.132 154.178C133.132 154.178 133.656 157.942 131.157 158.273C128.658 158.605 121.995 158.605 127.826 165.182C133.656 171.758 179.773 146.883 179.773 146.883L186.472 116.049C186.472 116.049 199.462 100.742 185.472 91.9756L173.136 80.859Z" fill="#E6E6E6"/>
<path d="M104.048 174.075C103.35 173.312 102.852 172.424 102.588 171.473C102.325 170.523 102.302 169.533 102.521 168.574C102.741 167.614 103.197 166.709 103.859 165.921C104.52 165.134 105.37 164.483 106.349 164.015L126.256 105.403L138.704 110.901L117.025 167.08C117.812 168.575 117.947 170.272 117.404 171.848C116.861 173.425 115.677 174.772 114.078 175.635C112.478 176.497 110.574 176.814 108.725 176.527C106.876 176.24 105.212 175.367 104.048 174.075Z" fill="#A0616A"/>
<path d="M139.533 75.8601C139.533 75.8601 135.975 74.201 133.541 81.3804C131.593 87.128 115.782 121.363 115.581 129.687C114.279 129.928 113.107 130.543 112.248 131.434C111.389 132.325 110.892 133.441 110.836 134.607L130.384 136.905C133.8 134.378 134.696 130.964 133.375 129.951L137.619 119.78L155.326 87.4222L142.13 77.0193L139.533 75.8601Z" fill="#E6E6E6"/>
<path d="M243.987 154.81C244.239 153.857 244.25 152.867 244.02 151.91C243.789 150.952 243.322 150.051 242.651 149.27C241.98 148.488 241.122 147.845 240.138 147.386C239.153 146.926 238.066 146.662 236.952 146.612L191.287 100.855L181.6 110.996L228.837 153.425C228.864 155.072 229.579 156.653 230.846 157.869C232.113 159.085 233.844 159.85 235.711 160.021C237.579 160.191 239.452 159.755 240.978 158.795C242.503 157.834 243.573 156.416 243.987 154.81Z" fill="#A0616A"/>
<path d="M163.579 79.7159C163.579 79.7159 165.97 76.87 171.703 82.4199C176.293 86.863 207.423 111.733 211.708 119.162C213 118.886 214.36 118.996 215.574 119.473C216.788 119.95 217.786 120.768 218.411 121.798L201.918 131.287C197.592 130.304 195.101 127.566 195.794 126.151L186.954 118.591L155.038 96.1327L161.809 81.7461L163.579 79.7159Z" fill="#E6E6E6"/>
<path d="M333.87 205.346C398.274 205.346 450.483 159.541 450.483 103.038C450.483 46.5344 398.274 0.729492 333.87 0.729492C269.466 0.729492 217.257 46.5344 217.257 103.038C217.257 159.541 269.466 205.346 333.87 205.346Z" fill="#FAA21E"/>
<path opacity="0.2" d="M328.354 139.247C323.011 143.933 315.766 146.567 308.211 146.567C300.656 146.567 293.41 143.933 288.068 139.247C283.478 135.218 280.593 129.933 279.893 124.27C279.193 118.606 280.719 112.902 284.219 108.104L277.952 113.713C272.61 118.4 269.608 124.757 269.608 131.385C269.608 138.013 272.61 144.37 277.952 149.056C283.294 153.743 290.539 156.376 298.094 156.376C305.649 156.376 312.895 153.743 318.237 149.056L332.125 136.405L332.336 135.618L328.354 139.247Z" fill="black"/>
<path opacity="0.2" d="M341.583 61.0861C347.828 57.355 355.505 55.9529 362.928 57.1883C370.351 58.4237 376.91 62.1954 381.163 67.6736C384.817 72.3828 386.528 78.0459 386.013 83.7249C385.497 89.4039 382.786 94.758 378.329 98.9005L385.677 94.4141C391.922 90.6829 396.221 84.9284 397.629 78.4163C399.037 71.9043 397.439 65.1682 393.186 59.69C388.933 54.2117 382.374 50.44 374.951 49.2046C367.529 47.9692 359.851 49.3713 353.607 53.1025L337.274 63.2614L336.899 63.9995L341.583 61.0861Z" fill="black"/>
<path d="M298.095 159.503C291.966 159.503 285.976 157.908 280.88 154.921C275.785 151.934 271.813 147.689 269.468 142.722C267.123 137.754 266.509 132.289 267.705 127.015C268.9 121.742 271.851 116.899 276.185 113.097L302.48 89.5605C305.356 87.0329 308.772 85.0274 312.532 83.6585C316.292 82.2897 320.323 81.5844 324.394 81.583C328.465 81.5816 332.497 82.284 336.258 83.6502C340.02 85.0164 343.438 87.0195 346.316 89.5451C346.785 89.9562 347.048 90.5138 347.048 91.0952C347.048 91.6765 346.785 92.2341 346.316 92.6452C345.848 93.0563 345.212 93.2873 344.55 93.2873C343.887 93.2873 343.251 93.0563 342.783 92.6452C337.909 88.3696 331.299 85.9676 324.407 85.9676C317.515 85.9677 310.905 88.3697 306.031 92.6453C302.169 104.591 293.824 112.787 279.736 116.182C277.319 118.297 275.401 120.81 274.091 123.576C272.781 126.342 272.106 129.308 272.103 132.304C272.1 135.299 272.77 138.266 274.074 141.034C275.379 143.802 277.292 146.318 279.705 148.437C282.118 150.556 284.984 152.237 288.138 153.384C291.292 154.531 294.673 155.122 298.087 155.122C301.501 155.123 304.882 154.533 308.037 153.386C311.191 152.24 314.057 150.559 316.471 148.441C315.901 143.54 317.533 138.933 330.326 135.818C330.553 135.61 330.825 135.443 331.126 135.327C331.427 135.211 331.751 135.149 332.08 135.143C332.408 135.137 332.735 135.188 333.041 135.293C333.347 135.399 333.627 135.556 333.864 135.756C334.1 135.956 334.29 136.195 334.421 136.459C334.552 136.724 334.623 137.008 334.628 137.297C334.634 137.585 334.575 137.871 334.454 138.14C334.334 138.408 334.154 138.653 333.925 138.86L320.037 151.511C317.164 154.051 313.746 156.066 309.979 157.437C306.212 158.809 302.173 159.511 298.095 159.503Z" fill="white"/>
<path d="M340.785 126.207C336.714 126.217 332.682 125.518 328.921 124.151C325.16 122.784 321.746 120.777 318.875 118.244C318.407 117.833 318.143 117.276 318.144 116.694C318.144 116.113 318.407 115.555 318.876 115.144C319.344 114.733 319.98 114.502 320.643 114.502C321.306 114.502 321.941 114.733 322.41 115.144C324.823 117.261 327.687 118.941 330.84 120.087C333.993 121.232 337.372 121.822 340.785 121.822C344.198 121.822 347.577 121.232 350.73 120.087C353.883 118.941 356.748 117.261 359.161 115.144C362.491 97.5441 376.068 95.0602 387.87 89.9577C390.283 87.8405 392.197 85.3271 393.503 82.561C394.809 79.7948 395.481 76.83 395.481 73.8359C395.481 70.8419 394.809 67.8771 393.503 65.111C392.197 62.3448 390.283 59.8314 387.87 57.7143C385.456 55.5972 382.592 53.9178 379.439 52.772C376.286 51.6263 372.906 51.0366 369.494 51.0366C366.081 51.0366 362.702 51.6263 359.549 52.7721C356.396 53.9179 353.531 55.5973 351.118 57.7145C347.835 66.0242 344.612 74.432 334.834 72.0009C334.602 72.2045 334.326 72.366 334.023 72.4761C333.72 72.5863 333.395 72.643 333.067 72.643C332.404 72.643 331.769 72.4121 331.3 72.001C330.831 71.5899 330.568 71.0323 330.568 70.4509C330.568 69.8695 330.831 69.3119 331.3 68.9008L347.584 54.6143C350.461 52.0901 353.877 50.0877 357.636 48.7216C361.395 47.3555 365.424 46.6524 369.493 46.6523C373.562 46.6523 377.592 47.3554 381.351 48.7215C385.11 50.0876 388.526 52.09 391.403 54.6142C394.28 57.1384 396.562 60.1351 398.12 63.4332C399.677 66.7313 400.478 70.2661 400.478 73.8359C400.478 77.4057 399.677 80.9406 398.12 84.2387C396.563 87.5368 394.28 90.5335 391.403 93.0577L362.694 118.245C359.824 120.777 356.409 122.784 352.649 124.151C348.888 125.518 344.856 126.217 340.785 126.207Z" fill="white"/>
<path d="M435.188 50.9714C430.29 43.6741 424.396 36.9279 417.637 30.8823C416.129 29.5378 414.572 28.2222 412.981 26.9434C412.098 26.2347 411.207 25.5403 410.299 24.8606C408.575 23.56 406.801 22.3029 404.993 21.0901C384.574 7.38735 359.575 -0.0254281 333.867 6.55378e-05C269.113 6.55378e-05 216.421 46.2214 216.421 103.039C216.418 109.304 217.067 115.556 218.361 121.717C218.363 121.752 218.369 121.786 218.378 121.82C218.97 124.648 219.703 127.439 220.552 130.18C226.571 149.522 238.892 166.904 256.004 180.194C273.117 193.484 294.277 202.104 316.892 204.999C339.506 207.893 362.592 204.936 383.319 196.489C404.046 188.042 421.513 174.473 433.58 157.445C435.204 155.15 436.731 152.797 438.161 150.385C447.282 134.945 451.793 117.727 451.273 100.342C450.753 82.9572 445.219 65.9713 435.188 50.9714ZM333.867 204.616C318.661 204.621 303.603 201.997 289.554 196.894C275.504 191.79 262.739 184.308 251.986 174.875C241.234 165.442 232.706 154.242 226.889 141.916C221.073 129.59 218.082 116.38 218.087 103.039C218.087 47.025 270.03 1.46161 333.867 1.46161C349.316 1.46929 364.606 4.19018 378.837 9.4639C393.069 14.7376 405.952 22.4574 416.729 32.1683C419.54 34.6855 422.193 37.3349 424.676 40.1048C427.134 42.8151 429.428 45.6374 431.547 48.5597C440.384 60.7381 446.158 74.4297 448.485 88.7211C450.812 103.012 449.638 117.575 445.041 131.437C444.017 134.535 442.817 137.568 441.468 140.542C440.11 143.524 438.602 146.447 436.937 149.282C427.195 165.913 412.426 179.871 394.247 189.631C376.068 199.391 355.18 204.575 333.867 204.616Z" fill="#3F3D56"/>
<path d="M493.638 345.632L485.982 345.575L482.593 319.063L493.893 319.148L493.638 345.632Z" fill="#FFB6B6"/>
<path d="M495.668 342.534L493.669 342.417L485.515 341.928L482.891 341.774L482.841 346.575L470.613 353.854C470.009 354.214 469.552 354.734 469.309 355.338C469.066 355.942 469.049 356.598 469.261 357.211C469.473 357.824 469.903 358.361 470.488 358.745C471.073 359.128 471.782 359.337 472.512 359.342L487.73 359.452L490.396 354.716L491.37 359.481L497.117 359.525L495.668 342.534Z" fill="#2F2E41"/>
<path d="M574.243 340.724L566.926 342.698L554.573 318.321L565.374 315.408L574.243 340.724Z" fill="#FFB6B6"/>
<path d="M575.114 337.236L573.165 337.653L565.228 339.341L562.671 339.889L564.278 344.486L555.124 354.658C554.726 355.102 554.479 355.634 554.41 356.195C554.342 356.756 554.454 357.322 554.734 357.83C555.015 358.337 555.453 358.765 555.997 359.065C556.542 359.365 557.172 359.524 557.814 359.525C558.153 359.524 558.49 359.48 558.814 359.394L573.366 355.469L574.273 350.244L576.847 354.526L582.337 353.043L575.114 337.236Z" fill="#2F2E41"/>
<path d="M478.239 122.708L463.629 159.958L463.146 162.939C459.465 166.006 464.089 167.016 462.355 167.825C460.621 168.633 459.455 170.9 461.792 171.305C464.129 171.71 471.663 317.002 481.6 322.643C491.538 328.284 497.586 332.365 495.76 324.104C495.025 320.776 496.065 302.933 497.569 282.81C497.74 280.53 500.433 278.116 498.097 275.898C495.76 273.681 498.385 272.222 498.532 270.382C500.628 244.106 503.048 218.164 503.048 218.164C503.048 218.164 518.536 264.829 522.558 261.217C526.58 257.604 524.988 266.498 526.217 269.156C527.244 271.377 522.862 275.74 529.302 275.807C535.742 275.874 550.867 321.233 552.401 321.181C555.441 321.08 563.986 321.367 569.06 320.451C571.566 319.998 560.443 285.656 551.155 256.002C550.414 253.637 546.383 253.582 548.976 249.016C551.568 244.45 538.668 214.908 539.775 213.542C542.713 209.915 543.832 208.339 540.935 208.101C538.037 207.864 537.181 209.258 537.024 205.74C536.868 202.222 536.368 193.547 536.368 193.547C536.368 193.547 534.269 159.238 519.57 140.283L518.317 129.021L478.239 122.708Z" fill="#2F2E41"/>
<path d="M514.738 51.5879L495.363 54.0082L494.194 66.3166L484.633 79.4378C484.633 79.4378 463.381 92.5588 478.203 113.286C472.562 131.141 466.955 148.265 461.608 159.681C457.444 182.335 494.754 184.506 537.407 176.488C537.407 176.488 536.819 166.802 532.948 162.145C529.078 157.488 531.185 156.472 531.185 156.472L528.48 147.772C530.011 135.196 524.843 134.068 522.414 128.258L529.788 67.9728L514.738 51.5879Z" fill="#E6E6E6"/>
<path d="M421.728 156.96C421.933 155.75 422.669 154.657 423.778 153.916C424.887 153.174 426.282 152.841 427.667 152.988C427.948 153.022 428.225 153.076 428.496 153.15L439.719 140.052L449.298 142.71L431.713 159.194C431.276 160.155 430.49 160.963 429.476 161.49C428.461 162.018 427.277 162.236 426.106 162.111C425.441 162.034 424.8 161.843 424.219 161.549C423.637 161.254 423.128 160.863 422.72 160.396C422.311 159.928 422.012 159.395 421.838 158.827C421.664 158.258 421.62 157.665 421.708 157.082C421.714 157.041 421.721 157 421.728 156.96Z" fill="#FFB6B6"/>
<path d="M521.415 75.4083C521.14 75.1086 520.84 74.8164 520.524 74.5313C518.324 72.542 515.49 71.1819 512.394 70.6291C509.298 70.0762 506.084 70.3564 503.173 71.4329C502.89 71.535 502.607 71.652 502.332 71.7691C492.378 76.0585 487.006 78.9159 486.356 80.2533C486.131 80.7064 485.939 81.1521 485.748 81.5831C485.564 82.007 485.39 82.4088 485.207 82.7742C484.44 84.3382 483.557 85.3101 481.308 84.8716C480.562 84.7116 479.843 84.4685 479.168 84.1483C478.859 84.0167 478.576 83.8779 478.309 83.7462C477.343 83.2787 476.644 82.9426 476.169 83.2495C475.711 83.5489 475.694 84.3089 476.111 86.0702C476.248 86.8052 476.226 87.5566 476.044 88.2843C475.493 90.407 474.631 92.4582 473.478 94.3863C471.752 97.4086 469.81 100.333 467.664 103.141L447.849 127.929L446.508 129.602L445.041 131.437L433.347 146.067L434.038 146.687L436.937 149.282L437.578 149.859L438.161 150.385L439.669 151.737L441.085 153.001L472.679 130.421L476.202 127.899L482.516 123.383L495.452 114.139L519.932 94.2621C521.478 93.0174 522.72 91.5116 523.586 89.8352C524.452 88.1588 524.923 86.3463 524.971 84.5062C524.971 84.3821 524.98 84.265 524.98 84.1409C524.989 80.9543 523.728 77.8652 521.415 75.4083Z" fill="#E6E6E6"/>
<path d="M503.107 51.1396C515.064 51.1396 524.757 42.6356 524.757 32.1455C524.757 21.6553 515.064 13.1514 503.107 13.1514C491.15 13.1514 481.457 21.6553 481.457 32.1455C481.457 42.6356 491.15 51.1396 503.107 51.1396Z" fill="#FFB6B6"/>
<path d="M531.798 58.4839C534.703 62.1323 536.647 66.3022 537.488 70.6914C535.146 72.0057 532.42 72.696 529.641 72.6787C529.546 72.3594 529.452 72.04 529.344 71.7206C528.538 69.2474 527.34 66.8861 525.784 64.706C525.998 67.0568 525.634 69.4204 524.719 71.6378C523.25 71.0521 521.676 70.6958 520.068 70.585C518.757 70.5849 517.465 70.8522 516.292 71.3657C514.931 67.403 513.677 63.7596 512.787 61.1454C512.76 67.6987 501.812 73.4122 489.866 72.5841C489.434 72.3475 493.762 61.5713 493.344 61.3229C492.387 60.7669 491.457 60.1637 490.526 59.5722C494.436 54.2728 498.683 48.5948 497.955 47.7432C498.009 48.796 493.722 53.8588 489.057 58.6377C486.468 56.9698 501.178 29.834 493.911 27.6338C493.789 28.592 492.185 28.592 490.23 28.3909C489.714 26.81 488.947 25.3007 487.951 23.9076C488.081 25.3109 487.888 26.7228 487.385 28.0596C485.454 28.0601 483.529 28.2385 481.641 28.592C481.204 27.9889 480.722 27.4119 480.198 26.8649C480.25 27.5316 480.227 28.2011 480.131 28.864C478.203 29.2307 476.612 29.6565 476.383 29.9996C474.873 29.5146 477.448 27.3262 476.504 26.1906C474.104 23.3517 477.664 19.2116 479.915 16.2779C484.54 10.2688 494.693 8.18688 501.879 11.7947C502.203 10.8129 503.861 10.1623 505.991 9.72465C506.894 9.55005 507.818 9.47456 508.742 9.4999C517.91 9.64183 530.638 16.2779 531.137 24.3099C531.178 25.1142 531.245 25.9896 531.312 26.924C531.96 35.9141 531.164 44.2063 538.162 50.7832C540.697 53.1608 540.724 64.4221 539.753 70.2183C537.231 67.888 535.438 58.827 531.798 58.4839Z" fill="#2F2E41"/>
<path d="M293.352 105.603C294.732 105.603 295.851 104.622 295.851 103.411C295.851 102.2 294.732 101.219 293.352 101.219C291.972 101.219 290.854 102.2 290.854 103.411C290.854 104.622 291.972 105.603 293.352 105.603Z" fill="#FAA21E"/>
<path d="M372.483 104.142C373.863 104.142 374.982 103.161 374.982 101.95C374.982 100.739 373.863 99.7578 372.483 99.7578C371.103 99.7578 369.984 100.739 369.984 101.95C369.984 103.161 371.103 104.142 372.483 104.142Z" fill="#FAA21E"/>
<path d="M134.617 40.0434C132.716 44.1986 127.351 52.3701 126.624 56.8278L126.951 56.5456C127.575 57.4807 128.284 58.3701 129.071 59.205C130.482 57.9051 132.186 56.8772 134.075 56.1868C133.043 58.0432 132.446 60.062 132.318 62.1241C134.343 67.6922 143.703 65.2126 149.187 64.6046C154.663 70.1006 161.95 71.5347 171.491 68.375C174.159 68.6161 177.147 68.7623 179.017 67.379C180.887 65.9956 179.773 63.4338 180.779 61.4961C187.945 47.694 181.332 42.7143 175.713 36.456C174.476 35.0787 174.481 33.0235 172.977 31.7094C170.889 29.888 167.689 29.3278 164.739 28.879C165.505 28.9144 166.269 28.7762 166.957 28.4775C167.645 28.1789 168.233 27.7299 168.666 27.1738C169.046 26.6136 169.242 25.9722 169.232 25.3205C169.223 24.6687 169.008 24.0319 168.613 23.4803C167.558 21.9456 165.365 21.0531 163.249 20.8301C161.165 20.706 159.072 20.8638 157.042 21.2982C155.728 21.4499 154.455 21.8069 153.284 22.3522C152.731 22.6109 152.282 23.0113 151.996 23.5001C151.709 23.9889 151.6 24.5426 151.682 25.0873C151.859 25.5904 152.162 26.052 152.57 26.4378C152.978 26.8235 153.48 27.1235 154.039 27.3154C154.89 27.6313 155.786 27.8464 156.702 27.9551C152.494 27.476 148.218 28.1325 144.445 29.8374C139.717 32.0502 136.526 35.8904 134.617 40.0434Z" fill="#2F2E41"/>
<path d="M160.221 63.3394C169.556 63.3394 177.124 56.7001 177.124 48.5101C177.124 40.32 169.556 33.6807 160.221 33.6807C150.886 33.6807 143.318 40.32 143.318 48.5101C143.318 56.7001 150.886 63.3394 160.221 63.3394Z" fill="#A0616A"/>
<path d="M143.957 40.5589C144.937 43.1575 147.738 43.9949 150.326 44.5171C151.142 44.684 151.964 44.8395 152.792 44.9779C153.098 44.6425 153.423 44.3138 153.763 44.0031C155.174 42.7031 156.878 41.6752 158.767 40.9848C157.95 42.4513 157.407 44.0233 157.159 45.6408C158.724 45.84 160.297 46.0028 161.88 46.1292C163.218 46.3792 164.615 46.1684 165.782 45.5404C166.949 44.9124 167.796 43.9152 168.148 42.7549C169.588 44.8215 171.292 46.7676 173.621 47.5886C174.953 48.0084 176.403 48.0429 177.759 47.687C179.115 47.3312 180.305 46.6036 181.155 45.611C182.498 43.9918 183.429 42.1386 183.886 40.1766C184.547 37.8754 184.914 35.2245 183.616 33.7644C182.576 32.5828 180.783 32.5616 179.128 32.6664C175.476 32.9122 171.862 33.487 168.344 34.3817L168.046 34.9692C168.65 31.7825 167.339 28.7164 164.912 27.626C163.276 26.8969 161.306 27.0192 159.393 27.167C156.935 27.2633 154.507 27.6753 152.186 28.3899C149.523 29.2886 147.241 30.8872 145.654 32.967C143.955 35.2293 143.111 38.3147 143.957 40.5589Z" fill="#2F2E41"/>
<path d="M168.053 26.6984C167.886 26.6552 168.319 26.7107 168.169 26.7142C168.243 26.7104 168.317 26.7013 168.39 26.687C168.402 26.6848 168.571 26.6377 168.459 26.6724C168.71 26.6065 168.934 26.4783 169.104 26.3032C169.501 25.8725 169.812 25.3861 170.025 24.8645C170.294 24.1753 170.725 23.5437 171.292 23.0111C171.453 22.8694 171.649 22.763 171.866 22.7005C172.082 22.638 172.312 22.6211 172.538 22.6513C172.763 22.6814 172.977 22.7578 173.162 22.8741C173.348 22.9905 173.499 23.1435 173.604 23.3208C173.818 24.0049 173.745 24.7336 173.398 25.3743C173.156 26.0263 172.795 26.6396 172.33 27.1908C171.551 28.0922 170.49 28.7752 169.276 29.1566C167.871 29.6043 166.339 29.6428 164.907 29.2662C164.718 29.1973 164.556 29.0817 164.44 28.9334C164.324 28.785 164.261 28.6104 164.256 28.4308C164.252 28.2511 164.307 28.0742 164.415 27.9216C164.523 27.769 164.679 27.6473 164.865 27.5713L167.253 26.7137C167.379 26.6652 167.514 26.6388 167.651 26.6362C167.789 26.6336 167.925 26.6547 168.053 26.6984C168.181 26.7421 168.298 26.8074 168.397 26.8907C168.497 26.974 168.576 27.0737 168.631 27.184C168.687 27.2942 168.717 27.413 168.72 27.5335C168.723 27.6539 168.699 27.7737 168.649 27.886C168.599 27.9983 168.525 28.1009 168.43 28.188C168.335 28.275 168.221 28.3448 168.095 28.3933L165.707 29.2509L165.665 27.556C165.963 27.6314 166.27 27.6774 166.579 27.6931C166.91 27.7221 167.243 27.7098 167.569 27.6564C167.882 27.6205 168.189 27.5548 168.486 27.4604C168.675 27.3996 168.862 27.3304 169.043 27.253C169.109 27.2249 169.175 27.1957 169.24 27.1654C169.235 27.1676 169.513 27.0256 169.391 27.0923C169.7 26.9191 169.99 26.7211 170.257 26.5007C170.351 26.4226 170.438 26.3378 170.516 26.2473C170.652 26.1007 170.778 25.9472 170.894 25.7876C171.129 25.4498 171.316 25.0875 171.449 24.7092C171.509 24.5503 171.561 24.3886 171.602 24.2249C171.614 24.1351 171.632 24.0461 171.658 23.9585C171.746 23.7497 171.641 24.0804 171.743 24.1708L172.183 24.4554C172.266 24.477 172.353 24.482 172.438 24.4701C172.523 24.4581 172.604 24.4295 172.675 24.3863C172.727 24.3219 172.716 24.3326 172.641 24.4184C172.554 24.5193 172.474 24.6249 172.402 24.7347C172.244 24.9931 172.101 25.2584 171.974 25.5296C171.712 26.1062 171.379 26.6566 170.983 27.1714C170.595 27.692 170.03 28.0919 169.368 28.3141C168.705 28.5363 167.98 28.5694 167.295 28.4086C167.038 28.3189 166.832 28.144 166.72 27.9218C166.609 27.6996 166.601 27.4479 166.7 27.221C166.805 26.9973 167.004 26.818 167.256 26.7206C167.509 26.6232 167.794 26.6152 168.053 26.6984Z" fill="#2F2E41"/>
</g>
<defs>
<clipPath id="clip0_1805_5267">
<rect width="602" height="361" fill="white"/>
</clipPath>
</defs>
</svg>
