<svg xmlns="http://www.w3.org/2000/svg" fill="none" viewBox="57.08 104.41 490.19 371.41">
<path d="M457.434 153.891C457.434 153.891 406.975 102.018 327.083 104.499C247.192 106.981 179.061 157.219 122.715 196.545C66.3695 235.87 51.2399 296.975 84.0404 344.662C116.841 392.349 168.979 372.275 235.407 403.227C301.836 434.179 314.412 451.76 388.465 444.234C462.517 436.708 518.827 359.727 510.411 277.724C501.996 195.722 457.434 153.891 457.434 153.891Z" fill="#FAA11F"/>
<path opacity="0.7" d="M457.434 153.891C457.434 153.891 406.975 102.018 327.083 104.499C247.192 106.981 179.061 157.219 122.715 196.545C66.3695 235.87 51.2399 296.975 84.0404 344.662C116.841 392.349 168.979 372.275 235.407 403.227C301.836 434.179 314.412 451.76 388.465 444.234C462.517 436.708 518.827 359.727 510.411 277.724C501.996 195.722 457.434 153.891 457.434 153.891Z" fill="white"/>
<path d="M476.772 469.577C476.772 473.034 398.76 475.821 302.628 475.821C206.495 475.821 128.472 473.034 128.472 469.577C128.472 466.119 206.484 463.344 302.628 463.344C398.771 463.344 476.772 466.131 476.772 469.577Z" fill="#FAA11F"/>
<path opacity="0.6" d="M476.772 469.577C476.772 473.034 398.76 475.821 302.628 475.821C206.495 475.821 128.472 473.034 128.472 469.577C128.472 466.119 206.484 463.344 302.628 463.344C398.771 463.344 476.772 466.131 476.772 469.577Z" fill="white"/>
<path d="M137.904 274.925C137.975 274.925 137.088 270.539 136.994 270.221C135.977 267.093 132.159 261.636 128.448 261.636C127.832 261.656 127.227 261.803 126.673 262.07C126.118 262.336 125.626 262.716 125.228 263.184C124.83 263.651 124.536 264.197 124.363 264.786C124.191 265.374 124.145 265.992 124.228 266.599C124.5 269.186 126.84 271.397 128.956 272.667C131.438 274.208 137.904 274.925 137.904 274.925Z" fill="#FAA11F"/>
<path d="M145.079 245.384C141.592 246.631 139.866 253.052 139.972 256.344C139.972 256.627 140.634 261.048 140.705 261.048H140.776C140.492 262.06 140.197 263.142 139.901 264.341C139.381 266.552 138.814 269.045 138.377 271.821C137.87 274.794 137.538 277.794 137.384 280.805C137.201 284.18 137.316 287.564 137.727 290.919C137.731 290.958 137.731 290.997 137.727 291.036C137.277 290.06 135.906 287.367 135.776 287.167C133.956 284.416 128.826 280.111 125.245 281.135C124.658 281.315 124.115 281.615 123.653 282.017C123.19 282.419 122.817 282.913 122.559 283.468C122.3 284.022 122.162 284.624 122.152 285.235C122.142 285.846 122.262 286.452 122.502 287.015C123.448 289.449 126.285 290.954 128.661 291.636C131.344 292.389 137.325 291.495 137.798 291.425C138.31 294.824 139.044 298.187 139.996 301.491C140.552 303.42 141.178 305.348 141.793 307.265C141.379 306.43 140.989 305.689 140.93 305.595C139.11 302.843 133.98 298.539 130.398 299.562C129.811 299.742 129.269 300.043 128.806 300.445C128.343 300.847 127.971 301.341 127.712 301.895C127.454 302.45 127.315 303.052 127.305 303.663C127.296 304.274 127.415 304.88 127.656 305.442C128.602 307.865 131.438 309.382 133.814 310.052C136.19 310.723 141.344 310.052 142.691 309.888C142.939 310.617 143.187 311.358 143.447 312.087C144.629 315.615 145.906 319.143 146.993 322.6C147.384 323.776 147.714 325.046 148.057 326.269C147.691 325.529 147.36 324.905 147.301 324.823C145.492 322.059 140.351 317.767 136.781 318.79C136.193 318.969 135.649 319.269 135.185 319.67C134.721 320.071 134.347 320.565 134.088 321.12C133.828 321.674 133.688 322.277 133.678 322.888C133.667 323.5 133.786 324.107 134.027 324.67C134.973 327.093 137.821 328.61 140.197 329.28C142.573 329.95 147.218 329.362 148.826 329.139C149.145 330.397 149.464 331.667 149.712 332.902C149.854 333.749 150.055 334.548 150.161 335.419L150.516 337.935C150.681 339.546 150.87 341.205 150.989 342.78C151.083 343.886 151.154 344.933 151.225 345.979C150.859 344.803 150.043 342.369 150.043 342.181C148.734 339.593 146.781 337.382 144.369 335.76C144.235 335.465 144.077 335.182 143.897 334.913C143.56 334.4 143.118 333.964 142.601 333.632C142.083 333.3 141.502 333.079 140.893 332.985C140.285 332.891 139.663 332.925 139.069 333.085C138.475 333.245 137.921 333.527 137.443 333.913C134.642 336.324 135.339 342.933 136.627 345.967C136.698 346.144 137.809 348.002 138.424 349.154L136.923 347.296C135.883 346.038 134.819 344.815 133.684 343.498C133.101 342.886 132.522 342.263 131.947 341.628C131.379 340.993 130.706 340.393 130.079 339.758C128.59 338.335 127.018 336.959 125.351 335.619C126.462 334.713 130.327 331.467 131.438 329.256C132.549 327.046 133.341 323.953 132.183 321.612C131.928 321.056 131.559 320.558 131.099 320.153C130.638 319.747 130.098 319.443 129.511 319.259C128.925 319.075 128.306 319.015 127.696 319.084C127.085 319.154 126.495 319.35 125.966 319.66C122.822 321.612 122.502 328.257 123.318 331.42C123.318 331.62 124.216 333.855 124.701 335.066C123.72 334.254 122.751 333.455 121.734 332.714C118.803 330.468 115.824 328.28 112.751 326.081L109.997 324.047C110.387 323.729 115.068 319.966 116.321 317.485C117.432 315.286 118.224 312.181 117.065 309.852C116.812 309.293 116.443 308.793 115.982 308.385C115.522 307.977 114.98 307.671 114.392 307.486C113.804 307.3 113.183 307.24 112.571 307.31C111.958 307.379 111.367 307.576 110.836 307.889C107.704 309.852 107.385 316.485 108.2 319.649C108.259 319.884 109.477 323.082 109.831 323.882C107.81 322.389 105.813 320.883 103.921 319.319C101.335 317.212 98.8869 314.942 96.593 312.522C96.7703 312.381 101.676 308.465 102.952 305.936C104.063 303.737 104.855 300.633 103.697 298.292C103.441 297.738 103.071 297.244 102.611 296.841C102.151 296.437 101.612 296.135 101.027 295.952C100.442 295.769 99.8255 295.71 99.2165 295.779C98.6075 295.848 98.0198 296.043 97.4913 296.352C94.3472 298.316 94.0399 304.96 94.8436 308.112C94.9027 308.324 95.8247 310.77 96.2975 311.91L96.1202 312.028C93.8748 309.53 91.8574 306.838 90.092 303.984C89.1109 302.432 88.2481 300.88 87.4443 299.363C88.4372 298.727 92.917 295.835 94.3236 293.624C95.7301 291.413 96.8057 288.555 95.9074 286.109C95.7151 285.534 95.4047 285.006 94.9959 284.557C94.5871 284.109 94.0889 283.749 93.533 283.503C92.9771 283.256 92.3756 283.127 91.7669 283.124C91.1582 283.122 90.5556 283.245 89.9974 283.487C86.6642 285.086 85.6122 291.719 86.0732 294.917C86.0732 295.094 86.546 296.869 86.9006 298.151C86.546 297.469 86.1677 296.752 85.8486 296.082C84.6666 293.577 83.6619 291.201 82.8345 289.096C82.3735 287.92 81.9717 286.744 81.6525 285.756C82.2908 284.639 84.8321 280.064 85.0685 277.524C85.3049 274.984 84.9267 271.891 83 270.127C82.5603 269.697 82.0346 269.364 81.4572 269.15C80.8798 268.935 80.2634 268.844 79.6482 268.881C79.0329 268.919 78.4325 269.085 77.8859 269.369C77.3393 269.652 76.8587 270.047 76.4753 270.527C74.265 273.479 76.3808 279.794 78.2956 282.475C78.4611 282.71 81.4634 286.003 81.4988 286.003V285.933C81.8298 286.932 82.1844 287.991 82.6099 289.155C83.4019 291.283 84.312 293.682 85.4822 296.211C86.71 298.971 88.0993 301.657 89.6428 304.255C91.364 307.167 93.3418 309.922 95.5528 312.487L95.6356 312.569C94.7136 312.005 92.0896 310.511 91.865 310.417C88.8273 309.112 82.1726 308.382 79.7377 311.158C79.3463 311.631 79.0595 312.181 78.8959 312.771C78.7323 313.362 78.6956 313.98 78.7882 314.586C78.8807 315.192 79.1005 315.771 79.4331 316.287C79.7657 316.803 80.2038 317.243 80.7187 317.579C82.8463 319.084 86.0614 318.755 88.4136 318.049C91.0731 317.214 95.5056 313.181 95.9193 312.863C98.2312 315.419 100.711 317.819 103.342 320.048C104.867 321.354 106.439 322.624 108.07 323.882C107.255 323.424 106.522 323.012 106.415 322.965C103.378 321.66 96.7348 320.93 94.2999 323.706C93.9062 324.177 93.6171 324.726 93.4516 325.317C93.286 325.907 93.2477 326.526 93.3392 327.132C93.4307 327.738 93.65 328.319 93.9826 328.835C94.3152 329.351 94.7536 329.791 95.2691 330.127C97.4086 331.632 100.612 331.303 102.976 330.597C105.34 329.891 109.252 326.481 110.281 325.576L112.124 327.01C115.103 329.28 118.034 331.526 120.93 333.819C121.935 334.631 122.892 335.454 123.862 336.289C123.141 335.877 122.526 335.536 122.42 335.489C119.382 334.196 112.739 333.455 110.304 336.242C109.91 336.713 109.621 337.263 109.456 337.853C109.29 338.443 109.252 339.062 109.344 339.668C109.435 340.275 109.654 340.855 109.987 341.371C110.319 341.887 110.758 342.327 111.273 342.663C113.413 344.168 116.616 343.839 118.98 343.121C121.344 342.404 124.89 339.335 126.072 338.276C127.029 339.147 127.999 340.029 128.897 340.922C129.488 341.546 130.079 342.098 130.67 342.769L132.36 344.686C133.4 345.932 134.464 347.214 135.445 348.461C136.131 349.331 136.769 350.166 137.419 351.001C136.426 350.189 134.452 348.649 134.263 348.519C131.462 346.767 125.008 345.05 122.171 347.426C121.714 347.835 121.347 348.335 121.097 348.895C120.846 349.454 120.717 350.059 120.717 350.671C120.717 351.284 120.846 351.889 121.097 352.448C121.347 353.008 121.714 353.508 122.171 353.917C124.051 355.728 127.266 355.916 129.713 355.54C132.396 355.128 137.266 352.012 137.868 351.577C138.932 352.965 139.949 354.329 140.894 355.622C144.168 360.126 146.722 364.007 148.471 366.736L148.648 367.018L150.918 365.924L150.563 365.383C148.731 362.667 146.072 358.809 142.656 354.329C141.592 352.906 140.41 351.424 139.192 349.895C140.457 348.522 141.641 347.077 142.738 345.568C145.339 346.579 150.764 346.614 151.461 346.614C151.58 348.366 151.674 350.06 151.733 351.659C151.97 357.222 151.946 361.855 151.899 365.089C151.899 365.219 151.899 365.336 151.899 365.465L154.393 364.289C154.393 361.067 154.263 356.716 153.944 351.565C153.825 349.801 153.672 347.908 153.506 345.967C154.192 345.803 159.83 344.356 161.958 342.663C163.896 341.134 165.929 338.641 165.858 336.042C165.863 335.43 165.738 334.823 165.492 334.262C165.245 333.7 164.883 333.197 164.428 332.784C163.973 332.372 163.436 332.059 162.851 331.867C162.267 331.674 161.648 331.606 161.036 331.667C157.348 332.138 154.275 338.029 153.672 341.275C153.672 341.463 153.471 343.627 153.4 344.909C153.329 344.121 153.258 343.357 153.175 342.557C153.01 340.946 152.797 339.347 152.584 337.618C152.442 336.795 152.301 335.948 152.171 335.101C152.041 334.254 151.816 333.384 151.639 332.526C151.19 330.515 150.646 328.504 150.043 326.493C151.461 326.352 156.497 325.764 158.648 324.529C160.799 323.294 163.175 321.154 163.506 318.567C163.603 317.962 163.571 317.344 163.412 316.753C163.254 316.162 162.972 315.611 162.585 315.135C162.198 314.659 161.715 314.27 161.167 313.992C160.619 313.714 160.019 313.554 159.404 313.522C155.693 313.428 151.745 318.79 150.658 321.906C150.587 322.095 150.055 324.411 149.795 325.693C149.417 324.517 149.062 323.282 148.613 322.071C147.431 318.543 146.095 315.097 144.795 311.605L143.613 308.394C144.121 308.394 150.114 307.783 152.525 306.395C154.665 305.219 157.052 303.02 157.383 300.433C157.482 299.828 157.452 299.21 157.294 298.618C157.136 298.026 156.854 297.473 156.467 296.997C156.08 296.521 155.596 296.131 155.047 295.854C154.498 295.577 153.897 295.418 153.282 295.388C149.57 295.294 145.622 300.668 144.535 303.773C144.452 304.008 143.696 307.301 143.542 308.206C142.691 305.854 141.864 303.502 141.178 301.15C140.191 297.971 139.401 294.735 138.814 291.46C139.05 291.46 145.315 290.872 147.785 289.461C149.925 288.226 152.312 286.074 152.643 283.487C152.74 282.881 152.708 282.263 152.549 281.671C152.39 281.078 152.107 280.527 151.719 280.051C151.331 279.575 150.846 279.185 150.297 278.908C149.747 278.631 149.145 278.472 148.53 278.442C144.83 278.347 140.883 283.722 139.795 286.826C139.724 287.026 139.145 289.578 138.897 290.79H138.684C138.196 287.477 138.006 284.128 138.117 280.782C138.117 278.947 138.294 277.183 138.471 275.478C139.653 275.478 145.031 275.478 147.395 274.467C149.759 273.455 152.265 271.597 152.88 269.069C153.044 268.476 153.08 267.856 152.987 267.249C152.893 266.642 152.672 266.061 152.337 265.545C152.002 265.029 151.562 264.589 151.044 264.254C150.527 263.918 149.944 263.696 149.334 263.6C145.658 263.106 141.143 268.01 139.724 270.974C139.641 271.139 139.039 272.867 138.613 274.137C138.696 273.361 138.779 272.573 138.885 271.785C139.263 269.022 139.771 266.517 140.244 264.294C140.528 263.036 140.8 261.942 141.072 260.849C142.254 260.261 146.887 257.85 148.483 255.886C150.078 253.922 151.473 251.111 150.847 248.583C150.717 247.974 150.457 247.4 150.085 246.9C149.714 246.399 149.239 245.983 148.693 245.68C148.146 245.378 147.541 245.194 146.918 245.143C146.295 245.092 145.667 245.174 145.079 245.384Z" fill="#FAA11F"/>
<path d="M78.0827 302.232C80.9786 302.114 86.7704 299.151 86.7823 299.151C86.7941 299.151 83.6618 295.952 83.4372 295.764C80.8486 293.718 74.6313 291.26 71.5463 293.306C71.0435 293.659 70.6209 294.113 70.3061 294.639C69.9912 295.164 69.791 295.75 69.7185 296.358C69.6461 296.966 69.7029 297.582 69.8855 298.166C70.068 298.751 70.3721 299.291 70.778 299.751C72.4446 301.762 75.6478 302.326 78.0827 302.232Z" fill="#FAA11F"/>
<g opacity="0.5">
<path d="M137.904 274.925C137.975 274.925 137.088 270.539 136.994 270.221C135.977 267.093 132.159 261.636 128.448 261.636C127.832 261.656 127.227 261.803 126.673 262.07C126.118 262.336 125.626 262.716 125.228 263.184C124.83 263.651 124.536 264.197 124.363 264.786C124.191 265.374 124.145 265.992 124.228 266.599C124.5 269.186 126.84 271.397 128.956 272.667C131.438 274.208 137.904 274.925 137.904 274.925Z" fill="white"/>
<path d="M145.079 245.384C141.592 246.631 139.866 253.052 139.972 256.344C139.972 256.627 140.634 261.048 140.705 261.048H140.776C140.492 262.06 140.197 263.142 139.901 264.341C139.381 266.552 138.814 269.045 138.377 271.821C137.87 274.794 137.538 277.794 137.384 280.805C137.201 284.18 137.316 287.564 137.727 290.919C137.731 290.958 137.731 290.997 137.727 291.036C137.277 290.06 135.906 287.367 135.776 287.167C133.956 284.416 128.826 280.111 125.245 281.135C124.658 281.315 124.115 281.615 123.653 282.017C123.19 282.419 122.817 282.913 122.559 283.468C122.3 284.022 122.162 284.624 122.152 285.235C122.142 285.846 122.262 286.452 122.502 287.015C123.448 289.449 126.285 290.954 128.661 291.636C131.344 292.389 137.325 291.495 137.798 291.425C138.31 294.824 139.044 298.187 139.996 301.491C140.552 303.42 141.178 305.348 141.793 307.265C141.379 306.43 140.989 305.689 140.93 305.595C139.11 302.843 133.98 298.539 130.398 299.562C129.811 299.742 129.269 300.043 128.806 300.445C128.343 300.847 127.971 301.341 127.712 301.895C127.454 302.45 127.315 303.052 127.305 303.663C127.296 304.274 127.415 304.88 127.656 305.442C128.602 307.865 131.438 309.382 133.814 310.052C136.19 310.723 141.344 310.052 142.691 309.888C142.939 310.617 143.187 311.358 143.447 312.087C144.629 315.615 145.906 319.143 146.993 322.6C147.384 323.776 147.714 325.046 148.057 326.269C147.691 325.529 147.36 324.905 147.301 324.823C145.492 322.059 140.351 317.767 136.781 318.79C136.193 318.969 135.649 319.269 135.185 319.67C134.721 320.071 134.347 320.565 134.088 321.12C133.828 321.674 133.688 322.277 133.678 322.888C133.667 323.5 133.786 324.107 134.027 324.67C134.973 327.093 137.821 328.61 140.197 329.28C142.573 329.95 147.218 329.362 148.826 329.139C149.145 330.397 149.464 331.667 149.712 332.902C149.854 333.749 150.055 334.548 150.161 335.419L150.516 337.935C150.681 339.546 150.87 341.205 150.989 342.78C151.083 343.886 151.154 344.933 151.225 345.979C150.859 344.803 150.043 342.369 150.043 342.181C148.734 339.593 146.781 337.382 144.369 335.76C144.235 335.465 144.077 335.182 143.897 334.913C143.56 334.4 143.118 333.964 142.601 333.632C142.083 333.3 141.502 333.079 140.893 332.985C140.285 332.891 139.663 332.925 139.069 333.085C138.475 333.245 137.921 333.527 137.443 333.913C134.642 336.324 135.339 342.933 136.627 345.967C136.698 346.144 137.809 348.002 138.424 349.154L136.923 347.296C135.883 346.038 134.819 344.815 133.684 343.498C133.101 342.886 132.522 342.263 131.947 341.628C131.379 340.993 130.706 340.393 130.079 339.758C128.59 338.335 127.018 336.959 125.351 335.619C126.462 334.713 130.327 331.467 131.438 329.256C132.549 327.046 133.341 323.953 132.183 321.612C131.928 321.056 131.559 320.558 131.099 320.153C130.638 319.747 130.098 319.443 129.511 319.259C128.925 319.075 128.306 319.015 127.696 319.084C127.085 319.154 126.495 319.35 125.966 319.66C122.822 321.612 122.502 328.257 123.318 331.42C123.318 331.62 124.216 333.855 124.701 335.066C123.72 334.254 122.751 333.455 121.734 332.714C118.803 330.468 115.824 328.28 112.751 326.081L109.997 324.047C110.387 323.729 115.068 319.966 116.321 317.485C117.432 315.286 118.224 312.181 117.065 309.852C116.812 309.293 116.443 308.793 115.982 308.385C115.522 307.977 114.98 307.671 114.392 307.486C113.804 307.3 113.183 307.24 112.571 307.31C111.958 307.379 111.367 307.576 110.836 307.889C107.704 309.852 107.385 316.485 108.2 319.649C108.259 319.884 109.477 323.082 109.831 323.882C107.81 322.389 105.813 320.883 103.921 319.319C101.335 317.212 98.8869 314.942 96.593 312.522C96.7703 312.381 101.676 308.465 102.952 305.936C104.063 303.737 104.855 300.633 103.697 298.292C103.441 297.738 103.071 297.244 102.611 296.841C102.151 296.437 101.612 296.135 101.027 295.952C100.442 295.769 99.8255 295.71 99.2165 295.779C98.6075 295.848 98.0198 296.043 97.4913 296.352C94.3472 298.316 94.0399 304.96 94.8436 308.112C94.9027 308.324 95.8247 310.77 96.2975 311.91L96.1202 312.028C93.8748 309.53 91.8574 306.838 90.092 303.984C89.1109 302.432 88.2481 300.88 87.4443 299.363C88.4372 298.727 92.917 295.835 94.3236 293.624C95.7301 291.413 96.8057 288.555 95.9074 286.109C95.7151 285.534 95.4047 285.006 94.9959 284.557C94.5871 284.109 94.0889 283.749 93.533 283.503C92.9771 283.256 92.3756 283.127 91.7669 283.124C91.1582 283.122 90.5556 283.245 89.9974 283.487C86.6642 285.086 85.6122 291.719 86.0732 294.917C86.0732 295.094 86.546 296.869 86.9006 298.151C86.546 297.469 86.1677 296.752 85.8486 296.082C84.6666 293.577 83.6619 291.201 82.8345 289.096C82.3735 287.92 81.9717 286.744 81.6525 285.756C82.2908 284.639 84.8321 280.064 85.0685 277.524C85.3049 274.984 84.9267 271.891 83 270.127C82.5603 269.697 82.0346 269.364 81.4572 269.15C80.8798 268.935 80.2634 268.844 79.6482 268.881C79.0329 268.919 78.4325 269.085 77.8859 269.369C77.3393 269.652 76.8587 270.047 76.4753 270.527C74.265 273.479 76.3808 279.794 78.2956 282.475C78.4611 282.71 81.4634 286.003 81.4988 286.003V285.933C81.8298 286.932 82.1844 287.991 82.6099 289.155C83.4019 291.283 84.312 293.682 85.4822 296.211C86.71 298.971 88.0993 301.657 89.6428 304.255C91.364 307.167 93.3418 309.922 95.5528 312.487L95.6356 312.569C94.7136 312.005 92.0896 310.511 91.865 310.417C88.8273 309.112 82.1726 308.382 79.7377 311.158C79.3463 311.631 79.0595 312.181 78.8959 312.771C78.7323 313.362 78.6956 313.98 78.7882 314.586C78.8807 315.192 79.1005 315.771 79.4331 316.287C79.7657 316.803 80.2038 317.243 80.7187 317.579C82.8463 319.084 86.0614 318.755 88.4136 318.049C91.0731 317.214 95.5056 313.181 95.9193 312.863C98.2312 315.419 100.711 317.819 103.342 320.048C104.867 321.354 106.439 322.624 108.07 323.882C107.255 323.424 106.522 323.012 106.415 322.965C103.378 321.66 96.7348 320.93 94.2999 323.706C93.9062 324.177 93.6171 324.726 93.4516 325.317C93.286 325.907 93.2477 326.526 93.3392 327.132C93.4307 327.738 93.65 328.319 93.9826 328.835C94.3152 329.351 94.7536 329.791 95.2691 330.127C97.4086 331.632 100.612 331.303 102.976 330.597C105.34 329.891 109.252 326.481 110.281 325.576L112.124 327.01C115.103 329.28 118.034 331.526 120.93 333.819C121.935 334.631 122.892 335.454 123.862 336.289C123.141 335.877 122.526 335.536 122.42 335.489C119.382 334.196 112.739 333.455 110.304 336.242C109.91 336.713 109.621 337.263 109.456 337.853C109.29 338.443 109.252 339.062 109.344 339.668C109.435 340.275 109.654 340.855 109.987 341.371C110.319 341.887 110.758 342.327 111.273 342.663C113.413 344.168 116.616 343.839 118.98 343.121C121.344 342.404 124.89 339.335 126.072 338.276C127.029 339.147 127.999 340.029 128.897 340.922C129.488 341.546 130.079 342.098 130.67 342.769L132.36 344.686C133.4 345.932 134.464 347.214 135.445 348.461C136.131 349.331 136.769 350.166 137.419 351.001C136.426 350.189 134.452 348.649 134.263 348.519C131.462 346.767 125.008 345.05 122.171 347.426C121.714 347.835 121.347 348.335 121.097 348.895C120.846 349.454 120.717 350.059 120.717 350.671C120.717 351.284 120.846 351.889 121.097 352.448C121.347 353.008 121.714 353.508 122.171 353.917C124.051 355.728 127.266 355.916 129.713 355.54C132.396 355.128 137.266 352.012 137.868 351.577C138.932 352.965 139.949 354.329 140.894 355.622C144.168 360.126 146.722 364.007 148.471 366.736L148.648 367.018L150.918 365.924L150.563 365.383C148.731 362.667 146.072 358.809 142.656 354.329C141.592 352.906 140.41 351.424 139.192 349.895C140.457 348.522 141.641 347.077 142.738 345.568C145.339 346.579 150.764 346.614 151.461 346.614C151.58 348.366 151.674 350.06 151.733 351.659C151.97 357.222 151.946 361.855 151.899 365.089C151.899 365.219 151.899 365.336 151.899 365.465L154.393 364.289C154.393 361.067 154.263 356.716 153.944 351.565C153.825 349.801 153.672 347.908 153.506 345.967C154.192 345.803 159.83 344.356 161.958 342.663C163.896 341.134 165.929 338.641 165.858 336.042C165.863 335.43 165.738 334.823 165.492 334.262C165.245 333.7 164.883 333.197 164.428 332.784C163.973 332.372 163.436 332.059 162.851 331.867C162.267 331.674 161.648 331.606 161.036 331.667C157.348 332.138 154.275 338.029 153.672 341.275C153.672 341.463 153.471 343.627 153.4 344.909C153.329 344.121 153.258 343.357 153.175 342.557C153.01 340.946 152.797 339.347 152.584 337.618C152.442 336.795 152.301 335.948 152.171 335.101C152.041 334.254 151.816 333.384 151.639 332.526C151.19 330.515 150.646 328.504 150.043 326.493C151.461 326.352 156.497 325.764 158.648 324.529C160.799 323.294 163.175 321.154 163.506 318.567C163.603 317.962 163.571 317.344 163.412 316.753C163.254 316.162 162.972 315.611 162.585 315.135C162.198 314.659 161.715 314.27 161.167 313.992C160.619 313.714 160.019 313.554 159.404 313.522C155.693 313.428 151.745 318.79 150.658 321.906C150.587 322.095 150.055 324.411 149.795 325.693C149.417 324.517 149.062 323.282 148.613 322.071C147.431 318.543 146.095 315.097 144.795 311.605L143.613 308.394C144.121 308.394 150.114 307.783 152.525 306.395C154.665 305.219 157.052 303.02 157.383 300.433C157.482 299.828 157.452 299.21 157.294 298.618C157.136 298.026 156.854 297.473 156.467 296.997C156.08 296.521 155.596 296.131 155.047 295.854C154.498 295.577 153.897 295.418 153.282 295.388C149.57 295.294 145.622 300.668 144.535 303.773C144.452 304.008 143.696 307.301 143.542 308.206C142.691 305.854 141.864 303.502 141.178 301.15C140.191 297.971 139.401 294.735 138.814 291.46C139.05 291.46 145.315 290.872 147.785 289.461C149.925 288.226 152.312 286.074 152.643 283.487C152.74 282.881 152.708 282.263 152.549 281.671C152.39 281.078 152.107 280.527 151.719 280.051C151.331 279.575 150.846 279.185 150.297 278.908C149.747 278.631 149.145 278.472 148.53 278.442C144.83 278.347 140.883 283.722 139.795 286.826C139.724 287.026 139.145 289.578 138.897 290.79H138.684C138.196 287.477 138.006 284.128 138.117 280.782C138.117 278.947 138.294 277.183 138.471 275.478C139.653 275.478 145.031 275.478 147.395 274.467C149.759 273.455 152.265 271.597 152.88 269.069C153.044 268.476 153.08 267.856 152.987 267.249C152.893 266.642 152.672 266.061 152.337 265.545C152.002 265.029 151.562 264.589 151.044 264.254C150.527 263.918 149.944 263.696 149.334 263.6C145.658 263.106 141.143 268.01 139.724 270.974C139.641 271.139 139.039 272.867 138.613 274.137C138.696 273.361 138.779 272.573 138.885 271.785C139.263 269.022 139.771 266.517 140.244 264.294C140.528 263.036 140.8 261.942 141.072 260.849C142.254 260.261 146.887 257.85 148.483 255.886C150.078 253.922 151.473 251.111 150.847 248.583C150.717 247.974 150.457 247.4 150.085 246.9C149.714 246.399 149.239 245.983 148.693 245.68C148.146 245.378 147.541 245.194 146.918 245.143C146.295 245.092 145.667 245.174 145.079 245.384Z" fill="white"/>
<path d="M78.0827 302.232C80.9786 302.114 86.7704 299.151 86.7823 299.151C86.7941 299.151 83.6618 295.952 83.4372 295.764C80.8486 293.718 74.6313 291.26 71.5463 293.306C71.0435 293.659 70.6209 294.113 70.3061 294.639C69.9912 295.164 69.791 295.75 69.7185 296.358C69.6461 296.966 69.7029 297.582 69.8855 298.166C70.068 298.751 70.3721 299.291 70.778 299.751C72.4446 301.762 75.6478 302.326 78.0827 302.232Z" fill="white"/>
</g>
<path d="M111.9 374.38C111.9 374.38 129.476 332.232 139.31 334.066C149.145 335.901 122.443 401.263 122.443 401.263C122.443 401.263 153.364 343.227 174.451 343.227C195.538 343.227 166.721 407.366 140.02 428.746C140.02 428.746 182.181 383.541 206.791 393.325C231.4 403.109 157.584 448.914 157.584 448.914C157.584 448.914 200.455 435.473 195.538 445.857C190.621 456.241 177.3 458.075 177.3 458.075L225.762 460.522H57.0786L95.0326 456.852C95.0326 456.852 55.672 437.307 66.1918 429.358C76.7116 421.408 99.9261 438.519 99.9261 438.519C99.9261 438.519 59.8681 394.536 67.5984 378.049C75.3287 361.561 109.772 407.978 109.772 407.978C109.772 407.978 81.6524 348.731 87.3142 338.335C92.976 327.939 111.9 374.38 111.9 374.38Z" fill="#FAA11F"/>
<path opacity="0.4" d="M111.9 374.38C111.9 374.38 129.476 332.232 139.31 334.066C149.145 335.901 122.443 401.263 122.443 401.263C122.443 401.263 153.364 343.227 174.451 343.227C195.538 343.227 166.721 407.366 140.02 428.746C140.02 428.746 182.181 383.541 206.791 393.325C231.4 403.109 157.584 448.914 157.584 448.914C157.584 448.914 200.455 435.473 195.538 445.857C190.621 456.241 177.3 458.075 177.3 458.075L225.762 460.522H57.0786L95.0326 456.852C95.0326 456.852 55.672 437.307 66.1918 429.358C76.7116 421.408 99.9261 438.519 99.9261 438.519C99.9261 438.519 59.8681 394.536 67.5984 378.049C75.3287 361.561 109.772 407.978 109.772 407.978C109.772 407.978 81.6524 348.731 87.3142 338.335C92.976 327.939 111.9 374.38 111.9 374.38Z" fill="white"/>
<path d="M106.285 376.602C121.746 422.055 121.746 454.218 121.746 454.218C121.746 454.218 103.472 454.924 84.4893 440.941" stroke="#015B88" stroke-linecap="round" stroke-linejoin="round"/>
<path d="M114.016 401.075C117.198 387.487 121.426 374.163 126.663 361.22" stroke="#015B88" stroke-linecap="round" stroke-linejoin="round"/>
<path d="M159.7 374.509L120.339 432.545C120.339 432.545 93.6261 410.201 84.4893 397.582" stroke="#015B88" stroke-linecap="round" stroke-linejoin="round"/>
<path d="M121.037 446.527C121.037 446.527 162.501 426.947 179.38 415.763" stroke="#015B88" stroke-linecap="round" stroke-linejoin="round"/>
<path d="M466.441 274.925C466.37 274.925 467.268 270.539 467.351 270.221C468.367 267.093 472.197 261.636 475.897 261.636C476.512 261.656 477.117 261.803 477.672 262.07C478.226 262.336 478.719 262.716 479.116 263.184C479.514 263.651 479.809 264.197 479.981 264.786C480.153 265.374 480.199 265.992 480.116 266.599C479.844 269.186 477.504 271.397 475.388 272.667C472.906 274.208 466.441 274.925 466.441 274.925Z" fill="#FAA11F"/>
<path d="M459.266 245.384C462.753 246.631 464.49 253.052 464.372 256.344C464.372 256.627 463.71 261.048 463.651 261.048H463.58C463.852 262.06 464.147 263.142 464.443 264.341C464.963 266.552 465.53 269.045 465.968 271.821C466.475 274.794 466.806 277.794 466.961 280.805C467.149 284.18 467.034 287.565 466.618 290.919C466.613 290.958 466.613 290.997 466.618 291.036C467.079 290.06 468.45 287.367 468.568 287.167C470.388 284.416 475.518 280.111 479.1 281.135C479.688 281.313 480.231 281.613 480.695 282.014C481.159 282.416 481.532 282.91 481.791 283.465C482.05 284.02 482.188 284.623 482.197 285.234C482.206 285.846 482.085 286.453 481.842 287.015C480.896 289.449 478.06 290.954 475.684 291.636C473.001 292.389 467.02 291.495 466.547 291.425C466.04 294.825 465.306 298.188 464.348 301.491C463.797 303.42 463.198 305.344 462.552 307.265C462.965 306.43 463.356 305.689 463.415 305.595C465.235 302.843 470.377 298.539 473.946 299.562C474.534 299.741 475.078 300.041 475.542 300.442C476.005 300.844 476.379 301.338 476.638 301.893C476.896 302.448 477.035 303.051 477.043 303.662C477.052 304.274 476.931 304.881 476.688 305.442C475.743 307.865 472.906 309.382 470.53 310.052C468.154 310.723 463.001 310.052 461.653 309.888L460.909 312.087C459.727 315.615 458.438 319.143 457.363 322.6C456.973 323.776 456.63 325.046 456.287 326.269C456.665 325.529 456.985 324.905 457.044 324.823C458.864 322.059 463.994 317.767 467.563 318.79C468.151 318.969 468.695 319.269 469.159 319.67C469.623 320.071 469.997 320.565 470.257 321.12C470.517 321.674 470.656 322.277 470.667 322.889C470.677 323.5 470.558 324.107 470.317 324.67C469.372 327.093 466.523 328.61 464.147 329.28C461.772 329.95 457.126 329.362 455.519 329.139C455.2 330.397 454.892 331.667 454.644 332.902C454.491 333.749 454.29 334.548 454.183 335.419L453.829 337.935C453.663 339.546 453.474 341.205 453.356 342.78C453.261 343.886 453.19 344.933 453.119 345.979C453.498 344.803 454.301 342.369 454.36 342.181C455.673 339.596 457.626 337.386 460.034 335.76C460.168 335.463 460.33 335.179 460.519 334.913C460.853 334.399 461.293 333.961 461.81 333.628C462.326 333.295 462.907 333.074 463.515 332.98C464.123 332.886 464.744 332.92 465.338 333.081C465.932 333.242 466.485 333.525 466.961 333.913C469.774 336.324 469.065 342.933 467.776 345.967C467.705 346.144 466.653 348.002 465.98 349.154C466.488 348.531 466.961 347.978 467.493 347.296C468.521 346.038 469.585 344.815 470.719 343.498L472.457 341.628C473.024 340.993 473.71 340.393 474.336 339.758C475.814 338.335 477.386 336.959 479.005 335.619C477.906 334.713 474.029 331.467 472.918 329.256C471.807 327.046 471.015 323.953 472.173 321.612C472.428 321.054 472.798 320.555 473.259 320.149C473.72 319.742 474.262 319.437 474.85 319.253C475.437 319.068 476.058 319.009 476.67 319.08C477.282 319.15 477.872 319.348 478.402 319.66C481.535 321.612 481.854 328.257 481.038 331.42C481.038 331.62 480.14 333.855 479.655 335.066C480.636 334.254 481.606 333.455 482.622 332.714C485.553 330.468 488.591 328.28 491.605 326.081L494.359 324.047C493.969 323.729 489.289 319.966 488.036 317.485C486.936 315.286 486.133 312.181 487.291 309.852C487.544 309.293 487.913 308.793 488.374 308.385C488.835 307.977 489.377 307.671 489.964 307.486C490.552 307.3 491.173 307.24 491.786 307.31C492.398 307.379 492.989 307.576 493.52 307.889C496.664 309.852 496.972 316.485 496.156 319.649C496.097 319.884 494.879 323.082 494.537 323.882C496.546 322.389 498.544 320.883 500.447 319.319C503.033 317.212 505.481 314.942 507.775 312.522C507.598 312.381 502.692 308.465 501.416 305.936C500.305 303.737 499.513 300.633 500.671 298.292C500.925 297.735 501.293 297.236 501.753 296.83C502.213 296.423 502.754 296.117 503.34 295.932C503.926 295.746 504.545 295.686 505.157 295.754C505.768 295.823 506.358 296.018 506.889 296.328C510.033 298.292 510.352 304.937 509.536 308.088C509.477 308.3 508.555 310.746 508.094 311.887C508.149 311.933 508.208 311.972 508.272 312.005C510.513 309.507 512.527 306.815 514.288 303.961C515.281 302.408 516.132 300.856 516.936 299.339C515.943 298.704 511.463 295.811 510.056 293.6C508.65 291.389 507.586 288.532 508.472 286.086C508.664 285.503 508.976 284.968 509.389 284.514C509.802 284.06 510.306 283.697 510.869 283.45C511.432 283.203 512.041 283.076 512.657 283.078C513.272 283.08 513.88 283.212 514.442 283.463C517.787 285.062 518.827 291.695 518.366 294.894C518.366 295.07 517.893 296.846 517.55 298.128C517.893 297.446 518.271 296.728 518.59 296.058C519.772 293.553 520.777 291.178 521.604 289.073C522.077 287.897 522.467 286.721 522.786 285.733C522.136 284.616 519.607 280.041 519.359 277.501C519.11 274.961 519.512 271.868 521.439 270.104C521.878 269.674 522.402 269.341 522.979 269.127C523.555 268.912 524.171 268.821 524.785 268.859C525.399 268.896 525.999 269.062 526.544 269.346C527.09 269.629 527.57 270.024 527.952 270.504C530.174 273.455 528.058 279.77 526.143 282.452C525.978 282.687 522.964 285.98 522.928 285.98V285.909C522.597 286.909 522.243 287.967 521.817 289.131C521.037 291.26 520.127 293.659 518.957 296.187C517.72 298.945 516.327 301.631 514.784 304.231C513.063 307.144 511.085 309.899 508.874 312.463L508.792 312.546C509.714 311.981 512.338 310.488 512.562 310.393C515.612 309.088 522.255 308.359 524.689 311.134C525.081 311.607 525.369 312.156 525.534 312.746C525.698 313.336 525.736 313.954 525.644 314.56C525.553 315.166 525.334 315.745 525.003 316.261C524.671 316.777 524.234 317.218 523.72 317.555C521.581 319.061 518.378 318.731 516.014 318.026C513.354 317.191 508.922 313.157 508.52 312.84C506.208 315.395 503.728 317.796 501.097 320.025C499.572 321.33 497.988 322.6 496.369 323.859C497.184 323.4 497.917 322.988 498.024 322.941C501.061 321.636 507.704 320.907 510.139 323.682C510.533 324.154 510.822 324.703 510.987 325.293C511.153 325.884 511.191 326.502 511.1 327.109C511.008 327.715 510.789 328.295 510.456 328.811C510.124 329.327 509.685 329.768 509.17 330.103C507.042 331.608 503.827 331.279 501.475 330.574C499.123 329.868 495.187 326.458 494.17 325.552C493.544 326.034 492.988 326.516 492.315 326.987C489.348 329.256 486.405 331.503 483.509 333.796C482.504 334.607 481.546 335.43 480.577 336.265L482.019 335.466C485.057 334.172 491.7 333.431 494.135 336.218C494.528 336.69 494.818 337.239 494.983 337.829C495.149 338.42 495.187 339.039 495.095 339.645C495.004 340.251 494.785 340.831 494.452 341.347C494.12 341.863 493.681 342.304 493.166 342.639C491.026 344.145 487.823 343.815 485.471 343.098C483.119 342.381 479.561 339.311 478.379 338.253C477.421 339.123 476.452 340.005 475.566 340.899C474.963 341.522 474.384 342.075 473.793 342.745L472.09 344.662C471.062 345.909 469.987 347.19 469.005 348.437C468.32 349.307 467.682 350.142 467.043 350.977C468.024 350.166 470.01 348.625 470.187 348.496C472.989 346.744 479.454 345.027 482.279 347.402C482.737 347.811 483.103 348.312 483.354 348.871C483.605 349.43 483.734 350.036 483.734 350.648C483.734 351.26 483.605 351.866 483.354 352.425C483.103 352.984 482.737 353.485 482.279 353.894C480.388 355.705 477.173 355.893 474.738 355.517C472.043 355.105 467.173 351.989 466.571 351.553C465.507 352.941 464.49 354.305 463.545 355.599C460.271 360.103 457.717 363.984 455.968 366.712C455.968 366.818 455.85 366.9 455.791 366.994L453.521 365.901L453.876 365.36C455.708 362.643 458.379 358.786 461.783 354.305C462.859 352.882 464.029 351.401 465.247 349.872C463.98 348.5 462.796 347.055 461.701 345.544C459.088 346.555 453.675 346.591 452.966 346.591C452.859 348.343 452.765 350.036 452.694 351.636C452.457 357.198 452.481 361.832 452.54 365.066V365.442L450.046 364.266C450.046 361.044 450.176 356.693 450.507 351.542C450.614 349.778 450.767 347.884 450.945 345.944C450.247 345.779 444.609 344.333 442.481 342.639C440.555 341.111 438.522 338.617 438.593 336.018C438.586 335.405 438.71 334.798 438.956 334.236C439.201 333.674 439.564 333.17 440.019 332.757C440.475 332.344 441.012 332.031 441.598 331.839C442.183 331.647 442.802 331.581 443.415 331.644C447.091 332.114 450.176 338.006 450.779 341.252C450.779 341.44 450.968 343.604 451.039 344.886C451.122 344.098 451.181 343.333 451.275 342.534C451.429 340.922 451.642 339.323 451.866 337.594C451.997 336.771 452.138 335.924 452.268 335.078C452.398 334.231 452.623 333.361 452.8 332.502C453.249 330.491 453.793 328.48 454.396 326.469C452.978 326.328 447.954 325.74 445.791 324.505C443.628 323.271 441.264 321.13 440.945 318.543C440.846 317.939 440.876 317.32 441.034 316.728C441.192 316.136 441.474 315.584 441.861 315.108C442.248 314.631 442.732 314.242 443.281 313.965C443.83 313.687 444.431 313.528 445.046 313.498C448.746 313.404 452.694 318.767 453.781 321.883C453.852 322.071 454.384 324.388 454.644 325.67C455.022 324.494 455.377 323.259 455.826 322.048C457.008 318.52 458.344 315.074 459.644 311.581C460.046 310.511 460.424 309.441 460.826 308.371C460.318 308.371 454.325 307.759 451.914 306.372C449.774 305.195 447.387 302.996 447.056 300.409C446.959 299.805 446.991 299.187 447.149 298.596C447.308 298.005 447.59 297.453 447.977 296.977C448.363 296.502 448.846 296.112 449.394 295.834C449.942 295.556 450.543 295.396 451.157 295.364C454.869 295.27 458.817 300.644 459.904 303.749C459.987 303.984 460.743 307.277 460.897 308.183C461.748 305.831 462.587 303.479 463.261 301.127C464.259 297.951 465.049 294.714 465.625 291.436C465.389 291.436 459.136 290.848 456.665 289.437C454.514 288.202 452.127 286.05 451.807 283.463C451.708 282.858 451.739 282.24 451.897 281.648C452.055 281.056 452.337 280.504 452.724 280.028C453.111 279.551 453.595 279.162 454.144 278.884C454.692 278.607 455.294 278.448 455.909 278.418C459.609 278.324 463.556 283.698 464.644 286.803C464.715 287.003 465.306 289.555 465.554 290.766H465.755C466.243 287.454 466.433 284.104 466.322 280.758C466.322 278.924 466.145 277.16 465.968 275.454C464.786 275.454 459.419 275.454 457.055 274.443C454.691 273.432 452.174 271.574 451.559 269.045C451.395 268.453 451.359 267.833 451.452 267.226C451.546 266.618 451.767 266.038 452.102 265.522C452.437 265.005 452.877 264.565 453.395 264.23C453.912 263.895 454.495 263.672 455.105 263.577C458.781 263.083 463.296 267.987 464.727 270.95C464.798 271.115 465.412 272.844 465.826 274.114C465.743 273.338 465.66 272.55 465.554 271.762C465.188 268.998 464.668 266.493 464.195 264.271C463.911 263.012 463.639 261.919 463.367 260.825C462.185 260.237 457.552 257.826 455.968 255.862C454.384 253.898 452.966 251.088 453.604 248.559C453.739 247.965 453.998 247.406 454.364 246.918C454.73 246.429 455.194 246.022 455.727 245.723C456.261 245.424 456.851 245.239 457.461 245.181C458.07 245.123 458.685 245.192 459.266 245.384Z" fill="#FAA11F"/>
<path d="M526.262 302.232C523.366 302.114 517.574 299.151 517.574 299.151C517.574 299.151 520.683 295.952 520.907 295.764C523.496 293.718 529.713 291.26 532.798 293.306C533.303 293.658 533.727 294.111 534.043 294.637C534.359 295.163 534.559 295.749 534.632 296.357C534.705 296.966 534.647 297.582 534.464 298.167C534.28 298.752 533.974 299.292 533.567 299.751C531.9 301.762 528.732 302.326 526.262 302.232Z" fill="#FAA11F"/>
<g opacity="0.5">
<path d="M466.441 274.925C466.37 274.925 467.268 270.539 467.351 270.221C468.367 267.093 472.197 261.636 475.897 261.636C476.512 261.656 477.117 261.803 477.672 262.07C478.226 262.336 478.719 262.716 479.116 263.184C479.514 263.651 479.809 264.197 479.981 264.786C480.153 265.374 480.199 265.992 480.116 266.599C479.844 269.186 477.504 271.397 475.388 272.667C472.906 274.208 466.441 274.925 466.441 274.925Z" fill="white"/>
<path d="M459.266 245.384C462.753 246.631 464.49 253.052 464.372 256.344C464.372 256.627 463.71 261.048 463.651 261.048H463.58C463.852 262.06 464.147 263.142 464.443 264.341C464.963 266.552 465.53 269.045 465.968 271.821C466.475 274.794 466.806 277.794 466.961 280.805C467.149 284.18 467.034 287.565 466.618 290.919C466.613 290.958 466.613 290.997 466.618 291.036C467.079 290.06 468.45 287.367 468.568 287.167C470.388 284.416 475.518 280.111 479.1 281.135C479.688 281.313 480.231 281.613 480.695 282.014C481.159 282.416 481.532 282.91 481.791 283.465C482.05 284.02 482.188 284.623 482.197 285.234C482.206 285.846 482.085 286.453 481.842 287.015C480.896 289.449 478.06 290.954 475.684 291.636C473.001 292.389 467.02 291.495 466.547 291.425C466.04 294.825 465.306 298.188 464.348 301.491C463.797 303.42 463.198 305.344 462.552 307.265C462.965 306.43 463.356 305.689 463.415 305.595C465.235 302.843 470.377 298.539 473.946 299.562C474.534 299.741 475.078 300.041 475.542 300.442C476.005 300.844 476.379 301.338 476.638 301.893C476.896 302.448 477.035 303.051 477.043 303.662C477.052 304.274 476.931 304.881 476.688 305.442C475.743 307.865 472.906 309.382 470.53 310.052C468.154 310.723 463.001 310.052 461.653 309.888L460.909 312.087C459.727 315.615 458.438 319.143 457.363 322.6C456.973 323.776 456.63 325.046 456.287 326.269C456.665 325.529 456.985 324.905 457.044 324.823C458.864 322.059 463.994 317.767 467.563 318.79C468.151 318.969 468.695 319.269 469.159 319.67C469.623 320.071 469.997 320.565 470.257 321.12C470.517 321.674 470.656 322.277 470.667 322.889C470.677 323.5 470.558 324.107 470.317 324.67C469.372 327.093 466.523 328.61 464.147 329.28C461.772 329.95 457.126 329.362 455.519 329.139C455.2 330.397 454.892 331.667 454.644 332.902C454.491 333.749 454.29 334.548 454.183 335.419L453.829 337.935C453.663 339.546 453.474 341.205 453.356 342.78C453.261 343.886 453.19 344.933 453.119 345.979C453.498 344.803 454.301 342.369 454.36 342.181C455.673 339.596 457.626 337.386 460.034 335.76C460.168 335.463 460.33 335.179 460.519 334.913C460.853 334.399 461.293 333.961 461.81 333.628C462.326 333.295 462.907 333.074 463.515 332.98C464.123 332.886 464.744 332.92 465.338 333.081C465.932 333.242 466.485 333.525 466.961 333.913C469.774 336.324 469.065 342.933 467.776 345.967C467.705 346.144 466.653 348.002 465.98 349.154C466.488 348.531 466.961 347.978 467.493 347.296C468.521 346.038 469.585 344.815 470.719 343.498L472.457 341.628C473.024 340.993 473.71 340.393 474.336 339.758C475.814 338.335 477.386 336.959 479.005 335.619C477.906 334.713 474.029 331.467 472.918 329.256C471.807 327.046 471.015 323.953 472.173 321.612C472.428 321.054 472.798 320.555 473.259 320.149C473.72 319.742 474.262 319.437 474.85 319.253C475.437 319.068 476.058 319.009 476.67 319.08C477.282 319.15 477.872 319.348 478.402 319.66C481.535 321.612 481.854 328.257 481.038 331.42C481.038 331.62 480.14 333.855 479.655 335.066C480.636 334.254 481.606 333.455 482.622 332.714C485.553 330.468 488.591 328.28 491.605 326.081L494.359 324.047C493.969 323.729 489.289 319.966 488.036 317.485C486.936 315.286 486.133 312.181 487.291 309.852C487.544 309.293 487.913 308.793 488.374 308.385C488.835 307.977 489.377 307.671 489.964 307.486C490.552 307.3 491.173 307.24 491.786 307.31C492.398 307.379 492.989 307.576 493.52 307.889C496.664 309.852 496.972 316.485 496.156 319.649C496.097 319.884 494.879 323.082 494.537 323.882C496.546 322.389 498.544 320.883 500.447 319.319C503.033 317.212 505.481 314.942 507.775 312.522C507.598 312.381 502.692 308.465 501.416 305.936C500.305 303.737 499.513 300.633 500.671 298.292C500.925 297.735 501.293 297.236 501.753 296.83C502.213 296.423 502.754 296.117 503.34 295.932C503.926 295.746 504.545 295.686 505.157 295.754C505.768 295.823 506.358 296.018 506.889 296.328C510.033 298.292 510.352 304.937 509.536 308.088C509.477 308.3 508.555 310.746 508.094 311.887C508.149 311.933 508.208 311.972 508.272 312.005C510.513 309.507 512.527 306.815 514.288 303.961C515.281 302.408 516.132 300.856 516.936 299.339C515.943 298.704 511.463 295.811 510.056 293.6C508.65 291.389 507.586 288.532 508.472 286.086C508.664 285.503 508.976 284.968 509.389 284.514C509.802 284.06 510.306 283.697 510.869 283.45C511.432 283.203 512.041 283.076 512.657 283.078C513.272 283.08 513.88 283.212 514.442 283.463C517.787 285.062 518.827 291.695 518.366 294.894C518.366 295.07 517.893 296.846 517.55 298.128C517.893 297.446 518.271 296.728 518.59 296.058C519.772 293.553 520.777 291.178 521.604 289.073C522.077 287.897 522.467 286.721 522.786 285.733C522.136 284.616 519.607 280.041 519.359 277.501C519.11 274.961 519.512 271.868 521.439 270.104C521.878 269.674 522.402 269.341 522.979 269.127C523.555 268.912 524.171 268.821 524.785 268.859C525.399 268.896 525.999 269.062 526.544 269.346C527.09 269.629 527.57 270.024 527.952 270.504C530.174 273.455 528.058 279.77 526.143 282.452C525.978 282.687 522.964 285.98 522.928 285.98V285.909C522.597 286.909 522.243 287.967 521.817 289.131C521.037 291.26 520.127 293.659 518.957 296.187C517.72 298.945 516.327 301.631 514.784 304.231C513.063 307.144 511.085 309.899 508.874 312.463L508.792 312.546C509.714 311.981 512.338 310.488 512.562 310.393C515.612 309.088 522.255 308.359 524.689 311.134C525.081 311.607 525.369 312.156 525.534 312.746C525.698 313.336 525.736 313.954 525.644 314.56C525.553 315.166 525.334 315.745 525.003 316.261C524.671 316.777 524.234 317.218 523.72 317.555C521.581 319.061 518.378 318.731 516.014 318.026C513.354 317.191 508.922 313.157 508.52 312.84C506.208 315.395 503.728 317.796 501.097 320.025C499.572 321.33 497.988 322.6 496.369 323.859C497.184 323.4 497.917 322.988 498.024 322.941C501.061 321.636 507.704 320.907 510.139 323.682C510.533 324.154 510.822 324.703 510.987 325.293C511.153 325.884 511.191 326.502 511.1 327.109C511.008 327.715 510.789 328.295 510.456 328.811C510.124 329.327 509.685 329.768 509.17 330.103C507.042 331.608 503.827 331.279 501.475 330.574C499.123 329.868 495.187 326.458 494.17 325.552C493.544 326.034 492.988 326.516 492.315 326.987C489.348 329.256 486.405 331.503 483.509 333.796C482.504 334.607 481.546 335.43 480.577 336.265L482.019 335.466C485.057 334.172 491.7 333.431 494.135 336.218C494.528 336.69 494.818 337.239 494.983 337.829C495.149 338.42 495.187 339.039 495.095 339.645C495.004 340.251 494.785 340.831 494.452 341.347C494.12 341.863 493.681 342.304 493.166 342.639C491.026 344.145 487.823 343.815 485.471 343.098C483.119 342.381 479.561 339.311 478.379 338.253C477.421 339.123 476.452 340.005 475.566 340.899C474.963 341.522 474.384 342.075 473.793 342.745L472.09 344.662C471.062 345.909 469.987 347.19 469.005 348.437C468.32 349.307 467.682 350.142 467.043 350.977C468.024 350.166 470.01 348.625 470.187 348.496C472.989 346.744 479.454 345.027 482.279 347.402C482.737 347.811 483.103 348.312 483.354 348.871C483.605 349.43 483.734 350.036 483.734 350.648C483.734 351.26 483.605 351.866 483.354 352.425C483.103 352.984 482.737 353.485 482.279 353.894C480.388 355.705 477.173 355.893 474.738 355.517C472.043 355.105 467.173 351.989 466.571 351.553C465.507 352.941 464.49 354.305 463.545 355.599C460.271 360.103 457.717 363.984 455.968 366.712C455.968 366.818 455.85 366.9 455.791 366.994L453.521 365.901L453.876 365.36C455.708 362.643 458.379 358.786 461.783 354.305C462.859 352.882 464.029 351.401 465.247 349.872C463.98 348.5 462.796 347.055 461.701 345.544C459.088 346.555 453.675 346.591 452.966 346.591C452.859 348.343 452.765 350.036 452.694 351.636C452.457 357.198 452.481 361.832 452.54 365.066V365.442L450.046 364.266C450.046 361.044 450.176 356.693 450.507 351.542C450.614 349.778 450.767 347.884 450.945 345.944C450.247 345.779 444.609 344.333 442.481 342.639C440.555 341.111 438.522 338.617 438.593 336.018C438.586 335.405 438.71 334.798 438.956 334.236C439.201 333.674 439.564 333.17 440.019 332.757C440.475 332.344 441.012 332.031 441.598 331.839C442.183 331.647 442.802 331.581 443.415 331.644C447.091 332.114 450.176 338.006 450.779 341.252C450.779 341.44 450.968 343.604 451.039 344.886C451.122 344.098 451.181 343.333 451.275 342.534C451.429 340.922 451.642 339.323 451.866 337.594C451.997 336.771 452.138 335.924 452.268 335.078C452.398 334.231 452.623 333.361 452.8 332.502C453.249 330.491 453.793 328.48 454.396 326.469C452.978 326.328 447.954 325.74 445.791 324.505C443.628 323.271 441.264 321.13 440.945 318.543C440.846 317.939 440.876 317.32 441.034 316.728C441.192 316.136 441.474 315.584 441.861 315.108C442.248 314.631 442.732 314.242 443.281 313.965C443.83 313.687 444.431 313.528 445.046 313.498C448.746 313.404 452.694 318.767 453.781 321.883C453.852 322.071 454.384 324.388 454.644 325.67C455.022 324.494 455.377 323.259 455.826 322.048C457.008 318.52 458.344 315.074 459.644 311.581C460.046 310.511 460.424 309.441 460.826 308.371C460.318 308.371 454.325 307.759 451.914 306.372C449.774 305.195 447.387 302.996 447.056 300.409C446.959 299.805 446.991 299.187 447.149 298.596C447.308 298.005 447.59 297.453 447.977 296.977C448.363 296.502 448.846 296.112 449.394 295.834C449.942 295.556 450.543 295.396 451.157 295.364C454.869 295.27 458.817 300.644 459.904 303.749C459.987 303.984 460.743 307.277 460.897 308.183C461.748 305.831 462.587 303.479 463.261 301.127C464.259 297.951 465.049 294.714 465.625 291.436C465.389 291.436 459.136 290.848 456.665 289.437C454.514 288.202 452.127 286.05 451.807 283.463C451.708 282.858 451.739 282.24 451.897 281.648C452.055 281.056 452.337 280.504 452.724 280.028C453.111 279.551 453.595 279.162 454.144 278.884C454.692 278.607 455.294 278.448 455.909 278.418C459.609 278.324 463.556 283.698 464.644 286.803C464.715 287.003 465.306 289.555 465.554 290.766H465.755C466.243 287.454 466.433 284.104 466.322 280.758C466.322 278.924 466.145 277.16 465.968 275.454C464.786 275.454 459.419 275.454 457.055 274.443C454.691 273.432 452.174 271.574 451.559 269.045C451.395 268.453 451.359 267.833 451.452 267.226C451.546 266.618 451.767 266.038 452.102 265.522C452.437 265.005 452.877 264.565 453.395 264.23C453.912 263.895 454.495 263.672 455.105 263.577C458.781 263.083 463.296 267.987 464.727 270.95C464.798 271.115 465.412 272.844 465.826 274.114C465.743 273.338 465.66 272.55 465.554 271.762C465.188 268.998 464.668 266.493 464.195 264.271C463.911 263.012 463.639 261.919 463.367 260.825C462.185 260.237 457.552 257.826 455.968 255.862C454.384 253.898 452.966 251.088 453.604 248.559C453.739 247.965 453.998 247.406 454.364 246.918C454.73 246.429 455.194 246.022 455.727 245.723C456.261 245.424 456.851 245.239 457.461 245.181C458.07 245.123 458.685 245.192 459.266 245.384Z" fill="white"/>
<path d="M526.261 302.232C523.366 302.114 517.574 299.151 517.574 299.151C517.574 299.151 520.682 295.952 520.907 295.764C523.496 293.718 529.713 291.26 532.798 293.306C533.302 293.658 533.726 294.111 534.042 294.637C534.358 295.163 534.559 295.749 534.631 296.357C534.704 296.966 534.647 297.582 534.463 298.167C534.279 298.752 533.974 299.292 533.566 299.751C531.9 301.762 528.732 302.326 526.261 302.232Z" fill="white"/>
</g>
<path d="M492.444 374.38C492.444 374.38 474.868 332.232 465.034 334.066C455.2 335.901 481.901 401.263 481.901 401.263C481.901 401.263 450.98 343.227 429.893 343.227C408.806 343.227 437.623 407.366 464.336 428.746C464.336 428.746 422.163 383.541 397.565 393.325C372.968 403.109 446.796 448.914 446.796 448.914C446.796 448.914 403.924 435.473 408.842 445.857C413.759 456.241 427.115 458.075 427.115 458.075L378.653 460.522H547.266L509.312 456.852C509.312 456.852 548.672 437.307 538.129 429.358C527.585 421.408 504.394 438.519 504.394 438.519C504.394 438.519 544.452 394.536 536.722 378.049C528.992 361.561 494.548 407.978 494.548 407.978C494.548 407.978 522.668 348.731 517.006 338.335C511.345 327.939 492.444 374.38 492.444 374.38Z" fill="#FAA11F"/>
<path opacity="0.4" d="M492.444 374.38C492.444 374.38 474.868 332.232 465.034 334.066C455.2 335.901 481.901 401.263 481.901 401.263C481.901 401.263 450.98 343.227 429.893 343.227C408.806 343.227 437.623 407.366 464.336 428.746C464.336 428.746 422.163 383.541 397.565 393.325C372.968 403.109 446.796 448.914 446.796 448.914C446.796 448.914 403.924 435.473 408.842 445.857C413.759 456.241 427.115 458.075 427.115 458.075L378.653 460.522H547.266L509.312 456.852C509.312 456.852 548.672 437.307 538.129 429.358C527.585 421.408 504.394 438.519 504.394 438.519C504.394 438.519 544.452 394.536 536.722 378.049C528.992 361.561 494.548 407.978 494.548 407.978C494.548 407.978 522.668 348.731 517.006 338.335C511.345 327.939 492.444 374.38 492.444 374.38Z" fill="white"/>
<path d="M498.071 376.602C482.61 422.055 482.61 454.218 482.61 454.218C482.61 454.218 500.884 454.924 519.855 440.941" stroke="#015B88" stroke-linecap="round" stroke-linejoin="round"/>
<path d="M490.341 401.075C487.151 387.488 482.919 374.164 477.682 361.22" stroke="#015B88" stroke-linecap="round" stroke-linejoin="round"/>
<path d="M444.656 374.509L484.005 432.545C484.005 432.545 510.718 410.201 519.855 397.582" stroke="#015B88" stroke-linecap="round" stroke-linejoin="round"/>
<path d="M483.308 446.527C483.308 446.527 441.843 426.947 424.976 415.763" stroke="#015B88" stroke-linecap="round" stroke-linejoin="round"/>
<path d="M220.679 163.511L211.023 148.176H125.966V163.511V169.027V424.148H476.074V163.511H220.679Z" fill="#015B88"/>
<path d="M473.77 170.544H128.566V418.585H473.77V170.544Z" fill="white"/>
<mask id="mask0_549_2817" style="mask-type:luminance" maskUnits="userSpaceOnUse" x="128" y="170" width="346" height="249">
<path d="M473.77 170.544H128.566V418.585H473.77V170.544Z" fill="white"/>
</mask>
<g mask="url(#mask0_549_2817)">
<path opacity="0.17" d="M475.46 168.415H467.446V420.467H475.46V168.415Z" fill="black"/>
<path opacity="0.17" d="M475.46 320.813H467.446V418.421H475.46V320.813Z" fill="black"/>
<path d="M474.219 167.192H127.195V180.681H474.219V167.192Z" fill="#FAA11F" stroke="#015B88" stroke-miterlimit="10"/>
</g>
<path d="M473.77 170.544H128.566V418.585H473.77V170.544Z" stroke="#015B88" stroke-linecap="round" stroke-linejoin="round"/>
<g opacity="0.17">
<path d="M308.419 193.687H284.271C283.992 193.687 283.715 193.632 283.457 193.526C283.199 193.42 282.964 193.264 282.767 193.067C282.569 192.871 282.412 192.637 282.306 192.381C282.199 192.124 282.144 191.848 282.144 191.57C282.142 191.291 282.196 191.015 282.302 190.757C282.408 190.499 282.565 190.264 282.763 190.066C282.96 189.868 283.195 189.711 283.454 189.604C283.713 189.497 283.991 189.442 284.271 189.442H308.419C308.7 189.442 308.977 189.497 309.236 189.604C309.495 189.711 309.73 189.868 309.928 190.066C310.126 190.264 310.282 190.499 310.388 190.757C310.495 191.015 310.549 191.291 310.547 191.57C310.547 191.848 310.492 192.124 310.385 192.381C310.278 192.637 310.121 192.871 309.924 193.067C309.726 193.264 309.492 193.42 309.234 193.526C308.976 193.632 308.699 193.687 308.419 193.687Z" fill="black"/>
<path d="M356.716 193.687H332.568C332.004 193.684 331.465 193.46 331.067 193.064C330.668 192.668 330.443 192.131 330.44 191.57C330.44 191.008 330.664 190.468 331.062 190.069C331.461 189.671 332.002 189.445 332.568 189.442H356.716C357.283 189.442 357.827 189.666 358.229 190.065C358.63 190.464 358.855 191.006 358.855 191.57C358.852 192.133 358.625 192.671 358.224 193.068C357.824 193.465 357.281 193.687 356.716 193.687Z" fill="black"/>
<path d="M405.024 193.687H380.876C380.311 193.687 379.768 193.465 379.368 193.068C378.967 192.671 378.74 192.133 378.737 191.57C378.737 191.006 378.962 190.464 379.363 190.065C379.765 189.666 380.309 189.442 380.876 189.442H405.024C405.59 189.445 406.131 189.671 406.53 190.069C406.928 190.468 407.152 191.008 407.152 191.57C407.149 192.131 406.924 192.668 406.526 193.064C406.127 193.46 405.588 193.684 405.024 193.687Z" fill="black"/>
<path d="M453.321 193.687H429.173C428.893 193.687 428.616 193.632 428.358 193.526C428.1 193.42 427.866 193.264 427.668 193.067C427.471 192.871 427.314 192.637 427.207 192.381C427.1 192.124 427.045 191.848 427.045 191.57C427.043 191.291 427.097 191.015 427.203 190.757C427.31 190.499 427.466 190.264 427.664 190.066C427.862 189.868 428.097 189.711 428.356 189.604C428.615 189.497 428.892 189.442 429.173 189.442H453.321C453.886 189.445 454.427 189.671 454.826 190.069C455.225 190.468 455.448 191.008 455.448 191.57C455.445 192.131 455.22 192.668 454.822 193.064C454.423 193.46 453.884 193.684 453.321 193.687Z" fill="black"/>
</g>
<path d="M161.189 294.929H197.678" stroke="#015B88" stroke-width="3" stroke-linecap="round" stroke-linejoin="round"/>
<path d="M197.028 300.586H201.011" stroke="#015B88" stroke-linecap="round" stroke-linejoin="round"/>
<path d="M174.18 300.586H194.616" stroke="#015B88" stroke-linecap="round" stroke-linejoin="round"/>
<path d="M158.4 300.586H172.017" stroke="#015B88" stroke-linecap="round" stroke-linejoin="round"/>
<path d="M184.274 306.242H201.011" stroke="#015B88" stroke-linecap="round" stroke-linejoin="round"/>
<path d="M175.137 306.242H181.638" stroke="#015B88" stroke-linecap="round" stroke-linejoin="round"/>
<path d="M158.4 306.242H172.253" stroke="#015B88" stroke-linecap="round" stroke-linejoin="round"/>
<path d="M167.442 311.887H201.011" stroke="#015B88" stroke-linecap="round" stroke-linejoin="round"/>
<path d="M158.4 311.887H164.322" stroke="#015B88" stroke-linecap="round" stroke-linejoin="round"/>
<path d="M192.702 317.544H201.011" stroke="#015B88" stroke-linecap="round" stroke-linejoin="round"/>
<path d="M176.827 317.544H189.806" stroke="#015B88" stroke-linecap="round" stroke-linejoin="round"/>
<path d="M158.4 317.544H174.18" stroke="#015B88" stroke-linecap="round" stroke-linejoin="round"/>
<path d="M172.253 323.2H201.011" stroke="#015B88" stroke-linecap="round" stroke-linejoin="round"/>
<path d="M158.4 323.2H169.605" stroke="#015B88" stroke-linecap="round" stroke-linejoin="round"/>
<path d="M244.402 294.929H280.891" stroke="#015B88" stroke-width="3" stroke-linecap="round" stroke-linejoin="round"/>
<path d="M280.24 300.586H284.224" stroke="#015B88" stroke-linecap="round" stroke-linejoin="round"/>
<path d="M257.393 300.586H277.829" stroke="#015B88" stroke-linecap="round" stroke-linejoin="round"/>
<path d="M241.613 300.586H255.229" stroke="#015B88" stroke-linecap="round" stroke-linejoin="round"/>
<path d="M267.487 306.242H284.224" stroke="#015B88" stroke-linecap="round" stroke-linejoin="round"/>
<path d="M258.35 306.242H264.851" stroke="#015B88" stroke-linecap="round" stroke-linejoin="round"/>
<path d="M241.613 306.242H255.466" stroke="#015B88" stroke-linecap="round" stroke-linejoin="round"/>
<path d="M250.655 311.887H284.224" stroke="#015B88" stroke-linecap="round" stroke-linejoin="round"/>
<path d="M241.613 311.887H247.535" stroke="#015B88" stroke-linecap="round" stroke-linejoin="round"/>
<path d="M275.915 317.544H284.224" stroke="#015B88" stroke-linecap="round" stroke-linejoin="round"/>
<path d="M260.04 317.544H273.018" stroke="#015B88" stroke-linecap="round" stroke-linejoin="round"/>
<path d="M241.613 317.544H257.392" stroke="#015B88" stroke-linecap="round" stroke-linejoin="round"/>
<path d="M255.466 323.2H284.224" stroke="#015B88" stroke-linecap="round" stroke-linejoin="round"/>
<path d="M241.613 323.2H252.818" stroke="#015B88" stroke-linecap="round" stroke-linejoin="round"/>
<path d="M327.615 294.929H364.104" stroke="#015B88" stroke-width="3" stroke-linecap="round" stroke-linejoin="round"/>
<path d="M363.453 300.586H367.436" stroke="#015B88" stroke-linecap="round" stroke-linejoin="round"/>
<path d="M340.605 300.586H361.042" stroke="#015B88" stroke-linecap="round" stroke-linejoin="round"/>
<path d="M324.826 300.586H338.442" stroke="#015B88" stroke-linecap="round" stroke-linejoin="round"/>
<path d="M350.7 306.242H367.437" stroke="#015B88" stroke-linecap="round" stroke-linejoin="round"/>
<path d="M341.562 306.242H348.064" stroke="#015B88" stroke-linecap="round" stroke-linejoin="round"/>
<path d="M324.826 306.242H338.679" stroke="#015B88" stroke-linecap="round" stroke-linejoin="round"/>
<path d="M333.868 311.887H367.436" stroke="#015B88" stroke-linecap="round" stroke-linejoin="round"/>
<path d="M324.826 311.887H330.748" stroke="#015B88" stroke-linecap="round" stroke-linejoin="round"/>
<path d="M359.127 317.544H367.436" stroke="#015B88" stroke-linecap="round" stroke-linejoin="round"/>
<path d="M343.253 317.544H356.231" stroke="#015B88" stroke-linecap="round" stroke-linejoin="round"/>
<path d="M324.826 317.544H340.605" stroke="#015B88" stroke-linecap="round" stroke-linejoin="round"/>
<path d="M338.679 323.2H367.437" stroke="#015B88" stroke-linecap="round" stroke-linejoin="round"/>
<path d="M324.826 323.2H336.031" stroke="#015B88" stroke-linecap="round" stroke-linejoin="round"/>
<path d="M410.828 294.929H447.316" stroke="#015B88" stroke-width="3" stroke-linecap="round" stroke-linejoin="round"/>
<path d="M446.666 300.586H450.649" stroke="#015B88" stroke-linecap="round" stroke-linejoin="round"/>
<path d="M423.818 300.586H444.255" stroke="#015B88" stroke-linecap="round" stroke-linejoin="round"/>
<path d="M408.038 300.586H421.655" stroke="#015B88" stroke-linecap="round" stroke-linejoin="round"/>
<path d="M433.912 306.242H450.649" stroke="#015B88" stroke-linecap="round" stroke-linejoin="round"/>
<path d="M424.775 306.242H431.276" stroke="#015B88" stroke-linecap="round" stroke-linejoin="round"/>
<path d="M408.038 306.242H421.891" stroke="#015B88" stroke-linecap="round" stroke-linejoin="round"/>
<path d="M417.081 311.887H450.649" stroke="#015B88" stroke-linecap="round" stroke-linejoin="round"/>
<path d="M408.038 311.887H413.96" stroke="#015B88" stroke-linecap="round" stroke-linejoin="round"/>
<path d="M442.34 317.544H450.649" stroke="#015B88" stroke-linecap="round" stroke-linejoin="round"/>
<path d="M426.466 317.544H439.444" stroke="#015B88" stroke-linecap="round" stroke-linejoin="round"/>
<path d="M408.038 317.544H423.818" stroke="#015B88" stroke-linecap="round" stroke-linejoin="round"/>
<path d="M421.891 323.2H450.649" stroke="#015B88" stroke-linecap="round" stroke-linejoin="round"/>
<path d="M408.038 323.2H419.243" stroke="#015B88" stroke-linecap="round" stroke-linejoin="round"/>
<path d="M461.89 276.713H140.386V210.727H461.89V276.713Z" fill="#FAA11F"/>
<path opacity="0.7" d="M461.89 276.713H140.386V210.727H461.89V276.713Z" fill="white"/>
<path d="M380.533 276.713H221.802V210.727H380.533V276.713Z" fill="#FAA11F"/>
<path opacity="0.92" d="M380.533 276.713H221.802V210.727H380.533V276.713Z" fill="white"/>
<path d="M348.099 229.849H358.914" stroke="#015B88" stroke-linecap="round" stroke-linejoin="round"/>
<path d="M286.186 229.849H341.586" stroke="#015B88" stroke-linecap="round" stroke-linejoin="round"/>
<path d="M243.421 229.849H280.312" stroke="#015B88" stroke-linecap="round" stroke-linejoin="round"/>
<path d="M313.561 235.506H358.914" stroke="#015B88" stroke-linecap="round" stroke-linejoin="round"/>
<path d="M288.786 235.506H306.386" stroke="#015B88" stroke-linecap="round" stroke-linejoin="round"/>
<path d="M243.421 235.506H280.974" stroke="#015B88" stroke-linecap="round" stroke-linejoin="round"/>
<path d="M267.936 241.162H358.915" stroke="#015B88" stroke-linecap="round" stroke-linejoin="round"/>
<path d="M243.421 241.162H259.461" stroke="#015B88" stroke-linecap="round" stroke-linejoin="round"/>
<path d="M336.374 246.819H358.914" stroke="#015B88" stroke-linecap="round" stroke-linejoin="round"/>
<path d="M293.349 246.819H328.549" stroke="#015B88" stroke-linecap="round" stroke-linejoin="round"/>
<path d="M243.421 246.819H286.186" stroke="#015B88" stroke-linecap="round" stroke-linejoin="round"/>
<path d="M280.973 252.464H358.914" stroke="#015B88" stroke-linecap="round" stroke-linejoin="round"/>
<path d="M243.421 252.464H273.799" stroke="#015B88" stroke-linecap="round" stroke-linejoin="round"/>
<path d="M461.89 417.762H140.386V351.777H461.89V417.762Z" fill="#FAA11F"/>
<path opacity="0.7" d="M461.89 417.762H140.386V351.777H461.89V417.762Z" fill="white"/>
<mask id="mask1_549_2817" style="mask-type:luminance" maskUnits="userSpaceOnUse" x="392" y="324" width="73" height="95">
<path d="M464.372 324.988H392.991V418.174H464.372V324.988Z" fill="white"/>
</mask>
<g mask="url(#mask1_549_2817)">
<path d="M423.841 376.884C423.841 376.884 405.012 384.411 402.057 385.34C399.102 386.269 398.925 387.539 398.925 391.573C398.925 395.606 399.48 413.799 399.48 415.269C399.48 416.739 399.291 419.491 399.291 419.491H460.98C460.98 419.491 456.914 403.027 454.514 395.254C452.115 387.48 453.226 386.798 448.983 384.234C444.739 381.671 433.617 377.99 431.253 377.437C428.801 377.054 426.323 376.87 423.841 376.884Z" fill="#015B88" stroke="#015B88" stroke-linecap="round" stroke-linejoin="round"/>
<path d="M424.763 374.862C424.763 374.862 420.331 374.497 418.487 378.178C416.643 381.859 412.211 390.432 412.211 390.432L417.565 393.737L411.336 396.9C412.376 401.437 413.671 405.913 415.213 410.306C416.286 413.19 417.517 416.013 418.901 418.762C418.901 418.762 427.884 408.66 431.43 405.532C433.768 403.306 435.703 400.697 437.151 397.817L432.541 393.595L440.484 392.678C440.484 392.678 438.451 382.4 435.862 378.178C433.274 373.956 424.763 374.862 424.763 374.862Z" fill="#015B88" stroke="#015B88" stroke-linecap="round" stroke-linejoin="round"/>
<path d="M415.697 410.424C416.028 411.341 416.383 412.212 416.726 412.976" stroke="white" stroke-width="0.5" stroke-linecap="round" stroke-linejoin="round"/>
<path d="M416.371 382.753L412.21 390.432L417.565 393.737L411.832 396.971C411.832 396.971 413.168 402.768 414.846 407.966" stroke="white" stroke-width="0.5" stroke-linecap="round" stroke-linejoin="round"/>
<path d="M437.34 379.272L440.448 392.678L432.505 393.595L437.115 397.817C437.115 397.817 428.25 408.154 424.574 412.329" stroke="white" stroke-width="0.5" stroke-linecap="round" stroke-linejoin="round"/>
<path d="M448.947 399.84L445.625 420.232" stroke="white" stroke-width="0.5" stroke-linecap="round" stroke-linejoin="round"/>
<path d="M403.357 396.171C403.357 396.171 402.991 408.472 403.168 412.329C403.315 414.774 403.812 417.186 404.646 419.491" stroke="white" stroke-width="0.5" stroke-linecap="round" stroke-linejoin="round"/>
<path d="M437.505 404.803L440.638 400.581L443.226 404.803H437.505Z" fill="white" stroke="#015B88" stroke-miterlimit="10"/>
<path d="M441.193 364.395C441.193 364.395 444.326 364.031 445.07 368.629C445.815 373.227 443.593 379.095 436.205 379.095C428.818 379.095 429.385 373.58 429.563 369.546C429.74 365.513 441.193 364.395 441.193 364.395Z" fill="#015B88" stroke="#015B88" stroke-miterlimit="10"/>
<path d="M422.919 371.933C422.919 371.933 422.73 377.249 422.364 383.317C421.997 389.385 419.042 397.641 419.042 404.615C419.017 408.479 419.203 412.342 419.598 416.186C419.598 416.186 425.685 404.426 428.451 397.641C431.217 390.855 434.361 371.193 434.361 371.193L422.919 371.933Z" fill="white" stroke="#015B88" stroke-miterlimit="10"/>
<path d="M441.004 359.856C442.378 357.178 443.137 354.23 443.226 351.224C443.226 346.638 442.304 340.393 436.95 337.63C431.595 334.866 421.253 336.712 418.676 342.04C416.936 345.445 416.121 349.243 416.312 353.059C416.498 355.121 416.931 357.154 417.6 359.115C417.6 359.115 418.345 355.587 423.321 353.8C428.297 352.012 433.664 350.119 436.24 351.448C438.817 352.776 441.004 359.856 441.004 359.856Z" fill="#015B88" stroke="#015B88" stroke-linecap="round" stroke-linejoin="round"/>
<path d="M417.754 357.974C417.754 357.974 415.532 354.67 414.61 357.057C413.688 359.444 414.988 362.937 416.454 363.666C417.919 364.395 418.676 364.031 418.676 364.031L417.754 357.974Z" fill="white" stroke="#015B88" stroke-linecap="round" stroke-linejoin="round"/>
<path d="M441.004 358.527C441.004 358.527 443.593 355.952 443.593 358.339C443.462 360.554 442.635 362.673 441.229 364.395C440.118 365.865 439.562 365.136 439.562 365.136L441.004 358.527Z" fill="white" stroke="#015B88" stroke-linecap="round" stroke-linejoin="round"/>
<path d="M436.619 347.955L438.451 342.816C438.523 342.615 438.512 342.393 438.42 342.2C438.328 342.007 438.163 341.858 437.961 341.787C437.758 341.715 437.536 341.726 437.342 341.818C437.148 341.909 436.998 342.074 436.926 342.275L435.39 346.567C433.773 346.187 432.095 346.139 430.459 346.426C428.823 346.713 427.263 347.329 425.875 348.237C421.076 351.365 417.199 354.117 417.199 354.117C417.199 354.117 417.388 364.583 419.409 368.441C421.43 372.298 424.953 376.884 427.908 376.884C430.863 376.884 436.028 370.463 438.061 368.441C440.094 366.418 441.382 358.527 441.382 355.952C441.382 354.105 438.333 350.083 436.619 347.955Z" fill="white" stroke="#015B88" stroke-miterlimit="10"/>
<path d="M429.349 395.136C426.351 395.406 423.33 395.004 420.508 393.96C419.663 397.482 419.172 401.078 419.042 404.697C419.017 408.561 419.203 412.424 419.598 416.269C419.598 416.269 425.685 404.509 428.451 397.723C428.747 396.924 429.066 396.042 429.349 395.136Z" fill="#FAA11F" stroke="#015B88" stroke-miterlimit="10"/>
</g>
<mask id="mask2_549_2817" style="mask-type:luminance" maskUnits="userSpaceOnUse" x="309" y="324" width="72" height="95">
<path d="M380.711 324.988H309.33V418.174H380.711V324.988Z" fill="white"/>
</mask>
<g mask="url(#mask2_549_2817)">
<path d="M342.107 367.135C337.398 367.667 332.723 368.452 328.1 369.487C322.698 370.875 320.098 371.475 320.098 374.062C320.098 376.649 319.495 387.798 317.734 392.784C315.973 397.77 313.928 404.932 313.928 407.519C313.928 410.106 317.734 421.055 317.734 421.055H324.731C324.731 421.055 322.131 408.307 322.131 407.119C322.131 405.932 325.736 395.359 325.736 395.359L325.937 421.443H362.579L362.189 396.547C362.189 396.547 365.38 406.708 365.38 408.495C365.38 410.283 364.198 422.043 364.198 422.043H371.148C371.148 422.043 374.553 409.107 374.352 404.52C374.151 399.934 370.806 385.399 370.356 381C369.907 376.602 372.555 374.227 367.756 371.24C362.957 368.253 351.941 366.465 349.541 366.265C347.041 366.314 344.551 366.606 342.107 367.135Z" fill="#FAA11F" stroke="#015B88" stroke-miterlimit="10"/>
<path d="M325.7 395.418L326.303 385.457L324.093 377.896" stroke="#015B88" stroke-linecap="round" stroke-linejoin="round"/>
<path d="M362.13 383.87V396.606" stroke="#015B88" stroke-linecap="round" stroke-linejoin="round"/>
<path d="M362.319 387.457L365.522 382.67" stroke="#015B88" stroke-linecap="round" stroke-linejoin="round"/>
<path d="M345.511 380.683L344.317 421.102" stroke="#015B88" stroke-linecap="round" stroke-linejoin="round"/>
<path d="M344.908 362.361C343.127 362.458 341.433 363.16 340.109 364.348C337.911 366.348 337.107 374.109 337.107 374.109C337.107 374.109 344.116 372.122 345.31 371.757C346.504 371.393 357.13 373.745 357.13 373.745C357.13 373.745 356.137 366.783 353.336 363.796C350.534 360.809 344.908 362.361 344.908 362.361Z" fill="#015B88" stroke="#015B88" stroke-linecap="round" stroke-linejoin="round"/>
<path d="M342.106 355.987C342.106 355.987 343.714 358.339 343.714 365.395C343.714 372.451 344.506 379.73 345.511 380.683C346.515 381.635 350.711 371.275 350.711 366.571C350.791 363.46 351.545 360.404 352.922 357.61C352.922 357.61 347.91 354.223 345.31 353.823C344.6 353.713 343.874 353.875 343.279 354.277C342.685 354.678 342.266 355.29 342.106 355.987Z" fill="white" stroke="#015B88" stroke-linecap="round" stroke-linejoin="round"/>
<path d="M344.033 373.157C344.352 377.026 344.896 380.071 345.511 380.683C346.125 381.294 348.052 377.414 349.376 373.251C347.601 373.5 345.798 373.469 344.033 373.157Z" fill="#015B88" stroke="#015B88" stroke-linecap="round" stroke-linejoin="round"/>
<path d="M354.317 336.877C354.317 336.877 355.499 337.277 357.721 335.278C359.943 333.278 358.903 329.503 357.922 330.303C357.295 330.812 356.753 331.415 356.314 332.091C355.926 330.925 355.212 329.894 354.255 329.119C353.298 328.344 352.138 327.857 350.913 327.716C346.717 327.316 341.705 333.09 341.705 333.09C341.705 333.09 332.509 339.864 333.502 345.238C334.495 350.613 339.707 355.387 342.107 355.987C344.506 356.587 348.915 352.212 348.111 348.425C347.308 344.639 346.717 339.017 348.111 338.465C350.148 337.82 352.22 337.29 354.317 336.877Z" fill="#015B88" stroke="#015B88" stroke-linecap="round" stroke-linejoin="round"/>
<path d="M341.705 352.8C341.705 352.8 338.312 350.448 337.508 352.212C336.705 353.976 338.513 357.186 340.712 358.174C342.91 359.162 344.908 355.987 344.908 355.987C344.908 355.987 351.917 361.561 356.728 361.761C361.538 361.961 361.739 358.174 360.936 351.012C360.132 343.851 357.732 338.265 355.936 336.277C354.139 334.29 347.13 336.077 344.92 337.865C342.709 339.652 341.374 341.252 343.525 341.652C345.676 342.051 347.721 342.828 345.723 345.038C343.726 347.249 342.721 346.426 343.359 348.025C343.998 349.625 346.563 351.212 344.163 352.012L341.705 352.8Z" fill="white" stroke="#015B88" stroke-linecap="round" stroke-linejoin="round"/>
</g>
<mask id="mask3_549_2817" style="mask-type:luminance" maskUnits="userSpaceOnUse" x="215" y="324" width="73" height="95">
<path d="M287.049 324.541H215.668V418.186H287.049V324.541Z" fill="white"/>
</mask>
<g mask="url(#mask3_549_2817)">
<path d="M253.752 363.384C253.752 363.384 228.528 366.371 227.748 368.558C226.968 370.746 217.748 392.078 219.143 394.042C220.538 396.006 223.351 396.394 225.549 396.394C227.107 396.256 228.58 395.63 229.757 394.607L223.351 421.655H269.78L271.186 402.733C271.186 402.733 276.588 405.085 280.193 404.732C283.798 404.379 282.995 401.545 282.191 396.171C281.387 390.797 281.009 377.049 279.59 374.462C278.172 371.875 261.175 364.701 261.175 364.701L253.752 363.384Z" fill="#015B88" stroke="#015B88" stroke-linecap="round" stroke-linejoin="round"/>
<path d="M271.565 395.818V383.47L272.558 381.083" stroke="white" stroke-linecap="round" stroke-linejoin="round"/>
<path d="M231.128 385.458L233.138 377.096L232.736 375.309" stroke="white" stroke-linecap="round" stroke-linejoin="round"/>
<path d="M236.4 422.502C236.4 422.502 240.195 406.167 242.003 396.018C243.812 385.869 251.341 363.384 251.341 363.384L262.96 366.571C262.96 366.571 255.147 389.268 253.149 399.029C251.152 408.789 249.473 422.619 249.473 422.619L236.4 422.502Z" fill="#FAA11F" stroke="#015B88" stroke-miterlimit="10"/>
<path d="M252.948 361.032C252.948 361.032 249.544 361.032 248.338 363.384C247.133 365.736 245.537 374.932 245.537 374.932C245.537 374.932 252.747 371.745 253.35 371.745C253.953 371.745 256.754 371.945 258.149 373.533C259.544 375.121 262.558 378.907 262.558 378.907C262.558 378.907 267.156 371.545 265.962 366.771C265.553 365.197 264.655 363.792 263.397 362.755C262.138 361.719 260.583 361.103 258.953 360.997L252.948 361.032Z" fill="#FAA11F" stroke="#015B88" stroke-miterlimit="10"/>
<path d="M251.767 355.787C251.767 355.787 251.365 369.734 251.767 373.709C252.168 377.684 252.771 378.684 252.771 378.684C252.771 378.684 256.175 373.11 257.168 371.122C258.161 369.135 261.175 366.936 262.582 365.148C263.988 363.36 264.946 356.587 264.946 356.587C264.946 356.587 259.745 360.573 256.944 359.574C254.962 358.701 253.195 357.409 251.767 355.787Z" fill="white" stroke="#015B88" stroke-linecap="round" stroke-linejoin="round"/>
<path d="M260.04 330.585C256.636 331.079 253.315 332.773 252.357 336.077C251.553 338.864 251.175 348.025 250.962 352.6C250.75 357.175 253.161 362.961 255.158 363.56C256.826 364.149 258.621 364.287 260.359 363.96C261.364 363.56 265.974 357.386 267.168 356.187C268.361 354.987 271.966 343.839 271.966 339.864C272.055 337.903 271.498 335.967 270.38 334.35C269.262 332.733 267.645 331.523 265.773 330.903C263.905 330.398 261.952 330.29 260.04 330.585Z" fill="white" stroke="#015B88" stroke-linecap="round" stroke-linejoin="round"/>
<path d="M269.957 349.272C269.957 349.272 273.161 346.473 272.321 350.06C272.064 351.132 271.572 352.134 270.882 352.996C270.191 353.857 269.319 354.557 268.326 355.046L269.957 349.272Z" fill="white" stroke="#015B88" stroke-linecap="round" stroke-linejoin="round"/>
<path d="M251.341 345.438C251.341 345.438 248.977 343.251 248.977 346.238C249.068 348.194 249.77 350.072 250.986 351.612L251.341 345.438Z" fill="white" stroke="#015B88" stroke-linecap="round" stroke-linejoin="round"/>
<path d="M269.957 349.272C270.996 346.226 271.666 343.068 271.955 339.864C272.043 337.903 271.486 335.967 270.368 334.35C269.25 332.733 267.633 331.523 265.761 330.903C263.894 330.398 261.941 330.29 260.029 330.585C256.624 331.079 253.303 332.773 252.346 336.077C251.73 339.373 251.37 342.711 251.27 346.062C252.287 345.274 254.402 343.345 253.953 341.052C253.35 338.065 252.145 336.677 254.343 335.278C256.542 333.878 259.154 335.877 262.759 337.077C266.364 338.276 269.957 336.677 270.962 337.665C271.967 338.653 267.759 342.851 268.362 344.439C268.965 346.026 270.359 347.826 269.957 349.225V349.272Z" fill="#015B88" stroke="#015B88" stroke-linecap="round" stroke-linejoin="round"/>
<path d="M241.128 387.457C241.128 387.457 238.126 383.27 236.129 383.07C234.131 382.87 229.32 387.457 229.32 387.457H241.128Z" fill="white" stroke="#015B88" stroke-linecap="round" stroke-linejoin="round"/>
<path d="M260.146 387.845H262.96L263.551 393.431L260.548 392.631L260.146 387.845Z" fill="white" stroke="#015B88" stroke-linecap="round" stroke-linejoin="round"/>
<path d="M262.96 387.845L267.96 390.044L269.154 396.218L263.551 393.431L262.96 387.845Z" fill="white" stroke="#015B88" stroke-linecap="round" stroke-linejoin="round"/>
<path d="M278.952 398.664L250.336 387.516C248.687 388.322 247.139 389.321 245.726 390.491C244.892 391.326 244.275 392.351 243.93 393.478C243.93 393.478 257.535 403.239 264.142 406.226C270.749 409.213 280.359 410.212 281.955 408.578C283.55 406.943 283.137 400.816 282.156 399.816C281.625 399.272 281.02 398.805 280.359 398.429" fill="#015B88"/>
<path d="M278.952 398.664L250.336 387.516C248.687 388.322 247.139 389.321 245.726 390.491C244.892 391.326 244.275 392.351 243.93 393.478C243.93 393.478 257.535 403.239 264.142 406.226C270.749 409.213 280.359 410.212 281.955 408.578C283.55 406.943 283.137 400.816 282.156 399.816C281.625 399.272 281.02 398.805 280.359 398.429" stroke="#015B88" stroke-linecap="round" stroke-linejoin="round"/>
<path d="M260.147 386.904L260.549 392.678C260.549 392.678 239.533 397.453 231.731 398.852C223.93 400.252 219.722 399.24 218.528 395.665C217.335 392.09 221.33 387.692 223.126 386.704C224.923 385.716 260.147 386.904 260.147 386.904Z" fill="#015B88" stroke="#015B88" stroke-linecap="round" stroke-linejoin="round"/>
</g>
<mask id="mask4_549_2817" style="mask-type:luminance" maskUnits="userSpaceOnUse" x="143" y="324" width="65" height="95">
<path d="M207.027 324.988H143.826V418.174H207.027V324.988Z" fill="white"/>
</mask>
<g mask="url(#mask4_549_2817)">
<path d="M182.844 373.251C182.844 373.251 190.858 375.238 194.061 376.238C197.264 377.237 198.257 378.425 198.257 380.812C198.257 383.2 196.46 393.748 196.46 395.348V406.108C196.46 409.095 199.463 420.044 199.463 420.044H160.457C160.457 420.044 156.06 403.321 153.057 394.172C150.055 385.022 149.653 381.824 152.656 380.424C159.792 377.822 167.074 375.631 174.463 373.862C177.239 373.464 180.039 373.259 182.844 373.251Z" fill="#FAA11F" stroke="#015B88" stroke-miterlimit="10"/>
<path d="M194.463 386.387C194.463 386.387 196.827 397.347 196.059 401.322C195.29 405.297 189.853 420.443 189.853 420.443" stroke="#015B88" stroke-linecap="round" stroke-linejoin="round"/>
<path d="M152.632 380.412C152.632 380.412 149.086 381.012 150.031 385.599C150.977 390.185 146.426 419.832 146.426 419.832H155.232C155.232 419.832 161.237 404.097 162.23 400.322C163.222 396.547 164.038 393.548 162.23 390.361" fill="#FAA11F"/>
<path d="M152.632 380.412C152.632 380.412 149.086 381.012 150.031 385.599C150.977 390.185 146.426 419.832 146.426 419.832H155.232C155.232 419.832 161.237 404.097 162.23 400.322C163.222 396.547 164.038 393.548 162.23 390.361" stroke="#015B88" stroke-miterlimit="10"/>
<path d="M189.924 353.858L191.236 394.419H179.404V357.351L189.924 353.858Z" fill="#015B88" stroke="#015B88" stroke-linecap="round" stroke-linejoin="round"/>
<path d="M174.641 383.011C174.641 383.011 178.045 398.299 179.452 402.921C180.858 407.543 181.047 418.209 180.634 419.644C180.22 421.079 185.633 419.644 185.633 419.644C185.633 419.644 187.04 409.06 187.844 402.921C188.647 396.782 186.236 385.199 186.236 385.199L183.636 375.038L173.825 376.837L174.641 383.011Z" fill="white" stroke="#015B88" stroke-linecap="round" stroke-linejoin="round"/>
<path d="M183.21 366.277C182.652 369.447 182.72 372.694 183.411 375.838C184.593 380.224 187.82 388.186 185.018 390.373C182.217 392.561 178.411 391.373 176.413 387.386C174.416 383.4 172.607 373.451 172.607 365.289C172.607 357.128 173.411 355.728 176.213 355.728C179.014 355.728 183.21 366.277 183.21 366.277Z" fill="white" stroke="#015B88" stroke-linecap="round" stroke-linejoin="round"/>
<path d="M177.442 362.502C175.642 364.059 173.525 365.21 171.236 365.877C168.234 366.477 166.638 358.515 166.236 350.589C165.835 342.663 167.844 338.241 172.04 336.254C176.236 334.266 186.449 335.254 190.456 336.842C194.463 338.429 199.261 341.028 199.261 345.203C199.261 349.378 193.848 352.8 192.252 353.741C190.657 354.682 186.85 356.093 184.451 358.515C182.378 360.257 180.002 361.608 177.442 362.502Z" fill="#015B88" stroke="#015B88" stroke-linecap="round" stroke-linejoin="round"/>
<path d="M177.442 362.502C177.442 362.502 179.806 368.476 184.25 368.664C188.695 368.852 193.706 358.715 193.86 354.329C194.014 349.942 189.451 342.381 189.451 342.381C189.451 342.381 181.65 360.103 177.442 362.502Z" fill="white" stroke="#015B88" stroke-linecap="round" stroke-linejoin="round"/>
<path d="M176.248 353.541L176.638 396.547H163.234L166.237 346.567" fill="#015B88"/>
<path d="M176.248 353.541L176.638 396.547H163.234L166.237 346.567" stroke="#015B88" stroke-linecap="round" stroke-linejoin="round"/>
</g>
</svg>