<svg xmlns="http://www.w3.org/2000/svg" fill="none" viewBox="21.33 55.38 479.48 417.75">
<path d="M67.6031 396.12C71.9091 394.152 76.7481 393.577 81.4131 394.48C83.9165 394.89 86.5431 395.62 88.236 397.48C89.9289 399.34 90.288 402.54 88.3078 404.12C87.0464 404.953 85.525 405.328 84.0089 405.18C80.3563 405.18 76.3036 404.51 73.3898 406.65C71.7277 407.88 70.6196 409.91 68.6291 410.51C67.6395 410.723 66.6058 410.619 65.6816 410.214C64.7574 409.808 63.992 409.123 63.4991 408.26C62.5498 406.478 62.3368 404.41 62.9041 402.48C63.1336 401.139 63.677 399.868 64.4919 398.765C65.3068 397.662 66.3714 396.757 67.6031 396.12Z" fill="#FAA11F"/>
<path d="M57.9793 378C60.5545 381.58 65.5409 380.39 67.8596 378.21C70.1784 376.03 71.1531 372.87 72.0355 369.85C74.0875 362.96 76.1395 355.73 74.6107 348.71C74.2395 346.592 73.2736 344.616 71.82 343C71.0974 342.187 70.1678 341.575 69.1249 341.223C68.082 340.872 66.9626 340.795 65.8795 341C63.3658 341.65 61.7755 344 60.6674 346.34C57.3316 353.086 55.5792 360.471 55.5374 367.96C55.5374 371.44 55.9478 375.1 57.9587 377.96" fill="#FAA11F"/>
<path d="M50.9306 383.14C53.7214 379.92 54.2446 375.21 52.9826 371.14C51.577 367.125 49.0594 363.567 45.7083 360.86C41.9064 357.563 37.4849 355.016 32.6884 353.36C30.8308 352.624 28.8335 352.283 26.8299 352.36C25.8288 352.416 24.8568 352.709 23.9985 353.215C23.1402 353.72 22.4216 354.422 21.9051 355.26C20.5405 357.81 21.8538 360.9 23.2799 363.43C25.775 367.891 28.6258 372.154 31.806 376.18C34.371 379.41 37.3156 382.59 41.2247 384.04C45.1337 385.49 49.248 385.33 51.3 382.69" fill="#FAA11F"/>
<path d="M57.8048 431.94C57.9491 431.411 58.0283 430.867 58.0408 430.32C58.1639 429.14 58.3076 427.65 58.482 425.89C58.7102 423.704 59.0527 421.532 59.508 419.38C60.1045 416.765 60.9142 414.2 61.9293 411.71C62.9297 409.221 64.2836 406.882 65.9513 404.76C67.3256 403.032 69.0782 401.624 71.0813 400.64C72.4281 399.989 73.8721 399.551 75.3597 399.34C75.9209 399.325 76.4786 399.248 77.0218 399.11C76.4591 399.052 75.8916 399.052 75.3289 399.11C73.7606 399.208 72.2238 399.584 70.794 400.22C68.7007 401.181 66.864 402.602 65.428 404.37C63.6882 406.52 62.2845 408.909 61.2624 411.46C60.2278 413.987 59.4211 416.597 58.8513 419.26C58.4236 421.434 58.1289 423.632 57.969 425.84C57.8253 427.72 57.774 429.25 57.7433 430.3C57.7105 430.847 57.7311 431.396 57.8048 431.94Z" fill="#E0E0E0"/>
<path d="M58.1229 428.53C58.1537 428.281 58.1537 428.029 58.1229 427.78V425.62C58.1229 423.75 58.1229 421.04 58.2152 417.7C58.3896 411.02 58.9744 403.82 60.1236 393.7C61.1496 384.16 62.6475 373.06 64.2276 365.84C64.5559 364.2 64.8945 362.72 65.2023 361.43C65.5101 360.14 65.7563 359.01 65.9923 358.11C66.2283 357.21 66.3719 356.56 66.5155 356.01C66.5899 355.769 66.6347 355.521 66.6489 355.27C66.5314 355.492 66.4418 355.727 66.3822 355.97C66.2077 356.52 66.0025 357.2 65.7358 358.04C65.469 358.88 65.1612 360.04 64.8226 361.34C64.4841 362.64 64.1147 364.1 63.7966 365.74C61.8918 374.269 60.4602 382.891 59.508 391.57C58.3691 401.73 57.8458 410.99 57.8048 417.69C57.8048 421.04 57.8048 423.76 57.9279 425.63C57.9279 426.5 58.0203 427.22 58.0613 427.78C58.0551 428.031 58.0758 428.283 58.1229 428.53Z" fill="#E0E0E0"/>
<path d="M58.1639 410.68C58.2265 409.931 58.2265 409.179 58.1639 408.43C58.0337 406.386 57.7974 404.35 57.456 402.33C56.9421 399.332 56.2571 396.364 55.404 393.44C54.4045 389.845 53.1287 386.328 51.5873 382.92C48.9411 376.638 45.1446 370.878 40.3834 365.92C39.5608 365.069 38.6798 364.274 37.7465 363.54C37.3464 363.2 36.9873 362.87 36.6282 362.61L35.6022 361.92C34.9887 361.469 34.3404 361.064 33.6631 360.71C35.8952 362.427 38.0162 364.277 40.014 366.25C44.611 371.253 48.3024 376.981 50.9306 383.19C52.4502 386.575 53.7323 390.056 54.7679 393.61C55.6425 396.506 56.3651 399.443 56.9327 402.41C57.415 404.94 57.692 407.01 57.8561 408.41C57.9021 409.173 58.005 409.932 58.1639 410.68Z" fill="#E0E0E0"/>
<path d="M40.4654 442.17L42.302 466.68H74.6005L76.437 442.17H40.4654Z" fill="#E0E0E0"/>
<path d="M80.2948 432.51H37.3464V442.17H80.2948V432.51Z" fill="#E0E0E0"/>
<path d="M37.3464 465.74V468.42H39.3676H79.5868V465.74H37.3464Z" fill="#EBEBEB"/>
<path d="M41.3375 473.13L39.3676 468.42H78.0478L75.7393 473.13H41.3375Z" fill="#E0E0E0"/>
<path d="M75.8419 450.18L75.688 450.41C75.5547 450.57 75.4008 450.78 75.2058 451.03L73.3283 453.38L73.2359 453.48L73.1538 453.37L68.5368 447.14H68.8036L64.2481 453.42L64.1045 453.62L63.9506 453.43C62.268 451.49 60.4417 449.37 58.5538 447.17H58.8616L58.5641 447.53L53.7419 453.43L53.5777 453.63L53.4238 453.42C51.7925 451.16 50.2535 449.05 48.8684 447.14H49.1352L43.5332 453.36L43.4306 453.47L43.3588 453.35C42.6098 452.14 42.025 451.17 41.5941 450.47L41.1426 449.71C41.0907 449.624 41.0461 449.533 41.0092 449.44C41.0092 449.44 41.0811 449.51 41.1939 449.68L41.6967 450.41L43.5435 453.24H43.369L48.8787 446.94L49.0223 446.78L49.1454 446.95L53.7419 453.2H53.4341L58.246 447.29L58.5436 446.93L58.6975 446.74L58.8616 446.92L64.2379 453.19H63.9403C65.6025 450.93 67.1415 448.82 68.5368 446.94L68.6702 446.75L68.8036 446.94L73.3283 453.24H73.1641L75.1238 451L75.647 450.41C75.7701 450.24 75.8317 450.17 75.8419 450.18Z" fill="#F5F5F5"/>
<path d="M76.8884 442C76.8884 442.11 68.7933 442.2 58.8103 442.2C48.8273 442.2 40.7322 442.11 40.7322 442C40.7322 441.89 48.8273 441.8 58.8103 441.8C68.7933 441.8 76.8884 441.9 76.8884 442Z" fill="#F5F5F5"/>
<path d="M78.5198 468.68C78.5198 468.79 69.7269 468.88 58.8719 468.88C48.0168 468.88 39.224 468.79 39.224 468.68C39.224 468.57 48.0168 468.49 58.8719 468.49C69.7269 468.49 78.5198 468.57 78.5198 468.68Z" fill="#F5F5F5"/>
<path d="M432.736 55.38H29.7335V290.46H432.736V55.38Z" fill="#F5F5F5"/>
<path d="M448.762 386.12H358.023V471.69H448.762V386.12Z" fill="#F5F5F5"/>
<path d="M365.061 464.36L390.157 420.33L410.687 448.47L423.163 433.53L441.724 464.36H365.061Z" fill="#E0E0E0"/>
<path d="M419.439 411.77C419.439 413.03 419.056 414.261 418.337 415.309C417.619 416.357 416.599 417.173 415.404 417.655C414.21 418.137 412.896 418.263 411.628 418.018C410.36 417.772 409.196 417.165 408.282 416.274C407.368 415.383 406.745 414.248 406.493 413.013C406.241 411.777 406.37 410.496 406.865 409.332C407.36 408.168 408.198 407.173 409.272 406.474C410.347 405.774 411.611 405.4 412.903 405.4C414.637 405.4 416.299 406.071 417.525 407.266C418.75 408.46 419.439 410.081 419.439 411.77Z" fill="#E0E0E0"/>
<g opacity="0.3">
<path d="M441.724 464.6C441.724 464.6 441.724 464.47 441.724 464.25C441.724 464.03 441.724 463.67 441.724 463.25C441.724 462.34 441.724 461.06 441.724 459.4C441.724 456.01 441.672 451.1 441.631 444.87C441.58 432.37 441.519 414.57 441.437 393.2L441.806 393.57L365.143 393.63C365.041 393.71 365.954 392.83 365.574 393.22V402.89C365.574 406.09 365.574 409.27 365.574 412.41C365.574 418.7 365.574 424.86 365.574 430.85C365.574 442.85 365.574 454.17 365.574 464.59L365.205 464.22L420.609 464.41L436.245 464.5L440.349 464.55H441.426C441.549 464.542 441.673 464.542 441.796 464.55C441.686 464.56 441.576 464.56 441.467 464.55H440.441H436.337L420.783 464.65L365.112 464.84H364.733V464.47C364.733 454.05 364.733 442.72 364.733 430.73C364.733 424.73 364.733 418.58 364.733 412.29V393.23L365.174 392.79L441.837 392.85H442.216V393.21C442.134 414.68 442.073 432.55 442.021 445.11C442.021 451.3 441.95 456.18 441.929 459.56C441.929 461.18 441.929 462.45 441.878 463.34C441.878 463.74 441.878 464.05 441.878 464.34C441.84 464.434 441.788 464.521 441.724 464.6Z" fill="#E0E0E0"/>
</g>
<path d="M453.41 79.56H45.934V305.33H453.41V79.56Z" fill="#E0E0E0"/>
<path d="M500.811 472.09C500.811 472.24 393.717 472.35 261.64 472.35C129.563 472.35 22.4489 472.24 22.4489 472.09C22.4489 471.94 129.522 471.83 261.64 471.83C393.758 471.83 500.811 472 500.811 472.09Z" fill="#263238"/>
<path d="M445.797 388.84C447.26 389.499 448.571 390.439 449.652 391.604C450.732 392.769 451.561 394.135 452.086 395.62C453.119 398.6 453.439 401.771 453.02 404.89C452.394 410.89 448.916 417.04 445.243 421.89C439.98 417.53 438.687 409.82 438.287 405.89C437.651 399.65 440.39 387.99 445.797 388.89" fill="#FAA11F"/>
<path d="M451.44 431.76C451.069 430.044 451.167 428.262 451.725 426.595C452.284 424.928 453.282 423.433 454.621 422.26C455.985 421.115 457.569 420.245 459.281 419.703C460.993 419.16 462.799 418.955 464.593 419.1C466.245 419.2 468.041 419.65 469.005 420.97C469.42 421.612 469.651 422.35 469.672 423.109C469.694 423.867 469.506 424.617 469.128 425.28C468.358 426.606 467.239 427.707 465.886 428.47C461.413 431.28 456.56 433.19 451.44 431.76Z" fill="#FAA11F"/>
<path d="M442.709 435.26C441.929 431.637 440.274 428.247 437.881 425.373C435.488 422.498 432.427 420.221 428.95 418.73C427.175 417.99 424.846 417.56 423.512 418.87C422.178 420.18 422.548 422.44 423.327 424.17C425.009 427.74 427.737 430.745 431.168 432.808C434.598 434.87 438.578 435.897 442.606 435.76" fill="#FAA11F"/>
<path d="M444.309 450.67C444.335 450.245 444.4 449.823 444.504 449.41C444.648 448.61 444.884 447.41 445.212 446.02C445.994 442.277 447.274 438.65 449.019 435.23C450.808 431.792 453.507 428.881 456.837 426.8C457.851 426.192 458.936 425.706 460.069 425.35C460.375 425.249 460.686 425.165 461.002 425.1C461.112 425.066 461.226 425.046 461.341 425.04C459.823 425.557 458.365 426.227 456.991 427.04C453.764 429.155 451.147 432.04 449.388 435.42C447.657 438.813 446.348 442.395 445.489 446.09L444.658 449.44C444.566 449.856 444.449 450.267 444.309 450.67Z" fill="#263238"/>
<path d="M444.514 397.9C444.563 398.076 444.587 398.258 444.586 398.44C444.586 398.83 444.648 399.35 444.689 399.99C444.781 401.34 444.884 403.29 444.986 405.7C445.202 410.52 445.407 417.19 445.469 424.56C445.53 431.93 445.469 438.56 445.284 443.42C445.212 445.84 445.14 447.79 445.079 449.14C445.079 449.78 445.017 450.3 444.997 450.69C444.99 450.871 444.969 451.052 444.935 451.23C444.922 451.05 444.922 450.87 444.935 450.69C444.935 450.29 444.935 449.78 444.935 449.13C444.935 447.74 444.986 445.8 445.017 443.42C445.079 438.59 445.14 431.93 445.079 424.56C445.017 417.19 444.863 410.56 444.72 405.71C444.648 403.33 444.597 401.39 444.556 400C444.556 399.35 444.556 398.84 444.556 398.44C444.524 398.262 444.51 398.081 444.514 397.9Z" fill="#263238"/>
<path d="M430.109 424.33C430.503 424.46 430.885 424.624 431.248 424.82C431.696 425.011 432.128 425.235 432.541 425.49C433.103 425.794 433.648 426.128 434.172 426.49L435.086 427.13C435.404 427.36 435.711 427.63 436.03 427.89C436.696 428.41 437.322 429.04 438.01 429.69C439.419 431.166 440.67 432.777 441.744 434.5C442.778 436.242 443.62 438.086 444.258 440C444.533 440.837 444.759 441.688 444.935 442.55C445.007 442.95 445.11 443.34 445.161 443.72C445.212 444.1 445.253 444.46 445.305 444.81C445.407 445.51 445.407 446.14 445.438 446.7C445.47 447.176 445.47 447.654 445.438 448.13C445.433 448.535 445.399 448.94 445.335 449.34C445.233 449.34 445.397 447.6 445.038 444.85C444.986 444.5 444.925 444.14 444.874 443.77C444.822 443.4 444.709 443.02 444.617 442.62C444.463 441.82 444.186 440.99 443.919 440.11C442.66 436.32 440.558 432.847 437.763 429.94C437.097 429.29 436.491 428.65 435.845 428.13C435.527 427.87 435.229 427.6 434.921 427.37L434.039 426.71C431.7 425.1 430.058 424.41 430.109 424.33Z" fill="#263238"/>
<path d="M454.959 472.09H436.112L432.264 445.17H458.55L454.959 472.09Z" fill="#263238"/>
<path d="M456.857 457.58C456.857 457.72 451.727 457.84 445.489 457.84C439.251 457.84 434.121 457.72 434.121 457.58C434.121 457.44 439.251 457.32 445.489 457.32C451.727 457.32 456.857 457.44 456.857 457.58Z" fill="#FAFAFA"/>
<path d="M456.857 459.18C456.857 459.32 451.727 459.44 445.489 459.44C439.251 459.44 434.121 459.32 434.121 459.18C434.121 459.04 439.251 458.92 445.489 458.92C451.727 458.92 456.857 459 456.857 459.18Z" fill="#FAFAFA"/>
<path d="M398.693 472L254.971 472.06C254.683 472.061 254.398 472.007 254.132 471.901C253.865 471.794 253.623 471.638 253.419 471.44C253.215 471.242 253.053 471.007 252.943 470.747C252.832 470.488 252.776 470.211 252.776 469.93V385.32C252.776 385.039 252.832 384.762 252.943 384.503C253.053 384.243 253.215 384.008 253.419 383.81C253.623 383.612 253.865 383.456 254.132 383.349C254.398 383.243 254.683 383.189 254.971 383.19L398.693 383.12C399.274 383.123 399.83 383.349 400.239 383.75C400.649 384.151 400.879 384.694 400.879 385.26V469.86C400.879 470.426 400.649 470.969 400.239 471.37C399.83 471.771 399.274 471.997 398.693 472Z" fill="#263238"/>
<path d="M328.351 418.68L340.509 425.05L328.843 432.54L317.167 440.04L316.685 426.17L316.193 412.3L328.351 418.68Z" fill="white"/>
<path d="M390.178 463.15C390.178 463.3 361.809 463.43 326.822 463.44C291.835 463.45 263.467 463.35 263.467 463.21C263.467 463.07 291.825 462.94 326.822 462.92C361.819 462.9 390.178 463 390.178 463.15Z" fill="white"/>
<path d="M265.734 463.21C265.734 463.519 265.64 463.82 265.464 464.077C265.288 464.333 265.038 464.533 264.746 464.651C264.454 464.769 264.132 464.8 263.821 464.74C263.511 464.68 263.226 464.531 263.002 464.313C262.778 464.095 262.625 463.817 262.564 463.514C262.502 463.212 262.534 462.898 262.655 462.613C262.776 462.328 262.981 462.084 263.244 461.913C263.507 461.741 263.817 461.65 264.133 461.65C264.558 461.65 264.965 461.814 265.265 462.107C265.565 462.399 265.734 462.796 265.734 463.21Z" fill="white"/>
<path d="M376.234 471.78L223.606 471.85C223.024 471.85 222.466 471.625 222.054 471.223C221.642 470.822 221.411 470.278 221.411 469.71V379.76C221.411 379.479 221.468 379.202 221.578 378.943C221.689 378.683 221.85 378.448 222.054 378.25C222.258 378.052 222.501 377.896 222.767 377.789C223.033 377.683 223.319 377.629 223.606 377.63L376.234 377.56C376.815 377.56 377.372 377.784 377.783 378.183C378.194 378.582 378.427 379.124 378.43 379.69V469.69C378.419 470.25 378.183 470.783 377.772 471.174C377.361 471.565 376.808 471.783 376.234 471.78Z" fill="#003C96"/>
<path d="M301.531 415.22L314.428 421.97L302.054 429.92L289.681 437.87L289.168 423.17L288.645 408.46L301.531 415.22Z" fill="white"/>
<path d="M367.082 462.37C367.082 462.52 337.01 462.65 299.92 462.66C262.83 462.67 232.748 462.58 232.748 462.43C232.748 462.28 262.82 462.16 299.92 462.14C337.02 462.12 367.082 462.23 367.082 462.37Z" fill="white"/>
<path d="M235.087 462.43C235.087 462.756 234.988 463.075 234.802 463.347C234.616 463.618 234.352 463.83 234.042 463.954C233.733 464.079 233.393 464.112 233.064 464.048C232.736 463.985 232.434 463.827 232.197 463.597C231.961 463.366 231.799 463.072 231.734 462.752C231.669 462.432 231.702 462.1 231.83 461.799C231.959 461.497 232.176 461.239 232.454 461.058C232.732 460.877 233.06 460.78 233.394 460.78C233.843 460.78 234.274 460.954 234.592 461.263C234.909 461.573 235.087 461.992 235.087 462.43Z" fill="white"/>
<path d="M317.68 418.01H231.979C230.766 418.01 229.783 418.968 229.783 420.15V469.93C229.783 471.112 230.766 472.07 231.979 472.07H317.68C318.893 472.07 319.876 471.112 319.876 469.93V420.15C319.876 418.968 318.893 418.01 317.68 418.01Z" fill="#FAA11F"/>
<path d="M275.768 439.6L283.166 443.47L276.066 448.03L268.966 452.6L268.668 444.16L268.371 435.72L275.768 439.6Z" fill="white"/>
<path d="M313.381 466.66C313.381 466.8 296.124 466.92 274.845 466.93C253.566 466.94 236.298 466.83 236.298 466.69C236.298 466.55 253.555 466.42 274.845 466.41C296.134 466.4 313.381 466.51 313.381 466.66Z" fill="white"/>
<path d="M237.642 466.69C237.642 466.878 237.585 467.062 237.477 467.219C237.37 467.375 237.217 467.497 237.038 467.569C236.859 467.64 236.663 467.658 236.473 467.621C236.284 467.583 236.11 467.492 235.975 467.358C235.839 467.224 235.747 467.054 235.71 466.869C235.674 466.684 235.695 466.493 235.77 466.319C235.845 466.146 235.972 465.998 236.133 465.895C236.295 465.792 236.484 465.738 236.678 465.74C236.934 465.743 237.18 465.844 237.36 466.022C237.541 466.2 237.642 466.44 237.642 466.69Z" fill="white"/>
<path d="M465.004 104.37H61.5497V354.87H465.004V104.37Z" fill="white"/>
<path d="M465.28 353.91C465.28 351.98 465.198 257.14 465.065 103.41L465.28 103.65L61.8675 103.72L62.1548 103.41C62.1548 192.07 62.1548 276.78 62.1548 353.91L61.8881 353.62L465.332 353.91L61.8881 354.2H61.5597V353.91C61.5597 276.78 61.5597 192.07 61.5597 103.41V103.1H61.8881L465.301 103.17H465.527V103.41C465.373 257.14 465.291 352 465.28 353.91Z" fill="#263238"/>
<path d="M465.517 118.43C465.517 118.58 375.085 118.71 263.569 118.71C152.053 118.71 61.5597 118.58 61.5597 118.43C61.5597 118.28 151.971 118.14 263.528 118.14C375.085 118.14 465.517 118.27 465.517 118.43Z" fill="#263238"/>
<path d="M74.898 109.15C74.898 109.652 74.7452 110.143 74.4588 110.561C74.1725 110.979 73.7655 111.304 73.2893 111.497C72.8131 111.689 72.2891 111.739 71.7836 111.641C71.278 111.543 70.8137 111.301 70.4492 110.946C70.0848 110.591 69.8366 110.138 69.736 109.646C69.6354 109.153 69.6871 108.642 69.8843 108.178C70.0815 107.714 70.4156 107.317 70.8441 107.038C71.2727 106.759 71.7765 106.61 72.292 106.61C72.9831 106.61 73.646 106.878 74.1347 107.354C74.6234 107.83 74.898 108.476 74.898 109.15Z" fill="#263238"/>
<path d="M82.8906 109.15C82.8906 109.652 82.7377 110.143 82.4514 110.561C82.165 110.979 81.758 111.304 81.2818 111.497C80.8056 111.689 80.2816 111.739 79.7761 111.641C79.2706 111.543 78.8062 111.301 78.4418 110.946C78.0773 110.591 77.8291 110.138 77.7285 109.646C77.628 109.153 77.6796 108.642 77.8768 108.178C78.0741 107.714 78.4081 107.317 78.8367 107.038C79.2652 106.759 79.7691 106.61 80.2845 106.61C80.6267 106.61 80.9656 106.676 81.2818 106.803C81.598 106.931 81.8853 107.118 82.1273 107.354C82.3693 107.59 82.5612 107.87 82.6922 108.178C82.8231 108.486 82.8906 108.816 82.8906 109.15Z" fill="#263238"/>
<path d="M90.842 109.15C90.842 109.652 90.6892 110.143 90.4028 110.561C90.1165 110.979 89.7095 111.304 89.2333 111.497C88.7571 111.689 88.2331 111.739 87.7276 111.641C87.2221 111.543 86.7577 111.301 86.3933 110.946C86.0288 110.591 85.7806 110.138 85.68 109.646C85.5795 109.153 85.6311 108.642 85.8283 108.178C86.0256 107.714 86.3596 107.317 86.7882 107.038C87.2167 106.759 87.7206 106.61 88.236 106.61C88.9272 106.61 89.59 106.878 90.0788 107.354C90.5675 107.83 90.842 108.476 90.842 109.15Z" fill="#263238"/>
<path d="M171.814 253.4H88.6156V331.86H171.814V253.4Z" fill="#FAA11F"/>
<g opacity="0.3">
<path d="M95.0692 325.15L118.082 284.77L136.909 310.58L148.349 296.87L165.371 325.15H95.0692Z" fill="black"/>
</g>
<g opacity="0.3">
<path d="M144.933 276.92C144.935 278.075 144.585 279.206 143.928 280.167C143.271 281.129 142.336 281.879 141.241 282.323C140.146 282.766 138.941 282.883 137.778 282.659C136.615 282.435 135.547 281.879 134.708 281.063C133.869 280.247 133.297 279.206 133.065 278.073C132.833 276.94 132.951 275.765 133.404 274.697C133.857 273.63 134.625 272.717 135.611 272.075C136.597 271.433 137.755 271.09 138.941 271.09C140.527 271.093 142.048 271.707 143.171 272.8C144.294 273.892 144.927 275.374 144.933 276.92Z" fill="black"/>
</g>
<g opacity="0.3">
<path d="M165.371 325.36C165.355 325.254 165.355 325.146 165.371 325.04C165.371 324.81 165.371 324.51 165.371 324.13C165.371 323.29 165.371 322.13 165.371 320.6C165.371 317.49 165.371 312.99 165.278 307.27C165.278 295.81 165.176 279.49 165.104 259.9L165.453 260.23L95.1512 260.29L95.5411 259.91V277.53C95.5411 283.29 95.5411 288.94 95.5411 294.43C95.5411 305.43 95.5411 315.81 95.5411 325.36L95.2025 325.03L146.031 325.2L160.395 325.29H164.201H165.227H165.576C165.474 325.305 165.37 325.305 165.268 325.29H164.314H160.579L146.318 325.38L95.2744 325.55H94.9255V325.21C94.9255 315.66 94.9255 305.27 94.9255 294.28C94.9255 288.79 94.9255 283.14 94.9255 277.38V259.91L95.3257 259.52L165.627 259.57H165.966V259.9C165.894 279.58 165.832 295.97 165.791 307.48C165.791 313.17 165.72 317.64 165.699 320.73C165.699 322.22 165.699 323.38 165.699 324.2C165.699 324.57 165.699 324.85 165.699 325.08C165.598 325.182 165.488 325.275 165.371 325.36Z" fill="black"/>
</g>
<path d="M239.674 268.33H183.356V271.09H239.674V268.33Z" fill="#FAA11F"/>
<path d="M259.25 280.17C259.25 280.33 242.331 280.46 221.472 280.46C200.614 280.46 183.695 280.33 183.695 280.17C183.695 280.01 200.603 279.89 221.472 279.89C242.341 279.89 259.25 280 259.25 280.17Z" fill="#263238"/>
<path d="M259.25 287.87C259.25 288.03 242.331 288.16 221.472 288.16C200.614 288.16 183.654 288 183.654 287.87C183.654 287.74 200.563 287.59 221.431 287.59C242.3 287.59 259.25 287.72 259.25 287.87Z" fill="#263238"/>
<path d="M259.25 295.57C259.25 295.73 242.331 295.85 221.472 295.85C200.614 295.85 183.695 295.73 183.695 295.57C183.695 295.41 200.603 295.29 221.472 295.29C242.341 295.29 259.25 295.41 259.25 295.57Z" fill="#263238"/>
<path d="M259.25 303.27C259.25 303.42 242.331 303.55 221.472 303.55C200.614 303.55 183.695 303.42 183.695 303.27C183.695 303.12 200.603 302.99 221.472 302.99C242.341 302.99 259.25 303.11 259.25 303.27Z" fill="#263238"/>
<path d="M259.25 311C259.25 311.15 242.331 311.28 221.472 311.28C200.614 311.28 183.654 311.12 183.654 311C183.654 310.88 200.563 310.71 221.431 310.71C242.3 310.71 259.25 310.81 259.25 311Z" fill="#263238"/>
<path d="M222.498 318C222.498 318.15 213.808 318.28 203.097 318.28C192.385 318.28 183.654 318.19 183.654 318C183.654 317.81 192.344 317.71 203.056 317.71C213.767 317.71 222.498 317.88 222.498 318Z" fill="#263238"/>
<path d="M421.594 263.68H365.277V266.44H421.594V263.68Z" fill="#FAA11F"/>
<path d="M441.18 275.53C441.18 275.69 424.261 275.81 403.403 275.81C382.544 275.81 365.625 275.69 365.625 275.53C365.625 275.37 382.534 275.25 403.403 275.25C424.272 275.25 441.18 275.37 441.18 275.53Z" fill="#263238"/>
<path d="M441.18 283.23C441.18 283.39 424.261 283.51 403.403 283.51C382.544 283.51 365.625 283.39 365.625 283.23C365.625 283.07 382.534 282.95 403.403 282.95C424.272 282.95 441.18 283.07 441.18 283.23Z" fill="#263238"/>
<path d="M441.18 290.93C441.18 291.08 424.261 291.21 403.403 291.21C382.544 291.21 365.625 291.08 365.625 290.93C365.625 290.78 382.534 290.64 403.403 290.64C424.272 290.64 441.18 290.77 441.18 290.93Z" fill="#263238"/>
<path d="M441.18 298.63C441.18 298.78 424.261 298.91 403.403 298.91C382.544 298.91 365.625 298.78 365.625 298.63C365.625 298.48 382.534 298.34 403.403 298.34C424.272 298.34 441.18 298.47 441.18 298.63Z" fill="#263238"/>
<path d="M441.18 306.32C441.18 306.48 424.261 306.61 403.403 306.61C382.544 306.61 365.625 306.48 365.625 306.32C365.625 306.16 382.534 306.04 403.403 306.04C424.272 306.04 441.18 306.17 441.18 306.32Z" fill="#263238"/>
<path d="M404.418 313.4C404.418 313.55 395.728 313.68 385.017 313.68C374.305 313.68 365.615 313.55 365.615 313.4C365.615 313.25 374.305 313.11 385.017 313.11C395.728 313.11 404.418 313.24 404.418 313.4Z" fill="#263238"/>
<path d="M353.642 334.51C354.543 334.237 355.492 334.141 356.432 334.23C355.847 334.8 356.268 334.39 356.135 334.51V334V333.49C356.135 333.163 356.155 332.873 356.196 332.62C356.248 332.13 356.319 331.83 356.401 331.83C356.484 331.83 356.555 332.13 356.607 332.62C356.607 332.873 356.627 333.163 356.668 333.49V334.49L356.381 334.78C355.458 334.874 354.526 334.782 353.642 334.51Z" fill="#263238"/>
<path d="M341.658 334.51C343.63 334.137 345.657 334.137 347.629 334.51C345.659 334.897 343.629 334.897 341.658 334.51Z" fill="#263238"/>
<path d="M329.757 334.51C331.729 334.137 333.756 334.137 335.728 334.51C333.757 334.897 331.727 334.897 329.757 334.51Z" fill="#263238"/>
<path d="M317.814 334.51C319.786 334.137 321.813 334.137 323.785 334.51C321.814 334.897 319.784 334.897 317.814 334.51Z" fill="#263238"/>
<path d="M305.871 334.51C307.843 334.137 309.87 334.137 311.842 334.51C309.872 334.897 307.842 334.897 305.871 334.51Z" fill="#263238"/>
<path d="M293.929 334.51C295.901 334.137 297.928 334.137 299.9 334.51C297.929 334.897 295.899 334.897 293.929 334.51Z" fill="#263238"/>
<path d="M281.986 334.51C283.958 334.137 285.985 334.137 287.957 334.51C285.987 334.897 283.957 334.897 281.986 334.51Z" fill="#263238"/>
<path d="M273.224 331.8C273.516 332.673 273.618 333.596 273.521 334.51L273.224 334.23H274.311L275.204 334.29C275.707 334.35 276.015 334.42 276.015 334.49C276.015 334.56 275.707 334.64 275.204 334.7L274.311 334.76H273.224C273.101 334.63 273.521 335.04 272.937 334.47C272.852 333.57 272.949 332.663 273.224 331.8Z" fill="#263238"/>
<path d="M273.224 320.56C273.621 322.413 273.621 324.327 273.224 326.18C272.841 324.325 272.841 322.415 273.224 320.56Z" fill="#263238"/>
<path d="M273.224 309.33C273.621 311.183 273.621 313.097 273.224 314.95C272.841 313.095 272.841 311.185 273.224 309.33Z" fill="#263238"/>
<path d="M273.224 298.1C273.621 299.95 273.621 301.86 273.224 303.71C272.944 302.8 272.847 301.846 272.937 300.9C272.846 299.957 272.944 299.007 273.224 298.1Z" fill="#263238"/>
<path d="M273.224 286.86C273.621 288.713 273.621 290.627 273.224 292.48C272.841 290.625 272.841 288.715 273.224 286.86Z" fill="#263238"/>
<path d="M273.224 275.63C273.621 277.48 273.621 279.39 273.224 281.24C272.944 280.333 272.846 279.383 272.937 278.44C272.847 277.494 272.944 276.54 273.224 275.63Z" fill="#263238"/>
<path d="M273.224 264.39C273.621 266.243 273.621 268.157 273.224 270.01C272.841 268.155 272.841 266.245 273.224 264.39Z" fill="#263238"/>
<path d="M275.994 256.06C275.093 256.338 274.143 256.433 273.203 256.34L273.501 256.06V256.58V257.09C273.501 257.41 273.501 257.71 273.439 257.95C273.388 258.44 273.316 258.75 273.234 258.75C273.152 258.75 273.08 258.44 273.029 257.95C273.029 257.71 273.029 257.41 272.967 257.09C272.906 256.77 272.967 256.74 272.967 256.58V256.06L273.255 255.78C274.178 255.693 275.109 255.789 275.994 256.06Z" fill="#263238"/>
<path d="M287.957 256.06C285.985 256.433 283.958 256.433 281.986 256.06C283.958 255.687 285.985 255.687 287.957 256.06Z" fill="#263238"/>
<path d="M299.9 256.06C297.928 256.433 295.901 256.433 293.929 256.06C295.901 255.687 297.928 255.687 299.9 256.06Z" fill="#263238"/>
<path d="M311.842 256.06C309.87 256.433 307.843 256.433 305.871 256.06C307.843 255.687 309.87 255.687 311.842 256.06Z" fill="#263238"/>
<path d="M323.785 256.06C321.813 256.433 319.786 256.433 317.814 256.06C319.786 255.687 321.813 255.687 323.785 256.06Z" fill="#263238"/>
<path d="M335.728 256.06C333.756 256.433 331.729 256.433 329.757 256.06C331.729 255.687 333.756 255.687 335.728 256.06Z" fill="#263238"/>
<path d="M347.671 256.06C345.699 256.433 343.671 256.433 341.699 256.06C343.671 255.687 345.699 255.687 347.671 256.06Z" fill="#263238"/>
<path d="M356.432 258.78C356.14 257.903 356.039 256.977 356.135 256.06L356.432 256.34H355.868H355.345C355.006 256.34 354.709 256.34 354.452 256.28C353.949 256.23 353.642 256.16 353.642 256.08C353.642 256 353.949 255.93 354.452 255.88C354.712 255.88 355.01 255.86 355.345 255.82H355.868H356.432L356.72 256.1C356.803 257.003 356.705 257.913 356.432 258.78Z" fill="#263238"/>
<path d="M356.433 270C356.036 268.147 356.036 266.233 356.433 264.38C356.816 266.235 356.816 268.145 356.433 270Z" fill="#263238"/>
<path d="M356.433 281.24C356.036 279.39 356.036 277.48 356.433 275.63C356.712 276.54 356.81 277.494 356.72 278.44C356.81 279.383 356.713 280.333 356.433 281.24Z" fill="#263238"/>
<path d="M356.433 292.48C356.036 290.627 356.036 288.713 356.433 286.86C356.816 288.715 356.816 290.625 356.433 292.48Z" fill="#263238"/>
<path d="M356.433 303.71C356.036 301.86 356.036 299.95 356.433 298.1C356.713 299.007 356.81 299.957 356.72 300.9C356.81 301.846 356.712 302.8 356.433 303.71Z" fill="#263238"/>
<path d="M356.433 315C356.036 313.147 356.036 311.233 356.433 309.38C356.816 311.235 356.816 313.145 356.433 315Z" fill="#263238"/>
<path d="M356.433 326.18C356.036 324.327 356.036 322.413 356.433 320.56C356.816 322.415 356.816 324.325 356.433 326.18Z" fill="#263238"/>
<path d="M330.895 181.36C330.895 181.36 330.895 181.15 330.895 180.77C330.895 180.39 330.895 179.77 330.895 179.11C330.895 177.64 330.895 175.52 330.844 172.81C330.844 167.36 330.772 159.54 330.731 149.99L330.936 150.19L278.672 150.25C278.61 150.3 279.175 149.76 278.928 149.99V166.21C278.928 171.46 278.928 176.52 278.928 181.34L278.672 181.1L316.244 181.22L327.048 181.29H329.931H330.68C330.769 181.281 330.858 181.281 330.947 181.29H329.992H327.15L316.408 181.36L278.672 181.48H278.426V181.23C278.426 176.41 278.426 171.35 278.426 166.1V158.1C278.426 156.75 278.426 155.38 278.426 154.01V150C278.19 150.23 278.754 149.68 278.703 149.74L330.967 149.79H331.183V150C331.131 159.61 331.09 167.46 331.07 172.95C331.07 175.64 331.07 177.74 331.018 179.2C331.018 179.9 331.018 180.44 331.018 180.83C331.018 181.22 330.895 181.36 330.895 181.36Z" fill="#FAA11F"/>
<path d="M305.081 163.07L309.37 165.32L305.255 167.96L301.131 170.6L300.967 165.71L300.792 160.82L305.081 163.07Z" fill="#FAA11F"/>
<path d="M327.12 178.22C327.12 178.37 317.106 178.48 304.763 178.48C292.42 178.48 282.396 178.37 282.396 178.22C282.396 178.07 292.41 178 304.722 178C317.034 178 327.12 178.08 327.12 178.22Z" fill="#FAA11F"/>
<path d="M282.612 178.77C282.923 178.77 283.176 178.524 283.176 178.22C283.176 177.916 282.923 177.67 282.612 177.67C282.3 177.67 282.047 177.916 282.047 178.22C282.047 178.524 282.3 178.77 282.612 178.77Z" fill="#FAA11F"/>
<path d="M398.96 153.66H342.643V156.42H398.96V153.66Z" fill="#FAA11F"/>
<path d="M418.536 165.51C418.536 165.66 401.628 165.79 380.769 165.79C359.91 165.79 342.992 165.66 342.992 165.51C342.992 165.36 359.9 165.22 380.769 165.22C401.638 165.22 418.536 165.35 418.536 165.51Z" fill="#263238"/>
<path d="M418.536 173.2C418.536 173.36 401.628 173.49 380.769 173.49C359.91 173.49 342.992 173.36 342.992 173.2C342.992 173.04 359.9 172.92 380.769 172.92C401.638 172.92 418.536 173.05 418.536 173.2Z" fill="#263238"/>
<path d="M330.895 227.43C330.895 227.43 330.895 227.23 330.895 226.85C330.895 226.47 330.895 225.9 330.895 225.19C330.895 223.72 330.895 221.6 330.844 218.89C330.844 213.44 330.772 205.62 330.731 196.07L330.936 196.27L278.672 196.33C278.61 196.33 279.175 195.83 278.928 196.07V212.3C278.928 217.55 278.928 222.61 278.928 227.43L278.672 227.19L316.244 227.31L327.048 227.38H329.931H330.68H330.947C330.947 227.38 330.875 227.38 330.711 227.38H329.992H327.15L316.408 227.45L278.672 227.56H278.426V227.31C278.426 222.49 278.426 217.43 278.426 212.18V204.18C278.426 202.82 278.426 201.46 278.426 200.09V195.97C278.19 196.2 278.754 195.65 278.703 195.71L330.967 195.76H331.183V195.97C331.131 205.58 331.09 213.43 331.07 218.91C331.07 221.6 331.07 223.71 331.018 225.17C331.018 225.87 331.018 226.4 331.018 226.79C330.991 227.006 330.95 227.219 330.895 227.43Z" fill="#FAA11F"/>
<path d="M305.081 209.14L309.37 211.39L305.255 214.04L301.131 216.68L300.967 211.79L300.792 206.89L305.081 209.14Z" fill="#FAA11F"/>
<path d="M327.12 224.3C327.12 224.44 317.106 224.56 304.763 224.56C292.42 224.56 282.396 224.44 282.396 224.3C282.396 224.16 292.41 224 304.722 224C317.034 224 327.12 224.16 327.12 224.3Z" fill="#FAA11F"/>
<path d="M282.612 224.85C282.923 224.85 283.176 224.604 283.176 224.3C283.176 223.996 282.923 223.75 282.612 223.75C282.3 223.75 282.047 223.996 282.047 224.3C282.047 224.604 282.3 224.85 282.612 224.85Z" fill="#FAA11F"/>
<path d="M398.96 199.74H342.643V202.5H398.96V199.74Z" fill="#FAA11F"/>
<path d="M418.536 211.58C418.536 211.74 401.628 211.87 380.769 211.87C359.91 211.87 342.992 211.74 342.992 211.58C342.992 211.42 359.9 211.3 380.769 211.3C401.638 211.3 418.536 211.43 418.536 211.58Z" fill="#263238"/>
<path d="M418.536 219.28C418.536 219.44 401.628 219.57 380.769 219.57C359.91 219.57 342.992 219.44 342.992 219.28C342.992 219.12 359.9 219 380.769 219C401.638 219 418.536 219.13 418.536 219.28Z" fill="#263238"/>
<path d="M251.134 238.48C251.962 238.227 252.835 238.138 253.699 238.22L253.432 238.48V238V237.53C253.432 237.23 253.432 236.96 253.483 236.73C253.483 236.28 253.596 236 253.678 236C253.76 236 253.812 236.28 253.863 236.73C253.863 236.96 253.863 237.23 253.925 237.53V238.53L253.658 238.79C252.804 238.856 251.945 238.75 251.134 238.48Z" fill="#E0E0E0"/>
<path d="M240.894 238.48C242.586 238.132 244.333 238.132 246.024 238.48C244.333 238.828 242.586 238.828 240.894 238.48Z" fill="#E0E0E0"/>
<path d="M230.665 238.48C232.357 238.13 234.104 238.13 235.795 238.48C234.104 238.83 232.357 238.83 230.665 238.48Z" fill="#E0E0E0"/>
<path d="M220.426 238.48C222.117 238.132 223.865 238.132 225.556 238.48C223.865 238.828 222.117 238.828 220.426 238.48Z" fill="#E0E0E0"/>
<path d="M210.197 238.48C211.021 238.226 211.891 238.138 212.751 238.22C213.616 238.138 214.488 238.227 215.316 238.48C214.489 238.739 213.616 238.827 212.751 238.74C211.891 238.829 211.02 238.741 210.197 238.48Z" fill="#E0E0E0"/>
<path d="M199.957 238.48C201.649 238.132 203.396 238.132 205.087 238.48C203.396 238.828 201.649 238.828 199.957 238.48Z" fill="#E0E0E0"/>
<path d="M189.728 238.48C191.419 238.132 193.167 238.132 194.858 238.48C193.167 238.828 191.419 238.828 189.728 238.48Z" fill="#E0E0E0"/>
<path d="M179.488 238.48C180.317 238.227 181.189 238.138 182.053 238.22C182.914 238.138 183.783 238.226 184.608 238.48C183.785 238.741 182.914 238.829 182.053 238.74C181.189 238.827 180.316 238.739 179.488 238.48Z" fill="#E0E0E0"/>
<path d="M169.29 238.48C170.981 238.132 172.729 238.132 174.42 238.48C172.729 238.828 170.981 238.828 169.29 238.48Z" fill="#E0E0E0"/>
<path d="M159.03 238.48C160.721 238.13 162.469 238.13 164.16 238.48C162.469 238.83 160.721 238.83 159.03 238.48Z" fill="#E0E0E0"/>
<path d="M148.77 238.48C150.461 238.132 152.209 238.132 153.9 238.48C152.209 238.828 150.461 238.828 148.77 238.48Z" fill="#E0E0E0"/>
<path d="M138.561 238.48C140.253 238.13 142 238.13 143.691 238.48C142 238.83 140.253 238.83 138.561 238.48Z" fill="#E0E0E0"/>
<path d="M128.322 238.48C130.013 238.132 131.76 238.132 133.452 238.48C131.76 238.828 130.013 238.828 128.322 238.48Z" fill="#E0E0E0"/>
<path d="M118.093 238.48C118.917 238.226 119.787 238.138 120.647 238.22C121.508 238.138 122.377 238.226 123.202 238.48C122.379 238.741 121.508 238.829 120.647 238.74C119.786 238.829 118.916 238.741 118.093 238.48Z" fill="#E0E0E0"/>
<path d="M107.853 238.48C108.682 238.227 109.554 238.138 110.418 238.22C111.279 238.139 112.148 238.227 112.973 238.48C112.149 238.738 111.279 238.827 110.418 238.74C109.554 238.828 108.68 238.739 107.853 238.48Z" fill="#E0E0E0"/>
<path d="M97.6239 238.48C98.4487 238.226 99.3178 238.138 100.179 238.22C101.043 238.138 101.915 238.227 102.744 238.48C101.916 238.739 101.043 238.827 100.179 238.74C99.3178 238.829 98.4473 238.741 97.6239 238.48Z" fill="#E0E0E0"/>
<path d="M89.9392 236C90.1992 236.807 90.2899 237.658 90.2059 238.5L89.9392 238.24H90.9652C91.273 238.24 91.55 238.24 91.7859 238.3C92.2476 238.3 92.5349 238.41 92.5349 238.48C92.5349 238.55 92.2476 238.62 91.7859 238.67L90.9652 238.72H90.4829H89.9699L89.7032 238.46C89.6147 237.633 89.6949 236.797 89.9392 236Z" fill="#E0E0E0"/>
<path d="M89.9392 226.16C90.2949 227.778 90.2949 229.452 89.9392 231.07C89.5835 229.452 89.5835 227.778 89.9392 226.16Z" fill="#E0E0E0"/>
<path d="M89.9392 216.35C90.2949 217.968 90.2949 219.642 89.9392 221.26C89.5835 219.642 89.5835 217.968 89.9392 216.35Z" fill="#E0E0E0"/>
<path d="M89.9392 206.53C90.2949 208.148 90.2949 209.822 89.9392 211.44C89.5835 209.822 89.5835 208.148 89.9392 206.53Z" fill="#E0E0E0"/>
<path d="M89.9392 196.71C90.2949 198.328 90.2949 200.002 89.9392 201.62C89.5835 200.002 89.5835 198.328 89.9392 196.71Z" fill="#E0E0E0"/>
<path d="M89.9392 186.89C90.2949 188.508 90.2949 190.182 89.9392 191.8C89.5835 190.182 89.5835 188.508 89.9392 186.89Z" fill="#E0E0E0"/>
<path d="M89.9392 177.08C90.2949 178.695 90.2949 180.365 89.9392 181.98C89.5834 180.365 89.5834 178.695 89.9392 177.08Z" fill="#E0E0E0"/>
<path d="M89.9392 167.26C90.2949 168.878 90.2949 170.552 89.9392 172.17C89.5835 170.552 89.5835 168.878 89.9392 167.26Z" fill="#E0E0E0"/>
<path d="M89.9392 157.44C90.2949 159.058 90.2949 160.732 89.9392 162.35C89.5835 160.732 89.5835 159.058 89.9392 157.44Z" fill="#E0E0E0"/>
<path d="M89.9392 147.62C90.2949 149.238 90.2949 150.912 89.9392 152.53C89.5835 150.912 89.5835 149.238 89.9392 147.62Z" fill="#E0E0E0"/>
<path d="M92.5042 140.21C91.6783 140.476 90.8041 140.568 89.9392 140.48C90.4727 139.95 90.0828 140.33 90.2059 140.22V140.71C90.2059 140.86 90.2059 141.01 90.2059 141.18C90.2059 141.35 90.2059 141.75 90.1444 141.97C90.1444 142.42 90.0315 142.7 89.9597 142.7C89.8879 142.7 89.816 142.42 89.775 141.97C89.775 141.75 89.775 141.48 89.7134 141.18V140.18C89.8366 140.06 89.4467 140.43 89.9802 139.91C90.8336 139.846 91.6915 139.948 92.5042 140.21Z" fill="#E0E0E0"/>
<path d="M102.744 140.21C101.918 140.476 101.044 140.568 100.179 140.48C99.3171 140.568 98.4461 140.476 97.6239 140.21C98.4487 139.956 99.3178 139.868 100.179 139.95C101.043 139.868 101.915 139.957 102.744 140.21Z" fill="#E0E0E0"/>
<path d="M112.973 140.21C112.15 140.474 111.28 140.566 110.418 140.48C109.553 140.568 108.679 140.476 107.853 140.21C108.682 139.957 109.554 139.868 110.418 139.95C111.279 139.869 112.148 139.957 112.973 140.21Z" fill="#E0E0E0"/>
<path d="M123.202 140.21C122.38 140.476 121.509 140.568 120.647 140.48C119.786 140.568 118.915 140.476 118.093 140.21C118.917 139.956 119.787 139.868 120.647 139.95C121.508 139.868 122.377 139.956 123.202 140.21Z" fill="#E0E0E0"/>
<path d="M133.442 140.21C131.752 140.572 130.001 140.572 128.312 140.21C130.003 139.862 131.75 139.862 133.442 140.21Z" fill="#E0E0E0"/>
<path d="M143.64 140.21C141.95 140.573 140.2 140.573 138.51 140.21C140.201 139.86 141.949 139.86 143.64 140.21Z" fill="#E0E0E0"/>
<path d="M153.9 140.21C152.21 140.572 150.46 140.572 148.77 140.21C150.461 139.862 152.209 139.862 153.9 140.21Z" fill="#E0E0E0"/>
<path d="M164.16 140.21C162.47 140.573 160.72 140.573 159.03 140.21C160.721 139.86 162.469 139.86 164.16 140.21Z" fill="#E0E0E0"/>
<path d="M174.42 140.21C172.73 140.572 170.98 140.572 169.29 140.21C170.981 139.862 172.729 139.862 174.42 140.21Z" fill="#E0E0E0"/>
<path d="M184.608 140.21C183.786 140.476 182.915 140.568 182.053 140.48C181.188 140.568 180.314 140.476 179.488 140.21C180.317 139.957 181.189 139.868 182.053 139.95C182.914 139.868 183.783 139.956 184.608 140.21Z" fill="#E0E0E0"/>
<path d="M194.848 140.21C193.158 140.572 191.408 140.572 189.718 140.21C191.409 139.862 193.156 139.862 194.848 140.21Z" fill="#E0E0E0"/>
<path d="M205.077 140.21C203.387 140.572 201.637 140.572 199.947 140.21C201.638 139.862 203.385 139.862 205.077 140.21Z" fill="#E0E0E0"/>
<path d="M215.316 140.21C214.491 140.476 213.616 140.568 212.751 140.48C211.89 140.568 211.019 140.476 210.197 140.21C211.021 139.956 211.891 139.868 212.751 139.95C213.616 139.868 214.488 139.957 215.316 140.21Z" fill="#E0E0E0"/>
<path d="M225.546 140.21C223.856 140.572 222.105 140.572 220.416 140.21C222.107 139.862 223.854 139.862 225.546 140.21Z" fill="#E0E0E0"/>
<path d="M235.775 140.21C234.085 140.573 232.335 140.573 230.645 140.21C232.336 139.86 234.084 139.86 235.775 140.21Z" fill="#E0E0E0"/>
<path d="M246.014 140.21C244.324 140.572 242.574 140.572 240.884 140.21C242.576 139.862 244.323 139.862 246.014 140.21Z" fill="#E0E0E0"/>
<path d="M253.699 142.71C253.432 141.904 253.341 141.052 253.432 140.21C253.966 140.73 253.576 140.36 253.699 140.48H253.176H252.693H251.883C251.421 140.43 251.134 140.37 251.134 140.29C251.134 140.21 251.421 140.16 251.883 140.11L252.693 140.05H253.719C253.832 140.17 253.453 139.79 253.986 140.31C254.051 141.121 253.953 141.936 253.699 142.71Z" fill="#E0E0E0"/>
<path d="M253.699 152.53C253.343 150.912 253.343 149.238 253.699 147.62C254.055 149.238 254.055 150.912 253.699 152.53Z" fill="#E0E0E0"/>
<path d="M253.699 162.35C253.343 160.732 253.343 159.058 253.699 157.44C254.055 159.058 254.055 160.732 253.699 162.35Z" fill="#E0E0E0"/>
<path d="M253.699 172.17C253.343 170.552 253.343 168.878 253.699 167.26C254.055 168.878 254.055 170.552 253.699 172.17Z" fill="#E0E0E0"/>
<path d="M253.699 182C253.343 180.385 253.343 178.715 253.699 177.1C254.055 178.715 254.055 180.385 253.699 182Z" fill="#E0E0E0"/>
<path d="M253.699 191.8C253.343 190.182 253.343 188.508 253.699 186.89C254.055 188.508 254.055 190.182 253.699 191.8Z" fill="#E0E0E0"/>
<path d="M253.699 201.62C253.343 200.002 253.343 198.328 253.699 196.71C254.055 198.328 254.055 200.002 253.699 201.62Z" fill="#E0E0E0"/>
<path d="M253.699 211.44C253.343 209.822 253.343 208.148 253.699 206.53C254.055 208.148 254.055 209.822 253.699 211.44Z" fill="#E0E0E0"/>
<path d="M253.699 221.26C253.433 220.467 253.342 219.629 253.432 218.8C253.342 217.974 253.433 217.139 253.699 216.35C253.961 217.14 254.052 217.974 253.966 218.8C254.05 219.629 253.959 220.466 253.699 221.26Z" fill="#E0E0E0"/>
<path d="M253.699 231.07C253.343 229.452 253.343 227.778 253.699 226.16C254.055 227.778 254.055 229.452 253.699 231.07Z" fill="#E0E0E0"/>
<path d="M241.879 237.71L82.7366 246.22C82.1591 246.25 81.5928 246.057 81.1606 245.682C80.7283 245.308 80.4651 244.782 80.4281 244.22L75.1545 150.36C75.1208 149.796 75.318 149.243 75.7028 148.821C76.0876 148.399 76.6284 148.143 77.2065 148.11L236.339 139.6C236.916 139.57 237.483 139.763 237.915 140.137C238.347 140.512 238.611 141.037 238.648 141.6L243.931 235.45C243.949 235.73 243.911 236.01 243.817 236.276C243.724 236.541 243.578 236.785 243.387 236.995C243.196 237.205 242.965 237.376 242.706 237.499C242.448 237.622 242.167 237.693 241.879 237.71Z" fill="#FAA11F"/>
<path d="M160.702 182.94L174.512 189.26L162.098 198.22L149.673 207.18L148.278 191.9L146.882 176.62L160.702 182.94Z" fill="white"/>
<path d="M231.702 228.43C231.702 228.57 200.398 230.36 161.769 232.43C123.141 234.5 91.8168 236.05 91.8065 235.91C91.7962 235.77 123.11 233.97 161.749 231.91C200.388 229.85 231.691 228.28 231.702 228.43Z" fill="white"/>
<path d="M94.2483 235.78C94.2661 236.12 94.1802 236.457 94.0015 236.749C93.8228 237.041 93.5594 237.274 93.2444 237.421C92.9295 237.567 92.5771 237.619 92.2319 237.57C91.8868 237.521 91.5642 237.373 91.305 237.146C91.0458 236.918 90.8616 236.621 90.7756 236.291C90.6897 235.962 90.7058 235.615 90.8221 235.294C90.9383 234.974 91.1494 234.694 91.4287 234.49C91.708 234.287 92.043 234.168 92.3913 234.15C92.6231 234.138 92.8551 234.17 93.074 234.246C93.2929 234.321 93.4943 234.438 93.6668 234.589C93.8394 234.741 93.9795 234.924 94.0793 235.128C94.1791 235.333 94.2365 235.554 94.2483 235.78Z" fill="white"/>
<g opacity="0.3">
<path d="M227.854 140.19C225.31 144.95 222.724 150.38 224.448 155.47C225.258 157.8 226.9 159.76 228.141 161.9C231.958 168.47 231.825 176.44 231.599 183.98C231.527 186.12 231.342 188.52 229.691 189.92C228.326 191.06 226.387 191.19 224.561 191.25L202.912 192.06V229.21L243.07 220.55L241.192 165L240.166 155.63L236.113 139.63L227.854 140.19Z" fill="black"/>
</g>
<path d="M193.432 440.58L194.807 471.92L212.167 471.54L210.864 440.14L193.432 440.58Z" fill="#FAA11F"/>
<path d="M203.333 470.55C203.476 470.55 203.199 463.68 202.727 455.22C202.255 446.76 201.701 439.91 201.599 439.92C201.496 439.93 201.722 446.79 202.204 455.25C202.686 463.71 203.148 470.56 203.333 470.55Z" fill="#263238"/>
<path d="M194.704 469.76L212.074 469.33L212.167 471.54L194.807 471.92L194.704 469.76Z" fill="#E0E0E0"/>
<path d="M211.746 461.51C211.746 461.51 211.613 461.24 211.274 460.84C210.043 459.436 208.499 458.324 206.76 457.59C205.468 457.041 204.062 456.794 202.656 456.87C201.385 456.921 200.14 457.229 198.999 457.775C197.858 458.32 196.846 459.092 196.028 460.04C195.542 460.61 195.144 461.247 194.848 461.93C194.716 462.173 194.633 462.437 194.601 462.71C195.102 461.854 195.671 461.038 196.305 460.27C197.957 458.523 200.251 457.485 202.686 457.38C205.121 457.341 207.494 458.122 209.407 459.59C210.925 460.67 211.684 461.57 211.746 461.51Z" fill="#263238"/>
<g opacity="0.3">
<path d="M211.233 449.08L211.376 452.53L193.976 452.83L193.852 450.23L211.233 449.08Z" fill="black"/>
</g>
<path d="M151.438 441.4L152.31 461C152.31 461 132.149 468.45 131.944 472.09L171.014 471.81L170.942 441.2L151.438 441.4Z" fill="#FAA11F"/>
<path d="M164.16 459.34C164.538 459.452 164.86 459.695 165.067 460.023C165.273 460.351 165.348 460.741 165.278 461.12C165.181 461.493 164.94 461.815 164.606 462.02C164.272 462.224 163.87 462.296 163.483 462.22C163.08 462.105 162.735 461.848 162.517 461.498C162.298 461.148 162.222 460.732 162.303 460.33C162.445 459.95 162.733 459.639 163.107 459.463C163.481 459.288 163.91 459.261 164.304 459.39" fill="#E0E0E0"/>
<path d="M171.014 471.81V468.74L133.206 470.14C133.206 470.14 131.461 470.89 131.667 472.09L171.014 471.81Z" fill="#E0E0E0"/>
<path d="M151.951 461.13C151.951 461.32 152.977 461.4 153.869 461.99C154.762 462.58 155.326 463.37 155.511 463.3C155.695 463.23 155.388 462.14 154.228 461.44C153.069 460.74 151.91 461 151.951 461.13Z" fill="#263238"/>
<path d="M147.836 462.82C147.836 463.01 148.626 463.32 149.283 464.11C149.94 464.9 150.145 465.73 150.309 465.72C150.473 465.71 150.617 464.65 149.775 463.72C148.934 462.79 147.836 462.65 147.836 462.82Z" fill="#263238"/>
<path d="M145.528 467.66C145.702 467.66 145.969 466.76 145.466 465.73C144.964 464.7 144.061 464.31 143.979 464.47C143.897 464.63 144.461 465.17 144.861 466.01C145.261 466.85 145.343 467.64 145.528 467.66Z" fill="#263238"/>
<path d="M152.269 456.61C152.351 456.78 153.223 456.51 154.321 456.61C155.418 456.71 156.26 457 156.373 456.84C156.486 456.68 155.654 456.02 154.372 455.96C153.089 455.9 152.166 456.46 152.269 456.61Z" fill="#263238"/>
<path d="M151.53 452.39C152.174 452.568 152.856 452.568 153.5 452.39C154.208 452.265 154.898 452.054 155.552 451.76C155.941 451.589 156.319 451.392 156.68 451.17C156.898 451.046 157.095 450.891 157.265 450.71C157.394 450.577 157.472 450.406 157.487 450.224C157.502 450.042 157.453 449.861 157.347 449.71C157.253 449.578 157.127 449.469 156.981 449.394C156.834 449.32 156.671 449.28 156.506 449.28C156.256 449.286 156.008 449.323 155.767 449.39C155.348 449.492 154.939 449.633 154.546 449.81C153.883 450.106 153.27 450.501 152.73 450.98C151.827 451.81 151.52 452.52 151.591 452.55C151.663 452.58 152.115 452.02 153.038 451.34C153.573 450.929 154.163 450.593 154.793 450.34C155.169 450.195 155.557 450.082 155.952 450C156.362 449.89 156.722 449.88 156.824 450.06C156.927 450.24 156.824 450.16 156.824 450.28C156.699 450.411 156.554 450.523 156.393 450.61C156.063 450.826 155.721 451.023 155.367 451.2C154.758 451.499 154.123 451.743 153.469 451.93C152.812 452.037 152.164 452.19 151.53 452.39Z" fill="#263238"/>
<path d="M151.786 452.66C152.147 452.105 152.323 451.456 152.289 450.8C152.32 450.089 152.223 449.378 152.002 448.7C151.875 448.293 151.703 447.901 151.489 447.53C151.388 447.27 151.217 447.04 150.996 446.865C150.774 446.689 150.509 446.574 150.227 446.53C150.052 446.536 149.882 446.59 149.737 446.685C149.592 446.781 149.477 446.914 149.406 447.07C149.313 447.298 149.247 447.537 149.211 447.78C149.149 448.208 149.149 448.642 149.211 449.07C149.323 449.796 149.619 450.484 150.073 451.07C150.843 452.07 151.653 452.28 151.663 452.21C151.674 452.14 151.058 451.76 150.463 450.81C150.102 450.264 149.874 449.645 149.796 449C149.745 448.632 149.745 448.258 149.796 447.89C149.858 447.48 150.011 447.15 150.165 447.19C150.319 447.23 150.699 447.49 150.863 447.82C151.06 448.137 151.225 448.472 151.356 448.82C151.584 449.434 151.719 450.078 151.756 450.73C151.848 451.93 151.684 452.63 151.786 452.66Z" fill="#263238"/>
<g opacity="0.3">
<path d="M171.024 452.96L170.983 457.31H152.145V454.92L171.024 452.96Z" fill="black"/>
</g>
<path d="M229.516 143.24C229.075 143.24 227.936 147.58 227.372 149.76C227.169 150.559 227.286 151.403 227.7 152.12L232.225 159.93C233.071 161.373 234.297 162.571 235.775 163.4L238.042 164.65L238.34 169.29L251.072 169.49L247.194 155L245.573 146.17C245.357 145.737 245.037 145.361 244.641 145.074C244.245 144.787 243.783 144.597 243.295 144.52L242.095 144.35L241.644 143.23C241.513 142.912 241.302 142.632 241.028 142.417C240.755 142.201 240.43 142.058 240.084 142L239.335 141.91L238.309 139.4C238.142 139.002 237.858 138.661 237.493 138.419C237.128 138.177 236.698 138.045 236.257 138.04L230.101 138.12C230.101 138.12 228.747 139.9 231.855 140.74C232.716 140.978 233.609 141.086 234.503 141.06L235.939 146.47C235.939 146.47 236.965 152.15 234.226 152.15C231.825 152.15 231.599 149.09 231.599 149.09C231.599 149.09 232.656 142.9 229.516 143.24Z" fill="#FFBE9D"/>
<path d="M242.136 148.66C242.083 148.279 242.004 147.901 241.9 147.53C241.576 146.649 240.968 145.895 240.166 145.38C239.74 144.523 239.419 143.62 239.212 142.69C239.096 142.311 239.051 141.915 239.079 141.52C239.079 141.52 239.161 141.96 239.356 142.65C239.609 143.54 239.935 144.41 240.33 145.25L240.956 145.75C241.146 145.926 241.318 146.121 241.469 146.33C241.729 146.681 241.923 147.074 242.044 147.49C242.125 147.766 242.166 148.052 242.167 148.34C242.176 148.448 242.166 148.556 242.136 148.66Z" fill="#EB996E"/>
<path d="M244.096 147.61C244.068 147.414 244.005 147.225 243.911 147.05C243.792 146.841 243.622 146.663 243.416 146.533C243.211 146.402 242.975 146.322 242.731 146.3H242.659V146.24L242.587 146.05C242.283 145.32 242.039 144.568 241.859 143.8C242.238 144.494 242.55 145.22 242.793 145.97L242.864 146.17L242.772 146.1C243.05 146.125 243.316 146.222 243.543 146.38C243.77 146.538 243.95 146.752 244.065 147C244.188 147.36 244.126 147.63 244.096 147.61Z" fill="#EB996E"/>
<path d="M234.363 141.08C234.313 141.08 234.083 140.81 234.143 140.39C234.203 139.97 234.403 139.71 234.453 139.74C234.503 139.77 234.393 140.05 234.353 140.41C234.313 140.77 234.413 141.05 234.363 141.08Z" fill="#EB996E"/>
<path d="M169.146 197.34L192.231 197.06L189.656 177.89C189.656 177.89 191.236 177.56 191.339 169.23C191.441 160.9 191.842 146.72 191.842 146.72C186.978 144.685 181.645 143.951 176.393 144.594C171.141 145.238 166.16 147.235 161.964 150.38L160.702 151.38L169.146 197.34Z" fill="#FFBE9D"/>
<path d="M163.38 161.59C163.237 161.53 157.501 159.89 157.686 165.59C157.871 171.29 163.709 169.93 163.709 169.77C163.709 169.61 163.38 161.59 163.38 161.59Z" fill="#FFBE9D"/>
<path d="M190.836 160.4C190.98 160.34 196.192 158.97 195.966 164.67C195.74 170.37 189.943 169.01 189.943 168.84C189.943 168.67 190.836 160.4 190.836 160.4Z" fill="#FFBE9D"/>
<path d="M197.413 143.93C197.471 143.413 197.394 142.889 197.19 142.409C196.986 141.928 196.66 141.505 196.243 141.18C195.813 140.871 195.284 140.723 194.751 140.761C194.219 140.8 193.718 141.023 193.339 141.39C193.42 141.042 193.424 140.681 193.352 140.331C193.279 139.981 193.133 139.649 192.921 139.358C192.709 139.067 192.437 138.822 192.122 138.64C191.807 138.458 191.456 138.342 191.093 138.3C189.697 138.22 188.507 139.24 187.163 139.6C185.818 139.882 184.415 139.723 183.172 139.15C181.9 138.66 180.72 137.97 179.437 137.52C176.729 136.552 173.738 136.667 171.116 137.839C168.495 139.012 166.455 141.147 165.442 143.78C164.491 143.555 163.491 143.616 162.575 143.955C161.66 144.295 160.871 144.896 160.312 145.68C159.225 147.293 158.79 149.242 159.092 151.15C159.295 152.429 159.639 153.683 160.118 154.89C160.118 155 160.118 155.1 160.118 155.21C160.2 159.79 162.652 174.28 164.663 174.31C168.161 174.36 165.412 158.84 165.412 158.84C169.7 157.22 168.1 150.95 169.177 150C170.254 149.05 172.491 146.84 181.489 151.32C184.834 152.775 188.563 153.167 192.149 152.44H192.375H192.426C192.426 152.44 192.478 152.44 192.508 152.44C193.323 152.225 194.099 151.888 194.807 151.44C195.648 150.972 196.313 150.253 196.705 149.39C196.892 148.956 196.946 148.477 196.858 148.013C196.771 147.55 196.546 147.121 196.212 146.78C196.888 145.964 197.306 144.974 197.413 143.93Z" fill="#263238"/>
<path d="M161.482 161C162.354 165.78 162.18 168.29 162.99 171.48C164.273 176.48 166.848 180.4 171.506 182.92C176.164 185.44 182.484 185.39 186.496 181.92C189.276 179.54 191.246 176.85 191.626 173.26C192.006 169.67 192.457 163.33 192.488 159.72C192.488 153.21 192.98 146.99 192.98 146.99L173.897 143.62L163.042 149.91L161.482 161Z" fill="#263238"/>
<path d="M181.161 185.75C180.093 186.14 178.936 186.237 177.816 186.03C176.674 185.993 175.566 185.646 174.615 185.03C174.676 184.89 176.082 185.32 177.878 185.51C179.673 185.7 181.14 185.59 181.161 185.75Z" fill="#263238"/>
<path d="M186.116 142.78C185.827 142.882 185.522 142.936 185.213 142.94C184.365 142.947 183.528 142.755 182.772 142.38C181.675 141.823 180.643 141.152 179.694 140.38C178.538 139.438 177.147 138.813 175.661 138.57C174.171 138.372 172.654 138.631 171.321 139.31C170.238 139.879 169.326 140.713 168.674 141.73C168.08 142.672 167.692 143.724 167.535 144.82C167.538 144.521 167.569 144.223 167.628 143.93C167.796 143.125 168.105 142.353 168.541 141.65C169.195 140.598 170.122 139.732 171.229 139.14C172.596 138.431 174.158 138.161 175.692 138.37C177.21 138.609 178.631 139.253 179.796 140.23C180.754 140.992 181.784 141.662 182.874 142.23C183.606 142.607 184.417 142.816 185.244 142.84C185.798 142.86 186.116 142.75 186.116 142.78Z" fill="#113F55"/>
<path d="M167.792 145.12C167.354 144.912 166.898 144.744 166.427 144.62C165.275 144.368 164.068 144.554 163.052 145.14C162.06 145.761 161.354 146.732 161.082 147.85C160.986 148.318 160.935 148.793 160.928 149.27C160.887 149.147 160.866 149.019 160.867 148.89C160.835 148.532 160.859 148.171 160.938 147.82C161.049 147.234 161.285 146.677 161.63 146.184C161.974 145.692 162.421 145.275 162.941 144.96C163.46 144.646 164.042 144.441 164.647 144.358C165.253 144.275 165.87 144.317 166.458 144.48C166.818 144.571 167.163 144.709 167.484 144.89C167.6 144.949 167.704 145.027 167.792 145.12Z" fill="#113F55"/>
<path d="M167.238 165.45C166.017 163.601 165.103 161.576 164.529 159.45C165.75 161.299 166.664 163.324 167.238 165.45Z" fill="#113F55"/>
<path d="M172.235 168.72C171.099 168.109 170.161 167.202 169.526 166.1C168.746 165.089 168.267 163.889 168.141 162.63C168.295 162.63 168.849 164.14 169.977 165.81C171.106 167.48 172.368 168.61 172.235 168.72Z" fill="#113F55"/>
<path d="M177.159 169.78C176.292 169.522 175.507 169.05 174.882 168.41C173.753 167.41 173.066 166.48 173.179 166.41C173.291 166.34 174.143 167.11 175.231 168.03C176.318 168.95 177.241 169.65 177.159 169.78Z" fill="#113F55"/>
<path d="M185.87 162.05C186.002 163.026 185.823 164.017 185.357 164.89C185.05 165.828 184.46 166.654 183.664 167.26C184.011 166.381 184.412 165.522 184.865 164.69C185.151 163.793 185.487 162.912 185.87 162.05Z" fill="#113F55"/>
<path d="M188.784 157.55C189.012 158.721 188.894 159.931 188.445 161.04C188.185 162.198 187.59 163.26 186.732 164.1C186.609 164.01 187.43 162.69 188.004 160.89C188.579 159.09 188.671 157.55 188.784 157.55Z" fill="#113F55"/>
<path d="M191.092 146C190.87 146.226 190.614 146.418 190.333 146.57C189.565 147.005 188.705 147.264 187.82 147.33C186.505 147.419 185.187 147.221 183.962 146.75C182.486 146.166 181.059 145.47 179.694 144.67C178.333 143.885 176.874 143.273 175.354 142.85C174.108 142.516 172.793 142.516 171.547 142.85C170.712 143.079 169.947 143.505 169.321 144.09C168.89 144.52 168.726 144.82 168.705 144.8C168.848 144.52 169.035 144.264 169.259 144.04C169.875 143.411 170.65 142.953 171.506 142.71C172.771 142.339 174.117 142.314 175.395 142.64C176.94 143.054 178.421 143.669 179.796 144.47C181.154 145.264 182.57 145.959 184.034 146.55C185.23 147.024 186.52 147.232 187.809 147.16C188.999 147.106 190.144 146.701 191.092 146Z" fill="#113F55"/>
<path d="M192.785 148.73C192.693 148.81 192.589 148.877 192.478 148.93C192.183 149.095 191.878 149.242 191.564 149.37C189.487 150.225 187.189 150.428 184.988 149.95C184.641 149.884 184.298 149.797 183.962 149.69C183.736 149.61 183.613 149.56 183.623 149.54C183.633 149.52 184.136 149.66 184.967 149.81C186.054 149.998 187.161 150.045 188.261 149.95C189.355 149.846 190.431 149.604 191.462 149.23C192.303 148.94 192.775 148.7 192.785 148.73Z" fill="#113F55"/>
<path d="M182.156 321.02L187.768 373.78L191.8 453.24H213.316L213.9 284.13L152.299 288.41L139.536 377.14L150.596 454.8H174.205L168.674 380.95L182.156 321.02Z" fill="#263238"/>
<path d="M182.156 321C180.891 322.457 179.489 323.796 177.97 325C176.57 326.344 175.049 327.563 173.425 328.64C174.695 327.188 176.096 325.849 177.611 324.64C179.008 323.294 180.53 322.075 182.156 321Z" fill="#113F55"/>
<path d="M182.094 320C182.003 317.743 182.04 315.483 182.207 313.23C182.208 310.971 182.342 308.714 182.607 306.47C182.882 308.72 182.927 310.991 182.741 313.25C182.747 315.515 182.531 317.775 182.094 320Z" fill="#113F55"/>
<path d="M189.205 300.27C189.321 300.258 189.438 300.258 189.554 300.27L190.58 300.21L194.684 300.02L209.273 299.42H209.519V299.67C209.519 304.1 209.519 309.12 209.519 314.43V314.89L209.345 314.95L199.865 318.66H199.772H199.68L191.298 315.82H191.164V315.69C190.549 311.08 190.046 307.24 189.677 304.49C189.512 303.21 189.389 302.18 189.287 301.41C189.184 300.64 189.174 300.35 189.184 300.36C189.215 300.458 189.239 300.559 189.256 300.66C189.256 300.89 189.338 301.16 189.4 301.49C189.523 302.27 189.697 303.31 189.902 304.61C190.323 307.32 190.928 311.09 191.606 315.61L191.462 315.43L199.865 318.21H199.69L209.171 314.48L209.006 314.72V314.44C209.006 309.13 209.006 304.11 209.006 299.68L209.253 299.91L194.827 300.26L190.723 300.33H189.205V300.27Z" fill="#113F55"/>
<path d="M158.148 300.53C158.253 300.517 158.36 300.517 158.466 300.53H159.42L163.114 300.41L176.452 300.11H176.698V300.35C176.554 304.73 176.39 309.78 176.216 315.15V315.29L176.103 315.36L174.564 316.36L166.766 321.36L166.633 321.45L166.489 321.36L157.645 316L157.532 315.93V315.81C157.696 311.21 157.84 307.38 157.932 304.63C157.994 303.35 158.045 302.32 158.076 301.56C158.08 301.209 158.104 300.858 158.148 300.51C158.163 300.609 158.163 300.711 158.148 300.81V301.64C158.148 302.42 158.148 303.46 158.148 304.77C158.148 307.48 158.045 311.27 157.984 315.77L157.871 315.58L166.694 320.73H166.417L174.215 315.73L175.754 314.73L175.631 314.94C175.836 309.56 176.021 304.51 176.185 300.13L176.421 300.37L163.257 300.44H158.517L158.148 300.53Z" fill="#113F55"/>
<path d="M207.252 324.43C206.28 324.492 205.304 324.462 204.338 324.34C202.543 324.21 200.07 323.97 197.341 323.63C194.612 323.29 192.16 322.9 190.395 322.58C189.428 322.461 188.476 322.246 187.553 321.94C188.523 321.951 189.491 322.041 190.446 322.21L197.413 323.11L204.379 323.97C205.348 324.045 206.309 324.199 207.252 324.43Z" fill="#113F55"/>
<path d="M206.749 383.24C206.749 383.24 206.667 383.55 206.247 383.91C205.621 384.396 204.841 384.654 204.041 384.64C202.862 384.603 201.731 384.18 200.829 383.44C199.764 382.568 198.785 381.6 197.905 380.55C196.261 378.688 194.801 376.679 193.545 374.55C192.984 373.697 192.526 372.785 192.18 371.83C192.79 372.642 193.351 373.486 193.863 374.36C195.205 376.4 196.689 378.348 198.305 380.19C199.168 381.214 200.115 382.167 201.137 383.04C201.947 383.742 202.97 384.167 204.051 384.25C204.774 384.292 205.492 384.11 206.103 383.73C206.544 383.46 206.718 383.22 206.749 383.24Z" fill="#113F55"/>
<path d="M164.263 385.1C164.263 385.1 164.263 385.37 163.975 385.77C163.595 386.336 163.086 386.808 162.488 387.15C161.591 387.658 160.569 387.917 159.533 387.9C158.268 387.857 157.041 387.476 155.983 386.8C154.121 385.539 152.642 383.812 151.704 381.8C151.259 381.021 150.915 380.191 150.678 379.33C151.202 380.061 151.669 380.83 152.074 381.63C153.079 383.502 154.528 385.113 156.301 386.33C157.283 386.96 158.42 387.326 159.594 387.39C160.547 387.424 161.494 387.221 162.344 386.8C163.098 386.37 163.751 385.791 164.263 385.1Z" fill="#113F55"/>
<path d="M165.637 377.14C165.121 377.581 164.522 377.921 163.873 378.14C162.339 378.749 160.706 379.087 159.05 379.14C157.389 379.213 155.728 378.992 154.146 378.49C153.48 378.329 152.855 378.036 152.31 377.63C154.479 378.303 156.743 378.64 159.02 378.63C161.29 378.464 163.522 377.962 165.637 377.14Z" fill="#113F55"/>
<path d="M235.652 190.92H204.287C204.287 190.92 200.019 188.53 197.967 188.92C196.455 189.389 195.115 190.275 194.109 191.47L198.264 225.15L208.422 217.83L246.24 214C247.861 213.983 249.461 213.648 250.945 213.013C252.43 212.379 253.768 211.46 254.879 210.31C256.085 209.061 256.996 207.569 257.548 205.94C258.099 204.311 258.277 202.584 258.07 200.88L251.072 164.65L236.708 165.12L236.134 174.31L235.652 190.92Z" fill="#113F55"/>
<path d="M149.304 199.41C145.934 201.443 143.29 204.439 141.732 207.99C139.905 212.27 127.368 233.65 120.822 244.83C119.658 246.81 119.181 249.104 119.464 251.369C119.747 253.635 120.774 255.75 122.392 257.4C126.393 261.47 133.103 262.59 138.941 260.74C141.557 259.91 152.033 251.62 152.033 251.62L149.304 199.41Z" fill="#113F55"/>
<path d="M154.762 275.8L147.57 215.49L149.303 199.41L167.618 191.81L191.328 190.29L213.911 192.72L208.627 254.58L214.403 289.47L151.161 292.25L154.762 275.8Z" fill="#113F55"/>
<path d="M154.731 275.54C154.587 275.54 152.864 262.13 150.884 245.54C148.903 228.95 147.426 215.54 147.57 215.48C147.713 215.42 149.437 228.9 151.417 245.48C153.397 262.06 154.926 275.52 154.731 275.54Z" fill="#263238"/>
<path d="M213.408 206.25C213.437 206.432 213.437 206.618 213.408 206.8C213.408 207.21 213.326 207.72 213.264 208.35C213.111 209.76 212.916 211.69 212.669 214.03C212.167 218.9 211.489 225.5 210.74 232.8C209.991 240.1 209.437 246.8 209.068 251.58C208.894 253.93 208.75 255.86 208.647 257.28C208.647 257.91 208.555 258.42 208.524 258.83C208.519 259.013 208.492 259.194 208.442 259.37C208.416 259.191 208.416 259.009 208.442 258.83C208.442 258.41 208.442 257.9 208.442 257.27C208.442 255.92 208.565 253.97 208.688 251.56C208.965 246.74 209.489 240.08 210.207 232.75C210.925 225.42 211.695 218.75 212.259 213.99C212.567 211.6 212.823 209.66 213.028 208.32C213.121 207.7 213.203 207.19 213.264 206.78C213.287 206.598 213.335 206.419 213.408 206.25Z" fill="#263238"/>
<path d="M202.563 266.3C202.253 266.722 201.91 267.12 201.537 267.49C201.138 267.953 200.71 268.39 200.255 268.8C199.721 269.28 199.147 269.86 198.428 270.4C197.671 271.032 196.876 271.62 196.048 272.16C195.113 272.802 194.143 273.396 193.144 273.94C188.542 276.434 183.437 277.918 178.185 278.29C176.975 278.29 175.836 278.42 174.759 278.36C173.764 278.349 172.77 278.282 171.783 278.16C170.967 278.077 170.155 277.953 169.352 277.79C168.738 277.692 168.131 277.555 167.536 277.38C167.02 277.269 166.516 277.115 166.027 276.92C166.027 276.8 168.223 277.46 171.814 277.79C172.796 277.886 173.782 277.932 174.769 277.93C175.795 277.93 176.954 277.87 178.144 277.81C183.31 277.387 188.33 275.926 192.888 273.52C193.914 272.93 194.94 272.41 195.781 271.81C196.623 271.21 197.454 270.66 198.172 270.12C201.034 267.92 202.471 266.22 202.563 266.3Z" fill="#263238"/>
<g opacity="0.3">
<path d="M169.126 277.56C166.048 276.7 165.873 273.87 167.074 272.66C168.274 271.45 170.152 271.29 171.906 271.53C173.587 271.932 175.307 272.157 177.036 272.2C179.848 272.02 182.166 270.11 184.157 268.13C186.147 266.15 187.963 263.93 190.528 262.79C193.093 261.65 196.684 262.06 198.018 264.47C198.404 265.261 198.578 266.134 198.524 267.009C198.47 267.883 198.19 268.73 197.71 269.47C196.742 270.95 195.44 272.195 193.904 273.11C190.324 275.49 186.274 277.116 182.012 277.882C177.751 278.648 173.372 278.539 169.157 277.56" fill="black"/>
</g>
<g opacity="0.2">
<path d="M150.165 237.63C149.611 238.39 144.266 245.51 144.266 245.51C144.122 246.23 138.941 252.74 138.941 252.74C138.941 252.74 143.548 250.25 147.087 248.47C148.583 247.606 150.001 246.619 151.325 245.52C151.325 245.52 150.524 240.62 150.176 238.79C149.386 234.69 148.852 225.44 148.852 225.44" fill="black"/>
</g>
<path d="M206.524 192.15C208.213 192.747 209.655 193.868 210.628 195.34C211.754 196.708 212.391 198.397 212.444 200.15C211.481 196.893 209.384 194.064 206.513 192.15H206.524Z" fill="#263238"/>
<path d="M150.165 237.63C149.731 238.49 149.212 239.307 148.616 240.07C147.59 241.53 146.174 243.53 144.563 245.72C141.331 250.08 138.572 253.57 138.407 253.37L140.059 251.04L144.163 245.42C145.774 243.23 147.241 241.26 148.339 239.86C148.878 239.065 149.489 238.318 150.165 237.63Z" fill="#263238"/>
</svg>