<svg width="750" height="500" viewBox="0 0 750 500" fill="none" xmlns="http://www.w3.org/2000/svg">
<path d="M378.68 241.55L378.71 241.56L378.7 241.53L378.68 241.54V241.55Z" fill="#F5F5F5"/>
<path d="M378.81 241.79L378.82 241.81L378.81 241.79Z" fill="#F5F5F5"/>
<path d="M378.87 241.66L378.88 241.69L378.9 241.65L378.87 241.66Z" fill="#F5F5F5"/>
<path d="M378.52 241.9L378.39 242.7L378.73 242L378.7 241.71L378.52 241.9Z" fill="#F5F5F5"/>
<path d="M378.83 241.66L378.85 241.68V241.66H378.83Z" fill="#F5F5F5"/>
<path d="M195.61 113.21L187.3 108.72L178.88 113.02L180.59 103.72L173.9 97.05L183.26 95.8L187.54 87.38L191.63 95.9L200.96 97.36L194.12 103.88L195.61 113.21Z" fill="#FAA11F"/>
<path d="M436.06 64.5L427.75 60.01L419.33 64.31L421.04 55.01L414.35 48.34L423.71 47.09L427.99 38.66L432.08 47.18L441.41 48.65L434.57 55.17L436.06 64.5Z" fill="#FAA11F"/>
<path d="M206.84 436.9L198.53 432.4L190.11 436.71L191.82 427.41L185.13 420.74L194.49 419.49L198.77 411.06L202.86 419.58L212.19 421.05L205.35 427.57L206.84 436.9Z" fill="#FAA11F"/>
<path d="M562.5 433.47L554.18 428.97L545.77 433.27L547.47 423.98L540.78 417.31L550.15 416.06L554.43 407.63L558.51 416.15L567.85 417.62L561 424.13L562.5 433.47Z" fill="#FAA11F"/>
<path d="M134.45 119.91L130.14 117.58L125.78 119.81L126.67 114.99L123.2 111.53L128.05 110.88L130.27 106.52L132.39 110.93L137.22 111.69L133.68 115.07L134.45 119.91Z" fill="#FAA11F"/>
<path d="M252.49 457.09L248.18 454.76L243.82 456.99L244.7 452.17L241.23 448.71L246.09 448.06L248.31 443.7L250.42 448.12L255.26 448.87L251.71 452.25L252.49 457.09Z" fill="#FAA11F"/>
<path d="M511.82 382.18L507.51 379.85L503.15 382.07L504.04 377.26L500.57 373.8L505.42 373.15L507.64 368.79L509.76 373.2L514.6 373.96L511.05 377.34L511.82 382.18Z" fill="#FAA11F"/>
<path d="M614.97 117.91L610.66 115.58L606.3 117.81L607.19 113L603.72 109.54L608.57 108.89L610.79 104.52L612.91 108.94L617.75 109.7L614.2 113.08L614.97 117.91Z" fill="#FAA11F"/>
<path d="M718.02 146.49H546.39V385.05H718.02V146.49Z" fill="white"/>
<path d="M718.02 146.49H546.39V232.84H718.02V146.49Z" fill="#615DB5"/>
<path d="M688.3 254C688.3 254.15 664.7 254.27 635.6 254.27C606.5 254.27 582.9 254.15 582.9 254C582.9 253.85 606.49 253.74 635.6 253.74C664.71 253.74 688.3 253.83 688.3 254Z" fill="#263238"/>
<path d="M688.3 277.23C688.3 277.37 664.7 277.49 635.6 277.49C606.5 277.49 582.9 277.37 582.9 277.23C582.9 277.09 606.49 276.97 635.6 276.97C664.71 276.97 688.3 277.09 688.3 277.23Z" fill="#263238"/>
<path d="M688.3 300.49C688.3 300.63 664.7 300.75 635.6 300.75C606.5 300.75 582.9 300.63 582.9 300.49C582.9 300.35 606.49 300.22 635.6 300.22C664.71 300.22 688.3 300.34 688.3 300.49Z" fill="#263238"/>
<path d="M687.86 327.3H584.77C574.63 327.3 566.41 335.52 566.41 345.66V347.57C566.41 357.71 574.63 365.93 584.77 365.93H687.86C698 365.93 706.22 357.71 706.22 347.57V345.66C706.22 335.52 698 327.3 687.86 327.3Z" fill="#615DB5"/>
<path d="M610.13 350.52C609.268 350.061 608.554 349.367 608.07 348.52C607.572 347.66 607.31 346.684 607.31 345.69C607.31 344.696 607.572 343.72 608.07 342.86C608.564 342.033 609.277 341.358 610.13 340.91C611.053 340.422 612.086 340.177 613.13 340.2C613.985 340.184 614.834 340.351 615.62 340.69C616.349 340.996 616.994 341.472 617.5 342.08L615.92 343.54C615.597 343.145 615.19 342.827 614.727 342.611C614.265 342.394 613.76 342.285 613.25 342.29C612.635 342.281 612.028 342.433 611.49 342.73C610.982 343.009 610.563 343.425 610.28 343.93C609.992 344.471 609.844 345.077 609.85 345.69C609.841 346.304 609.989 346.909 610.28 347.45C610.56 347.96 610.98 348.38 611.49 348.66C612.029 348.954 612.636 349.102 613.25 349.09C613.761 349.096 614.267 348.985 614.73 348.767C615.192 348.549 615.599 348.228 615.92 347.83L617.5 349.29C616.994 349.903 616.35 350.386 615.62 350.7C614.824 351.028 613.97 351.192 613.11 351.18C612.077 351.217 611.051 350.99 610.13 350.52Z" fill="white"/>
<path d="M626.34 343.67C626.673 344.032 626.929 344.458 627.09 344.922C627.252 345.387 627.317 345.88 627.28 346.37V351H624.91V346.69C624.95 346.175 624.801 345.663 624.49 345.25C624.332 345.086 624.14 344.958 623.927 344.875C623.715 344.793 623.487 344.757 623.26 344.77C622.996 344.757 622.733 344.799 622.487 344.894C622.24 344.988 622.017 345.134 621.83 345.32C621.447 345.781 621.257 346.372 621.3 346.97V350.97H618.93V339.79H621.3V343.73C621.624 343.411 622.013 343.166 622.44 343.01C622.904 342.838 623.395 342.753 623.89 342.76C624.339 342.739 624.787 342.808 625.208 342.965C625.629 343.121 626.014 343.361 626.34 343.67Z" fill="white"/>
<path d="M631.08 350.63C630.417 350.289 629.863 349.769 629.48 349.13C629.1 348.47 628.9 347.722 628.9 346.96C628.9 346.198 629.1 345.45 629.48 344.79C629.865 344.154 630.419 343.638 631.08 343.3C631.798 342.945 632.589 342.76 633.39 342.76C634.191 342.76 634.982 342.945 635.7 343.3C636.358 343.64 636.908 344.156 637.29 344.79C637.67 345.45 637.87 346.198 637.87 346.96C637.87 347.722 637.67 348.47 637.29 349.13C636.91 349.768 636.359 350.287 635.7 350.63C634.98 350.979 634.19 351.16 633.39 351.16C632.59 351.16 631.8 350.979 631.08 350.63ZM634.89 348.63C635.294 348.178 635.503 347.585 635.47 346.98C635.487 346.682 635.445 346.383 635.345 346.102C635.245 345.82 635.091 345.561 634.89 345.34C634.693 345.143 634.459 344.986 634.202 344.88C633.945 344.773 633.669 344.718 633.39 344.718C633.111 344.718 632.836 344.773 632.578 344.88C632.321 344.986 632.087 345.143 631.89 345.34C631.686 345.559 631.529 345.818 631.427 346.1C631.326 346.382 631.283 346.681 631.3 346.98C631.284 347.28 631.327 347.581 631.429 347.865C631.53 348.148 631.687 348.408 631.89 348.63C632.292 349.021 632.83 349.24 633.39 349.24C633.95 349.24 634.489 349.021 634.89 348.63Z" fill="white"/>
<path d="M641 350.63C640.339 350.286 639.786 349.767 639.4 349.13C639.027 348.468 638.831 347.72 638.831 346.96C638.831 346.2 639.027 345.452 639.4 344.79C639.785 344.154 640.339 343.638 641 343.3C641.718 342.933 642.514 342.748 643.32 342.76C644.12 342.745 644.91 342.931 645.62 343.3C646.281 343.638 646.835 344.154 647.22 344.79C647.593 345.452 647.789 346.2 647.789 346.96C647.789 347.72 647.593 348.468 647.22 349.13C646.834 349.767 646.281 350.286 645.62 350.63C644.908 350.991 644.118 351.173 643.32 351.16C642.515 351.173 641.719 350.991 641 350.63ZM644.81 348.63C645.217 348.179 645.429 347.586 645.4 346.98C645.415 346.681 645.371 346.382 645.269 346.101C645.168 345.819 645.012 345.561 644.81 345.34C644.618 345.139 644.387 344.98 644.13 344.873C643.874 344.766 643.598 344.714 643.32 344.72C643.04 344.713 642.763 344.764 642.504 344.871C642.246 344.978 642.013 345.138 641.82 345.34C641.614 345.559 641.455 345.817 641.352 346.099C641.249 346.38 641.204 346.68 641.22 346.98C641.205 347.281 641.25 347.582 641.353 347.866C641.456 348.149 641.615 348.409 641.82 348.63C642.014 348.831 642.247 348.989 642.505 349.094C642.764 349.199 643.041 349.249 643.32 349.24C643.6 349.246 643.878 349.193 644.137 349.084C644.395 348.976 644.628 348.814 644.82 348.61L644.81 348.63Z" fill="white"/>
<path d="M650.14 350.91C649.591 350.791 649.067 350.577 648.59 350.28L649.38 348.58C649.787 348.838 650.233 349.031 650.7 349.15C651.194 349.295 651.706 349.369 652.22 349.37C653.22 349.37 653.72 349.13 653.72 348.63C653.716 348.513 653.674 348.401 653.6 348.31C653.526 348.22 653.424 348.156 653.31 348.13C652.901 347.998 652.478 347.911 652.05 347.87C651.492 347.793 650.941 347.676 650.4 347.52C649.967 347.394 649.576 347.152 649.27 346.82C648.932 346.427 648.76 345.918 648.79 345.4C648.783 344.906 648.941 344.424 649.24 344.03C649.576 343.6 650.027 343.274 650.54 343.09C651.181 342.86 651.859 342.749 652.54 342.76C653.119 342.759 653.696 342.823 654.26 342.95C654.757 343.052 655.235 343.227 655.68 343.47L654.89 345.16C654.175 344.752 653.364 344.542 652.54 344.55C652.149 344.526 651.757 344.598 651.4 344.76C651.292 344.808 651.2 344.884 651.133 344.981C651.066 345.079 651.027 345.192 651.02 345.31C651.02 345.431 651.061 345.549 651.135 345.645C651.209 345.74 651.313 345.809 651.43 345.84C651.854 345.976 652.289 346.074 652.73 346.13C653.283 346.216 653.83 346.333 654.37 346.48C654.795 346.607 655.178 346.845 655.48 347.17C655.81 347.56 655.978 348.06 655.95 348.57C655.958 349.058 655.799 349.534 655.5 349.92C655.149 350.343 654.689 350.661 654.17 350.84C653.505 351.07 652.804 351.179 652.1 351.16C651.439 351.16 650.78 351.076 650.14 350.91Z" fill="white"/>
<path d="M665.38 347.63H659.21C659.307 348.118 659.591 348.548 660 348.83C660.458 349.135 661 349.289 661.55 349.27C661.935 349.273 662.317 349.209 662.68 349.08C663.02 348.942 663.329 348.738 663.59 348.48L664.85 349.84C664.423 350.295 663.9 350.65 663.319 350.878C662.738 351.107 662.113 351.203 661.49 351.16C660.643 351.175 659.805 350.994 659.04 350.63C658.363 350.295 657.794 349.775 657.4 349.13C657.027 348.47 656.831 347.724 656.831 346.965C656.831 346.206 657.027 345.461 657.4 344.8C657.772 344.166 658.312 343.647 658.96 343.3C659.64 342.955 660.392 342.775 661.155 342.775C661.918 342.775 662.67 342.955 663.35 343.3C663.99 343.638 664.521 344.152 664.88 344.78C665.258 345.465 665.448 346.238 665.43 347.02C665.43 347.02 665.42 347.23 665.38 347.63ZM659.85 345C659.476 345.317 659.237 345.763 659.18 346.25H663.18C663.121 345.767 662.882 345.324 662.51 345.01C662.137 344.701 661.664 344.537 661.18 344.55C660.697 344.534 660.224 344.694 659.85 345Z" fill="white"/>
<path d="M572.18 258.31C571.812 258.314 571.456 258.182 571.18 257.94L568.24 255.35C567.942 255.085 567.761 254.712 567.737 254.313C567.714 253.915 567.85 253.523 568.115 253.225C568.38 252.927 568.753 252.746 569.152 252.722C569.55 252.699 569.942 252.835 570.24 253.1L572.07 254.71L576.21 250.13C576.481 249.859 576.846 249.702 577.23 249.692C577.613 249.682 577.986 249.819 578.272 250.075C578.557 250.331 578.734 250.686 578.765 251.069C578.796 251.451 578.68 251.831 578.44 252.13L573.3 257.8C573.16 257.959 572.988 258.087 572.795 258.175C572.602 258.263 572.392 258.309 572.18 258.31Z" fill="#615DB5"/>
<path d="M572.18 281.56C571.812 281.564 571.456 281.432 571.18 281.19L568.24 278.61C568.091 278.479 567.97 278.319 567.884 278.141C567.797 277.963 567.746 277.77 567.734 277.572C567.709 277.172 567.845 276.78 568.11 276.48C568.375 276.18 568.748 275.998 569.148 275.974C569.547 275.95 569.94 276.085 570.24 276.35L572.07 277.96L576.21 273.39C576.338 273.231 576.496 273.1 576.676 273.004C576.856 272.908 577.054 272.85 577.257 272.834C577.461 272.817 577.665 272.842 577.858 272.907C578.052 272.972 578.23 273.076 578.381 273.212C578.533 273.348 578.656 273.514 578.741 273.699C578.827 273.884 578.874 274.085 578.879 274.288C578.885 274.492 578.849 274.695 578.773 274.884C578.698 275.074 578.584 275.246 578.44 275.39L573.3 281.06C573.16 281.219 572.988 281.346 572.794 281.432C572.601 281.519 572.392 281.562 572.18 281.56Z" fill="#615DB5"/>
<path d="M572.18 304.82C571.812 304.824 571.456 304.692 571.18 304.45L568.24 301.86C567.942 301.595 567.761 301.222 567.737 300.823C567.714 300.425 567.85 300.033 568.115 299.735C568.38 299.437 568.753 299.256 569.152 299.232C569.55 299.209 569.942 299.345 570.24 299.61L572.07 301.22L576.21 296.64C576.481 296.369 576.846 296.212 577.23 296.202C577.613 296.192 577.986 296.329 578.272 296.585C578.557 296.841 578.734 297.196 578.765 297.579C578.796 297.961 578.68 298.341 578.44 298.64L573.3 304.31C573.16 304.469 572.988 304.597 572.795 304.685C572.602 304.773 572.392 304.819 572.18 304.82Z" fill="#615DB5"/>
<path d="M664.5 173L669.588 183.198L681 184.846L672.74 192.785L674.697 204L664.5 198.708L654.304 204L656.24 192.785L648 184.846L659.392 183.198L664.5 173Z" fill="white"/>
<path d="M623.5 173L628.609 183.198L640 184.846L631.761 192.785L633.697 204L623.5 198.708L613.304 204L615.261 192.785L607 184.846L618.412 183.198L623.5 173Z" fill="white"/>
<path d="M656.308 216L642.772 208.528L629.11 215.681L631.876 200.226L621 189.114L636.221 187.028L643.167 173L649.821 187.177L665 189.625L653.875 200.482L656.308 216Z" fill="white"/>
<path d="M618 188.589L635.313 186.328L643.211 171L650.751 186.494L668 189.17L655.363 201.013L658.122 218L642.769 209.828L627.225 217.647L630.363 200.743L618 188.589ZM662.566 190.829L649.066 188.755L643.148 176.6L636.956 188.61L623.392 190.352L633.059 199.851L630.616 213.167L642.79 206.945L654.816 213.354L652.71 200.059L662.566 190.829Z" fill="#615DB5"/>
<path d="M718 385.05C718 382.95 717.9 287.5 717.76 146.49L718 146.73H546.39L546.65 146.47C546.65 235.73 546.65 318.32 546.65 385.03L546.44 384.82L718.07 385.03L546.44 385.24H546.22V385.03C546.22 318.32 546.22 235.73 546.22 146.47V146.21H546.5H718.11H718.34V146.44C718.11 287.5 718 383 718 385.05Z" fill="#263238"/>
<path d="M579.31 116.14C579.836 115.171 580.162 114.107 580.271 113.009C580.38 111.912 580.269 110.805 579.944 109.751C579.618 108.698 579.086 107.72 578.378 106.875C577.67 106.03 576.8 105.334 575.82 104.83C576.134 102.121 575.392 99.3961 573.75 97.2194C572.108 95.0428 569.691 93.5819 567 93.14C564.42 92.83 561.81 93.51 559.22 93.31C556.63 93.11 554.39 92.11 551.93 91.66C549.47 91.21 546.64 91.47 544.93 93.31C543.06 95.31 543.34 98.7 544.83 101.05C546.32 103.4 548.72 104.96 551.05 106.46C550.351 106.459 549.676 106.712 549.149 107.172C548.623 107.632 548.282 108.267 548.19 108.96C548.044 110.381 548.429 111.806 549.27 112.96C550.54 114.907 552.324 116.466 554.423 117.465C556.523 118.464 558.858 118.863 561.17 118.62L567.7 118.43C568.609 119.054 569.633 119.489 570.713 119.712C571.792 119.934 572.905 119.939 573.986 119.726C575.068 119.513 576.096 119.085 577.01 118.47C577.924 117.854 578.706 117.062 579.31 116.14Z" fill="#263238"/>
<path d="M558.68 122.59C558.009 122.65 557.339 122.459 556.8 122.055C556.261 121.65 555.891 121.061 555.76 120.4C555.657 119.732 555.74 119.048 555.999 118.424C556.259 117.8 556.684 117.259 557.23 116.86C558.346 116.095 559.693 115.741 561.04 115.86C562.384 115.974 563.704 116.28 564.96 116.77C566.936 117.42 568.827 118.306 570.59 119.41C571.227 119.783 571.773 120.291 572.19 120.9C572.397 121.207 572.517 121.564 572.538 121.934C572.559 122.303 572.481 122.671 572.31 123C571.77 123.88 570.56 124 569.53 124C565.664 124.018 561.805 123.683 558 123" fill="#FAA11F"/>
<path d="M556.53 120.39C555.76 113.07 545.43 106.5 540.97 107.67C539.835 105.558 537.93 103.965 535.651 103.22C533.372 102.475 530.893 102.636 528.73 103.67L516.57 98.28C514.49 97.36 512.31 96.41 510.05 96.61C507.79 96.81 505.49 98.61 505.57 100.86C501.18 99.11 495.69 103.54 496.49 108.21C495.835 108.359 495.218 108.64 494.676 109.037C494.134 109.433 493.679 109.937 493.339 110.515C492.999 111.094 492.781 111.737 492.699 112.403C492.617 113.069 492.671 113.746 492.86 114.39C487.407 115.74 482.226 118.013 477.54 121.11C475.54 122.4 473.61 123.99 472.97 126.24C472.33 128.49 473.76 131.43 476.1 131.45C475.052 131.8 474.126 132.444 473.435 133.306C472.743 134.168 472.314 135.211 472.2 136.31C470.39 135.05 467.85 137.4 468.13 139.59C468.41 141.78 470.28 143.36 472.08 144.59C473.88 145.82 475.87 147.16 476.59 149.24C476.415 149.448 476.2 149.618 475.958 149.74C475.716 149.862 475.451 149.934 475.18 149.95C470.32 150.19 466.33 153.82 466.27 158.68C466.27 159.13 466.27 159.55 466.27 159.92C466.27 162.14 467.79 165.34 468.77 167.32C471.24 172.32 473.92 173.71 477.92 177.64C474.58 179.64 477.16 191.36 490.09 191.18C503.41 207.82 514.14 218.3 531.29 230.95C533.74 232.76 536.93 234.59 539.63 233.19C541.23 235.19 544.05 235.83 546.58 235.47C549.083 234.955 551.481 234.018 553.67 232.7C556.241 233.638 559.039 233.757 561.68 233.041C564.321 232.325 566.675 230.808 568.42 228.7C570.689 228.621 572.917 228.071 574.963 227.084C577.008 226.098 578.826 224.697 580.3 222.97C585.35 224.74 591.55 221.05 592.41 215.77C595.243 210.046 597.108 203.893 597.93 197.56C601.19 199.01 605.03 196 605.81 192.51C606.59 189.02 605.27 185.51 603.97 182.14C605.67 184.24 609.44 182.94 610.49 180.46C611.54 177.98 610.71 175.12 609.66 172.63C608.134 168.979 606.169 165.527 603.81 162.35C605.52 157.92 603.88 150.23 601.62 146.05C592.5 129.18 583.93 120.32 556.55 120.3" fill="#263238"/>
<path d="M527.06 132.91C527.992 131.414 529.454 130.325 531.154 129.859C532.853 129.394 534.666 129.587 536.23 130.4L572.6 143C583.28 148.5 581.85 165.15 575.9 175.59C569.29 187.19 560.77 201.09 554 208.53C540.38 223.53 524.12 215.59 524.12 215.59L516.12 227.65L506.87 241.76C502.65 237.84 477.07 210.32 477.07 210.32L527.06 132.91Z" fill="#FFBF9D"/>
<path d="M542.49 188.88C542.56 188.74 544.16 189.43 546.68 190.66C547.31 190.99 547.94 191.24 548.3 190.9C548.749 190.325 549.014 189.628 549.06 188.9C549.44 187.113 549.84 185.237 550.26 183.27C552.03 175.27 553.72 168.9 554.04 168.97C554.36 169.04 553.19 175.57 551.42 183.54C550.97 185.54 550.54 187.36 550.12 189.15C550.026 190.103 549.597 190.992 548.91 191.66C548.689 191.811 548.436 191.909 548.171 191.947C547.906 191.985 547.635 191.962 547.38 191.88C546.997 191.756 546.631 191.585 546.29 191.37C543.87 190 542.41 189 542.49 188.88Z" fill="#263238"/>
<path d="M524.12 215.58C524.12 215.58 514.46 210.58 507.71 196.58C507.71 196.58 502.24 210.79 520.29 221.35L524.12 215.58Z" fill="#FF9A6C"/>
<path d="M551 157.1C550.36 157.58 548.25 155.77 545.33 154.32C542.41 152.87 539.74 152.17 539.75 151.38C539.75 151 540.53 150.66 541.81 150.63C543.475 150.66 545.112 151.069 546.597 151.824C548.081 152.579 549.375 153.662 550.38 154.99C551.06 156.05 551.24 156.87 551 157.1Z" fill="#263238"/>
<path d="M572.69 172.26C571.94 172.52 570.69 170.93 568.81 169.65C566.93 168.37 565.06 167.65 565.04 166.9C565.04 166.53 565.65 166.17 566.69 166.14C568.03 166.147 569.335 166.573 570.42 167.36C571.531 168.117 572.38 169.2 572.85 170.46C573.17 171.44 573 172.12 572.69 172.26Z" fill="#263238"/>
<path d="M577.56 188.62C579.345 186.005 580.175 182.855 579.91 179.7C579.69 178 579.04 176.36 579 174.64C578.91 170.93 581.56 167.79 582.89 164.33C583.727 162.081 584.016 159.665 583.732 157.283C583.449 154.9 582.601 152.62 581.26 150.63C579 147.35 575.45 145.01 573.7 141.44C572.4 138.8 572.19 135.7 570.7 133.15C567.87 128.15 561.41 126.79 555.7 126.29C552.62 128.89 552.7 133.08 552.7 137.11C552.725 139.125 553.185 141.11 554.048 142.931C554.911 144.752 556.157 146.365 557.7 147.66C560.12 149.66 563.48 151.2 563.96 154.29C564.46 157.54 561.32 160.36 561.28 163.64C561.23 168.34 567.09 170.77 568.99 175.07C570.45 178.38 569.33 182.19 568.69 185.76C568.05 189.33 568.27 193.7 571.31 195.68C573.656 193.572 575.752 191.204 577.56 188.62Z" fill="#263238"/>
<path d="M557.89 136.62C550.553 131.155 542.226 127.165 533.37 124.87C530.74 124.19 527.89 123.67 525.37 124.7C523.16 125.6 521.56 127.54 520.18 129.5C515.88 135.61 512.96 144.8 511.18 152.08L515.48 162.08C522.31 164.91 526.9 152.91 530.27 147.66C532.969 148.198 535.764 147.967 538.338 146.995C540.912 146.023 543.161 144.348 544.83 142.16C547.284 142.282 549.734 141.847 551.995 140.887C554.257 139.928 556.272 138.469 557.89 136.62Z" fill="#263238"/>
<path d="M517 159.83C519.28 156.19 515.5 152.44 511.23 152.08C508.89 151.88 506.23 152.93 503.8 156.77C497.28 166.99 508.89 171.44 509.1 171.15C509.31 170.86 514.33 164.08 517 159.83Z" fill="#FFBF9D"/>
<path d="M508.44 165.29C508.44 165.22 508.18 165.29 507.79 165.29C507.251 165.203 506.766 164.909 506.44 164.47C505.61 163.38 505.8 161.09 506.92 159.21C507.456 158.318 508.183 157.556 509.05 156.98C509.35 156.722 509.707 156.541 510.092 156.453C510.477 156.364 510.878 156.37 511.26 156.47C511.5 156.545 511.706 156.703 511.841 156.915C511.977 157.127 512.033 157.381 512 157.63C512 158 511.76 158.16 511.81 158.22C511.86 158.28 512.13 158.22 512.32 157.71C512.422 157.419 512.422 157.101 512.32 156.81C512.173 156.418 511.879 156.099 511.5 155.92C511.027 155.739 510.516 155.681 510.014 155.751C509.512 155.82 509.036 156.016 508.63 156.32C507.626 156.926 506.788 157.771 506.19 158.78C504.94 160.88 504.76 163.48 505.97 164.85C506.194 165.105 506.471 165.306 506.783 165.439C507.094 165.572 507.432 165.634 507.77 165.62C508.26 165.52 508.46 165.33 508.44 165.29Z" fill="#FF9A6C"/>
<path d="M504.36 168.63C504.36 168.63 504.36 168.63 504.24 168.74C504.12 168.849 503.986 168.94 503.84 169.01C503.257 169.298 502.591 169.368 501.96 169.21C500.954 168.995 500.004 168.573 499.17 167.97C498.632 167.601 498.13 167.183 497.67 166.72C497.129 166.209 496.674 165.615 496.32 164.96H496.48C495.747 165.697 494.835 166.23 493.833 166.509C492.832 166.787 491.775 166.8 490.767 166.547C489.759 166.294 488.834 165.783 488.082 165.065C487.331 164.347 486.779 163.446 486.48 162.45L486.67 162.54C486.049 162.767 485.363 162.742 484.76 162.47C484.151 162.195 483.634 161.751 483.27 161.19C482.878 160.6 482.692 159.897 482.74 159.19C482.789 158.477 483.02 157.788 483.41 157.19C484.223 155.976 485.437 155.087 486.84 154.68C488.279 154.286 489.759 154.068 491.25 154.03L491.11 154.27C490.887 153.719 490.782 153.127 490.803 152.532C490.824 151.938 490.969 151.354 491.23 150.82C491.738 149.707 492.563 148.768 493.6 148.12C494.675 147.496 495.86 147.085 497.09 146.91C498.329 146.733 499.578 146.636 500.83 146.62L500.66 146.83C500.581 146.197 500.636 145.555 500.822 144.945C501.008 144.335 501.321 143.771 501.74 143.29C502.578 142.278 503.699 141.54 504.96 141.17C507.38 140.47 509.86 140.9 512.16 141.28L511.96 141.4C512.436 140.185 513.201 139.105 514.19 138.254C515.178 137.403 516.36 136.806 517.632 136.516C518.904 136.226 520.228 136.252 521.487 136.591C522.747 136.929 523.905 137.571 524.86 138.46L524.59 138.52C525.04 137.561 525.704 136.717 526.531 136.055C527.358 135.393 528.326 134.929 529.36 134.7C530.314 134.451 531.31 134.412 532.28 134.585C533.25 134.757 534.171 135.138 534.98 135.7H534.77C535.396 134.88 536.201 134.213 537.122 133.748C538.044 133.284 539.058 133.035 540.09 133.02C540.993 132.977 541.895 133.117 542.742 133.432C543.589 133.746 544.364 134.229 545.02 134.85H544.83C545.53 133.994 546.43 133.325 547.45 132.9C548.332 132.502 549.276 132.259 550.24 132.18C551.781 132.009 553.334 132.361 554.65 133.18L555.03 133.42C555.15 133.51 555.26 133.61 555.36 133.7C555.559 133.863 555.749 134.037 555.93 134.22C556.203 134.514 556.454 134.828 556.68 135.16C556.84 135.43 556.96 135.64 557.06 135.79L557.18 136.01C557.123 135.949 557.073 135.882 557.03 135.81L556.62 135.2C556.389 134.879 556.135 134.575 555.86 134.29C555.681 134.111 555.491 133.944 555.29 133.79L554.96 133.52L554.58 133.29C553.278 132.524 551.76 132.208 550.26 132.39C549.319 132.485 548.4 132.735 547.54 133.13C546.558 133.539 545.695 134.189 545.03 135.02L544.94 135.13L544.85 135.03C544.216 134.436 543.469 133.977 542.652 133.681C541.835 133.386 540.967 133.259 540.1 133.31C539.101 133.337 538.121 133.593 537.236 134.06C536.352 134.526 535.587 135.19 535 136L534.91 136.13L534.79 136.04C534.012 135.513 533.13 135.16 532.203 135.007C531.276 134.853 530.326 134.902 529.42 135.15C528.436 135.369 527.514 135.812 526.727 136.443C525.94 137.074 525.308 137.877 524.88 138.79L524.78 139.01L524.61 138.85C523.692 138.011 522.585 137.407 521.382 137.089C520.18 136.772 518.918 136.751 517.706 137.028C516.494 137.306 515.367 137.873 514.422 138.681C513.477 139.49 512.742 140.515 512.28 141.67V141.81H512.13C509.83 141.43 507.41 141.02 505.13 141.69C503.954 142.045 502.91 142.741 502.13 143.69C501.742 144.132 501.452 144.651 501.28 145.213C501.107 145.775 501.056 146.367 501.13 146.95V147.15H500.92C498.44 147.22 495.92 147.35 493.87 148.59C492.89 149.193 492.11 150.074 491.63 151.12C491.388 151.61 491.252 152.145 491.229 152.691C491.207 153.237 491.299 153.782 491.5 154.29L491.6 154.52H491.35C489.887 154.553 488.432 154.765 487.02 155.15C485.688 155.526 484.533 156.362 483.76 157.51C483.38 158.027 483.162 158.645 483.133 159.286C483.105 159.927 483.267 160.562 483.6 161.11C483.893 161.632 484.353 162.04 484.907 162.267C485.461 162.494 486.075 162.527 486.65 162.36L486.79 162.31L486.84 162.46C487.169 163.485 487.773 164.4 488.585 165.105C489.398 165.81 490.389 166.279 491.45 166.46C492.35 166.596 493.268 166.523 494.135 166.247C495.002 165.971 495.794 165.5 496.45 164.87L496.55 164.77L496.61 164.89C496.95 165.529 497.385 166.112 497.9 166.62C498.35 167.079 498.842 167.494 499.37 167.86C500.182 168.462 501.107 168.894 502.09 169.13C502.702 169.29 503.35 169.241 503.93 168.99C504.19 168.77 504.35 168.61 504.36 168.63Z" fill="#455A64"/>
<path d="M474.55 131.09C474.536 130.802 474.557 130.513 474.61 130.23C474.744 129.405 475.043 128.616 475.49 127.91C476.187 126.769 477.242 125.89 478.49 125.41C479.329 125.098 480.224 124.965 481.118 125.018C482.011 125.071 482.884 125.31 483.68 125.72H483.52C484.399 123.815 485.968 122.314 487.91 121.52C488.98 121.06 490.136 120.835 491.3 120.86C492.519 120.973 493.724 121.201 494.9 121.54C495.502 121.683 496.122 121.737 496.74 121.7C497.366 121.655 497.972 121.463 498.51 121.14C499.63 120.52 500.57 119.51 501.85 118.89C503.194 118.283 504.689 118.093 506.141 118.344C507.594 118.595 508.938 119.277 510 120.3H509.71C510.401 118.984 511.385 117.844 512.586 116.969C513.788 116.095 515.174 115.508 516.639 115.255C518.103 115.001 519.607 115.088 521.032 115.509C522.458 115.929 523.767 116.672 524.86 117.68H524.58C525.391 116.266 526.59 115.115 528.036 114.362C529.481 113.61 531.112 113.287 532.735 113.434C534.359 113.58 535.906 114.189 537.193 115.188C538.481 116.187 539.455 117.534 540 119.07L539.83 118.97C541.488 118.739 543.177 118.868 544.78 119.35C546.215 119.753 547.593 120.338 548.88 121.09C550.987 122.279 552.864 123.837 554.42 125.69C555.436 126.859 556.253 128.187 556.84 129.62C556.996 129.996 557.123 130.384 557.22 130.78C557.262 130.911 557.296 131.045 557.32 131.18C557.32 131.18 557.16 130.64 556.76 129.66C556.138 128.255 555.305 126.954 554.29 125.8C552.727 123.988 550.854 122.468 548.76 121.31C547.486 120.572 546.121 120.004 544.7 119.62C543.136 119.164 541.493 119.045 539.88 119.27H539.76V119.15C539.221 117.686 538.275 116.406 537.034 115.461C535.792 114.516 534.307 113.946 532.752 113.816C531.197 113.687 529.638 114.005 528.258 114.732C526.877 115.459 525.733 116.565 524.96 117.92L524.85 118.12L524.68 117.97C523.626 116.984 522.357 116.256 520.974 115.843C519.591 115.43 518.131 115.343 516.708 115.589C515.286 115.835 513.94 116.407 512.776 117.261C511.612 118.115 510.662 119.227 510 120.51L509.88 120.73L509.71 120.55C508.699 119.589 507.424 118.952 506.049 118.72C504.673 118.488 503.26 118.673 501.99 119.25C500.78 119.82 499.84 120.82 498.66 121.49C498.076 121.829 497.423 122.031 496.75 122.08C496.105 122.112 495.458 122.051 494.83 121.9C493.67 121.565 492.482 121.338 491.28 121.22C490.159 121.184 489.043 121.392 488.01 121.83C486.132 122.578 484.604 124.006 483.73 125.83L483.67 125.95L483.56 125.89C482.796 125.49 481.957 125.253 481.096 125.194C480.235 125.136 479.371 125.257 478.56 125.55C477.325 125.997 476.272 126.837 475.56 127.94C475.112 128.628 474.8 129.395 474.64 130.2C474.57 130.79 474.57 131.09 474.55 131.09Z" fill="#455A64"/>
<path d="M566.52 201.63C566.547 201.459 566.61 201.296 566.705 201.151C566.8 201.006 566.924 200.883 567.07 200.79C567.417 200.561 567.816 200.424 568.23 200.39C568.793 200.37 569.353 200.462 569.88 200.66C570.522 200.909 571.195 201.067 571.88 201.13C572.692 201.12 573.478 200.846 574.12 200.35C574.874 199.79 575.51 199.087 575.99 198.28C576.54 197.45 576.99 196.5 577.7 195.58C579.03 193.7 581.18 192.38 583.14 190.68C584.165 189.813 585.005 188.749 585.61 187.55C585.936 186.931 586.125 186.248 586.163 185.549C586.201 184.85 586.087 184.151 585.83 183.5C585.114 182.18 584.241 180.951 583.23 179.84C582.727 179.213 582.331 178.507 582.06 177.75C581.817 176.956 581.776 176.114 581.94 175.3C582.363 173.706 582.953 172.16 583.7 170.69C584.04 169.945 584.266 169.152 584.37 168.34C584.452 167.529 584.266 166.714 583.84 166.02C583.121 165.147 582.298 164.364 581.39 163.69C580.943 163.308 580.561 162.855 580.26 162.35C579.97 161.832 579.825 161.244 579.84 160.65C579.944 159.535 580.206 158.441 580.62 157.4C580.965 156.402 581.091 155.341 580.99 154.29C580.906 153.288 580.614 152.315 580.134 151.432C579.653 150.549 578.995 149.775 578.2 149.16C576.7 148.012 574.821 147.473 572.94 147.65H572.72V147.43C573.031 145.822 572.996 144.166 572.617 142.573C572.237 140.979 571.523 139.485 570.52 138.19C569.679 137.113 568.636 136.21 567.45 135.53C566.449 134.942 565.353 134.536 564.21 134.33C562.596 134.057 560.937 134.251 559.43 134.89C559.032 135.052 558.647 135.246 558.28 135.47L557.99 135.62H557.88L557.97 135.55L558.25 135.37C558.614 135.132 558.999 134.927 559.4 134.76C560.913 134.066 562.597 133.836 564.24 134.1C565.41 134.29 566.536 134.693 567.56 135.29C568.78 135.974 569.857 136.887 570.73 137.98C571.766 139.303 572.508 140.833 572.904 142.466C573.301 144.1 573.344 145.799 573.03 147.45L572.85 147.26C574.814 147.059 576.78 147.613 578.35 148.81C579.195 149.448 579.899 150.255 580.415 151.179C580.932 152.104 581.25 153.126 581.35 154.18C581.454 155.275 581.324 156.379 580.97 157.42C580.571 158.43 580.312 159.49 580.2 160.57C580.216 161.109 580.352 161.638 580.6 162.118C580.847 162.597 581.199 163.015 581.63 163.34C582.572 164.026 583.419 164.833 584.15 165.74C584.615 166.504 584.819 167.4 584.73 168.29C584.63 169.141 584.398 169.971 584.04 170.75C583.303 172.198 582.72 173.72 582.3 175.29C582.137 176.043 582.172 176.825 582.4 177.56C582.658 178.283 583.033 178.959 583.51 179.56C584.54 180.692 585.423 181.948 586.14 183.3C586.439 183.999 586.56 184.762 586.49 185.52C586.423 186.25 586.223 186.962 585.9 187.62C585.278 188.856 584.41 189.951 583.35 190.84C581.35 192.56 579.21 193.84 577.91 195.66C577.26 196.56 576.75 197.5 576.19 198.34C575.665 199.165 574.986 199.881 574.19 200.45C573.507 200.963 572.674 201.237 571.82 201.23C571.132 201.165 570.458 200.996 569.82 200.73C569.312 200.525 568.768 200.423 568.22 200.43C567.82 200.45 567.432 200.57 567.09 200.78C566.804 200.985 566.601 201.287 566.52 201.63Z" fill="#455A64"/>
<path d="M596.57 200.2C596.557 200.114 596.557 200.026 596.57 199.94L596.7 199.19C596.82 198.52 597 197.56 597.23 196.33C597.46 195.1 597.78 193.58 597.98 191.8C598.294 189.803 598.038 187.758 597.24 185.9C596.76 184.9 596.05 183.9 595.42 182.9C595.087 182.353 594.828 181.765 594.65 181.15C594.46 180.5 594.432 179.813 594.57 179.15C594.84 177.8 595.66 176.63 596.05 175.31C596.251 174.658 596.251 173.962 596.05 173.31C595.805 172.63 595.45 171.995 595 171.43C594.522 170.83 594.1 170.187 593.74 169.51C593.388 168.78 593.269 167.96 593.4 167.16C593.838 165.607 594.484 164.12 595.32 162.74C595.691 162.036 595.913 161.264 595.97 160.47C595.982 160.075 595.915 159.682 595.774 159.313C595.634 158.944 595.422 158.607 595.15 158.32C594.05 157.11 592.34 156.56 591.07 155.32C590.443 154.671 590.034 153.842 589.9 152.95C589.8 152.096 589.8 151.234 589.9 150.38C589.97 149.54 590.06 148.71 590.05 147.9C590.059 147.109 589.87 146.329 589.5 145.63C588.72 144.24 587.18 143.57 585.76 142.98C584.269 142.489 582.903 141.676 581.76 140.6C580.808 139.471 580.072 138.176 579.59 136.78C579.181 135.473 578.649 134.207 578 133C576.575 131.004 574.592 129.474 572.3 128.6C570.42 127.859 568.395 127.555 566.38 127.71C564.859 127.843 563.368 128.211 561.96 128.8C561.075 129.186 560.225 129.647 559.42 130.18L558.78 130.58L558.55 130.71L558.76 130.55L559.38 130.11C560.177 129.553 561.024 129.07 561.91 128.67C563.326 128.048 564.831 127.653 566.37 127.5C568.409 127.325 570.462 127.619 572.37 128.36C574.719 129.239 576.755 130.795 578.22 132.83C578.935 134.015 579.531 135.268 580 136.57C580.476 137.925 581.195 139.182 582.12 140.28C583.224 141.309 584.537 142.087 585.97 142.56C586.712 142.855 587.431 143.206 588.12 143.61C588.86 144.024 589.472 144.635 589.888 145.374C590.304 146.113 590.509 146.952 590.48 147.8C590.479 148.642 590.432 149.483 590.34 150.32C590.24 151.144 590.24 151.976 590.34 152.8C590.454 153.618 590.825 154.378 591.4 154.97C592.58 156.16 594.29 156.71 595.49 157.97C596.1 158.622 596.427 159.488 596.4 160.38C596.342 161.223 596.107 162.044 595.71 162.79C595.02 164.27 594.07 165.61 593.82 167.11C593.695 167.845 593.803 168.6 594.13 169.27C594.477 169.928 594.882 170.554 595.34 171.14C595.821 171.737 596.193 172.414 596.44 173.14C596.665 173.859 596.665 174.631 596.44 175.35C596.02 176.74 595.21 177.89 594.95 179.16C594.753 180.405 595.039 181.679 595.75 182.72C596.35 183.78 597.07 184.72 597.56 185.78C598.352 187.675 598.598 189.753 598.27 191.78C598.05 193.57 597.69 195.08 597.45 196.32C597.21 197.56 596.99 198.49 596.85 199.17C596.78 199.48 596.73 199.72 596.69 199.91C596.663 200.011 596.622 200.109 596.57 200.2Z" fill="#455A64"/>
<path d="M593.55 182.37L593.75 182.47C593.935 182.595 594.086 182.763 594.19 182.96C594.346 183.36 594.402 183.793 594.354 184.22C594.305 184.647 594.153 185.055 593.91 185.41C593.548 185.902 593.121 186.343 592.64 186.72C592.075 187.155 591.574 187.667 591.15 188.24C590.749 188.944 590.538 189.74 590.54 190.55C590.54 191.42 590.54 192.35 590.44 193.34C590.403 193.872 590.246 194.388 589.979 194.849C589.712 195.31 589.343 195.704 588.9 196C587.98 196.61 586.9 196.87 585.95 197.5C585.039 198.216 584.438 199.254 584.27 200.4C584 201.57 583.92 202.84 583.57 204.11C583.408 204.763 583.127 205.38 582.74 205.93C582.322 206.482 581.795 206.942 581.19 207.28C579.942 207.884 578.639 208.369 577.3 208.73C575.95 209.079 574.78 209.921 574.02 211.09C573.452 212.427 573.045 213.827 572.81 215.26C572.624 216.001 572.305 216.702 571.87 217.33C571.407 217.936 570.812 218.429 570.13 218.77C568.805 219.338 567.42 219.751 566 220C564.665 220.256 563.397 220.78 562.27 221.54C561.25 222.389 560.17 223.164 559.04 223.86C558.46 224.181 557.812 224.359 557.15 224.38C556.512 224.379 555.88 224.268 555.28 224.05C554.72 223.851 554.149 223.684 553.57 223.55C553.008 223.459 552.436 223.442 551.87 223.5C550.794 223.678 549.745 223.994 548.75 224.44C547.75 224.85 546.83 225.26 545.89 225.57C544.189 226.135 542.351 226.135 540.65 225.57C539.371 225.17 538.198 224.487 537.22 223.57C536.604 222.989 536.084 222.314 535.68 221.57C535.538 221.314 535.418 221.046 535.32 220.77C535.818 221.778 536.496 222.686 537.32 223.45C538.294 224.334 539.452 224.989 540.71 225.37C542.377 225.88 544.164 225.845 545.81 225.27C546.73 224.96 547.65 224.55 548.64 224.13C549.658 223.657 550.734 223.321 551.84 223.13C552.43 223.045 553.03 223.045 553.62 223.13C554.213 223.26 554.798 223.427 555.37 223.63C555.937 223.836 556.536 223.941 557.14 223.94C557.753 223.913 558.352 223.745 558.89 223.45C560.001 222.752 561.063 221.98 562.07 221.14C563.229 220.353 564.535 219.809 565.91 219.54C567.286 219.289 568.628 218.88 569.91 218.32C570.543 218.009 571.095 217.553 571.52 216.99C571.933 216.404 572.231 215.746 572.4 215.05C572.643 213.585 573.063 212.154 573.65 210.79C574.018 210.14 574.54 209.591 575.17 209.19C575.797 208.803 576.468 208.494 577.17 208.27C578.48 207.954 579.761 207.529 581 207C581.559 206.68 582.048 206.251 582.44 205.74C582.803 205.221 583.07 204.642 583.23 204.03C583.57 202.81 583.65 201.55 583.93 200.35C584.123 199.127 584.778 198.024 585.76 197.27C586.76 196.6 587.86 196.35 588.76 195.78C589.172 195.509 589.515 195.147 589.765 194.722C590.015 194.298 590.163 193.821 590.2 193.33C590.32 192.39 590.26 191.45 590.32 190.57C590.33 189.721 590.565 188.889 591 188.16C591.436 187.574 591.954 187.055 592.54 186.62C593.021 186.262 593.449 185.838 593.81 185.36C594.05 185.026 594.205 184.638 594.263 184.231C594.32 183.823 594.278 183.408 594.14 183.02C594.01 182.751 593.805 182.525 593.55 182.37Z" fill="#455A64"/>
<path d="M533.06 187.07C533.424 186.852 533.857 186.783 534.27 186.876C534.683 186.969 535.045 187.218 535.28 187.57C536.78 189.8 538.28 192.03 539.79 194.27L540.3 195.01C539.088 196.055 537.743 196.936 536.3 197.63C535.674 197.921 534.991 198.072 534.3 198.072C533.609 198.072 532.927 197.921 532.3 197.63C531.343 197.037 530.601 196.154 530.18 195.11C529.49 193.42 528.93 191.69 529.7 190.04C530.26 188.83 532 187.75 533.06 187.07Z" fill="#FF9A6C"/>
<path d="M499.72 162.82C499.043 162.636 498.34 162.565 497.64 162.61C495.694 162.697 493.842 163.478 492.42 164.81C491.427 165.715 490.657 166.838 490.17 168.09C489.637 169.537 489.452 171.089 489.63 172.62C489.815 174.317 490.431 175.939 491.42 177.33C492.494 178.828 493.997 179.964 495.73 180.59C497.452 181.233 499.32 181.379 501.12 181.01C502.799 180.664 504.342 179.837 505.56 178.63C506.588 177.619 507.369 176.385 507.844 175.024C508.319 173.663 508.475 172.211 508.3 170.78C508.112 169.691 507.708 168.65 507.11 167.72C506.678 167.014 506.149 166.371 505.54 165.81C505.152 165.458 504.714 165.165 504.24 164.94C504.08 164.851 503.903 164.796 503.72 164.78C504.347 165.07 504.918 165.466 505.41 165.95C506.755 167.265 507.653 168.968 507.98 170.82C508.125 172.196 507.955 173.587 507.484 174.888C507.013 176.189 506.252 177.366 505.26 178.33C504.095 179.468 502.626 180.246 501.03 180.57C499.311 180.908 497.532 180.763 495.89 180.15C494.246 179.557 492.817 178.484 491.79 177.07C490.839 175.742 490.24 174.193 490.05 172.57C489.869 171.102 490.033 169.613 490.53 168.22C490.983 167.016 491.705 165.932 492.64 165.05C494.002 163.75 495.765 162.953 497.64 162.79C499 162.7 499.71 162.88 499.72 162.82Z" fill="#E0E0E0"/>
<path d="M540.21 170.69C539.84 171.269 539.257 171.679 538.588 171.832C537.918 171.986 537.215 171.87 536.63 171.51C536.333 171.351 536.071 171.134 535.86 170.873C535.648 170.611 535.491 170.309 535.398 169.986C535.305 169.663 535.277 169.324 535.317 168.99C535.357 168.655 535.463 168.332 535.63 168.04C536.002 167.463 536.585 167.055 537.253 166.902C537.922 166.748 538.624 166.863 539.21 167.22C539.509 167.377 539.773 167.592 539.986 167.854C540.199 168.115 540.357 168.417 540.451 168.742C540.544 169.066 540.571 169.406 540.53 169.74C540.488 170.075 540.38 170.398 540.21 170.69Z" fill="#263238"/>
<path d="M561.11 185.28C560.737 185.855 560.154 186.262 559.486 186.415C558.818 186.568 558.117 186.455 557.53 186.1C557.233 185.94 556.971 185.723 556.759 185.46C556.547 185.197 556.39 184.895 556.297 184.571C556.204 184.246 556.177 183.907 556.217 183.572C556.257 183.237 556.363 182.913 556.53 182.62C556.904 182.045 557.486 181.638 558.154 181.485C558.822 181.332 559.524 181.445 560.11 181.8C560.407 181.96 560.669 182.177 560.881 182.44C561.093 182.703 561.25 183.005 561.343 183.329C561.436 183.654 561.464 183.993 561.424 184.328C561.384 184.663 561.277 184.987 561.11 185.28Z" fill="#263238"/>
<path d="M567.09 179.52C566.66 179.7 565.83 177.41 563.57 176.13C561.31 174.85 558.92 175.24 558.86 174.77C558.86 174.56 559.4 174.13 560.46 173.93C561.828 173.68 563.24 173.924 564.445 174.618C565.651 175.312 566.57 176.411 567.04 177.72C567.39 178.74 567.3 179.45 567.09 179.52Z" fill="#263238"/>
<path d="M545.86 166.79C545.33 166.91 544.55 164.22 542.01 162.42C539.47 160.62 536.67 160.67 536.63 160.14C536.63 159.89 537.31 159.51 538.57 159.45C540.217 159.409 541.833 159.907 543.17 160.87C544.498 161.823 545.47 163.192 545.93 164.76C546.26 166 546.1 166.74 545.86 166.79Z" fill="#263238"/>
<path d="M534.26 197.83C534.26 197.83 533.9 197.97 533.26 197.83C532.321 197.602 531.475 197.089 530.84 196.36C529.869 195.311 529.226 194 528.99 192.59C528.837 191.727 528.934 190.839 529.27 190.03C529.655 189.189 530.226 188.447 530.94 187.86C531.624 187.291 532.372 186.804 533.17 186.41C533.392 186.272 533.64 186.184 533.899 186.151C534.158 186.118 534.421 186.142 534.67 186.22C535.103 186.437 535.453 186.787 535.67 187.22L537.83 190.66C538.541 191.705 539.135 192.825 539.6 194C538.723 193.09 537.952 192.083 537.3 191C536.58 190 535.81 188.85 534.99 187.66C534.55 186.94 534.23 186.77 533.51 187.16C532.772 187.54 532.078 187.999 531.44 188.53C530.823 188.984 530.337 189.593 530.031 190.296C529.725 190.998 529.611 191.769 529.7 192.53C529.897 193.809 530.428 195.013 531.24 196.02C531.784 196.709 532.502 197.241 533.32 197.56C533.9 197.75 534.27 197.76 534.26 197.83Z" fill="#263238"/>
<path d="M624.85 158.93C624.471 157.708 623.948 156.537 623.29 155.44C622.472 154.196 621.428 153.117 620.21 152.26C618.61 151.131 616.733 150.457 614.78 150.31H614.47V149.99C614.661 147.394 613.833 144.825 612.16 142.83C611.245 141.653 610.081 140.693 608.752 140.019C607.422 139.345 605.96 138.973 604.47 138.93H604.08V138.54C603.997 134.354 602.311 130.36 599.37 127.38C597.067 125.074 594.103 123.543 590.89 123C587.954 122.49 584.935 122.794 582.16 123.88L581.98 123.95L581.81 123.84C578.992 121.95 575.811 120.67 572.47 120.08C569.87 119.599 567.212 119.528 564.59 119.87C562.283 120.221 560.018 120.807 557.83 121.62C557.83 121.62 557.96 121.52 558.24 121.38C558.52 121.24 558.94 121.02 559.5 120.8C561.111 120.161 562.788 119.702 564.5 119.43C567.166 118.999 569.884 118.999 572.55 119.43C575.995 119.991 579.284 121.272 582.2 123.19H581.85C584.745 122.015 587.91 121.669 590.99 122.19C594.375 122.738 597.5 124.341 599.92 126.77C603.016 129.896 604.78 134.101 604.84 138.5L604.45 138.11C606.053 138.164 607.624 138.573 609.05 139.306C610.476 140.039 611.723 141.078 612.7 142.35C614.47 144.488 615.331 147.234 615.1 150L614.82 149.67C616.876 149.847 618.841 150.599 620.49 151.84C621.735 152.751 622.782 153.904 623.57 155.23C624.068 156.062 624.445 156.961 624.69 157.9C624.783 158.236 624.836 158.582 624.85 158.93Z" fill="#263238"/>
<path d="M560.79 107.4C559.755 107.225 558.771 106.822 557.91 106.22C556.687 105.431 555.633 104.405 554.812 103.203C553.992 102.001 553.42 100.647 553.13 99.22C552.735 97.1986 552.968 95.1044 553.8 93.22C554.745 91.0443 556.351 89.2214 558.39 88.01C560.702 86.7063 563.428 86.3445 566 87C568.813 87.6549 571.255 89.3898 572.8 91.83L572.35 91.64C574.104 91.2252 575.947 91.4264 577.57 92.21C578.96 92.8359 580.148 93.8366 581 95.1C581.787 96.3445 582.178 97.7987 582.12 99.27C582.083 100.654 581.691 102.005 580.982 103.194C580.273 104.383 579.27 105.37 578.07 106.06L577.92 105.34C579.001 105.466 580.033 105.856 580.928 106.475C581.822 107.094 582.551 107.923 583.05 108.89C583.525 109.748 583.81 110.699 583.886 111.677C583.962 112.655 583.827 113.639 583.49 114.56C582.934 116.052 581.983 117.365 580.74 118.36C579.497 119.355 578.008 119.994 576.43 120.21C574.386 120.486 572.306 120.177 570.43 119.32C569.936 119.108 569.461 118.853 569.01 118.56C568.71 118.35 568.56 118.24 568.57 118.22C568.58 118.2 569.23 118.6 570.52 119.09C572.357 119.82 574.357 120.044 576.31 119.74C577.78 119.509 579.161 118.886 580.308 117.938C581.455 116.99 582.326 115.75 582.83 114.35C583.124 113.515 583.236 112.627 583.156 111.745C583.077 110.863 582.809 110.009 582.37 109.24C581.923 108.385 581.275 107.651 580.48 107.104C579.685 106.557 578.768 106.212 577.81 106.1L576.52 106L577.65 105.38C578.726 104.751 579.623 103.858 580.257 102.785C580.89 101.713 581.239 100.496 581.27 99.25C581.315 97.9412 580.966 96.6491 580.27 95.54C579.524 94.42 578.487 93.5245 577.27 92.95C575.818 92.2485 574.17 92.065 572.6 92.43L572.31 92.51L572.15 92.25C570.723 89.9906 568.469 88.3791 565.87 87.76C563.479 87.1418 560.941 87.4751 558.79 88.69C556.864 89.8083 555.337 91.5005 554.42 93.53C553.619 95.2844 553.368 97.2402 553.7 99.14C554.223 101.905 555.806 104.355 558.11 105.97C558.953 106.535 559.851 107.014 560.79 107.4Z" fill="#263238"/>
<path d="M495.66 99.1698C495.662 98.9968 495.689 98.8251 495.74 98.6598C495.851 98.1781 496.001 97.7065 496.19 97.2498C496.894 95.5067 497.973 93.9398 499.35 92.6598C501.452 90.6574 504.177 89.4361 507.07 89.1998C508.901 89.0608 510.741 89.2969 512.478 89.8936C514.214 90.4902 515.811 91.4349 517.17 92.6698L516.72 92.6098C520.129 90.8085 524.071 90.2904 527.83 91.1498C530.661 91.8198 533.248 93.2676 535.3 95.3298C537.171 97.2101 538.546 99.5262 539.3 102.07L538.99 101.81C541.962 102.226 544.78 103.389 547.18 105.19C549.041 106.572 550.625 108.292 551.85 110.26C552.641 111.53 553.254 112.902 553.67 114.34C553.83 114.843 553.934 115.363 553.98 115.89C553.366 113.998 552.523 112.187 551.47 110.5C550.229 108.624 548.653 106.993 546.82 105.69C544.482 103.999 541.76 102.916 538.9 102.54H538.66L538.59 102.31C537.845 99.8992 536.519 97.7084 534.73 95.9298C532.789 93.9619 530.337 92.5764 527.65 91.9298C524.081 91.1127 520.338 91.5912 517.09 93.2798L516.84 93.4098L516.64 93.2198C515.361 92.0471 513.859 91.1443 512.223 90.5653C510.587 89.9862 508.852 89.7429 507.12 89.8498C504.358 90.039 501.738 91.148 499.68 92.9998C498.314 94.2077 497.208 95.6809 496.43 97.3298C495.89 98.5098 495.72 99.1898 495.66 99.1698Z" fill="#263238"/>
<path d="M434.35 174.28C434.35 174.28 435.43 172.36 443.76 173.45C452.09 174.54 485.09 197.39 485.09 197.39C485.09 197.39 479.09 221 497.24 225.5C510.46 228.78 517.47 225.09 517.47 225.09C517.47 225.09 539.6 252.61 541.41 263.83C541.41 263.83 434.76 338.45 452.07 330.34L434.35 330.54V174.28Z" fill="#FAA11F"/>
<path d="M539.68 258.78C539.97 259.57 544.1 264.49 540.01 286.41C536.29 306.32 520.01 326.41 520.01 326.41L487.55 297.2L539.68 258.78Z" fill="#FAA11F"/>
<path d="M522.75 274.39C522.601 274.571 522.434 274.735 522.25 274.88L520.76 276.18C519.44 277.29 517.52 278.88 515.11 280.8C510.3 284.64 503.58 289.85 496.11 295.53C488.64 301.21 481.81 306.3 476.86 310L470.98 314.3L469.36 315.45C469.183 315.597 468.988 315.721 468.78 315.82C468.94 315.655 469.114 315.504 469.3 315.37L470.86 314.14L476.64 309.71L495.79 295.16C503.27 289.48 510.02 284.32 514.88 280.55L520.63 276.06L522.18 274.84C522.356 274.673 522.547 274.523 522.75 274.39Z" fill="#263238"/>
<path d="M468.78 85.84H232.57V414.15H468.78V85.84Z" fill="white"/>
<path d="M468.78 85.84H232.57V204.67H468.78V85.84Z" fill="#FAA11F"/>
<path d="M444.17 95.36H402.19C395.96 95.36 390.91 100.41 390.91 106.64V107.81C390.91 114.04 395.96 119.09 402.19 119.09H444.17C450.4 119.09 455.45 114.04 455.45 107.81V106.64C455.45 100.41 450.4 95.36 444.17 95.36Z" fill="#263238"/>
<path d="M427.88 233.77C427.88 233.91 395.4 234.03 355.36 234.03C315.32 234.03 282.82 233.91 282.82 233.77C282.82 233.63 315.29 233.51 355.36 233.51C395.43 233.51 427.88 233.62 427.88 233.77Z" fill="#263238"/>
<path d="M427.88 265.77C427.88 265.91 395.4 266.03 355.36 266.03C315.32 266.03 282.82 265.91 282.82 265.77C282.82 265.63 315.29 265.51 355.36 265.51C395.43 265.51 427.88 265.63 427.88 265.77Z" fill="#263238"/>
<path d="M427.88 297.78C427.88 297.92 395.4 298.04 355.36 298.04C315.32 298.04 282.82 297.92 282.82 297.78C282.82 297.64 315.29 297.52 355.36 297.52C395.43 297.52 427.88 297.63 427.88 297.78Z" fill="#263238"/>
<path d="M427.28 334.67H285.39C271.439 334.67 260.13 345.979 260.13 359.93V362.58C260.13 376.531 271.439 387.84 285.39 387.84H427.28C441.231 387.84 452.54 376.531 452.54 362.58V359.93C452.54 345.979 441.231 334.67 427.28 334.67Z" fill="#FAA11F"/>
<path d="M411 104.42C411.29 104.556 411.547 104.752 411.757 104.994C411.967 105.235 412.124 105.518 412.218 105.824C412.312 106.13 412.341 106.452 412.304 106.77C412.266 107.088 412.163 107.394 412 107.67C411.754 108.028 411.406 108.304 411 108.46C410.539 108.658 410.041 108.754 409.54 108.74H408.26V110.49H406.79V104.14H409.54C410.041 104.131 410.538 104.227 411 104.42ZM410.46 107.26C410.576 107.161 410.669 107.036 410.729 106.896C410.79 106.755 410.818 106.603 410.81 106.45C410.821 106.294 410.795 106.138 410.734 105.993C410.673 105.849 410.579 105.721 410.46 105.62C410.169 105.414 409.816 105.315 409.46 105.34H408.27V107.54H409.46C409.806 107.558 410.147 107.46 410.43 107.26H410.46Z" fill="white"/>
<path d="M414.14 110.24C413.728 110.046 413.381 109.737 413.14 109.35C412.911 108.955 412.79 108.507 412.79 108.05C412.79 107.593 412.911 107.145 413.14 106.75C413.384 106.366 413.73 106.057 414.14 105.86C414.57 105.65 415.042 105.54 415.52 105.54C415.999 105.54 416.471 105.65 416.9 105.86C417.2 106.019 417.464 106.236 417.677 106.5C417.891 106.763 418.049 107.067 418.142 107.392C418.236 107.718 418.262 108.059 418.221 108.396C418.179 108.732 418.07 109.057 417.9 109.35C417.658 109.736 417.311 110.044 416.9 110.24C416.471 110.45 415.999 110.56 415.52 110.56C415.042 110.56 414.57 110.45 414.14 110.24ZM416.41 109.03C416.646 108.75 416.776 108.396 416.776 108.03C416.776 107.664 416.646 107.31 416.41 107.03C416.297 106.908 416.159 106.812 416.005 106.748C415.852 106.684 415.686 106.654 415.52 106.66C415.353 106.655 415.186 106.685 415.031 106.749C414.876 106.813 414.736 106.908 414.62 107.03C414.384 107.31 414.254 107.664 414.254 108.03C414.254 108.396 414.384 108.75 414.62 109.03C414.736 109.152 414.876 109.247 415.031 109.311C415.186 109.375 415.353 109.405 415.52 109.4C415.689 109.402 415.856 109.367 416.009 109.298C416.163 109.229 416.3 109.127 416.41 109V109.03Z" fill="white"/>
<path d="M423.26 105.85C423.632 106.052 423.938 106.358 424.14 106.73C424.351 107.138 424.46 107.591 424.46 108.05C424.46 108.509 424.351 108.962 424.14 109.37C423.938 109.742 423.632 110.048 423.26 110.25C422.885 110.46 422.46 110.567 422.03 110.56C421.757 110.577 421.483 110.533 421.228 110.431C420.974 110.329 420.746 110.172 420.56 109.97V112.25H419.14V105.61H420.49V106.17C420.682 105.954 420.92 105.786 421.187 105.676C421.454 105.567 421.742 105.521 422.03 105.54C422.46 105.533 422.885 105.64 423.26 105.85ZM422.67 109.03C422.906 108.75 423.036 108.396 423.036 108.03C423.036 107.664 422.906 107.31 422.67 107.03C422.434 106.794 422.114 106.662 421.78 106.662C421.446 106.662 421.126 106.794 420.89 107.03C420.654 107.31 420.524 107.664 420.524 108.03C420.524 108.396 420.654 108.75 420.89 109.03C421.126 109.266 421.446 109.398 421.78 109.398C422.114 109.398 422.434 109.266 422.67 109.03Z" fill="white"/>
<path d="M430.32 105.61V110.49H429V109.91C428.815 110.12 428.586 110.287 428.33 110.4C428.064 110.51 427.778 110.564 427.49 110.56C427.211 110.575 426.932 110.534 426.67 110.439C426.407 110.345 426.166 110.199 425.96 110.01C425.762 109.788 425.61 109.528 425.514 109.247C425.418 108.965 425.379 108.667 425.4 108.37V105.61H426.82V108.16C426.82 108.95 427.15 109.34 427.82 109.34C427.971 109.346 428.121 109.319 428.261 109.262C428.4 109.206 428.526 109.119 428.63 109.01C428.861 108.73 428.972 108.371 428.94 108.01V105.6L430.32 105.61Z" fill="white"/>
<path d="M431.63 103.76H433.05V110.49H431.63V103.76Z" fill="white"/>
<path d="M438.07 106.08C438.288 106.288 438.456 106.543 438.562 106.825C438.667 107.107 438.708 107.41 438.68 107.71V110.49H437.36V109.88C437.197 110.119 436.973 110.308 436.71 110.428C436.447 110.548 436.157 110.594 435.87 110.56C435.527 110.572 435.185 110.508 434.87 110.37C434.615 110.259 434.397 110.079 434.24 109.85C434.095 109.619 434.019 109.352 434.02 109.08C434.014 108.873 434.059 108.668 434.149 108.481C434.24 108.295 434.374 108.134 434.54 108.01C435.012 107.715 435.565 107.578 436.12 107.62H437.24C437.248 107.488 437.226 107.357 437.178 107.234C437.13 107.112 437.055 107.001 436.96 106.91C436.719 106.729 436.421 106.64 436.12 106.66C435.858 106.659 435.597 106.703 435.35 106.79C435.118 106.86 434.902 106.972 434.71 107.12L434.21 106.12C434.499 105.92 434.821 105.772 435.16 105.68C435.535 105.58 435.922 105.529 436.31 105.53C436.945 105.484 437.574 105.681 438.07 106.08ZM436.87 109.44C437.056 109.331 437.195 109.156 437.26 108.95V108.45H436.26C435.68 108.45 435.39 108.64 435.39 109.02C435.386 109.105 435.405 109.189 435.443 109.264C435.482 109.339 435.539 109.403 435.61 109.45C435.78 109.568 435.984 109.624 436.19 109.61C436.429 109.623 436.666 109.564 436.87 109.44Z" fill="white"/>
<path d="M442 105.72C442.318 105.595 442.658 105.533 443 105.54V106.84H442.68C442.507 106.83 442.334 106.855 442.17 106.913C442.007 106.972 441.857 107.062 441.73 107.18C441.607 107.314 441.513 107.472 441.453 107.644C441.393 107.816 441.368 107.998 441.38 108.18V110.48H440V105.6H441.35V106.24C441.518 106.013 441.742 105.834 442 105.72Z" fill="white"/>
<path d="M320.29 366.64C319.116 366.018 318.137 365.084 317.46 363.94C316.778 362.755 316.419 361.412 316.419 360.045C316.419 358.678 316.778 357.335 317.46 356.15C318.14 355.012 319.119 354.081 320.29 353.46C321.446 352.877 322.714 352.549 324.007 352.497C325.301 352.445 326.591 352.671 327.79 353.16C328.791 353.586 329.675 354.244 330.37 355.08L328.2 357.08C327.754 356.538 327.191 356.102 326.555 355.806C325.918 355.51 325.222 355.361 324.52 355.37C323.675 355.356 322.841 355.563 322.1 355.97C321.4 356.355 320.825 356.93 320.44 357.63C320.053 358.378 319.85 359.208 319.85 360.05C319.85 360.892 320.053 361.722 320.44 362.47C320.827 363.168 321.402 363.743 322.1 364.13C322.842 364.534 323.676 364.737 324.52 364.72C325.224 364.731 325.921 364.582 326.558 364.284C327.196 363.986 327.757 363.547 328.2 363L330.37 365C329.674 365.845 328.786 366.51 327.78 366.94C326.688 367.396 325.514 367.624 324.33 367.61C322.924 367.626 321.536 367.293 320.29 366.64Z" fill="white"/>
<path d="M342.61 357.21C343.069 357.708 343.42 358.296 343.642 358.936C343.864 359.576 343.952 360.255 343.9 360.93V367.36H340.64V361.43C340.692 360.715 340.486 360.006 340.06 359.43C339.842 359.203 339.577 359.026 339.283 358.912C338.99 358.798 338.674 358.749 338.36 358.77C337.991 358.748 337.622 358.806 337.277 358.938C336.932 359.071 336.619 359.276 336.36 359.54C335.83 360.169 335.568 360.98 335.63 361.8V367.36H332.37V351.86H335.63V357.29C336.074 356.846 336.61 356.504 337.2 356.29C337.841 356.057 338.518 355.942 339.2 355.95C339.824 355.917 340.449 356.011 341.035 356.228C341.622 356.445 342.157 356.779 342.61 357.21Z" fill="white"/>
<path d="M349.13 366.78C348.215 366.314 347.45 365.6 346.92 364.72C346.381 363.814 346.107 362.774 346.13 361.72C346.111 360.666 346.384 359.628 346.92 358.72C347.453 357.846 348.218 357.136 349.13 356.67C350.112 356.163 351.205 355.909 352.31 355.93C353.412 355.908 354.502 356.162 355.48 356.67C356.389 357.136 357.151 357.846 357.68 358.72C358.216 359.628 358.49 360.666 358.47 361.72C358.493 362.774 358.219 363.814 357.68 364.72C357.154 365.599 356.392 366.313 355.48 366.78C354.502 367.288 353.412 367.542 352.31 367.52C351.205 367.541 350.112 367.287 349.13 366.78ZM354.37 364.01C354.888 363.367 355.17 362.566 355.17 361.74C355.17 360.914 354.888 360.113 354.37 359.47C354.105 359.193 353.785 358.975 353.43 358.831C353.075 358.686 352.693 358.618 352.31 358.63C351.926 358.619 351.543 358.688 351.187 358.833C350.831 358.978 350.508 359.194 350.24 359.47C349.717 360.111 349.431 360.913 349.431 361.74C349.431 362.567 349.717 363.369 350.24 364.01C350.508 364.286 350.831 364.502 351.187 364.647C351.543 364.792 351.926 364.861 352.31 364.85C352.694 364.861 353.076 364.791 353.431 364.645C353.786 364.498 354.106 364.279 354.37 364V364.01Z" fill="white"/>
<path d="M362.8 366.78C361.888 366.313 361.126 365.599 360.6 364.72C360.061 363.813 359.787 362.774 359.81 361.72C359.791 360.666 360.064 359.627 360.6 358.72C361.129 357.846 361.891 357.136 362.8 356.67C363.795 356.184 364.894 355.954 366 356C367.102 355.977 368.192 356.232 369.17 356.74C370.075 357.209 370.832 357.918 371.36 358.79C371.896 359.697 372.17 360.736 372.15 361.79C372.173 362.844 371.899 363.883 371.36 364.79C370.836 365.666 370.077 366.38 369.17 366.85C368.192 367.358 367.102 367.612 366 367.59C364.882 367.592 363.782 367.314 362.8 366.78ZM368 364C368.523 363.359 368.809 362.557 368.809 361.73C368.809 360.903 368.523 360.101 368 359.46C367.737 359.183 367.418 358.965 367.065 358.821C366.712 358.676 366.332 358.607 365.95 358.62C365.566 358.607 365.183 358.675 364.826 358.82C364.469 358.965 364.147 359.183 363.88 359.46C363.35 360.097 363.06 360.9 363.06 361.73C363.06 362.559 363.35 363.362 363.88 364C364.147 364.277 364.469 364.495 364.826 364.639C365.183 364.784 365.566 364.852 365.95 364.84C366.332 364.852 366.712 364.784 367.065 364.639C367.418 364.494 367.737 364.276 368 364Z" fill="white"/>
<path d="M375.36 367.18C374.607 367.007 373.888 366.714 373.23 366.31L374.32 363.97C374.881 364.321 375.491 364.587 376.13 364.76C376.81 364.956 377.513 365.056 378.22 365.06C379.6 365.06 380.29 364.727 380.29 364.06C380.285 363.898 380.226 363.742 380.123 363.617C380.02 363.492 379.878 363.405 379.72 363.37C379.161 363.186 378.585 363.062 378 363C377.23 362.892 376.468 362.732 375.72 362.52C375.124 362.329 374.59 361.984 374.17 361.52C373.933 361.247 373.752 360.93 373.639 360.586C373.525 360.243 373.482 359.881 373.51 359.52C373.502 358.839 373.72 358.174 374.13 357.63C374.592 357.041 375.213 356.597 375.92 356.35C376.813 356.024 377.759 355.868 378.71 355.89C379.507 355.887 380.302 355.975 381.08 356.15C381.765 356.281 382.424 356.524 383.03 356.87L381.95 359.19C380.962 358.631 379.845 358.341 378.71 358.35C378.171 358.32 377.633 358.419 377.14 358.64C376.993 358.706 376.867 358.81 376.775 358.942C376.683 359.075 376.63 359.229 376.62 359.39C376.618 359.558 376.673 359.722 376.777 359.855C376.88 359.988 377.026 360.081 377.19 360.12C377.772 360.312 378.372 360.446 378.98 360.52C379.742 360.639 380.497 360.803 381.24 361.01C381.822 361.187 382.346 361.515 382.76 361.96C383.218 362.491 383.451 363.18 383.41 363.88C383.415 364.553 383.193 365.208 382.78 365.74C382.301 366.324 381.667 366.761 380.95 367C380.038 367.318 379.076 367.471 378.11 367.45C377.186 367.477 376.261 367.387 375.36 367.18Z" fill="white"/>
<path d="M396.34 362.66H387.85C387.985 363.328 388.372 363.919 388.93 364.31C389.56 364.727 390.305 364.937 391.06 364.91C391.592 364.922 392.121 364.834 392.62 364.65C393.091 364.464 393.519 364.185 393.88 363.83L395.61 365.71C395.02 366.335 394.299 366.821 393.498 367.134C392.698 367.447 391.838 367.579 390.98 367.52C389.814 367.546 388.658 367.292 387.61 366.78C386.678 366.323 385.897 365.608 385.36 364.72C384.821 363.814 384.547 362.774 384.57 361.72C384.553 360.668 384.822 359.631 385.35 358.72C385.862 357.847 386.606 357.134 387.5 356.66C388.44 356.156 389.494 355.901 390.56 355.92C391.604 355.899 392.636 356.143 393.56 356.63C394.438 357.081 395.167 357.775 395.66 358.63C396.182 359.571 396.445 360.634 396.42 361.71C396.42 361.71 396.38 362.12 396.34 362.66ZM388.72 359.05C388.207 359.482 387.877 360.094 387.8 360.76H393.34C393.256 360.096 392.926 359.487 392.415 359.054C391.904 358.621 391.249 358.395 390.58 358.42C389.904 358.398 389.243 358.622 388.72 359.05Z" fill="white"/>
<path d="M268.07 239.17C267.701 239.172 267.345 239.037 267.07 238.79L263.07 235.24C262.92 235.111 262.798 234.953 262.709 234.776C262.621 234.599 262.569 234.407 262.556 234.209C262.543 234.012 262.569 233.814 262.634 233.627C262.698 233.44 262.799 233.268 262.93 233.12C263.195 232.84 263.557 232.671 263.941 232.649C264.326 232.626 264.705 232.752 265 233L267.93 235.58L274 228.88C274.272 228.609 274.637 228.452 275.02 228.442C275.403 228.432 275.776 228.569 276.062 228.825C276.347 229.081 276.524 229.436 276.555 229.819C276.587 230.201 276.47 230.581 276.23 230.88L269.16 238.68C269.022 238.832 268.854 238.955 268.667 239.039C268.479 239.123 268.276 239.168 268.07 239.17Z" fill="#FAA11F"/>
<path d="M268.07 271.17C267.702 271.176 267.345 271.044 267.07 270.8L263.07 267.24C262.922 267.109 262.802 266.95 262.716 266.772C262.629 266.594 262.579 266.401 262.568 266.203C262.556 266.006 262.583 265.808 262.648 265.622C262.713 265.435 262.814 265.263 262.945 265.115C263.076 264.967 263.236 264.847 263.413 264.761C263.591 264.674 263.784 264.624 263.982 264.612C264.38 264.589 264.772 264.725 265.07 264.99L268 267.57L274.07 260.86C274.342 260.589 274.706 260.432 275.09 260.422C275.473 260.412 275.846 260.548 276.132 260.805C276.417 261.061 276.594 261.416 276.625 261.799C276.656 262.181 276.54 262.561 276.3 262.86L269.23 270.66C269.087 270.826 268.908 270.957 268.707 271.045C268.507 271.134 268.289 271.176 268.07 271.17Z" fill="#FAA11F"/>
<path d="M268.07 303.18C267.701 303.182 267.344 303.047 267.07 302.8L263.07 299.25C262.922 299.119 262.802 298.96 262.716 298.782C262.629 298.604 262.579 298.411 262.568 298.213C262.556 298.016 262.583 297.818 262.648 297.632C262.713 297.445 262.814 297.273 262.945 297.125C263.076 296.977 263.236 296.857 263.413 296.771C263.591 296.684 263.784 296.634 263.982 296.622C264.38 296.599 264.772 296.735 265.07 297L268 299.57L274.07 292.87C274.342 292.599 274.706 292.442 275.09 292.432C275.473 292.422 275.846 292.558 276.132 292.815C276.417 293.071 276.594 293.426 276.625 293.809C276.656 294.191 276.54 294.571 276.3 294.87L269.23 302.67C269.086 302.835 268.908 302.966 268.707 303.054C268.507 303.143 268.289 303.185 268.07 303.18Z" fill="#FAA11F"/>
<path d="M368.492 128L375.142 141.5L390 143.662L379.254 154.169L381.792 169L368.492 162L355.209 169L357.746 154.169L347 143.662L361.859 141.5L368.492 128Z" fill="white"/>
<path d="M342.492 128L351.307 145.779L371 148.629L356.746 162.465L360.106 182L342.492 172.771L324.895 182L328.254 162.465L314 148.629L333.693 145.779L342.492 128Z" fill="white"/>
<path d="M362.81 185L343.009 174.577L323.224 185L327.004 162.918L311 147.267L333.116 144.044L343.009 124L352.884 144.044L375 147.267L358.996 162.902L362.81 185ZM318.028 149.522L330.552 161.783L327.587 179.087L343.092 170.902L358.58 179.087L355.565 161.799L368.089 149.539L350.769 147.017L343.009 131.266L335.248 147L318.028 149.522Z" fill="#FAA11F"/>
<path d="M468.78 414.16C468.78 412.06 468.68 279.95 468.54 85.84L468.78 86.08H232.6L232.86 85.82C232.86 208.67 232.86 322.33 232.81 414.14L232.6 413.93L468.81 414.14L232.6 414.35H232.39V414.14C232.39 322.33 232.39 208.67 232.34 85.82V85.56H232.63H468.81H469V85.79C468.87 280 468.78 412.06 468.78 414.16Z" fill="#263238"/>
<path d="M353.19 283.35C353.19 283.35 349.69 278.09 356.7 277.8C363.71 277.51 398.17 283.35 409.85 289.19L420.07 295.61L409 317.51H383.56C380.64 317.51 372.47 312.51 380.06 309.05C380.06 309.05 372.47 303.79 379.48 299.41C379.48 299.41 373.93 295.32 379.77 289.77L353.19 283.35Z" fill="#FFBF9D"/>
<path d="M411.9 291.36L469.9 321.74L491.66 300.92L517.59 324.28C517.59 324.28 491.89 354.46 477 357.09C462.11 359.72 404.12 313.09 404.12 313.09L411.9 291.36Z" fill="#FFBF9D"/>
<path d="M472.75 198L472.21 198.31C471.367 198.742 470.469 199.055 469.54 199.24C469.098 199.289 468.66 199.369 468.23 199.48C467.973 199.619 467.729 199.779 467.5 199.96C465.91 200.89 463.89 200.96 462.11 201.19C460.11 201.4 457.96 201.71 456.4 203C454.84 204.29 454.14 206.86 455.51 208.35C454.865 208.361 454.246 208.606 453.769 209.041C453.292 209.475 452.99 210.069 452.92 210.71C452.873 211.355 452.992 212.001 453.265 212.587C453.538 213.174 453.956 213.68 454.48 214.06C455.54 214.812 456.784 215.261 458.08 215.36C457.332 215.486 456.663 215.897 456.213 216.507C455.763 217.118 455.569 217.879 455.67 218.63C455.805 219.378 456.128 220.078 456.61 220.666C457.091 221.254 457.714 221.71 458.42 221.99C459.835 222.541 461.355 222.773 462.87 222.67C464.824 222.6 466.78 222.64 468.73 222.79C468.73 222.79 468.73 224.72 468.73 225.59C468.73 226.77 468.73 225.85 468.73 225.85C469.785 226.466 470.924 226.928 472.11 227.22C474.74 228.08 476.44 228.78 478.81 229.39C480.58 229.85 482.32 230.07 483.27 228.88C485.56 226.02 479.54 221.88 479.54 221.88C481.31 220.88 480.83 215.21 478.2 214.44C479.5 213.8 480.32 213.87 481.09 212.63C481.488 212.021 481.737 211.328 481.817 210.605C481.897 209.882 481.805 209.151 481.55 208.47C481.267 207.801 480.773 207.243 480.142 206.881C479.512 206.52 478.78 206.376 478.06 206.47C478.911 205.738 479.52 204.765 479.807 203.68C480.095 202.594 480.047 201.447 479.67 200.39C479.175 199.127 478.231 198.091 477.02 197.48C476.419 197.176 475.769 196.983 475.1 196.91C474.849 196.865 474.591 196.865 474.34 196.91C474.228 196.945 474.123 196.999 474.03 197.07C473.59 197.3 473.21 197.69 472.75 198Z" fill="#FFBF9D"/>
<path d="M475.56 191.48C475.542 190.853 475.388 190.237 475.11 189.675C474.833 189.112 474.437 188.616 473.95 188.22C472.73 187.39 470.53 187.49 469.08 187.81C468.99 189.57 469.08 190.46 468.96 192.22C468.96 192.59 469.07 192.88 468.9 193.22C468.45 194.09 466.54 194.22 465.66 194.67C464.934 195.112 464.403 195.814 464.178 196.634C463.954 197.454 464.051 198.329 464.45 199.08C464.89 199.81 465.53 200.398 466.294 200.775C467.057 201.153 467.913 201.304 468.76 201.21C470.465 200.994 472.027 200.148 473.14 198.84C474.028 197.845 474.701 196.678 475.117 195.412C475.533 194.146 475.684 192.807 475.56 191.48Z" fill="#FFBF9D"/>
<path d="M478.55 206.37C478.55 206.51 473.42 207.07 467.06 207.61C460.7 208.15 455.53 208.48 455.52 208.33C455.51 208.18 460.65 207.63 467.01 207.09C473.37 206.55 478.54 206.22 478.55 206.37Z" fill="#FF9A6C"/>
<path d="M478.55 214.4C477.573 214.699 476.568 214.9 475.55 215C473.104 215.364 470.641 215.604 468.17 215.72C465.27 215.87 462.65 215.84 460.75 215.72C459.723 215.725 458.697 215.625 457.69 215.42C458.71 215.319 459.737 215.296 460.76 215.35C462.65 215.35 465.26 215.35 468.14 215.17C471.02 214.99 473.62 214.8 475.5 214.61C476.511 214.469 477.53 214.399 478.55 214.4Z" fill="#FF9A6C"/>
<path d="M478.55 222.25C477.732 222.482 476.89 222.616 476.04 222.65C474.48 222.81 472.32 222.93 469.93 222.96C467.54 222.99 465.38 222.96 463.82 222.96C462.971 222.999 462.12 222.952 461.28 222.82C462.113 222.655 462.961 222.577 463.81 222.59C465.38 222.52 467.54 222.49 469.92 222.45C472.3 222.41 474.46 222.36 476.02 222.29C476.861 222.206 477.707 222.193 478.55 222.25Z" fill="#FF9A6C"/>
<path d="M475.09 194.06C475.285 194.724 475.228 195.436 474.93 196.06C474.326 197.566 473.186 198.795 471.73 199.51C470.964 199.92 470.16 200.255 469.33 200.51C468.657 200.749 467.959 200.913 467.25 201C466.747 201.057 466.239 200.94 465.81 200.67C465.52 200.47 465.44 200.28 465.46 200.26C465.977 200.598 466.6 200.733 467.21 200.64C467.892 200.499 468.561 200.302 469.21 200.05C470.005 199.778 470.778 199.443 471.52 199.05C472.879 198.381 473.975 197.276 474.63 195.91C474.836 195.308 474.99 194.689 475.09 194.06Z" fill="#FF9A6C"/>
<path d="M203.61 146.49H31.9802V385.05H203.61V146.49Z" fill="white"/>
<path d="M203.61 146.49H31.9802V232.84H203.61V146.49Z" fill="#615DB5"/>
<path d="M173.9 254C173.9 254.15 150.3 254.27 121.2 254.27C92.0998 254.27 68.4998 254.15 68.4998 254C68.4998 253.85 92.0898 253.74 121.2 253.74C150.31 253.74 173.9 253.83 173.9 254Z" fill="#263238"/>
<path d="M173.9 277.23C173.9 277.37 150.3 277.49 121.2 277.49C92.1 277.49 68.5 277.37 68.5 277.23C68.5 277.09 92.09 276.97 121.2 276.97C150.31 276.97 173.9 277.09 173.9 277.23Z" fill="#263238"/>
<path d="M173.9 300.49C173.9 300.63 150.3 300.75 121.2 300.75C92.1 300.75 68.5 300.63 68.5 300.49C68.5 300.35 92.09 300.22 121.2 300.22C150.31 300.22 173.9 300.34 173.9 300.49Z" fill="#263238"/>
<path d="M173.46 327.3H70.37C60.2301 327.3 52.01 335.52 52.01 345.66V347.57C52.01 357.71 60.2301 365.93 70.37 365.93H173.46C183.6 365.93 191.82 357.71 191.82 347.57V345.66C191.82 335.52 183.6 327.3 173.46 327.3Z" fill="#615DB5"/>
<path d="M95.7201 350.52C94.8609 350.058 94.1476 349.365 93.6601 348.52C93.1681 347.658 92.9094 346.683 92.9094 345.69C92.9094 344.697 93.1681 343.722 93.6601 342.86C94.1693 342.068 94.8804 341.426 95.7201 341C96.5593 340.574 97.4806 340.334 98.4211 340.296C99.3616 340.258 100.299 340.423 101.17 340.78C101.894 341.09 102.535 341.566 103.04 342.17L101.46 343.63C101.139 343.236 100.733 342.919 100.273 342.704C99.8119 342.489 99.3084 342.382 98.8001 342.39C98.1858 342.376 97.5788 342.525 97.0401 342.82C96.5326 343.099 96.1134 343.515 95.8301 344.02C95.5374 344.56 95.3892 345.166 95.4001 345.78C95.3864 346.394 95.5347 347.001 95.8301 347.54C96.1067 348.026 96.5114 348.428 97.0001 348.7C97.5388 348.995 98.1458 349.144 98.7601 349.13C99.2701 349.136 99.7749 349.026 100.236 348.808C100.697 348.589 101.102 348.269 101.42 347.87L103 349.33C102.5 349.949 101.854 350.433 101.12 350.74C100.328 351.068 99.4774 351.232 98.6201 351.22C97.6106 351.229 96.6145 350.988 95.7201 350.52Z" fill="white"/>
<path d="M111.94 343.67C112.27 344.034 112.522 344.461 112.682 344.925C112.842 345.389 112.906 345.88 112.87 346.37V351H110.51V346.69C110.547 346.174 110.394 345.661 110.08 345.25C109.923 345.084 109.731 344.955 109.519 344.872C109.306 344.789 109.078 344.754 108.85 344.77C108.588 344.757 108.326 344.799 108.082 344.894C107.837 344.989 107.615 345.134 107.43 345.32C107.042 345.778 106.852 346.372 106.9 346.97V350.97H104.53V339.79H106.9V343.73C107.212 343.413 107.587 343.165 108 343C108.467 342.828 108.962 342.743 109.46 342.75C109.914 342.726 110.369 342.796 110.795 342.954C111.221 343.112 111.611 343.356 111.94 343.67Z" fill="white"/>
<path d="M116.67 350.63C116.009 350.286 115.456 349.767 115.07 349.13C114.697 348.468 114.501 347.72 114.501 346.96C114.501 346.2 114.697 345.452 115.07 344.79C115.459 344.158 116.012 343.643 116.67 343.3C117.388 342.933 118.184 342.748 118.99 342.76C119.79 342.746 120.58 342.932 121.29 343.3C121.948 343.64 122.498 344.156 122.88 344.79C123.26 345.45 123.46 346.198 123.46 346.96C123.46 347.722 123.26 348.47 122.88 349.13C122.5 349.768 121.949 350.287 121.29 350.63C120.579 350.995 119.789 351.177 118.99 351.16C118.185 351.176 117.388 350.994 116.67 350.63ZM120.48 348.63C120.884 348.178 121.093 347.585 121.06 346.98C121.076 346.682 121.033 346.384 120.933 346.102C120.834 345.821 120.68 345.562 120.48 345.34C120.288 345.139 120.057 344.98 119.8 344.873C119.544 344.766 119.268 344.714 118.99 344.72C118.709 344.711 118.429 344.762 118.169 344.869C117.909 344.976 117.674 345.136 117.48 345.34C117.279 345.561 117.123 345.82 117.021 346.101C116.92 346.383 116.876 346.681 116.89 346.98C116.861 347.586 117.073 348.179 117.48 348.63C117.675 348.832 117.91 348.991 118.17 349.096C118.43 349.201 118.71 349.25 118.99 349.24C119.269 349.245 119.545 349.191 119.802 349.082C120.058 348.974 120.289 348.813 120.48 348.61V348.63Z" fill="white"/>
<path d="M126.61 350.63C125.947 350.289 125.393 349.769 125.01 349.13C124.712 348.647 124.516 348.109 124.436 347.547C124.355 346.986 124.391 346.414 124.541 345.867C124.691 345.32 124.952 344.81 125.308 344.368C125.664 343.926 126.107 343.563 126.61 343.3C127.328 342.945 128.119 342.76 128.92 342.76C129.721 342.76 130.512 342.945 131.23 343.3C131.888 343.64 132.438 344.156 132.82 344.79C133.2 345.45 133.4 346.198 133.4 346.96C133.4 347.722 133.2 348.47 132.82 349.13C132.44 349.768 131.889 350.287 131.23 350.63C130.51 350.979 129.72 351.16 128.92 351.16C128.12 351.16 127.33 350.979 126.61 350.63ZM130.42 348.63C130.819 348.183 131.027 347.598 131 347C131.016 346.702 130.973 346.404 130.873 346.122C130.774 345.841 130.62 345.582 130.42 345.36C130.227 345.158 129.994 344.998 129.736 344.891C129.477 344.784 129.199 344.733 128.92 344.74C128.64 344.733 128.363 344.784 128.104 344.891C127.846 344.998 127.613 345.158 127.42 345.36C127.218 345.581 127.063 345.84 126.961 346.121C126.86 346.403 126.815 346.701 126.83 347C126.801 347.606 127.013 348.199 127.42 348.65C127.614 348.851 127.847 349.009 128.105 349.114C128.364 349.219 128.641 349.268 128.92 349.26C129.202 349.263 129.481 349.207 129.739 349.095C129.998 348.983 130.23 348.818 130.42 348.61V348.63Z" fill="white"/>
<path d="M135.73 350.91C135.184 350.791 134.663 350.578 134.19 350.28L134.98 348.59C135.389 348.843 135.834 349.032 136.3 349.15C136.79 349.295 137.299 349.369 137.81 349.37C138.81 349.37 139.31 349.13 139.31 348.63C139.308 348.513 139.267 348.399 139.192 348.309C139.118 348.218 139.015 348.155 138.9 348.13C138.494 347.999 138.075 347.912 137.65 347.87C137.088 347.796 136.533 347.679 135.99 347.52C135.56 347.391 135.171 347.153 134.86 346.83C134.519 346.434 134.347 345.921 134.38 345.4C134.373 344.906 134.531 344.424 134.83 344.03C135.17 343.6 135.624 343.274 136.14 343.09C136.781 342.859 137.459 342.747 138.14 342.76C138.719 342.758 139.296 342.822 139.86 342.95C140.357 343.05 140.836 343.226 141.28 343.47L140.49 345.16C139.774 344.752 138.963 344.542 138.14 344.55C137.749 344.528 137.358 344.6 137 344.76C136.892 344.808 136.799 344.884 136.732 344.981C136.665 345.079 136.626 345.192 136.62 345.31C136.62 345.431 136.661 345.549 136.735 345.645C136.809 345.741 136.913 345.809 137.03 345.84C137.457 345.976 137.895 346.073 138.34 346.13C138.893 346.217 139.44 346.334 139.98 346.48C140.403 346.609 140.784 346.851 141.08 347.18C141.247 347.369 141.374 347.589 141.455 347.828C141.535 348.066 141.568 348.319 141.55 348.57C141.558 349.058 141.399 349.534 141.1 349.92C140.749 350.343 140.289 350.661 139.77 350.84C139.105 351.07 138.404 351.179 137.7 351.16C137.035 351.161 136.373 351.077 135.73 350.91Z" fill="white"/>
<path d="M151 347.63H144.83C144.925 348.116 145.204 348.546 145.61 348.83C146.069 349.134 146.61 349.288 147.16 349.27C147.545 349.28 147.929 349.215 148.29 349.08C148.633 348.942 148.946 348.739 149.21 348.48L150.47 349.85C150.039 350.302 149.513 350.654 148.931 350.88C148.349 351.107 147.724 351.202 147.1 351.16C146.256 351.18 145.42 350.998 144.66 350.63C143.98 350.299 143.41 349.778 143.02 349.13C142.643 348.471 142.445 347.724 142.445 346.965C142.445 346.205 142.643 345.459 143.02 344.8C143.395 344.165 143.938 343.646 144.59 343.3C145.272 342.934 146.036 342.749 146.81 342.76C147.566 342.748 148.312 342.927 148.98 343.28C149.619 343.616 150.147 344.13 150.5 344.76C150.863 345.449 151.036 346.222 151 347C151 347 151 347.24 151 347.63ZM145.44 345C145.071 345.315 144.836 345.758 144.78 346.24H148.78C148.715 345.759 148.476 345.318 148.11 345C147.735 344.688 147.258 344.525 146.77 344.54C146.286 344.527 145.813 344.691 145.44 345Z" fill="white"/>
<path d="M57.7699 258.31C57.4027 258.312 57.0472 258.181 56.7699 257.94L53.8399 255.35C53.5415 255.085 53.3608 254.712 53.3373 254.313C53.3139 253.915 53.4497 253.523 53.7149 253.225C53.9801 252.927 54.353 252.746 54.7515 252.722C55.15 252.699 55.5415 252.835 55.8399 253.1L57.6699 254.71L61.8099 250.13C62.0845 249.875 62.4446 249.732 62.8192 249.729C63.1939 249.727 63.556 249.864 63.8344 250.115C64.1127 250.366 64.2872 250.712 64.3234 251.084C64.3595 251.457 64.2549 251.83 64.0299 252.13L58.8999 257.8C58.7572 257.959 58.583 258.086 58.3885 258.174C58.194 258.261 57.9833 258.308 57.7699 258.31Z" fill="#615DB5"/>
<path d="M57.77 281.56C57.4028 281.562 57.0472 281.431 56.77 281.19L53.84 278.61C53.6916 278.479 53.5705 278.319 53.4837 278.141C53.3968 277.963 53.3459 277.77 53.3339 277.572C53.3095 277.172 53.4448 276.78 53.71 276.48C53.9752 276.18 54.3486 275.998 54.7481 275.974C55.1475 275.949 55.5403 276.085 55.84 276.35L57.66 278L61.8 273.43C61.925 273.263 62.0834 273.125 62.265 273.023C62.4465 272.921 62.6474 272.858 62.8547 272.838C63.0619 272.817 63.2712 272.841 63.469 272.906C63.6668 272.971 63.8488 273.077 64.0036 273.216C64.1583 273.356 64.2823 273.526 64.3677 273.716C64.4531 273.906 64.498 274.111 64.4995 274.319C64.5011 274.528 64.4592 274.734 64.3767 274.925C64.2941 275.116 64.1726 275.288 64.02 275.43L58.89 281.1C58.7455 281.25 58.5713 281.369 58.3785 281.448C58.1856 281.527 57.9784 281.565 57.77 281.56Z" fill="#615DB5"/>
<path d="M57.7699 304.82C57.4027 304.822 57.0472 304.691 56.7699 304.45L53.8399 301.86C53.6922 301.729 53.5718 301.57 53.4855 301.392C53.3993 301.214 53.3489 301.021 53.3373 300.823C53.3257 300.626 53.3531 300.428 53.4179 300.242C53.4827 300.055 53.5836 299.883 53.7149 299.735C53.8462 299.587 54.0054 299.467 54.1832 299.381C54.3611 299.294 54.5542 299.244 54.7515 299.232C54.9489 299.221 55.1465 299.248 55.3333 299.313C55.52 299.378 55.6922 299.479 55.8399 299.61L57.6699 301.22L61.8099 296.64C61.935 296.473 62.0933 296.335 62.2749 296.233C62.4565 296.131 62.6573 296.068 62.8646 296.048C63.0719 296.027 63.2811 296.051 63.4789 296.116C63.6767 296.181 63.8587 296.287 64.0135 296.426C64.1682 296.566 64.2922 296.736 64.3776 296.926C64.463 297.116 64.5079 297.321 64.5094 297.529C64.511 297.738 64.4691 297.944 64.3866 298.135C64.304 298.326 64.1826 298.498 64.0299 298.64L58.8999 304.31C58.7572 304.469 58.583 304.596 58.3885 304.684C58.194 304.772 57.9833 304.818 57.7699 304.82Z" fill="#615DB5"/>
<path d="M131.291 211L117.782 203.702L104.106 210.688L106.87 195.593L95.9998 184.74L111.214 182.702L118.176 169L124.827 182.848L140 185.239L128.88 195.843L131.291 211Z" fill="white"/>
<path d="M203.61 385.05C203.61 382.95 203.52 287.5 203.38 146.49L203.61 146.73L32 146.75L32.26 146.49C32.26 235.75 32.26 318.34 32.21 385.05L32 384.84L203.63 385.05L32 385.26H31.79V385.05C31.79 318.34 31.79 235.75 31.74 146.49V146.23H32H203.61H203.85V146.46C203.71 287.5 203.62 383 203.61 385.05Z" fill="#263238"/>
</svg>
