<?xml version="1.0" encoding="UTF-8"?>
<svg id="Layer_1" data-name="Layer 1" xmlns="http://www.w3.org/2000/svg" viewBox="0 0 2002.62 561.43">
  <defs>
    <style>
      .cls-1 {
        font-family: AvenirLTPro-Medium, 'Avenir LT Pro';
        font-size: 103.1px;
        letter-spacing: .18em;
      }

      .cls-1, .cls-2, .cls-3 {
        fill: #fff;
      }

      .cls-1, .cls-4 {
        font-weight: 500;
      }

      .cls-5 {
        font-size: 210.1px;
      }

      .cls-6 {
        fill: #29266d;
      }

      .cls-4 {
        font-family: ConcordW00-Medium, ConcordW00-Medium;
      }

      .cls-4, .cls-7 {
        fill: #faa21b;
      }

      .cls-3 {
        font-family: ConcordW00-Regular, ConcordW00-Regular;
      }
    </style>
  </defs>
  <rect class="cls-6" y="0" width="2002.62" height="561.43"/>
  <g>
    <text class="cls-5" transform="translate(461.26 266.65)"><tspan class="cls-4" x="0" y="0">mai</tspan><tspan class="cls-3" x="354.02" y="0">profile.com</tspan></text>
    <text class="cls-1" transform="translate(458.04 443.82)"><tspan x="0" y="0">THE PROFILE BOOSTER</tspan></text>
  </g>
  <g>
    <rect class="cls-6" x="213.71" y="290.51" width="38.77" height="57.24"/>
    <g>
      <rect class="cls-2" x="173.49" y="356.65" width="120.14" height="21.26" rx="7.46" ry="7.46"/>
      <rect class="cls-7" x="177.94" y="385.82" width="111.24" height="21.26" rx="7.46" ry="7.46"/>
      <path class="cls-2" d="m203.16,414.49h61.31v9.14c0,11.88-9.64,21.52-21.52,21.52h-18.27c-11.88,0-21.52-9.64-21.52-21.52v-9.14h0Z"/>
      <path class="cls-2" d="m180.41,347.75c.35-4.49.37-11.25-1.65-19.12-2.05-8.01-5.4-14.02-7.91-17.8-8.14-8.47-17.68-20.01-26.37-34.94-1.43-2.45-2.76-4.87-4-7.25-13.73-26.25-15.83-57.27-4.58-84.67.32-.78.65-1.56,1-2.35,7.36-16.71,17.67-27.98,24.74-34.5,5.91-6.28,22.52-22.3,49.75-28.46,27.77-6.28,50.05,1.43,58.01,4.61,24.67,9.88,39.59,24.69,43.18,28.68,5.89,6.55,26.41,31.06,26.7,66.91.19,23.5-7.3,41.03-12.4,51.13-7.51,14.84-17.65,25.45-24.35,32.26-3.74,5.34-8.29,13.06-11.7,23.07-2.95,8.67-4.15,16.44-4.61,22.41h-48.12l-.33-23.4c.76-.28,9.05-3.41,10.88-11.21,2.09-8.94-5.55-18.73-14.17-19.45-6.38-.53-11.07,4.08-11.54,4.61-.83.94-4.78,5.58-4.28,12.2.46,6.13,4.55,11.59,10.55,14.17v23.07h-48.78Z"/>
      <circle class="cls-2" cx="233.31" cy="309.68" r="7.09"/>
      <g>
        <path class="cls-2" d="m100.98,316.77c-2.08,1.16-2.64,3.79-1.51,5.46,1.17,1.73,3.96,2.14,5.8.47,6.92-5.05,13.84-10.11,20.76-15.16,1.56-1.6,2.05-3.72,1.32-4.94-.94-1.59-4.23-2.21-6.92,0-6.48,4.72-12.96,9.45-19.45,14.17Z"/>
        <path class="cls-2" d="m74.61,254.14c-1.86.56-2.99,2.44-2.64,4.28.37,1.94,2.27,3.28,4.28,2.97,9.12-1.87,18.24-3.74,27.36-5.6,1.98-1.01,2.81-3.37,1.98-5.27-.74-1.71-2.68-2.7-4.61-2.31-8.79,1.98-17.58,3.96-26.37,5.93Z"/>
        <path class="cls-2" d="m72.62,194.17c-1.79.33-3.12,1.84-3.2,3.61-.08,1.66.96,3.2,2.55,3.79,10.07,1.66,20.14,3.31,30.21,4.97,1.89-.4,3.29-1.98,3.41-3.81.11-1.6-.76-3.15-2.22-3.96-10.25-1.53-20.5-3.07-30.75-4.6Z"/>
        <path class="cls-2" d="m100.81,130.95c-1.63-.78-3.58-.36-4.7.99-1.2,1.44-1.16,3.61.12,5.07,7.95,5.4,15.9,10.79,23.85,16.19,2.2,1.09,4.68.25,5.56-1.48.64-1.27.39-2.93-.62-4.2-8.08-5.52-16.15-11.04-24.23-16.56Z"/>
      </g>
      <g>
        <path class="cls-2" d="m366.06,316.77c2.08,1.16,2.64,3.79,1.51,5.46-1.17,1.73-3.96,2.14-5.8.47-6.92-5.05-13.84-10.11-20.76-15.16-1.56-1.6-2.05-3.72-1.32-4.94.94-1.59,4.23-2.21,6.92,0,6.48,4.72,12.96,9.45,19.45,14.17Z"/>
        <path class="cls-2" d="m392.43,254.14c1.86.56,2.99,2.44,2.64,4.28-.37,1.94-2.27,3.28-4.28,2.97-9.12-1.87-18.24-3.74-27.36-5.6-1.98-1.01-2.81-3.37-1.98-5.27.74-1.71,2.68-2.7,4.61-2.31,8.79,1.98,17.58,3.96,26.37,5.93Z"/>
        <path class="cls-2" d="m394.42,194.17c1.79.33,3.12,1.84,3.2,3.61.08,1.66-.96,3.2-2.55,3.79-10.07,1.66-20.14,3.31-30.21,4.97-1.89-.4-3.29-1.98-3.41-3.81-.11-1.6.76-3.15,2.22-3.96,10.25-1.53,20.5-3.07,30.75-4.6Z"/>
        <path class="cls-2" d="m366.23,130.95c1.63-.78,3.58-.36,4.7.99,1.2,1.44,1.16,3.61-.12,5.07-7.95,5.4-15.9,10.79-23.85,16.19-2.2,1.09-4.68.25-5.56-1.48-.64-1.27-.39-2.93.62-4.2,8.08-5.52,16.15-11.04,24.23-16.56Z"/>
      </g>
      <g>
        <path class="cls-6" d="m276.15,238.07c-10.49-8.16-24.87-15.46-42.69-15.46s-32.2,7.3-42.69,15.46c-4.88,3.79-5.55,11.79-1.4,16.61h0c3.19,3.72,8.24,4.27,11.97,1.29,8.5-6.8,19.28-12.16,32.13-12.16s23.62,5.36,32.13,12.16c3.73,2.98,8.77,2.43,11.97-1.29h0c4.14-4.82,3.48-12.82-1.4-16.61Z"/>
        <path class="cls-6" d="m296.36,215c-11.89-10.98-33.33-25.69-62.9-25.69s-51.01,14.71-62.9,25.69c-4.17,3.85-4.54,11.02-.78,15.39h0c3.17,3.68,8.2,4.08,11.78.94,11.7-10.26,29.25-20.82,51.9-20.82s40.21,10.56,51.9,20.82c3.58,3.14,8.61,2.74,11.78-.94h0c3.76-4.38,3.39-11.54-.78-15.39Z"/>
        <path class="cls-6" d="m316.08,188.69c-12.15-12.24-40.62-35.32-82.62-35.32s-70.47,23.08-82.62,35.32c-3.78,3.81-3.99,10.52-.45,14.63l.08.09c3.18,3.7,8.27,3.95,11.74.62,12.3-11.83,36.69-29.82,71.26-29.82s58.96,18,71.26,29.82c3.47,3.34,8.56,3.08,11.74-.62l.08-.09c3.54-4.11,3.33-10.82-.45-14.63Z"/>
        <path class="cls-6" d="m255.21,264.05c-6.23-3.94-13.51-6.64-21.75-6.64s-15.52,2.7-21.75,6.64c-5.47,3.46-6.55,12.01-2.16,17.12h0c2.87,3.34,7.3,4.2,10.9,2.01,3.92-2.39,8.27-3.87,13.02-3.87s9.09,1.48,13.02,3.87c3.6,2.19,8.03,1.33,10.9-2.01h0c4.39-5.11,3.31-13.66-2.16-17.12Z"/>
      </g>
    </g>
  </g>
</svg>