<?xml version="1.0" encoding="utf-8"?>
<!-- Generator: Adobe Illustrator 27.3.1, SVG Export Plug-In . SVG Version: 6.00 Build 0)  -->
<svg version="1.1" id="Layer_1" xmlns="http://www.w3.org/2000/svg" xmlns:xlink="http://www.w3.org/1999/xlink" x="0px" y="0px"
	 viewBox="0 0 1504.77 561.43" style="enable-background:new 0 0 1504.77 561.43;" xml:space="preserve">
<style type="text/css">
	.st0{fill:#29266D;}
	.st1{fill:#FFFFFF;}
	.st2{fill:#FAA21B;}
	.st3{font-family:'ConcordW00-Medium';}
	.st4{font-size:210.1016px;}
	.st5{font-family:'ConcordW00-Regular';}
	.st6{font-family:'AvenirLTPro-Medium';}
	.st7{font-size:67.9397px;}
	.st8{letter-spacing:12;}
	.st9{fill:#2C3077;}
	.st10{fill:#2C2A6C;}
</style>
<rect y="0" class="st0" width="1504.2" height="561.43"/>
<g>
	<g>
		<g>
			<text transform="matrix(1 0 0 1 453.8317 280.7563)"><tspan x="0" y="0" class="st2 st3 st4">mai</tspan><tspan x="354.02" y="0" class="st1 st5 st4">profile</tspan></text>
		</g>
		<g>
			<text transform="matrix(1 0 0 1 453.8317 427.9023)" class="st1 st6 st7 st8">THE PROFILE BOOSTER</text>
		</g>
	</g>
	<g>
		<rect x="209.5" y="304.62" class="st0" width="38.77" height="57.24"/>
		<g>
			<path class="st1" d="M281.96,370.76H176.75c-4.12,0-7.46,3.34-7.46,7.46v6.34c0,4.12,3.34,7.46,7.46,7.46h105.22
				c4.12,0,7.46-3.34,7.46-7.46v-6.34C289.42,374.1,286.08,370.76,281.96,370.76z"/>
			<path class="st2" d="M277.51,399.93h-96.32c-4.12,0-7.46,3.34-7.46,7.46v6.34c0,4.12,3.34,7.46,7.46,7.46h96.32
				c4.12,0,7.46-3.34,7.46-7.46v-6.34C284.97,403.27,281.63,399.93,277.51,399.93z"/>
			<path class="st1" d="M238.74,459.26h-18.27c-11.88,0-21.52-9.63-21.52-21.52v-9.14h61.31v9.14
				C260.25,449.62,250.62,459.26,238.74,459.26z"/>
			<path class="st1" d="M176.21,361.86c0.35-4.49,0.37-11.25-1.65-19.12c-2.05-8.01-5.4-14.02-7.91-17.8
				c-8.14-8.47-17.68-20.01-26.37-34.94c-1.43-2.45-2.76-4.87-4-7.25c-13.73-26.25-15.83-57.27-4.58-84.67
				c0.32-0.78,0.65-1.56,1-2.35c7.36-16.71,17.67-27.98,24.74-34.5c5.91-6.28,22.52-22.3,49.75-28.46
				c27.77-6.28,50.05,1.43,58.01,4.61c24.67,9.88,39.59,24.69,43.18,28.68c5.89,6.55,26.41,31.06,26.7,66.91
				c0.19,23.5-7.3,41.03-12.4,51.13c-7.51,14.84-17.65,25.45-24.35,32.26c-3.74,5.34-8.29,13.06-11.7,23.07
				c-2.95,8.67-4.15,16.44-4.61,22.41h-48.12l-0.33-23.4c0.76-0.28,9.05-3.41,10.88-11.21c2.09-8.94-5.55-18.73-14.17-19.45
				c-6.38-0.53-11.07,4.08-11.54,4.61c-0.83,0.94-4.78,5.58-4.28,12.2c0.46,6.13,4.55,11.59,10.55,14.17v23.07H176.21z"/>
			<circle class="st1" cx="229.11" cy="323.79" r="7.09"/>
			<g>
				<g>
					<path class="st1" d="M96.77,330.88c-2.08,1.16-2.64,3.79-1.51,5.46c1.17,1.73,3.96,2.14,5.8,0.47
						c6.92-5.05,13.84-10.11,20.76-15.16c1.56-1.6,2.05-3.72,1.32-4.94c-0.94-1.59-4.23-2.21-6.92,0
						C109.74,321.43,103.25,326.15,96.77,330.88z"/>
					<path class="st1" d="M70.4,268.25c-1.86,0.56-2.99,2.44-2.64,4.28c0.37,1.94,2.27,3.28,4.28,2.97
						c9.12-1.87,18.24-3.74,27.36-5.6c1.98-1.01,2.81-3.37,1.98-5.27c-0.74-1.71-2.68-2.7-4.61-2.31
						C87.98,264.3,79.19,266.27,70.4,268.25z"/>
					<path class="st1" d="M68.41,208.28c-1.79,0.33-3.12,1.84-3.2,3.61c-0.08,1.66,0.96,3.2,2.55,3.79
						c10.07,1.66,20.14,3.31,30.21,4.97c1.89-0.4,3.29-1.98,3.41-3.81c0.11-1.6-0.76-3.15-2.22-3.96
						C88.91,211.35,78.66,209.81,68.41,208.28z"/>
					<path class="st1" d="M96.61,145.06c-1.63-0.78-3.58-0.36-4.7,0.99c-1.2,1.44-1.16,3.61,0.12,5.07
						c7.95,5.4,15.9,10.79,23.85,16.19c2.2,1.09,4.68,0.25,5.56-1.48c0.64-1.27,0.39-2.93-0.62-4.2
						C112.76,156.1,104.68,150.58,96.61,145.06z"/>
				</g>
			</g>
			<g>
				<g>
					<path class="st1" d="M361.85,330.88c2.08,1.16,2.64,3.79,1.51,5.46c-1.17,1.73-3.96,2.14-5.8,0.47
						c-6.92-5.05-13.84-10.11-20.76-15.16c-1.56-1.6-2.05-3.72-1.32-4.94c0.94-1.59,4.23-2.21,6.92,0
						C348.89,321.43,355.37,326.15,361.85,330.88z"/>
					<path class="st1" d="M388.22,268.25c1.86,0.56,2.99,2.44,2.64,4.28c-0.37,1.94-2.27,3.28-4.28,2.97
						c-9.12-1.87-18.24-3.74-27.36-5.6c-1.98-1.01-2.81-3.37-1.98-5.27c0.74-1.71,2.68-2.7,4.61-2.31
						C370.64,264.3,379.43,266.27,388.22,268.25z"/>
					<path class="st1" d="M390.21,208.28c1.79,0.33,3.12,1.84,3.2,3.61c0.08,1.66-0.96,3.2-2.55,3.79
						c-10.07,1.66-20.14,3.31-30.21,4.97c-1.89-0.4-3.29-1.98-3.41-3.81c-0.11-1.6,0.76-3.15,2.22-3.96
						C369.71,211.35,379.96,209.81,390.21,208.28z"/>
					<path class="st1" d="M362.02,145.06c1.63-0.78,3.58-0.36,4.7,0.99c1.2,1.44,1.16,3.61-0.12,5.07
						c-7.95,5.4-15.9,10.79-23.85,16.19c-2.2,1.09-4.68,0.25-5.56-1.48c-0.64-1.27-0.39-2.93,0.62-4.2
						C345.87,156.1,353.94,150.58,362.02,145.06z"/>
				</g>
			</g>
			<g>
				<g>
					<path class="st0" d="M271.94,252.18c-10.49-8.16-24.87-15.46-42.69-15.46s-32.2,7.3-42.69,15.46
						c-4.88,3.79-5.55,11.79-1.4,16.61h0c3.19,3.72,8.24,4.27,11.97,1.29c8.5-6.8,19.28-12.16,32.13-12.16s23.62,5.36,32.13,12.16
						c3.73,2.98,8.77,2.43,11.97-1.29h0C277.49,263.97,276.82,255.97,271.94,252.18z"/>
					<path class="st0" d="M292.15,229.11c-11.89-10.98-33.33-25.69-62.9-25.69s-51.01,14.71-62.9,25.69
						c-4.17,3.85-4.54,11.02-0.78,15.39l0,0c3.17,3.68,8.2,4.08,11.78,0.94c11.7-10.26,29.25-20.82,51.9-20.82
						s40.21,10.56,51.9,20.82c3.58,3.14,8.61,2.74,11.78-0.94v0C296.69,240.13,296.32,232.96,292.15,229.11z"/>
					<path class="st0" d="M311.87,202.8c-12.15-12.24-40.62-35.32-82.62-35.32s-70.47,23.08-82.62,35.32
						c-3.78,3.81-3.99,10.52-0.45,14.63l0.08,0.09c3.18,3.7,8.27,3.95,11.74,0.62c12.3-11.83,36.69-29.82,71.26-29.82
						s58.96,18,71.26,29.82c3.47,3.34,8.56,3.08,11.74-0.62l0.08-0.09C315.86,213.32,315.65,206.61,311.87,202.8z"/>
					<path class="st0" d="M251.01,278.16c-6.23-3.94-13.51-6.64-21.75-6.64s-15.52,2.7-21.75,6.64c-5.47,3.46-6.55,12.01-2.16,17.12
						h0c2.87,3.34,7.3,4.2,10.9,2.01c3.92-2.39,8.27-3.87,13.02-3.87s9.09,1.48,13.02,3.87c3.6,2.19,8.03,1.33,10.9-2.01h0
						C257.56,290.17,256.47,281.62,251.01,278.16z"/>
				</g>
			</g>
		</g>
	</g>
</g>
</svg>
