<svg width="989" height="750" viewBox="0 0 989 750" fill="none" xmlns="http://www.w3.org/2000/svg">
<path d="M621 50C621 22.3858 643.386 0 671 0H989V750H671C643.386 750 621 727.614 621 700V50Z" fill="#2C2A6C"/>
<path d="M0 176.434C0 151.74 18.0283 130.743 42.4389 127.009L470.813 61.4763C481.33 59.8675 492.085 61.655 501.516 66.579L794.469 219.537C813.345 229.392 823.908 250.122 820.787 271.186L759.35 685.886C755.295 713.263 729.772 732.137 702.408 727.996L405.559 683.068C400.877 682.36 396.117 682.32 391.424 682.95L56.6532 727.895C26.6646 731.922 0 708.598 0 678.34V176.434Z" fill="#FAA21E"/>
<path d="M613.408 281.273C614.236 275.253 605.692 270.184 599.26 269.667C596.2 269.426 593.02 269.895 590.116 268.872C583.828 266.681 581.308 258.53 575.176 255.929C570.592 253.99 565.3 255.712 560.86 257.964C556.42 260.215 552.016 263.033 547.048 263.358C542.728 263.635 538.024 262.021 534.244 264.14C531.424 265.717 529.948 268.956 527.356 270.895C524.764 272.833 521.5 273.182 518.344 273.303C515.188 273.423 511.936 273.507 509.056 274.82C506.176 276.132 503.812 279.19 504.412 282.297L613.408 281.273Z" fill="#EBEBEB"/>
<path d="M349.697 225.467C350.537 219.447 341.981 214.391 335.561 213.861C332.501 213.62 329.309 214.09 326.417 213.078C320.117 210.875 317.609 202.724 311.477 200.123C306.881 198.185 301.601 199.907 297.161 202.158C292.721 204.41 288.317 207.227 283.337 207.552C279.017 207.829 274.325 206.215 270.545 208.335C267.725 209.912 266.249 213.151 263.657 215.089C261.065 217.027 257.801 217.377 254.645 217.497C251.489 217.617 248.225 217.702 245.357 219.026C242.489 220.35 240.113 223.385 240.713 226.491L349.697 225.467Z" fill="#EBEBEB"/>
<path d="M232.24 415.916C233.068 409.835 224.524 404.827 218.092 404.309C215.032 404.068 211.84 404.538 208.948 403.515C202.66 401.323 200.14 393.172 194.008 390.572C189.412 388.633 184.132 390.355 179.692 392.606C175.252 394.858 170.8 397.615 165.88 397.928C161.548 398.217 156.856 396.604 153.076 398.723C150.256 400.3 148.78 403.539 146.188 405.477C143.596 407.415 140.332 407.765 137.176 407.885C134.02 408.005 130.756 408.09 127.888 409.402C125.02 410.714 122.644 413.773 123.244 416.879L232.24 415.916Z" fill="#EBEBEB"/>
<path d="M450.591 333.683C451.107 329.962 445.875 326.904 441.951 326.591C440.079 326.435 438.135 326.724 436.359 326.11C432.519 324.761 430.983 319.777 427.227 318.187C424.431 316.983 421.227 318.067 418.479 319.391C415.731 320.716 413.079 322.486 410.079 322.678C407.439 322.847 404.571 321.872 402.255 323.16C400.539 324.123 399.639 326.122 398.043 327.29C396.396 328.316 394.486 328.838 392.547 328.795C390.614 328.741 388.688 329.055 386.871 329.722C385.97 330.072 385.205 330.706 384.693 331.528C384.18 332.351 383.947 333.318 384.027 334.285L450.591 333.683Z" fill="#EBEBEB"/>
<path d="M664.936 667.781C664.936 667.949 535.624 668.094 376.12 668.094C216.616 668.094 87.2803 667.949 87.2803 667.781C87.2803 667.612 216.58 667.468 376.12 667.468C535.66 667.468 664.936 667.612 664.936 667.781Z" fill="#263238"/>
<path d="M458.873 577.191L549.593 667.491L567.305 667.443L573.605 577.191H458.873Z" fill="#E0E0E0"/>
<path d="M532.637 585.74L441.221 667.492L505.073 667.396L558.893 621.981L532.637 585.74Z" fill="#E0E0E0"/>
<path d="M524.045 352.116L636.725 456.924L638.705 348.215L524.045 352.116Z" fill="#E0E0E0"/>
<path d="M599.955 356.643L295.191 667.443H355.239L627.423 391.968L599.955 356.643Z" fill="#E0E0E0"/>
<path d="M204.484 471.733L313.564 580.31L319.216 471.733H204.484Z" fill="#E0E0E0"/>
<path d="M280.204 478.837L84.3643 667.444H147.472L306.46 515.077L280.204 478.837Z" fill="#E0E0E0"/>
<path d="M299.584 434.457L455.296 589.46V434.457H299.584Z" fill="#2C2A6C"/>
<path d="M402.329 437.949C398.801 440.779 174.641 667.444 174.641 667.444H271.217L447.437 489.589L402.329 437.949Z" fill="#2C2A6C"/>
<path d="M194.634 185.301C202.5 182.061 206.259 173.037 203.029 165.145C199.8 157.253 190.806 153.481 182.94 156.721C175.074 159.961 171.315 168.986 174.544 176.878C177.774 184.77 186.768 188.541 194.634 185.301Z" fill="#FAA21E"/>
<path d="M186.592 205.565C186.414 203.447 186.35 201.321 186.4 199.196C186.342 197.072 186.398 194.946 186.568 192.827C186.652 192.827 186.724 195.681 186.724 199.196C186.724 202.712 186.676 205.565 186.592 205.565Z" fill="#FAA21E"/>
<path d="M177.712 189.227C177.796 189.227 176.344 191.936 174.484 195.175C172.624 198.414 171.04 201.002 170.968 200.954C170.896 200.906 172.336 198.257 174.196 195.006C176.056 191.756 177.64 189.179 177.712 189.227Z" fill="#FAA21E"/>
<path d="M168.604 183.544C167.475 184.648 166.272 185.673 165.004 186.614C163.802 187.639 162.531 188.58 161.2 189.432C162.332 188.33 163.534 187.305 164.8 186.361C166.004 185.338 167.275 184.397 168.604 183.544Z" fill="#FAA21E"/>
<path d="M202.001 199.292C201.823 198.782 201.686 198.259 201.593 197.727C201.377 196.752 201.065 195.403 200.669 193.934C200.273 192.465 199.877 191.153 199.577 190.202C199.393 189.692 199.249 189.169 199.145 188.637C199.42 189.106 199.637 189.608 199.793 190.13C200.255 191.349 200.656 192.59 200.993 193.85C201.389 195.331 201.665 196.691 201.833 197.679C201.955 198.207 202.012 198.749 202.001 199.292Z" fill="#FAA21E"/>
<path d="M217.601 188.168C216.015 186.995 214.496 185.733 213.053 184.387C211.533 183.131 210.083 181.793 208.709 180.378C210.297 181.544 211.816 182.802 213.257 184.146C214.775 185.408 216.225 186.751 217.601 188.168Z" fill="#FAA21E"/>
<path d="M223.6 172.888C222.979 172.841 222.362 172.753 221.752 172.623C220.552 172.431 219.028 172.178 217.276 171.985C215.524 171.793 213.94 171.66 212.776 171.588C212.152 171.583 211.53 171.526 210.916 171.419C211.536 171.337 212.164 171.317 212.788 171.359C214.3 171.382 215.81 171.483 217.312 171.66C218.815 171.83 220.309 172.075 221.788 172.395C222.409 172.487 223.018 172.653 223.6 172.888Z" fill="#FAA21E"/>
<path d="M223.601 157.863C223.601 157.947 220.289 158.838 216.161 159.849C212.033 160.861 208.649 161.607 208.637 161.511C208.625 161.415 211.949 160.536 216.077 159.524C220.205 158.513 223.601 157.767 223.601 157.863Z" fill="#FAA21E"/>
<path d="M206.176 140.344C206.248 140.344 204.652 142.945 202.576 146.051C200.5 149.158 198.82 151.626 198.748 151.578C199.845 149.612 201.046 147.707 202.348 145.871C204.4 142.777 206.104 140.296 206.176 140.344Z" fill="#FAA21E"/>
<path d="M188.908 136.685C188.956 137.394 188.956 138.106 188.908 138.816C188.908 140.116 188.908 141.922 188.908 143.921C188.908 145.919 188.908 147.725 188.968 149.038C189.016 149.743 189.016 150.451 188.968 151.157C188.835 150.458 188.763 149.749 188.752 149.038C188.68 147.737 188.608 145.919 188.608 143.921C188.608 141.922 188.608 140.116 188.74 138.804C188.735 138.094 188.791 137.385 188.908 136.685Z" fill="#FAA21E"/>
<path d="M175.828 153.035C174.534 151.219 173.333 149.338 172.228 147.4C170.296 144.233 168.808 141.633 168.88 141.585C168.952 141.537 170.584 144.065 172.48 147.231C174.376 150.398 175.9 152.987 175.828 153.035Z" fill="#FAA21E"/>
<path d="M168.016 159.693C167.462 159.679 166.91 159.602 166.372 159.464C165.376 159.248 163.972 158.911 162.508 158.465C161.044 158.02 159.664 157.562 158.716 157.189C158.183 157.027 157.671 156.8 157.192 156.515C157.736 156.622 158.27 156.775 158.788 156.972C159.76 157.285 161.104 157.719 162.592 158.176C164.08 158.634 165.448 158.995 166.432 159.26C166.973 159.354 167.503 159.499 168.016 159.693Z" fill="#FAA21E"/>
<path d="M164.596 171.564C162.976 171.888 161.337 172.101 159.688 172.203C158.049 172.42 156.397 172.525 154.744 172.516C156.365 172.199 158.004 171.986 159.652 171.878C161.292 171.667 162.943 171.562 164.596 171.564Z" fill="#FAA21E"/>
<path d="M623.367 511.153C624.003 506.578 617.559 502.809 612.723 502.412C610.419 502.231 608.019 502.58 605.835 501.822C601.095 500.16 599.211 494.02 594.591 492.069C591.135 490.612 587.151 491.913 583.791 493.598C580.431 495.284 577.131 497.415 573.399 497.656C570.147 497.873 566.607 496.657 563.799 498.258C561.675 499.462 560.559 501.87 558.603 503.339C556.571 504.605 554.214 505.245 551.823 505.181C549.437 505.14 547.064 505.548 544.827 506.385C542.667 507.372 540.879 509.672 541.335 512.008L623.367 511.153Z" fill="white"/>
<path d="M623.368 511.153H622.972H621.772L617.092 511.237L599.716 511.502L541.312 512.213H541.048V511.96C540.941 511.27 540.983 510.565 541.169 509.892C541.355 509.22 541.682 508.595 542.128 508.059C543.003 506.937 544.188 506.099 545.536 505.651C548.608 504.603 551.788 505.049 554.692 504.507C556.134 504.296 557.5 503.724 558.664 502.846C559.735 501.846 560.73 500.767 561.64 499.619C562.137 499.05 562.706 498.548 563.332 498.126C563.974 497.711 564.685 497.417 565.432 497.259C566.867 497.007 568.331 496.971 569.776 497.151C571.142 497.314 572.52 497.346 573.892 497.247C575.221 497.094 576.522 496.753 577.756 496.236C580.228 495.236 582.46 493.828 584.812 492.768C587.071 491.625 589.578 491.062 592.108 491.131C593.322 491.224 594.501 491.582 595.564 492.178C596.558 492.773 597.463 493.507 598.252 494.357C599.812 495.995 601.036 497.753 602.464 499.173C603.741 500.596 605.456 501.55 607.336 501.882C609.112 502.171 610.852 502.015 612.484 502.135C615.285 502.376 617.967 503.384 620.236 505.049C621.719 506.046 622.819 507.519 623.356 509.227C623.501 509.83 623.521 510.457 623.416 511.069C623.438 510.461 623.377 509.854 623.236 509.263C622.66 507.611 621.554 506.197 620.092 505.241C617.812 503.682 615.154 502.771 612.4 502.605C610.804 502.508 609.064 502.677 607.216 502.4C605.247 502.063 603.445 501.08 602.092 499.607C600.616 498.15 599.38 496.392 597.844 494.791C597.086 493.978 596.218 493.276 595.264 492.708C594.256 492.164 593.143 491.844 592 491.769C589.558 491.718 587.142 492.276 584.968 493.394C582.664 494.442 580.432 495.862 577.9 496.886C576.618 497.435 575.264 497.796 573.88 497.957C572.472 498.058 571.058 498.026 569.656 497.861C568.27 497.698 566.868 497.734 565.492 497.969C564.124 498.291 562.901 499.057 562.012 500.149C561.092 501.326 560.08 502.429 558.988 503.448C557.74 504.395 556.276 505.012 554.728 505.241C551.692 505.795 548.548 505.362 545.668 506.361C544.439 506.767 543.354 507.525 542.548 508.54C542.156 509.007 541.868 509.553 541.702 510.14C541.537 510.728 541.498 511.344 541.588 511.948L541.276 511.695L599.476 511.249L616.924 511.165H622.924C623.071 511.15 623.22 511.146 623.368 511.153Z" fill="#263238"/>
<path d="M365.56 611.927C366.388 605.847 357.844 600.839 351.412 600.321C348.352 600.08 345.172 600.55 342.268 599.526C335.98 597.335 333.46 589.184 327.328 586.583C322.732 584.645 317.452 586.367 313.012 588.618C308.572 590.869 304.168 593.687 299.2 594C294.868 594.289 290.176 592.675 286.396 594.795C283.576 596.372 282.1 599.61 279.508 601.549C276.916 603.487 273.652 603.837 270.496 603.957C267.34 604.077 264.076 604.162 261.208 605.474C258.34 606.786 255.964 609.844 256.564 612.951L365.56 611.927Z" fill="white"/>
<path d="M365.561 611.927H365.021H363.425L357.197 612.036L334.097 612.361L256.565 613.252H256.301V612.999C256.163 612.097 256.217 611.175 256.459 610.296C256.701 609.416 257.126 608.597 257.705 607.894C258.865 606.432 260.425 605.34 262.193 604.751C266.249 603.367 270.461 603.957 274.337 603.234C276.272 602.954 278.104 602.188 279.665 601.007C281.094 599.68 282.418 598.242 283.625 596.709C284.276 595.952 285.027 595.287 285.857 594.734C286.701 594.202 287.631 593.819 288.605 593.602C290.5 593.278 292.432 593.23 294.341 593.458C296.165 593.675 298.005 593.72 299.837 593.59C301.608 593.384 303.342 592.925 304.985 592.23C308.285 590.905 311.249 589.051 314.357 587.618C317.332 586.121 320.629 585.381 323.957 585.463C325.56 585.575 327.118 586.044 328.517 586.836C329.851 587.612 331.064 588.582 332.117 589.713C334.181 591.869 335.813 594.216 337.721 596.119C339.432 598.011 341.719 599.281 344.225 599.731C346.502 599.954 348.789 600.062 351.077 600.056C353.09 600.209 355.066 600.681 356.933 601.452C358.501 602.072 359.988 602.881 361.361 603.86C362.452 604.665 363.415 605.631 364.217 606.726C364.811 607.526 365.247 608.434 365.501 609.399C365.653 609.992 365.705 610.606 365.657 611.217C365.657 611.638 365.657 611.831 365.657 611.831C365.657 611.831 365.657 611.602 365.657 611.193C365.672 610.595 365.599 609.999 365.441 609.423C364.682 607.224 363.218 605.339 361.277 604.065C359.915 603.087 358.441 602.278 356.885 601.657C355.041 600.919 353.094 600.472 351.113 600.333C348.989 600.2 346.673 600.429 344.225 600.056C341.611 599.666 339.198 598.422 337.361 596.516C335.405 594.59 333.761 592.242 331.733 590.135C330.719 589.047 329.555 588.11 328.277 587.354C326.937 586.609 325.45 586.169 323.921 586.065C320.664 585.986 317.439 586.723 314.537 588.208C311.477 589.617 308.537 591.495 305.153 592.856C303.459 593.572 301.674 594.046 299.849 594.264C297.981 594.393 296.105 594.353 294.245 594.144C292.396 593.918 290.525 593.962 288.689 594.277C287.787 594.483 286.927 594.841 286.145 595.336C285.359 595.862 284.644 596.49 284.021 597.202C282.797 598.763 281.453 600.224 280.001 601.573C278.368 602.834 276.445 603.662 274.409 603.981C270.389 604.715 266.213 604.149 262.349 605.474C260.695 606.018 259.238 607.04 258.161 608.411C257.634 609.043 257.247 609.78 257.024 610.572C256.8 611.365 256.746 612.196 256.865 613.011L256.553 612.758L333.893 612.12L357.053 611.987H364.985C365.176 611.957 365.368 611.937 365.561 611.927Z" fill="#263238"/>
<path d="M254.584 324.786C255.28 319.681 248.104 315.491 242.716 315.046C240.136 314.841 237.472 315.238 235.036 314.383C229.756 312.541 227.644 305.702 222.496 303.547C218.644 301.922 214.204 303.379 210.496 305.257C206.788 307.135 203.08 309.519 198.904 309.784C195.304 310.013 191.344 308.664 188.104 310.446C185.704 311.771 184.504 314.504 182.32 316.117C180.136 317.73 177.4 318.031 174.76 318.176C172.12 318.32 169.372 318.344 166.96 319.452C164.548 320.56 162.556 323.064 163.06 325.725L254.584 324.786Z" fill="white"/>
<path d="M254.584 324.786H254.14H252.796L247.576 324.882L228.196 325.171L163.096 325.942H162.844V325.689C162.727 324.924 162.774 324.143 162.981 323.398C163.188 322.653 163.55 321.96 164.044 321.366C165.021 320.131 166.334 319.207 167.824 318.705C171.244 317.501 174.784 318.043 178.036 317.429C179.65 317.203 181.179 316.564 182.476 315.575C183.675 314.462 184.782 313.254 185.788 311.963C186.323 311.359 186.932 310.825 187.6 310.374C188.309 309.918 189.093 309.592 189.916 309.411C191.503 309.146 193.118 309.106 194.716 309.29C196.241 309.474 197.78 309.514 199.312 309.411C200.798 309.232 202.252 308.847 203.632 308.267C206.392 307.159 208.876 305.594 211.492 304.402C214.004 303.129 216.792 302.504 219.604 302.584C220.961 302.695 222.276 303.106 223.456 303.788C224.561 304.444 225.567 305.255 226.444 306.196C228.184 308.014 229.54 309.976 231.136 311.566C232.565 313.157 234.482 314.224 236.584 314.6C238.576 314.913 240.52 314.744 242.332 314.877C245.454 315.139 248.444 316.26 250.972 318.116C252.621 319.224 253.844 320.864 254.44 322.763C254.574 323.265 254.619 323.787 254.572 324.304C254.572 324.653 254.572 324.81 254.572 324.81C254.572 324.81 254.572 324.617 254.572 324.28C254.579 323.78 254.514 323.281 254.38 322.799C253.744 320.955 252.516 319.375 250.888 318.308C248.378 316.528 245.433 315.463 242.368 315.226C240.592 315.118 238.648 315.31 236.584 314.997C234.394 314.614 232.391 313.518 230.884 311.879C229.252 310.265 227.872 308.267 226.156 306.533C225.311 305.62 224.337 304.837 223.264 304.209C222.156 303.592 220.928 303.222 219.664 303.126C216.94 303.071 214.244 303.692 211.816 304.932C209.248 306.136 206.752 307.689 203.944 308.833C202.516 309.443 201.009 309.848 199.468 310.037C197.901 310.155 196.325 310.123 194.764 309.94C193.215 309.753 191.647 309.79 190.108 310.049C188.586 310.407 187.221 311.252 186.22 312.457C185.177 313.765 184.034 314.989 182.8 316.117C181.42 317.174 179.792 317.858 178.072 318.103C174.688 318.73 171.184 318.248 167.968 319.368C166.591 319.81 165.373 320.647 164.464 321.776C164.026 322.299 163.705 322.911 163.521 323.569C163.336 324.227 163.294 324.917 163.396 325.592L163.084 325.34L227.968 324.834L247.42 324.725H254.62L254.584 324.786Z" fill="#263238"/>
<path d="M581.728 191.876C582.268 187.867 576.628 184.568 572.392 184.219C570.364 184.062 568.276 184.363 566.392 183.701C562.24 182.244 560.584 176.862 556.54 175.152C553.504 173.876 550.024 175.008 547.084 176.501C544.144 177.994 541.252 179.848 537.976 180.053C535.12 180.233 531.976 179.174 529.576 180.57C527.716 181.618 526.744 183.761 525.028 185.037C523.244 186.137 521.181 186.697 519.088 186.651C517 186.598 514.92 186.937 512.956 187.65C511.06 188.529 509.5 190.528 509.896 192.586L581.728 191.876Z" fill="white"/>
<path d="M581.729 191.876H581.381H580.325L576.233 191.96L561.005 192.201L509.813 192.839H509.549V192.586C509.453 191.976 509.488 191.352 509.651 190.756C509.815 190.16 510.103 189.606 510.497 189.131C511.276 188.15 512.323 187.418 513.509 187.024C516.209 186.097 518.993 186.494 521.537 186.012C522.798 185.841 523.994 185.343 525.005 184.568C525.941 183.694 526.808 182.748 527.597 181.738C528.458 180.701 529.634 179.973 530.945 179.667C532.206 179.45 533.491 179.417 534.761 179.571C535.956 179.712 537.161 179.74 538.361 179.655C539.524 179.522 540.663 179.226 541.745 178.776C543.905 177.909 545.861 176.681 547.925 175.742C549.907 174.731 552.111 174.238 554.333 174.31C555.404 174.383 556.446 174.695 557.381 175.225C558.269 175.742 559.078 176.387 559.781 177.139C561.137 178.572 562.181 180.125 563.465 181.365C564.577 182.616 566.071 183.463 567.713 183.773C569.273 184.026 570.797 183.881 572.225 183.99C574.684 184.202 577.038 185.089 579.029 186.554C580.323 187.409 581.285 188.684 581.753 190.166C581.882 190.694 581.903 191.243 581.813 191.78C581.811 191.249 581.75 190.72 581.633 190.202C581.094 188.778 580.098 187.575 578.801 186.783C576.83 185.39 574.521 184.558 572.117 184.375C570.725 184.291 569.201 184.447 567.569 184.206C565.847 183.92 564.265 183.074 563.069 181.798C561.773 180.522 560.669 178.969 559.349 177.584C558.681 176.875 557.918 176.263 557.081 175.766C556.21 175.283 555.242 174.999 554.249 174.936C552.118 174.881 550.008 175.357 548.105 176.32C546.089 177.247 544.133 178.487 541.913 179.39C540.787 179.869 539.599 180.185 538.385 180.33C537.145 180.42 535.9 180.396 534.665 180.257C533.467 180.114 532.255 180.142 531.065 180.342C529.875 180.622 528.811 181.291 528.041 182.244C527.227 183.274 526.337 184.24 525.377 185.133C524.285 185.974 522.995 186.517 521.633 186.711C518.969 187.204 516.209 186.831 513.701 187.698C512.62 188.039 511.662 188.687 510.941 189.564C510.604 189.97 510.356 190.442 510.214 190.951C510.071 191.459 510.037 191.992 510.113 192.514L509.801 192.261L560.801 191.9H576.101H581.357L581.729 191.876Z" fill="#263238"/>
<path d="M372.507 403.504L371.643 423.297C371.643 423.297 391.407 430.834 391.611 434.507L353.283 434.206L353.367 403.299L372.507 403.504Z" fill="#455A64"/>
<path d="M359.811 421.539C359.441 421.649 359.124 421.891 358.921 422.219C358.717 422.548 358.641 422.94 358.707 423.321C358.801 423.696 359.035 424.021 359.362 424.227C359.688 424.433 360.081 424.506 360.459 424.429C360.859 424.323 361.205 424.07 361.428 423.72C361.65 423.369 361.733 422.947 361.659 422.539C361.52 422.159 361.24 421.847 360.878 421.67C360.515 421.493 360.098 421.463 359.715 421.587" fill="#E0E0E0"/>
<g opacity="0.6">
<path d="M353.283 434.205L353.415 431.087L390.111 432.544C390.111 432.544 391.815 433.302 391.611 434.506L353.283 434.205Z" fill="white"/>
</g>
<path d="M372.267 423.14C372.267 423.333 371.319 423.417 370.395 424.007C369.471 424.597 368.979 425.392 368.799 425.32C368.619 425.247 368.919 424.116 369.999 423.454C371.079 422.791 372.303 422.936 372.267 423.14Z" fill="#263238"/>
<path d="M376.276 424.814C376.276 424.994 375.508 425.307 374.86 426.09C374.212 426.873 374.032 427.715 373.84 427.715C373.648 427.715 373.54 426.644 374.356 425.669C375.172 424.693 376.276 424.633 376.276 424.814Z" fill="#263238"/>
<path d="M378.519 429.654C378.351 429.654 378.099 428.751 378.579 427.728C379.059 426.704 379.947 426.307 380.031 426.464C380.115 426.62 379.563 427.162 379.167 428.005C378.771 428.848 378.699 429.642 378.519 429.654Z" fill="#263238"/>
<path d="M371.968 418.577C371.884 418.746 371.032 418.481 369.964 418.577C368.896 418.674 368.08 418.975 367.984 418.806C367.888 418.638 368.692 417.988 369.94 417.927C371.188 417.867 372.052 418.433 371.968 418.577Z" fill="#263238"/>
<path d="M432.052 403.504L431.2 423.297C431.2 423.297 450.976 430.834 451.168 434.507L412.84 434.206L412.924 403.299L432.052 403.504Z" fill="#455A64"/>
<path d="M419.356 421.539C418.988 421.651 418.672 421.894 418.469 422.222C418.266 422.549 418.189 422.94 418.252 423.321C418.346 423.696 418.581 424.021 418.907 424.227C419.233 424.433 419.626 424.506 420.004 424.429C420.406 424.326 420.754 424.073 420.977 423.722C421.2 423.371 421.281 422.948 421.204 422.539C421.068 422.157 420.788 421.844 420.425 421.666C420.062 421.488 419.644 421.46 419.26 421.587" fill="#E0E0E0"/>
<g opacity="0.6">
<path d="M412.828 434.205L412.96 431.087L449.656 432.544C449.656 432.544 451.36 433.302 451.156 434.506L412.828 434.205Z" fill="white"/>
</g>
<path d="M431.812 423.14C431.812 423.333 430.864 423.417 429.94 424.007C429.016 424.597 428.524 425.392 428.356 425.32C428.188 425.247 428.464 424.116 429.556 423.454C430.648 422.791 431.86 422.936 431.812 423.14Z" fill="#263238"/>
<path d="M435.819 424.814C435.819 424.994 435.051 425.307 434.403 426.09C433.755 426.873 433.575 427.715 433.383 427.715C433.191 427.715 433.095 426.644 433.911 425.669C434.727 424.693 435.819 424.633 435.819 424.814Z" fill="#263238"/>
<path d="M438.064 429.654C437.896 429.654 437.644 428.751 438.136 427.728C438.628 426.704 439.492 426.307 439.576 426.464C439.66 426.62 439.108 427.162 438.724 428.005C438.34 428.848 438.256 429.642 438.064 429.654Z" fill="#263238"/>
<path d="M431.511 418.577C431.427 418.746 430.575 418.481 429.519 418.577C428.463 418.674 427.635 418.975 427.539 418.806C427.443 418.638 428.235 417.988 429.483 417.927C430.731 417.867 431.607 418.433 431.511 418.577Z" fill="#263238"/>
<path d="M353.464 143.5C352.02 139.831 350.892 136.044 350.092 132.182C349.294 128.303 349.472 124.285 350.608 120.491C350.788 119.925 352.42 116.109 353.008 116.145C353.428 116.145 352.468 119.757 352.696 120.082C354.758 123.614 355.703 127.69 355.408 131.773C355.199 135.73 354.547 139.652 353.464 143.464" fill="#263238"/>
<path d="M354.723 164.485L353.295 128.714C352.623 118.853 357.015 110.004 366.867 109.606H367.935C372.319 109.685 376.512 111.415 379.682 114.454C382.853 117.492 384.768 121.615 385.047 126.005C385.587 134.601 386.079 144.137 385.935 148.748C385.659 158.224 376.179 159.584 376.179 159.584C376.179 159.584 376.587 166.459 376.659 169.216C376.659 169.216 375.651 169.951 366.843 170.264C358.035 170.577 354.723 164.485 354.723 164.485Z" fill="#FFBF9D"/>
<path d="M376.18 159.548C371.836 159.451 367.61 158.11 364 155.684C364 155.684 366.88 162.631 376.324 161.944L376.18 159.548Z" fill="#FF9A6C"/>
<path d="M381.796 134.626C381.796 134.979 381.657 135.319 381.411 135.571C381.164 135.823 380.828 135.968 380.476 135.974C380.134 135.994 379.799 135.879 379.541 135.654C379.283 135.429 379.123 135.112 379.096 134.77C379.102 134.418 379.244 134.081 379.493 133.832C379.741 133.583 380.076 133.44 380.428 133.434C380.766 133.41 381.101 133.523 381.357 133.746C381.613 133.97 381.771 134.286 381.796 134.626Z" fill="#263238"/>
<path d="M382.659 131.243C382.491 131.423 381.459 130.641 380.019 130.617C378.579 130.592 377.499 131.303 377.343 131.122C377.187 130.942 377.439 130.737 377.907 130.4C378.545 129.973 379.3 129.754 380.067 129.774C380.821 129.789 381.552 130.042 382.155 130.496C382.599 130.845 382.743 131.17 382.659 131.243Z" fill="#263238"/>
<path d="M369.376 134.855C369.208 135.023 368.176 134.253 366.748 134.229C365.32 134.204 364.216 134.915 364.06 134.734C363.904 134.554 364.156 134.337 364.636 134.012C365.267 133.58 366.02 133.36 366.784 133.386C367.542 133.389 368.278 133.638 368.884 134.096C369.316 134.457 369.46 134.77 369.376 134.855Z" fill="#263238"/>
<path d="M373.804 142.729C374.584 142.494 375.391 142.364 376.204 142.343C376.576 142.343 376.924 142.247 376.996 141.994C377.035 141.61 376.956 141.224 376.768 140.887L375.724 138.033C374.732 135.611 373.93 133.115 373.324 130.568C374.492 132.894 375.471 135.309 376.252 137.792L377.26 140.658C377.484 141.109 377.54 141.626 377.416 142.115C377.363 142.247 377.28 142.364 377.174 142.458C377.068 142.552 376.941 142.62 376.804 142.657C376.595 142.702 376.382 142.726 376.168 142.729C375.384 142.833 374.589 142.833 373.804 142.729Z" fill="#263238"/>
<path d="M369.448 130.965C369.268 131.351 367.84 131.037 366.124 131.086C364.408 131.134 362.992 131.483 362.8 131.086C362.716 130.917 362.992 130.568 363.58 130.231C364.361 129.828 365.223 129.61 366.101 129.593C366.979 129.576 367.849 129.761 368.644 130.134C369.244 130.448 369.532 130.785 369.448 130.965Z" fill="#263238"/>
<path d="M383.199 125.752C382.983 126.138 381.771 126.053 380.403 126.33C379.035 126.607 377.919 127.101 377.583 126.824C377.427 126.679 377.583 126.318 377.979 125.909C378.589 125.369 379.337 125.011 380.139 124.873C380.939 124.709 381.769 124.768 382.539 125.042C383.091 125.307 383.319 125.608 383.199 125.752Z" fill="#263238"/>
<path d="M353.943 135.685C353.775 135.613 347.475 133.65 347.571 140.128C347.667 146.605 354.135 145.185 354.147 145.004C354.159 144.823 353.943 135.685 353.943 135.685Z" fill="#FFBF9D"/>
<path d="M351.999 142.609C351.999 142.609 351.879 142.693 351.687 142.777C351.554 142.834 351.411 142.863 351.267 142.863C351.122 142.863 350.979 142.834 350.847 142.777C350.427 142.516 350.083 142.148 349.851 141.71C349.62 141.272 349.507 140.78 349.527 140.285C349.5 139.728 349.599 139.173 349.815 138.66C349.875 138.457 349.983 138.271 350.129 138.119C350.275 137.966 350.455 137.85 350.655 137.781C350.782 137.745 350.918 137.756 351.039 137.811C351.16 137.866 351.257 137.962 351.315 138.082C351.411 138.262 351.315 138.395 351.411 138.407C351.507 138.419 351.543 138.298 351.483 138.021C351.444 137.865 351.356 137.725 351.231 137.624C351.051 137.492 350.827 137.436 350.607 137.468C350.334 137.515 350.078 137.635 349.867 137.815C349.656 137.995 349.497 138.228 349.407 138.491C349.136 139.057 349.009 139.682 349.035 140.309C349.011 140.887 349.159 141.459 349.46 141.952C349.762 142.445 350.202 142.837 350.727 143.078C350.899 143.126 351.08 143.135 351.257 143.104C351.433 143.073 351.601 143.002 351.747 142.898C351.999 142.753 351.999 142.609 351.999 142.609Z" fill="#FF9A6C"/>
<path d="M380.619 115.53C381.651 114.916 378.435 111.593 375.819 110.486C371.895 108.812 365.931 107.861 362.379 108.957C358.095 110.293 354.555 112.569 352.479 116.518C350.494 120.578 349.617 125.094 349.935 129.605C349.912 130.987 350.256 132.35 350.931 133.554C351.867 134.963 353.619 135.83 353.595 137.804C353.58 138.163 353.636 138.521 353.759 138.858C353.883 139.195 354.072 139.504 354.315 139.767C355.515 140.971 356.943 139.767 357.579 138.563C358.947 135.998 359.031 132.952 359.091 130.039C359.24 127.971 359.053 125.894 358.539 123.886C358.191 122.815 357.663 121.803 357.339 120.708C357.161 120.171 357.102 119.602 357.166 119.041C357.23 118.479 357.416 117.939 357.711 117.457C357.866 117.261 358.038 117.079 358.227 116.915C359.111 116.106 360.193 115.547 361.364 115.295C362.534 115.043 363.75 115.108 364.887 115.482C368.559 116.686 374.823 118.468 376.419 117.192C377.56 116.4 378.521 115.374 379.239 114.182L380.619 115.53Z" fill="#263238"/>
<path d="M374.799 146.666C374.799 146.774 374.475 146.991 373.827 147.063C372.973 147.148 372.113 146.994 371.343 146.618C370.549 146.281 369.867 145.726 369.375 145.017C369.027 144.463 368.967 144.053 369.063 144.005C369.159 143.957 370.059 145.209 371.643 145.908C373.227 146.606 374.691 146.425 374.799 146.666Z" fill="#263238"/>
<path d="M464.8 130.881C464.8 130.881 464.548 129.364 463.804 129.364C463.302 129.362 462.809 129.503 462.384 129.772C461.959 130.041 461.619 130.426 461.404 130.881C460.888 131.989 464.8 130.881 464.8 130.881Z" fill="#FFBF9D"/>
<path d="M445.719 155.022L446.463 143.066L448.863 130.749C448.863 130.749 450.735 128.75 451.731 129.208C452.727 129.666 452.355 131.327 452.355 131.327C452.355 131.327 454.971 128.486 455.955 129.136C456.939 129.786 456.579 131.327 456.579 131.327C456.579 131.327 458.979 128.173 460.071 129.039C461.163 129.906 460.071 131.327 460.071 131.327C460.071 131.327 461.547 145.113 460.803 150.049C460.578 151.488 460.012 152.852 459.154 154.027C458.296 155.203 457.17 156.154 455.871 156.804L453.891 164.557L444.135 159.236L445.719 155.022Z" fill="#FFBF9D"/>
<path d="M451.683 139.369L398.715 138.779V134.529L451.683 133.036V139.369Z" fill="#2C296C"/>
<path d="M507.616 143.583L432.772 140.417C431.839 137.731 431.839 134.807 432.772 132.121L507.172 128.822C510.52 132.398 510.556 139.911 507.616 143.583Z" fill="#2C296C"/>
<path d="M506.895 129.509C506.895 129.509 504.639 131.628 504.723 136.239C504.807 140.85 507.123 142.789 507.123 142.789C508.747 140.754 509.502 138.157 509.223 135.565C508.827 131.05 506.895 129.509 506.895 129.509Z" fill="#E0E0E0"/>
<path d="M503.895 143.583C503.284 143.092 502.788 142.471 502.443 141.765C501.467 140.115 500.956 138.23 500.967 136.311C500.965 134.407 501.413 132.53 502.275 130.833C502.597 130.106 503.101 129.475 503.739 129.003C503.823 129.003 503.247 129.749 502.671 131.026C501.967 132.703 501.6 134.503 501.591 136.323C501.579 138.139 501.99 139.932 502.791 141.561C503.198 142.213 503.566 142.888 503.895 143.583Z" fill="#263238"/>
<path d="M507.232 128.991C507.316 129.063 506.764 129.762 506.164 131.038C505.379 132.693 504.989 134.509 505.024 136.342C505.059 138.174 505.519 139.974 506.368 141.597C506.689 142.281 507.142 142.895 507.7 143.403C507.7 143.403 507.448 143.403 507.1 143.15C506.642 142.784 506.263 142.33 505.984 141.814C504.978 140.168 504.428 138.282 504.393 136.351C504.357 134.421 504.836 132.516 505.78 130.833C506.111 130.113 506.609 129.481 507.232 128.991Z" fill="#263238"/>
<path d="M508.204 132.844C508.119 132.602 507.984 132.38 507.808 132.194C507.721 132.099 507.612 132.027 507.491 131.984C507.369 131.942 507.239 131.932 507.112 131.953C506.986 131.984 506.87 132.048 506.777 132.139C506.684 132.23 506.617 132.345 506.584 132.471C506.522 132.722 506.552 132.987 506.668 133.217C506.944 133.759 507.388 134.265 507.364 134.807C507.34 135.348 507.22 135.89 507.256 136.432C507.266 136.629 507.328 136.82 507.436 136.986C507.489 137.071 507.564 137.139 507.653 137.184C507.742 137.228 507.841 137.247 507.94 137.239C508.264 137.239 508.42 136.829 508.492 136.516C508.776 135.292 508.675 134.009 508.204 132.844Z" fill="white"/>
<path d="M432.759 140.682C431.972 139.39 431.615 137.881 431.739 136.372C431.675 134.855 432.096 133.358 432.939 132.098C433.119 132.17 432.423 134.012 432.399 136.384C432.375 138.756 432.939 140.622 432.759 140.682Z" fill="#263238"/>
<path d="M398.607 139.791C398.393 139.791 398.189 139.706 398.038 139.555C397.887 139.404 397.803 139.198 397.803 138.984V134.481C397.803 134.268 397.887 134.062 398.038 133.911C398.189 133.76 398.393 133.675 398.607 133.675C398.821 133.675 399.027 133.759 399.18 133.91C399.332 134.061 399.42 134.266 399.423 134.481V138.996C399.416 139.209 399.328 139.412 399.175 139.56C399.023 139.708 398.819 139.791 398.607 139.791Z" fill="#FAA21E"/>
<path d="M398.607 139.791C398.607 139.791 398.823 139.791 399.039 139.514C399.167 139.387 399.241 139.213 399.243 139.032C399.243 138.755 399.243 138.478 399.243 138.189C399.243 137.467 399.243 136.72 399.183 135.95C399.183 135.516 399.183 135.083 399.183 134.626C399.201 134.549 399.201 134.47 399.184 134.393C399.168 134.317 399.134 134.245 399.085 134.184C399.037 134.122 398.975 134.073 398.904 134.039C398.834 134.005 398.757 133.987 398.679 133.987C398.601 133.989 398.525 134.008 398.456 134.043C398.386 134.078 398.326 134.127 398.277 134.188C398.229 134.249 398.195 134.32 398.177 134.395C398.16 134.471 398.159 134.549 398.175 134.626C398.175 135.083 398.175 135.516 398.175 135.95C398.175 136.753 398.151 137.499 398.103 138.189V139.032C398.101 139.121 398.118 139.21 398.15 139.292C398.183 139.375 398.232 139.45 398.294 139.514C398.51 139.73 398.739 139.743 398.727 139.791C398.715 139.839 398.499 139.923 398.139 139.706C398.033 139.634 397.944 139.539 397.878 139.429C397.812 139.319 397.77 139.196 397.755 139.068C397.755 138.779 397.755 138.49 397.755 138.189C397.755 137.467 397.754 136.72 397.694 135.95C397.694 135.516 397.694 135.083 397.694 134.626C397.666 134.319 397.757 134.013 397.947 133.771C398.052 133.643 398.184 133.54 398.333 133.47C398.482 133.399 398.645 133.362 398.811 133.361C398.977 133.365 399.141 133.403 399.291 133.474C399.442 133.544 399.577 133.645 399.686 133.771C399.872 134.015 399.958 134.32 399.927 134.626C399.927 135.083 399.927 135.516 399.927 135.95C399.927 136.753 399.903 137.499 399.855 138.189C399.855 138.49 399.855 138.779 399.855 139.068C399.835 139.196 399.79 139.319 399.722 139.428C399.654 139.538 399.564 139.633 399.458 139.706C398.798 139.923 398.595 139.815 398.607 139.791Z" fill="#263238"/>
<path d="M407.811 148.701C407.811 148.701 406.683 134.746 407.019 133.518C407.355 132.29 411.183 127.98 412.527 127.835C413.871 127.691 414.015 129.184 414.015 129.184C415.133 128.438 416.412 127.971 417.747 127.823C418.257 127.773 418.768 127.917 419.177 128.227C419.586 128.537 419.864 128.991 419.955 129.497C420.845 128.962 421.908 128.794 422.919 129.027C423.711 129.172 424.623 130.569 424.623 130.569C424.623 130.569 426.579 129.726 427.515 130.569C428.279 131.413 428.706 132.51 428.715 133.651C427.468 133.643 426.25 134.03 425.235 134.758C425.008 137.799 424.596 140.823 423.999 143.812C423.255 146.798 420.303 149.279 419.307 150.82L418.527 161.138L405.879 154.444L407.811 148.701Z" fill="#FFBF9D"/>
<path d="M410.655 134.566C410.573 133.924 410.624 133.272 410.803 132.651C410.983 132.03 411.288 131.452 411.699 130.954C412.023 130.391 412.46 129.903 412.983 129.519C413.506 129.135 414.103 128.866 414.735 128.727C413.824 129.516 412.98 130.382 412.215 131.315C411.612 132.357 411.091 133.444 410.655 134.566Z" fill="#FF9A6C"/>
<path d="M416.8 134.325C416.621 133.771 416.575 133.181 416.667 132.606C416.759 132.03 416.986 131.485 417.328 131.014C417.758 130.29 418.417 129.73 419.2 129.425C419.8 129.22 420.196 129.268 420.208 129.34C420.22 129.413 418.744 129.822 417.868 131.351C417.412 132.303 417.054 133.3 416.8 134.325Z" fill="#FF9A6C"/>
<path d="M421.383 133.867C421.215 133.867 421.491 132.506 422.679 131.459C423.867 130.411 425.187 130.255 425.199 130.399C425.211 130.544 424.131 130.965 423.099 131.928C422.067 132.892 421.599 133.927 421.383 133.867Z" fill="#FF9A6C"/>
<path d="M453.76 152.132C455.872 149.64 454.264 142.934 454.264 142.934C455.15 142.617 455.95 142.096 456.598 141.412C457.246 140.728 457.725 139.901 457.996 138.997C458.74 135.999 457.252 135.493 457.252 135.493C456.748 135.746 452.14 138.744 449.776 139.996C447.412 141.248 446.668 153.963 446.668 153.963" fill="#FFBF9D"/>
<path d="M446.668 153.914C446.606 153.358 446.606 152.797 446.668 152.241C446.728 151.169 446.836 149.628 447.064 147.714C447.283 145.457 447.783 143.236 448.552 141.104C448.689 140.79 448.858 140.492 449.056 140.213C449.28 139.918 449.573 139.683 449.908 139.526C450.484 139.213 451.108 138.876 451.648 138.527L455.248 136.3C455.872 135.914 456.447 135.541 457.095 135.168L457.216 135.096L457.336 135.156C457.578 135.274 457.792 135.442 457.963 135.65C458.135 135.857 458.261 136.1 458.331 136.36C458.471 136.803 458.524 137.269 458.488 137.732C458.439 138.964 458.015 140.151 457.272 141.133C456.529 142.115 455.505 142.844 454.336 143.223L454.504 142.91C455.043 145.172 455.156 147.516 454.84 149.821C454.727 150.463 454.508 151.081 454.192 151.651C454.07 151.845 453.921 152.019 453.748 152.168C453.822 151.956 453.923 151.754 454.048 151.566C454.303 150.997 454.473 150.392 454.552 149.772C454.747 147.514 454.56 145.238 454 143.042L453.94 142.813L454.168 142.729C455.508 142.212 456.62 141.229 457.3 139.96C457.645 139.257 457.841 138.491 457.876 137.708C457.942 137.35 457.908 136.979 457.777 136.639C457.645 136.299 457.422 136.002 457.131 135.782H457.372C456.808 136.107 456.172 136.516 455.584 136.89C454.384 137.66 453.184 138.407 451.984 139.117C451.396 139.466 450.784 139.803 450.22 140.116C449.955 140.228 449.723 140.406 449.548 140.634C449.365 140.869 449.215 141.128 449.104 141.405C448.326 143.477 447.799 145.636 447.531 147.834C447.243 149.724 447.063 151.265 446.931 152.325C446.892 152.862 446.804 153.394 446.668 153.914Z" fill="#FF9A6C"/>
<path d="M354.759 263.718C354.759 263.718 356.235 324.316 354.759 331.708C353.283 339.101 350.799 369.646 350.799 392.306C350.799 414.965 351.747 420.13 351.747 420.13H373.671C373.671 420.13 375.231 377.051 381.999 352.104C388.287 328.951 395.523 293.746 395.523 278.479V257.807H356.727L354.759 263.718Z" fill="#263238"/>
<path d="M407.799 257.807C407.799 257.807 430.803 321.859 432.279 340.582C433.755 359.304 433.815 420.13 433.815 420.13H411.111L408.087 346.686L390.615 299.08V257.807H407.799Z" fill="#263238"/>
<path d="M395.524 292.302C395.479 292.887 395.383 293.467 395.236 294.036C395.008 295.24 394.696 296.853 394.324 298.755C393.544 302.861 392.5 308.315 391.36 314.335C390.22 320.355 389.08 325.929 388.204 329.891C387.76 331.877 387.376 333.503 387.088 334.574C386.971 335.155 386.799 335.724 386.572 336.272C386.616 335.682 386.712 335.098 386.86 334.526C387.088 333.322 387.4 331.709 387.76 329.806C388.552 325.701 389.584 320.247 390.736 314.215C391.888 308.183 393.016 302.632 393.892 298.671C394.336 296.684 394.72 295.059 395.008 293.987C395.121 293.409 395.294 292.844 395.524 292.302Z" fill="#455A64"/>
<path d="M416.511 286.089H421.371C421.371 286.089 422.487 269.233 419.679 257.807C416.871 246.381 402.519 196.788 402.519 196.788L386.631 170.493L378.111 166.688L406.095 260.829L416.511 286.089Z" fill="#455A64"/>
<path opacity="0.3" d="M398.8 204.302C398.8 204.302 413.512 248.043 415.948 259.505C417.64 268.296 418.874 277.169 419.644 286.089H416.5L404.944 255.556C404.944 255.556 392.944 207.011 393.46 207.131C393.976 207.252 398.8 204.302 398.8 204.302Z" fill="black"/>
<path d="M351.4 165.629L352.72 157.201L376.192 167.772V162.679L386.56 180.041L409.36 245.057C410.092 247.068 410.98 253.738 409.648 255.411L407.788 257.819L383.068 261.034L359.632 176.092L351.4 165.629Z" fill="#E0E0E0"/>
<path opacity="0.3" d="M355.287 292.301C355.287 292.301 386.679 295.829 393.111 293.264C394.965 292.505 396.575 291.249 397.764 289.633C398.954 288.017 399.677 286.103 399.855 284.102C399.855 284.102 402.999 261.744 402.783 256.807C402.42 252.242 401.738 247.708 400.743 243.238L355.227 288.352L355.287 292.301Z" fill="black"/>
<path d="M378.928 175.345C378.928 175.345 389.656 211.995 389.572 212.26C389.488 212.525 401.464 249.764 401.464 249.764L403.864 238.555L387.184 182.702L380.476 174.454L378.928 175.345Z" fill="#FAA21E"/>
<path d="M344.427 169.096C333.423 175.827 332.859 186.265 337.755 198.233C338.559 200.22 340.155 203.627 341.211 205.939C345.939 216.04 355.767 232.523 355.767 236.376C355.767 245.454 347.667 287.558 347.667 287.558C347.667 287.558 391.563 292.904 395.523 288.762C399.483 284.62 402.531 258.662 401.259 247.055C399.855 234.245 393.279 212.573 390.615 204.554C389.007 199.738 383.715 187.698 377.415 179.848C372.695 173.957 367.078 168.849 360.771 164.714L351.423 158.573L349.503 165.075C347.946 166.578 346.246 167.925 344.427 169.096Z" fill="#455A64"/>
<path d="M387.148 171.974C388.06 171.974 428.176 185.122 425.848 184.159L426.928 183.027L441.328 161.162L454.528 169C454.528 169 441.484 194.055 439.324 197.992C438.291 199.919 436.754 201.526 434.879 202.642C433.003 203.758 430.861 204.34 428.68 204.326C425.74 204.326 400.612 200.099 400.612 200.099L387.148 171.974Z" fill="#455A64"/>
<path d="M403.287 156.923L406.395 151.409L420.363 159.392L418.191 165.46L403.287 156.923Z" fill="#E0E0E0"/>
<path opacity="0.3" d="M341.836 198.606C341.836 198.606 368.8 213.644 377.38 215.679C385.96 217.714 395.524 220.423 395.524 220.423L391.672 208.118L368.236 193.826L341.836 198.606Z" fill="black"/>
<path d="M341.835 198.607C341.499 198.354 382.287 212.91 390.603 210.286C398.919 207.661 401.607 199.45 404.583 194.309C410.019 185.002 419.655 166.484 419.655 166.484L402.399 156.575L385.215 185.471C385.215 185.471 354.795 172.877 351.999 172.059C349.203 171.24 340.551 170.108 336.327 180.258C331.599 191.491 341.835 198.607 341.835 198.607Z" fill="#455A64"/>
<path d="M341.835 198.606C341.722 198.558 341.617 198.493 341.523 198.414C341.331 198.269 341.043 198.04 340.683 197.727C339.631 196.809 338.688 195.77 337.875 194.633C336.535 192.812 335.617 190.715 335.187 188.493C335.06 187.817 334.983 187.133 334.959 186.446C334.959 185.736 335.031 185.001 335.055 184.231C335.079 183.46 335.319 182.714 335.559 181.943C335.799 181.151 336.088 180.375 336.423 179.619C337.13 177.964 338.112 176.441 339.327 175.116C340.671 173.671 342.354 172.586 344.223 171.962C346.245 171.292 348.398 171.122 350.499 171.468C351.6 171.642 352.676 171.949 353.703 172.383L356.883 173.587C365.451 176.97 374.991 180.883 385.275 185.122L384.915 185.242L402.087 156.346L402.243 156.081L402.507 156.238L408.735 159.85L419.811 166.195L420.075 166.339L419.931 166.604C416.535 173.106 413.187 179.403 409.899 185.41C408.243 188.421 406.611 191.358 404.955 194.212C403.299 197.065 402.027 199.991 400.299 202.64C398.686 205.284 396.469 207.504 393.831 209.117C392.552 209.875 391.157 210.416 389.703 210.719C388.288 210.881 386.858 210.881 385.443 210.719C380.375 210.058 375.362 209.028 370.443 207.636C361.419 205.228 354.291 202.82 349.395 201.231C344.499 199.642 341.835 198.606 341.835 198.606C342.008 198.622 342.178 198.662 342.339 198.727L343.803 199.184L349.455 201.014C354.387 202.567 361.527 204.867 370.539 207.227C375.444 208.589 380.441 209.591 385.491 210.225C386.867 210.382 388.255 210.382 389.631 210.225C391.017 209.921 392.346 209.397 393.567 208.672C396.128 207.091 398.275 204.92 399.831 202.339C401.535 199.75 402.807 196.8 404.463 193.911C406.119 191.021 407.727 188.132 409.371 185.134C412.647 179.114 415.995 172.817 419.379 166.315L419.511 166.736L408.399 160.415L402.183 156.803L402.603 156.695C396.531 166.857 390.723 176.609 385.395 185.591L385.263 185.808L385.035 185.712C374.799 181.461 365.199 177.524 356.703 174.093L353.535 172.889C352.541 172.456 351.497 172.148 350.427 171.974C348.397 171.633 346.314 171.786 344.355 172.419C342.549 173.016 340.92 174.055 339.615 175.441C338.425 176.72 337.456 178.189 336.747 179.788C336.412 180.528 336.124 181.288 335.883 182.063C335.643 182.81 335.547 183.58 335.379 184.303C335.211 185.025 335.223 185.76 335.259 186.458C335.276 187.132 335.345 187.805 335.463 188.469C335.865 190.66 336.741 192.735 338.031 194.549C338.821 195.69 339.735 196.74 340.755 197.679C341.091 198.004 341.367 198.233 341.559 198.39L341.835 198.606Z" fill="#263238"/>
<path d="M361.443 260.287L365.223 252.605L391.671 253.075L388.731 261.021L361.443 260.287Z" fill="#455A64"/>
<path d="M361.443 260.288H363.591H369.351C374.235 260.36 380.991 260.456 388.743 260.649L388.443 260.853C389.343 258.445 390.279 255.881 391.251 253.268L391.383 252.907L391.671 253.328C381.015 253.136 371.511 252.931 365.271 252.751L365.451 252.642L362.547 258.193C362.223 258.807 361.959 259.3 361.755 259.71C361.664 259.897 361.56 260.078 361.443 260.251C361.443 260.251 361.443 260.095 361.647 259.758C361.851 259.421 362.067 258.867 362.343 258.253L365.043 252.486V252.365H365.199C371.487 252.365 380.991 252.534 391.599 252.726H392.043L391.887 253.136L391.755 253.497L388.947 261.07L388.863 261.275H388.647C380.751 261.046 373.863 260.781 369.015 260.589L363.351 260.36L361.863 260.288C361.724 260.298 361.583 260.298 361.443 260.288Z" fill="#263238"/>
<path d="M379.095 182.051C379.011 182.208 372.315 178.512 364.131 173.804C355.947 169.096 349.395 165.159 349.479 165.015C349.563 164.87 356.259 168.555 364.443 173.262C372.627 177.97 379.191 181.907 379.095 182.051Z" fill="#263238"/>
<path d="M388.24 239.988C388.24 240.156 381.868 239.891 374.02 239.386C366.172 238.88 359.812 238.338 359.824 238.182C359.836 238.025 366.208 238.278 374.056 238.784C381.904 239.289 388.252 239.819 388.24 239.988Z" fill="#263238"/>
<path d="M442.203 161.752L444.867 157.249L455.427 163.438L453.375 168.326L442.203 161.752Z" fill="#E0E0E0"/>
<path d="M428.608 193.405C427.446 192.234 426.564 190.814 426.028 189.252C425.491 187.69 425.315 186.027 425.512 184.387C425.692 184.387 425.752 186.554 426.616 189.046C427.48 191.538 428.8 193.296 428.608 193.405Z" fill="#263238"/>
<path d="M402.771 197.703C403.792 200.139 404.623 202.651 405.255 205.216C406.089 207.726 406.719 210.298 407.14 212.91C406.123 210.472 405.293 207.961 404.655 205.397C403.822 202.887 403.192 200.314 402.771 197.703Z" fill="#263238"/>
<path d="M386.572 194.561C385.502 193.308 384.793 191.786 384.52 190.159C384.247 188.532 384.421 186.861 385.024 185.326C384.945 186.904 384.985 188.486 385.144 190.058C385.505 191.593 385.983 193.098 386.572 194.561Z" fill="#263238"/>
<path opacity="0.3" d="M363.568 260.335L363.1 262.659L390.484 263.43L391.672 253.075L388.732 261.022L363.568 260.335Z" fill="black"/>
<path d="M375.615 172.889L375.903 173.203L378.927 175.346L380.439 174.491L379.455 171.132L376.263 168.724L375.615 172.889Z" fill="#FAA21E"/>
<path d="M379.695 168.723C380.023 169.664 380.252 170.637 380.379 171.625L380.475 172.143L380.031 171.83C378.975 171.083 377.631 170.096 376.083 168.964L376.563 168.772C376.419 169.723 376.263 170.722 376.107 171.758C375.999 172.384 375.903 172.962 375.819 173.576L375.747 173.997L375.375 173.804C373.071 172.673 371.067 171.661 369.639 170.903C368.846 170.547 368.093 170.107 367.395 169.59C368.228 169.815 369.033 170.134 369.795 170.541C371.271 171.192 373.323 172.143 375.627 173.25L375.195 173.479L375.471 171.661C375.639 170.626 375.795 169.626 375.951 168.687L376.035 168.182L376.431 168.483C377.943 169.687 379.275 170.686 380.283 171.493L379.935 171.697C379.755 170.717 379.675 169.72 379.695 168.723Z" fill="#263238"/>
</svg>
