<svg width="952" height="750" viewBox="0 0 952 750" fill="none" xmlns="http://www.w3.org/2000/svg">
<path d="M584 50C584 22.3858 606.386 0 634 0H952V750H634C606.386 750 584 727.614 584 700V50Z" fill="#2C2A6C"/>
<path d="M0 122.934C0 98.2395 18.0283 77.2435 42.4389 73.5091L470.813 7.97629C481.33 6.36747 492.085 8.15502 501.516 13.079L794.469 166.037C813.345 175.892 823.908 196.622 820.787 217.686L759.35 632.386C755.295 659.763 729.772 678.637 702.408 674.496L405.559 629.568C400.877 628.86 396.117 628.82 391.424 629.45L56.6532 674.395C26.6646 678.422 0 655.098 0 624.84V122.934Z" fill="#FAA21E"/>
<path d="M220.984 587.378C245.704 570.052 251.32 537.894 250.336 508.974C250.168 504.158 250.696 499.065 248.416 494.826C246.136 490.588 240.784 487.699 236.416 489.734C232.816 491.419 231.292 495.597 229.288 499.04C226.624 503.65 222.713 507.407 218.008 509.877C214.948 511.466 211.168 512.441 208.144 510.767C203.992 508.48 203.5 502.725 203.536 497.921C203.584 488.979 203.636 480.033 203.692 471.084C203.692 466.268 203.692 461.391 202.252 456.828C200.812 452.265 197.452 448.051 192.928 446.763C188.404 445.475 182.752 448.123 181.792 452.783C181.384 454.733 181.792 456.768 181.648 458.803C181.504 460.838 180.592 463.005 178.708 463.619C176.824 464.233 174.88 462.824 173.452 461.416C168.52 456.6 165.172 450.327 162.04 444.114C158.908 437.901 155.872 431.556 151.384 426.271C146.896 420.985 140.704 416.795 133.864 416.41C127.024 416.025 119.704 420.263 117.976 427.005C116.248 433.748 120.172 440.634 124.456 446.113C130.847 454.213 138.373 461.342 146.8 467.279C148.3 468.363 149.944 469.518 150.52 471.3C151.552 474.491 148.528 477.67 145.384 478.729C141.784 479.933 137.956 479.548 134.224 479.933C130.492 480.318 126.4 482.136 124.996 485.616C123.028 490.564 127.12 495.657 131.2 498.992C139.262 505.73 148.42 511.024 158.272 514.644C161.8 515.945 165.472 517.052 168.34 519.557C171.208 522.061 166.768 530.814 165.052 534.197C163.336 537.581 165.052 534.197 161.368 533.511C157.684 532.825 154.384 530.814 150.868 529.49C144.304 526.997 135.808 527.455 131.596 533.102C128.836 536.846 128.584 542.071 129.988 546.538C131.392 551.005 134.224 554.846 137.188 558.398C147.724 570.799 161.188 580.78 176.464 586.09C191.74 591.399 205.84 592.832 220.996 587.294" fill="#EBEBEB"/>
<path d="M221.368 608.809C220.027 595.406 217.411 582.161 213.556 569.258C208.77 553.509 203.088 538.049 196.54 522.952L191.452 511.032C189.772 507.131 188.116 503.254 186.256 499.57C182.686 492.505 178.728 485.643 174.4 479.018C170.296 472.661 166.18 466.773 162.292 461.295C158.404 455.817 154.648 450.808 151.048 446.365C145.387 439.345 139.18 432.787 132.484 426.752C130.084 424.609 128.236 423.008 126.952 421.936L125.476 420.732C125.315 420.581 125.138 420.448 124.948 420.335C125.087 420.505 125.244 420.658 125.416 420.792L126.832 422.069C128.032 423.176 129.928 424.814 132.256 426.993C138.828 433.124 144.936 439.736 150.532 446.775C154.132 451.23 157.732 456.262 161.656 461.741C165.58 467.219 169.612 473.118 173.656 479.475C177.961 486.077 181.903 492.91 185.464 499.943C187.312 503.555 188.956 507.444 190.624 511.369L195.7 523.265C202.258 538.339 207.967 553.77 212.8 569.486C216.68 582.335 219.348 595.52 220.768 608.869" fill="#4B4B4B"/>
<path d="M186.004 499.546C186.236 498.884 186.393 498.197 186.472 497.499C186.724 496.175 187.024 494.248 187.36 491.852C188.032 487.036 188.74 480.439 189.496 473.13C190.252 465.822 191.056 459.26 191.8 454.444C192.172 452.036 192.484 450.146 192.724 448.809C192.889 448.127 192.978 447.429 192.988 446.727C192.719 447.374 192.518 448.048 192.388 448.737C192.052 450.05 191.632 451.964 191.188 454.336C190.288 459.08 189.376 465.702 188.632 473.022C187.888 480.342 187.24 486.784 186.736 491.768C186.496 494.02 186.292 495.91 186.136 497.439C186.013 498.134 185.969 498.841 186.004 499.546Z" fill="#4B4B4B"/>
<path d="M124.504 488.012C125.293 488.186 126.096 488.287 126.904 488.313C128.488 488.445 130.768 488.638 133.588 488.975C139.216 489.577 146.968 490.697 155.464 492.298C163.96 493.899 171.592 495.717 177.064 497.186C179.812 497.896 182.02 498.523 183.544 498.956C184.323 499.229 185.127 499.426 185.944 499.546C185.207 499.164 184.436 498.853 183.64 498.619C182.14 498.089 179.956 497.415 177.232 496.572C171.772 494.947 164.14 493.056 155.632 491.419C147.124 489.782 139.312 488.794 133.648 488.337C130.816 488.096 128.512 488 126.928 487.963C126.12 487.907 125.309 487.923 124.504 488.012Z" fill="#4B4B4B"/>
<path d="M212.8 568.113C212.8 568.113 212.98 567.873 213.232 567.367L214.276 565.127C215.188 563.189 216.424 560.311 217.876 556.808C220.84 549.74 224.632 539.843 228.676 528.875C232.72 517.907 236.416 507.974 239.224 500.858L242.584 492.43C242.944 491.515 243.244 490.756 243.484 490.13C243.608 489.87 243.696 489.595 243.748 489.312C243.577 489.541 243.436 489.792 243.328 490.058L242.272 492.285C241.372 494.236 240.136 497.101 238.672 500.617C235.708 507.685 231.916 517.581 227.872 528.562C223.828 539.542 220.144 549.451 217.324 556.567C215.944 560.035 214.816 562.876 213.964 564.995C213.604 565.91 213.304 566.669 213.064 567.295C212.947 567.557 212.858 567.832 212.8 568.113Z" fill="#4B4B4B"/>
<path d="M131.068 541.686C131.323 541.837 131.597 541.951 131.884 542.023L134.284 542.829L143.044 545.671C150.424 548.079 160.6 551.51 171.844 555.303C183.088 559.095 193.276 562.467 200.728 564.718C204.448 565.85 207.46 566.729 209.56 567.295L211.96 567.933C212.235 568.028 212.522 568.081 212.812 568.089C212.56 567.942 212.29 567.829 212.008 567.752L209.608 566.958L200.86 564.116C193.468 561.708 183.304 558.277 172.06 554.484C160.816 550.691 150.628 547.32 143.2 545.069C139.48 543.937 136.456 543.058 134.356 542.492L131.956 541.854C131.667 541.766 131.37 541.709 131.068 541.686Z" fill="#4B4B4B"/>
<path d="M523.84 165.941L457.792 327.771L576.364 375.546L641.404 214.776L523.84 165.941Z" fill="#E6E6E6"/>
<path d="M523.84 165.941L641.44 214.643H641.572L641.512 214.776C623.248 259.95 600.784 315.538 576.508 375.57L576.448 375.726H576.28L575.416 375.377L457.72 327.928H457.576L457.636 327.783L523.84 165.941L457.936 327.831L457.852 327.627L575.56 375.04L576.424 375.389L576.196 375.486C600.496 315.466 622.996 259.902 641.272 214.715L641.344 214.896L523.84 165.941Z" fill="#E6E6E6"/>
<path d="M515.188 150.494L449.14 312.324L567.712 360.111L632.752 199.328L515.188 150.494Z" fill="#FAFAFA"/>
<path d="M515.201 150.494L632.801 199.196H632.933V199.328L567.869 360.171L567.809 360.339L567.653 360.267L566.789 359.918L449.081 312.48L448.937 312.42L448.997 312.264L515.201 150.494L449.285 312.372L449.201 312.167L566.909 359.593L567.773 359.93L567.557 360.026C591.845 300.007 614.357 244.442 632.621 199.256L632.693 199.449L515.201 150.494Z" fill="#EBEBEB"/>
<path d="M604.444 223.926C604.336 224.203 583.78 216.413 558.532 206.529C533.284 196.644 512.932 188.469 512.992 188.168C513.052 187.867 533.656 195.681 558.904 205.565C584.152 215.45 604.552 223.662 604.444 223.926Z" fill="#4C4C4C"/>
<path d="M599.908 238.735C599.8 239 579.244 231.21 553.996 221.337C528.748 211.464 508.396 203.277 508.456 202.964C508.516 202.651 529.12 210.489 554.368 220.374C579.616 230.259 600.004 238.47 599.908 238.735Z" fill="#E0E0E0"/>
<path d="M584.572 283.596C584.476 283.861 563.908 276.071 538.66 266.198C513.412 256.326 493.06 248.139 493.132 247.825C493.204 247.512 513.784 255.35 539.044 265.223C564.304 275.096 584.68 283.331 584.572 283.596Z" fill="#656565"/>
<path d="M577.336 298.755C577.24 299.019 556.672 291.23 531.424 281.357C506.176 271.484 485.824 263.297 485.896 262.984C485.968 262.671 506.548 270.497 531.808 280.381C557.068 290.266 577.444 298.478 577.336 298.755Z" fill="#656565"/>
<path d="M571.324 314.057C571.216 314.322 550.66 306.532 525.412 296.659C500.164 286.787 479.812 278.599 479.884 278.286C479.956 277.973 500.536 285.811 525.796 295.684C551.056 305.557 571.432 313.792 571.324 314.057Z" fill="#656565"/>
<path d="M565.312 329.36C565.204 329.625 544.648 321.835 519.4 311.962C494.152 302.089 473.8 293.902 473.872 293.589C473.944 293.276 494.524 301.114 519.784 310.987C545.044 320.86 565.42 329.095 565.312 329.36Z" fill="#656565"/>
<path d="M528.88 208.142C528.58 208.768 527.356 211.609 527.356 211.609L577.384 231.969L578.908 227.658L528.88 208.142Z" fill="#EBEBEB"/>
<path d="M503.692 214.438C503.38 215.065 501.544 218.917 501.544 218.917L595.324 254.748L597.628 249.836L503.692 214.438Z" fill="#656565"/>
<path d="M498.244 229.682L496.108 234.112L589.876 269.943L592.18 265.031L498.244 229.682Z" fill="#656565"/>
<path d="M493.528 245.67C493.432 245.899 491.848 250.486 491.848 250.486L538.78 268.546L541.42 263.02L493.528 245.67Z" fill="#656565"/>
<path d="M194.728 160.415C193.12 214.847 188.404 419.455 187.156 474.044C187.072 477.624 188.403 481.092 190.858 483.69C193.313 486.289 196.693 487.807 200.26 487.915L423.748 494.765C425.531 494.82 427.307 494.52 428.974 493.883C430.641 493.245 432.166 492.284 433.461 491.053C434.756 489.822 435.796 488.346 436.52 486.71C437.244 485.074 437.638 483.311 437.68 481.521L441.16 323.388L460.084 323.075C462.322 323.037 464.458 322.126 466.038 320.535C467.617 318.943 468.516 316.796 468.544 314.551L469.996 187.155C470.019 184.876 469.142 182.68 467.557 181.047C465.972 179.414 463.808 178.476 461.536 178.438L444.4 178.101L444.532 165.784C444.571 162.223 443.205 158.791 440.732 156.236C438.26 153.681 434.881 152.21 431.332 152.143L208.384 147.327C204.85 147.269 201.435 148.609 198.879 151.059C196.323 153.508 194.832 156.87 194.728 160.415Z" fill="#FAA21E"/>
<path opacity="0.4" d="M194.728 160.415C193.12 214.847 188.404 419.455 187.156 474.044C187.072 477.624 188.403 481.092 190.858 483.69C193.313 486.289 196.693 487.807 200.26 487.915L423.748 494.765C425.531 494.82 427.307 494.52 428.974 493.883C430.641 493.245 432.166 492.284 433.461 491.053C434.756 489.822 435.796 488.346 436.52 486.71C437.244 485.074 437.638 483.311 437.68 481.521L441.16 323.388L460.084 323.075C462.322 323.037 464.458 322.126 466.038 320.535C467.617 318.943 468.516 316.796 468.544 314.551L469.996 187.155C470.019 184.876 469.142 182.68 467.557 181.047C465.972 179.414 463.808 178.476 461.536 178.438L444.4 178.101L444.532 165.784C444.571 162.223 443.205 158.791 440.732 156.236C438.26 153.681 434.881 152.21 431.332 152.143L208.384 147.327C204.85 147.269 201.435 148.609 198.879 151.059C196.323 153.508 194.832 156.87 194.728 160.415Z" fill="black"/>
<path d="M211.708 162.751L191.992 477.802L422.284 490.745L440.872 178.066L211.708 162.751Z" fill="#E0E0E0"/>
<path d="M184.024 155.912L185.56 471.588L416.2 468.891L413.704 155.671L184.024 155.912Z" fill="#EBEBEB"/>
<path d="M153.832 177.632L197.368 490.275L425.584 456.707L381.424 146.629L153.832 177.632Z" fill="#FAFAFA"/>
<path d="M153.832 177.632L381.388 146.328H381.64V146.581C394.06 233.69 409.348 340.882 425.848 456.647V456.96H425.536L423.88 457.201L197.404 490.564H197.116V490.275C171.532 305.304 154.216 180.088 153.916 177.596L197.728 490.203L197.404 489.95L423.952 456.611L425.62 456.358L425.356 456.719C408.892 340.943 393.64 233.751 381.256 146.629L381.544 146.846L153.832 177.632Z" fill="#263238"/>
<path d="M367.084 250.077C367.168 250.595 328.048 257.18 279.712 264.802C231.376 272.423 192.112 278.166 192.112 277.661C192.112 277.155 231.148 270.557 279.484 262.936C327.82 255.314 367 249.571 367.084 250.077Z" fill="#263238"/>
<path d="M383.8 334.043C383.872 334.549 344.752 341.147 296.428 348.756C248.104 356.366 208.828 362.133 208.828 361.615C208.828 361.097 247.852 354.511 296.2 346.902C344.548 339.293 383.716 333.514 383.8 334.043Z" fill="#263238"/>
<path d="M386.236 364.264C386.308 364.781 347.188 371.367 298.864 378.977C250.54 386.586 211.264 392.353 211.264 391.835C211.264 391.318 250.288 384.732 298.636 377.122C346.984 369.513 386.152 363.746 386.236 364.264Z" fill="#263238"/>
<path d="M358.204 183.749C358.204 184.218 331.948 188.324 299.524 192.923C267.1 197.523 240.724 200.87 240.724 200.4C240.724 199.931 266.98 195.813 299.416 191.226C331.852 186.638 358.18 183.279 358.204 183.749Z" fill="#263238"/>
<path d="M361.912 200.484C361.912 200.954 335.656 205.072 303.232 209.659C270.808 214.246 244.432 217.605 244.432 217.136C244.432 216.666 270.676 212.56 303.112 207.961C335.548 203.362 361.9 200.015 361.912 200.484Z" fill="#263238"/>
<path d="M366.4 218.147C366.4 218.629 340.144 222.734 307.708 227.334C275.272 231.933 248.98 235.268 248.908 234.798C248.836 234.329 275.2 230.223 307.6 225.684C340 221.145 366.4 217.678 366.4 218.147Z" fill="#263238"/>
<path d="M390.712 393.617C390.796 394.123 351.676 400.721 303.34 408.33C255.004 415.939 215.74 421.707 215.74 421.189C215.74 420.671 254.776 414.085 303.112 406.476C351.448 398.867 390.628 393.1 390.712 393.617Z" fill="#263238"/>
<path d="M395.2 422.971C395.284 423.476 356.164 430.074 307.84 437.684C259.516 445.293 220.24 451.06 220.168 450.542C220.096 450.025 259.204 443.439 307.552 435.83C355.9 428.22 395.116 422.453 395.2 422.971Z" fill="#263238"/>
<path d="M228.592 267.102C228.688 268.306 229.348 273.916 229.348 273.916L325.816 260.046L324.316 251.943L228.592 267.102Z" fill="#FAA21E"/>
<path d="M194.992 299.898C195.1 301.102 195.712 308.844 195.712 308.844L374.428 279.238L373.576 269.485L194.992 299.898Z" fill="#FAA21E"/>
<path d="M200.308 328.626C200.416 329.83 201.028 337.584 201.028 337.584L379.744 307.977L378.892 298.213L200.308 328.626Z" fill="#FAA21E"/>
<path d="M207.448 357.871C207.448 358.316 209.2 366.961 209.2 366.961L298.756 352.344L297.868 341.304L207.448 357.871Z" fill="#FAA21E"/>
<path d="M181.432 198.69L189.448 256.723L242.116 249.318L234.94 191.466L181.432 198.69Z" fill="#263238"/>
<path d="M181.432 198.69L189.448 256.723L242.116 249.318L234.94 191.466L181.432 198.69Z" fill="#FAA21E"/>
<mask id="mask0_3126_1730" style="mask-type:luminance" maskUnits="userSpaceOnUse" x="181" y="191" width="62" height="66">
<path d="M181.432 198.69L189.448 256.723L242.116 249.318L234.94 191.466L181.432 198.69Z" fill="white"/>
</mask>
<g mask="url(#mask0_3126_1730)">
<path d="M207.688 246.753L223.6 242.443C223.348 240.529 221.848 233.257 221.848 233.257C221.848 233.257 228.364 230.957 227.188 224.214C226.012 217.472 221.992 202.254 221.992 202.254C217.884 201.335 213.606 201.531 209.599 202.822C205.591 204.113 201.999 206.452 199.192 209.598L198.34 210.549L207.688 246.753Z" fill="#FFBE9D"/>
<path d="M222.555 214.101C222.432 214.039 222.323 213.953 222.235 213.846C222.147 213.74 222.082 213.616 222.045 213.483C222.007 213.35 221.998 213.211 222.018 213.074C222.038 212.937 222.086 212.806 222.159 212.689C222.233 212.572 222.33 212.472 222.444 212.395C222.559 212.318 222.688 212.267 222.824 212.243C222.96 212.219 223.099 212.225 223.232 212.258C223.366 212.292 223.491 212.354 223.599 212.439C223.711 212.506 223.808 212.594 223.885 212.699C223.962 212.804 224.018 212.924 224.048 213.051C224.078 213.177 224.082 213.309 224.061 213.438C224.04 213.566 223.993 213.689 223.923 213.8C223.781 214.02 223.557 214.176 223.301 214.232C223.045 214.288 222.777 214.241 222.555 214.101Z" fill="#263238"/>
<path d="M223.9 212.259C223.816 212.404 223.06 212.018 222.136 212.187C221.212 212.355 220.636 212.957 220.516 212.861C220.396 212.765 220.516 212.584 220.768 212.307C221.104 211.943 221.551 211.701 222.04 211.621C222.525 211.541 223.024 211.612 223.468 211.826C223.804 212.006 223.936 212.199 223.9 212.259Z" fill="#263238"/>
<path d="M213.412 215.064C213.533 215.11 213.645 215.179 213.74 215.268C213.834 215.357 213.911 215.463 213.964 215.582C214.018 215.701 214.048 215.829 214.052 215.959C214.056 216.089 214.034 216.219 213.988 216.34C213.941 216.462 213.871 216.573 213.782 216.668C213.693 216.763 213.585 216.839 213.467 216.892C213.348 216.945 213.22 216.974 213.09 216.978C212.96 216.981 212.831 216.959 212.71 216.912C212.588 216.866 212.477 216.795 212.383 216.706C212.289 216.616 212.213 216.509 212.16 216.39C212.107 216.271 212.078 216.142 212.075 216.012C212.071 215.881 212.093 215.752 212.14 215.63C212.234 215.386 212.42 215.189 212.659 215.083C212.897 214.977 213.168 214.97 213.412 215.064Z" fill="#263238"/>
<path d="M213.999 214.955C213.915 215.088 213.159 214.703 212.247 214.871C211.335 215.04 210.735 215.654 210.615 215.545C210.495 215.437 210.615 215.281 210.867 214.992C211.217 214.644 211.664 214.412 212.149 214.328C212.635 214.244 213.134 214.312 213.579 214.522C213.927 214.703 214.071 214.847 213.999 214.955Z" fill="#263238"/>
<path d="M219.147 221.902C219.587 221.623 220.069 221.42 220.575 221.3C220.815 221.228 220.995 221.144 220.995 221.011C220.953 220.766 220.845 220.538 220.683 220.349L219.603 218.603C218.624 217.139 217.788 215.582 217.107 213.956C218.242 215.304 219.232 216.769 220.059 218.327L221.103 220.096C221.319 220.375 221.433 220.719 221.427 221.072C221.412 221.172 221.372 221.268 221.311 221.35C221.251 221.432 221.171 221.497 221.079 221.541C220.953 221.602 220.82 221.646 220.683 221.674C220.188 221.836 219.669 221.914 219.147 221.902Z" fill="#263238"/>
<path d="M216.4 223.492C215.332 223.095 219.316 224.407 221.2 223.962C220.977 224.506 220.576 224.958 220.064 225.244C219.552 225.531 218.958 225.635 218.38 225.539C216.148 225.178 216.4 223.492 216.4 223.492Z" fill="white"/>
<path d="M221.811 233.161C218.727 233.801 215.522 233.504 212.607 232.306C212.607 232.306 215.571 236.76 222.207 234.894L221.811 233.161Z" fill="#EB996E"/>
<path d="M199.444 217.051C199.288 217.051 194.38 217.617 196.24 223.071C198.1 228.525 203.032 224.877 202.996 224.72C202.96 224.564 199.444 217.051 199.444 217.051Z" fill="#FFBE9D"/>
<path d="M200.656 223.419C200.656 223.419 200.584 223.516 200.44 223.648C200.244 223.82 199.991 223.91 199.732 223.901C199.084 223.901 198.28 223.13 197.92 222.143C197.747 221.674 197.682 221.172 197.728 220.674C197.722 220.484 197.762 220.296 197.843 220.124C197.925 219.953 198.045 219.803 198.196 219.687C198.295 219.62 198.414 219.591 198.533 219.604C198.651 219.617 198.762 219.672 198.844 219.759C198.976 219.892 198.976 220.012 199.012 220.012C199.048 220.012 199.096 219.88 199.012 219.663C198.933 219.539 198.814 219.446 198.676 219.398C198.584 219.36 198.486 219.34 198.388 219.34C198.289 219.34 198.191 219.36 198.1 219.398C197.889 219.521 197.713 219.697 197.589 219.908C197.465 220.118 197.397 220.357 197.392 220.602C197.316 221.158 197.378 221.725 197.572 222.252C197.71 222.754 197.993 223.204 198.386 223.544C198.779 223.885 199.264 224.101 199.78 224.166C199.94 224.159 200.098 224.115 200.239 224.038C200.38 223.961 200.502 223.852 200.596 223.72C200.692 223.552 200.68 223.419 200.656 223.419Z" fill="#EB996E"/>
<path d="M221.895 202.061C221.019 207.009 214.695 210.08 209.823 211.272C211.731 208.864 210.399 209.526 211.551 207.852C208.374 211.851 203.866 214.566 198.855 215.498C198.264 214.429 197.893 213.251 197.765 212.036C197.637 210.82 197.754 209.591 198.109 208.422C198.464 207.252 199.049 206.166 199.831 205.229C200.613 204.291 201.575 203.521 202.659 202.964C204.087 202.229 205.671 201.88 207.147 201.242C208.347 200.7 209.547 199.942 210.819 199.496C214.659 198.172 220.863 195.884 221.895 202.061Z" fill="#263238"/>
<path d="M201.399 212.439C201.267 213.138 201.279 221.036 201.279 221.036L198.195 213.993L201.399 212.439Z" fill="#263238"/>
<path d="M176.151 274.867L189.483 255.157C192.017 251.249 195.434 247.994 199.455 245.658C201.584 244.404 203.897 243.494 206.307 242.961C212.228 243.685 218.228 242.562 223.491 239.746C228.29 239.376 233.116 239.836 237.759 241.107L264.159 246.5L260.343 269.738L246.399 267.823L249.423 288.436L257.727 318.536L206.895 328.601L202.383 300.705L198.687 280.61L192.687 289.158L176.151 274.867Z" fill="#455A64"/>
</g>
<path d="M464.428 602.729L464.368 591.652L485.032 591.411L485.296 607.605L484.012 607.701C478.312 608.087 455.008 609.266 451.18 608.147C446.92 606.907 464.428 602.729 464.428 602.729Z" fill="#4F4F4F"/>
<path d="M477.808 607.532C478.093 605.78 479.011 604.194 480.388 603.078C481.735 601.971 483.449 601.412 485.188 601.512L485.26 607.304L477.808 607.532Z" fill="#4F4F4F"/>
<path d="M455.872 605.076C455.872 605.076 449.74 606.93 450.52 607.942C451.3 608.953 474.904 608.652 485.32 607.605V607.135L457.792 607.725C457.792 607.725 457.084 605.112 455.872 605.076Z" fill="#4F4F4F"/>
<path d="M485.584 607.123H485.224L484.204 607.207L480.46 607.412C477.28 607.569 472.9 607.725 468.052 607.785C463.204 607.845 458.824 607.785 455.644 607.785L451.888 607.677H450.868H450.508H451.888H455.656C458.824 607.677 463.204 607.677 468.052 607.677C472.9 607.677 477.28 607.472 480.448 607.364L484.204 607.243H485.224L485.584 607.123Z" fill="#263238"/>
<path d="M457.745 608.051C457.575 607.426 457.334 606.824 457.024 606.257C456.649 605.734 456.214 605.258 455.729 604.836C456.379 605.066 456.92 605.535 457.241 606.148C457.632 606.701 457.811 607.376 457.745 608.051Z" fill="#263238"/>
<path d="M463.805 604.86C463.745 604.86 463.456 604.547 463.144 604.077C462.924 603.807 462.768 603.49 462.688 603.15C462.748 603.15 463.048 603.463 463.348 603.945C463.648 604.427 463.865 604.824 463.805 604.86Z" fill="#263238"/>
<path d="M465.472 603.956C465.472 603.956 465.088 603.788 464.728 603.475C464.368 603.162 464.116 602.861 464.164 602.813C464.212 602.765 464.536 602.969 464.896 603.294C465.256 603.619 465.508 603.908 465.472 603.956Z" fill="#263238"/>
<path d="M466.504 601.982C466.161 602.119 465.791 602.173 465.424 602.139C465.061 602.182 464.693 602.149 464.344 602.042C464.686 601.905 465.056 601.851 465.424 601.886C465.787 601.844 466.154 601.877 466.504 601.982Z" fill="#263238"/>
<path d="M466.852 600.598C466.499 600.841 466.081 600.971 465.652 600.971C465.246 601.042 464.827 600.987 464.452 600.814C464.848 600.746 465.25 600.714 465.652 600.718C466.048 600.645 466.45 600.605 466.852 600.598Z" fill="#263238"/>
<path d="M463.084 603.065C462.643 603.139 462.193 603.139 461.752 603.065C461.272 603.005 460.799 602.904 460.336 602.764C460.052 602.689 459.778 602.58 459.52 602.439C459.361 602.35 459.241 602.204 459.184 602.03C459.164 601.931 459.173 601.829 459.209 601.735C459.245 601.642 459.307 601.56 459.388 601.5C459.889 601.239 460.466 601.164 461.016 601.287C461.567 601.411 462.057 601.725 462.4 602.175C462.61 602.432 462.761 602.732 462.844 603.053C462.87 603.172 462.87 603.296 462.844 603.415C462.699 603.006 462.489 602.623 462.22 602.283C461.912 601.943 461.518 601.693 461.08 601.56C460.82 601.477 460.547 601.446 460.275 601.469C460.003 601.491 459.738 601.568 459.496 601.693C459.28 601.849 459.376 602.102 459.604 602.235C459.845 602.364 460.098 602.469 460.36 602.548C460.806 602.698 461.263 602.811 461.728 602.885C462.58 603.029 463.084 603.029 463.084 603.065Z" fill="#263238"/>
<path d="M462.736 603.138C462.576 602.857 462.516 602.53 462.568 602.211C462.609 601.862 462.733 601.527 462.928 601.235C463.037 601.036 463.194 600.868 463.385 600.746C463.576 600.624 463.794 600.552 464.02 600.537C464.156 600.563 464.277 600.643 464.356 600.758C464.434 600.873 464.465 601.014 464.44 601.151C464.41 601.365 464.337 601.57 464.224 601.753C464.053 602.049 463.843 602.32 463.6 602.56C463.401 602.809 463.141 603 462.844 603.114C462.844 603.114 463.108 602.873 463.468 602.439C463.684 602.194 463.869 601.923 464.02 601.633C464.2 601.356 464.32 600.85 464.02 600.79C463.72 600.73 463.348 601.103 463.144 601.368C462.963 601.627 462.84 601.923 462.784 602.235C462.743 602.534 462.727 602.836 462.736 603.138Z" fill="#263238"/>
<path d="M485.092 601.452C485.092 601.452 484.492 601.452 483.568 601.524C482.352 601.676 481.203 602.168 480.254 602.946C479.305 603.723 478.594 604.754 478.204 605.919C477.904 606.822 477.88 607.412 477.832 607.412C477.811 607.272 477.811 607.13 477.832 606.991C477.87 606.612 477.942 606.237 478.048 605.871C478.402 604.646 479.118 603.558 480.101 602.75C481.085 601.942 482.289 601.451 483.556 601.344C483.935 601.305 484.317 601.305 484.696 601.344C484.832 601.362 484.965 601.398 485.092 601.452Z" fill="#263238"/>
<path d="M482.8 592.904C483.048 595.734 483.12 598.577 483.016 601.417C482.784 598.586 482.712 595.744 482.8 592.904Z" fill="#263238"/>
<path d="M475.18 605.546C473.203 605.945 471.172 605.99 469.18 605.678C469.18 605.606 470.536 605.678 472.204 605.678C473.872 605.678 475.168 605.473 475.18 605.546Z" fill="#263238"/>
<path d="M479.2 605.486C479.2 605.486 479.092 605.775 478.96 606.088C478.828 606.401 478.756 606.678 478.684 606.666C478.612 606.654 478.576 606.341 478.684 605.98C478.792 605.619 479.2 605.438 479.2 605.486Z" fill="#263238"/>
<path d="M480.724 603.56C480.784 603.56 480.652 603.825 480.436 604.042C480.22 604.258 480.017 604.403 479.969 604.355C479.921 604.307 480.041 604.09 480.257 603.873C480.473 603.656 480.676 603.512 480.724 603.56Z" fill="#263238"/>
<path d="M482.896 602.657C482.896 602.729 482.608 602.729 482.308 602.837C482.008 602.946 481.792 603.114 481.732 603.066C481.672 603.018 481.852 602.741 482.224 602.609C482.596 602.476 482.92 602.597 482.896 602.657Z" fill="#263238"/>
<path d="M484.456 602.224C484.456 602.296 484.36 602.404 484.192 602.464C484.024 602.525 483.856 602.549 483.832 602.464C483.808 602.38 483.928 602.296 484.096 602.224C484.264 602.151 484.42 602.163 484.456 602.224Z" fill="#263238"/>
<path d="M570.052 597.01L566.68 586.463L546.964 592.663L551.764 608.135L552.964 607.834C558.508 606.425 581.02 600.285 584.32 598.033C587.992 595.529 570.052 597.01 570.052 597.01Z" fill="#4F4F4F"/>
<path d="M558.82 605.739C558.013 604.158 556.648 602.935 554.992 602.308C553.364 601.67 551.556 601.67 549.928 602.308L551.656 607.834L558.82 605.739Z" fill="#4F4F4F"/>
<path d="M578.908 596.577C578.908 596.577 585.316 596.432 584.908 597.636C584.5 598.84 561.952 605.896 551.74 608.135L551.644 607.69L577.984 599.671C577.984 599.671 577.78 596.986 578.908 596.577Z" fill="#4F4F4F"/>
<path d="M551.296 607.774L551.656 607.701L552.64 607.449L556.24 606.485C559.3 605.643 563.524 604.427 568.144 602.982C572.764 601.537 576.928 600.128 579.928 599.081L583.468 597.805L584.428 597.443C584.541 597.408 584.65 597.36 584.752 597.299L584.404 597.395L583.432 597.708L579.832 598.912C576.82 599.924 572.632 601.32 568.036 602.741C563.44 604.162 559.204 605.426 556.156 606.353L552.556 607.4L551.584 607.689C551.486 607.71 551.39 607.738 551.296 607.774Z" fill="#263238"/>
<path d="M578.044 599.984C578.023 599.339 578.072 598.693 578.188 598.058C578.382 597.443 578.648 596.853 578.98 596.3C578.431 596.714 578.058 597.32 577.936 597.997C577.737 598.652 577.776 599.355 578.044 599.984Z" fill="#263238"/>
<path d="M571.301 598.84C571.373 598.84 571.54 598.43 571.696 597.889C571.852 597.347 571.901 596.889 571.829 596.865C571.635 597.156 571.504 597.484 571.445 597.828C571.322 598.151 571.273 598.496 571.301 598.84Z" fill="#263238"/>
<path d="M569.44 598.503C569.5 598.503 569.752 598.226 569.992 597.817C570.232 597.407 570.388 597.034 570.328 596.998C570.268 596.962 570.028 597.275 569.776 597.684C569.524 598.094 569.38 598.467 569.44 598.503Z" fill="#263238"/>
<path d="M567.856 596.95C568.222 596.96 568.585 596.895 568.924 596.757C569.282 596.683 569.621 596.535 569.92 596.324C569.554 596.298 569.187 596.364 568.852 596.516C568.276 596.685 567.832 596.878 567.856 596.95Z" fill="#263238"/>
<path d="M567.1 595.734C567.49 595.861 567.91 595.861 568.3 595.734C568.724 595.676 569.121 595.491 569.44 595.204C569.032 595.263 568.63 595.36 568.24 595.493C567.854 595.542 567.472 595.622 567.1 595.734Z" fill="#263238"/>
<path d="M571.432 596.901C571.877 596.852 572.309 596.717 572.704 596.504C573.144 596.3 573.565 596.059 573.964 595.782C574.208 595.618 574.433 595.429 574.636 595.216C574.756 595.079 574.824 594.904 574.828 594.722C574.817 594.621 574.777 594.525 574.713 594.446C574.649 594.367 574.564 594.308 574.468 594.277C573.91 594.182 573.336 594.289 572.849 594.577C572.361 594.866 571.991 595.318 571.804 595.854C571.691 596.17 571.642 596.506 571.66 596.841C571.654 596.962 571.679 597.082 571.732 597.19C571.736 596.758 571.817 596.33 571.972 595.926C572.154 595.501 572.454 595.137 572.836 594.879C573.057 594.717 573.307 594.601 573.573 594.537C573.838 594.473 574.114 594.462 574.384 594.505C574.624 594.602 574.624 594.855 574.444 595.059C574.256 595.258 574.047 595.436 573.82 595.589C573.439 595.871 573.038 596.125 572.62 596.348C571.912 596.721 571.42 596.865 571.432 596.901Z" fill="#263238"/>
<path d="M571.78 596.865C571.853 596.552 571.811 596.222 571.66 595.938C571.52 595.616 571.301 595.334 571.024 595.119C570.865 594.972 570.673 594.865 570.464 594.808C570.255 594.751 570.035 594.747 569.824 594.794C569.763 594.827 569.71 594.872 569.667 594.925C569.624 594.979 569.592 595.04 569.573 595.107C569.554 595.173 569.548 595.242 569.556 595.31C569.564 595.379 569.586 595.445 569.62 595.505C569.708 595.701 569.839 595.873 570.004 596.01C570.26 596.235 570.542 596.429 570.844 596.588C571.109 596.761 571.415 596.861 571.732 596.877C571.732 596.877 571.408 596.733 570.928 596.432C570.653 596.261 570.395 596.064 570.16 595.842C569.908 595.625 569.632 595.18 569.932 595.023C570.11 594.99 570.293 594.998 570.467 595.046C570.642 595.094 570.803 595.181 570.94 595.3C571.193 595.489 571.401 595.732 571.552 596.01C571.661 596.285 571.738 596.572 571.78 596.865Z" fill="#263238"/>
<path d="M550 602.223C550 602.223 550.552 601.995 551.476 601.826C552.678 601.587 553.923 601.696 555.066 602.139C556.209 602.582 557.203 603.342 557.932 604.33C558.496 605.089 558.7 605.655 558.748 605.631C558.727 605.493 558.687 605.359 558.628 605.233C558.479 604.882 558.294 604.547 558.076 604.234C557.359 603.182 556.342 602.371 555.157 601.909C553.973 601.447 552.677 601.355 551.44 601.646C551.069 601.736 550.708 601.861 550.36 602.019C550.23 602.067 550.108 602.136 550 602.223Z" fill="#263238"/>
<path d="M549.496 593.35C550.128 596.118 550.93 598.844 551.896 601.513C551.602 600.121 551.234 598.747 550.792 597.395C550.441 596.022 550.009 594.671 549.496 593.35Z" fill="#263238"/>
<path d="M560.704 603.03C561.718 602.948 562.717 602.742 563.68 602.415C564.661 602.156 565.604 601.771 566.488 601.272C566.488 601.212 565.192 601.693 563.608 602.175C562.024 602.656 560.692 602.957 560.704 603.03Z" fill="#263238"/>
<path d="M556.84 604.234C556.84 604.234 557.032 604.475 557.248 604.728C557.464 604.981 557.632 605.221 557.692 605.197C557.752 605.173 557.692 604.86 557.44 604.559C557.188 604.258 556.864 604.174 556.84 604.234Z" fill="#263238"/>
<path d="M554.8 602.874C554.8 602.934 554.956 603.103 555.232 603.247C555.508 603.391 555.748 603.452 555.772 603.391C555.796 603.331 555.616 603.163 555.352 603.018C555.088 602.874 554.8 602.814 554.8 602.874Z" fill="#263238"/>
<path d="M552.472 602.693C552.472 602.753 552.76 602.693 553.084 602.693C553.408 602.693 553.672 602.801 553.708 602.693C553.744 602.584 553.492 602.416 553.096 602.404C552.7 602.392 552.4 602.633 552.472 602.693Z" fill="#263238"/>
<path d="M550.864 602.765C550.864 602.837 551.008 602.897 551.188 602.909C551.368 602.921 551.524 602.909 551.524 602.813C551.524 602.716 551.392 602.68 551.2 602.668C551.008 602.656 550.864 602.692 550.864 602.765Z" fill="#263238"/>
<path d="M450.364 382.866L460.012 597.961L492.196 598.635L486.856 418.565L545.176 600.778L571.48 593.554L512.788 382.866" fill="#263238"/>
<path d="M543.796 599.563L545.296 602.452L573.172 594.301L571.48 589.605L543.796 599.563Z" fill="#455A64"/>
<path d="M568.264 588.533C568.432 588.533 568.684 588.834 568.828 589.304C568.972 589.773 568.948 590.219 568.828 590.267C568.708 590.315 568.42 589.966 568.276 589.484C568.132 589.003 568.096 588.581 568.264 588.533Z" fill="#455A64"/>
<path d="M566.176 581.551C566.344 581.551 566.716 582.237 567.004 583.2C567.292 584.163 567.388 584.994 567.22 585.042C567.052 585.091 566.692 584.356 566.404 583.381C566.116 582.406 566.008 581.599 566.176 581.551Z" fill="#455A64"/>
<path d="M564.088 574.567C564.256 574.567 564.628 575.254 564.916 576.217C565.204 577.18 565.3 578.011 565.132 578.059C564.964 578.107 564.604 577.361 564.316 576.397C564.028 575.434 563.92 574.616 564.088 574.567Z" fill="#455A64"/>
<path d="M562 567.62C562.168 567.62 562.54 568.306 562.828 569.27C563.116 570.233 563.212 571.064 563.044 571.112C562.876 571.16 562.516 570.413 562.228 569.45C561.94 568.487 561.832 567.62 562 567.62Z" fill="#455A64"/>
<path d="M559.912 560.601C560.08 560.601 560.452 561.287 560.74 562.25C561.028 563.213 561.124 564.044 560.956 564.092C560.788 564.14 560.428 563.394 560.14 562.431C559.852 561.467 559.756 560.649 559.912 560.601Z" fill="#455A64"/>
<path d="M557.824 553.618C557.992 553.557 558.364 554.304 558.652 555.267C558.94 556.23 559.036 557.049 558.868 557.109C558.7 557.169 558.34 556.411 558.052 555.448C557.764 554.485 557.668 553.666 557.824 553.618Z" fill="#455A64"/>
<path d="M555.736 546.622C555.904 546.622 556.276 547.32 556.564 548.284C556.852 549.247 556.948 550.066 556.78 550.126C556.612 550.186 556.252 549.427 555.964 548.464C555.676 547.501 555.58 546.682 555.736 546.622Z" fill="#455A64"/>
<path d="M553.6 539.64C553.768 539.64 554.14 540.338 554.428 541.301C554.716 542.264 554.812 543.083 554.644 543.131C554.476 543.179 554.116 542.445 553.828 541.482C553.54 540.519 553.492 539.7 553.6 539.64Z" fill="#455A64"/>
<path d="M551.56 532.704C551.728 532.704 552.1 533.402 552.388 534.366C552.676 535.329 552.772 536.148 552.604 536.196C552.436 536.244 552.076 535.509 551.788 534.546C551.5 533.583 551.404 532.704 551.56 532.704Z" fill="#455A64"/>
<path d="M549.472 525.673C549.64 525.673 550.012 526.371 550.3 527.334C550.588 528.298 550.684 529.116 550.516 529.164C550.348 529.213 549.988 528.478 549.7 527.515C549.412 526.552 549.316 525.721 549.472 525.673Z" fill="#455A64"/>
<path d="M547.396 518.689C547.552 518.689 547.924 519.388 548.212 520.351C548.5 521.314 548.596 522.133 548.44 522.181C548.284 522.229 547.9 521.495 547.612 520.532C547.324 519.568 547.228 518.738 547.396 518.689Z" fill="#455A64"/>
<path d="M545.308 511.706C545.464 511.706 545.836 512.392 546.124 513.368C546.412 514.343 546.508 515.149 546.352 515.198C546.196 515.246 545.812 514.511 545.524 513.548C545.236 512.585 545.2 511.754 545.308 511.706Z" fill="#455A64"/>
<path d="M543.22 504.724C543.376 504.724 543.748 505.41 544.036 506.373C544.324 507.336 544.42 508.167 544.264 508.215C544.108 508.263 543.724 507.529 543.436 506.554C543.148 505.578 543.052 504.772 543.22 504.724Z" fill="#455A64"/>
<path d="M541.132 497.788C541.288 497.788 541.66 498.474 541.948 499.438C542.236 500.401 542.332 501.232 542.176 501.28C542.02 501.328 541.636 500.581 541.348 499.618C541.06 498.655 540.964 497.788 541.132 497.788Z" fill="#455A64"/>
<path d="M539.044 490.757C539.2 490.757 539.572 491.443 539.86 492.406C540.148 493.37 540.244 494.2 540.088 494.248C539.932 494.297 539.548 493.55 539.26 492.587C538.972 491.624 538.876 490.805 539.044 490.757Z" fill="#455A64"/>
<path d="M536.956 483.773C537.124 483.773 537.484 484.46 537.772 485.423C538.06 486.386 538.168 487.217 538 487.265C537.832 487.313 537.46 486.567 537.172 485.604C536.884 484.64 536.8 483.822 536.956 483.773Z" fill="#455A64"/>
<path d="M534.868 476.791C535.036 476.73 535.396 477.477 535.684 478.44C535.972 479.403 536.08 480.222 535.912 480.282C535.744 480.342 535.372 479.584 535.084 478.621C534.796 477.657 534.7 476.839 534.868 476.791Z" fill="#455A64"/>
<path d="M532.78 469.795C532.948 469.795 533.308 470.493 533.596 471.456C533.884 472.42 533.992 473.238 533.824 473.299C533.656 473.359 533.284 472.6 532.996 471.637C532.708 470.674 532.612 469.855 532.78 469.795Z" fill="#455A64"/>
<path d="M530.692 462.872C530.86 462.872 531.22 463.57 531.508 464.534C531.796 465.497 531.904 466.316 531.736 466.364C531.568 466.412 531.196 465.677 530.908 464.714C530.62 463.751 530.524 462.872 530.692 462.872Z" fill="#455A64"/>
<path d="M528.605 455.829C528.773 455.829 529.133 456.527 529.421 457.491C529.709 458.454 529.817 459.273 529.649 459.321C529.481 459.369 529.109 458.634 528.821 457.671C528.533 456.708 528.401 455.877 528.605 455.829Z" fill="#455A64"/>
<path d="M526.516 448.846C526.684 448.846 527.044 449.544 527.332 450.507C527.62 451.47 527.728 452.289 527.56 452.337C527.392 452.385 527.032 451.651 526.732 450.688C526.432 449.725 526.348 448.894 526.516 448.846Z" fill="#455A64"/>
<path d="M524.428 441.862C524.596 441.862 524.956 442.561 525.244 443.524C525.532 444.487 525.64 445.306 525.472 445.354C525.304 445.402 524.944 444.668 524.656 443.704C524.368 442.741 524.26 441.91 524.428 441.862Z" fill="#455A64"/>
<path d="M522.4 434.879C522.568 434.879 522.928 435.565 523.216 436.54C523.504 437.516 523.612 438.322 523.444 438.37C523.276 438.419 522.916 437.684 522.628 436.721C522.34 435.758 522.172 434.927 522.4 434.879Z" fill="#455A64"/>
<path d="M520.252 427.956C520.42 427.956 520.78 428.642 521.08 429.606C521.38 430.569 521.464 431.399 521.296 431.448C521.128 431.496 520.768 430.761 520.48 429.786C520.192 428.811 520.084 427.956 520.252 427.956Z" fill="#455A64"/>
<path d="M518.164 420.913C518.332 420.913 518.704 421.599 518.992 422.563C519.28 423.526 519.376 424.357 519.208 424.405C519.04 424.453 518.68 423.706 518.392 422.743C518.104 421.78 517.996 420.961 518.164 420.913Z" fill="#455A64"/>
<path d="M516.076 413.93C516.244 413.93 516.616 414.616 516.904 415.579C517.192 416.542 517.288 417.373 517.12 417.421C516.952 417.469 516.592 416.723 516.304 415.76C516.016 414.797 515.908 413.978 516.076 413.93Z" fill="#455A64"/>
<path d="M514 406.946C514.168 406.946 514.54 407.633 514.828 408.596C515.116 409.559 515.212 410.39 515.044 410.438C514.876 410.486 514.516 409.74 514.228 408.776C513.94 407.813 513.82 406.994 514 406.946Z" fill="#455A64"/>
<path d="M511.9 399.963C512.068 399.903 512.44 400.65 512.728 401.613C513.016 402.576 513.112 403.395 512.944 403.455C512.776 403.515 512.416 402.757 512.128 401.793C511.84 400.83 511.732 400.012 511.9 399.963Z" fill="#455A64"/>
<path d="M509.812 392.968C509.98 392.968 510.352 393.666 510.64 394.629C510.928 395.592 511.024 396.411 510.856 396.471C510.688 396.532 510.328 395.773 510.04 394.81C509.752 393.847 509.656 393.04 509.812 392.968Z" fill="#455A64"/>
<path d="M508.252 387.755C508.42 387.755 508.672 388.044 508.816 388.525C508.96 389.007 508.936 389.428 508.816 389.477C508.696 389.525 508.408 389.188 508.264 388.706C508.12 388.224 508.084 387.803 508.252 387.755Z" fill="#455A64"/>
<path d="M486.652 596.877C486.82 596.877 486.976 597.262 487.012 597.756C487.048 598.25 486.916 598.671 486.736 598.683C486.556 598.695 486.412 598.298 486.388 597.792C486.364 597.286 486.472 596.889 486.652 596.877Z" fill="#455A64"/>
<path d="M486.4 589.714C486.568 589.714 486.748 590.496 486.784 591.496C486.82 592.495 486.712 593.29 486.532 593.29C486.352 593.29 486.196 592.507 486.16 591.52C486.124 590.533 486.184 589.714 486.4 589.714Z" fill="#455A64"/>
<path d="M486.136 582.55C486.304 582.55 486.472 583.332 486.496 584.332C486.52 585.331 486.412 586.126 486.232 586.126C486.052 586.126 485.896 585.331 485.872 584.344C485.848 583.357 485.956 582.55 486.136 582.55Z" fill="#455A64"/>
<path d="M485.956 575.374C486.124 575.374 486.28 576.169 486.304 577.156C486.328 578.143 486.208 578.95 486.04 578.962C485.872 578.974 485.704 578.167 485.68 577.18C485.656 576.193 485.776 575.374 485.956 575.374Z" fill="#455A64"/>
<path d="M485.776 568.198C485.956 568.198 486.112 568.993 486.136 569.992C486.16 570.992 486.04 571.786 485.872 571.786C485.704 571.786 485.536 570.992 485.512 570.004C485.488 569.017 485.608 568.21 485.776 568.198Z" fill="#455A64"/>
<path d="M485.596 561.022C485.764 561.022 485.932 561.817 485.956 562.816C485.98 563.816 485.86 564.61 485.692 564.61C485.524 564.61 485.356 563.816 485.332 562.828C485.308 561.841 485.428 561.035 485.596 561.022Z" fill="#455A64"/>
<path d="M485.356 553.858C485.536 553.858 485.704 554.641 485.74 555.64C485.776 556.64 485.656 557.434 485.488 557.446C485.32 557.458 485.14 556.652 485.116 555.664C485.092 554.677 485.2 553.858 485.356 553.858Z" fill="#455A64"/>
<path d="M485.056 546.694C485.236 546.694 485.404 547.477 485.452 548.464C485.5 549.451 485.38 550.27 485.212 550.27C485.044 550.27 484.864 549.488 484.816 548.488C484.768 547.489 484.888 546.694 485.056 546.694Z" fill="#455A64"/>
<path d="M484.78 539.519C484.948 539.519 485.128 540.313 485.164 541.3C485.2 542.288 485.092 543.094 484.912 543.106C484.732 543.119 484.576 542.312 484.54 541.325C484.504 540.337 484.612 539.531 484.78 539.519Z" fill="#455A64"/>
<path d="M484.528 532.355C484.708 532.355 484.876 533.15 484.9 534.137C484.924 535.125 484.828 535.931 484.648 535.943C484.468 535.955 484.312 535.149 484.276 534.161C484.24 533.174 484.36 532.368 484.528 532.355Z" fill="#455A64"/>
<path d="M484.312 525.179C484.48 525.179 484.648 525.973 484.672 526.961C484.696 527.948 484.588 528.755 484.42 528.767C484.252 528.779 484.084 527.972 484.048 526.985C484.012 525.997 484.144 525.191 484.312 525.179Z" fill="#455A64"/>
<path d="M484.12 518.016C484.3 518.016 484.456 518.81 484.48 519.798C484.504 520.785 484.384 521.592 484.216 521.592C484.048 521.592 483.88 520.797 483.856 519.81C483.832 518.822 484 518.016 484.12 518.016Z" fill="#455A64"/>
<path d="M484 510.84C484.168 510.84 484.324 511.634 484.348 512.634C484.372 513.633 484.24 514.428 484.072 514.428C483.904 514.428 483.736 513.633 483.724 512.646C483.712 511.659 483.796 510.84 484 510.84Z" fill="#455A64"/>
<path d="M483.856 503.676C484.024 503.676 484.18 504.47 484.192 505.458C484.204 506.445 484.084 507.252 483.904 507.252C483.724 507.252 483.58 506.457 483.568 505.47C483.556 504.482 483.676 503.676 483.856 503.676Z" fill="#455A64"/>
<path d="M483.76 496.5C483.94 496.5 484.084 497.295 484.096 498.294C484.108 499.293 483.976 500.088 483.808 500.088C483.64 500.088 483.484 499.281 483.472 498.294C483.46 497.307 483.592 496.5 483.76 496.5Z" fill="#455A64"/>
<path d="M483.712 489.36C483.892 489.36 484.036 490.167 484.036 491.154C484.036 492.142 483.904 492.948 483.736 492.948C483.568 492.948 483.424 492.154 483.412 491.154C483.4 490.155 483.544 489.36 483.712 489.36Z" fill="#455A64"/>
<path d="M483.7 482.136C483.868 482.136 484.012 482.93 484.012 483.93C484.012 484.929 483.88 485.712 483.7 485.724C483.52 485.736 483.388 484.917 483.388 483.93C483.388 482.942 483.532 482.136 483.7 482.136Z" fill="#455A64"/>
<path d="M483.724 474.984C483.892 474.984 484.024 475.791 484.024 476.778C484.024 477.766 483.88 478.572 483.7 478.572C483.52 478.572 483.4 477.766 483.4 476.778C483.4 475.791 483.544 474.984 483.724 474.984Z" fill="#455A64"/>
<path d="M483.772 467.809C483.952 467.809 484.084 468.615 484.072 469.603C484.06 470.59 483.916 471.396 483.748 471.396C483.58 471.396 483.436 470.59 483.448 469.603C483.46 468.615 483.604 467.809 483.772 467.809Z" fill="#455A64"/>
<path d="M483.868 460.645C484.036 460.645 484.168 461.451 484.156 462.439C484.144 463.426 483.988 464.232 483.82 464.232C483.652 464.232 483.52 463.426 483.532 462.426C483.544 461.427 483.7 460.645 483.868 460.645Z" fill="#455A64"/>
<path d="M484 453.469C484.168 453.469 484.288 454.287 484.276 455.275C484.264 456.262 484.096 457.057 483.928 457.057C483.76 457.057 483.628 456.25 483.652 455.263C483.676 454.275 483.82 453.469 484 453.469Z" fill="#455A64"/>
<path d="M484.156 446.293C484.324 446.293 484.444 447.112 484.42 448.099C484.396 449.086 484.24 449.893 484.072 449.881C483.904 449.869 483.772 449.074 483.796 448.087C483.82 447.1 484 446.293 484.156 446.293Z" fill="#455A64"/>
<path d="M484.408 439.117C484.576 439.117 484.684 439.936 484.648 440.923C484.612 441.91 484.444 442.717 484.264 442.705C484.084 442.693 483.988 441.898 484.024 440.899C484.06 439.9 484.24 439.117 484.408 439.117Z" fill="#455A64"/>
<path d="M484.828 431.965C484.996 431.965 485.08 432.784 485.02 433.771C484.96 434.759 484.768 435.553 484.588 435.541C484.408 435.529 484.336 434.723 484.396 433.723C484.456 432.724 484.648 431.941 484.828 431.965Z" fill="#455A64"/>
<path d="M485.476 424.814C485.656 424.814 485.704 425.644 485.608 426.632C485.512 427.619 485.284 428.401 485.116 428.389C484.948 428.377 484.888 427.559 484.984 426.571C485.08 425.584 485.308 424.802 485.476 424.814Z" fill="#455A64"/>
<path d="M486.172 419.529C486.34 419.529 486.424 419.974 486.352 420.456C486.28 420.937 486.088 421.335 485.92 421.311C485.752 421.286 485.668 420.865 485.728 420.371C485.788 419.878 486.004 419.456 486.172 419.529Z" fill="#455A64"/>
<path d="M459.172 599.008L493.204 599.562L492.94 593.867L459.172 594.048V599.008Z" fill="#455A64"/>
<path d="M481.492 385.588C481.612 386.016 481.68 386.456 481.696 386.9C481.78 387.755 481.9 388.983 482.02 390.512C482.26 393.558 482.56 397.736 482.836 402.408C482.98 404.719 483.1 406.935 483.22 408.958C483.199 410.723 483.409 412.484 483.844 414.195C484.198 415.312 484.979 416.243 486.016 416.784C486.405 416.937 486.807 417.057 487.216 417.145C487.101 417.172 486.982 417.172 486.868 417.145C486.531 417.145 486.198 417.084 485.884 416.964C485.308 416.716 484.79 416.352 484.36 415.894C483.931 415.436 483.6 414.895 483.388 414.303C482.881 412.562 482.618 410.759 482.608 408.945C482.476 406.923 482.332 404.707 482.188 402.396C481.9 397.748 481.672 393.546 481.54 390.5C481.468 388.971 481.432 387.743 481.42 386.888C481.385 386.454 481.409 386.016 481.492 385.588Z" fill="#455A64"/>
<path d="M484.792 388.441C484.792 388.526 484.528 388.742 484.492 389.248C484.483 389.381 484.501 389.515 484.544 389.641C484.587 389.767 484.655 389.883 484.744 389.982C484.858 390.08 484.998 390.144 485.147 390.165C485.295 390.186 485.447 390.165 485.584 390.103C485.727 390.053 485.853 389.963 485.946 389.843C486.04 389.724 486.098 389.58 486.112 389.429C486.107 389.295 486.074 389.165 486.016 389.044C485.958 388.924 485.877 388.817 485.776 388.73C485.404 388.381 485.02 388.453 485.008 388.357C484.996 388.261 485.404 387.996 486.04 388.357C486.221 388.47 486.373 388.624 486.485 388.805C486.598 388.987 486.667 389.192 486.688 389.405C486.688 389.684 486.605 389.956 486.449 390.188C486.293 390.419 486.071 390.598 485.813 390.701C485.555 390.805 485.271 390.829 485 390.769C484.728 390.71 484.48 390.57 484.288 390.368C484.152 390.203 484.057 390.007 484.011 389.798C483.965 389.588 483.969 389.371 484.024 389.164C484.264 388.465 484.792 388.369 484.792 388.441Z" fill="#455A64"/>
<path d="M515.08 393.546C514.28 394.092 513.363 394.443 512.404 394.57C510.094 395.036 507.697 394.768 505.547 393.804C503.396 392.839 501.598 391.226 500.404 389.188C499.854 388.387 499.501 387.467 499.372 386.503C499.48 386.503 499.804 387.514 500.776 388.911C502.006 390.791 503.747 392.278 505.793 393.198C507.838 394.117 510.103 394.43 512.32 394.1C514 393.895 515.044 393.45 515.08 393.546Z" fill="#455A64"/>
<path d="M461.56 385.588C461.717 386.364 461.676 387.168 461.44 387.924C461.005 389.792 459.998 391.476 458.56 392.74C457.114 394.006 455.31 394.788 453.4 394.979C452.624 395.114 451.827 395.048 451.084 394.786C451.084 394.678 451.984 394.786 453.352 394.534C455.129 394.237 456.79 393.454 458.152 392.27C459.493 391.064 460.484 389.516 461.02 387.791C461.428 386.479 461.452 385.588 461.56 385.588Z" fill="#455A64"/>
<path d="M456.772 292.073C456.772 292.073 424.708 305.678 423.688 305.16C422.668 304.642 421.948 278.732 421.948 278.732H406C406 278.732 402.976 317.164 412.588 323.28C425.728 331.708 457.54 314.178 457.54 314.178L456.772 292.073Z" fill="#FFBE9D"/>
<path d="M349.696 245.659L346.408 260.034L361.792 263.707C361.792 263.707 368.116 265.115 374.404 274.109C380.692 283.103 383.128 287.088 383.128 287.088L393.784 234.257L382.216 242.54C379.923 244.158 377.376 245.379 374.68 246.152C371.38 247.116 366.976 248.211 364.516 248.091C359.528 247.609 354.577 246.797 349.696 245.659Z" fill="#263238"/>
<path d="M522.316 306.978L383.128 287.088L393.784 234.257L529.12 267.006C530.577 267.357 531.848 268.249 532.676 269.502C533.504 270.755 533.829 272.277 533.584 273.76L529.012 302.03C528.749 303.563 527.905 304.934 526.657 305.857C525.409 306.779 523.853 307.181 522.316 306.978Z" fill="#FAA21E"/>
<path d="M337.276 246.333C337.18 246.315 337.081 246.322 336.987 246.351C336.894 246.381 336.809 246.433 336.74 246.503C336.672 246.573 336.621 246.659 336.593 246.753C336.565 246.847 336.561 246.947 336.58 247.043C337.163 250.168 337.928 253.256 338.872 256.29C339.196 257.121 346.9 257.867 346.9 257.867L349.024 248.585L337.276 246.333Z" fill="#FAA21E"/>
<path d="M511.144 288.785L513.268 280.249L423.352 261.948L421.516 270.533L511.144 288.785Z" fill="#263238"/>
<path d="M493.672 288.497L473.8 286.896C473.668 284.572 473.8 275.566 473.8 275.566C473.8 275.566 465.532 274.278 465.4 265.934C465.268 257.591 466.732 238.603 466.732 238.603C471.427 236.573 476.578 235.838 481.651 236.473C486.725 237.108 491.538 239.09 495.592 242.215L496.792 243.167L493.672 288.497Z" fill="#FFBE9D"/>
<path d="M468.7 252.895C468.915 252.676 469.037 252.383 469.044 252.076C469.05 251.769 468.939 251.471 468.733 251.244C468.528 251.016 468.244 250.876 467.939 250.851C467.634 250.827 467.331 250.921 467.092 251.113C466.974 251.219 466.878 251.348 466.81 251.492C466.742 251.635 466.703 251.791 466.695 251.95C466.687 252.109 466.711 252.268 466.765 252.418C466.818 252.568 466.901 252.705 467.008 252.823C467.224 253.057 467.522 253.196 467.84 253.209C468.157 253.223 468.466 253.11 468.7 252.895Z" fill="#263238"/>
<path d="M466.696 250.968C466.828 251.112 467.644 250.486 468.772 250.486C469.9 250.486 470.74 251.064 470.872 250.92C471.004 250.775 470.8 250.595 470.44 250.318C469.953 249.971 469.37 249.786 468.772 249.788C468.172 249.794 467.591 249.997 467.116 250.366C466.756 250.679 466.636 250.968 466.696 250.968Z" fill="#263238"/>
<path d="M479.812 252.003C479.671 252.083 479.547 252.19 479.448 252.319C479.349 252.447 479.277 252.595 479.237 252.752C479.196 252.909 479.188 253.073 479.212 253.234C479.236 253.394 479.292 253.549 479.377 253.687C479.462 253.825 479.575 253.945 479.707 254.038C479.839 254.132 479.989 254.198 480.148 254.232C480.306 254.266 480.47 254.267 480.629 254.236C480.787 254.205 480.938 254.141 481.072 254.05C481.342 253.883 481.535 253.616 481.609 253.307C481.683 252.998 481.633 252.672 481.468 252.401C481.386 252.265 481.278 252.147 481.15 252.054C481.022 251.96 480.877 251.893 480.723 251.856C480.569 251.819 480.409 251.813 480.253 251.839C480.097 251.864 479.947 251.92 479.812 252.003Z" fill="#263238"/>
<path d="M479.068 252.015C479.188 252.16 480.004 251.534 481.144 251.522C482.284 251.51 483.112 252.112 483.232 251.967C483.352 251.823 483.172 251.642 482.812 251.365C482.324 251.01 481.734 250.824 481.132 250.835C480.534 250.843 479.954 251.041 479.476 251.401C479.128 251.69 478.996 251.955 479.068 252.015Z" fill="#263238"/>
<path d="M474.496 261.431C473.909 261.201 473.289 261.071 472.66 261.045C472.36 261.045 472.132 260.949 472.108 260.781C472.096 260.482 472.166 260.186 472.312 259.926C472.612 259.179 472.912 258.409 473.224 257.602C474.072 255.641 474.724 253.6 475.168 251.51C474.121 253.373 473.265 255.337 472.612 257.373C472.324 258.18 472.036 258.95 471.76 259.781C471.578 260.155 471.519 260.576 471.592 260.985C471.636 261.098 471.706 261.199 471.795 261.28C471.885 261.361 471.992 261.421 472.108 261.455C472.272 261.498 472.442 261.522 472.612 261.527C473.24 261.607 473.878 261.575 474.496 261.431Z" fill="#263238"/>
<path d="M478.192 262.696C479.392 261.985 474.928 264.441 472.612 264.321C473.006 264.913 473.588 265.355 474.263 265.574C474.939 265.792 475.668 265.775 476.332 265.525C478.804 264.67 478.192 262.696 478.192 262.696Z" fill="white"/>
<path d="M473.824 275.445C477.649 275.524 481.409 274.455 484.624 272.375C484.624 272.375 482.08 278.395 473.824 277.6V275.445Z" fill="#EB996E"/>
<path d="M496.912 251.257C497.092 251.197 503.068 250.8 502.084 257.783C501.1 264.766 494.38 261.467 494.392 261.263C494.404 261.058 496.912 251.257 496.912 251.257Z" fill="#FFBE9D"/>
<path d="M496.876 259.107C496.876 259.107 496.984 259.216 497.176 259.336C497.311 259.419 497.461 259.475 497.617 259.5C497.774 259.525 497.934 259.518 498.088 259.481C498.579 259.261 499.003 258.913 499.313 258.472C499.624 258.031 499.81 257.514 499.852 256.976C499.952 256.379 499.923 255.767 499.768 255.182C499.733 254.956 499.643 254.741 499.508 254.556C499.372 254.372 499.193 254.223 498.988 254.123C498.853 254.067 498.703 254.059 498.563 254.101C498.424 254.142 498.302 254.231 498.22 254.352C498.1 254.532 498.124 254.677 498.088 254.689C498.052 254.701 497.956 254.556 498.088 254.267C498.148 254.098 498.267 253.957 498.424 253.87C498.637 253.755 498.886 253.725 499.12 253.786C499.39 253.88 499.632 254.039 499.827 254.249C500.021 254.459 500.162 254.713 500.236 254.99C500.443 255.639 500.492 256.328 500.38 257C500.326 257.629 500.088 258.228 499.695 258.721C499.302 259.214 498.772 259.579 498.172 259.77C497.977 259.798 497.779 259.782 497.591 259.721C497.404 259.661 497.233 259.558 497.092 259.42C496.864 259.288 496.852 259.119 496.876 259.107Z" fill="#EB996E"/>
<path d="M466.816 238.398C468.964 244.093 477.196 246.345 483.244 246.682C480.448 244.214 482.176 244.731 480.448 242.998C485.114 247.047 491.078 249.274 497.248 249.271C497.711 247.864 497.888 246.379 497.769 244.902C497.65 243.426 497.237 241.989 496.554 240.675C495.872 239.362 494.934 238.199 493.796 237.256C492.657 236.313 491.342 235.608 489.928 235.184C488.068 234.618 486.088 234.57 484.192 234.124C482.596 233.751 481.06 233.113 479.392 232.92C474.52 232.198 466.612 230.873 466.744 238.447" fill="#263238"/>
<path d="M493.6 246.152C493.912 246.959 495.652 256.374 495.652 256.374L497.764 247.296L493.6 246.152Z" fill="#263238"/>
<path d="M552.7 362.591C555.895 358.904 557.647 354.178 557.629 349.293C557.611 344.407 555.826 339.694 552.604 336.031L520.516 299.525L511.924 323.605C512.512 323.991 536.908 350.238 536.908 350.238L515.944 376.461C514.352 378.448 513.288 380.808 512.852 383.32C512.415 385.832 512.62 388.414 513.448 390.825L519.052 404.586L534.4 397.687L533.2 395.894H521.692L521.008 393.124L552.7 362.591Z" fill="#FFBE9D"/>
<path d="M537.496 314.961L517.228 294.493C513.323 290.397 508.52 287.273 503.2 285.366C500.38 284.356 497.421 283.787 494.428 283.681C487.537 285.872 480.139 285.872 473.248 283.681C467.447 284.316 461.797 285.945 456.544 288.497L426.292 300.814L436 327.663L452.236 322.185L453.196 347.469L449.98 385.238L512.8 385.816L511.984 351.55V326.772L521.056 335.621L537.496 314.961Z" fill="#455A64"/>
</svg>
