<svg width="826" height="677" viewBox="0 0 826 677" fill="none" xmlns="http://www.w3.org/2000/svg">
<path d="M0 117.934C0 93.2395 18.0283 72.2435 42.4389 68.5091L470.813 2.97629C481.33 1.36747 492.085 3.15502 501.516 8.07904L794.469 161.037C813.345 170.892 823.908 191.622 820.787 212.686L759.35 627.386C755.295 654.763 729.772 673.637 702.408 669.496L405.559 624.568C400.877 623.86 396.117 623.82 391.424 624.45L56.6532 669.395C26.6646 673.422 0 650.098 0 619.84V117.934Z" fill="#FAA21E"/>
<path d="M220.984 582.378C245.704 565.052 251.32 532.894 250.336 503.974C250.168 499.158 250.696 494.065 248.416 489.826C246.136 485.588 240.784 482.699 236.416 484.734C232.816 486.419 231.292 490.597 229.288 494.04C226.624 498.65 222.713 502.407 218.008 504.877C214.948 506.466 211.168 507.441 208.144 505.767C203.992 503.48 203.5 497.725 203.536 492.921C203.584 483.979 203.636 475.033 203.692 466.084C203.692 461.268 203.692 456.391 202.252 451.828C200.812 447.265 197.452 443.051 192.928 441.763C188.404 440.475 182.752 443.123 181.792 447.783C181.384 449.733 181.792 451.768 181.648 453.803C181.504 455.838 180.592 458.005 178.708 458.619C176.824 459.233 174.88 457.824 173.452 456.416C168.52 451.6 165.172 445.327 162.04 439.114C158.908 432.901 155.872 426.556 151.384 421.271C146.896 415.985 140.704 411.795 133.864 411.41C127.024 411.025 119.704 415.263 117.976 422.005C116.248 428.748 120.172 435.634 124.456 441.113C130.847 449.213 138.373 456.342 146.8 462.279C148.3 463.363 149.944 464.518 150.52 466.3C151.552 469.491 148.528 472.67 145.384 473.729C141.784 474.933 137.956 474.548 134.224 474.933C130.492 475.318 126.4 477.136 124.996 480.616C123.028 485.564 127.12 490.657 131.2 493.992C139.262 500.73 148.42 506.024 158.272 509.644C161.8 510.945 165.472 512.052 168.34 514.557C171.208 517.061 166.768 525.814 165.052 529.197C163.336 532.581 165.052 529.197 161.368 528.511C157.684 527.825 154.384 525.814 150.868 524.49C144.304 521.997 135.808 522.455 131.596 528.102C128.836 531.846 128.584 537.071 129.988 541.538C131.392 546.005 134.224 549.846 137.188 553.398C147.724 565.799 161.188 575.78 176.464 581.09C191.74 586.399 205.84 587.832 220.996 582.294" fill="#EBEBEB"/>
<path d="M221.368 603.809C220.027 590.406 217.411 577.161 213.556 564.258C208.77 548.509 203.088 533.049 196.54 517.952L191.452 506.032C189.772 502.131 188.116 498.254 186.256 494.57C182.686 487.505 178.728 480.643 174.4 474.018C170.296 467.661 166.18 461.773 162.292 456.295C158.404 450.817 154.648 445.808 151.048 441.365C145.387 434.345 139.18 427.787 132.484 421.752C130.084 419.609 128.236 418.008 126.952 416.936L125.476 415.732C125.315 415.581 125.138 415.448 124.948 415.335C125.087 415.505 125.244 415.658 125.416 415.792L126.832 417.069C128.032 418.176 129.928 419.814 132.256 421.993C138.828 428.124 144.936 434.736 150.532 441.775C154.132 446.23 157.732 451.262 161.656 456.741C165.58 462.219 169.612 468.118 173.656 474.475C177.961 481.077 181.903 487.91 185.464 494.943C187.312 498.555 188.956 502.444 190.624 506.369L195.7 518.265C202.258 533.339 207.967 548.77 212.8 564.486C216.68 577.335 219.348 590.52 220.768 603.869" fill="#4B4B4B"/>
<path d="M186.004 494.546C186.236 493.884 186.393 493.197 186.472 492.499C186.724 491.175 187.024 489.248 187.36 486.852C188.032 482.036 188.74 475.439 189.496 468.13C190.252 460.822 191.056 454.26 191.8 449.444C192.172 447.036 192.484 445.146 192.724 443.809C192.889 443.127 192.978 442.429 192.988 441.727C192.719 442.374 192.518 443.048 192.388 443.737C192.052 445.05 191.632 446.964 191.188 449.336C190.288 454.08 189.376 460.702 188.632 468.022C187.888 475.342 187.24 481.784 186.736 486.768C186.496 489.02 186.292 490.91 186.136 492.439C186.013 493.134 185.969 493.841 186.004 494.546Z" fill="#4B4B4B"/>
<path d="M124.504 483.012C125.293 483.186 126.096 483.287 126.904 483.313C128.488 483.445 130.768 483.638 133.588 483.975C139.216 484.577 146.968 485.697 155.464 487.298C163.96 488.899 171.592 490.717 177.064 492.186C179.812 492.896 182.02 493.523 183.544 493.956C184.323 494.229 185.127 494.426 185.944 494.546C185.207 494.164 184.436 493.853 183.64 493.619C182.14 493.089 179.956 492.415 177.232 491.572C171.772 489.947 164.14 488.056 155.632 486.419C147.124 484.782 139.312 483.794 133.648 483.337C130.816 483.096 128.512 483 126.928 482.963C126.12 482.907 125.309 482.923 124.504 483.012Z" fill="#4B4B4B"/>
<path d="M212.8 563.113C212.8 563.113 212.98 562.873 213.232 562.367L214.276 560.127C215.188 558.189 216.424 555.311 217.876 551.808C220.84 544.74 224.632 534.843 228.676 523.875C232.72 512.907 236.416 502.974 239.224 495.858L242.584 487.43C242.944 486.515 243.244 485.756 243.484 485.13C243.608 484.87 243.696 484.595 243.748 484.312C243.577 484.541 243.436 484.792 243.328 485.058L242.272 487.285C241.372 489.236 240.136 492.101 238.672 495.617C235.708 502.685 231.916 512.581 227.872 523.562C223.828 534.542 220.144 544.451 217.324 551.567C215.944 555.035 214.816 557.876 213.964 559.995C213.604 560.91 213.304 561.669 213.064 562.295C212.947 562.557 212.858 562.832 212.8 563.113Z" fill="#4B4B4B"/>
<path d="M131.068 536.686C131.323 536.837 131.597 536.951 131.884 537.023L134.284 537.829L143.044 540.671C150.424 543.079 160.6 546.51 171.844 550.303C183.088 554.095 193.276 557.467 200.728 559.718C204.448 560.85 207.46 561.729 209.56 562.295L211.96 562.933C212.235 563.028 212.522 563.081 212.812 563.089C212.56 562.942 212.29 562.829 212.008 562.752L209.608 561.958L200.86 559.116C193.468 556.708 183.304 553.277 172.06 549.484C160.816 545.691 150.628 542.32 143.2 540.069C139.48 538.937 136.456 538.058 134.356 537.492L131.956 536.854C131.667 536.766 131.37 536.709 131.068 536.686Z" fill="#4B4B4B"/>
<path d="M523.84 160.941L457.792 322.771L576.364 370.546L641.404 209.776L523.84 160.941Z" fill="#E6E6E6"/>
<path d="M523.84 160.941L641.44 209.643H641.572L641.512 209.776C623.248 254.95 600.784 310.538 576.508 370.57L576.448 370.726H576.28L575.416 370.377L457.72 322.928H457.576L457.636 322.783L523.84 160.941L457.936 322.831L457.852 322.627L575.56 370.04L576.424 370.389L576.196 370.486C600.496 310.466 622.996 254.902 641.272 209.715L641.344 209.896L523.84 160.941Z" fill="#E6E6E6"/>
<path d="M515.188 145.494L449.14 307.324L567.712 355.111L632.752 194.328L515.188 145.494Z" fill="#FAFAFA"/>
<path d="M515.201 145.494L632.801 194.196H632.933V194.328L567.869 355.171L567.809 355.339L567.653 355.267L566.789 354.918L449.081 307.48L448.937 307.42L448.997 307.264L515.201 145.494L449.285 307.372L449.201 307.167L566.909 354.593L567.773 354.93L567.557 355.026C591.845 295.007 614.357 239.442 632.621 194.256L632.693 194.449L515.201 145.494Z" fill="#EBEBEB"/>
<path d="M604.444 218.926C604.336 219.203 583.78 211.413 558.532 201.529C533.284 191.644 512.932 183.469 512.992 183.168C513.052 182.867 533.656 190.681 558.904 200.565C584.152 210.45 604.552 218.662 604.444 218.926Z" fill="#4C4C4C"/>
<path d="M599.908 233.735C599.8 234 579.244 226.21 553.996 216.337C528.748 206.464 508.396 198.277 508.456 197.964C508.516 197.651 529.12 205.489 554.368 215.374C579.616 225.259 600.004 233.47 599.908 233.735Z" fill="#E0E0E0"/>
<path d="M584.572 278.596C584.476 278.861 563.908 271.071 538.66 261.198C513.412 251.326 493.06 243.139 493.132 242.825C493.204 242.512 513.784 250.35 539.044 260.223C564.304 270.096 584.68 278.331 584.572 278.596Z" fill="#656565"/>
<path d="M577.336 293.755C577.24 294.019 556.672 286.23 531.424 276.357C506.176 266.484 485.824 258.297 485.896 257.984C485.968 257.671 506.548 265.497 531.808 275.381C557.068 285.266 577.444 293.478 577.336 293.755Z" fill="#656565"/>
<path d="M571.324 309.057C571.216 309.322 550.66 301.532 525.412 291.659C500.164 281.787 479.812 273.599 479.884 273.286C479.956 272.973 500.536 280.811 525.796 290.684C551.056 300.557 571.432 308.792 571.324 309.057Z" fill="#656565"/>
<path d="M565.312 324.36C565.204 324.625 544.648 316.835 519.4 306.962C494.152 297.089 473.8 288.902 473.872 288.589C473.944 288.276 494.524 296.114 519.784 305.987C545.044 315.86 565.42 324.095 565.312 324.36Z" fill="#656565"/>
<path d="M528.88 203.142C528.58 203.768 527.356 206.609 527.356 206.609L577.384 226.969L578.908 222.658L528.88 203.142Z" fill="#EBEBEB"/>
<path d="M503.692 209.438C503.38 210.065 501.544 213.917 501.544 213.917L595.324 249.748L597.628 244.836L503.692 209.438Z" fill="#656565"/>
<path d="M498.244 224.682L496.108 229.112L589.876 264.943L592.18 260.031L498.244 224.682Z" fill="#656565"/>
<path d="M493.528 240.67C493.432 240.899 491.848 245.486 491.848 245.486L538.78 263.546L541.42 258.02L493.528 240.67Z" fill="#656565"/>
<path d="M194.728 155.415C193.12 209.847 188.404 414.455 187.156 469.044C187.072 472.624 188.403 476.092 190.858 478.69C193.313 481.289 196.693 482.807 200.26 482.915L423.748 489.765C425.531 489.82 427.307 489.52 428.974 488.883C430.641 488.245 432.166 487.284 433.461 486.053C434.756 484.822 435.796 483.346 436.52 481.71C437.244 480.074 437.638 478.311 437.68 476.521L441.16 318.388L460.084 318.075C462.322 318.037 464.458 317.126 466.038 315.535C467.617 313.943 468.516 311.796 468.544 309.551L469.996 182.155C470.019 179.876 469.142 177.68 467.557 176.047C465.972 174.414 463.808 173.476 461.536 173.438L444.4 173.101L444.532 160.784C444.571 157.223 443.205 153.791 440.732 151.236C438.26 148.681 434.881 147.21 431.332 147.143L208.384 142.327C204.85 142.269 201.435 143.609 198.879 146.059C196.323 148.508 194.832 151.87 194.728 155.415Z" fill="#FAA21E"/>
<path opacity="0.4" d="M194.728 155.415C193.12 209.847 188.404 414.455 187.156 469.044C187.072 472.624 188.403 476.092 190.858 478.69C193.313 481.289 196.693 482.807 200.26 482.915L423.748 489.765C425.531 489.82 427.307 489.52 428.974 488.883C430.641 488.245 432.166 487.284 433.461 486.053C434.756 484.822 435.796 483.346 436.52 481.71C437.244 480.074 437.638 478.311 437.68 476.521L441.16 318.388L460.084 318.075C462.322 318.037 464.458 317.126 466.038 315.535C467.617 313.943 468.516 311.796 468.544 309.551L469.996 182.155C470.019 179.876 469.142 177.68 467.557 176.047C465.972 174.414 463.808 173.476 461.536 173.438L444.4 173.101L444.532 160.784C444.571 157.223 443.205 153.791 440.732 151.236C438.26 148.681 434.881 147.21 431.332 147.143L208.384 142.327C204.85 142.269 201.435 143.609 198.879 146.059C196.323 148.508 194.832 151.87 194.728 155.415Z" fill="black"/>
<path d="M211.708 157.751L191.992 472.802L422.284 485.745L440.872 173.066L211.708 157.751Z" fill="#E0E0E0"/>
<path d="M184.024 150.912L185.56 466.588L416.2 463.891L413.704 150.671L184.024 150.912Z" fill="#EBEBEB"/>
<path d="M153.832 172.632L197.368 485.275L425.584 451.707L381.424 141.629L153.832 172.632Z" fill="#FAFAFA"/>
<path d="M153.832 172.632L381.388 141.328H381.64V141.581C394.06 228.69 409.348 335.882 425.848 451.647V451.96H425.536L423.88 452.201L197.404 485.564H197.116V485.275C171.532 300.304 154.216 175.088 153.916 172.596L197.728 485.203L197.404 484.95L423.952 451.611L425.62 451.358L425.356 451.719C408.892 335.943 393.64 228.751 381.256 141.629L381.544 141.846L153.832 172.632Z" fill="#263238"/>
<path d="M367.084 245.077C367.168 245.595 328.048 252.18 279.712 259.802C231.376 267.423 192.112 273.166 192.112 272.661C192.112 272.155 231.148 265.557 279.484 257.936C327.82 250.314 367 244.571 367.084 245.077Z" fill="#263238"/>
<path d="M383.8 329.043C383.872 329.549 344.752 336.147 296.428 343.756C248.104 351.366 208.828 357.133 208.828 356.615C208.828 356.097 247.852 349.511 296.2 341.902C344.548 334.293 383.716 328.514 383.8 329.043Z" fill="#263238"/>
<path d="M386.236 359.264C386.308 359.781 347.188 366.367 298.864 373.977C250.54 381.586 211.264 387.353 211.264 386.835C211.264 386.318 250.288 379.732 298.636 372.122C346.984 364.513 386.152 358.746 386.236 359.264Z" fill="#263238"/>
<path d="M358.204 178.749C358.204 179.218 331.948 183.324 299.524 187.923C267.1 192.523 240.724 195.87 240.724 195.4C240.724 194.931 266.98 190.813 299.416 186.226C331.852 181.638 358.18 178.279 358.204 178.749Z" fill="#263238"/>
<path d="M361.912 195.484C361.912 195.954 335.656 200.072 303.232 204.659C270.808 209.246 244.432 212.605 244.432 212.136C244.432 211.666 270.676 207.56 303.112 202.961C335.548 198.362 361.9 195.015 361.912 195.484Z" fill="#263238"/>
<path d="M366.4 213.147C366.4 213.629 340.144 217.734 307.708 222.334C275.272 226.933 248.98 230.268 248.908 229.798C248.836 229.329 275.2 225.223 307.6 220.684C340 216.145 366.4 212.678 366.4 213.147Z" fill="#263238"/>
<path d="M390.712 388.617C390.796 389.123 351.676 395.721 303.34 403.33C255.004 410.939 215.74 416.707 215.74 416.189C215.74 415.671 254.776 409.085 303.112 401.476C351.448 393.867 390.628 388.1 390.712 388.617Z" fill="#263238"/>
<path d="M395.2 417.971C395.284 418.476 356.164 425.074 307.84 432.684C259.516 440.293 220.24 446.06 220.168 445.542C220.096 445.025 259.204 438.439 307.552 430.83C355.9 423.22 395.116 417.453 395.2 417.971Z" fill="#263238"/>
<path d="M228.592 262.102C228.688 263.306 229.348 268.916 229.348 268.916L325.816 255.046L324.316 246.943L228.592 262.102Z" fill="#FAA21E"/>
<path d="M194.992 294.898C195.1 296.102 195.712 303.844 195.712 303.844L374.428 274.238L373.576 264.485L194.992 294.898Z" fill="#FAA21E"/>
<path d="M200.308 323.626C200.416 324.83 201.028 332.584 201.028 332.584L379.744 302.977L378.892 293.213L200.308 323.626Z" fill="#FAA21E"/>
<path d="M207.448 352.871C207.448 353.316 209.2 361.961 209.2 361.961L298.756 347.344L297.868 336.304L207.448 352.871Z" fill="#FAA21E"/>
<path d="M181.432 193.69L189.448 251.723L242.116 244.318L234.94 186.466L181.432 193.69Z" fill="#263238"/>
<path d="M181.432 193.69L189.448 251.723L242.116 244.318L234.94 186.466L181.432 193.69Z" fill="#FAA21E"/>
<mask id="mask0_3134_1730" style="mask-type:luminance" maskUnits="userSpaceOnUse" x="181" y="186" width="62" height="66">
<path d="M181.432 193.69L189.448 251.723L242.116 244.318L234.94 186.466L181.432 193.69Z" fill="white"/>
</mask>
<g mask="url(#mask0_3134_1730)">
<path d="M207.688 241.753L223.6 237.443C223.348 235.529 221.848 228.257 221.848 228.257C221.848 228.257 228.364 225.957 227.188 219.214C226.012 212.472 221.992 197.254 221.992 197.254C217.884 196.335 213.606 196.531 209.599 197.822C205.591 199.113 201.999 201.452 199.192 204.598L198.34 205.549L207.688 241.753Z" fill="#FFBE9D"/>
<path d="M222.555 209.101C222.432 209.039 222.323 208.953 222.235 208.846C222.147 208.74 222.082 208.616 222.045 208.483C222.007 208.35 221.998 208.211 222.018 208.074C222.038 207.937 222.086 207.806 222.159 207.689C222.233 207.572 222.33 207.472 222.444 207.395C222.559 207.318 222.688 207.267 222.824 207.243C222.96 207.219 223.099 207.225 223.232 207.258C223.366 207.292 223.491 207.354 223.599 207.439C223.711 207.506 223.808 207.594 223.885 207.699C223.962 207.804 224.018 207.924 224.048 208.051C224.078 208.177 224.082 208.309 224.061 208.438C224.04 208.566 223.993 208.689 223.923 208.8C223.781 209.02 223.557 209.176 223.301 209.232C223.045 209.288 222.777 209.241 222.555 209.101Z" fill="#263238"/>
<path d="M223.9 207.259C223.816 207.404 223.06 207.018 222.136 207.187C221.212 207.355 220.636 207.957 220.516 207.861C220.396 207.765 220.516 207.584 220.768 207.307C221.104 206.943 221.551 206.701 222.04 206.621C222.525 206.541 223.024 206.612 223.468 206.826C223.804 207.006 223.936 207.199 223.9 207.259Z" fill="#263238"/>
<path d="M213.412 210.064C213.533 210.11 213.645 210.179 213.74 210.268C213.834 210.357 213.911 210.463 213.964 210.582C214.018 210.701 214.048 210.829 214.052 210.959C214.056 211.089 214.034 211.219 213.988 211.34C213.941 211.462 213.871 211.573 213.782 211.668C213.693 211.763 213.585 211.839 213.467 211.892C213.348 211.945 213.22 211.974 213.09 211.978C212.96 211.981 212.831 211.959 212.71 211.912C212.588 211.866 212.477 211.795 212.383 211.706C212.289 211.616 212.213 211.509 212.16 211.39C212.107 211.271 212.078 211.142 212.075 211.012C212.071 210.881 212.093 210.752 212.14 210.63C212.234 210.386 212.42 210.189 212.659 210.083C212.897 209.977 213.168 209.97 213.412 210.064Z" fill="#263238"/>
<path d="M213.999 209.955C213.915 210.088 213.159 209.703 212.247 209.871C211.335 210.04 210.735 210.654 210.615 210.545C210.495 210.437 210.615 210.281 210.867 209.992C211.217 209.644 211.664 209.412 212.149 209.328C212.635 209.244 213.134 209.312 213.579 209.522C213.927 209.703 214.071 209.847 213.999 209.955Z" fill="#263238"/>
<path d="M219.147 216.902C219.587 216.623 220.069 216.42 220.575 216.3C220.815 216.228 220.995 216.144 220.995 216.011C220.953 215.766 220.845 215.538 220.683 215.349L219.603 213.603C218.624 212.139 217.788 210.582 217.107 208.956C218.242 210.304 219.232 211.769 220.059 213.327L221.103 215.096C221.319 215.375 221.433 215.719 221.427 216.072C221.412 216.172 221.372 216.268 221.311 216.35C221.251 216.432 221.171 216.497 221.079 216.541C220.953 216.602 220.82 216.646 220.683 216.674C220.188 216.836 219.669 216.914 219.147 216.902Z" fill="#263238"/>
<path d="M216.4 218.492C215.332 218.095 219.316 219.407 221.2 218.962C220.977 219.506 220.576 219.958 220.064 220.244C219.552 220.531 218.958 220.635 218.38 220.539C216.148 220.178 216.4 218.492 216.4 218.492Z" fill="white"/>
<path d="M221.811 228.161C218.727 228.801 215.522 228.504 212.607 227.306C212.607 227.306 215.571 231.76 222.207 229.894L221.811 228.161Z" fill="#EB996E"/>
<path d="M199.444 212.051C199.288 212.051 194.38 212.617 196.24 218.071C198.1 223.525 203.032 219.877 202.996 219.72C202.96 219.564 199.444 212.051 199.444 212.051Z" fill="#FFBE9D"/>
<path d="M200.656 218.419C200.656 218.419 200.584 218.516 200.44 218.648C200.244 218.82 199.991 218.91 199.732 218.901C199.084 218.901 198.28 218.13 197.92 217.143C197.747 216.674 197.682 216.172 197.728 215.674C197.722 215.484 197.762 215.296 197.843 215.124C197.925 214.953 198.045 214.803 198.196 214.687C198.295 214.62 198.414 214.591 198.533 214.604C198.651 214.617 198.762 214.672 198.844 214.759C198.976 214.892 198.976 215.012 199.012 215.012C199.048 215.012 199.096 214.88 199.012 214.663C198.933 214.539 198.814 214.446 198.676 214.398C198.584 214.36 198.486 214.34 198.388 214.34C198.289 214.34 198.191 214.36 198.1 214.398C197.889 214.521 197.713 214.697 197.589 214.908C197.465 215.118 197.397 215.357 197.392 215.602C197.316 216.158 197.378 216.725 197.572 217.252C197.71 217.754 197.993 218.204 198.386 218.544C198.779 218.885 199.264 219.101 199.78 219.166C199.94 219.159 200.098 219.115 200.239 219.038C200.38 218.961 200.502 218.852 200.596 218.72C200.692 218.552 200.68 218.419 200.656 218.419Z" fill="#EB996E"/>
<path d="M221.895 197.061C221.019 202.009 214.695 205.08 209.823 206.272C211.731 203.864 210.399 204.526 211.551 202.852C208.374 206.851 203.866 209.566 198.855 210.498C198.264 209.429 197.893 208.251 197.765 207.036C197.637 205.82 197.754 204.591 198.109 203.422C198.464 202.252 199.049 201.166 199.831 200.229C200.613 199.291 201.575 198.521 202.659 197.964C204.087 197.229 205.671 196.88 207.147 196.242C208.347 195.7 209.547 194.942 210.819 194.496C214.659 193.172 220.863 190.884 221.895 197.061Z" fill="#263238"/>
<path d="M201.399 207.439C201.267 208.138 201.279 216.036 201.279 216.036L198.195 208.993L201.399 207.439Z" fill="#263238"/>
<path d="M176.151 269.867L189.483 250.157C192.017 246.249 195.434 242.994 199.455 240.658C201.584 239.404 203.897 238.494 206.307 237.961C212.228 238.685 218.228 237.562 223.491 234.746C228.29 234.376 233.116 234.836 237.759 236.107L264.159 241.5L260.343 264.738L246.399 262.823L249.423 283.436L257.727 313.536L206.895 323.601L202.383 295.705L198.687 275.61L192.687 284.158L176.151 269.867Z" fill="#455A64"/>
</g>
<path d="M464.428 597.729L464.368 586.652L485.032 586.411L485.296 602.605L484.012 602.701C478.312 603.087 455.008 604.266 451.18 603.147C446.92 601.907 464.428 597.729 464.428 597.729Z" fill="#4F4F4F"/>
<path d="M477.808 602.532C478.093 600.78 479.011 599.194 480.388 598.078C481.735 596.971 483.449 596.412 485.188 596.512L485.26 602.304L477.808 602.532Z" fill="#4F4F4F"/>
<path d="M455.872 600.076C455.872 600.076 449.74 601.93 450.52 602.942C451.3 603.953 474.904 603.652 485.32 602.605V602.135L457.792 602.725C457.792 602.725 457.084 600.112 455.872 600.076Z" fill="#4F4F4F"/>
<path d="M485.584 602.123H485.224L484.204 602.207L480.46 602.412C477.28 602.569 472.9 602.725 468.052 602.785C463.204 602.845 458.824 602.785 455.644 602.785L451.888 602.677H450.868H450.508H451.888H455.656C458.824 602.677 463.204 602.677 468.052 602.677C472.9 602.677 477.28 602.472 480.448 602.364L484.204 602.243H485.224L485.584 602.123Z" fill="#263238"/>
<path d="M457.745 603.051C457.575 602.426 457.334 601.824 457.024 601.257C456.649 600.734 456.214 600.258 455.729 599.836C456.379 600.066 456.92 600.535 457.241 601.148C457.632 601.701 457.811 602.376 457.745 603.051Z" fill="#263238"/>
<path d="M463.805 599.86C463.745 599.86 463.456 599.547 463.144 599.077C462.924 598.807 462.768 598.49 462.688 598.15C462.748 598.15 463.048 598.463 463.348 598.945C463.648 599.427 463.865 599.824 463.805 599.86Z" fill="#263238"/>
<path d="M465.472 598.956C465.472 598.956 465.088 598.788 464.728 598.475C464.368 598.162 464.116 597.861 464.164 597.813C464.212 597.765 464.536 597.969 464.896 598.294C465.256 598.619 465.508 598.908 465.472 598.956Z" fill="#263238"/>
<path d="M466.504 596.982C466.161 597.119 465.791 597.173 465.424 597.139C465.061 597.182 464.693 597.149 464.344 597.042C464.686 596.905 465.056 596.851 465.424 596.886C465.787 596.844 466.154 596.877 466.504 596.982Z" fill="#263238"/>
<path d="M466.852 595.598C466.499 595.841 466.081 595.971 465.652 595.971C465.246 596.042 464.827 595.987 464.452 595.814C464.848 595.746 465.25 595.714 465.652 595.718C466.048 595.645 466.45 595.605 466.852 595.598Z" fill="#263238"/>
<path d="M463.084 598.065C462.643 598.139 462.193 598.139 461.752 598.065C461.272 598.005 460.799 597.904 460.336 597.764C460.052 597.689 459.778 597.58 459.52 597.439C459.361 597.35 459.241 597.204 459.184 597.03C459.164 596.931 459.173 596.829 459.209 596.735C459.245 596.642 459.307 596.56 459.388 596.5C459.889 596.239 460.466 596.164 461.016 596.287C461.567 596.411 462.057 596.725 462.4 597.175C462.61 597.432 462.761 597.732 462.844 598.053C462.87 598.172 462.87 598.296 462.844 598.415C462.699 598.006 462.489 597.623 462.22 597.283C461.912 596.943 461.518 596.693 461.08 596.56C460.82 596.477 460.547 596.446 460.275 596.469C460.003 596.491 459.738 596.568 459.496 596.693C459.28 596.849 459.376 597.102 459.604 597.235C459.845 597.364 460.098 597.469 460.36 597.548C460.806 597.698 461.263 597.811 461.728 597.885C462.58 598.029 463.084 598.029 463.084 598.065Z" fill="#263238"/>
<path d="M462.736 598.138C462.576 597.857 462.516 597.53 462.568 597.211C462.609 596.862 462.733 596.527 462.928 596.235C463.037 596.036 463.194 595.868 463.385 595.746C463.576 595.624 463.794 595.552 464.02 595.537C464.156 595.563 464.277 595.643 464.356 595.758C464.434 595.873 464.465 596.014 464.44 596.151C464.41 596.365 464.337 596.57 464.224 596.753C464.053 597.049 463.843 597.32 463.6 597.56C463.401 597.809 463.141 598 462.844 598.114C462.844 598.114 463.108 597.873 463.468 597.439C463.684 597.194 463.869 596.923 464.02 596.633C464.2 596.356 464.32 595.85 464.02 595.79C463.72 595.73 463.348 596.103 463.144 596.368C462.963 596.627 462.84 596.923 462.784 597.235C462.743 597.534 462.727 597.836 462.736 598.138Z" fill="#263238"/>
<path d="M485.092 596.452C485.092 596.452 484.492 596.452 483.568 596.524C482.352 596.676 481.203 597.168 480.254 597.946C479.305 598.723 478.594 599.754 478.204 600.919C477.904 601.822 477.88 602.412 477.832 602.412C477.811 602.272 477.811 602.13 477.832 601.991C477.87 601.612 477.942 601.237 478.048 600.871C478.402 599.646 479.118 598.558 480.101 597.75C481.085 596.942 482.289 596.451 483.556 596.344C483.935 596.305 484.317 596.305 484.696 596.344C484.832 596.362 484.965 596.398 485.092 596.452Z" fill="#263238"/>
<path d="M482.8 587.904C483.048 590.734 483.12 593.577 483.016 596.417C482.784 593.586 482.712 590.744 482.8 587.904Z" fill="#263238"/>
<path d="M475.18 600.546C473.203 600.945 471.172 600.99 469.18 600.678C469.18 600.606 470.536 600.678 472.204 600.678C473.872 600.678 475.168 600.473 475.18 600.546Z" fill="#263238"/>
<path d="M479.2 600.486C479.2 600.486 479.092 600.775 478.96 601.088C478.828 601.401 478.756 601.678 478.684 601.666C478.612 601.654 478.576 601.341 478.684 600.98C478.792 600.619 479.2 600.438 479.2 600.486Z" fill="#263238"/>
<path d="M480.724 598.56C480.784 598.56 480.652 598.825 480.436 599.042C480.22 599.258 480.017 599.403 479.969 599.355C479.921 599.307 480.041 599.09 480.257 598.873C480.473 598.656 480.676 598.512 480.724 598.56Z" fill="#263238"/>
<path d="M482.896 597.657C482.896 597.729 482.608 597.729 482.308 597.837C482.008 597.946 481.792 598.114 481.732 598.066C481.672 598.018 481.852 597.741 482.224 597.609C482.596 597.476 482.92 597.597 482.896 597.657Z" fill="#263238"/>
<path d="M484.456 597.224C484.456 597.296 484.36 597.404 484.192 597.464C484.024 597.525 483.856 597.549 483.832 597.464C483.808 597.38 483.928 597.296 484.096 597.224C484.264 597.151 484.42 597.163 484.456 597.224Z" fill="#263238"/>
<path d="M570.052 592.01L566.68 581.463L546.964 587.663L551.764 603.135L552.964 602.834C558.508 601.425 581.02 595.285 584.32 593.033C587.992 590.529 570.052 592.01 570.052 592.01Z" fill="#4F4F4F"/>
<path d="M558.82 600.739C558.013 599.158 556.648 597.935 554.992 597.308C553.364 596.67 551.556 596.67 549.928 597.308L551.656 602.834L558.82 600.739Z" fill="#4F4F4F"/>
<path d="M578.908 591.577C578.908 591.577 585.316 591.432 584.908 592.636C584.5 593.84 561.952 600.896 551.74 603.135L551.644 602.69L577.984 594.671C577.984 594.671 577.78 591.986 578.908 591.577Z" fill="#4F4F4F"/>
<path d="M551.296 602.774L551.656 602.701L552.64 602.449L556.24 601.485C559.3 600.643 563.524 599.427 568.144 597.982C572.764 596.537 576.928 595.128 579.928 594.081L583.468 592.805L584.428 592.443C584.541 592.408 584.65 592.36 584.752 592.299L584.404 592.395L583.432 592.708L579.832 593.912C576.82 594.924 572.632 596.32 568.036 597.741C563.44 599.162 559.204 600.426 556.156 601.353L552.556 602.4L551.584 602.689C551.486 602.71 551.39 602.738 551.296 602.774Z" fill="#263238"/>
<path d="M578.044 594.984C578.023 594.339 578.072 593.693 578.188 593.058C578.382 592.443 578.648 591.853 578.98 591.3C578.431 591.714 578.058 592.32 577.936 592.997C577.737 593.652 577.776 594.355 578.044 594.984Z" fill="#263238"/>
<path d="M571.301 593.84C571.373 593.84 571.54 593.43 571.696 592.889C571.852 592.347 571.901 591.889 571.829 591.865C571.635 592.156 571.504 592.484 571.445 592.828C571.322 593.151 571.273 593.496 571.301 593.84Z" fill="#263238"/>
<path d="M569.44 593.503C569.5 593.503 569.752 593.226 569.992 592.817C570.232 592.407 570.388 592.034 570.328 591.998C570.268 591.962 570.028 592.275 569.776 592.684C569.524 593.094 569.38 593.467 569.44 593.503Z" fill="#263238"/>
<path d="M567.856 591.95C568.222 591.96 568.585 591.895 568.924 591.757C569.282 591.683 569.621 591.535 569.92 591.324C569.554 591.298 569.187 591.364 568.852 591.516C568.276 591.685 567.832 591.878 567.856 591.95Z" fill="#263238"/>
<path d="M567.1 590.734C567.49 590.861 567.91 590.861 568.3 590.734C568.724 590.676 569.121 590.491 569.44 590.204C569.032 590.263 568.63 590.36 568.24 590.493C567.854 590.542 567.472 590.622 567.1 590.734Z" fill="#263238"/>
<path d="M571.432 591.901C571.877 591.852 572.309 591.717 572.704 591.504C573.144 591.3 573.565 591.059 573.964 590.782C574.208 590.618 574.433 590.429 574.636 590.216C574.756 590.079 574.824 589.904 574.828 589.722C574.817 589.621 574.777 589.525 574.713 589.446C574.649 589.367 574.564 589.308 574.468 589.277C573.91 589.182 573.336 589.289 572.849 589.577C572.361 589.866 571.991 590.318 571.804 590.854C571.691 591.17 571.642 591.506 571.66 591.841C571.654 591.962 571.679 592.082 571.732 592.19C571.736 591.758 571.817 591.33 571.972 590.926C572.154 590.501 572.454 590.137 572.836 589.879C573.057 589.717 573.307 589.601 573.573 589.537C573.838 589.473 574.114 589.462 574.384 589.505C574.624 589.602 574.624 589.855 574.444 590.059C574.256 590.258 574.047 590.436 573.82 590.589C573.439 590.871 573.038 591.125 572.62 591.348C571.912 591.721 571.42 591.865 571.432 591.901Z" fill="#263238"/>
<path d="M571.78 591.865C571.853 591.552 571.811 591.222 571.66 590.938C571.52 590.616 571.301 590.334 571.024 590.119C570.865 589.972 570.673 589.865 570.464 589.808C570.255 589.751 570.035 589.747 569.824 589.794C569.763 589.827 569.71 589.872 569.667 589.925C569.624 589.979 569.592 590.04 569.573 590.107C569.554 590.173 569.548 590.242 569.556 590.31C569.564 590.379 569.586 590.445 569.62 590.505C569.708 590.701 569.839 590.873 570.004 591.01C570.26 591.235 570.542 591.429 570.844 591.588C571.109 591.761 571.415 591.861 571.732 591.877C571.732 591.877 571.408 591.733 570.928 591.432C570.653 591.261 570.395 591.064 570.16 590.842C569.908 590.625 569.632 590.18 569.932 590.023C570.11 589.99 570.293 589.998 570.467 590.046C570.642 590.094 570.803 590.181 570.94 590.3C571.193 590.489 571.401 590.732 571.552 591.01C571.661 591.285 571.738 591.572 571.78 591.865Z" fill="#263238"/>
<path d="M550 597.223C550 597.223 550.552 596.995 551.476 596.826C552.678 596.587 553.923 596.696 555.066 597.139C556.209 597.582 557.203 598.342 557.932 599.33C558.496 600.089 558.7 600.655 558.748 600.631C558.727 600.493 558.687 600.359 558.628 600.233C558.479 599.882 558.294 599.547 558.076 599.234C557.359 598.182 556.342 597.371 555.157 596.909C553.973 596.447 552.677 596.355 551.44 596.646C551.069 596.736 550.708 596.861 550.36 597.019C550.23 597.067 550.108 597.136 550 597.223Z" fill="#263238"/>
<path d="M549.496 588.35C550.128 591.118 550.93 593.844 551.896 596.513C551.602 595.121 551.234 593.747 550.792 592.395C550.441 591.022 550.009 589.671 549.496 588.35Z" fill="#263238"/>
<path d="M560.704 598.03C561.718 597.948 562.717 597.742 563.68 597.415C564.661 597.156 565.604 596.771 566.488 596.272C566.488 596.212 565.192 596.693 563.608 597.175C562.024 597.656 560.692 597.957 560.704 598.03Z" fill="#263238"/>
<path d="M556.84 599.234C556.84 599.234 557.032 599.475 557.248 599.728C557.464 599.981 557.632 600.221 557.692 600.197C557.752 600.173 557.692 599.86 557.44 599.559C557.188 599.258 556.864 599.174 556.84 599.234Z" fill="#263238"/>
<path d="M554.8 597.874C554.8 597.934 554.956 598.103 555.232 598.247C555.508 598.391 555.748 598.452 555.772 598.391C555.796 598.331 555.616 598.163 555.352 598.018C555.088 597.874 554.8 597.814 554.8 597.874Z" fill="#263238"/>
<path d="M552.472 597.693C552.472 597.753 552.76 597.693 553.084 597.693C553.408 597.693 553.672 597.801 553.708 597.693C553.744 597.584 553.492 597.416 553.096 597.404C552.7 597.392 552.4 597.633 552.472 597.693Z" fill="#263238"/>
<path d="M550.864 597.765C550.864 597.837 551.008 597.897 551.188 597.909C551.368 597.921 551.524 597.909 551.524 597.813C551.524 597.716 551.392 597.68 551.2 597.668C551.008 597.656 550.864 597.692 550.864 597.765Z" fill="#263238"/>
<path d="M450.364 377.866L460.012 592.961L492.196 593.635L486.856 413.565L545.176 595.778L571.48 588.554L512.788 377.866" fill="#263238"/>
<path d="M543.796 594.563L545.296 597.452L573.172 589.301L571.48 584.605L543.796 594.563Z" fill="#455A64"/>
<path d="M568.264 583.533C568.432 583.533 568.684 583.834 568.828 584.304C568.972 584.773 568.948 585.219 568.828 585.267C568.708 585.315 568.42 584.966 568.276 584.484C568.132 584.003 568.096 583.581 568.264 583.533Z" fill="#455A64"/>
<path d="M566.176 576.551C566.344 576.551 566.716 577.237 567.004 578.2C567.292 579.163 567.388 579.994 567.22 580.042C567.052 580.091 566.692 579.356 566.404 578.381C566.116 577.406 566.008 576.599 566.176 576.551Z" fill="#455A64"/>
<path d="M564.088 569.567C564.256 569.567 564.628 570.254 564.916 571.217C565.204 572.18 565.3 573.011 565.132 573.059C564.964 573.107 564.604 572.361 564.316 571.397C564.028 570.434 563.92 569.616 564.088 569.567Z" fill="#455A64"/>
<path d="M562 562.62C562.168 562.62 562.54 563.306 562.828 564.27C563.116 565.233 563.212 566.064 563.044 566.112C562.876 566.16 562.516 565.413 562.228 564.45C561.94 563.487 561.832 562.62 562 562.62Z" fill="#455A64"/>
<path d="M559.912 555.601C560.08 555.601 560.452 556.287 560.74 557.25C561.028 558.213 561.124 559.044 560.956 559.092C560.788 559.14 560.428 558.394 560.14 557.431C559.852 556.467 559.756 555.649 559.912 555.601Z" fill="#455A64"/>
<path d="M557.824 548.618C557.992 548.557 558.364 549.304 558.652 550.267C558.94 551.23 559.036 552.049 558.868 552.109C558.7 552.169 558.34 551.411 558.052 550.448C557.764 549.485 557.668 548.666 557.824 548.618Z" fill="#455A64"/>
<path d="M555.736 541.622C555.904 541.622 556.276 542.32 556.564 543.284C556.852 544.247 556.948 545.066 556.78 545.126C556.612 545.186 556.252 544.427 555.964 543.464C555.676 542.501 555.58 541.682 555.736 541.622Z" fill="#455A64"/>
<path d="M553.6 534.64C553.768 534.64 554.14 535.338 554.428 536.301C554.716 537.264 554.812 538.083 554.644 538.131C554.476 538.179 554.116 537.445 553.828 536.482C553.54 535.519 553.492 534.7 553.6 534.64Z" fill="#455A64"/>
<path d="M551.56 527.704C551.728 527.704 552.1 528.402 552.388 529.366C552.676 530.329 552.772 531.148 552.604 531.196C552.436 531.244 552.076 530.509 551.788 529.546C551.5 528.583 551.404 527.704 551.56 527.704Z" fill="#455A64"/>
<path d="M549.472 520.673C549.64 520.673 550.012 521.371 550.3 522.334C550.588 523.298 550.684 524.116 550.516 524.164C550.348 524.213 549.988 523.478 549.7 522.515C549.412 521.552 549.316 520.721 549.472 520.673Z" fill="#455A64"/>
<path d="M547.396 513.689C547.552 513.689 547.924 514.388 548.212 515.351C548.5 516.314 548.596 517.133 548.44 517.181C548.284 517.229 547.9 516.495 547.612 515.532C547.324 514.568 547.228 513.738 547.396 513.689Z" fill="#455A64"/>
<path d="M545.308 506.706C545.464 506.706 545.836 507.392 546.124 508.368C546.412 509.343 546.508 510.149 546.352 510.198C546.196 510.246 545.812 509.511 545.524 508.548C545.236 507.585 545.2 506.754 545.308 506.706Z" fill="#455A64"/>
<path d="M543.22 499.724C543.376 499.724 543.748 500.41 544.036 501.373C544.324 502.336 544.42 503.167 544.264 503.215C544.108 503.263 543.724 502.529 543.436 501.554C543.148 500.578 543.052 499.772 543.22 499.724Z" fill="#455A64"/>
<path d="M541.132 492.788C541.288 492.788 541.66 493.474 541.948 494.438C542.236 495.401 542.332 496.232 542.176 496.28C542.02 496.328 541.636 495.581 541.348 494.618C541.06 493.655 540.964 492.788 541.132 492.788Z" fill="#455A64"/>
<path d="M539.044 485.757C539.2 485.757 539.572 486.443 539.86 487.406C540.148 488.37 540.244 489.2 540.088 489.248C539.932 489.297 539.548 488.55 539.26 487.587C538.972 486.624 538.876 485.805 539.044 485.757Z" fill="#455A64"/>
<path d="M536.956 478.773C537.124 478.773 537.484 479.46 537.772 480.423C538.06 481.386 538.168 482.217 538 482.265C537.832 482.313 537.46 481.567 537.172 480.604C536.884 479.64 536.8 478.822 536.956 478.773Z" fill="#455A64"/>
<path d="M534.868 471.791C535.036 471.73 535.396 472.477 535.684 473.44C535.972 474.403 536.08 475.222 535.912 475.282C535.744 475.342 535.372 474.584 535.084 473.621C534.796 472.657 534.7 471.839 534.868 471.791Z" fill="#455A64"/>
<path d="M532.78 464.795C532.948 464.795 533.308 465.493 533.596 466.456C533.884 467.42 533.992 468.238 533.824 468.299C533.656 468.359 533.284 467.6 532.996 466.637C532.708 465.674 532.612 464.855 532.78 464.795Z" fill="#455A64"/>
<path d="M530.692 457.872C530.86 457.872 531.22 458.57 531.508 459.534C531.796 460.497 531.904 461.316 531.736 461.364C531.568 461.412 531.196 460.677 530.908 459.714C530.62 458.751 530.524 457.872 530.692 457.872Z" fill="#455A64"/>
<path d="M528.605 450.829C528.773 450.829 529.133 451.527 529.421 452.491C529.709 453.454 529.817 454.273 529.649 454.321C529.481 454.369 529.109 453.634 528.821 452.671C528.533 451.708 528.401 450.877 528.605 450.829Z" fill="#455A64"/>
<path d="M526.516 443.846C526.684 443.846 527.044 444.544 527.332 445.507C527.62 446.47 527.728 447.289 527.56 447.337C527.392 447.385 527.032 446.651 526.732 445.688C526.432 444.725 526.348 443.894 526.516 443.846Z" fill="#455A64"/>
<path d="M524.428 436.862C524.596 436.862 524.956 437.561 525.244 438.524C525.532 439.487 525.64 440.306 525.472 440.354C525.304 440.402 524.944 439.668 524.656 438.704C524.368 437.741 524.26 436.91 524.428 436.862Z" fill="#455A64"/>
<path d="M522.4 429.879C522.568 429.879 522.928 430.565 523.216 431.54C523.504 432.516 523.612 433.322 523.444 433.37C523.276 433.419 522.916 432.684 522.628 431.721C522.34 430.758 522.172 429.927 522.4 429.879Z" fill="#455A64"/>
<path d="M520.252 422.956C520.42 422.956 520.78 423.642 521.08 424.606C521.38 425.569 521.464 426.399 521.296 426.448C521.128 426.496 520.768 425.761 520.48 424.786C520.192 423.811 520.084 422.956 520.252 422.956Z" fill="#455A64"/>
<path d="M518.164 415.913C518.332 415.913 518.704 416.599 518.992 417.563C519.28 418.526 519.376 419.357 519.208 419.405C519.04 419.453 518.68 418.706 518.392 417.743C518.104 416.78 517.996 415.961 518.164 415.913Z" fill="#455A64"/>
<path d="M516.076 408.93C516.244 408.93 516.616 409.616 516.904 410.579C517.192 411.542 517.288 412.373 517.12 412.421C516.952 412.469 516.592 411.723 516.304 410.76C516.016 409.797 515.908 408.978 516.076 408.93Z" fill="#455A64"/>
<path d="M514 401.946C514.168 401.946 514.54 402.633 514.828 403.596C515.116 404.559 515.212 405.39 515.044 405.438C514.876 405.486 514.516 404.74 514.228 403.776C513.94 402.813 513.82 401.994 514 401.946Z" fill="#455A64"/>
<path d="M511.9 394.963C512.068 394.903 512.44 395.65 512.728 396.613C513.016 397.576 513.112 398.395 512.944 398.455C512.776 398.515 512.416 397.757 512.128 396.793C511.84 395.83 511.732 395.012 511.9 394.963Z" fill="#455A64"/>
<path d="M509.812 387.968C509.98 387.968 510.352 388.666 510.64 389.629C510.928 390.592 511.024 391.411 510.856 391.471C510.688 391.532 510.328 390.773 510.04 389.81C509.752 388.847 509.656 388.04 509.812 387.968Z" fill="#455A64"/>
<path d="M508.252 382.755C508.42 382.755 508.672 383.044 508.816 383.525C508.96 384.007 508.936 384.428 508.816 384.477C508.696 384.525 508.408 384.188 508.264 383.706C508.12 383.224 508.084 382.803 508.252 382.755Z" fill="#455A64"/>
<path d="M486.652 591.877C486.82 591.877 486.976 592.262 487.012 592.756C487.048 593.25 486.916 593.671 486.736 593.683C486.556 593.695 486.412 593.298 486.388 592.792C486.364 592.286 486.472 591.889 486.652 591.877Z" fill="#455A64"/>
<path d="M486.4 584.714C486.568 584.714 486.748 585.496 486.784 586.496C486.82 587.495 486.712 588.29 486.532 588.29C486.352 588.29 486.196 587.507 486.16 586.52C486.124 585.533 486.184 584.714 486.4 584.714Z" fill="#455A64"/>
<path d="M486.136 577.55C486.304 577.55 486.472 578.332 486.496 579.332C486.52 580.331 486.412 581.126 486.232 581.126C486.052 581.126 485.896 580.331 485.872 579.344C485.848 578.357 485.956 577.55 486.136 577.55Z" fill="#455A64"/>
<path d="M485.956 570.374C486.124 570.374 486.28 571.169 486.304 572.156C486.328 573.143 486.208 573.95 486.04 573.962C485.872 573.974 485.704 573.167 485.68 572.18C485.656 571.193 485.776 570.374 485.956 570.374Z" fill="#455A64"/>
<path d="M485.776 563.198C485.956 563.198 486.112 563.993 486.136 564.992C486.16 565.992 486.04 566.786 485.872 566.786C485.704 566.786 485.536 565.992 485.512 565.004C485.488 564.017 485.608 563.21 485.776 563.198Z" fill="#455A64"/>
<path d="M485.596 556.022C485.764 556.022 485.932 556.817 485.956 557.816C485.98 558.816 485.86 559.61 485.692 559.61C485.524 559.61 485.356 558.816 485.332 557.828C485.308 556.841 485.428 556.035 485.596 556.022Z" fill="#455A64"/>
<path d="M485.356 548.858C485.536 548.858 485.704 549.641 485.74 550.64C485.776 551.64 485.656 552.434 485.488 552.446C485.32 552.458 485.14 551.652 485.116 550.664C485.092 549.677 485.2 548.858 485.356 548.858Z" fill="#455A64"/>
<path d="M485.056 541.694C485.236 541.694 485.404 542.477 485.452 543.464C485.5 544.451 485.38 545.27 485.212 545.27C485.044 545.27 484.864 544.488 484.816 543.488C484.768 542.489 484.888 541.694 485.056 541.694Z" fill="#455A64"/>
<path d="M484.78 534.519C484.948 534.519 485.128 535.313 485.164 536.3C485.2 537.288 485.092 538.094 484.912 538.106C484.732 538.119 484.576 537.312 484.54 536.325C484.504 535.337 484.612 534.531 484.78 534.519Z" fill="#455A64"/>
<path d="M484.528 527.355C484.708 527.355 484.876 528.15 484.9 529.137C484.924 530.125 484.828 530.931 484.648 530.943C484.468 530.955 484.312 530.149 484.276 529.161C484.24 528.174 484.36 527.368 484.528 527.355Z" fill="#455A64"/>
<path d="M484.312 520.179C484.48 520.179 484.648 520.973 484.672 521.961C484.696 522.948 484.588 523.755 484.42 523.767C484.252 523.779 484.084 522.972 484.048 521.985C484.012 520.997 484.144 520.191 484.312 520.179Z" fill="#455A64"/>
<path d="M484.12 513.016C484.3 513.016 484.456 513.81 484.48 514.798C484.504 515.785 484.384 516.592 484.216 516.592C484.048 516.592 483.88 515.797 483.856 514.81C483.832 513.822 484 513.016 484.12 513.016Z" fill="#455A64"/>
<path d="M484 505.84C484.168 505.84 484.324 506.634 484.348 507.634C484.372 508.633 484.24 509.428 484.072 509.428C483.904 509.428 483.736 508.633 483.724 507.646C483.712 506.659 483.796 505.84 484 505.84Z" fill="#455A64"/>
<path d="M483.856 498.676C484.024 498.676 484.18 499.47 484.192 500.458C484.204 501.445 484.084 502.252 483.904 502.252C483.724 502.252 483.58 501.457 483.568 500.47C483.556 499.482 483.676 498.676 483.856 498.676Z" fill="#455A64"/>
<path d="M483.76 491.5C483.94 491.5 484.084 492.295 484.096 493.294C484.108 494.293 483.976 495.088 483.808 495.088C483.64 495.088 483.484 494.281 483.472 493.294C483.46 492.307 483.592 491.5 483.76 491.5Z" fill="#455A64"/>
<path d="M483.712 484.36C483.892 484.36 484.036 485.167 484.036 486.154C484.036 487.142 483.904 487.948 483.736 487.948C483.568 487.948 483.424 487.154 483.412 486.154C483.4 485.155 483.544 484.36 483.712 484.36Z" fill="#455A64"/>
<path d="M483.7 477.136C483.868 477.136 484.012 477.93 484.012 478.93C484.012 479.929 483.88 480.712 483.7 480.724C483.52 480.736 483.388 479.917 483.388 478.93C483.388 477.942 483.532 477.136 483.7 477.136Z" fill="#455A64"/>
<path d="M483.724 469.984C483.892 469.984 484.024 470.791 484.024 471.778C484.024 472.766 483.88 473.572 483.7 473.572C483.52 473.572 483.4 472.766 483.4 471.778C483.4 470.791 483.544 469.984 483.724 469.984Z" fill="#455A64"/>
<path d="M483.772 462.809C483.952 462.809 484.084 463.615 484.072 464.603C484.06 465.59 483.916 466.396 483.748 466.396C483.58 466.396 483.436 465.59 483.448 464.603C483.46 463.615 483.604 462.809 483.772 462.809Z" fill="#455A64"/>
<path d="M483.868 455.645C484.036 455.645 484.168 456.451 484.156 457.439C484.144 458.426 483.988 459.232 483.82 459.232C483.652 459.232 483.52 458.426 483.532 457.426C483.544 456.427 483.7 455.645 483.868 455.645Z" fill="#455A64"/>
<path d="M484 448.469C484.168 448.469 484.288 449.287 484.276 450.275C484.264 451.262 484.096 452.057 483.928 452.057C483.76 452.057 483.628 451.25 483.652 450.263C483.676 449.275 483.82 448.469 484 448.469Z" fill="#455A64"/>
<path d="M484.156 441.293C484.324 441.293 484.444 442.112 484.42 443.099C484.396 444.086 484.24 444.893 484.072 444.881C483.904 444.869 483.772 444.074 483.796 443.087C483.82 442.1 484 441.293 484.156 441.293Z" fill="#455A64"/>
<path d="M484.408 434.117C484.576 434.117 484.684 434.936 484.648 435.923C484.612 436.91 484.444 437.717 484.264 437.705C484.084 437.693 483.988 436.898 484.024 435.899C484.06 434.9 484.24 434.117 484.408 434.117Z" fill="#455A64"/>
<path d="M484.828 426.965C484.996 426.965 485.08 427.784 485.02 428.771C484.96 429.759 484.768 430.553 484.588 430.541C484.408 430.529 484.336 429.723 484.396 428.723C484.456 427.724 484.648 426.941 484.828 426.965Z" fill="#455A64"/>
<path d="M485.476 419.814C485.656 419.814 485.704 420.644 485.608 421.632C485.512 422.619 485.284 423.401 485.116 423.389C484.948 423.377 484.888 422.559 484.984 421.571C485.08 420.584 485.308 419.802 485.476 419.814Z" fill="#455A64"/>
<path d="M486.172 414.529C486.34 414.529 486.424 414.974 486.352 415.456C486.28 415.937 486.088 416.335 485.92 416.311C485.752 416.286 485.668 415.865 485.728 415.371C485.788 414.878 486.004 414.456 486.172 414.529Z" fill="#455A64"/>
<path d="M459.172 594.008L493.204 594.562L492.94 588.867L459.172 589.048V594.008Z" fill="#455A64"/>
<path d="M481.492 380.588C481.612 381.016 481.68 381.456 481.696 381.9C481.78 382.755 481.9 383.983 482.02 385.512C482.26 388.558 482.56 392.736 482.836 397.408C482.98 399.719 483.1 401.935 483.22 403.958C483.199 405.723 483.409 407.484 483.844 409.195C484.198 410.312 484.979 411.243 486.016 411.784C486.405 411.937 486.807 412.057 487.216 412.145C487.101 412.172 486.982 412.172 486.868 412.145C486.531 412.145 486.198 412.084 485.884 411.964C485.308 411.716 484.79 411.352 484.36 410.894C483.931 410.436 483.6 409.895 483.388 409.303C482.881 407.562 482.618 405.759 482.608 403.945C482.476 401.923 482.332 399.707 482.188 397.396C481.9 392.748 481.672 388.546 481.54 385.5C481.468 383.971 481.432 382.743 481.42 381.888C481.385 381.454 481.409 381.016 481.492 380.588Z" fill="#455A64"/>
<path d="M484.792 383.441C484.792 383.526 484.528 383.742 484.492 384.248C484.483 384.381 484.501 384.515 484.544 384.641C484.587 384.767 484.655 384.883 484.744 384.982C484.858 385.08 484.998 385.144 485.147 385.165C485.295 385.186 485.447 385.165 485.584 385.103C485.727 385.053 485.853 384.963 485.946 384.843C486.04 384.724 486.098 384.58 486.112 384.429C486.107 384.295 486.074 384.165 486.016 384.044C485.958 383.924 485.877 383.817 485.776 383.73C485.404 383.381 485.02 383.453 485.008 383.357C484.996 383.261 485.404 382.996 486.04 383.357C486.221 383.47 486.373 383.624 486.485 383.805C486.598 383.987 486.667 384.192 486.688 384.405C486.688 384.684 486.605 384.956 486.449 385.188C486.293 385.419 486.071 385.598 485.813 385.701C485.555 385.805 485.271 385.829 485 385.769C484.728 385.71 484.48 385.57 484.288 385.368C484.152 385.203 484.057 385.007 484.011 384.798C483.965 384.588 483.969 384.371 484.024 384.164C484.264 383.465 484.792 383.369 484.792 383.441Z" fill="#455A64"/>
<path d="M515.08 388.546C514.28 389.092 513.363 389.443 512.404 389.57C510.094 390.036 507.697 389.768 505.547 388.804C503.396 387.839 501.598 386.226 500.404 384.188C499.854 383.387 499.501 382.467 499.372 381.503C499.48 381.503 499.804 382.514 500.776 383.911C502.006 385.791 503.747 387.278 505.793 388.198C507.838 389.117 510.103 389.43 512.32 389.1C514 388.895 515.044 388.45 515.08 388.546Z" fill="#455A64"/>
<path d="M461.56 380.588C461.717 381.364 461.676 382.168 461.44 382.924C461.005 384.792 459.998 386.476 458.56 387.74C457.114 389.006 455.31 389.788 453.4 389.979C452.624 390.114 451.827 390.048 451.084 389.786C451.084 389.678 451.984 389.786 453.352 389.534C455.129 389.237 456.79 388.454 458.152 387.27C459.493 386.064 460.484 384.516 461.02 382.791C461.428 381.479 461.452 380.588 461.56 380.588Z" fill="#455A64"/>
<path d="M456.772 287.073C456.772 287.073 424.708 300.678 423.688 300.16C422.668 299.642 421.948 273.732 421.948 273.732H406C406 273.732 402.976 312.164 412.588 318.28C425.728 326.708 457.54 309.178 457.54 309.178L456.772 287.073Z" fill="#FFBE9D"/>
<path d="M349.696 240.659L346.408 255.034L361.792 258.707C361.792 258.707 368.116 260.115 374.404 269.109C380.692 278.103 383.128 282.088 383.128 282.088L393.784 229.257L382.216 237.54C379.923 239.158 377.376 240.379 374.68 241.152C371.38 242.116 366.976 243.211 364.516 243.091C359.528 242.609 354.577 241.797 349.696 240.659Z" fill="#263238"/>
<path d="M522.316 301.978L383.128 282.088L393.784 229.257L529.12 262.006C530.577 262.357 531.848 263.249 532.676 264.502C533.504 265.755 533.829 267.277 533.584 268.76L529.012 297.03C528.749 298.563 527.905 299.934 526.657 300.857C525.409 301.779 523.853 302.181 522.316 301.978Z" fill="#FAA21E"/>
<path d="M337.276 241.333C337.18 241.315 337.081 241.322 336.987 241.351C336.894 241.381 336.809 241.433 336.74 241.503C336.672 241.573 336.621 241.659 336.593 241.753C336.565 241.847 336.561 241.947 336.58 242.043C337.163 245.168 337.928 248.256 338.872 251.29C339.196 252.121 346.9 252.867 346.9 252.867L349.024 243.585L337.276 241.333Z" fill="#FAA21E"/>
<path d="M511.144 283.785L513.268 275.249L423.352 256.948L421.516 265.533L511.144 283.785Z" fill="#263238"/>
<path d="M493.672 283.497L473.8 281.896C473.668 279.572 473.8 270.566 473.8 270.566C473.8 270.566 465.532 269.278 465.4 260.934C465.268 252.591 466.732 233.603 466.732 233.603C471.427 231.573 476.578 230.838 481.651 231.473C486.725 232.108 491.538 234.09 495.592 237.215L496.792 238.167L493.672 283.497Z" fill="#FFBE9D"/>
<path d="M468.7 247.895C468.915 247.676 469.037 247.383 469.044 247.076C469.05 246.769 468.939 246.471 468.733 246.244C468.528 246.016 468.244 245.876 467.939 245.851C467.634 245.827 467.331 245.921 467.092 246.113C466.974 246.219 466.878 246.348 466.81 246.492C466.742 246.635 466.703 246.791 466.695 246.95C466.687 247.109 466.711 247.268 466.765 247.418C466.818 247.568 466.901 247.705 467.008 247.823C467.224 248.057 467.522 248.196 467.84 248.209C468.157 248.223 468.466 248.11 468.7 247.895Z" fill="#263238"/>
<path d="M466.696 245.968C466.828 246.112 467.644 245.486 468.772 245.486C469.9 245.486 470.74 246.064 470.872 245.92C471.004 245.775 470.8 245.595 470.44 245.318C469.953 244.971 469.37 244.786 468.772 244.788C468.172 244.794 467.591 244.997 467.116 245.366C466.756 245.679 466.636 245.968 466.696 245.968Z" fill="#263238"/>
<path d="M479.812 247.003C479.671 247.083 479.547 247.19 479.448 247.319C479.349 247.447 479.277 247.595 479.237 247.752C479.196 247.909 479.188 248.073 479.212 248.234C479.236 248.394 479.292 248.549 479.377 248.687C479.462 248.825 479.575 248.945 479.707 249.038C479.839 249.132 479.989 249.198 480.148 249.232C480.306 249.266 480.47 249.267 480.629 249.236C480.787 249.205 480.938 249.141 481.072 249.05C481.342 248.883 481.535 248.616 481.609 248.307C481.683 247.998 481.633 247.672 481.468 247.401C481.386 247.265 481.278 247.147 481.15 247.054C481.022 246.96 480.877 246.893 480.723 246.856C480.569 246.819 480.409 246.813 480.253 246.839C480.097 246.864 479.947 246.92 479.812 247.003Z" fill="#263238"/>
<path d="M479.068 247.015C479.188 247.16 480.004 246.534 481.144 246.522C482.284 246.51 483.112 247.112 483.232 246.967C483.352 246.823 483.172 246.642 482.812 246.365C482.324 246.01 481.734 245.824 481.132 245.835C480.534 245.843 479.954 246.041 479.476 246.401C479.128 246.69 478.996 246.955 479.068 247.015Z" fill="#263238"/>
<path d="M474.496 256.431C473.909 256.201 473.289 256.071 472.66 256.045C472.36 256.045 472.132 255.949 472.108 255.781C472.096 255.482 472.166 255.186 472.312 254.926C472.612 254.179 472.912 253.409 473.224 252.602C474.072 250.641 474.724 248.6 475.168 246.51C474.121 248.373 473.265 250.337 472.612 252.373C472.324 253.18 472.036 253.95 471.76 254.781C471.578 255.155 471.519 255.576 471.592 255.985C471.636 256.098 471.706 256.199 471.795 256.28C471.885 256.361 471.992 256.421 472.108 256.455C472.272 256.498 472.442 256.522 472.612 256.527C473.24 256.607 473.878 256.575 474.496 256.431Z" fill="#263238"/>
<path d="M478.192 257.696C479.392 256.985 474.928 259.441 472.612 259.321C473.006 259.913 473.588 260.355 474.263 260.574C474.939 260.792 475.668 260.775 476.332 260.525C478.804 259.67 478.192 257.696 478.192 257.696Z" fill="white"/>
<path d="M473.824 270.445C477.649 270.524 481.409 269.455 484.624 267.375C484.624 267.375 482.08 273.395 473.824 272.6V270.445Z" fill="#EB996E"/>
<path d="M496.912 246.257C497.092 246.197 503.068 245.8 502.084 252.783C501.1 259.766 494.38 256.467 494.392 256.263C494.404 256.058 496.912 246.257 496.912 246.257Z" fill="#FFBE9D"/>
<path d="M496.876 254.107C496.876 254.107 496.984 254.216 497.176 254.336C497.311 254.419 497.461 254.475 497.617 254.5C497.774 254.525 497.934 254.518 498.088 254.481C498.579 254.261 499.003 253.913 499.313 253.472C499.624 253.031 499.81 252.514 499.852 251.976C499.952 251.379 499.923 250.767 499.768 250.182C499.733 249.956 499.643 249.741 499.508 249.556C499.372 249.372 499.193 249.223 498.988 249.123C498.853 249.067 498.703 249.059 498.563 249.101C498.424 249.142 498.302 249.231 498.22 249.352C498.1 249.532 498.124 249.677 498.088 249.689C498.052 249.701 497.956 249.556 498.088 249.267C498.148 249.098 498.267 248.957 498.424 248.87C498.637 248.755 498.886 248.725 499.12 248.786C499.39 248.88 499.632 249.039 499.827 249.249C500.021 249.459 500.162 249.713 500.236 249.99C500.443 250.639 500.492 251.328 500.38 252C500.326 252.629 500.088 253.228 499.695 253.721C499.302 254.214 498.772 254.579 498.172 254.77C497.977 254.798 497.779 254.782 497.591 254.721C497.404 254.661 497.233 254.558 497.092 254.42C496.864 254.288 496.852 254.119 496.876 254.107Z" fill="#EB996E"/>
<path d="M466.816 233.398C468.964 239.093 477.196 241.345 483.244 241.682C480.448 239.214 482.176 239.731 480.448 237.998C485.114 242.047 491.078 244.274 497.248 244.271C497.711 242.864 497.888 241.379 497.769 239.902C497.65 238.426 497.237 236.989 496.554 235.675C495.872 234.362 494.934 233.199 493.796 232.256C492.657 231.313 491.342 230.608 489.928 230.184C488.068 229.618 486.088 229.57 484.192 229.124C482.596 228.751 481.06 228.113 479.392 227.92C474.52 227.198 466.612 225.873 466.744 233.447" fill="#263238"/>
<path d="M493.6 241.152C493.912 241.959 495.652 251.374 495.652 251.374L497.764 242.296L493.6 241.152Z" fill="#263238"/>
<path d="M552.7 357.591C555.895 353.904 557.647 349.178 557.629 344.293C557.611 339.407 555.826 334.694 552.604 331.031L520.516 294.525L511.924 318.605C512.512 318.991 536.908 345.238 536.908 345.238L515.944 371.461C514.352 373.448 513.288 375.808 512.852 378.32C512.415 380.832 512.62 383.414 513.448 385.825L519.052 399.586L534.4 392.687L533.2 390.894H521.692L521.008 388.124L552.7 357.591Z" fill="#FFBE9D"/>
<path d="M537.496 309.961L517.228 289.493C513.323 285.397 508.52 282.273 503.2 280.366C500.38 279.356 497.421 278.787 494.428 278.681C487.537 280.872 480.139 280.872 473.248 278.681C467.447 279.316 461.797 280.945 456.544 283.497L426.292 295.814L436 322.663L452.236 317.185L453.196 342.469L449.98 380.238L512.8 380.816L511.984 346.55V321.772L521.056 330.621L537.496 309.961Z" fill="#455A64"/>
</svg>
