<svg width="276" height="226" viewBox="0 0 276 226" fill="none" xmlns="http://www.w3.org/2000/svg">
<path d="M0 43.7704C0 32.904 7.93359 23.6654 18.6752 22.0231L155.608 1.08825C160.233 0.381204 164.963 1.16687 169.11 3.33114L262.119 51.8627C270.428 56.1984 275.078 65.3222 273.704 74.5932L254.509 204.078C252.724 216.122 241.496 224.425 229.457 222.604L136.259 208.508C134.2 208.196 132.107 208.179 130.043 208.456L24.9256 222.56C11.7312 224.33 0 214.068 0 200.755V43.7704Z" fill="#FAA21E"/>
<path d="M211.718 74.2054C212 72.1654 209.095 70.4478 206.908 70.2723C205.868 70.1907 204.787 70.3498 203.799 70.003C201.661 69.2605 200.804 66.4983 198.72 65.617C197.161 64.9602 195.362 65.5436 193.852 66.3066C192.343 67.0695 190.845 68.0242 189.156 68.1344C187.687 68.2282 186.088 67.6815 184.803 68.3996C183.844 68.9341 183.342 70.0316 182.461 70.6885C181.58 71.3454 180.47 71.4637 179.397 71.5045C178.324 71.5453 177.218 71.5738 176.239 72.0186C175.26 72.4633 174.456 73.4996 174.66 74.5522L211.718 74.2054Z" fill="#EBEBEB"/>
<path d="M122.057 55.2953C122.343 53.2553 119.434 51.5417 117.251 51.3622C116.21 51.2806 115.125 51.4397 114.142 51.097C112 50.3503 111.147 47.5882 109.062 46.7069C107.5 46.05 105.704 46.6334 104.195 47.3964C102.685 48.1594 101.188 49.1141 99.4946 49.2242C98.0258 49.3181 96.4306 48.7714 95.1454 49.4894C94.1866 50.0239 93.6847 51.1214 92.8034 51.7783C91.9222 52.4352 90.8124 52.5535 89.7394 52.5943C88.6663 52.6351 87.5566 52.6637 86.5814 53.1125C85.6063 53.5613 84.7985 54.5894 85.0025 55.6421L122.057 55.2953Z" fill="#EBEBEB"/>
<path d="M82.1217 119.832C82.4032 117.772 79.4982 116.075 77.3113 115.899C76.2709 115.818 75.1857 115.977 74.2024 115.63C72.0645 114.887 71.2077 112.125 69.1228 111.244C67.5601 110.587 65.7649 111.171 64.2553 111.934C62.7457 112.696 61.2321 113.631 59.5593 113.737C58.0864 113.835 56.4911 113.288 55.2059 114.006C54.2471 114.541 53.7453 115.638 52.864 116.295C51.9827 116.952 50.8729 117.07 49.7999 117.111C48.7269 117.152 47.6171 117.18 46.642 117.625C45.6669 118.07 44.859 119.106 45.063 120.159L82.1217 119.832Z" fill="#EBEBEB"/>
<path d="M156.362 91.9667C156.537 90.706 154.758 89.6696 153.424 89.5636C152.788 89.5105 152.127 89.6084 151.523 89.4004C150.217 88.9434 149.695 87.2543 148.418 86.7157C147.467 86.3077 146.378 86.6749 145.444 87.1237C144.509 87.5725 143.608 88.1723 142.588 88.2376C141.69 88.2947 140.715 87.9642 139.927 88.4008C139.344 88.7272 139.038 89.4044 138.495 89.8002C137.935 90.1479 137.286 90.3251 136.627 90.3102C135.969 90.2919 135.315 90.3985 134.697 90.6244C134.39 90.7431 134.13 90.9579 133.956 91.2366C133.782 91.5154 133.702 91.8431 133.73 92.1707L156.362 91.9667Z" fill="#EBEBEB"/>
<path d="M229.238 205.182C229.238 205.239 185.272 205.288 131.041 205.288C76.8092 205.288 32.835 205.239 32.835 205.182C32.835 205.125 76.797 205.076 131.041 205.076C185.284 205.076 229.238 205.125 229.238 205.182Z" fill="#263238"/>
<path d="M159.177 174.484L190.022 205.084L196.044 205.068L198.186 174.484H159.177Z" fill="#E0E0E0"/>
<path d="M184.256 177.381L153.175 205.084L174.884 205.051L193.183 189.662L184.256 177.381Z" fill="#E0E0E0"/>
<path d="M181.335 98.2125L219.646 133.729L220.319 96.8906L181.335 98.2125Z" fill="#E0E0E0"/>
<path d="M207.145 99.7461L103.525 205.067H123.942L216.484 111.717L207.145 99.7461Z" fill="#E0E0E0"/>
<path d="M72.6846 138.748L109.772 175.541L111.693 138.748H72.6846Z" fill="#E0E0E0"/>
<path d="M98.4293 141.154L31.8438 205.067H53.3005L107.356 153.435L98.4293 141.154Z" fill="#E0E0E0"/>
<path d="M105.019 126.115L157.961 178.641V126.115H105.019Z" fill="#2C2A6C"/>
<path d="M139.951 127.299C138.752 128.258 62.5371 205.068 62.5371 205.068H95.3729L155.288 144.798L139.951 127.299Z" fill="#2C2A6C"/>
<path d="M69.336 41.6832C72.0104 40.5853 73.2884 37.5272 72.1905 34.8528C71.0925 32.1784 68.0344 30.9004 65.36 31.9983C62.6856 33.0963 61.4076 36.1544 62.5056 38.8288C63.6035 41.5032 66.6616 42.7812 69.336 41.6832Z" fill="#FAA21E"/>
<path d="M66.6021 48.551C66.5416 47.8333 66.5198 47.1128 66.5368 46.3927C66.5171 45.6728 66.5362 44.9523 66.5939 44.2344C66.6225 44.2344 66.6469 45.2013 66.6469 46.3927C66.6469 47.5841 66.6306 48.551 66.6021 48.551Z" fill="#FAA21E"/>
<path d="M63.5829 43.0139C63.6115 43.0139 63.1178 43.9319 62.4854 45.0294C61.853 46.1269 61.3144 47.0041 61.2899 46.9878C61.2655 46.9715 61.7551 46.0739 62.3875 44.9723C63.0199 43.8707 63.5584 42.9976 63.5829 43.0139Z" fill="#FAA21E"/>
<path d="M60.4861 41.0879C60.102 41.4619 59.6931 41.8095 59.2621 42.1283C58.8532 42.4756 58.4211 42.7945 57.9688 43.083C58.3535 42.7098 58.7624 42.3622 59.1927 42.0426C59.6021 41.6958 60.0341 41.3769 60.4861 41.0879Z" fill="#FAA21E"/>
<path d="M71.8402 46.4253C71.7798 46.2525 71.7334 46.0751 71.7015 45.8949C71.628 45.5644 71.5219 45.1074 71.3873 44.6097C71.2527 44.1119 71.118 43.6672 71.016 43.3449C70.9536 43.1721 70.9045 42.9947 70.8691 42.8145C70.9627 42.9736 71.0367 43.1435 71.0895 43.3204C71.2467 43.7334 71.3829 44.1542 71.4975 44.5811C71.6321 45.0829 71.7259 45.544 71.7831 45.8785C71.8248 46.0577 71.844 46.2413 71.8402 46.4253Z" fill="#FAA21E"/>
<path d="M77.1444 42.6554C76.605 42.2581 76.0887 41.8303 75.5981 41.3743C75.0813 40.9486 74.5883 40.4951 74.1211 40.0156C74.661 40.4108 75.1773 40.8372 75.6674 41.2927C76.1836 41.7203 76.6767 42.1752 77.1444 42.6554Z" fill="#FAA21E"/>
<path d="M79.1846 37.4766C78.9734 37.4606 78.7635 37.4306 78.5563 37.3868C78.1483 37.3215 77.6302 37.2359 77.0345 37.1706C76.4388 37.1053 75.9002 37.0604 75.5045 37.0359C75.2925 37.0341 75.081 37.015 74.8721 36.9788C75.083 36.951 75.2962 36.9441 75.5085 36.9584C76.0227 36.9662 76.5361 37.0003 77.0467 37.0604C77.5578 37.1179 78.0657 37.201 78.5685 37.3093C78.7798 37.3405 78.9866 37.3967 79.1846 37.4766Z" fill="#FAA21E"/>
<path d="M79.1845 32.3856C79.1845 32.4142 78.0584 32.7161 76.6549 33.0588C75.2513 33.4016 74.1008 33.6545 74.0967 33.6219C74.0926 33.5892 75.2228 33.2914 76.6263 32.9487C78.0298 32.606 79.1845 32.353 79.1845 32.3856Z" fill="#FAA21E"/>
<path d="M73.2599 26.4495C73.2844 26.4495 72.7417 27.3307 72.0359 28.3834C71.3301 29.436 70.7589 30.2724 70.7344 30.2561C71.1072 29.5899 71.5158 28.9443 71.9584 28.3222C72.6561 27.2736 73.2354 26.4331 73.2599 26.4495Z" fill="#FAA21E"/>
<path d="M67.3891 25.209C67.4051 25.4494 67.4051 25.6907 67.3891 25.9311C67.3891 26.3718 67.3891 26.9838 67.3891 27.6611C67.3891 28.3383 67.3891 28.9503 67.4095 29.3951C67.4256 29.6342 67.4256 29.8741 67.4095 30.1131C67.3642 29.8764 67.3396 29.6361 67.3361 29.3951C67.3116 28.9544 67.2871 28.3383 67.2871 27.6611C67.2871 26.9838 67.2871 26.3718 67.332 25.9271C67.3302 25.6865 67.3493 25.4462 67.3891 25.209Z" fill="#FAA21E"/>
<path d="M62.9423 30.7494C62.5022 30.1341 62.0937 29.4968 61.7183 28.84C61.0614 27.767 60.5555 26.8857 60.58 26.8694C60.6044 26.853 61.1593 27.7098 61.804 28.7829C62.4486 29.8559 62.9668 30.7331 62.9423 30.7494Z" fill="#FAA21E"/>
<path d="M60.2856 33.0068C60.097 33.0019 59.9095 32.9759 59.7267 32.9293C59.388 32.8558 58.9107 32.7416 58.4129 32.5906C57.9151 32.4397 57.4459 32.2846 57.1236 32.1582C56.9423 32.1032 56.7683 32.0265 56.6055 31.9297C56.7904 31.966 56.9719 32.0179 57.1481 32.0847C57.4786 32.1908 57.9355 32.3377 58.4415 32.4927C58.9474 32.6478 59.4125 32.7702 59.7471 32.8599C59.9308 32.892 60.1111 32.9411 60.2856 33.0068Z" fill="#FAA21E"/>
<path d="M59.1231 37.0293C58.5724 37.139 58.0149 37.2112 57.4544 37.2455C56.8972 37.3193 56.3355 37.3548 55.7734 37.3516C56.3246 37.2444 56.8819 37.1722 57.4422 37.1354C57.9996 37.0641 58.5611 37.0286 59.1231 37.0293Z" fill="#FAA21E"/>
<path d="M215.106 152.106C215.322 150.556 213.131 149.279 211.487 149.144C210.703 149.083 209.887 149.201 209.145 148.944C207.533 148.381 206.893 146.301 205.322 145.64C204.147 145.146 202.792 145.587 201.65 146.158C200.507 146.729 199.385 147.451 198.117 147.533C197.011 147.606 195.807 147.194 194.853 147.737C194.13 148.145 193.751 148.961 193.086 149.458C192.395 149.887 191.594 150.105 190.781 150.083C189.969 150.069 189.162 150.207 188.402 150.491C187.668 150.825 187.06 151.605 187.215 152.396L215.106 152.106Z" fill="white"/>
<path d="M215.105 152.105H214.97H214.562L212.971 152.134L207.063 152.224L187.206 152.464H187.116V152.379C187.08 152.145 187.094 151.906 187.157 151.678C187.221 151.45 187.332 151.238 187.484 151.057C187.781 150.676 188.184 150.393 188.642 150.241C189.687 149.886 190.768 150.037 191.755 149.853C192.245 149.781 192.71 149.588 193.106 149.29C193.47 148.951 193.808 148.586 194.118 148.197C194.287 148.004 194.48 147.834 194.693 147.691C194.911 147.55 195.153 147.451 195.407 147.397C195.895 147.312 196.392 147.299 196.884 147.36C197.348 147.416 197.817 147.427 198.283 147.393C198.735 147.341 199.177 147.226 199.597 147.05C200.438 146.712 201.196 146.234 201.996 145.875C202.764 145.488 203.617 145.297 204.477 145.32C204.89 145.352 205.29 145.473 205.652 145.675C205.99 145.877 206.297 146.126 206.566 146.414C207.096 146.969 207.512 147.564 207.998 148.046C208.432 148.528 209.015 148.851 209.654 148.964C210.258 149.062 210.85 149.009 211.405 149.049C212.357 149.131 213.269 149.472 214.04 150.037C214.544 150.375 214.918 150.874 215.101 151.452C215.15 151.657 215.157 151.869 215.121 152.077C215.129 151.871 215.108 151.665 215.06 151.465C214.864 150.905 214.488 150.426 213.991 150.102C213.216 149.574 212.312 149.265 211.376 149.208C210.833 149.176 210.242 149.233 209.613 149.139C208.944 149.025 208.331 148.692 207.871 148.193C207.369 147.699 206.949 147.103 206.427 146.561C206.169 146.285 205.874 146.047 205.55 145.855C205.207 145.67 204.828 145.562 204.44 145.536C203.61 145.519 202.788 145.709 202.049 146.087C201.266 146.442 200.507 146.924 199.646 147.27C199.21 147.457 198.75 147.579 198.279 147.634C197.801 147.668 197.32 147.657 196.843 147.601C196.372 147.546 195.895 147.558 195.427 147.638C194.962 147.747 194.546 148.006 194.244 148.376C193.931 148.775 193.587 149.149 193.216 149.494C192.792 149.815 192.294 150.024 191.768 150.102C190.735 150.29 189.666 150.143 188.687 150.481C188.269 150.619 187.901 150.876 187.626 151.22C187.493 151.378 187.395 151.563 187.339 151.762C187.282 151.961 187.269 152.17 187.3 152.375L187.194 152.289L206.982 152.138L212.914 152.109H214.954C215.004 152.104 215.055 152.103 215.105 152.105Z" fill="#263238"/>
<path d="M127.451 186.254C127.732 184.194 124.827 182.497 122.64 182.321C121.6 182.24 120.519 182.399 119.531 182.052C117.394 181.309 116.537 178.547 114.452 177.666C112.889 177.009 111.094 177.592 109.584 178.355C108.075 179.118 106.577 180.073 104.888 180.179C103.415 180.277 101.82 179.73 100.535 180.448C99.5762 180.983 99.0744 182.08 98.1931 182.737C97.3118 183.394 96.202 183.512 95.129 183.553C94.056 183.594 92.9462 183.623 91.9711 184.067C90.996 184.512 90.1881 185.548 90.3921 186.601L127.451 186.254Z" fill="white"/>
<path d="M127.451 186.255H127.267H126.725L124.607 186.292L116.753 186.402L90.3924 186.704H90.3026V186.618C90.2558 186.313 90.2742 186 90.3564 185.702C90.4387 185.404 90.583 185.127 90.78 184.888C91.1745 184.393 91.7047 184.023 92.3059 183.823C93.6849 183.354 95.117 183.554 96.4349 183.309C97.0927 183.214 97.7158 182.955 98.2464 182.555C98.7323 182.105 99.1825 181.618 99.5928 181.098C99.8141 180.841 100.069 180.616 100.352 180.429C100.639 180.248 100.955 180.119 101.286 180.045C101.93 179.936 102.587 179.919 103.236 179.996C103.856 180.07 104.482 180.085 105.105 180.041C105.707 179.971 106.296 179.816 106.855 179.58C107.977 179.131 108.985 178.503 110.042 178.018C111.053 177.51 112.174 177.259 113.306 177.287C113.851 177.325 114.38 177.484 114.856 177.752C115.31 178.016 115.722 178.344 116.08 178.728C116.782 179.458 117.337 180.253 117.985 180.898C118.567 181.539 119.345 181.97 120.197 182.122C120.971 182.198 121.749 182.234 122.526 182.232C123.211 182.284 123.883 182.444 124.517 182.706C125.051 182.915 125.556 183.189 126.023 183.522C126.394 183.794 126.721 184.122 126.994 184.493C127.196 184.764 127.344 185.071 127.431 185.398C127.482 185.599 127.5 185.807 127.484 186.014C127.484 186.157 127.484 186.222 127.484 186.222C127.484 186.222 127.484 186.145 127.484 186.006C127.489 185.804 127.464 185.602 127.41 185.406C127.152 184.661 126.654 184.023 125.994 183.591C125.532 183.259 125.03 182.985 124.501 182.775C123.874 182.525 123.212 182.373 122.539 182.326C121.817 182.281 121.029 182.359 120.197 182.232C119.308 182.1 118.488 181.679 117.863 181.033C117.198 180.38 116.639 179.584 115.949 178.87C115.605 178.502 115.209 178.184 114.774 177.928C114.319 177.675 113.813 177.526 113.293 177.491C112.186 177.465 111.09 177.714 110.103 178.218C109.062 178.695 108.063 179.331 106.912 179.792C106.336 180.035 105.729 180.196 105.109 180.27C104.474 180.313 103.836 180.3 103.204 180.229C102.575 180.152 101.939 180.167 101.315 180.274C101.008 180.344 100.715 180.465 100.45 180.633C100.182 180.811 99.9394 181.024 99.7274 181.265C99.3113 181.794 98.8543 182.289 98.3606 182.746C97.8055 183.174 97.1516 183.454 96.4593 183.562C95.0925 183.811 93.6727 183.619 92.3589 184.068C91.7966 184.253 91.3012 184.599 90.935 185.064C90.756 185.278 90.6242 185.527 90.5483 185.796C90.4724 186.065 90.454 186.346 90.4944 186.622L90.3883 186.537L116.684 186.32L124.558 186.276H127.255C127.32 186.265 127.385 186.258 127.451 186.255Z" fill="#263238"/>
<path d="M89.7191 88.9508C89.9557 87.2209 87.5159 85.8011 85.684 85.6501C84.8068 85.5807 83.901 85.7154 83.0728 85.4257C81.2776 84.8015 80.5595 82.484 78.8092 81.7537C77.4995 81.2029 75.9899 81.6966 74.7292 82.3331C73.4685 82.9695 72.2077 83.7774 70.7879 83.8672C69.5639 83.9447 68.2175 83.4877 67.1159 84.0915C66.2999 84.5403 65.8919 85.4665 65.1493 86.0132C64.4068 86.5599 63.4765 86.662 62.5789 86.7109C61.6813 86.7599 60.747 86.768 59.9269 87.1434C59.1069 87.5188 58.4296 88.3674 58.6009 89.2691L89.7191 88.9508Z" fill="white"/>
<path d="M89.7188 88.9516H89.5679H89.1109L87.3361 88.9842L80.7469 89.0822L58.6129 89.3433H58.5272V89.2576C58.4875 88.9985 58.5033 88.7339 58.5736 88.4813C58.644 88.2288 58.7672 87.9941 58.9352 87.7929C59.2674 87.3743 59.7138 87.0611 60.2204 86.8912C61.3832 86.4832 62.5868 86.6668 63.6925 86.4587C64.2412 86.382 64.761 86.1656 65.2021 85.8304C65.6096 85.4531 65.9861 85.0438 66.3282 84.6064C66.5102 84.4017 66.7171 84.2208 66.9443 84.0678C67.1854 83.9134 67.452 83.8029 67.7317 83.7414C68.2712 83.6518 68.8205 83.6381 69.3637 83.7006C69.8822 83.7628 70.4053 83.7765 70.9264 83.7414C71.4315 83.6808 71.9259 83.5504 72.3952 83.3538C73.3336 82.9785 74.1781 82.4481 75.0676 82.0442C75.9215 81.6128 76.8694 81.4011 77.8256 81.4281C78.2869 81.4658 78.7342 81.6051 79.1353 81.8361C79.5111 82.0583 79.8532 82.3331 80.1512 82.6521C80.7428 83.2682 81.2039 83.9332 81.7465 84.4718C82.2325 85.0109 82.8843 85.3727 83.5988 85.4999C84.2761 85.606 84.9371 85.5489 85.5532 85.5938C86.6146 85.6826 87.6311 86.0623 88.4908 86.6913C89.0513 87.067 89.4672 87.6225 89.6699 88.2662C89.7155 88.4362 89.7307 88.613 89.7148 88.7884C89.7148 88.9067 89.7148 88.9598 89.7148 88.9598C89.7148 88.9598 89.7148 88.8945 89.7148 88.7802C89.7171 88.6107 89.6951 88.4417 89.6495 88.2784C89.4333 87.6535 89.0157 87.1182 88.4622 86.7566C87.6086 86.1533 86.6076 85.7923 85.5654 85.7121C84.9616 85.6754 84.3006 85.7406 83.5988 85.6346C82.8543 85.5048 82.1732 85.1334 81.6608 84.5778C81.106 84.0311 80.6368 83.3538 80.0533 82.7663C79.766 82.457 79.4347 82.1917 79.07 81.9789C78.6933 81.7696 78.2758 81.6443 77.846 81.6117C76.9198 81.5932 76.0033 81.8034 75.1777 82.2237C74.3046 82.6317 73.456 83.158 72.5012 83.5456C72.0156 83.7524 71.5033 83.8898 70.9794 83.9536C70.4465 83.9938 69.9109 83.9828 69.38 83.921C68.8533 83.8575 68.3202 83.8699 67.797 83.9577C67.2794 84.0789 66.8154 84.3654 66.4751 84.7737C66.1205 85.2169 65.7318 85.6316 65.3123 86.014C64.8429 86.3724 64.2894 86.6042 63.7048 86.6872C62.5542 86.8994 61.3628 86.7362 60.2694 87.1156C59.8012 87.2656 59.3871 87.5493 59.078 87.9316C58.9292 88.1091 58.8198 88.3162 58.7572 88.5392C58.6946 88.7622 58.6802 88.996 58.7149 89.225L58.6088 89.1393L80.6694 88.9679L87.2831 88.9312H89.7311L89.7188 88.9516Z" fill="#263238"/>
<path d="M200.948 43.9114C201.131 42.5528 199.214 41.4349 197.774 41.3166C197.084 41.2635 196.374 41.3655 195.734 41.1411C194.322 40.6474 193.759 38.8237 192.384 38.2443C191.352 37.8118 190.168 38.1954 189.169 38.7013C188.169 39.2072 187.186 39.8355 186.072 39.9049C185.101 39.9661 184.032 39.607 183.216 40.0803C182.584 40.4353 182.253 41.1615 181.67 41.594C181.063 41.9667 180.362 42.1565 179.65 42.1407C178.94 42.123 178.233 42.2378 177.565 42.4794C176.921 42.7772 176.39 43.4545 176.525 44.1522L200.948 43.9114Z" fill="white"/>
<path d="M200.948 43.9121H200.83H200.47L199.079 43.9406L193.902 44.0222L176.496 44.2385H176.407V44.1528C176.374 43.9459 176.386 43.7344 176.441 43.5325C176.497 43.3306 176.595 43.1429 176.729 42.9818C176.994 42.6495 177.35 42.4015 177.753 42.2678C178.671 41.9537 179.618 42.0883 180.483 41.9251C180.911 41.867 181.318 41.6983 181.662 41.4355C181.98 41.1395 182.275 40.8189 182.543 40.4767C182.836 40.1251 183.236 39.8787 183.681 39.7749C184.11 39.7013 184.547 39.6903 184.979 39.7423C185.385 39.7901 185.795 39.7997 186.203 39.7709C186.598 39.7257 186.986 39.6255 187.353 39.473C188.088 39.1793 188.753 38.7631 189.454 38.4449C190.128 38.1021 190.878 37.9351 191.633 37.9593C191.997 37.9841 192.352 38.0901 192.67 38.2694C192.972 38.4449 193.246 38.6634 193.486 38.9181C193.947 39.4037 194.302 39.93 194.738 40.3502C195.116 40.7741 195.624 41.061 196.182 41.1662C196.713 41.2519 197.231 41.2029 197.716 41.2397C198.553 41.3116 199.353 41.6122 200.03 42.1087C200.47 42.3984 200.797 42.8306 200.956 43.3327C201 43.5116 201.007 43.6977 200.976 43.8794C200.976 43.6995 200.955 43.5203 200.915 43.3449C200.732 42.8624 200.393 42.4547 199.952 42.1862C199.282 41.7143 198.497 41.4323 197.68 41.3702C197.206 41.3417 196.688 41.3947 196.133 41.3131C195.548 41.2161 195.01 40.9294 194.603 40.4971C194.163 40.0646 193.787 39.5383 193.339 39.0691C193.112 38.8287 192.852 38.6213 192.568 38.453C192.271 38.2893 191.942 38.1931 191.605 38.1715C190.88 38.1531 190.163 38.3143 189.516 38.6407C188.83 38.9549 188.165 39.3751 187.41 39.6811C187.028 39.8432 186.624 39.9503 186.211 39.9993C185.789 40.03 185.366 40.0218 184.946 39.9749C184.539 39.9262 184.127 39.9358 183.722 40.0034C183.317 40.0985 182.956 40.3252 182.694 40.6481C182.417 40.997 182.115 41.3244 181.788 41.6273C181.417 41.912 180.978 42.0961 180.515 42.1617C179.609 42.329 178.671 42.2025 177.818 42.4963C177.451 42.6119 177.125 42.8316 176.88 43.1287C176.765 43.2662 176.681 43.4262 176.633 43.5985C176.584 43.7707 176.572 43.9513 176.598 44.1283L176.492 44.0426L193.832 43.9202H199.034H200.821L200.948 43.9121Z" fill="#263238"/>
<path d="M129.813 115.626L129.519 122.334C129.519 122.334 136.239 124.888 136.308 126.132L123.276 126.03L123.305 115.557L129.813 115.626Z" fill="#455A64"/>
<path d="M125.496 121.738C125.37 121.775 125.262 121.857 125.193 121.968C125.124 122.08 125.098 122.213 125.12 122.342C125.152 122.469 125.232 122.579 125.343 122.649C125.454 122.719 125.587 122.743 125.716 122.717C125.852 122.681 125.97 122.595 126.045 122.477C126.121 122.358 126.149 122.215 126.124 122.076C126.077 121.948 125.981 121.842 125.858 121.782C125.735 121.722 125.593 121.712 125.463 121.754" fill="#E0E0E0"/>
<g opacity="0.6">
<path d="M123.276 126.031L123.321 124.975L135.798 125.468C135.798 125.468 136.377 125.725 136.308 126.133L123.276 126.031Z" fill="white"/>
</g>
<path d="M129.731 122.281C129.731 122.346 129.409 122.375 129.094 122.575C128.78 122.775 128.613 123.044 128.552 123.019C128.491 122.995 128.593 122.611 128.96 122.387C129.327 122.163 129.743 122.211 129.731 122.281Z" fill="#263238"/>
<path d="M131.093 122.848C131.093 122.909 130.832 123.015 130.612 123.28C130.392 123.545 130.33 123.831 130.265 123.831C130.2 123.831 130.163 123.468 130.441 123.137C130.718 122.807 131.093 122.786 131.093 122.848Z" fill="#263238"/>
<path d="M131.856 124.489C131.799 124.489 131.714 124.183 131.877 123.836C132.04 123.489 132.342 123.355 132.37 123.408C132.399 123.461 132.211 123.644 132.077 123.93C131.942 124.215 131.918 124.485 131.856 124.489Z" fill="#263238"/>
<path d="M129.629 120.735C129.6 120.793 129.31 120.703 128.947 120.735C128.584 120.768 128.307 120.87 128.274 120.813C128.241 120.756 128.515 120.536 128.939 120.515C129.363 120.495 129.657 120.687 129.629 120.735Z" fill="#263238"/>
<path d="M150.057 115.626L149.768 122.334C149.768 122.334 156.492 124.888 156.557 126.132L143.525 126.03L143.554 115.557L150.057 115.626Z" fill="#455A64"/>
<path d="M145.741 121.739C145.616 121.777 145.509 121.859 145.44 121.97C145.37 122.081 145.344 122.214 145.366 122.343C145.398 122.47 145.477 122.58 145.588 122.65C145.699 122.72 145.833 122.744 145.961 122.718C146.098 122.683 146.216 122.598 146.292 122.479C146.368 122.36 146.396 122.216 146.369 122.078C146.323 121.948 146.228 121.842 146.105 121.782C145.981 121.722 145.839 121.712 145.708 121.755" fill="#E0E0E0"/>
<g opacity="0.6">
<path d="M143.521 126.031L143.566 124.975L156.043 125.468C156.043 125.468 156.622 125.725 156.553 126.133L143.521 126.031Z" fill="white"/>
</g>
<path d="M149.976 122.281C149.976 122.346 149.653 122.375 149.339 122.575C149.025 122.775 148.858 123.044 148.801 123.019C148.743 122.995 148.837 122.611 149.209 122.387C149.58 122.163 149.992 122.211 149.976 122.281Z" fill="#263238"/>
<path d="M151.338 122.848C151.338 122.909 151.077 123.015 150.857 123.28C150.636 123.545 150.575 123.831 150.51 123.831C150.445 123.831 150.412 123.468 150.689 123.137C150.967 122.807 151.338 122.786 151.338 122.848Z" fill="#263238"/>
<path d="M152.102 124.489C152.045 124.489 151.959 124.183 152.126 123.836C152.293 123.489 152.587 123.355 152.616 123.408C152.644 123.461 152.457 123.644 152.326 123.93C152.196 124.215 152.167 124.485 152.102 124.489Z" fill="#263238"/>
<path d="M149.874 120.735C149.845 120.793 149.555 120.703 149.196 120.735C148.837 120.768 148.556 120.87 148.523 120.813C148.491 120.756 148.76 120.536 149.184 120.515C149.608 120.495 149.906 120.687 149.874 120.735Z" fill="#263238"/>
<path d="M123.338 27.5179C122.847 26.2746 122.463 24.9915 122.191 23.6827C121.92 22.368 121.98 21.0065 122.367 19.721C122.428 19.5293 122.983 18.2359 123.183 18.2481C123.325 18.2481 122.999 19.4721 123.077 19.5823C123.777 20.7792 124.099 22.1606 123.999 23.544C123.928 24.8851 123.706 26.214 123.338 27.5057" fill="#263238"/>
<path d="M123.766 34.6298L123.281 22.5082C123.052 19.1666 124.545 16.1678 127.895 16.0332H128.258C129.748 16.0599 131.174 16.6462 132.252 17.6758C133.33 18.7053 133.981 20.1026 134.076 21.5902C134.26 24.5033 134.427 27.7346 134.378 29.2973C134.284 32.5082 131.061 32.9693 131.061 32.9693C131.061 32.9693 131.2 35.299 131.224 36.2333C131.224 36.2333 130.882 36.4822 127.887 36.5882C124.892 36.6943 123.766 34.6298 123.766 34.6298Z" fill="#FFBF9D"/>
<path d="M131.061 32.9581C129.584 32.9251 128.147 32.4707 126.92 31.6484C126.92 31.6484 127.899 34.0026 131.11 33.77L131.061 32.9581Z" fill="#FF9A6C"/>
<path d="M132.971 24.5124C132.971 24.6321 132.924 24.7472 132.84 24.8326C132.756 24.9181 132.642 24.9672 132.522 24.9693C132.406 24.9761 132.292 24.9372 132.204 24.8609C132.116 24.7847 132.062 24.6771 132.053 24.5613C132.055 24.4419 132.103 24.3279 132.188 24.2434C132.272 24.1589 132.386 24.1105 132.506 24.1084C132.621 24.1006 132.734 24.1387 132.822 24.2144C132.909 24.2901 132.962 24.3972 132.971 24.5124Z" fill="#263238"/>
<path d="M133.265 23.3654C133.207 23.4266 132.857 23.1614 132.367 23.1532C131.877 23.145 131.51 23.3858 131.457 23.3246C131.404 23.2634 131.49 23.194 131.649 23.0798C131.866 22.935 132.122 22.8609 132.383 22.8676C132.64 22.8728 132.888 22.9584 133.093 23.1124C133.244 23.2307 133.293 23.3409 133.265 23.3654Z" fill="#263238"/>
<path d="M128.748 24.5902C128.691 24.6474 128.34 24.3862 127.854 24.3781C127.369 24.3699 126.994 24.6106 126.94 24.5494C126.887 24.4882 126.973 24.4148 127.136 24.3046C127.351 24.1582 127.607 24.0838 127.867 24.0925C128.124 24.0936 128.375 24.1781 128.581 24.3332C128.728 24.4556 128.776 24.5617 128.748 24.5902Z" fill="#263238"/>
<path d="M130.253 27.2575C130.518 27.1779 130.792 27.134 131.069 27.127C131.196 27.127 131.314 27.0943 131.338 27.0086C131.352 26.8785 131.325 26.7475 131.261 26.6333L130.906 25.6663C130.569 24.8456 130.296 23.9998 130.09 23.1367C130.487 23.9247 130.82 24.7433 131.085 25.5847L131.428 26.5558C131.504 26.7087 131.523 26.8838 131.481 27.0494C131.463 27.0941 131.435 27.1339 131.399 27.1658C131.363 27.1977 131.32 27.2207 131.273 27.233C131.202 27.2483 131.13 27.2565 131.057 27.2575C130.79 27.2927 130.52 27.2927 130.253 27.2575Z" fill="#263238"/>
<path d="M128.772 23.2721C128.711 23.4026 128.225 23.2965 127.642 23.3129C127.059 23.3292 126.577 23.4475 126.512 23.3129C126.483 23.2557 126.577 23.1374 126.777 23.0232C127.042 22.8866 127.336 22.8126 127.634 22.807C127.933 22.8013 128.228 22.8641 128.499 22.9905C128.703 23.0966 128.801 23.2109 128.772 23.2721Z" fill="#263238"/>
<path d="M133.447 21.5045C133.374 21.635 132.962 21.6065 132.497 21.7003C132.032 21.7942 131.652 21.9614 131.538 21.8676C131.485 21.8186 131.538 21.6962 131.673 21.5575C131.88 21.3746 132.134 21.2531 132.407 21.2066C132.679 21.1511 132.961 21.1708 133.223 21.2638C133.411 21.3535 133.488 21.4555 133.447 21.5045Z" fill="#263238"/>
<path d="M123.501 24.8712C123.444 24.8467 121.302 24.1816 121.334 26.3767C121.367 28.5717 123.566 28.0903 123.57 28.0291C123.574 27.9679 123.501 24.8712 123.501 24.8712Z" fill="#FFBF9D"/>
<path d="M122.84 27.2177C122.84 27.2177 122.799 27.2463 122.734 27.2749C122.689 27.2939 122.64 27.3038 122.591 27.3038C122.542 27.3038 122.493 27.2939 122.448 27.2749C122.305 27.1863 122.189 27.0615 122.11 26.9131C122.031 26.7648 121.993 26.5982 121.999 26.4303C121.991 26.2417 122.024 26.0535 122.097 25.8795C122.118 25.8108 122.155 25.7479 122.204 25.6962C122.254 25.6444 122.315 25.6051 122.383 25.5817C122.426 25.5696 122.473 25.5732 122.514 25.5918C122.555 25.6105 122.588 25.643 122.607 25.6837C122.64 25.7449 122.607 25.7897 122.64 25.7938C122.673 25.7979 122.685 25.7571 122.665 25.6633C122.651 25.6102 122.621 25.5629 122.579 25.5286C122.518 25.4839 122.442 25.4649 122.367 25.4756C122.274 25.4916 122.187 25.5322 122.115 25.5932C122.043 25.6542 121.989 25.7334 121.959 25.8224C121.867 26.0143 121.823 26.2258 121.832 26.4385C121.824 26.6343 121.874 26.8281 121.977 26.9953C122.079 27.1624 122.229 27.2952 122.407 27.3769C122.466 27.3932 122.528 27.3962 122.588 27.3856C122.648 27.375 122.705 27.3511 122.754 27.3157C122.84 27.2667 122.84 27.2177 122.84 27.2177Z" fill="#FF9A6C"/>
<path d="M132.57 18.041C132.921 17.8329 131.828 16.7068 130.938 16.3315C129.604 15.7644 127.576 15.442 126.369 15.8133C124.912 16.2662 123.709 17.0373 123.003 18.3756C122.328 19.7516 122.03 21.2818 122.138 22.8105C122.13 23.2787 122.247 23.7405 122.477 24.1488C122.795 24.6261 123.39 24.9199 123.382 25.589C123.377 25.7105 123.396 25.8318 123.438 25.946C123.48 26.0601 123.544 26.1648 123.627 26.254C124.035 26.662 124.521 26.254 124.737 25.846C125.202 24.977 125.231 23.9448 125.251 22.9574C125.302 22.2569 125.238 21.5528 125.063 20.8725C124.945 20.5094 124.765 20.1667 124.655 19.7954C124.595 19.6137 124.575 19.4209 124.597 19.2306C124.618 19.0403 124.682 18.8571 124.782 18.6938C124.834 18.6273 124.893 18.5659 124.957 18.5102C125.258 18.236 125.626 18.0465 126.024 17.9612C126.422 17.8759 126.835 17.8978 127.222 18.0247C128.47 18.4327 130.6 19.0365 131.142 18.604C131.53 18.3356 131.857 17.9879 132.101 17.584L132.57 18.041Z" fill="#263238"/>
<path d="M130.592 28.5916C130.592 28.6283 130.482 28.7018 130.262 28.7262C129.972 28.755 129.679 28.7028 129.417 28.5753C129.147 28.461 128.915 28.2729 128.748 28.0326C128.63 27.845 128.609 27.7062 128.642 27.6899C128.675 27.6736 128.981 28.0979 129.519 28.3346C130.058 28.5712 130.555 28.51 130.592 28.5916Z" fill="#263238"/>
<path d="M161.192 23.2426C161.192 23.2426 161.106 22.7285 160.853 22.7285C160.683 22.7277 160.515 22.7756 160.371 22.8667C160.226 22.9577 160.11 23.0881 160.037 23.2426C159.862 23.618 161.192 23.2426 161.192 23.2426Z" fill="#FFBF9D"/>
<path d="M154.705 31.4241L154.958 27.3726L155.774 23.1988C155.774 23.1988 156.41 22.5215 156.749 22.6766C157.087 22.8316 156.961 23.3946 156.961 23.3946C156.961 23.3946 157.85 22.4318 158.185 22.6521C158.519 22.8724 158.397 23.3946 158.397 23.3946C158.397 23.3946 159.213 22.3257 159.584 22.6194C159.956 22.9132 159.584 23.3946 159.584 23.3946C159.584 23.3946 160.086 28.0662 159.833 29.739C159.757 30.2267 159.564 30.6889 159.273 31.0871C158.981 31.4853 158.598 31.8079 158.156 32.0279L157.483 34.6554L154.166 32.8521L154.705 31.4241Z" fill="#FFBF9D"/>
<path d="M156.732 26.1187L138.723 25.9188V24.4786L156.732 23.9727V26.1187Z" fill="#2C296C"/>
<path d="M175.749 27.547L150.302 26.474C149.985 25.5638 149.985 24.573 150.302 23.6628L175.598 22.5449C176.737 23.7567 176.749 26.3026 175.749 27.547Z" fill="#2C296C"/>
<path d="M175.504 22.7773C175.504 22.7773 174.737 23.4954 174.765 25.0581C174.794 26.6207 175.581 27.2776 175.581 27.2776C176.134 26.588 176.39 25.7079 176.295 24.8296C176.161 23.2996 175.504 22.7773 175.504 22.7773Z" fill="#E0E0E0"/>
<path d="M174.484 27.5483C174.276 27.3817 174.107 27.1714 173.99 26.9322C173.658 26.3731 173.485 25.7342 173.488 25.084C173.488 24.4387 173.64 23.8025 173.933 23.2276C174.042 22.9812 174.214 22.7675 174.431 22.6074C174.459 22.6074 174.264 22.8604 174.068 23.2929C173.828 23.8613 173.704 24.4713 173.7 25.0881C173.696 25.7034 173.836 26.3111 174.108 26.8629C174.247 27.0839 174.372 27.3128 174.484 27.5483Z" fill="#263238"/>
<path d="M175.618 22.6016C175.647 22.626 175.459 22.8627 175.255 23.2952C174.988 23.8561 174.856 24.4714 174.868 25.0924C174.88 25.7135 175.036 26.3232 175.325 26.8733C175.434 27.1051 175.588 27.3131 175.777 27.4853C175.777 27.4853 175.692 27.4853 175.573 27.3996C175.418 27.2755 175.289 27.1215 175.194 26.9468C174.852 26.389 174.665 25.7499 174.653 25.0957C174.641 24.4415 174.804 23.796 175.125 23.2258C175.237 22.9815 175.407 22.7676 175.618 22.6016Z" fill="#263238"/>
<path d="M175.949 23.9071C175.92 23.825 175.874 23.7499 175.815 23.6868C175.785 23.6545 175.748 23.6301 175.707 23.6158C175.665 23.6016 175.621 23.5979 175.578 23.6052C175.535 23.6155 175.496 23.6373 175.464 23.6682C175.432 23.6991 175.41 23.7379 175.398 23.7807C175.377 23.8657 175.388 23.9554 175.427 24.0336C175.521 24.2172 175.672 24.3886 175.664 24.5722C175.655 24.7558 175.615 24.9394 175.627 25.123C175.63 25.1899 175.651 25.2546 175.688 25.3107C175.706 25.3393 175.731 25.3625 175.762 25.3776C175.792 25.3928 175.826 25.3992 175.859 25.3964C175.97 25.3964 176.023 25.2576 176.047 25.1515C176.144 24.7366 176.109 24.3019 175.949 23.9071Z" fill="white"/>
<path d="M150.298 26.5633C150.031 26.1255 149.909 25.614 149.952 25.1027C149.93 24.5888 150.073 24.0813 150.36 23.6543C150.421 23.6788 150.184 24.303 150.176 25.1068C150.168 25.9105 150.36 26.5429 150.298 26.5633Z" fill="#263238"/>
<path d="M138.686 26.2621C138.614 26.2621 138.544 26.2333 138.493 26.182C138.442 26.1308 138.413 26.0612 138.413 25.9887V24.4628C138.413 24.3903 138.442 24.3208 138.493 24.2695C138.544 24.2183 138.614 24.1895 138.686 24.1895C138.759 24.1894 138.829 24.2181 138.881 24.2693C138.933 24.3204 138.963 24.3899 138.964 24.4628V25.9928C138.962 26.065 138.932 26.1335 138.88 26.1837C138.828 26.234 138.759 26.2621 138.686 26.2621Z" fill="#FAA21E"/>
<path d="M138.687 26.2627C138.687 26.2627 138.76 26.2627 138.834 26.1689C138.877 26.1258 138.902 26.0671 138.903 26.0057C138.903 25.9118 138.903 25.818 138.903 25.7201C138.903 25.4753 138.903 25.2223 138.883 24.9612C138.883 24.8143 138.883 24.6674 138.883 24.5124C138.889 24.4865 138.889 24.4596 138.883 24.4337C138.878 24.4077 138.866 24.3834 138.85 24.3626C138.833 24.3418 138.812 24.325 138.788 24.3135C138.764 24.302 138.738 24.296 138.711 24.2961C138.685 24.2968 138.659 24.3032 138.636 24.3149C138.612 24.3267 138.591 24.3435 138.575 24.3641C138.559 24.3847 138.547 24.4087 138.541 24.4344C138.535 24.46 138.535 24.4866 138.54 24.5124C138.54 24.6674 138.54 24.8143 138.54 24.9612C138.54 25.2332 138.532 25.4861 138.515 25.7201V26.0057C138.515 26.0358 138.521 26.0658 138.532 26.0938C138.543 26.1218 138.56 26.1473 138.581 26.1689C138.654 26.2423 138.732 26.2464 138.728 26.2627C138.724 26.279 138.65 26.3076 138.528 26.2341C138.492 26.2095 138.462 26.1774 138.439 26.1401C138.417 26.1028 138.402 26.0612 138.397 26.0179C138.397 25.92 138.397 25.8221 138.397 25.7201C138.397 25.4753 138.397 25.2223 138.377 24.9612C138.377 24.8143 138.377 24.6674 138.377 24.5124C138.367 24.4084 138.398 24.3047 138.462 24.2227C138.498 24.1795 138.543 24.1447 138.594 24.1207C138.645 24.0967 138.7 24.0842 138.756 24.084C138.813 24.0852 138.868 24.0982 138.92 24.122C138.971 24.1459 139.017 24.1802 139.054 24.2227C139.117 24.3053 139.146 24.409 139.136 24.5124C139.136 24.6674 139.136 24.8143 139.136 24.9612C139.136 25.2332 139.127 25.4861 139.111 25.7201C139.111 25.8221 139.111 25.92 139.111 26.0179C139.105 26.0612 139.089 26.1027 139.066 26.1399C139.043 26.1771 139.012 26.2091 138.976 26.2341C138.752 26.3076 138.683 26.2709 138.687 26.2627Z" fill="#263238"/>
<path d="M141.816 29.2812C141.816 29.2812 141.433 24.5525 141.547 24.1363C141.661 23.7202 142.963 22.2595 143.42 22.2106C143.876 22.1616 143.925 22.6675 143.925 22.6675C144.305 22.4146 144.741 22.2565 145.194 22.2065C145.368 22.1894 145.541 22.2382 145.681 22.3433C145.82 22.4484 145.914 22.602 145.945 22.7736C146.248 22.5925 146.609 22.5355 146.953 22.6145C147.222 22.6634 147.532 23.1367 147.532 23.1367C147.532 23.1367 148.197 22.8511 148.515 23.1367C148.775 23.4228 148.921 23.7947 148.923 24.1812C148.499 24.1785 148.085 24.3098 147.74 24.5566C147.663 25.5869 147.523 26.6116 147.32 27.6247C147.067 28.6366 146.063 29.477 145.725 29.9993L145.46 33.4958L141.159 31.2274L141.816 29.2812Z" fill="#FFBF9D"/>
<path d="M142.783 24.4905C142.755 24.2731 142.772 24.0522 142.833 23.8416C142.894 23.6311 142.998 23.4353 143.137 23.2665C143.248 23.0758 143.396 22.9102 143.574 22.7803C143.752 22.6503 143.955 22.5588 144.17 22.5117C143.86 22.7792 143.573 23.0727 143.313 23.3889C143.108 23.7419 142.931 24.1102 142.783 24.4905Z" fill="#FF9A6C"/>
<path d="M144.872 24.4094C144.811 24.2215 144.795 24.0218 144.826 23.8268C144.857 23.6317 144.934 23.4469 145.051 23.2874C145.197 23.0419 145.421 22.8524 145.688 22.7488C145.892 22.6795 146.026 22.6958 146.03 22.7203C146.034 22.7448 145.532 22.8835 145.235 23.4016C145.079 23.7242 144.958 24.0619 144.872 24.4094Z" fill="#FF9A6C"/>
<path d="M146.43 24.255C146.373 24.255 146.467 23.794 146.871 23.439C147.275 23.0841 147.724 23.031 147.728 23.08C147.732 23.1289 147.365 23.2718 147.014 23.5982C146.663 23.9246 146.504 24.2754 146.43 24.255Z" fill="#FF9A6C"/>
<path d="M157.438 30.4432C158.156 29.5987 157.609 27.3261 157.609 27.3261C157.91 27.2188 158.182 27.0421 158.403 26.8103C158.623 26.5786 158.786 26.2983 158.878 25.992C159.131 24.976 158.625 24.8047 158.625 24.8047C158.454 24.8904 156.887 25.9063 156.083 26.3306C155.279 26.7549 155.026 31.0634 155.026 31.0634" fill="#FFBF9D"/>
<path d="M155.027 31.0489C155.005 30.8605 155.005 30.6702 155.027 30.4818C155.047 30.1187 155.084 29.5964 155.161 28.9477C155.236 28.1829 155.406 27.4304 155.667 26.7078C155.714 26.6017 155.771 26.5005 155.838 26.4059C155.915 26.3061 156.014 26.2264 156.128 26.1733C156.324 26.0672 156.536 25.953 156.72 25.8347L157.944 25.0799C158.156 24.9493 158.352 24.8228 158.572 24.6964L158.613 24.6719L158.654 24.6923C158.736 24.7322 158.809 24.7892 158.867 24.8596C158.926 24.93 158.968 25.012 158.992 25.1003C159.04 25.2505 159.058 25.4084 159.045 25.5654C159.029 25.9827 158.885 26.3849 158.632 26.7176C158.38 27.0504 158.031 27.2976 157.634 27.4259L157.691 27.3198C157.874 28.0866 157.913 28.8808 157.805 29.6617C157.767 29.8793 157.692 30.089 157.585 30.2819C157.543 30.3476 157.493 30.4067 157.434 30.4573C157.459 30.3854 157.493 30.3169 157.536 30.2533C157.623 30.0603 157.68 29.8554 157.707 29.6454C157.774 28.88 157.71 28.1089 157.519 27.3647L157.499 27.2872L157.577 27.2586C158.032 27.0833 158.41 26.7504 158.641 26.3202C158.759 26.0822 158.825 25.8224 158.837 25.5572C158.86 25.4357 158.848 25.3102 158.804 25.1949C158.759 25.0795 158.683 24.979 158.584 24.9044H158.666C158.474 25.0146 158.258 25.1533 158.058 25.2798C157.65 25.5409 157.242 25.7939 156.834 26.0346C156.634 26.1529 156.426 26.2672 156.234 26.3732C156.144 26.4111 156.066 26.4715 156.006 26.5487C155.944 26.6283 155.893 26.7162 155.855 26.8098C155.591 27.5122 155.411 28.2436 155.32 28.9885C155.222 29.6291 155.161 30.1513 155.116 30.5104C155.103 30.6922 155.073 30.8725 155.027 31.0489Z" fill="#FF9A6C"/>
<path d="M123.778 68.2572C123.778 68.2572 124.28 88.7918 123.778 91.2969C123.276 93.8021 122.432 104.153 122.432 111.832C122.432 119.51 122.754 121.26 122.754 121.26H130.208C130.208 121.26 130.739 106.662 133.04 98.2085C135.178 90.3626 137.638 78.4327 137.638 73.2593V66.2539H124.447L123.778 68.2572Z" fill="#263238"/>
<path d="M141.811 66.2539C141.811 66.2539 149.633 87.9595 150.135 94.3039C150.636 100.648 150.657 121.26 150.657 121.26H142.937L141.909 96.3725L135.969 80.2402V66.2539H141.811Z" fill="#263238"/>
<path d="M137.637 77.9434C137.622 78.1417 137.589 78.3383 137.54 78.5309C137.462 78.9389 137.356 79.4856 137.229 80.1302C136.964 81.5215 136.609 83.3698 136.222 85.4098C135.834 87.4498 135.446 89.3388 135.149 90.6811C134.998 91.3543 134.867 91.9051 134.769 92.2682C134.729 92.4652 134.671 92.6579 134.594 92.8435C134.609 92.6438 134.641 92.4458 134.692 92.2519C134.769 91.8439 134.875 91.2972 134.998 90.6526C135.267 89.2613 135.618 87.413 136.01 85.369C136.401 83.3249 136.785 81.444 137.083 80.1017C137.234 79.4285 137.364 78.8777 137.462 78.5146C137.5 78.3185 137.559 78.1271 137.637 77.9434Z" fill="#455A64"/>
<path d="M144.774 75.8383H146.426C146.426 75.8383 146.806 70.1263 145.851 66.2544C144.896 62.3825 140.016 45.577 140.016 45.577L134.615 36.6662L131.718 35.377L141.232 67.2785L144.774 75.8383Z" fill="#455A64"/>
<path opacity="0.3" d="M138.752 48.123C138.752 48.123 143.754 62.9457 144.582 66.8298C145.158 69.8088 145.577 72.8158 145.839 75.8385H144.77L140.841 65.4916C140.841 65.4916 136.761 49.041 136.936 49.0818C137.112 49.1226 138.752 48.123 138.752 48.123Z" fill="black"/>
<path d="M122.636 35.0181L123.085 32.1621L131.065 35.7443V34.0185L134.59 39.9019L142.342 61.9339C142.591 62.6152 142.893 64.8755 142.44 65.4427L141.808 66.2587L133.403 67.348L125.435 38.5636L122.636 35.0181Z" fill="#E0E0E0"/>
<path opacity="0.3" d="M123.958 77.9444C123.958 77.9444 134.631 79.1398 136.818 78.2708C137.448 78.0135 137.996 77.5878 138.4 77.0401C138.805 76.4924 139.051 75.844 139.111 75.1659C139.111 75.1659 140.18 67.5893 140.107 65.9165C139.983 64.3695 139.752 62.833 139.413 61.3184L123.938 76.6061L123.958 77.9444Z" fill="black"/>
<path d="M131.995 38.3097C131.995 38.3097 135.643 50.7293 135.614 50.819C135.586 50.9088 139.657 63.5282 139.657 63.5282L140.473 59.7297L134.802 40.8026L132.521 38.0078L131.995 38.3097Z" fill="#FAA21E"/>
<path d="M120.265 36.1929C116.524 38.4736 116.332 42.011 117.997 46.0665C118.27 46.7397 118.813 47.8943 119.172 48.6777C120.779 52.1008 124.121 57.6863 124.121 58.9919C124.121 62.0682 121.367 76.336 121.367 76.336C121.367 76.336 136.291 78.1475 137.638 76.744C138.984 75.3405 140.021 66.544 139.588 62.6109C139.111 58.2698 136.875 50.9258 135.969 48.2085C135.422 46.5765 133.623 42.4965 131.481 39.8363C129.876 37.8399 127.966 36.1091 125.822 34.7078L122.644 32.627L121.991 34.8302C121.461 35.3395 120.883 35.7959 120.265 36.1929Z" fill="#455A64"/>
<path d="M134.79 37.1677C135.1 37.1677 148.74 41.6231 147.948 41.2967L148.315 40.9132L153.211 33.5039L157.699 36.16C157.699 36.16 153.264 44.6505 152.53 45.9846C152.179 46.6374 151.656 47.182 151.018 47.5601C150.381 47.9382 149.652 48.1355 148.911 48.1307C147.911 48.1307 139.368 46.6986 139.368 46.6986L134.79 37.1677Z" fill="#455A64"/>
<path d="M140.277 32.0679L141.334 30.1992L146.083 32.9043L145.345 34.9606L140.277 32.0679Z" fill="#E0E0E0"/>
<path opacity="0.3" d="M119.384 46.194C119.384 46.194 128.552 51.2899 131.469 51.9794C134.386 52.6689 137.638 53.5869 137.638 53.5869L136.328 49.4172L128.36 44.5742L119.384 46.194Z" fill="black"/>
<path d="M119.384 46.1925C119.27 46.1068 133.137 51.0395 135.965 50.1501C138.792 49.2607 139.706 46.4781 140.718 44.7359C142.566 41.5821 145.843 35.3071 145.843 35.3071L139.976 31.9492L134.133 41.7412C134.133 41.7412 123.79 37.4735 122.84 37.1961C121.889 36.9187 118.947 36.5351 117.511 39.9746C115.904 43.7812 119.384 46.1925 119.384 46.1925Z" fill="#455A64"/>
<path d="M119.384 46.1938C119.345 46.1773 119.31 46.1553 119.278 46.1285C119.212 46.0795 119.114 46.002 118.992 45.8959C118.634 45.5846 118.314 45.2327 118.037 44.8474C117.582 44.2304 117.27 43.5195 117.123 42.7666C117.08 42.5376 117.054 42.3058 117.046 42.073C117.046 41.8322 117.07 41.5834 117.079 41.3222C117.087 41.0611 117.168 40.8082 117.25 40.547C117.332 40.2788 117.43 40.0158 117.544 39.7596C117.784 39.1987 118.118 38.6827 118.531 38.2337C118.988 37.7438 119.56 37.3763 120.196 37.1647C120.883 36.9377 121.615 36.8803 122.329 36.9974C122.704 37.0562 123.07 37.1603 123.419 37.3075L124.5 37.7155C127.413 38.862 130.657 40.188 134.153 41.6242L134.031 41.665L139.869 31.873L139.922 31.7832L140.012 31.8362L142.13 33.0602L145.896 35.2104L145.985 35.2594L145.936 35.3491C144.782 37.5523 143.643 39.6862 142.525 41.7221C141.962 42.7421 141.408 43.7376 140.845 44.7046C140.281 45.6715 139.849 46.663 139.261 47.5606C138.713 48.4565 137.959 49.2089 137.062 49.7556C136.628 50.0123 136.153 50.1957 135.659 50.2982C135.178 50.3534 134.692 50.3534 134.21 50.2982C132.487 50.0745 130.783 49.7254 129.11 49.2538C126.042 48.4378 123.619 47.6218 121.954 47.0832C120.289 46.5446 119.384 46.1938 119.384 46.1938C119.443 46.199 119.5 46.2127 119.555 46.2346L120.053 46.3896L121.975 47.0098C123.651 47.5361 126.079 48.3154 129.143 49.115C130.811 49.5766 132.51 49.9161 134.227 50.131C134.694 50.184 135.167 50.184 135.634 50.131C136.106 50.028 136.557 49.8503 136.973 49.6046C137.843 49.0691 138.573 48.3333 139.102 47.4586C139.682 46.5814 140.114 45.5818 140.677 44.6026C141.24 43.6234 141.787 42.6442 142.346 41.6282C143.46 39.5882 144.598 37.4544 145.749 35.2512L145.794 35.394L142.015 33.252L139.902 32.028L140.045 31.9913C137.98 35.4348 136.006 38.7396 134.194 41.7833L134.149 41.8567L134.072 41.8241C130.591 40.3838 127.327 39.0497 124.439 37.8869L123.362 37.4789C123.024 37.3321 122.669 37.228 122.305 37.1688C121.615 37.0534 120.907 37.1051 120.241 37.3198C119.627 37.522 119.073 37.874 118.629 38.3438C118.224 38.7773 117.895 39.275 117.654 39.8167C117.54 40.0674 117.442 40.3249 117.36 40.5878C117.278 40.8408 117.246 41.1019 117.189 41.3467C117.132 41.5915 117.136 41.8404 117.148 42.077C117.154 42.3056 117.177 42.5334 117.217 42.7584C117.354 43.5009 117.652 44.2043 118.09 44.8188C118.359 45.2055 118.67 45.5613 119.017 45.8796C119.131 45.9898 119.225 46.0673 119.29 46.1203L119.384 46.1938Z" fill="#263238"/>
<path d="M126.051 67.0952L127.336 64.4922L136.328 64.6513L135.329 67.3441L126.051 67.0952Z" fill="#455A64"/>
<path d="M126.051 67.0948H126.781H128.74C130.4 67.1193 132.697 67.1519 135.333 67.2172L135.231 67.2866C135.537 66.4706 135.855 65.6015 136.186 64.7162L136.23 64.5938L136.328 64.7366C132.705 64.6713 129.474 64.6019 127.352 64.5407L127.414 64.504L126.426 66.3849C126.316 66.593 126.226 66.7602 126.157 66.899C126.126 66.9625 126.09 67.0238 126.051 67.0826C126.051 67.0826 126.051 67.0295 126.12 66.9153C126.19 66.801 126.263 66.6134 126.357 66.4053L127.275 64.451V64.4102H127.328C129.466 64.4102 132.697 64.4673 136.304 64.5326H136.455L136.402 64.6713L136.357 64.7937L135.402 67.36L135.374 67.4294H135.3C132.616 67.3518 130.274 67.2621 128.625 67.1968L126.7 67.1193L126.194 67.0948C126.146 67.0985 126.098 67.0985 126.051 67.0948Z" fill="#263238"/>
<path d="M132.052 40.5832C132.024 40.6362 129.747 39.3837 126.964 37.7884C124.182 36.1931 121.954 34.8589 121.983 34.81C122.011 34.761 124.288 36.0095 127.07 37.6048C129.853 39.2001 132.085 40.5342 132.052 40.5832Z" fill="#263238"/>
<path d="M135.161 60.2155C135.161 60.2726 132.995 60.1829 130.327 60.0115C127.658 59.8401 125.496 59.6565 125.5 59.6035C125.504 59.5505 127.671 59.6361 130.339 59.8075C133.007 59.9789 135.166 60.1584 135.161 60.2155Z" fill="#263238"/>
<path d="M153.509 33.7037L154.415 32.1777L158.005 34.2749L157.307 35.9313L153.509 33.7037Z" fill="#E0E0E0"/>
<path d="M148.887 44.4309C148.492 44.0342 148.192 43.5531 148.01 43.0238C147.827 42.4945 147.767 41.9308 147.834 41.375C147.895 41.375 147.916 42.1094 148.209 42.954C148.503 43.7985 148.952 44.3942 148.887 44.4309Z" fill="#263238"/>
<path d="M140.103 45.8867C140.45 46.7122 140.732 47.5634 140.947 48.4326C141.23 49.283 141.445 50.1549 141.588 51.0398C141.242 50.2137 140.96 49.3627 140.743 48.4938C140.46 47.6434 140.246 46.7716 140.103 45.8867Z" fill="#263238"/>
<path d="M134.594 44.8227C134.23 44.3982 133.989 43.8825 133.896 43.3311C133.803 42.7798 133.863 42.2136 134.068 41.6934C134.041 42.2281 134.054 42.7641 134.108 43.2968C134.231 43.817 134.394 44.3272 134.594 44.8227Z" fill="#263238"/>
<path opacity="0.3" d="M126.772 67.1106L126.613 67.8981L135.924 68.1592L136.328 64.6504L135.328 67.3432L126.772 67.1106Z" fill="black"/>
<path d="M130.869 37.4781L130.967 37.5842L131.995 38.3104L132.509 38.0207L132.175 36.8824L131.089 36.0664L130.869 37.4781Z" fill="#FAA21E"/>
<path d="M132.256 36.0664C132.368 36.3852 132.446 36.7147 132.489 37.0497L132.521 37.2251L132.37 37.1191C132.011 36.8661 131.554 36.5315 131.028 36.148L131.191 36.0827C131.142 36.4051 131.089 36.7437 131.036 37.0946C131 37.3067 130.967 37.5026 130.938 37.7107L130.914 37.8535L130.787 37.7882C130.004 37.4047 129.323 37.0619 128.837 36.8049C128.568 36.6845 128.312 36.5354 128.074 36.3602C128.358 36.4364 128.631 36.5445 128.89 36.6825C129.392 36.9028 130.09 37.2251 130.873 37.6005L130.726 37.678L130.82 37.0619C130.877 36.7111 130.93 36.3724 130.983 36.0542L131.012 35.8828L131.146 35.9848C131.661 36.3928 132.113 36.7315 132.456 37.0048L132.338 37.0742C132.277 36.7418 132.25 36.4042 132.256 36.0664Z" fill="#263238"/>
</svg>
