<svg width="30" height="30" viewBox="0 0 30 30" fill="none" xmlns="http://www.w3.org/2000/svg">
<path d="M21.5625 0H8.4375C3.75 0 0 3.75 0 8.4375V21.5625C0 26.25 3.75 30 8.4375 30H21.5625C26.25 30 30 26.25 30 21.5625V8.4375C30 3.75 26.25 0 21.5625 0ZM11.25 23.4375C11.25 24 10.875 24.375 10.3125 24.375H6.5625C6 24.375 5.625 24 5.625 23.4375V12.1875C5.625 11.625 6 11.25 6.5625 11.25H10.3125C10.875 11.25 11.25 11.625 11.25 12.1875V23.4375ZM8.4375 10.3125C6.84375 10.3125 5.625 9.09375 5.625 7.5C5.625 5.90625 6.84375 4.6875 8.4375 4.6875C10.0312 4.6875 11.25 5.90625 11.25 7.5C11.25 9.09375 10.0312 10.3125 8.4375 10.3125ZM24.375 23.4375C24.375 24 24 24.375 23.4375 24.375H20.625C20.0625 24.375 19.6875 24 19.6875 23.4375V20.1562V19.2188V17.3438C19.6875 16.5938 19.0312 15.9375 18.2812 15.9375C17.5312 15.9375 16.875 16.5938 16.875 17.3438V19.2188V20.1562V23.4375C16.875 24 16.5 24.375 15.9375 24.375H13.125C12.5625 24.375 12.1875 24 12.1875 23.4375V12.1875C12.1875 11.625 12.5625 11.25 13.125 11.25H16.875C17.1562 11.25 17.3438 11.3438 17.5312 11.5312C18.0938 11.3438 18.6562 11.25 19.2188 11.25C22.0312 11.25 24.375 13.5938 24.375 16.4062V23.4375Z" fill="black"/>
</svg>
