<svg width="27" height="27" viewBox="0 0 27 27" fill="none" xmlns="http://www.w3.org/2000/svg">
<path d="M26.3113 11.0879C26.261 10.8092 26.1144 10.5571 25.8971 10.3755C25.6798 10.1939 25.4056 10.0944 25.1225 10.0943H13.7419C13.5832 10.0943 13.4261 10.1255 13.2794 10.1862C13.1328 10.2469 12.9996 10.3359 12.8874 10.4481C12.7752 10.5603 12.6862 10.6936 12.6255 10.8402C12.5647 10.9868 12.5335 11.144 12.5336 11.3026V15.9767C12.5335 16.1354 12.5647 16.2925 12.6255 16.4391C12.6862 16.5858 12.7752 16.719 12.8874 16.8312C12.9996 16.9434 13.1328 17.0324 13.2794 17.0931C13.4261 17.1538 13.5832 17.185 13.7419 17.185H18.5298C18.1886 17.7608 17.721 18.2515 17.1622 18.6199C16.141 19.2674 14.9507 19.5975 13.7419 19.5686C12.4882 19.5543 11.2709 19.1452 10.2631 18.3995C9.25521 17.6537 8.50801 16.6093 8.12768 15.4146L8.12733 15.4126C7.70409 14.1721 7.70409 12.8263 8.12733 11.5858L8.12762 11.5838C8.50822 10.3894 9.25553 9.34528 10.2634 8.59978C11.2712 7.85429 12.4884 7.44533 13.7419 7.43102C14.4384 7.41504 15.1312 7.5368 15.7805 7.78932C16.4298 8.04184 17.0228 8.42014 17.5255 8.9025C17.7539 9.12067 18.0585 9.24085 18.3743 9.23732C18.6901 9.2338 18.9919 9.10685 19.2153 8.88362L22.681 5.41792C22.7958 5.30325 22.8864 5.16661 22.9472 5.01617C23.008 4.86573 23.0379 4.70457 23.035 4.54232C23.0322 4.38008 22.9966 4.22007 22.9305 4.07187C22.8644 3.92367 22.7691 3.79031 22.6503 3.67977C20.2387 1.41861 17.0476 0.175068 13.7419 0.208164C11.2768 0.20087 8.85872 0.882428 6.76029 2.17598C4.66187 3.46953 2.96658 5.32363 1.86559 7.52919L1.86381 7.53133C0.930409 9.3822 0.446133 11.4269 0.450221 13.4998C0.453161 15.5719 0.93708 17.6151 1.86387 19.4683L1.86565 19.4705C2.96663 21.676 4.66192 23.5301 6.76033 24.8237C8.85874 26.1172 11.2768 26.7988 13.7419 26.7915C16.9867 26.8736 20.1401 25.7121 22.5563 23.5447L22.5581 23.5431C23.8678 22.2832 24.8997 20.7631 25.5872 19.0809C26.2747 17.3987 26.6027 15.5913 26.5503 13.7748C26.5509 12.8738 26.4709 11.9746 26.3113 11.0879ZM13.7419 2.62483C16.0028 2.60282 18.2103 3.31182 20.0355 4.64619L18.279 6.40208C16.9471 5.48019 15.3616 4.99523 13.7419 5.01436C12.2632 5.02196 10.8132 5.42349 9.54115 6.1776C8.26914 6.93172 7.22107 8.01118 6.50481 9.30488L5.21284 8.30349L4.50597 7.75531C5.4784 6.18187 6.83804 4.88405 8.45499 3.98585C10.072 3.08764 11.8922 2.61905 13.7419 2.62483ZM3.44621 17.008C2.6737 14.733 2.6737 12.2666 3.44621 9.99165L5.59974 11.6614C5.3244 12.8712 5.3244 14.1273 5.59974 15.3371L3.44621 17.008ZM13.7419 24.3748C11.8922 24.3806 10.0719 23.9119 8.45492 23.0137C6.83795 22.1155 5.4783 20.8176 4.50587 19.2441L4.96312 18.8895L6.50481 17.6936C7.22075 18.9877 8.26872 20.0675 9.54078 20.8218C10.8128 21.5762 12.263 21.9778 13.7419 21.9853C15.1262 22.0016 16.4948 21.6907 17.7363 21.0781L19.7804 22.665C17.9826 23.8234 15.88 24.4187 13.7419 24.3748ZM21.6273 21.0389L21.4062 20.8674L19.7419 19.5753C20.6146 18.6325 21.2011 17.461 21.4332 16.1974C21.4656 16.023 21.4592 15.8436 21.4145 15.6719C21.3698 15.5002 21.2878 15.3405 21.1743 15.2041C21.0609 15.0677 20.9188 14.9579 20.7582 14.8826C20.5975 14.8073 20.4223 14.7683 20.2449 14.7684H14.9502V12.511H24.0717C24.113 12.9287 24.1337 13.3511 24.1337 13.7748C24.2043 16.4196 23.3139 19.0004 21.6273 21.0389Z" fill="white"/>
</svg>
