<svg width="39" height="36" viewBox="0 0 39 36" fill="none" xmlns="http://www.w3.org/2000/svg">
<path d="M8.5 36C7 36 5.51667 35.6331 4.05 34.8993C2.58333 34.1654 1.4 33.1981 0.5 31.9973C1.36667 31.9973 2.25 31.6554 3.15 30.9716C4.05 30.2879 4.5 29.2955 4.5 27.9947C4.5 26.3269 5.08333 24.9093 6.25 23.7418C7.41667 22.5744 8.83333 21.9907 10.5 21.9907C12.1667 21.9907 13.5833 22.5744 14.75 23.7418C15.9167 24.9093 16.5 26.3269 16.5 27.9947C16.5 30.1961 15.7167 32.0807 14.15 33.6484C12.5833 35.2161 10.7 36 8.5 36ZM8.5 31.9973C9.6 31.9973 10.5417 31.6054 11.325 30.8215C12.1083 30.0377 12.5 29.0954 12.5 27.9947C12.5 27.4276 12.3083 26.9523 11.925 26.5687C11.5417 26.1851 11.0667 25.9933 10.5 25.9933C9.93333 25.9933 9.45833 26.1851 9.075 26.5687C8.69167 26.9523 8.5 27.4276 8.5 27.9947C8.5 28.7618 8.40833 29.4623 8.225 30.0961C8.04167 30.7298 7.8 31.3302 7.5 31.8973C7.66667 31.964 7.83333 31.9973 8 31.9973H8.5ZM20 23.992L14.5 18.4883L32.4 0.576384C32.7667 0.209473 33.225 0.0176785 33.775 0.00100067C34.325 -0.0156771 34.8 0.176117 35.2 0.576384L37.9 3.27819C38.3 3.67845 38.5 4.14543 38.5 4.67912C38.5 5.21281 38.3 5.67979 37.9 6.08005L20 23.992Z" fill="white"/>
</svg>
