<svg width="87" height="86" viewBox="0 0 87 86" fill="none" xmlns="http://www.w3.org/2000/svg">
<rect width="86" height="86" transform="translate(0.5)" fill="#FF3838"/>
<path d="M32.5 61C31 61 29.5167 60.6331 28.05 59.8993C26.5833 59.1654 25.4 58.1981 24.5 56.9973C25.3667 56.9973 26.25 56.6554 27.15 55.9716C28.05 55.2879 28.5 54.2955 28.5 52.9947C28.5 51.3269 29.0833 49.9093 30.25 48.7418C31.4167 47.5744 32.8333 46.9907 34.5 46.9907C36.1667 46.9907 37.5833 47.5744 38.75 48.7418C39.9167 49.9093 40.5 51.3269 40.5 52.9947C40.5 55.1961 39.7167 57.0807 38.15 58.6484C36.5833 60.2161 34.7 61 32.5 61ZM32.5 56.9973C33.6 56.9973 34.5417 56.6054 35.325 55.8215C36.1083 55.0377 36.5 54.0954 36.5 52.9947C36.5 52.4276 36.3083 51.9523 35.925 51.5687C35.5417 51.1851 35.0667 50.9933 34.5 50.9933C33.9333 50.9933 33.4583 51.1851 33.075 51.5687C32.6917 51.9523 32.5 52.4276 32.5 52.9947C32.5 53.7618 32.4083 54.4623 32.225 55.0961C32.0417 55.7298 31.8 56.3302 31.5 56.8973C31.6667 56.964 31.8333 56.9973 32 56.9973H32.5ZM44 48.992L38.5 43.4883L56.4 25.5764C56.7667 25.2095 57.225 25.0177 57.775 25.001C58.325 24.9843 58.8 25.1761 59.2 25.5764L61.9 28.2782C62.3 28.6785 62.5 29.1454 62.5 29.6791C62.5 30.2128 62.3 30.6798 61.9 31.0801L44 48.992Z" fill="white"/>
</svg>
