<svg width="43" height="40" viewBox="0 0 43 40" fill="none" xmlns="http://www.w3.org/2000/svg">
<rect x="0.5" width="42" height="40" rx="20" fill="#FF3838"/>
<path d="M11.9537 30.9674C11.2537 30.9674 10.6544 30.7147 10.1559 30.2094C9.65745 29.704 9.4082 29.0965 9.4082 28.3868V12.9029C9.4082 12.1932 9.65745 11.5857 10.1559 11.0803C10.6544 10.575 11.2537 10.3223 11.9537 10.3223H32.3173C33.0173 10.3223 33.6165 10.575 34.115 11.0803C34.6135 11.5857 34.8627 12.1932 34.8627 12.9029V28.3868C34.8627 29.0965 34.6135 29.704 34.115 30.2094C33.6165 30.7147 33.0173 30.9674 32.3173 30.9674H11.9537ZM22.1355 21.9352L11.9537 15.4836V28.3868H32.3173V15.4836L22.1355 21.9352ZM22.1355 19.3545L32.3173 12.9029H11.9537L22.1355 19.3545ZM11.9537 15.4836V12.9029V28.3868V15.4836Z" fill="white"/>
</svg>
