<svg width="26" height="21" viewBox="0 0 26 21" fill="none" xmlns="http://www.w3.org/2000/svg">
<path d="M2.95366 20.9674C2.25366 20.9674 1.65442 20.7147 1.15593 20.2094C0.657446 19.704 0.408203 19.0965 0.408203 18.3868V2.90291C0.408203 2.19323 0.657446 1.58571 1.15593 1.08033C1.65442 0.574954 2.25366 0.322266 2.95366 0.322266H23.3173C24.0173 0.322266 24.6165 0.574954 25.115 1.08033C25.6135 1.58571 25.8627 2.19323 25.8627 2.90291V18.3868C25.8627 19.0965 25.6135 19.704 25.115 20.2094C24.6165 20.7147 24.0173 20.9674 23.3173 20.9674H2.95366ZM13.1355 11.9352L2.95366 5.48356V18.3868H23.3173V5.48356L13.1355 11.9352ZM13.1355 9.35452L23.3173 2.90291H2.95366L13.1355 9.35452ZM2.95366 5.48356V2.90291V18.3868V5.48356Z" fill="white"/>
</svg>
