<svg width="26" height="27" viewBox="0 0 26 27" fill="none" xmlns="http://www.w3.org/2000/svg">
<path d="M12.864 26.2576C11.1246 26.2576 9.48066 25.9189 7.93217 25.2415C6.38369 24.5641 5.03142 23.6393 3.87536 22.4673C2.71929 21.2953 1.80717 19.9243 1.13899 18.3544C0.47081 16.7845 0.136719 15.1178 0.136719 13.3544C0.136719 11.5695 0.47081 9.89741 1.13899 8.33827C1.80717 6.77913 2.71929 5.41354 3.87536 4.24149C5.03142 3.06945 6.38369 2.14472 7.93217 1.4673C9.48066 0.789882 11.1246 0.451172 12.864 0.451172C14.6246 0.451172 16.2738 0.789882 17.8117 1.4673C19.3496 2.14472 20.6966 3.06945 21.8526 4.24149C23.0087 5.41354 23.9208 6.77913 24.589 8.33827C25.2572 9.89741 25.5913 11.5695 25.5913 13.3544C25.5913 15.1178 25.2572 16.7845 24.589 18.3544C23.9208 19.9243 23.0087 21.2953 21.8526 22.4673C20.6966 23.6393 19.3496 24.5641 17.8117 25.2415C16.2738 25.9189 14.6246 26.2576 12.864 26.2576ZM12.864 23.6125C13.4155 22.8383 13.8928 22.0318 14.2958 21.1931C14.6988 20.3544 15.0276 19.4619 15.2822 18.5157H10.4458C10.7004 19.4619 11.0291 20.3544 11.4322 21.1931C11.8352 22.0318 12.3125 22.8383 12.864 23.6125ZM9.5549 23.0963C9.17308 22.3867 8.83899 21.6501 8.55263 20.8867C8.26626 20.1232 8.02763 19.3329 7.83672 18.5157H4.08217C4.69732 19.591 5.46626 20.5264 6.38899 21.3221C7.31172 22.1178 8.36702 22.7092 9.5549 23.0963ZM16.1731 23.0963C17.361 22.7092 18.4163 22.1178 19.339 21.3221C20.2617 20.5264 21.0307 19.591 21.6458 18.5157H17.8913C17.7004 19.3329 17.4617 20.1232 17.1754 20.8867C16.889 21.6501 16.5549 22.3867 16.1731 23.0963ZM3.00036 15.935H7.32763C7.26399 15.5049 7.21626 15.0802 7.18445 14.6608C7.15263 14.2415 7.13672 13.806 7.13672 13.3544C7.13672 12.9028 7.15263 12.4673 7.18445 12.0479C7.21626 11.6286 7.26399 11.2039 7.32763 10.7738H3.00036C2.89429 11.2039 2.81475 11.6286 2.76172 12.0479C2.70869 12.4673 2.68217 12.9028 2.68217 13.3544C2.68217 13.806 2.70869 14.2415 2.76172 14.6608C2.81475 15.0802 2.89429 15.5049 3.00036 15.935ZM9.87308 15.935H15.8549C15.9185 15.5049 15.9663 15.0802 15.9981 14.6608C16.0299 14.2415 16.0458 13.806 16.0458 13.3544C16.0458 12.9028 16.0299 12.4673 15.9981 12.0479C15.9663 11.6286 15.9185 11.2039 15.8549 10.7738H9.87308C9.80945 11.2039 9.76172 11.6286 9.7299 12.0479C9.69808 12.4673 9.68217 12.9028 9.68217 13.3544C9.68217 13.806 9.69808 14.2415 9.7299 14.6608C9.76172 15.0802 9.80945 15.5049 9.87308 15.935ZM18.4004 15.935H22.7276C22.8337 15.5049 22.9132 15.0802 22.9663 14.6608C23.0193 14.2415 23.0458 13.806 23.0458 13.3544C23.0458 12.9028 23.0193 12.4673 22.9663 12.0479C22.9132 11.6286 22.8337 11.2039 22.7276 10.7738H18.4004C18.464 11.2039 18.5117 11.6286 18.5435 12.0479C18.5754 12.4673 18.5913 12.9028 18.5913 13.3544C18.5913 13.806 18.5754 14.2415 18.5435 14.6608C18.5117 15.0802 18.464 15.5049 18.4004 15.935ZM17.8913 8.19311H21.6458C21.0307 7.11784 20.2617 6.18235 19.339 5.38666C18.4163 4.59096 17.361 3.99956 16.1731 3.61246C16.5549 4.32214 16.889 5.0587 17.1754 5.82214C17.4617 6.58558 17.7004 7.3759 17.8913 8.19311ZM10.4458 8.19311H15.2822C15.0276 7.24687 14.6988 6.3544 14.2958 5.51569C13.8928 4.67698 13.4155 3.87053 12.864 3.09633C12.3125 3.87053 11.8352 4.67698 11.4322 5.51569C11.0291 6.3544 10.7004 7.24687 10.4458 8.19311ZM4.08217 8.19311H7.83672C8.02763 7.3759 8.26626 6.58558 8.55263 5.82214C8.83899 5.0587 9.17308 4.32214 9.5549 3.61246C8.36702 3.99956 7.31172 4.59096 6.38899 5.38666C5.46626 6.18235 4.69732 7.11784 4.08217 8.19311Z" fill="white"/>
</svg>
