<svg width="22" height="21" viewBox="0 0 22 21" fill="none" xmlns="http://www.w3.org/2000/svg">
<path d="M19.9391 20.0645C17.6057 20.0645 15.3004 19.5724 13.0231 18.5884C10.7457 17.6044 8.67374 16.2096 6.80708 14.404C4.94041 12.5985 3.49841 10.5943 2.48108 8.39154C1.46374 6.18876 0.955078 3.9589 0.955078 1.70195C0.955078 1.37695 1.06708 1.10612 1.29108 0.889453C1.51508 0.672786 1.79508 0.564453 2.13108 0.564453H6.66708C6.92841 0.564453 7.16174 0.650217 7.36708 0.821745C7.57241 0.993273 7.69375 1.1964 7.73108 1.43112L8.45908 5.22279C8.49641 5.51168 8.48708 5.75543 8.43108 5.95404C8.37508 6.15265 8.27241 6.32418 8.12308 6.46862L5.40708 9.12279C5.78041 9.79084 6.22374 10.4363 6.73708 11.0592C7.25041 11.6822 7.81508 12.2825 8.43108 12.8603C9.00974 13.42 9.61641 13.9391 10.2511 14.4176C10.8857 14.8961 11.5577 15.3339 12.2671 15.7311L14.8991 13.1853C15.0671 13.0228 15.2864 12.9009 15.5571 12.8197C15.8277 12.7384 16.0937 12.7158 16.3551 12.752L20.2191 13.5103C20.4804 13.5825 20.6951 13.7134 20.8631 13.903C21.0311 14.0926 21.1151 14.3047 21.1151 14.5395V18.927C21.1151 19.252 21.0031 19.5228 20.7791 19.7395C20.5551 19.9561 20.2751 20.0645 19.9391 20.0645ZM4.34308 7.06445L6.19108 5.27695L5.71508 2.73112H3.22308C3.31641 3.4714 3.44708 4.20265 3.61508 4.92487C3.78308 5.64709 4.02575 6.36029 4.34308 7.06445ZM14.3671 16.7603C15.0951 17.0672 15.8371 17.311 16.5931 17.4915C17.3491 17.6721 18.1097 17.7895 18.8751 17.8436V15.4603L16.2431 14.9457L14.3671 16.7603Z" fill="white"/>
</svg>
