<svg width="43" height="40" viewBox="0 0 43 40" fill="none" xmlns="http://www.w3.org/2000/svg">
<rect x="0.5" y="0.5" width="42" height="39" rx="19.5" fill="#FF3838"/>
<path d="M30.9391 30.0645C28.6057 30.0645 26.3004 29.5724 24.0231 28.5884C21.7457 27.6044 19.6737 26.2096 17.8071 24.404C15.9404 22.5985 14.4984 20.5943 13.4811 18.3915C12.4637 16.1888 11.9551 13.9589 11.9551 11.702C11.9551 11.377 12.0671 11.1061 12.2911 10.8895C12.5151 10.6728 12.7951 10.5645 13.1311 10.5645H17.6671C17.9284 10.5645 18.1617 10.6502 18.3671 10.8217C18.5724 10.9933 18.6937 11.1964 18.7311 11.4311L19.4591 15.2228C19.4964 15.5117 19.4871 15.7554 19.4311 15.954C19.3751 16.1526 19.2724 16.3242 19.1231 16.4686L16.4071 19.1228C16.7804 19.7908 17.2237 20.4363 17.7371 21.0592C18.2504 21.6822 18.8151 22.2825 19.4311 22.8603C20.0097 23.42 20.6164 23.9391 21.2511 24.4176C21.8857 24.8961 22.5577 25.3339 23.2671 25.7311L25.8991 23.1853C26.0671 23.0228 26.2864 22.9009 26.5571 22.8197C26.8277 22.7384 27.0937 22.7158 27.3551 22.752L31.2191 23.5103C31.4804 23.5825 31.6951 23.7134 31.8631 23.903C32.0311 24.0926 32.1151 24.3047 32.1151 24.5395V28.927C32.1151 29.252 32.0031 29.5228 31.7791 29.7395C31.5551 29.9561 31.2751 30.0645 30.9391 30.0645ZM15.3431 17.0645L17.1911 15.277L16.7151 12.7311H14.2231C14.3164 13.4714 14.4471 14.2026 14.6151 14.9249C14.7831 15.6471 15.0257 16.3603 15.3431 17.0645ZM25.3671 26.7603C26.0951 27.0672 26.8371 27.311 27.5931 27.4915C28.3491 27.6721 29.1097 27.7895 29.8751 27.8436V25.4603L27.2431 24.9457L25.3671 26.7603Z" fill="white"/>
</svg>
