<svg width="42" height="39" viewBox="0 0 42 39" fill="none" xmlns="http://www.w3.org/2000/svg">
<ellipse cx="21" cy="19.5" rx="21" ry="19" fill="#FAA11F"/>
<path d="M27 30C26.1667 30 25.4583 29.6792 24.875 29.0375C24.2917 28.3958 24 27.6167 24 26.7C24 26.5717 24.0083 26.4388 24.025 26.3013C24.0417 26.1638 24.0667 26.04 24.1 25.93L17.05 21.42C16.7667 21.695 16.45 21.9104 16.1 22.0663C15.75 22.2221 15.3833 22.3 15 22.3C14.1667 22.3 13.4583 21.9792 12.875 21.3375C12.2917 20.6958 12 19.9167 12 19C12 18.0833 12.2917 17.3042 12.875 16.6625C13.4583 16.0208 14.1667 15.7 15 15.7C15.3833 15.7 15.75 15.7779 16.1 15.9338C16.45 16.0896 16.7667 16.305 17.05 16.58L24.1 12.07C24.0667 11.96 24.0417 11.8362 24.025 11.6987C24.0083 11.5612 24 11.4283 24 11.3C24 10.3833 24.2917 9.60417 24.875 8.9625C25.4583 8.32083 26.1667 8 27 8C27.8333 8 28.5417 8.32083 29.125 8.9625C29.7083 9.60417 30 10.3833 30 11.3C30 12.2167 29.7083 12.9958 29.125 13.6375C28.5417 14.2792 27.8333 14.6 27 14.6C26.6167 14.6 26.25 14.5221 25.9 14.3662C25.55 14.2104 25.2333 13.995 24.95 13.72L17.9 18.23C17.9333 18.34 17.9583 18.4637 17.975 18.6012C17.9917 18.7387 18 18.8717 18 19C18 19.1283 17.9917 19.2613 17.975 19.3988C17.9583 19.5363 17.9333 19.66 17.9 19.77L24.95 24.28C25.2333 24.005 25.55 23.7896 25.9 23.6337C26.25 23.4779 26.6167 23.4 27 23.4C27.8333 23.4 28.5417 23.7208 29.125 24.3625C29.7083 25.0042 30 25.7833 30 26.7C30 27.6167 29.7083 28.3958 29.125 29.0375C28.5417 29.6792 27.8333 30 27 30ZM27 12.4C27.2833 12.4 27.5208 12.2946 27.7125 12.0838C27.9042 11.8729 28 11.6117 28 11.3C28 10.9883 27.9042 10.7271 27.7125 10.5162C27.5208 10.3054 27.2833 10.2 27 10.2C26.7167 10.2 26.4792 10.3054 26.2875 10.5162C26.0958 10.7271 26 10.9883 26 11.3C26 11.6117 26.0958 11.8729 26.2875 12.0838C26.4792 12.2946 26.7167 12.4 27 12.4ZM15 20.1C15.2833 20.1 15.5208 19.9946 15.7125 19.7838C15.9042 19.5729 16 19.3117 16 19C16 18.6883 15.9042 18.4271 15.7125 18.2163C15.5208 18.0054 15.2833 17.9 15 17.9C14.7167 17.9 14.4792 18.0054 14.2875 18.2163C14.0958 18.4271 14 18.6883 14 19C14 19.3117 14.0958 19.5729 14.2875 19.7838C14.4792 19.9946 14.7167 20.1 15 20.1ZM27 27.8C27.2833 27.8 27.5208 27.6946 27.7125 27.4837C27.9042 27.2729 28 27.0117 28 26.7C28 26.3883 27.9042 26.1271 27.7125 25.9163C27.5208 25.7054 27.2833 25.6 27 25.6C26.7167 25.6 26.4792 25.7054 26.2875 25.9163C26.0958 26.1271 26 26.3883 26 26.7C26 27.0117 26.0958 27.2729 26.2875 27.4837C26.4792 27.6946 26.7167 27.8 27 27.8Z" fill="white"/>
</svg>
