<svg width="18" height="22" viewBox="0 0 18 22" fill="none" xmlns="http://www.w3.org/2000/svg">
<path d="M15 22C14.1667 22 13.4583 21.6792 12.875 21.0375C12.2917 20.3958 12 19.6167 12 18.7C12 18.5717 12.0083 18.4388 12.025 18.3013C12.0417 18.1638 12.0667 18.04 12.1 17.93L5.05 13.42C4.76667 13.695 4.45 13.9104 4.1 14.0663C3.75 14.2221 3.38333 14.3 3 14.3C2.16667 14.3 1.45833 13.9792 0.875 13.3375C0.291667 12.6958 0 11.9167 0 11C0 10.0833 0.291667 9.30417 0.875 8.6625C1.45833 8.02083 2.16667 7.7 3 7.7C3.38333 7.7 3.75 7.77792 4.1 7.93375C4.45 8.08958 4.76667 8.305 5.05 8.58L12.1 4.07C12.0667 3.96 12.0417 3.83625 12.025 3.69875C12.0083 3.56125 12 3.42833 12 3.3C12 2.38333 12.2917 1.60417 12.875 0.9625C13.4583 0.320833 14.1667 0 15 0C15.8333 0 16.5417 0.320833 17.125 0.9625C17.7083 1.60417 18 2.38333 18 3.3C18 4.21667 17.7083 4.99583 17.125 5.6375C16.5417 6.27917 15.8333 6.6 15 6.6C14.6167 6.6 14.25 6.52208 13.9 6.36625C13.55 6.21042 13.2333 5.995 12.95 5.72L5.9 10.23C5.93333 10.34 5.95833 10.4637 5.975 10.6012C5.99167 10.7387 6 10.8717 6 11C6 11.1283 5.99167 11.2613 5.975 11.3988C5.95833 11.5363 5.93333 11.66 5.9 11.77L12.95 16.28C13.2333 16.005 13.55 15.7896 13.9 15.6337C14.25 15.4779 14.6167 15.4 15 15.4C15.8333 15.4 16.5417 15.7208 17.125 16.3625C17.7083 17.0042 18 17.7833 18 18.7C18 19.6167 17.7083 20.3958 17.125 21.0375C16.5417 21.6792 15.8333 22 15 22ZM15 4.4C15.2833 4.4 15.5208 4.29458 15.7125 4.08375C15.9042 3.87292 16 3.61167 16 3.3C16 2.98833 15.9042 2.72708 15.7125 2.51625C15.5208 2.30542 15.2833 2.2 15 2.2C14.7167 2.2 14.4792 2.30542 14.2875 2.51625C14.0958 2.72708 14 2.98833 14 3.3C14 3.61167 14.0958 3.87292 14.2875 4.08375C14.4792 4.29458 14.7167 4.4 15 4.4ZM3 12.1C3.28333 12.1 3.52083 11.9946 3.7125 11.7838C3.90417 11.5729 4 11.3117 4 11C4 10.6883 3.90417 10.4271 3.7125 10.2163C3.52083 10.0054 3.28333 9.9 3 9.9C2.71667 9.9 2.47917 10.0054 2.2875 10.2163C2.09583 10.4271 2 10.6883 2 11C2 11.3117 2.09583 11.5729 2.2875 11.7838C2.47917 11.9946 2.71667 12.1 3 12.1ZM15 19.8C15.2833 19.8 15.5208 19.6946 15.7125 19.4837C15.9042 19.2729 16 19.0117 16 18.7C16 18.3883 15.9042 18.1271 15.7125 17.9163C15.5208 17.7054 15.2833 17.6 15 17.6C14.7167 17.6 14.4792 17.7054 14.2875 17.9163C14.0958 18.1271 14 18.3883 14 18.7C14 19.0117 14.0958 19.2729 14.2875 19.4837C14.4792 19.6946 14.7167 19.8 15 19.8Z" fill="white"/>
</svg>
