<svg width="43" height="40" viewBox="0 0 43 40" fill="none" xmlns="http://www.w3.org/2000/svg">
<ellipse cx="21.5" cy="20" rx="21" ry="20" fill="#FF3838"/>
<path d="M20.864 32.2576C19.1246 32.2576 17.4807 31.9189 15.9322 31.2415C14.3837 30.5641 13.0314 29.6393 11.8754 28.4673C10.7193 27.2953 9.80717 25.9243 9.13899 24.3544C8.47081 22.7845 8.13672 21.1178 8.13672 19.3544C8.13672 17.5695 8.47081 15.8974 9.13899 14.3383C9.80717 12.7791 10.7193 11.4135 11.8754 10.2415C13.0314 9.06945 14.3837 8.14472 15.9322 7.4673C17.4807 6.78988 19.1246 6.45117 20.864 6.45117C22.6246 6.45117 24.2738 6.78988 25.8117 7.4673C27.3496 8.14472 28.6966 9.06945 29.8526 10.2415C31.0087 11.4135 31.9208 12.7791 32.589 14.3383C33.2572 15.8974 33.5913 17.5695 33.5913 19.3544C33.5913 21.1178 33.2572 22.7845 32.589 24.3544C31.9208 25.9243 31.0087 27.2953 29.8526 28.4673C28.6966 29.6393 27.3496 30.5641 25.8117 31.2415C24.2738 31.9189 22.6246 32.2576 20.864 32.2576ZM20.864 29.6125C21.4155 28.8383 21.8928 28.0318 22.2958 27.1931C22.6988 26.3544 23.0276 25.4619 23.2822 24.5157H18.4458C18.7004 25.4619 19.0291 26.3544 19.4322 27.1931C19.8352 28.0318 20.3125 28.8383 20.864 29.6125ZM17.5549 29.0963C17.1731 28.3867 16.839 27.6501 16.5526 26.8867C16.2663 26.1232 16.0276 25.3329 15.8367 24.5157H12.0822C12.6973 25.591 13.4663 26.5264 14.389 27.3221C15.3117 28.1178 16.367 28.7092 17.5549 29.0963ZM24.1731 29.0963C25.361 28.7092 26.4163 28.1178 27.339 27.3221C28.2617 26.5264 29.0307 25.591 29.6458 24.5157H25.8913C25.7004 25.3329 25.4617 26.1232 25.1754 26.8867C24.889 27.6501 24.5549 28.3867 24.1731 29.0963ZM11.0004 21.935H15.3276C15.264 21.5049 15.2163 21.0802 15.1844 20.6608C15.1526 20.2415 15.1367 19.806 15.1367 19.3544C15.1367 18.9028 15.1526 18.4673 15.1844 18.0479C15.2163 17.6286 15.264 17.2039 15.3276 16.7738H11.0004C10.8943 17.2039 10.8147 17.6286 10.7617 18.0479C10.7087 18.4673 10.6822 18.9028 10.6822 19.3544C10.6822 19.806 10.7087 20.2415 10.7617 20.6608C10.8147 21.0802 10.8943 21.5049 11.0004 21.935ZM17.8731 21.935H23.8549C23.9185 21.5049 23.9663 21.0802 23.9981 20.6608C24.0299 20.2415 24.0458 19.806 24.0458 19.3544C24.0458 18.9028 24.0299 18.4673 23.9981 18.0479C23.9663 17.6286 23.9185 17.2039 23.8549 16.7738H17.8731C17.8094 17.2039 17.7617 17.6286 17.7299 18.0479C17.6981 18.4673 17.6822 18.9028 17.6822 19.3544C17.6822 19.806 17.6981 20.2415 17.7299 20.6608C17.7617 21.0802 17.8094 21.5049 17.8731 21.935ZM26.4004 21.935H30.7276C30.8337 21.5049 30.9132 21.0802 30.9663 20.6608C31.0193 20.2415 31.0458 19.806 31.0458 19.3544C31.0458 18.9028 31.0193 18.4673 30.9663 18.0479C30.9132 17.6286 30.8337 17.2039 30.7276 16.7738H26.4004C26.464 17.2039 26.5117 17.6286 26.5435 18.0479C26.5754 18.4673 26.5913 18.9028 26.5913 19.3544C26.5913 19.806 26.5754 20.2415 26.5435 20.6608C26.5117 21.0802 26.464 21.5049 26.4004 21.935ZM25.8913 14.1931H29.6458C29.0307 13.1178 28.2617 12.1824 27.339 11.3867C26.4163 10.591 25.361 9.99956 24.1731 9.61246C24.5549 10.3221 24.889 11.0587 25.1754 11.8221C25.4617 12.5856 25.7004 13.3759 25.8913 14.1931ZM18.4458 14.1931H23.2822C23.0276 13.2469 22.6988 12.3544 22.2958 11.5157C21.8928 10.677 21.4155 9.87053 20.864 9.09633C20.3125 9.87053 19.8352 10.677 19.4322 11.5157C19.0291 12.3544 18.7004 13.2469 18.4458 14.1931ZM12.0822 14.1931H15.8367C16.0276 13.3759 16.2663 12.5856 16.5526 11.8221C16.839 11.0587 17.1731 10.3221 17.5549 9.61246C16.367 9.99956 15.3117 10.591 14.389 11.3867C13.4663 12.1824 12.6973 13.1178 12.0822 14.1931Z" fill="white"/>
</svg>
