<svg width="416" height="277" viewBox="0 0 416 277" fill="none" xmlns="http://www.w3.org/2000/svg">
<rect x="39.1421" y="50.6388" width="257.501" height="174.285" stroke="#C6C6C6" stroke-width="2" stroke-linejoin="round" stroke-dasharray="3 3"/>
<rect x="77.5601" y="0.366882" width="268.26" height="202.564" fill="#F1F1F1"/>
<rect x="84.1299" y="29.93" width="255.121" height="168.621" fill="white"/>
<rect x="104.934" y="51.8293" width="211.323" height="122.633" rx="8" fill="#F1F1F1"/>
<rect x="321.732" y="13.506" width="16.4241" height="4.37976" rx="2.18988" fill="#C4C4C4"/>
<rect x="201.288" y="130.665" width="47.0824" height="4.37976" rx="2.18988" fill="white"/>
<rect x="116.978" y="72.6328" width="47.0824" height="4.37976" rx="2.18988" fill="white"/>
<rect x="258.225" y="130.665" width="47.0824" height="4.37976" rx="2.18988" fill="white"/>
<rect x="201.288" y="138.329" width="47.0824" height="4.37976" rx="2.18988" fill="white"/>
<rect x="116.978" y="80.2971" width="47.0824" height="4.37976" rx="2.18988" fill="white"/>
<rect x="258.225" y="138.329" width="47.0824" height="4.37976" rx="2.18988" fill="white"/>
<rect x="201.288" y="145.994" width="26.2786" height="4.37976" rx="2.18988" fill="white"/>
<rect x="116.978" y="87.9623" width="26.2786" height="4.37976" rx="2.18988" fill="white"/>
<rect x="258.225" y="145.994" width="26.2786" height="4.37976" rx="2.18988" fill="white"/>
<circle cx="86.8672" cy="15.1484" r="2.73735" fill="#C4C4C4"/>
<circle cx="94.5318" cy="15.1484" r="2.73735" fill="#C4C4C4"/>
<circle cx="102.196" cy="15.1484" r="2.73735" fill="#C4C4C4"/>
<g filter="url(#filter0_d_200_217)">
<rect x="16.2432" y="110.956" width="167.526" height="134.678" rx="15" fill="white"/>
</g>
<rect x="33.7622" y="141.614" width="130.298" height="19.7089" rx="4" fill="#EEEEEE"/>
<rect x="33.7622" y="183.222" width="130.298" height="19.7089" rx="4" fill="#EEEEEE"/>
<rect x="33.7622" y="213.88" width="41.6077" height="19.7089" rx="4" fill="#2C296C"/>
<path d="M34.6582 133.225C34.5695 133.225 34.4995 133.199 34.4482 133.148C34.3969 133.092 34.3712 133.019 34.3712 132.931V128.535C34.3712 128.451 34.3969 128.383 34.4482 128.332C34.5042 128.28 34.5765 128.255 34.6652 128.255H36.3242C36.8422 128.255 37.2435 128.381 37.5282 128.633C37.8175 128.885 37.9622 129.242 37.9622 129.704C37.9622 130.166 37.8175 130.525 37.5282 130.782C37.2389 131.038 36.8375 131.167 36.3242 131.167H34.9452V132.931C34.9452 133.019 34.9195 133.092 34.8682 133.148C34.8169 133.199 34.7469 133.225 34.6582 133.225ZM36.2682 130.691C37.0195 130.691 37.3952 130.362 37.3952 129.704C37.3952 129.055 37.0195 128.731 36.2682 128.731H34.9452V130.691H36.2682ZM40.1167 129.697C40.9707 129.697 41.3977 130.145 41.3977 131.041V132.945C41.3977 133.029 41.3721 133.096 41.3207 133.148C41.2741 133.199 41.2087 133.225 41.1247 133.225C41.0407 133.225 40.9731 133.199 40.9217 133.148C40.8704 133.096 40.8447 133.029 40.8447 132.945V132.609C40.7561 132.809 40.6207 132.966 40.4387 133.078C40.2567 133.185 40.0467 133.239 39.8087 133.239C39.5894 133.239 39.3864 133.194 39.1997 133.106C39.0177 133.017 38.8731 132.893 38.7657 132.735C38.6584 132.576 38.6047 132.401 38.6047 132.21C38.6047 131.953 38.6701 131.755 38.8007 131.615C38.9314 131.47 39.1461 131.367 39.4447 131.307C39.7434 131.241 40.1587 131.209 40.6907 131.209H40.8447V130.978C40.8447 130.698 40.7864 130.492 40.6697 130.362C40.5577 130.231 40.3734 130.166 40.1167 130.166C39.7994 130.166 39.4774 130.252 39.1507 130.425C39.0247 130.504 38.9361 130.544 38.8847 130.544C38.8287 130.544 38.7821 130.523 38.7447 130.481C38.7074 130.439 38.6887 130.385 38.6887 130.32C38.6887 130.254 38.7074 130.198 38.7447 130.152C38.7867 130.1 38.8521 130.049 38.9407 129.998C39.1041 129.904 39.2884 129.832 39.4937 129.781C39.7037 129.725 39.9114 129.697 40.1167 129.697ZM39.8857 132.791C40.1657 132.791 40.3944 132.697 40.5717 132.511C40.7537 132.319 40.8447 132.074 40.8447 131.776V131.573H40.7187C40.3081 131.573 39.9954 131.591 39.7807 131.629C39.5661 131.661 39.4121 131.72 39.3187 131.804C39.2301 131.883 39.1857 132.002 39.1857 132.161C39.1857 132.343 39.2511 132.494 39.3817 132.616C39.5171 132.732 39.6851 132.791 39.8857 132.791ZM43.5836 133.239C43.369 133.239 43.1636 133.213 42.9676 133.162C42.7763 133.11 42.606 133.038 42.4566 132.945C42.3726 132.889 42.312 132.837 42.2746 132.791C42.242 132.739 42.2256 132.679 42.2256 132.609C42.2256 132.548 42.242 132.499 42.2746 132.462C42.312 132.42 42.3586 132.399 42.4146 132.399C42.4706 132.399 42.5523 132.434 42.6596 132.504C42.7996 132.588 42.9373 132.655 43.0726 132.707C43.2126 132.753 43.3853 132.777 43.5906 132.777C43.8426 132.777 44.0386 132.732 44.1786 132.644C44.3186 132.555 44.3886 132.427 44.3886 132.259C44.3886 132.156 44.363 132.074 44.3116 132.014C44.2603 131.948 44.1716 131.892 44.0456 131.846C43.9196 131.794 43.7353 131.743 43.4926 131.692C43.082 131.603 42.788 131.484 42.6106 131.335C42.4333 131.185 42.3446 130.982 42.3446 130.726C42.3446 130.525 42.4006 130.348 42.5126 130.194C42.6246 130.04 42.7786 129.918 42.9746 129.83C43.1753 129.741 43.4016 129.697 43.6536 129.697C43.8356 129.697 44.0106 129.722 44.1786 129.774C44.3513 129.82 44.503 129.888 44.6336 129.977C44.7923 130.089 44.8716 130.205 44.8716 130.327C44.8716 130.387 44.853 130.439 44.8156 130.481C44.7783 130.523 44.734 130.544 44.6826 130.544C44.6266 130.544 44.5426 130.504 44.4306 130.425C44.3 130.341 44.1763 130.275 44.0596 130.229C43.943 130.182 43.7983 130.159 43.6256 130.159C43.4063 130.159 43.229 130.208 43.0936 130.306C42.963 130.404 42.8976 130.534 42.8976 130.698C42.8976 130.8 42.921 130.884 42.9676 130.95C43.019 131.01 43.1006 131.066 43.2126 131.118C43.3293 131.164 43.495 131.211 43.7096 131.258C44.027 131.328 44.272 131.405 44.4446 131.489C44.622 131.573 44.748 131.675 44.8226 131.797C44.8973 131.918 44.9346 132.072 44.9346 132.259C44.9346 132.553 44.811 132.791 44.5636 132.973C44.3163 133.15 43.9896 133.239 43.5836 133.239ZM46.9469 133.239C46.7323 133.239 46.5269 133.213 46.3309 133.162C46.1396 133.11 45.9693 133.038 45.8199 132.945C45.7359 132.889 45.6753 132.837 45.6379 132.791C45.6053 132.739 45.5889 132.679 45.5889 132.609C45.5889 132.548 45.6053 132.499 45.6379 132.462C45.6753 132.42 45.7219 132.399 45.7779 132.399C45.8339 132.399 45.9156 132.434 46.0229 132.504C46.1629 132.588 46.3006 132.655 46.4359 132.707C46.5759 132.753 46.7486 132.777 46.9539 132.777C47.2059 132.777 47.4019 132.732 47.5419 132.644C47.6819 132.555 47.7519 132.427 47.7519 132.259C47.7519 132.156 47.7263 132.074 47.6749 132.014C47.6236 131.948 47.5349 131.892 47.4089 131.846C47.2829 131.794 47.0986 131.743 46.8559 131.692C46.4453 131.603 46.1513 131.484 45.9739 131.335C45.7966 131.185 45.7079 130.982 45.7079 130.726C45.7079 130.525 45.7639 130.348 45.8759 130.194C45.9879 130.04 46.1419 129.918 46.3379 129.83C46.5386 129.741 46.7649 129.697 47.0169 129.697C47.1989 129.697 47.3739 129.722 47.5419 129.774C47.7146 129.82 47.8663 129.888 47.9969 129.977C48.1556 130.089 48.2349 130.205 48.2349 130.327C48.2349 130.387 48.2163 130.439 48.1789 130.481C48.1416 130.523 48.0973 130.544 48.0459 130.544C47.9899 130.544 47.9059 130.504 47.7939 130.425C47.6633 130.341 47.5396 130.275 47.4229 130.229C47.3063 130.182 47.1616 130.159 46.9889 130.159C46.7696 130.159 46.5923 130.208 46.4569 130.306C46.3263 130.404 46.2609 130.534 46.2609 130.698C46.2609 130.8 46.2843 130.884 46.3309 130.95C46.3823 131.01 46.4639 131.066 46.5759 131.118C46.6926 131.164 46.8583 131.211 47.0729 131.258C47.3903 131.328 47.6353 131.405 47.8079 131.489C47.9853 131.573 48.1113 131.675 48.1859 131.797C48.2606 131.918 48.2979 132.072 48.2979 132.259C48.2979 132.553 48.1743 132.791 47.9269 132.973C47.6796 133.15 47.3529 133.239 46.9469 133.239ZM53.7627 129.893C53.8094 129.781 53.8864 129.725 53.9937 129.725C54.0637 129.725 54.1267 129.748 54.1827 129.795C54.2387 129.841 54.2667 129.9 54.2667 129.97C54.2667 130.002 54.2597 130.037 54.2457 130.075L53.0837 133.015C53.0557 133.075 53.0137 133.124 52.9577 133.162C52.9064 133.194 52.848 133.211 52.7827 133.211C52.722 133.211 52.6637 133.194 52.6077 133.162C52.5564 133.124 52.5167 133.075 52.4887 133.015L51.5227 130.558L50.5637 133.015C50.5404 133.075 50.5007 133.124 50.4447 133.162C50.3887 133.194 50.328 133.211 50.2627 133.211C50.202 133.211 50.1437 133.194 50.0877 133.162C50.0317 133.124 49.9897 133.075 49.9617 133.015L48.7997 130.082C48.7857 130.044 48.7787 130.012 48.7787 129.984C48.7787 129.909 48.809 129.846 48.8697 129.795C48.935 129.743 49.005 129.718 49.0797 129.718C49.1917 129.718 49.271 129.774 49.3177 129.886L50.2767 132.469L51.2637 129.907C51.2917 129.846 51.329 129.799 51.3757 129.767C51.427 129.734 51.4807 129.718 51.5367 129.718C51.5974 129.718 51.651 129.734 51.6977 129.767C51.749 129.799 51.7864 129.846 51.8097 129.907L52.7967 132.462L53.7627 129.893ZM56.3662 133.239C56.0442 133.239 55.7596 133.166 55.5122 133.022C55.2696 132.877 55.0806 132.672 54.9452 132.406C54.8146 132.135 54.7492 131.822 54.7492 131.468C54.7492 131.113 54.8146 130.803 54.9452 130.537C55.0806 130.266 55.2696 130.058 55.5122 129.914C55.7596 129.769 56.0442 129.697 56.3662 129.697C56.6882 129.697 56.9729 129.769 57.2202 129.914C57.4676 130.058 57.6566 130.266 57.7872 130.537C57.9226 130.803 57.9902 131.113 57.9902 131.468C57.9902 131.822 57.9226 132.135 57.7872 132.406C57.6566 132.672 57.4676 132.877 57.2202 133.022C56.9729 133.166 56.6882 133.239 56.3662 133.239ZM56.3662 132.77C56.7022 132.77 56.9589 132.66 57.1362 132.441C57.3182 132.217 57.4092 131.892 57.4092 131.468C57.4092 131.052 57.3182 130.733 57.1362 130.509C56.9542 130.28 56.6976 130.166 56.3662 130.166C56.0349 130.166 55.7782 130.28 55.5962 130.509C55.4142 130.733 55.3232 131.052 55.3232 131.468C55.3232 131.888 55.4119 132.21 55.5892 132.434C55.7712 132.658 56.0302 132.77 56.3662 132.77ZM60.5221 129.711C60.7181 129.697 60.8161 129.776 60.8161 129.949C60.8161 130.023 60.7951 130.084 60.7531 130.131C60.7111 130.173 60.6387 130.198 60.5361 130.208L60.3261 130.229C60.0134 130.257 59.7801 130.369 59.6261 130.565C59.4767 130.756 59.4021 130.982 59.4021 131.244V132.945C59.4021 133.038 59.3764 133.108 59.3251 133.155C59.2737 133.201 59.2061 133.225 59.1221 133.225C59.0381 133.225 58.9681 133.201 58.9121 133.155C58.8607 133.103 58.8351 133.033 58.8351 132.945V129.991C58.8351 129.902 58.8631 129.834 58.9191 129.788C58.9751 129.736 59.0427 129.711 59.1221 129.711C59.1967 129.711 59.2597 129.736 59.3111 129.788C59.3624 129.834 59.3881 129.9 59.3881 129.984V130.376C59.4861 130.17 59.6237 130.014 59.8011 129.907C59.9831 129.799 60.1907 129.736 60.4241 129.718L60.5221 129.711ZM63.9715 128.22C64.0601 128.22 64.1301 128.245 64.1815 128.297C64.2328 128.348 64.2585 128.413 64.2585 128.493V132.945C64.2585 133.029 64.2328 133.096 64.1815 133.148C64.1301 133.199 64.0601 133.225 63.9715 133.225C63.8828 133.225 63.8128 133.199 63.7615 133.148C63.7148 133.096 63.6915 133.029 63.6915 132.945V132.567C63.5888 132.781 63.4371 132.947 63.2365 133.064C63.0405 133.18 62.8095 133.239 62.5435 133.239C62.2448 133.239 61.9811 133.164 61.7525 133.015C61.5238 132.865 61.3465 132.658 61.2205 132.392C61.0945 132.121 61.0315 131.808 61.0315 131.454C61.0315 131.104 61.0945 130.796 61.2205 130.53C61.3465 130.264 61.5238 130.058 61.7525 129.914C61.9811 129.769 62.2448 129.697 62.5435 129.697C62.8095 129.697 63.0405 129.755 63.2365 129.872C63.4371 129.988 63.5888 130.154 63.6915 130.369V128.493C63.6915 128.409 63.7148 128.343 63.7615 128.297C63.8128 128.245 63.8828 128.22 63.9715 128.22ZM62.6555 132.77C62.9868 132.77 63.2411 132.658 63.4185 132.434C63.6005 132.205 63.6915 131.883 63.6915 131.468C63.6915 131.052 63.6005 130.733 63.4185 130.509C63.2411 130.285 62.9868 130.173 62.6555 130.173C62.3241 130.173 62.0651 130.285 61.8785 130.509C61.6965 130.733 61.6055 131.048 61.6055 131.454C61.6055 131.869 61.6965 132.193 61.8785 132.427C62.0651 132.655 62.3241 132.77 62.6555 132.77Z" fill="black"/>
<path d="M36.4642 174.853C35.9975 174.853 35.5939 174.753 35.2532 174.552C34.9125 174.347 34.6489 174.055 34.4622 173.677C34.2802 173.295 34.1892 172.844 34.1892 172.326C34.1892 171.813 34.2802 171.367 34.4622 170.989C34.6489 170.607 34.9125 170.315 35.2532 170.114C35.5939 169.909 35.9975 169.806 36.4642 169.806C36.7769 169.806 37.0709 169.858 37.3462 169.96C37.6262 170.058 37.8689 170.201 38.0742 170.387C38.1489 170.457 38.1862 170.539 38.1862 170.632C38.1862 170.698 38.1675 170.756 38.1302 170.807C38.0929 170.854 38.0485 170.877 37.9972 170.877C37.9412 170.877 37.8735 170.852 37.7942 170.8C37.5562 170.614 37.3392 170.483 37.1432 170.408C36.9519 170.334 36.7302 170.296 36.4782 170.296C35.9369 170.296 35.5192 170.474 35.2252 170.828C34.9359 171.178 34.7912 171.678 34.7912 172.326C34.7912 172.98 34.9359 173.484 35.2252 173.838C35.5192 174.188 35.9369 174.363 36.4782 174.363C36.7255 174.363 36.9472 174.326 37.1432 174.251C37.3392 174.177 37.5562 174.046 37.7942 173.859C37.8735 173.808 37.9412 173.782 37.9972 173.782C38.0485 173.782 38.0929 173.806 38.1302 173.852C38.1675 173.899 38.1862 173.957 38.1862 174.027C38.1862 174.121 38.1489 174.202 38.0742 174.272C37.8689 174.459 37.6262 174.604 37.3462 174.706C37.0709 174.804 36.7769 174.853 36.4642 174.853ZM40.3702 174.846C40.0482 174.846 39.7635 174.774 39.5162 174.629C39.2735 174.485 39.0845 174.279 38.9492 174.013C38.8185 173.743 38.7532 173.43 38.7532 173.075C38.7532 172.721 38.8185 172.41 38.9492 172.144C39.0845 171.874 39.2735 171.666 39.5162 171.521C39.7635 171.377 40.0482 171.304 40.3702 171.304C40.6922 171.304 40.9768 171.377 41.2242 171.521C41.4715 171.666 41.6605 171.874 41.7912 172.144C41.9265 172.41 41.9942 172.721 41.9942 173.075C41.9942 173.43 41.9265 173.743 41.7912 174.013C41.6605 174.279 41.4715 174.485 41.2242 174.629C40.9768 174.774 40.6922 174.846 40.3702 174.846ZM40.3702 174.377C40.7062 174.377 40.9628 174.268 41.1402 174.048C41.3222 173.824 41.4132 173.5 41.4132 173.075C41.4132 172.66 41.3222 172.34 41.1402 172.116C40.9582 171.888 40.7015 171.773 40.3702 171.773C40.0388 171.773 39.7822 171.888 39.6002 172.116C39.4182 172.34 39.3272 172.66 39.3272 173.075C39.3272 173.495 39.4158 173.817 39.5932 174.041C39.7752 174.265 40.0342 174.377 40.3702 174.377ZM44.554 171.304C45.3706 171.304 45.779 171.755 45.779 172.655V174.552C45.779 174.641 45.7533 174.711 45.702 174.762C45.6553 174.809 45.5876 174.832 45.499 174.832C45.4103 174.832 45.3403 174.809 45.289 174.762C45.2376 174.711 45.212 174.641 45.212 174.552V172.69C45.212 172.373 45.149 172.142 45.023 171.997C44.9016 171.853 44.7056 171.78 44.435 171.78C44.1223 171.78 43.8726 171.876 43.686 172.067C43.4993 172.259 43.406 172.518 43.406 172.844V174.552C43.406 174.641 43.3803 174.711 43.329 174.762C43.2823 174.809 43.2146 174.832 43.126 174.832C43.0373 174.832 42.9673 174.809 42.916 174.762C42.8646 174.711 42.839 174.641 42.839 174.552V171.598C42.839 171.514 42.8646 171.447 42.916 171.395C42.9673 171.344 43.0373 171.318 43.126 171.318C43.21 171.318 43.2753 171.344 43.322 171.395C43.3733 171.447 43.399 171.512 43.399 171.591V171.948C43.511 171.738 43.6673 171.58 43.868 171.472C44.0686 171.36 44.2973 171.304 44.554 171.304ZM49.4285 171.388C49.5078 171.388 49.5685 171.409 49.6105 171.451C49.6525 171.493 49.6735 171.549 49.6735 171.619V174.552C49.6735 174.641 49.6455 174.711 49.5895 174.762C49.5381 174.809 49.4728 174.832 49.3935 174.832C49.3095 174.832 49.2395 174.809 49.1835 174.762C49.1321 174.711 49.1065 174.641 49.1065 174.552V171.836H47.5735V174.552C47.5735 174.641 47.5455 174.711 47.4895 174.762C47.4381 174.809 47.3728 174.832 47.2935 174.832C47.2095 174.832 47.1395 174.809 47.0835 174.762C47.0321 174.711 47.0065 174.641 47.0065 174.552V171.836H46.5375C46.4581 171.836 46.3951 171.818 46.3485 171.78C46.3065 171.738 46.2855 171.685 46.2855 171.619C46.2855 171.549 46.3065 171.493 46.3485 171.451C46.3951 171.409 46.4581 171.388 46.5375 171.388H47.0065V171.269C47.0065 170.849 47.1115 170.52 47.3215 170.282C47.5315 170.04 47.8325 169.902 48.2245 169.869L48.3925 169.855C48.6165 169.837 48.7285 169.907 48.7285 170.065C48.7285 170.201 48.6491 170.278 48.4905 170.296L48.3225 170.31C48.0751 170.329 47.8885 170.408 47.7625 170.548C47.6365 170.684 47.5735 170.889 47.5735 171.164V171.388H49.4285ZM49.3935 169.876C49.5008 169.876 49.5895 169.909 49.6595 169.974C49.7341 170.04 49.7715 170.124 49.7715 170.226C49.7715 170.334 49.7365 170.42 49.6665 170.485C49.5965 170.551 49.5055 170.583 49.3935 170.583C49.2815 170.583 49.1905 170.551 49.1205 170.485C49.0505 170.42 49.0155 170.334 49.0155 170.226C49.0155 170.124 49.0505 170.04 49.1205 169.974C49.1905 169.909 49.2815 169.876 49.3935 169.876ZM52.4146 171.318C52.6106 171.304 52.7086 171.384 52.7086 171.556C52.7086 171.631 52.6876 171.692 52.6456 171.738C52.6036 171.78 52.5313 171.806 52.4286 171.815L52.2186 171.836C51.906 171.864 51.6726 171.976 51.5186 172.172C51.3693 172.364 51.2946 172.59 51.2946 172.851V174.552C51.2946 174.646 51.269 174.716 51.2176 174.762C51.1663 174.809 51.0986 174.832 51.0146 174.832C50.9306 174.832 50.8606 174.809 50.8046 174.762C50.7533 174.711 50.7276 174.641 50.7276 174.552V171.598C50.7276 171.51 50.7556 171.442 50.8116 171.395C50.8676 171.344 50.9353 171.318 51.0146 171.318C51.0893 171.318 51.1523 171.344 51.2036 171.395C51.255 171.442 51.2806 171.507 51.2806 171.591V171.983C51.3786 171.778 51.5163 171.622 51.6936 171.514C51.8756 171.407 52.0833 171.344 52.3166 171.325L52.4146 171.318ZM56.9894 171.304C57.7454 171.304 58.1234 171.755 58.1234 172.655V174.552C58.1234 174.641 58.0977 174.711 58.0464 174.762C57.9951 174.809 57.9274 174.832 57.8434 174.832C57.7594 174.832 57.6894 174.809 57.6334 174.762C57.5821 174.711 57.5564 174.641 57.5564 174.552V172.669C57.5564 172.357 57.5004 172.13 57.3884 171.99C57.2764 171.85 57.1014 171.78 56.8634 171.78C56.5787 171.78 56.3547 171.876 56.1914 172.067C56.0281 172.259 55.9464 172.518 55.9464 172.844V174.552C55.9464 174.641 55.9184 174.711 55.8624 174.762C55.8111 174.809 55.7434 174.832 55.6594 174.832C55.5754 174.832 55.5077 174.809 55.4564 174.762C55.4051 174.711 55.3794 174.641 55.3794 174.552V172.669C55.3794 172.357 55.3234 172.13 55.2114 171.99C55.0994 171.85 54.9221 171.78 54.6794 171.78C54.3994 171.78 54.1754 171.876 54.0074 172.067C53.8441 172.259 53.7624 172.518 53.7624 172.844V174.552C53.7624 174.641 53.7367 174.711 53.6854 174.762C53.6341 174.809 53.5664 174.832 53.4824 174.832C53.3984 174.832 53.3284 174.809 53.2724 174.762C53.2211 174.711 53.1954 174.641 53.1954 174.552V171.598C53.1954 171.514 53.2211 171.447 53.2724 171.395C53.3284 171.344 53.3984 171.318 53.4824 171.318C53.5617 171.318 53.6271 171.344 53.6784 171.395C53.7297 171.442 53.7554 171.507 53.7554 171.591V171.927C53.8581 171.727 54.0004 171.573 54.1824 171.465C54.3644 171.358 54.5744 171.304 54.8124 171.304C55.3444 171.304 55.6921 171.528 55.8554 171.976C55.9534 171.771 56.1027 171.608 56.3034 171.486C56.5041 171.365 56.7327 171.304 56.9894 171.304ZM61.332 174.832C61.2434 174.832 61.1734 174.807 61.122 174.755C61.0707 174.699 61.045 174.627 61.045 174.538V170.142C61.045 170.058 61.0707 169.991 61.122 169.939C61.178 169.888 61.2504 169.862 61.339 169.862H62.998C63.516 169.862 63.9174 169.988 64.202 170.24C64.4914 170.492 64.636 170.849 64.636 171.311C64.636 171.773 64.4914 172.133 64.202 172.389C63.9127 172.646 63.5114 172.774 62.998 172.774H61.619V174.538C61.619 174.627 61.5934 174.699 61.542 174.755C61.4907 174.807 61.4207 174.832 61.332 174.832ZM62.942 172.298C63.6934 172.298 64.069 171.969 64.069 171.311C64.069 170.663 63.6934 170.338 62.942 170.338H61.619V172.298H62.942ZM66.7906 171.304C67.6446 171.304 68.0716 171.752 68.0716 172.648V174.552C68.0716 174.636 68.0459 174.704 67.9946 174.755C67.9479 174.807 67.8826 174.832 67.7986 174.832C67.7146 174.832 67.6469 174.807 67.5956 174.755C67.5442 174.704 67.5186 174.636 67.5186 174.552V174.216C67.4299 174.417 67.2946 174.573 67.1126 174.685C66.9306 174.793 66.7206 174.846 66.4826 174.846C66.2632 174.846 66.0602 174.802 65.8736 174.713C65.6916 174.625 65.5469 174.501 65.4396 174.342C65.3322 174.184 65.2786 174.009 65.2786 173.817C65.2786 173.561 65.3439 173.362 65.4746 173.222C65.6052 173.078 65.8199 172.975 66.1186 172.914C66.4172 172.849 66.8326 172.816 67.3646 172.816H67.5186V172.585C67.5186 172.305 67.4602 172.1 67.3436 171.969C67.2316 171.839 67.0472 171.773 66.7906 171.773C66.4732 171.773 66.1512 171.86 65.8246 172.032C65.6986 172.112 65.6099 172.151 65.5586 172.151C65.5026 172.151 65.4559 172.13 65.4186 172.088C65.3812 172.046 65.3626 171.993 65.3626 171.927C65.3626 171.862 65.3812 171.806 65.4186 171.759C65.4606 171.708 65.5259 171.657 65.6146 171.605C65.7779 171.512 65.9622 171.44 66.1676 171.388C66.3776 171.332 66.5852 171.304 66.7906 171.304ZM66.5596 174.398C66.8396 174.398 67.0682 174.305 67.2456 174.118C67.4276 173.927 67.5186 173.682 67.5186 173.383V173.18H67.3926C66.9819 173.18 66.6692 173.199 66.4546 173.236C66.2399 173.269 66.0859 173.327 65.9926 173.411C65.9039 173.491 65.8596 173.61 65.8596 173.768C65.8596 173.95 65.9249 174.102 66.0556 174.223C66.1909 174.34 66.3589 174.398 66.5596 174.398ZM70.2575 174.846C70.0428 174.846 69.8375 174.821 69.6415 174.769C69.4501 174.718 69.2798 174.646 69.1305 174.552C69.0465 174.496 68.9858 174.445 68.9485 174.398C68.9158 174.347 68.8995 174.286 68.8995 174.216C68.8995 174.156 68.9158 174.107 68.9485 174.069C68.9858 174.027 69.0325 174.006 69.0885 174.006C69.1445 174.006 69.2261 174.041 69.3335 174.111C69.4735 174.195 69.6111 174.263 69.7465 174.314C69.8865 174.361 70.0591 174.384 70.2645 174.384C70.5165 174.384 70.7125 174.34 70.8525 174.251C70.9925 174.163 71.0625 174.034 71.0625 173.866C71.0625 173.764 71.0368 173.682 70.9855 173.621C70.9341 173.556 70.8455 173.5 70.7195 173.453C70.5935 173.402 70.4091 173.351 70.1665 173.299C69.7558 173.211 69.4618 173.092 69.2845 172.942C69.1071 172.793 69.0185 172.59 69.0185 172.333C69.0185 172.133 69.0745 171.955 69.1865 171.801C69.2985 171.647 69.4525 171.526 69.6485 171.437C69.8491 171.349 70.0755 171.304 70.3275 171.304C70.5095 171.304 70.6845 171.33 70.8525 171.381C71.0251 171.428 71.1768 171.496 71.3075 171.584C71.4661 171.696 71.5455 171.813 71.5455 171.934C71.5455 171.995 71.5268 172.046 71.4895 172.088C71.4521 172.13 71.4078 172.151 71.3565 172.151C71.3005 172.151 71.2165 172.112 71.1045 172.032C70.9738 171.948 70.8501 171.883 70.7335 171.836C70.6168 171.79 70.4721 171.766 70.2995 171.766C70.0801 171.766 69.9028 171.815 69.7675 171.913C69.6368 172.011 69.5715 172.142 69.5715 172.305C69.5715 172.408 69.5948 172.492 69.6415 172.557C69.6928 172.618 69.7745 172.674 69.8865 172.725C70.0031 172.772 70.1688 172.819 70.3835 172.865C70.7008 172.935 70.9458 173.012 71.1185 173.096C71.2958 173.18 71.4218 173.283 71.4965 173.404C71.5711 173.526 71.6085 173.68 71.6085 173.866C71.6085 174.16 71.4848 174.398 71.2375 174.58C70.9901 174.758 70.6635 174.846 70.2575 174.846ZM73.6208 174.846C73.4061 174.846 73.2008 174.821 73.0048 174.769C72.8134 174.718 72.6431 174.646 72.4938 174.552C72.4098 174.496 72.3491 174.445 72.3118 174.398C72.2791 174.347 72.2628 174.286 72.2628 174.216C72.2628 174.156 72.2791 174.107 72.3118 174.069C72.3491 174.027 72.3958 174.006 72.4518 174.006C72.5078 174.006 72.5894 174.041 72.6968 174.111C72.8368 174.195 72.9744 174.263 73.1098 174.314C73.2498 174.361 73.4224 174.384 73.6278 174.384C73.8798 174.384 74.0758 174.34 74.2158 174.251C74.3558 174.163 74.4258 174.034 74.4258 173.866C74.4258 173.764 74.4001 173.682 74.3488 173.621C74.2974 173.556 74.2088 173.5 74.0828 173.453C73.9568 173.402 73.7724 173.351 73.5298 173.299C73.1191 173.211 72.8251 173.092 72.6478 172.942C72.4704 172.793 72.3818 172.59 72.3818 172.333C72.3818 172.133 72.4378 171.955 72.5498 171.801C72.6618 171.647 72.8158 171.526 73.0118 171.437C73.2124 171.349 73.4388 171.304 73.6908 171.304C73.8728 171.304 74.0478 171.33 74.2158 171.381C74.3884 171.428 74.5401 171.496 74.6708 171.584C74.8294 171.696 74.9088 171.813 74.9088 171.934C74.9088 171.995 74.8901 172.046 74.8528 172.088C74.8154 172.13 74.7711 172.151 74.7198 172.151C74.6638 172.151 74.5798 172.112 74.4678 172.032C74.3371 171.948 74.2134 171.883 74.0968 171.836C73.9801 171.79 73.8354 171.766 73.6628 171.766C73.4434 171.766 73.2661 171.815 73.1308 171.913C73.0001 172.011 72.9348 172.142 72.9348 172.305C72.9348 172.408 72.9581 172.492 73.0048 172.557C73.0561 172.618 73.1378 172.674 73.2498 172.725C73.3664 172.772 73.5321 172.819 73.7468 172.865C74.0641 172.935 74.3091 173.012 74.4818 173.096C74.6591 173.18 74.7851 173.283 74.8598 173.404C74.9344 173.526 74.9718 173.68 74.9718 173.866C74.9718 174.16 74.8481 174.398 74.6008 174.58C74.3534 174.758 74.0268 174.846 73.6208 174.846ZM80.4365 171.5C80.4832 171.388 80.5602 171.332 80.6675 171.332C80.7375 171.332 80.8005 171.356 80.8565 171.402C80.9125 171.449 80.9405 171.507 80.9405 171.577C80.9405 171.61 80.9335 171.645 80.9195 171.682L79.7575 174.622C79.7295 174.683 79.6875 174.732 79.6315 174.769C79.5802 174.802 79.5218 174.818 79.4565 174.818C79.3958 174.818 79.3375 174.802 79.2815 174.769C79.2302 174.732 79.1905 174.683 79.1625 174.622L78.1965 172.165L77.2375 174.622C77.2142 174.683 77.1745 174.732 77.1185 174.769C77.0625 174.802 77.0018 174.818 76.9365 174.818C76.8758 174.818 76.8175 174.802 76.7615 174.769C76.7055 174.732 76.6635 174.683 76.6355 174.622L75.4735 171.689C75.4595 171.652 75.4525 171.619 75.4525 171.591C75.4525 171.517 75.4828 171.454 75.5435 171.402C75.6088 171.351 75.6788 171.325 75.7535 171.325C75.8655 171.325 75.9448 171.381 75.9915 171.493L76.9505 174.076L77.9375 171.514C77.9655 171.454 78.0028 171.407 78.0495 171.374C78.1008 171.342 78.1545 171.325 78.2105 171.325C78.2712 171.325 78.3248 171.342 78.3715 171.374C78.4228 171.407 78.4602 171.454 78.4835 171.514L79.4705 174.069L80.4365 171.5ZM83.0401 174.846C82.7181 174.846 82.4334 174.774 82.1861 174.629C81.9434 174.485 81.7544 174.279 81.6191 174.013C81.4884 173.743 81.4231 173.43 81.4231 173.075C81.4231 172.721 81.4884 172.41 81.6191 172.144C81.7544 171.874 81.9434 171.666 82.1861 171.521C82.4334 171.377 82.7181 171.304 83.0401 171.304C83.3621 171.304 83.6467 171.377 83.8941 171.521C84.1414 171.666 84.3304 171.874 84.4611 172.144C84.5964 172.41 84.6641 172.721 84.6641 173.075C84.6641 173.43 84.5964 173.743 84.4611 174.013C84.3304 174.279 84.1414 174.485 83.8941 174.629C83.6467 174.774 83.3621 174.846 83.0401 174.846ZM83.0401 174.377C83.3761 174.377 83.6327 174.268 83.8101 174.048C83.9921 173.824 84.0831 173.5 84.0831 173.075C84.0831 172.66 83.9921 172.34 83.8101 172.116C83.6281 171.888 83.3714 171.773 83.0401 171.773C82.7087 171.773 82.4521 171.888 82.2701 172.116C82.0881 172.34 81.9971 172.66 81.9971 173.075C81.9971 173.495 82.0857 173.817 82.2631 174.041C82.4451 174.265 82.7041 174.377 83.0401 174.377ZM87.1959 171.318C87.3919 171.304 87.4899 171.384 87.4899 171.556C87.4899 171.631 87.4689 171.692 87.4269 171.738C87.3849 171.78 87.3126 171.806 87.2099 171.815L86.9999 171.836C86.6872 171.864 86.4539 171.976 86.2999 172.172C86.1506 172.364 86.0759 172.59 86.0759 172.851V174.552C86.0759 174.646 86.0502 174.716 85.9989 174.762C85.9476 174.809 85.8799 174.832 85.7959 174.832C85.7119 174.832 85.6419 174.809 85.5859 174.762C85.5346 174.711 85.5089 174.641 85.5089 174.552V171.598C85.5089 171.51 85.5369 171.442 85.5929 171.395C85.6489 171.344 85.7166 171.318 85.7959 171.318C85.8706 171.318 85.9336 171.344 85.9849 171.395C86.0362 171.442 86.0619 171.507 86.0619 171.591V171.983C86.1599 171.778 86.2976 171.622 86.4749 171.514C86.6569 171.407 86.8646 171.344 87.0979 171.325L87.1959 171.318ZM90.6453 169.827C90.734 169.827 90.804 169.853 90.8553 169.904C90.9066 169.956 90.9323 170.021 90.9323 170.1V174.552C90.9323 174.636 90.9066 174.704 90.8553 174.755C90.804 174.807 90.734 174.832 90.6453 174.832C90.5566 174.832 90.4866 174.807 90.4353 174.755C90.3886 174.704 90.3653 174.636 90.3653 174.552V174.174C90.2626 174.389 90.111 174.555 89.9103 174.671C89.7143 174.788 89.4833 174.846 89.2173 174.846C88.9186 174.846 88.655 174.772 88.4263 174.622C88.1976 174.473 88.0203 174.265 87.8943 173.999C87.7683 173.729 87.7053 173.416 87.7053 173.061C87.7053 172.711 87.7683 172.403 87.8943 172.137C88.0203 171.871 88.1976 171.666 88.4263 171.521C88.655 171.377 88.9186 171.304 89.2173 171.304C89.4833 171.304 89.7143 171.363 89.9103 171.479C90.111 171.596 90.2626 171.762 90.3653 171.976V170.1C90.3653 170.016 90.3886 169.951 90.4353 169.904C90.4866 169.853 90.5566 169.827 90.6453 169.827ZM89.3293 174.377C89.6606 174.377 89.915 174.265 90.0923 174.041C90.2743 173.813 90.3653 173.491 90.3653 173.075C90.3653 172.66 90.2743 172.34 90.0923 172.116C89.915 171.892 89.6606 171.78 89.3293 171.78C88.998 171.78 88.739 171.892 88.5523 172.116C88.3703 172.34 88.2793 172.655 88.2793 173.061C88.2793 173.477 88.3703 173.801 88.5523 174.034C88.739 174.263 88.998 174.377 89.3293 174.377Z" fill="black"/>
<path d="M47.5923 225.354C47.4763 225.354 47.3863 225.322 47.3223 225.258C47.2583 225.194 47.2263 225.106 47.2263 224.994V221.478C47.2263 221.362 47.2603 221.27 47.3283 221.202C47.4003 221.13 47.4943 221.094 47.6103 221.094C47.7303 221.094 47.8243 221.13 47.8923 221.202C47.9643 221.27 48.0003 221.362 48.0003 221.478V224.718H49.6863C49.9263 224.718 50.0463 224.824 50.0463 225.036C50.0463 225.248 49.9263 225.354 49.6863 225.354H47.5923ZM51.8088 225.402C51.5088 225.402 51.2448 225.34 51.0168 225.216C50.7928 225.092 50.6188 224.914 50.4948 224.682C50.3708 224.45 50.3088 224.18 50.3088 223.872C50.3088 223.564 50.3708 223.296 50.4948 223.068C50.6188 222.836 50.7928 222.658 51.0168 222.534C51.2448 222.41 51.5088 222.348 51.8088 222.348C52.1088 222.348 52.3708 222.41 52.5948 222.534C52.8228 222.658 52.9968 222.836 53.1168 223.068C53.2408 223.296 53.3028 223.564 53.3028 223.872C53.3028 224.18 53.2408 224.45 53.1168 224.682C52.9968 224.914 52.8228 225.092 52.5948 225.216C52.3708 225.34 52.1088 225.402 51.8088 225.402ZM51.8028 224.82C52.0468 224.82 52.2328 224.74 52.3608 224.58C52.4888 224.42 52.5528 224.184 52.5528 223.872C52.5528 223.564 52.4888 223.33 52.3608 223.17C52.2328 223.006 52.0488 222.924 51.8088 222.924C51.5688 222.924 51.3828 223.006 51.2508 223.17C51.1228 223.33 51.0588 223.564 51.0588 223.872C51.0588 224.184 51.1228 224.42 51.2508 224.58C51.3788 224.74 51.5628 224.82 51.8028 224.82ZM56.406 222.36C56.518 222.36 56.608 222.392 56.676 222.456C56.744 222.52 56.778 222.606 56.778 222.714V225.084C56.778 225.544 56.65 225.892 56.394 226.128C56.138 226.364 55.76 226.482 55.26 226.482C54.824 226.482 54.46 226.4 54.168 226.236C54.02 226.148 53.946 226.042 53.946 225.918C53.946 225.83 53.966 225.76 54.006 225.708C54.05 225.656 54.106 225.63 54.174 225.63C54.21 225.63 54.254 225.638 54.306 225.654C54.358 225.674 54.412 225.696 54.468 225.72C54.612 225.78 54.74 225.826 54.852 225.858C54.968 225.89 55.1 225.906 55.248 225.906C55.772 225.906 56.034 225.65 56.034 225.138V224.754C55.946 224.918 55.818 225.046 55.65 225.138C55.482 225.226 55.29 225.27 55.074 225.27C54.818 225.27 54.59 225.21 54.39 225.09C54.194 224.966 54.04 224.794 53.928 224.574C53.816 224.354 53.76 224.1 53.76 223.812C53.76 223.524 53.814 223.27 53.922 223.05C54.034 222.826 54.19 222.654 54.39 222.534C54.59 222.41 54.818 222.348 55.074 222.348C55.29 222.348 55.482 222.394 55.65 222.486C55.818 222.574 55.946 222.7 56.034 222.864V222.708C56.034 222.604 56.068 222.52 56.136 222.456C56.204 222.392 56.294 222.36 56.406 222.36ZM55.272 224.688C55.512 224.688 55.698 224.61 55.83 224.454C55.966 224.298 56.034 224.084 56.034 223.812C56.034 223.536 55.966 223.32 55.83 223.164C55.698 223.008 55.512 222.93 55.272 222.93C55.036 222.93 54.85 223.008 54.714 223.164C54.578 223.32 54.51 223.536 54.51 223.812C54.51 224.084 54.578 224.298 54.714 224.454C54.85 224.61 55.036 224.688 55.272 224.688ZM58.0048 225.39C57.8888 225.39 57.7948 225.354 57.7228 225.282C57.6548 225.21 57.6208 225.116 57.6208 225V221.478C57.6208 221.362 57.6548 221.27 57.7228 221.202C57.7948 221.13 57.8888 221.094 58.0048 221.094C58.1248 221.094 58.2188 221.13 58.2868 221.202C58.3588 221.27 58.3948 221.362 58.3948 221.478V225C58.3948 225.116 58.3588 225.21 58.2868 225.282C58.2188 225.354 58.1248 225.39 58.0048 225.39ZM60.9463 222.348C61.2983 222.348 61.5603 222.448 61.7323 222.648C61.9043 222.848 61.9903 223.15 61.9903 223.554V225.03C61.9903 225.142 61.9563 225.23 61.8883 225.294C61.8243 225.358 61.7343 225.39 61.6183 225.39C61.5023 225.39 61.4103 225.358 61.3423 225.294C61.2743 225.23 61.2403 225.142 61.2403 225.03V223.596C61.2403 223.368 61.1963 223.202 61.1083 223.098C61.0243 222.994 60.8903 222.942 60.7063 222.942C60.4903 222.942 60.3163 223.01 60.1843 223.146C60.0563 223.282 59.9923 223.464 59.9923 223.692V225.03C59.9923 225.142 59.9583 225.23 59.8903 225.294C59.8223 225.358 59.7303 225.39 59.6143 225.39C59.4983 225.39 59.4063 225.358 59.3383 225.294C59.2743 225.23 59.2423 225.142 59.2423 225.03V222.708C59.2423 222.604 59.2763 222.52 59.3443 222.456C59.4123 222.392 59.5043 222.36 59.6203 222.36C59.7243 222.36 59.8083 222.392 59.8723 222.456C59.9403 222.516 59.9743 222.596 59.9743 222.696V222.858C60.0743 222.694 60.2083 222.568 60.3763 222.48C60.5443 222.392 60.7343 222.348 60.9463 222.348Z" fill="white"/>
<path d="M47.5067 151.353C47.6134 151.347 47.6967 151.373 47.7567 151.433C47.8234 151.493 47.8567 151.567 47.8567 151.653C47.8567 151.733 47.8234 151.807 47.7567 151.873C47.6967 151.933 47.6134 151.96 47.5067 151.953L46.3167 151.913L46.9467 152.923C46.9867 152.99 47.0067 153.053 47.0067 153.113C47.0067 153.193 46.9734 153.263 46.9067 153.323C46.8467 153.377 46.7767 153.403 46.6967 153.403C46.5834 153.403 46.4934 153.343 46.4267 153.223L45.8667 152.163L45.3067 153.233C45.24 153.353 45.15 153.413 45.0367 153.413C44.9567 153.413 44.8834 153.383 44.8167 153.323C44.75 153.263 44.7167 153.193 44.7167 153.113C44.7167 153.053 44.7367 152.993 44.7767 152.933L45.4267 151.913L44.2167 151.953C44.1167 151.96 44.0367 151.933 43.9767 151.873C43.9167 151.807 43.8867 151.733 43.8867 151.653C43.8867 151.567 43.9134 151.493 43.9667 151.433C44.0267 151.373 44.11 151.347 44.2167 151.353L45.4267 151.393L44.7767 150.383C44.7367 150.323 44.7167 150.26 44.7167 150.193C44.7167 150.113 44.75 150.043 44.8167 149.983C44.8834 149.923 44.9567 149.893 45.0367 149.893C45.15 149.893 45.24 149.953 45.3067 150.073L45.8667 151.143L46.4267 150.083C46.4934 149.957 46.5867 149.893 46.7067 149.893C46.7867 149.893 46.8567 149.923 46.9167 149.983C46.9767 150.037 47.0067 150.103 47.0067 150.183C47.0067 150.243 46.9867 150.31 46.9467 150.383L46.3167 151.393L47.5067 151.353ZM55.3087 151.353C55.4153 151.347 55.4987 151.373 55.5587 151.433C55.6253 151.493 55.6587 151.567 55.6587 151.653C55.6587 151.733 55.6253 151.807 55.5587 151.873C55.4987 151.933 55.4153 151.96 55.3087 151.953L54.1187 151.913L54.7487 152.923C54.7887 152.99 54.8087 153.053 54.8087 153.113C54.8087 153.193 54.7753 153.263 54.7087 153.323C54.6487 153.377 54.5787 153.403 54.4987 153.403C54.3853 153.403 54.2953 153.343 54.2287 153.223L53.6687 152.163L53.1087 153.233C53.042 153.353 52.952 153.413 52.8387 153.413C52.7587 153.413 52.6853 153.383 52.6187 153.323C52.552 153.263 52.5187 153.193 52.5187 153.113C52.5187 153.053 52.5387 152.993 52.5787 152.933L53.2287 151.913L52.0187 151.953C51.9187 151.96 51.8387 151.933 51.7787 151.873C51.7187 151.807 51.6887 151.733 51.6887 151.653C51.6887 151.567 51.7153 151.493 51.7687 151.433C51.8287 151.373 51.912 151.347 52.0187 151.353L53.2287 151.393L52.5787 150.383C52.5387 150.323 52.5187 150.26 52.5187 150.193C52.5187 150.113 52.552 150.043 52.6187 149.983C52.6853 149.923 52.7587 149.893 52.8387 149.893C52.952 149.893 53.042 149.953 53.1087 150.073L53.6687 151.143L54.2287 150.083C54.2953 149.957 54.3887 149.893 54.5087 149.893C54.5887 149.893 54.6587 149.923 54.7187 149.983C54.7787 150.037 54.8087 150.103 54.8087 150.183C54.8087 150.243 54.7887 150.31 54.7487 150.383L54.1187 151.393L55.3087 151.353ZM63.1106 151.353C63.2173 151.347 63.3006 151.373 63.3606 151.433C63.4273 151.493 63.4606 151.567 63.4606 151.653C63.4606 151.733 63.4273 151.807 63.3606 151.873C63.3006 151.933 63.2173 151.96 63.1106 151.953L61.9206 151.913L62.5506 152.923C62.5906 152.99 62.6106 153.053 62.6106 153.113C62.6106 153.193 62.5773 153.263 62.5106 153.323C62.4506 153.377 62.3806 153.403 62.3006 153.403C62.1873 153.403 62.0973 153.343 62.0306 153.223L61.4706 152.163L60.9106 153.233C60.8439 153.353 60.7539 153.413 60.6406 153.413C60.5606 153.413 60.4873 153.383 60.4206 153.323C60.3539 153.263 60.3206 153.193 60.3206 153.113C60.3206 153.053 60.3406 152.993 60.3806 152.933L61.0306 151.913L59.8206 151.953C59.7206 151.96 59.6406 151.933 59.5806 151.873C59.5206 151.807 59.4906 151.733 59.4906 151.653C59.4906 151.567 59.5173 151.493 59.5706 151.433C59.6306 151.373 59.7139 151.347 59.8206 151.353L61.0306 151.393L60.3806 150.383C60.3406 150.323 60.3206 150.26 60.3206 150.193C60.3206 150.113 60.3539 150.043 60.4206 149.983C60.4873 149.923 60.5606 149.893 60.6406 149.893C60.7539 149.893 60.8439 149.953 60.9106 150.073L61.4706 151.143L62.0306 150.083C62.0973 149.957 62.1906 149.893 62.3106 149.893C62.3906 149.893 62.4606 149.923 62.5206 149.983C62.5806 150.037 62.6106 150.103 62.6106 150.183C62.6106 150.243 62.5906 150.31 62.5506 150.383L61.9206 151.393L63.1106 151.353ZM70.9126 151.353C71.0192 151.347 71.1026 151.373 71.1626 151.433C71.2292 151.493 71.2626 151.567 71.2626 151.653C71.2626 151.733 71.2292 151.807 71.1626 151.873C71.1026 151.933 71.0192 151.96 70.9126 151.953L69.7226 151.913L70.3526 152.923C70.3926 152.99 70.4126 153.053 70.4126 153.113C70.4126 153.193 70.3792 153.263 70.3126 153.323C70.2526 153.377 70.1826 153.403 70.1026 153.403C69.9892 153.403 69.8992 153.343 69.8326 153.223L69.2726 152.163L68.7126 153.233C68.6459 153.353 68.5559 153.413 68.4426 153.413C68.3626 153.413 68.2892 153.383 68.2226 153.323C68.1559 153.263 68.1226 153.193 68.1226 153.113C68.1226 153.053 68.1426 152.993 68.1826 152.933L68.8326 151.913L67.6226 151.953C67.5226 151.96 67.4426 151.933 67.3826 151.873C67.3226 151.807 67.2926 151.733 67.2926 151.653C67.2926 151.567 67.3192 151.493 67.3726 151.433C67.4326 151.373 67.5159 151.347 67.6226 151.353L68.8326 151.393L68.1826 150.383C68.1426 150.323 68.1226 150.26 68.1226 150.193C68.1226 150.113 68.1559 150.043 68.2226 149.983C68.2892 149.923 68.3626 149.893 68.4426 149.893C68.5559 149.893 68.6459 149.953 68.7126 150.073L69.2726 151.143L69.8326 150.083C69.8992 149.957 69.9926 149.893 70.1126 149.893C70.1926 149.893 70.2626 149.923 70.3226 149.983C70.3826 150.037 70.4126 150.103 70.4126 150.183C70.4126 150.243 70.3926 150.31 70.3526 150.383L69.7226 151.393L70.9126 151.353ZM78.7145 151.353C78.8212 151.347 78.9045 151.373 78.9645 151.433C79.0312 151.493 79.0645 151.567 79.0645 151.653C79.0645 151.733 79.0312 151.807 78.9645 151.873C78.9045 151.933 78.8212 151.96 78.7145 151.953L77.5245 151.913L78.1545 152.923C78.1945 152.99 78.2145 153.053 78.2145 153.113C78.2145 153.193 78.1812 153.263 78.1145 153.323C78.0545 153.377 77.9845 153.403 77.9045 153.403C77.7912 153.403 77.7012 153.343 77.6345 153.223L77.0745 152.163L76.5145 153.233C76.4478 153.353 76.3578 153.413 76.2445 153.413C76.1645 153.413 76.0912 153.383 76.0245 153.323C75.9578 153.263 75.9245 153.193 75.9245 153.113C75.9245 153.053 75.9445 152.993 75.9845 152.933L76.6345 151.913L75.4245 151.953C75.3245 151.96 75.2445 151.933 75.1845 151.873C75.1245 151.807 75.0945 151.733 75.0945 151.653C75.0945 151.567 75.1212 151.493 75.1745 151.433C75.2345 151.373 75.3178 151.347 75.4245 151.353L76.6345 151.393L75.9845 150.383C75.9445 150.323 75.9245 150.26 75.9245 150.193C75.9245 150.113 75.9578 150.043 76.0245 149.983C76.0912 149.923 76.1645 149.893 76.2445 149.893C76.3578 149.893 76.4478 149.953 76.5145 150.073L77.0745 151.143L77.6345 150.083C77.7012 149.957 77.7945 149.893 77.9145 149.893C77.9945 149.893 78.0645 149.923 78.1245 149.983C78.1845 150.037 78.2145 150.103 78.2145 150.183C78.2145 150.243 78.1945 150.31 78.1545 150.383L77.5245 151.393L78.7145 151.353ZM86.5165 151.353C86.6231 151.347 86.7065 151.373 86.7665 151.433C86.8331 151.493 86.8665 151.567 86.8665 151.653C86.8665 151.733 86.8331 151.807 86.7665 151.873C86.7065 151.933 86.6231 151.96 86.5165 151.953L85.3265 151.913L85.9565 152.923C85.9965 152.99 86.0165 153.053 86.0165 153.113C86.0165 153.193 85.9831 153.263 85.9165 153.323C85.8565 153.377 85.7865 153.403 85.7065 153.403C85.5931 153.403 85.5031 153.343 85.4365 153.223L84.8765 152.163L84.3165 153.233C84.2498 153.353 84.1598 153.413 84.0465 153.413C83.9665 153.413 83.8931 153.383 83.8265 153.323C83.7598 153.263 83.7265 153.193 83.7265 153.113C83.7265 153.053 83.7465 152.993 83.7865 152.933L84.4365 151.913L83.2265 151.953C83.1265 151.96 83.0465 151.933 82.9865 151.873C82.9265 151.807 82.8965 151.733 82.8965 151.653C82.8965 151.567 82.9231 151.493 82.9765 151.433C83.0365 151.373 83.1198 151.347 83.2265 151.353L84.4365 151.393L83.7865 150.383C83.7465 150.323 83.7265 150.26 83.7265 150.193C83.7265 150.113 83.7598 150.043 83.8265 149.983C83.8931 149.923 83.9665 149.893 84.0465 149.893C84.1598 149.893 84.2498 149.953 84.3165 150.073L84.8765 151.143L85.4365 150.083C85.5031 149.957 85.5965 149.893 85.7165 149.893C85.7965 149.893 85.8665 149.923 85.9265 149.983C85.9865 150.037 86.0165 150.103 86.0165 150.183C86.0165 150.243 85.9965 150.31 85.9565 150.383L85.3265 151.393L86.5165 151.353ZM94.3184 151.353C94.4251 151.347 94.5084 151.373 94.5684 151.433C94.6351 151.493 94.6684 151.567 94.6684 151.653C94.6684 151.733 94.6351 151.807 94.5684 151.873C94.5084 151.933 94.4251 151.96 94.3184 151.953L93.1284 151.913L93.7584 152.923C93.7984 152.99 93.8184 153.053 93.8184 153.113C93.8184 153.193 93.7851 153.263 93.7184 153.323C93.6584 153.377 93.5884 153.403 93.5084 153.403C93.3951 153.403 93.3051 153.343 93.2384 153.223L92.6784 152.163L92.1184 153.233C92.0518 153.353 91.9618 153.413 91.8484 153.413C91.7684 153.413 91.6951 153.383 91.6284 153.323C91.5618 153.263 91.5284 153.193 91.5284 153.113C91.5284 153.053 91.5484 152.993 91.5884 152.933L92.2384 151.913L91.0284 151.953C90.9284 151.96 90.8484 151.933 90.7884 151.873C90.7284 151.807 90.6984 151.733 90.6984 151.653C90.6984 151.567 90.7251 151.493 90.7784 151.433C90.8384 151.373 90.9218 151.347 91.0284 151.353L92.2384 151.393L91.5884 150.383C91.5484 150.323 91.5284 150.26 91.5284 150.193C91.5284 150.113 91.5618 150.043 91.6284 149.983C91.6951 149.923 91.7684 149.893 91.8484 149.893C91.9618 149.893 92.0518 149.953 92.1184 150.073L92.6784 151.143L93.2384 150.083C93.3051 149.957 93.3984 149.893 93.5184 149.893C93.5984 149.893 93.6684 149.923 93.7284 149.983C93.7884 150.037 93.8184 150.103 93.8184 150.183C93.8184 150.243 93.7984 150.31 93.7584 150.383L93.1284 151.393L94.3184 151.353ZM102.12 151.353C102.227 151.347 102.31 151.373 102.37 151.433C102.437 151.493 102.47 151.567 102.47 151.653C102.47 151.733 102.437 151.807 102.37 151.873C102.31 151.933 102.227 151.96 102.12 151.953L100.93 151.913L101.56 152.923C101.6 152.99 101.62 153.053 101.62 153.113C101.62 153.193 101.587 153.263 101.52 153.323C101.46 153.377 101.39 153.403 101.31 153.403C101.197 153.403 101.107 153.343 101.04 153.223L100.48 152.163L99.9204 153.233C99.8537 153.353 99.7637 153.413 99.6504 153.413C99.5704 153.413 99.497 153.383 99.4304 153.323C99.3637 153.263 99.3304 153.193 99.3304 153.113C99.3304 153.053 99.3504 152.993 99.3904 152.933L100.04 151.913L98.8304 151.953C98.7304 151.96 98.6504 151.933 98.5904 151.873C98.5304 151.807 98.5004 151.733 98.5004 151.653C98.5004 151.567 98.527 151.493 98.5804 151.433C98.6404 151.373 98.7237 151.347 98.8304 151.353L100.04 151.393L99.3904 150.383C99.3504 150.323 99.3304 150.26 99.3304 150.193C99.3304 150.113 99.3637 150.043 99.4304 149.983C99.497 149.923 99.5704 149.893 99.6504 149.893C99.7637 149.893 99.8537 149.953 99.9204 150.073L100.48 151.143L101.04 150.083C101.107 149.957 101.2 149.893 101.32 149.893C101.4 149.893 101.47 149.923 101.53 149.983C101.59 150.037 101.62 150.103 101.62 150.183C101.62 150.243 101.6 150.31 101.56 150.383L100.93 151.393L102.12 151.353ZM109.922 151.353C110.029 151.347 110.112 151.373 110.172 151.433C110.239 151.493 110.272 151.567 110.272 151.653C110.272 151.733 110.239 151.807 110.172 151.873C110.112 151.933 110.029 151.96 109.922 151.953L108.732 151.913L109.362 152.923C109.402 152.99 109.422 153.053 109.422 153.113C109.422 153.193 109.389 153.263 109.322 153.323C109.262 153.377 109.192 153.403 109.112 153.403C108.999 153.403 108.909 153.343 108.842 153.223L108.282 152.163L107.722 153.233C107.656 153.353 107.566 153.413 107.452 153.413C107.372 153.413 107.299 153.383 107.232 153.323C107.166 153.263 107.132 153.193 107.132 153.113C107.132 153.053 107.152 152.993 107.192 152.933L107.842 151.913L106.632 151.953C106.532 151.96 106.452 151.933 106.392 151.873C106.332 151.807 106.302 151.733 106.302 151.653C106.302 151.567 106.329 151.493 106.382 151.433C106.442 151.373 106.526 151.347 106.632 151.353L107.842 151.393L107.192 150.383C107.152 150.323 107.132 150.26 107.132 150.193C107.132 150.113 107.166 150.043 107.232 149.983C107.299 149.923 107.372 149.893 107.452 149.893C107.566 149.893 107.656 149.953 107.722 150.073L108.282 151.143L108.842 150.083C108.909 149.957 109.002 149.893 109.122 149.893C109.202 149.893 109.272 149.923 109.332 149.983C109.392 150.037 109.422 150.103 109.422 150.183C109.422 150.243 109.402 150.31 109.362 150.383L108.732 151.393L109.922 151.353ZM117.724 151.353C117.831 151.347 117.914 151.373 117.974 151.433C118.041 151.493 118.074 151.567 118.074 151.653C118.074 151.733 118.041 151.807 117.974 151.873C117.914 151.933 117.831 151.96 117.724 151.953L116.534 151.913L117.164 152.923C117.204 152.99 117.224 153.053 117.224 153.113C117.224 153.193 117.191 153.263 117.124 153.323C117.064 153.377 116.994 153.403 116.914 153.403C116.801 153.403 116.711 153.343 116.644 153.223L116.084 152.163L115.524 153.233C115.458 153.353 115.368 153.413 115.254 153.413C115.174 153.413 115.101 153.383 115.034 153.323C114.968 153.263 114.934 153.193 114.934 153.113C114.934 153.053 114.954 152.993 114.994 152.933L115.644 151.913L114.434 151.953C114.334 151.96 114.254 151.933 114.194 151.873C114.134 151.807 114.104 151.733 114.104 151.653C114.104 151.567 114.131 151.493 114.184 151.433C114.244 151.373 114.328 151.347 114.434 151.353L115.644 151.393L114.994 150.383C114.954 150.323 114.934 150.26 114.934 150.193C114.934 150.113 114.968 150.043 115.034 149.983C115.101 149.923 115.174 149.893 115.254 149.893C115.368 149.893 115.458 149.953 115.524 150.073L116.084 151.143L116.644 150.083C116.711 149.957 116.804 149.893 116.924 149.893C117.004 149.893 117.074 149.923 117.134 149.983C117.194 150.037 117.224 150.103 117.224 150.183C117.224 150.243 117.204 150.31 117.164 150.383L116.534 151.393L117.724 151.353Z" fill="#5236FF"/>
<path d="M47.5067 192.961C47.6134 192.955 47.6967 192.981 47.7567 193.041C47.8234 193.101 47.8567 193.175 47.8567 193.261C47.8567 193.341 47.8234 193.415 47.7567 193.481C47.6967 193.541 47.6134 193.568 47.5067 193.561L46.3167 193.521L46.9467 194.531C46.9867 194.598 47.0067 194.661 47.0067 194.721C47.0067 194.801 46.9734 194.871 46.9067 194.931C46.8467 194.985 46.7767 195.011 46.6967 195.011C46.5834 195.011 46.4934 194.951 46.4267 194.831L45.8667 193.771L45.3067 194.841C45.24 194.961 45.15 195.021 45.0367 195.021C44.9567 195.021 44.8834 194.991 44.8167 194.931C44.75 194.871 44.7167 194.801 44.7167 194.721C44.7167 194.661 44.7367 194.601 44.7767 194.541L45.4267 193.521L44.2167 193.561C44.1167 193.568 44.0367 193.541 43.9767 193.481C43.9167 193.415 43.8867 193.341 43.8867 193.261C43.8867 193.175 43.9134 193.101 43.9667 193.041C44.0267 192.981 44.11 192.955 44.2167 192.961L45.4267 193.001L44.7767 191.991C44.7367 191.931 44.7167 191.868 44.7167 191.801C44.7167 191.721 44.75 191.651 44.8167 191.591C44.8834 191.531 44.9567 191.501 45.0367 191.501C45.15 191.501 45.24 191.561 45.3067 191.681L45.8667 192.751L46.4267 191.691C46.4934 191.565 46.5867 191.501 46.7067 191.501C46.7867 191.501 46.8567 191.531 46.9167 191.591C46.9767 191.645 47.0067 191.711 47.0067 191.791C47.0067 191.851 46.9867 191.918 46.9467 191.991L46.3167 193.001L47.5067 192.961ZM55.3087 192.961C55.4153 192.955 55.4987 192.981 55.5587 193.041C55.6253 193.101 55.6587 193.175 55.6587 193.261C55.6587 193.341 55.6253 193.415 55.5587 193.481C55.4987 193.541 55.4153 193.568 55.3087 193.561L54.1187 193.521L54.7487 194.531C54.7887 194.598 54.8087 194.661 54.8087 194.721C54.8087 194.801 54.7753 194.871 54.7087 194.931C54.6487 194.985 54.5787 195.011 54.4987 195.011C54.3853 195.011 54.2953 194.951 54.2287 194.831L53.6687 193.771L53.1087 194.841C53.042 194.961 52.952 195.021 52.8387 195.021C52.7587 195.021 52.6853 194.991 52.6187 194.931C52.552 194.871 52.5187 194.801 52.5187 194.721C52.5187 194.661 52.5387 194.601 52.5787 194.541L53.2287 193.521L52.0187 193.561C51.9187 193.568 51.8387 193.541 51.7787 193.481C51.7187 193.415 51.6887 193.341 51.6887 193.261C51.6887 193.175 51.7153 193.101 51.7687 193.041C51.8287 192.981 51.912 192.955 52.0187 192.961L53.2287 193.001L52.5787 191.991C52.5387 191.931 52.5187 191.868 52.5187 191.801C52.5187 191.721 52.552 191.651 52.6187 191.591C52.6853 191.531 52.7587 191.501 52.8387 191.501C52.952 191.501 53.042 191.561 53.1087 191.681L53.6687 192.751L54.2287 191.691C54.2953 191.565 54.3887 191.501 54.5087 191.501C54.5887 191.501 54.6587 191.531 54.7187 191.591C54.7787 191.645 54.8087 191.711 54.8087 191.791C54.8087 191.851 54.7887 191.918 54.7487 191.991L54.1187 193.001L55.3087 192.961ZM63.1106 192.961C63.2173 192.955 63.3006 192.981 63.3606 193.041C63.4273 193.101 63.4606 193.175 63.4606 193.261C63.4606 193.341 63.4273 193.415 63.3606 193.481C63.3006 193.541 63.2173 193.568 63.1106 193.561L61.9206 193.521L62.5506 194.531C62.5906 194.598 62.6106 194.661 62.6106 194.721C62.6106 194.801 62.5773 194.871 62.5106 194.931C62.4506 194.985 62.3806 195.011 62.3006 195.011C62.1873 195.011 62.0973 194.951 62.0306 194.831L61.4706 193.771L60.9106 194.841C60.8439 194.961 60.7539 195.021 60.6406 195.021C60.5606 195.021 60.4873 194.991 60.4206 194.931C60.3539 194.871 60.3206 194.801 60.3206 194.721C60.3206 194.661 60.3406 194.601 60.3806 194.541L61.0306 193.521L59.8206 193.561C59.7206 193.568 59.6406 193.541 59.5806 193.481C59.5206 193.415 59.4906 193.341 59.4906 193.261C59.4906 193.175 59.5173 193.101 59.5706 193.041C59.6306 192.981 59.7139 192.955 59.8206 192.961L61.0306 193.001L60.3806 191.991C60.3406 191.931 60.3206 191.868 60.3206 191.801C60.3206 191.721 60.3539 191.651 60.4206 191.591C60.4873 191.531 60.5606 191.501 60.6406 191.501C60.7539 191.501 60.8439 191.561 60.9106 191.681L61.4706 192.751L62.0306 191.691C62.0973 191.565 62.1906 191.501 62.3106 191.501C62.3906 191.501 62.4606 191.531 62.5206 191.591C62.5806 191.645 62.6106 191.711 62.6106 191.791C62.6106 191.851 62.5906 191.918 62.5506 191.991L61.9206 193.001L63.1106 192.961ZM70.9126 192.961C71.0192 192.955 71.1026 192.981 71.1626 193.041C71.2292 193.101 71.2626 193.175 71.2626 193.261C71.2626 193.341 71.2292 193.415 71.1626 193.481C71.1026 193.541 71.0192 193.568 70.9126 193.561L69.7226 193.521L70.3526 194.531C70.3926 194.598 70.4126 194.661 70.4126 194.721C70.4126 194.801 70.3792 194.871 70.3126 194.931C70.2526 194.985 70.1826 195.011 70.1026 195.011C69.9892 195.011 69.8992 194.951 69.8326 194.831L69.2726 193.771L68.7126 194.841C68.6459 194.961 68.5559 195.021 68.4426 195.021C68.3626 195.021 68.2892 194.991 68.2226 194.931C68.1559 194.871 68.1226 194.801 68.1226 194.721C68.1226 194.661 68.1426 194.601 68.1826 194.541L68.8326 193.521L67.6226 193.561C67.5226 193.568 67.4426 193.541 67.3826 193.481C67.3226 193.415 67.2926 193.341 67.2926 193.261C67.2926 193.175 67.3192 193.101 67.3726 193.041C67.4326 192.981 67.5159 192.955 67.6226 192.961L68.8326 193.001L68.1826 191.991C68.1426 191.931 68.1226 191.868 68.1226 191.801C68.1226 191.721 68.1559 191.651 68.2226 191.591C68.2892 191.531 68.3626 191.501 68.4426 191.501C68.5559 191.501 68.6459 191.561 68.7126 191.681L69.2726 192.751L69.8326 191.691C69.8992 191.565 69.9926 191.501 70.1126 191.501C70.1926 191.501 70.2626 191.531 70.3226 191.591C70.3826 191.645 70.4126 191.711 70.4126 191.791C70.4126 191.851 70.3926 191.918 70.3526 191.991L69.7226 193.001L70.9126 192.961ZM78.7145 192.961C78.8212 192.955 78.9045 192.981 78.9645 193.041C79.0312 193.101 79.0645 193.175 79.0645 193.261C79.0645 193.341 79.0312 193.415 78.9645 193.481C78.9045 193.541 78.8212 193.568 78.7145 193.561L77.5245 193.521L78.1545 194.531C78.1945 194.598 78.2145 194.661 78.2145 194.721C78.2145 194.801 78.1812 194.871 78.1145 194.931C78.0545 194.985 77.9845 195.011 77.9045 195.011C77.7912 195.011 77.7012 194.951 77.6345 194.831L77.0745 193.771L76.5145 194.841C76.4478 194.961 76.3578 195.021 76.2445 195.021C76.1645 195.021 76.0912 194.991 76.0245 194.931C75.9578 194.871 75.9245 194.801 75.9245 194.721C75.9245 194.661 75.9445 194.601 75.9845 194.541L76.6345 193.521L75.4245 193.561C75.3245 193.568 75.2445 193.541 75.1845 193.481C75.1245 193.415 75.0945 193.341 75.0945 193.261C75.0945 193.175 75.1212 193.101 75.1745 193.041C75.2345 192.981 75.3178 192.955 75.4245 192.961L76.6345 193.001L75.9845 191.991C75.9445 191.931 75.9245 191.868 75.9245 191.801C75.9245 191.721 75.9578 191.651 76.0245 191.591C76.0912 191.531 76.1645 191.501 76.2445 191.501C76.3578 191.501 76.4478 191.561 76.5145 191.681L77.0745 192.751L77.6345 191.691C77.7012 191.565 77.7945 191.501 77.9145 191.501C77.9945 191.501 78.0645 191.531 78.1245 191.591C78.1845 191.645 78.2145 191.711 78.2145 191.791C78.2145 191.851 78.1945 191.918 78.1545 191.991L77.5245 193.001L78.7145 192.961ZM86.5165 192.961C86.6231 192.955 86.7065 192.981 86.7665 193.041C86.8331 193.101 86.8665 193.175 86.8665 193.261C86.8665 193.341 86.8331 193.415 86.7665 193.481C86.7065 193.541 86.6231 193.568 86.5165 193.561L85.3265 193.521L85.9565 194.531C85.9965 194.598 86.0165 194.661 86.0165 194.721C86.0165 194.801 85.9831 194.871 85.9165 194.931C85.8565 194.985 85.7865 195.011 85.7065 195.011C85.5931 195.011 85.5031 194.951 85.4365 194.831L84.8765 193.771L84.3165 194.841C84.2498 194.961 84.1598 195.021 84.0465 195.021C83.9665 195.021 83.8931 194.991 83.8265 194.931C83.7598 194.871 83.7265 194.801 83.7265 194.721C83.7265 194.661 83.7465 194.601 83.7865 194.541L84.4365 193.521L83.2265 193.561C83.1265 193.568 83.0465 193.541 82.9865 193.481C82.9265 193.415 82.8965 193.341 82.8965 193.261C82.8965 193.175 82.9231 193.101 82.9765 193.041C83.0365 192.981 83.1198 192.955 83.2265 192.961L84.4365 193.001L83.7865 191.991C83.7465 191.931 83.7265 191.868 83.7265 191.801C83.7265 191.721 83.7598 191.651 83.8265 191.591C83.8931 191.531 83.9665 191.501 84.0465 191.501C84.1598 191.501 84.2498 191.561 84.3165 191.681L84.8765 192.751L85.4365 191.691C85.5031 191.565 85.5965 191.501 85.7165 191.501C85.7965 191.501 85.8665 191.531 85.9265 191.591C85.9865 191.645 86.0165 191.711 86.0165 191.791C86.0165 191.851 85.9965 191.918 85.9565 191.991L85.3265 193.001L86.5165 192.961ZM94.3184 192.961C94.4251 192.955 94.5084 192.981 94.5684 193.041C94.6351 193.101 94.6684 193.175 94.6684 193.261C94.6684 193.341 94.6351 193.415 94.5684 193.481C94.5084 193.541 94.4251 193.568 94.3184 193.561L93.1284 193.521L93.7584 194.531C93.7984 194.598 93.8184 194.661 93.8184 194.721C93.8184 194.801 93.7851 194.871 93.7184 194.931C93.6584 194.985 93.5884 195.011 93.5084 195.011C93.3951 195.011 93.3051 194.951 93.2384 194.831L92.6784 193.771L92.1184 194.841C92.0518 194.961 91.9618 195.021 91.8484 195.021C91.7684 195.021 91.6951 194.991 91.6284 194.931C91.5618 194.871 91.5284 194.801 91.5284 194.721C91.5284 194.661 91.5484 194.601 91.5884 194.541L92.2384 193.521L91.0284 193.561C90.9284 193.568 90.8484 193.541 90.7884 193.481C90.7284 193.415 90.6984 193.341 90.6984 193.261C90.6984 193.175 90.7251 193.101 90.7784 193.041C90.8384 192.981 90.9218 192.955 91.0284 192.961L92.2384 193.001L91.5884 191.991C91.5484 191.931 91.5284 191.868 91.5284 191.801C91.5284 191.721 91.5618 191.651 91.6284 191.591C91.6951 191.531 91.7684 191.501 91.8484 191.501C91.9618 191.501 92.0518 191.561 92.1184 191.681L92.6784 192.751L93.2384 191.691C93.3051 191.565 93.3984 191.501 93.5184 191.501C93.5984 191.501 93.6684 191.531 93.7284 191.591C93.7884 191.645 93.8184 191.711 93.8184 191.791C93.8184 191.851 93.7984 191.918 93.7584 191.991L93.1284 193.001L94.3184 192.961ZM102.12 192.961C102.227 192.955 102.31 192.981 102.37 193.041C102.437 193.101 102.47 193.175 102.47 193.261C102.47 193.341 102.437 193.415 102.37 193.481C102.31 193.541 102.227 193.568 102.12 193.561L100.93 193.521L101.56 194.531C101.6 194.598 101.62 194.661 101.62 194.721C101.62 194.801 101.587 194.871 101.52 194.931C101.46 194.985 101.39 195.011 101.31 195.011C101.197 195.011 101.107 194.951 101.04 194.831L100.48 193.771L99.9204 194.841C99.8537 194.961 99.7637 195.021 99.6504 195.021C99.5704 195.021 99.497 194.991 99.4304 194.931C99.3637 194.871 99.3304 194.801 99.3304 194.721C99.3304 194.661 99.3504 194.601 99.3904 194.541L100.04 193.521L98.8304 193.561C98.7304 193.568 98.6504 193.541 98.5904 193.481C98.5304 193.415 98.5004 193.341 98.5004 193.261C98.5004 193.175 98.527 193.101 98.5804 193.041C98.6404 192.981 98.7237 192.955 98.8304 192.961L100.04 193.001L99.3904 191.991C99.3504 191.931 99.3304 191.868 99.3304 191.801C99.3304 191.721 99.3637 191.651 99.4304 191.591C99.497 191.531 99.5704 191.501 99.6504 191.501C99.7637 191.501 99.8537 191.561 99.9204 191.681L100.48 192.751L101.04 191.691C101.107 191.565 101.2 191.501 101.32 191.501C101.4 191.501 101.47 191.531 101.53 191.591C101.59 191.645 101.62 191.711 101.62 191.791C101.62 191.851 101.6 191.918 101.56 191.991L100.93 193.001L102.12 192.961ZM109.922 192.961C110.029 192.955 110.112 192.981 110.172 193.041C110.239 193.101 110.272 193.175 110.272 193.261C110.272 193.341 110.239 193.415 110.172 193.481C110.112 193.541 110.029 193.568 109.922 193.561L108.732 193.521L109.362 194.531C109.402 194.598 109.422 194.661 109.422 194.721C109.422 194.801 109.389 194.871 109.322 194.931C109.262 194.985 109.192 195.011 109.112 195.011C108.999 195.011 108.909 194.951 108.842 194.831L108.282 193.771L107.722 194.841C107.656 194.961 107.566 195.021 107.452 195.021C107.372 195.021 107.299 194.991 107.232 194.931C107.166 194.871 107.132 194.801 107.132 194.721C107.132 194.661 107.152 194.601 107.192 194.541L107.842 193.521L106.632 193.561C106.532 193.568 106.452 193.541 106.392 193.481C106.332 193.415 106.302 193.341 106.302 193.261C106.302 193.175 106.329 193.101 106.382 193.041C106.442 192.981 106.526 192.955 106.632 192.961L107.842 193.001L107.192 191.991C107.152 191.931 107.132 191.868 107.132 191.801C107.132 191.721 107.166 191.651 107.232 191.591C107.299 191.531 107.372 191.501 107.452 191.501C107.566 191.501 107.656 191.561 107.722 191.681L108.282 192.751L108.842 191.691C108.909 191.565 109.002 191.501 109.122 191.501C109.202 191.501 109.272 191.531 109.332 191.591C109.392 191.645 109.422 191.711 109.422 191.791C109.422 191.851 109.402 191.918 109.362 191.991L108.732 193.001L109.922 192.961ZM117.724 192.961C117.831 192.955 117.914 192.981 117.974 193.041C118.041 193.101 118.074 193.175 118.074 193.261C118.074 193.341 118.041 193.415 117.974 193.481C117.914 193.541 117.831 193.568 117.724 193.561L116.534 193.521L117.164 194.531C117.204 194.598 117.224 194.661 117.224 194.721C117.224 194.801 117.191 194.871 117.124 194.931C117.064 194.985 116.994 195.011 116.914 195.011C116.801 195.011 116.711 194.951 116.644 194.831L116.084 193.771L115.524 194.841C115.458 194.961 115.368 195.021 115.254 195.021C115.174 195.021 115.101 194.991 115.034 194.931C114.968 194.871 114.934 194.801 114.934 194.721C114.934 194.661 114.954 194.601 114.994 194.541L115.644 193.521L114.434 193.561C114.334 193.568 114.254 193.541 114.194 193.481C114.134 193.415 114.104 193.341 114.104 193.261C114.104 193.175 114.131 193.101 114.184 193.041C114.244 192.981 114.328 192.955 114.434 192.961L115.644 193.001L114.994 191.991C114.954 191.931 114.934 191.868 114.934 191.801C114.934 191.721 114.968 191.651 115.034 191.591C115.101 191.531 115.174 191.501 115.254 191.501C115.368 191.501 115.458 191.561 115.524 191.681L116.084 192.751L116.644 191.691C116.711 191.565 116.804 191.501 116.924 191.501C117.004 191.501 117.074 191.531 117.134 191.591C117.194 191.645 117.224 191.711 117.224 191.791C117.224 191.851 117.204 191.918 117.164 191.991L116.534 193.001L117.724 192.961Z" fill="#5236FF"/>
<g filter="url(#filter1_d_200_217)">
<rect x="175.009" y="68.2531" width="227.748" height="33.9431" rx="5" fill="#2C296C"/>
</g>
<rect x="269.174" y="82.4872" width="16.4241" height="4.37976" rx="2.18988" fill="white"/>
<rect x="289.978" y="82.4872" width="15.3292" height="4.37976" rx="2.18988" fill="white"/>
<rect x="188.148" y="78.1074" width="13.1393" height="13.1393" rx="5" fill="#7660FC"/>
<rect x="309.687" y="82.4872" width="16.4241" height="4.37976" rx="2.18988" fill="white"/>
<rect x="330.491" y="82.4872" width="16.4241" height="4.37976" rx="2.18988" fill="white"/>
<rect x="351.294" y="82.4872" width="16.4241" height="4.37976" rx="2.18988" fill="white"/>
<rect x="386.333" y="83.5822" width="4.37976" height="2.18988" rx="1.09494" fill="white"/>
<defs>
<filter id="filter0_d_200_217" x="0.243164" y="99.9555" width="209.526" height="176.678" filterUnits="userSpaceOnUse" color-interpolation-filters="sRGB">
<feFlood flood-opacity="0" result="BackgroundImageFix"/>
<feColorMatrix in="SourceAlpha" type="matrix" values="0 0 0 0 0 0 0 0 0 0 0 0 0 0 0 0 0 0 127 0" result="hardAlpha"/>
<feOffset dx="5" dy="10"/>
<feGaussianBlur stdDeviation="10.5"/>
<feComposite in2="hardAlpha" operator="out"/>
<feColorMatrix type="matrix" values="0 0 0 0 0.700272 0 0 0 0 0.700272 0 0 0 0 0.700272 0 0 0 0.25 0"/>
<feBlend mode="normal" in2="BackgroundImageFix" result="effect1_dropShadow_200_217"/>
<feBlend mode="normal" in="SourceGraphic" in2="effect1_dropShadow_200_217" result="shape"/>
</filter>
<filter id="filter1_d_200_217" x="174.009" y="68.2531" width="241.748" height="47.9432" filterUnits="userSpaceOnUse" color-interpolation-filters="sRGB">
<feFlood flood-opacity="0" result="BackgroundImageFix"/>
<feColorMatrix in="SourceAlpha" type="matrix" values="0 0 0 0 0 0 0 0 0 0 0 0 0 0 0 0 0 0 127 0" result="hardAlpha"/>
<feOffset dx="6" dy="7"/>
<feGaussianBlur stdDeviation="3.5"/>
<feComposite in2="hardAlpha" operator="out"/>
<feColorMatrix type="matrix" values="0 0 0 0 0.500272 0 0 0 0 0.500272 0 0 0 0 0.500272 0 0 0 0.25 0"/>
<feBlend mode="normal" in2="BackgroundImageFix" result="effect1_dropShadow_200_217"/>
<feBlend mode="normal" in="SourceGraphic" in2="effect1_dropShadow_200_217" result="shape"/>
</filter>
</defs>
</svg>
