<svg width="296" height="227" viewBox="0 0 296 227" fill="none" xmlns="http://www.w3.org/2000/svg">
<rect x="1.58154" y="1.86694" width="248.628" height="182.528" stroke="#C6C6C6" stroke-width="2" stroke-linejoin="round" stroke-dasharray="3 3"/>
<rect x="27.5" y="23.9999" width="268.26" height="202.564" fill="#F1F1F1"/>
<rect x="34.0693" y="53.5631" width="255.121" height="168.621" fill="white"/>
<rect x="54.8735" y="75.4624" width="211.323" height="122.633" rx="8" fill="#F1F1F1"/>
<rect x="271.671" y="37.1391" width="16.4241" height="4.37976" rx="2.18988" fill="#C4C4C4"/>
<rect x="70.7061" y="114.27" width="78.8672" height="4.75104" rx="2.37552" fill="white"/>
<rect x="70.7061" y="161.78" width="78.8672" height="4.75104" rx="2.37552" fill="white"/>
<rect x="165.727" y="114.27" width="78.8672" height="4.75104" rx="2.37552" fill="#5236FF"/>
<rect x="70.7061" y="106.668" width="78.8672" height="4.75104" rx="2.37552" fill="white"/>
<rect x="70.7061" y="154.178" width="78.8672" height="4.75104" rx="2.37552" fill="#FFB422"/>
<rect x="165.727" y="106.668" width="78.8672" height="4.75104" rx="2.37552" fill="white"/>
<rect x="70.7061" y="121.871" width="78.8672" height="4.75104" rx="2.37552" fill="white"/>
<rect x="70.7061" y="169.382" width="78.8672" height="4.75104" rx="2.37552" fill="#FFB422"/>
<rect x="165.727" y="121.871" width="78.8672" height="4.75104" rx="2.37552" fill="white"/>
<rect x="70.7061" y="129.473" width="44.6598" height="4.75104" rx="2.37552" fill="#5236FF"/>
<rect x="70.7061" y="176.983" width="44.6598" height="4.75104" rx="2.37552" fill="white"/>
<rect x="165.727" y="129.473" width="44.6598" height="4.75104" rx="2.37552" fill="white"/>
<circle cx="36.8067" cy="38.7815" r="2.73735" fill="#C4C4C4"/>
<circle cx="44.4717" cy="38.7815" r="2.73735" fill="#C4C4C4"/>
<circle cx="52.1363" cy="38.7815" r="2.73735" fill="#C4C4C4"/>
<rect x="33.5522" y="52.3811" width="246.487" height="162.914" fill="white"/>
<rect x="54.873" y="75.4628" width="211.323" height="122.633" rx="8" fill="#F1F1F1"/>
<rect x="70.707" y="114.269" width="78.8672" height="4.75104" rx="2.37552" fill="white"/>
<rect x="70.707" y="161.78" width="78.8672" height="4.75104" rx="2.37552" fill="white"/>
<rect x="165.727" y="114.269" width="78.8672" height="4.75104" rx="2.37552" fill="#28246E"/>
<rect x="70.707" y="106.668" width="78.8672" height="4.75104" rx="2.37552" fill="white"/>
<rect x="70.707" y="154.179" width="78.8672" height="4.75104" rx="2.37552" fill="#FFB422"/>
<rect x="165.727" y="106.668" width="78.8672" height="4.75104" rx="2.37552" fill="white"/>
<rect x="70.707" y="121.871" width="78.8672" height="4.75104" rx="2.37552" fill="white"/>
<rect x="70.707" y="169.382" width="78.8672" height="4.75104" rx="2.37552" fill="#FFB422"/>
<rect x="165.727" y="121.871" width="78.8672" height="4.75104" rx="2.37552" fill="white"/>
<rect x="70.707" y="129.473" width="44.6598" height="4.75104" rx="2.37552" fill="#28246E"/>
<rect x="70.707" y="176.983" width="44.6598" height="4.75104" rx="2.37552" fill="white"/>
<rect x="165.727" y="129.473" width="44.6598" height="4.75104" rx="2.37552" fill="white"/>
<rect x="263.113" y="36.5129" width="15.8683" height="4.23154" rx="2.11577" fill="#C4C4C4"/>
<circle cx="36.197" cy="38.0998" r="2.64471" fill="#C4C4C4"/>
<circle cx="43.6022" cy="38.0998" r="2.64471" fill="#C4C4C4"/>
<circle cx="51.0075" cy="38.0998" r="2.64471" fill="#C4C4C4"/>
</svg>
