<svg width="302" height="218" viewBox="0 0 302 218" fill="none" xmlns="http://www.w3.org/2000/svg">
<rect x="1.85986" y="27.5602" width="257.407" height="188.992" stroke="#C6C6C6" stroke-width="2" stroke-linejoin="round" stroke-dasharray="3 3"/>
<rect x="33.5005" y="-0.000366211" width="268.26" height="202.564" fill="#F1F1F1"/>
<rect x="40.0698" y="29.5628" width="255.121" height="168.621" fill="white"/>
<rect x="60.874" y="51.4622" width="211.323" height="122.633" rx="8" fill="#F1F1F1"/>
<rect x="277.672" y="13.1388" width="16.4241" height="4.37976" rx="2.18988" fill="#C4C4C4"/>
<rect x="76.7065" y="90.2694" width="78.8672" height="4.75104" rx="2.37552" fill="white"/>
<rect x="76.7065" y="137.78" width="78.8672" height="4.75104" rx="2.37552" fill="white"/>
<rect x="171.728" y="90.2694" width="78.8672" height="4.75104" rx="2.37552" fill="#28246E"/>
<rect x="76.7065" y="82.6677" width="78.8672" height="4.75104" rx="2.37552" fill="white"/>
<rect x="76.7065" y="130.178" width="78.8672" height="4.75104" rx="2.37552" fill="#FFB422"/>
<rect x="171.728" y="82.6677" width="78.8672" height="4.75104" rx="2.37552" fill="white"/>
<rect x="76.7065" y="97.8711" width="78.8672" height="4.75104" rx="2.37552" fill="white"/>
<rect x="76.7065" y="145.381" width="78.8672" height="4.75104" rx="2.37552" fill="#FFB422"/>
<rect x="171.728" y="97.8711" width="78.8672" height="4.75104" rx="2.37552" fill="white"/>
<rect x="76.7065" y="105.473" width="44.6598" height="4.75104" rx="2.37552" fill="#28246E"/>
<rect x="76.7065" y="152.983" width="44.6598" height="4.75104" rx="2.37552" fill="white"/>
<rect x="171.728" y="105.473" width="44.6598" height="4.75104" rx="2.37552" fill="white"/>
<circle cx="42.8072" cy="14.7812" r="2.73735" fill="#C4C4C4"/>
<circle cx="50.4722" cy="14.7812" r="2.73735" fill="#C4C4C4"/>
<circle cx="58.1368" cy="14.7812" r="2.73735" fill="#C4C4C4"/>
</svg>
